<?xml version="1.0" encoding="UTF-8"?> <svg xmlns="http://www.w3.org/2000/svg" id="master-artboard" viewBox="0 0 400 245" x="0px" y="0px" style="enable-background:new 0 0 1400 980;" width="400px" height="245px"><defs><style id="ee-google-fonts">@import url(https://fonts.googleapis.com/css?family=Anton:400|Roboto+Slab:100,300,400,700);</style><path id="text-path-0" d="M 778.8464965820312 213.4612274169922 A 100 18 0 0 1 988.3533935546875 213.4612274169922 A 100 18 0 0 1 778.8464965820312 213.4612274169922 Z" style="fill: none; stroke: red; stroke-width: 2;"></path><path id="text-path-1" d="M 664.5464477539062 37.96122741699219 A 100 19 0 0 1 876.5812377929688 37.96122741699219 A 100 19 0 0 1 664.5464477539062 37.96122741699219" style="fill: none; stroke: red; stroke-width: 2;"></path><path id="text-path-2" d="M 765.3650512695312 211.70851135253906 A 100 17 0 0 1 991.5017700195312 211.70851135253906 A 100 17 0 0 1 765.3650512695312 211.70851135253906" style="fill: none; stroke: red; stroke-width: 2;"></path><path id="path-1" d="M 765.3650512695312 211.70851135253906 A 100 17 0 0 1 991.5017700195312 211.70851135253906 A 100 17 0 0 1 765.3650512695312 211.70851135253906" style="fill: none; stroke: red; stroke-width: 2;"></path></defs><rect id="ee-background" x="0" y="0" width="400" height="245" style="fill: white; fill-opacity: 0; pointer-events: none;"></rect><path style="fill: rgb(63, 61, 61); fill-opacity: 1; stroke: rgb(0, 0, 0); stroke-opacity: 1; stroke-width: 0; paint-order: fill;"></path><path style="fill: rgb(63, 61, 61); fill-opacity: 1; stroke: rgb(0, 0, 0); stroke-opacity: 1; stroke-width: 0; paint-order: fill;"></path><path style="fill: rgb(63, 61, 61); fill-opacity: 1; stroke: rgb(0, 0, 0); stroke-opacity: 1; stroke-width: 0; paint-order: fill;"></path><path style="fill: rgb(63, 61, 61); fill-opacity: 1; stroke: rgb(0, 0, 0); stroke-opacity: 1; stroke-width: 0; paint-order: fill;"></path><path style="fill: rgb(63, 61, 61); fill-opacity: 1; stroke: rgb(0, 0, 0); stroke-opacity: 1; stroke-width: 0; paint-order: fill;"></path><path style="fill: rgb(63, 61, 61); fill-opacity: 1; stroke: rgb(0, 0, 0); stroke-opacity: 1; stroke-width: 0; paint-order: fill;"></path><g transform="matrix(1.0215547348463887, 0, 0, 1.0215547348463887, -4.310968696730834, 3.2334777721651022)"><path d="M37.201 113.865h25.348v5.715H37.201z" class="cls-1" style="fill: rgb(255, 106, 0);"></path><path d="M75.248 93.128H58.475l4.048 5.727 12.228 3.747a5.29 5.29 0 0 1 3.692 5.076l.001.014v18.327a5.29 5.29 0 0 1-3.693 5.076l-12.228 3.746-4.047 5.727h16.772A12.668 12.668 0 0 0 87.916 127.9v-22.104a12.668 12.668 0 0 0-12.668-12.668zm-50.746 0h16.772l-4.048 5.727-12.228 3.747a5.29 5.29 0 0 0-3.692 5.076l-.001.014v18.327a5.29 5.29 0 0 0 3.693 5.076l12.228 3.746 4.048 5.727H24.502A12.668 12.668 0 0 1 11.833 127.9v-22.104a12.668 12.668 0 0 1 12.669-12.668zm268.779 33.125a7.513 7.513 0 0 1-15.025 0v-18.136a7.513 7.513 0 0 1 15.025 0v.222h5.75v-.222a13.262 13.262 0 0 0-26.523 0v18.119a13.262 13.262 0 0 0 26.522.017l.001-.24h-5.75zm29.879-19.528a11.352 11.352 0 0 0-11.398 10.754v11.11a11.416 11.416 0 0 0 22.794-.01v-11.112a11.346 11.346 0 0 0-11.397-10.742zm5.635 21.218a5.636 5.636 0 1 1-11.272.004v-9.819a5.636 5.636 0 1 1 11.272 0zm-26.903-32.935h5.732v43.62h-5.732zm-157.966 11.717h5.732v31.902h-5.732zm-11.454-11.717h5.732v43.62h-5.732zm-14.458 0h-7.054L99.375 138.57l-.015.057h5.723l3.077-11.574 12.663.039 3.06 11.501.008.034h5.723L118.023 95.04zm1.29 26.37h-9.634l4.817-18.114zm236.43 7.166a5.651 5.651 0 0 1-11.303 0v-21.819h-5.733v22.754a9.873 9.873 0 0 0 12.804 9.42 8.098 8.098 0 0 0 1.58-.656 9.876 9.876 0 0 0 2.38-1.717l.247-.24v2.342h5.781v-31.903h-5.756zM143.926 95.008h5.732v5.733h-5.732zm24.334 11.69a9.814 9.814 0 0 0-6.9 2.82l-.246.24V95.012h-5.733v43.62h5.733v-2.343l.246.24a9.864 9.864 0 0 0 16.768-7.048v-12.915a9.88 9.88 0 0 0-9.868-9.868zm4.209 10.916v10.819a5.666 5.666 0 0 1-11.333 0v-10.819a5.666 5.666 0 0 1 11.333 0zm49.174-10.92a9.81 9.81 0 0 0-6.9 2.819l-.246.24V95.009h-5.734v43.62h5.734v-2.344l.246.241a9.863 9.863 0 0 0 16.768-7.049v-12.914a9.88 9.88 0 0 0-9.868-9.868zm4.208 10.916v10.818a5.666 5.666 0 1 1-11.332 0V117.61a5.666 5.666 0 0 1 11.332 0zm156.8-22.602v14.745l-.246-.24a9.864 9.864 0 0 0-16.768 7.049l.002 12.92-.006.033a9.867 9.867 0 0 0 16.772 7.01l.246-.24v2.343h5.735v-43.62zm-.023 22.602v10.818a5.666 5.666 0 0 1-11.332 0V117.61a5.666 5.666 0 0 1 11.332 0zm-177.976-.092a11.042 11.042 0 0 0-.116-1.114l-.03-.16a11.566 11.566 0 0 0-1.962-4.775 11.196 11.196 0 0 0-8.507-4.751 17.007 17.007 0 0 0-.666-.022 11.408 11.408 0 0 0-11.244 9.326l-.01.054h5.613l.006-.037a5.644 5.644 0 0 1 11.176.868l.007 2.678h-8.134a9.86 9.86 0 0 0-2.484 19.403l.145.038a9.742 9.742 0 0 0 1.234.225c.048.006.095.013.143.018a13.61 13.61 0 0 0 1.488.08 10.704 10.704 0 0 0 3.444-.499 9.844 9.844 0 0 0 3.917-2.353l.246-.24v2.342h5.734v-3.814zm-12.8 6.417h6.988v4.032a6.405 6.405 0 0 1-5.201 6.262 5.793 5.793 0 0 1-1.275.147 5.695 5.695 0 0 1-2.9-.814 4.981 4.981 0 0 1-.732-.47 5.23 5.23 0 0 1-.887-.88l-.06-.077a5.052 5.052 0 0 1-1.055-3.08 5.127 5.127 0 0 1 5.122-5.12zm66.254-6.388a11.039 11.039 0 0 0-.116-1.114l-.03-.16a11.566 11.566 0 0 0-1.962-4.775 11.196 11.196 0 0 0-8.507-4.751 17.007 17.007 0 0 0-.666-.022 11.408 11.408 0 0 0-11.245 9.326l-.01.054h5.613l.007-.037a5.644 5.644 0 0 1 11.176.868l.007 2.678h-8.135a9.86 9.86 0 0 0-2.483 19.403l.145.038a9.749 9.749 0 0 0 1.234.225c.048.006.095.013.143.018a13.61 13.61 0 0 0 1.488.08 10.704 10.704 0 0 0 3.444-.499 9.844 9.844 0 0 0 3.917-2.353l.246-.24v2.342h5.734v-3.814zm-12.8 6.417h6.988v4.032a6.405 6.405 0 0 1-5.201 6.262 5.793 5.793 0 0 1-1.275.147 5.695 5.695 0 0 1-2.9-.814 4.98 4.98 0 0 1-.732-.47 5.23 5.23 0 0 1-.887-.88l-.06-.076a5.052 5.052 0 0 1-1.055-3.08 5.127 5.127 0 0 1 5.122-5.121z" class="cls-1" style="fill: rgb(255, 106, 0);"></path></g></svg> 