<?xml version="1.0" encoding="utf-8"?>
<!-- Generator: Adobe Illustrator 16.0.0, SVG Export Plug-In . SVG Version: 6.00 Build 0)  -->
<!DOCTYPE svg PUBLIC "-//W3C//DTD SVG 1.1//EN" "http://www.w3.org/Graphics/SVG/1.1/DTD/svg11.dtd">
<svg version="1.1" id="Layer_1" xmlns="http://www.w3.org/2000/svg" xmlns:xlink="http://www.w3.org/1999/xlink" x="0px" y="0px"
	 width="1000px" height="1000px" viewBox="0 0 1000 1000" enable-background="new 0 0 1000 1000" xml:space="preserve">
<g>
	<path fill="#252525" d="M275.906,671.385c19.811,0,32.375,17.396,32.375,35.275c0,18.12-10.872,35.033-32.375,35.033
		c-21.504,0-32.376-16.913-32.376-35.033C243.529,688.78,254.643,671.385,275.906,671.385 M352.488,597.211v168.885h29.235V597.211
		H352.488z M397.995,597.211v168.885h29.235V597.211H397.995z M470.779,692.646c4.349-15.462,17.396-23.194,33.342-23.194
		c16.912,0,28.993,7.732,30.927,23.194H470.779z M563.315,717.05c4.591-49.048-20.296-73.692-60.16-73.692
		c-38.658,0-63.302,26.094-63.302,62.337c0,38.173,24.402,63.543,65.476,63.543c18.121,0,38.657-6.282,51.222-19.329l-18.846-18.604
		c-6.766,7.006-21.021,11.113-31.893,11.113c-20.778,0-33.584-10.63-35.517-25.368H563.315z M574.362,699.052v67.044h29.477v-62.818
		c0-21.987,14.255-30.201,29.719-30.201c9.664,0,15.221,2.657,21.261,7.732l13.289-25.612
		C644.239,632.374,574.362,639.796,574.362,699.052z M723.854,671.385c19.811,0,32.374,17.396,32.374,35.275
		c0,18.12-10.871,35.033-32.374,35.033c-21.505,0-32.377-16.913-32.377-35.033C691.477,688.78,702.591,671.385,723.854,671.385z
		 M723.611,644.565c-37.933,0-61.611,28.027-61.611,62.095c0,34.308,23.195,62.093,61.854,62.093
		c38.656,0,62.093-27.785,62.093-62.093C785.946,672.593,761.544,644.565,723.611,644.565z M275.664,644.565
		c-37.933,0-61.611,28.027-61.611,62.095c0,34.308,23.195,62.093,61.853,62.093c13.237,0,24.687-3.258,34.024-8.92l1.541,6.263
		h26.528V706.66C337.999,672.593,313.597,644.565,275.664,644.565z"/>
	<path fill-rule="evenodd" clip-rule="evenodd" fill="#F49925" d="M526.994,292.365l-12.331-21.36
		c-3.314-5.703-9.438-8.387-15.263-8.362c-5.424,0.022-10.556,2.341-13.926,8.179l-21.379,37.03l-64.695,112.057
		c-2.923,5.59-2.139,11.969,0.698,16.835c2.73,4.686,7.305,7.972,14.046,7.972h9.415c2.989-5.916,7.673-11.06,13.842-14.621
		c16.882-9.748,38.466-3.964,48.212,12.918c9.748,16.88,3.963,38.466-12.918,48.211s-38.466,3.963-48.211-12.917
		c-0.326-0.564-0.632-1.134-0.924-1.708l-0.083-0.003h-3.807c-22.502,0.001-38.678-9.187-47.18-23.913
		c-8.993-15.573-9.456-33.731,1.965-53.512c19.416-33.629,42.55-73.582,62.008-107.222l18.64-32.284
		c11.25-19.487,27.294-28.901,44.299-28.902c17.984-0.001,33.939,8.677,45.36,28.458l19.714,34.146
		c-6.465-2.117-13.436-3.241-20.884-3.24C537.774,290.128,532.234,290.909,526.994,292.365"/>
	<path fill-rule="evenodd" clip-rule="evenodd" fill="#B52D9B" d="M605.172,521.243l24.671,0.001
		c6.596-0.02,11.982-3.98,14.873-9.037c2.692-4.708,3.25-10.313-0.119-16.15l-21.38-37.03l-64.696-112.056
		c-3.38-5.326-9.296-7.836-14.929-7.813c-5.423,0.022-10.557,2.341-13.927,8.179l-4.708,8.154
		c3.629,5.545,5.742,12.175,5.741,19.298c0.001,19.494-15.8,35.294-35.293,35.293c-19.492,0.002-35.294-15.8-35.293-35.293
		c0-19.493,15.801-35.294,35.292-35.294c0.651,0,1.298,0.019,1.941,0.054l0.044-0.071l1.903-3.297
		c11.251-19.487,27.295-28.902,44.299-28.902c17.983-0.001,33.939,8.677,45.36,28.458c19.415,33.63,42.449,73.641,61.853,107.311
		l18.639,32.285c11.252,19.487,11.383,38.088,2.881,52.815c-8.99,15.576-24.483,25.055-47.325,25.055l-39.358-0.001
		c5.031-4.526,9.461-9.975,13.163-16.389C601.722,531.758,603.816,526.542,605.172,521.243"/>
	<path fill-rule="evenodd" clip-rule="evenodd" fill="#359C9B" d="M367.892,474.534l-12.365,21.416
		c-3.282,5.721-2.545,12.367,0.39,17.399c2.73,4.686,7.306,7.971,14.046,7.971l42.758-0.001h129.392
		c6.303-0.264,11.435-4.131,14.23-9.021c2.691-4.707,3.251-10.313-0.12-16.15l-4.707-8.154c-6.617,0.37-13.414-1.115-19.583-4.677
		c-16.883-9.747-22.666-31.331-12.919-48.212c9.745-16.881,31.331-22.666,48.212-12.918s22.665,31.331,12.919,48.211
		c-0.325,0.563-0.665,1.114-1.017,1.653l0.039,0.074l1.903,3.296c11.252,19.487,11.383,38.089,2.881,52.815
		c-8.991,15.575-24.484,25.055-47.325,25.055c-38.832,0-84.999-0.059-123.861-0.09h-37.279
		c-22.501,0.001-38.676-9.188-47.179-23.913c-8.994-15.574-9.457-33.731,1.965-53.512l19.736-34.184
		c1.401,6.645,3.911,13.23,7.628,19.667C360.55,466.304,364.003,470.719,367.892,474.534"/>
</g>
</svg>
