<?xml version="1.0" encoding="UTF-8" standalone="no"?>
<svg
   id="artwork"
   viewBox="0 0 566 240"
   version="1.1"
   sodipodi:docname="cartographer.svg"
   inkscape:version="1.1.1 (c3084ef, 2021-09-22)"
   xmlns:inkscape="http://www.inkscape.org/namespaces/inkscape"
   xmlns:sodipodi="http://sodipodi.sourceforge.net/DTD/sodipodi-0.dtd"
   xmlns="http://www.w3.org/2000/svg"
   xmlns:svg="http://www.w3.org/2000/svg"
   xmlns:rdf="http://www.w3.org/1999/02/22-rdf-syntax-ns#"
   xmlns:dc="http://purl.org/dc/elements/1.1/"
   xmlns:x="adobe:ns:meta/"
   xmlns:lr="http://ns.adobe.com/lightroom/1.0/"
   xmlns:xmp="http://ns.adobe.com/xap/1.0/"
   xmlns:xmpMM="http://ns.adobe.com/xap/1.0/mm/"
   xmlns:stEvt="http://ns.adobe.com/xap/1.0/sType/ResourceEvent#">
  <sodipodi:namedview
     id="namedview925"
     pagecolor="#ffffff"
     bordercolor="#666666"
     borderopacity="1.0"
     inkscape:pageshadow="2"
     inkscape:pageopacity="0.0"
     inkscape:pagecheckerboard="0"
     showgrid="false"
     inkscape:zoom="1.9911661"
     inkscape:cx="283"
     inkscape:cy="120.03017"
     inkscape:window-width="1792"
     inkscape:window-height="1092"
     inkscape:window-x="0"
     inkscape:window-y="28"
     inkscape:window-maximized="0"
     inkscape:current-layer="artwork" />
  <title
     id="title872">Cartographer Open Source Identity</title>
  <metadata
     id="metadata874">
<?xpacket begin="﻿" id="W5M0MpCehiHzreSzNTczkc9d"?>    <x:xmpmeta
       x:xmptk="Adobe XMP Core 7.0-c000 79.dcf59f3, 2021/07/24-00:42:40        ">
      <rdf:RDF>
        <rdf:Description
           rdf:about="">
          <lr:hierarchicalSubject>
            <rdf:Bag>
              <rdf:li>open source identity</rdf:li>
              <rdf:li>open source identity|cartographer</rdf:li>
              <rdf:li>open source identity|Pinniped</rdf:li>
              <rdf:li>open source identity|1083952</rdf:li>
            </rdf:Bag>
          </lr:hierarchicalSubject>
          <dc:subject>
            <rdf:Bag>
              <rdf:li>open source identity</rdf:li>
              <rdf:li>cartographer</rdf:li>
              <rdf:li>1083952</rdf:li>
            </rdf:Bag>
          </dc:subject>
          <dc:title>
            <rdf:Alt>
              <rdf:li
                 xml:lang="x-default">Cartographer Open Source Identity</rdf:li>
            </rdf:Alt>
          </dc:title>
          <xmp:MetadataDate>2021-09-27T17:57:45-07:00</xmp:MetadataDate>
          <xmpMM:InstanceID>xmp.iid:aeaa4ea7-d600-4603-8514-e8c0e1c524f4</xmpMM:InstanceID>
          <xmpMM:DocumentID>xmp.did:01482368-cb8a-461c-95be-98e24bfc1908</xmpMM:DocumentID>
          <xmpMM:OriginalDocumentID>xmp.did:01482368-cb8a-461c-95be-98e24bfc1908</xmpMM:OriginalDocumentID>
          <xmpMM:History>
            <rdf:Seq>
              <rdf:li>
                <rdf:Description>
                  <stEvt:action>saved</stEvt:action>
                  <stEvt:instanceID>xmp.iid:01482368-cb8a-461c-95be-98e24bfc1908</stEvt:instanceID>
                  <stEvt:when>2021-09-27T17:18:06-07:00</stEvt:when>
                  <stEvt:softwareAgent>Adobe Bridge 2021 (Macintosh)</stEvt:softwareAgent>
                  <stEvt:changed>/metadata</stEvt:changed>
                </rdf:Description>
              </rdf:li>
              <rdf:li>
                <rdf:Description>
                  <stEvt:action>saved</stEvt:action>
                  <stEvt:instanceID>xmp.iid:aeaa4ea7-d600-4603-8514-e8c0e1c524f4</stEvt:instanceID>
                  <stEvt:when>2021-09-27T17:57:45-07:00</stEvt:when>
                  <stEvt:softwareAgent>Adobe Bridge 2021 (Macintosh)</stEvt:softwareAgent>
                  <stEvt:changed>/metadata</stEvt:changed>
                </rdf:Description>
              </rdf:li>
            </rdf:Seq>
          </xmpMM:History>
        </rdf:Description>
      </rdf:RDF>
    </x:xmpmeta>
<?xpacket end="w"?>  </metadata>
  <defs
     id="defs878">
    <style
       id="style876">.cls-1{fill:#717074;}.cls-2{fill:#1e4488;}.cls-3{fill:#fff;}.cls-4{fill:#218fcf;}</style>
  </defs>
  <path
     class="cls-1"
     d="m 44.44,233.77 a 21.76,21.76 0 0 1 -7.77,-7.83 21,21 0 0 1 0,-21.21 21.83,21.83 0 0 1 7.77,-7.8 20.34,20.34 0 0 1 18.56,-1.26 21,21 0 0 1 6.78,4.65 l -3.18,3.24 a 16.5,16.5 0 0 0 -5.31,-3.84 15.35,15.35 0 0 0 -14.46,0.93 17.27,17.27 0 0 0 -6,6.24 17,17 0 0 0 0,16.89 17.6,17.6 0 0 0 6,6.24 15.26,15.26 0 0 0 14.46,1 16.5,16.5 0 0 0 5.31,-3.84 l 3.18,3.24 A 21.93,21.93 0 0 1 63,235 a 19.85,19.85 0 0 1 -8,1.68 20.13,20.13 0 0 1 -10.56,-2.91 z"
     id="path880" />
  <path
     class="cls-1"
     d="m 105.07,226.6 h -23 L 78,236 H 72.9 L 91,194.74 h 5.1 L 114.31,236 h -5.1 z M 103.15,222.16 93.61,200.5 84,222.16 Z"
     id="path882" />
  <path
     class="cls-1"
     d="m 152,214.18 a 13.18,13.18 0 0 1 -4.59,4.62 16,16 0 0 1 -6.6,2.22 L 151.33,236 H 146 l -10.44,-14.82 h -9.12 V 236 h -4.68 v -41.26 h 16.74 a 17.43,17.43 0 0 1 7.68,1.68 13.45,13.45 0 0 1 5.49,4.71 12.58,12.58 0 0 1 0.36,13.05 z m -25.59,2.52 h 11.22 a 13.23,13.23 0 0 0 8.19,-2.34 8.21,8.21 0 0 0 0,-12.84 13.23,13.23 0 0 0 -8.19,-2.34 h -11.2 z"
     id="path884" />
  <path
     class="cls-1"
     d="m 171.37,199.18 h -13.86 v -4.44 h 32.4 v 4.44 H 176.05 V 236 h -4.68 z"
     id="path886" />
  <path
     class="cls-1"
     d="m 204.82,233.77 a 21.76,21.76 0 0 1 -7.77,-7.83 21,21 0 0 1 0,-21.21 21.83,21.83 0 0 1 7.77,-7.8 20.13,20.13 0 0 1 10.47,-2.93 19.92,19.92 0 0 1 10.47,2.91 22,22 0 0 1 7.71,7.8 21,21 0 0 1 0,21.21 21.91,21.91 0 0 1 -7.71,7.83 19.92,19.92 0 0 1 -10.47,2.91 20.13,20.13 0 0 1 -10.47,-2.89 z m 18.6,-3.75 a 17.35,17.35 0 0 0 6,-6.24 17.17,17.17 0 0 0 0,-16.89 17,17 0 0 0 -6,-6.24 15.46,15.46 0 0 0 -16.26,0 17.27,17.27 0 0 0 -6,6.24 17,17 0 0 0 0,16.89 17.6,17.6 0 0 0 6,6.24 15.29,15.29 0 0 0 16.26,0 z"
     id="path888" />
  <path
     class="cls-1"
     d="m 263.17,214.24 h 16.5 v 16.14 a 20.75,20.75 0 0 1 -7.29,4.59 24,24 0 0 1 -8.73,1.71 20.13,20.13 0 0 1 -10.47,-2.91 21.76,21.76 0 0 1 -7.77,-7.83 21,21 0 0 1 0,-21.21 21.83,21.83 0 0 1 7.77,-7.8 20.13,20.13 0 0 1 10.47,-2.93 24.25,24.25 0 0 1 8.76,1.71 20.08,20.08 0 0 1 7.26,4.59 l -3.18,3.24 a 16.14,16.14 0 0 0 -5.82,-3.78 18.83,18.83 0 0 0 -7,-1.44 15.22,15.22 0 0 0 -8.13,2.31 17.27,17.27 0 0 0 -6,6.24 17,17 0 0 0 0,16.89 17.6,17.6 0 0 0 6,6.24 15.07,15.07 0 0 0 8.13,2.34 19.93,19.93 0 0 0 11.33,-3.82 v -9.84 h -11.83 z"
     id="path890" />
  <path
     class="cls-1"
     d="m 320.38,214.18 a 13.18,13.18 0 0 1 -4.59,4.62 16,16 0 0 1 -6.6,2.22 l 10.5,14.98 h -5.34 l -10.44,-14.82 h -9.12 V 236 h -4.68 v -41.26 h 16.74 a 17.43,17.43 0 0 1 7.68,1.68 13.45,13.45 0 0 1 5.49,4.71 12.58,12.58 0 0 1 0.36,13.05 z m -25.59,2.52 H 306 a 13.23,13.23 0 0 0 8.19,-2.34 8.21,8.21 0 0 0 0,-12.84 13.23,13.23 0 0 0 -8.19,-2.34 h -11.21 z"
     id="path892" />
  <path
     class="cls-1"
     d="m 358.09,226.6 h -23 L 331,236 h -5.1 l 18.18,-41.22 h 5.1 L 367.33,236 h -5.1 z m -1.92,-4.44 -9.54,-21.66 -9.63,21.66 z"
     id="path894" />
  <path
     class="cls-1"
     d="m 374.77,194.74 h 16.74 a 17.43,17.43 0 0 1 7.68,1.68 13.45,13.45 0 0 1 5.49,4.71 12.54,12.54 0 0 1 0,13.62 13.45,13.45 0 0 1 -5.49,4.71 17.43,17.43 0 0 1 -7.68,1.68 H 379.45 V 236 h -4.68 z m 15.9,22 a 13.23,13.23 0 0 0 8.19,-2.34 8.21,8.21 0 0 0 0,-12.84 13.23,13.23 0 0 0 -8.19,-2.34 h -11.22 v 17.48 z"
     id="path896" />
  <path
     class="cls-1"
     d="M 448.93,194.74 V 236 h -4.68 V 217.18 H 420 V 236 h -4.68 V 194.74 H 420 v 18 h 24.3 v -18 z"
     id="path898" />
  <path
     class="cls-1"
     d="m 466.15,199.18 v 13.56 h 22.38 v 4.44 h -22.38 v 14.34 H 491 V 236 H 461.41 V 194.74 H 491 v 4.44 z"
     id="path900" />
  <path
     class="cls-1"
     d="m 530.56,214.18 a 13.18,13.18 0 0 1 -4.56,4.62 16,16 0 0 1 -6.6,2.22 L 529.87,236 h -5.34 L 514.09,221.18 H 505 V 236 h -4.68 V 194.74 H 517 a 17.43,17.43 0 0 1 7.68,1.68 13.45,13.45 0 0 1 5.49,4.71 12.58,12.58 0 0 1 0.36,13.05 z M 505,216.7 h 11.22 a 13.23,13.23 0 0 0 8.19,-2.34 8.21,8.21 0 0 0 0,-12.84 13.23,13.23 0 0 0 -8.19,-2.34 H 505 Z"
     id="path902" />
  <circle
     class="cls-2"
     cx="289.89966"
     cy="92.764053"
     id="circle904"
     style="stroke-width:1.64999"
     r="71.775002" />
  <path
     class="cls-3"
     d="m 345.05915,100.40355 28.677,-3.596999 -1.848,-14.7345 -31.515,3.96 -20.361,-9.5535 37.8015,-24.1065 -7.9695,-12.507 -14.0085,8.9265 -34.9635,-39.8640004 -11.154,9.8010004 33.4455,38.1315 -47.322,30.1785 6.798,-67.65 -14.85,-1.485 -2.871,29.271 -5.775,-2.805 -7.8045,-17.4405 -13.5465,6.0555 6.864,15.3615 -21.219,39.3195 -7.755,-6.402 -9.4545,11.451 31.878,26.399999 24.453,40.293 -1.65,1.155 8.547,12.144 0.825,-0.5775 3.5475,5.8575 12.6885,-7.7055 -4.0755,-6.7155 48.0975,-33.8415 19.305,13.0845 8.25,-12.2925 -18.414,-12.4905 z m -109.9395,-3.068999 20.559,-38.115 7.6725,3.729 -3.4485,34.287 -14.058,8.959499 z m 39.6,53.459999 -19.8,-32.736 50.3415,-32.092499 25.1625,11.7975 -5.3295,17.638499 z"
     id="path906"
     style="stroke-width:1.64999" />
  <path
     class="cls-4"
     d="m 341.89115,96.641551 31.35,-3.927 -0.825,-6.6 -32.703,4.1085 -28.215,-13.2 44.121,-28.1325 -3.5475,-5.577 -16.995,10.8405 -37.29,-42.5205 -4.95,4.356 36.597,41.745 -58.3935,37.257 7.491,-75.9 -6.6,-0.6435 -3.465,35.1285 -12.507,-6.072 -8.415,-18.81 -5.9895,2.64 7.689,17.226 -24.552,45.474 -11.6325,-9.603 -4.191,5.082 32.3895,26.762999 36.0855,59.4 5.643,-3.432 -6.105,-9.9165 53.625,-37.7025 21.648,14.685 3.7125,-5.4615 -20.9385,-14.19 z m -112.0185,1.65 24.057,-44.55 13.8765,6.7485 -3.8445,39.006 -18.4305,11.764499 z m 19.371,18.397499 55.6875,-35.458499 30.426,14.289 -6.7485,22.390499 -55.1265,38.8245 z"
     id="path908"
     style="stroke-width:1.64999" />
  <path
     class="cls-1"
     d="m 289.89965,6.1390506 a 86.625,86.625 0 1 0 86.625,86.6250004 86.625,86.625 0 0 0 -86.625,-86.6250004 z m 0,158.3999994 a 71.775009,71.775 0 1 1 71.77503,-71.774999 71.758498,71.7585 0 0 1 -71.77503,71.774999 z"
     id="path910"
     style="stroke-width:1.64999" />
  <circle
     class="cls-3"
     cx="359.10062"
     cy="43.363049"
     id="circle912"
     style="stroke-width:1.64999"
     r="15.1635" />
  <path
     class="cls-4"
     d="m 359.10065,61.826551 a 18.48,18.48 0 1 1 18.4305,-18.4635 18.48,18.48 0 0 1 -18.4305,18.4635 z m 0,-30.3435 a 11.88,11.88 0 1 0 11.88,11.88 11.8965,11.8965 0 0 0 -11.88,-11.88 z"
     id="path914"
     style="stroke-width:1.64999" />
  <circle
     class="cls-3"
     cx="303.42966"
     cy="77.056046"
     id="circle916"
     style="stroke-width:1.64999"
     r="15.1635" />
  <path
     class="cls-4"
     d="m 303.42965,95.536051 a 18.48,18.48 0 1 1 18.48,-18.48 18.4965,18.4965 0 0 1 -18.48,18.48 z m 0,-30.3435 a 11.88,11.88 0 1 0 11.88,11.8635 11.8635,11.8635 0 0 0 -11.88,-11.8635 z"
     id="path918"
     style="stroke-width:1.64999" />
  <circle
     class="cls-3"
     cx="271.55164"
     cy="165.61156"
     id="circle920"
     style="stroke-width:1.64999"
     r="15.1635" />
  <path
     class="cls-4"
     d="m 271.55165,184.07505 a 18.48,18.48 0 1 1 18.5295,-18.4635 18.48,18.48 0 0 1 -18.5295,18.4635 z m 0,-30.3435 a 11.88,11.88 0 1 0 11.8635,11.88 11.88,11.88 0 0 0 -11.8635,-11.88 z"
     id="path922"
     style="stroke-width:1.64999" />
</svg>
