<?xml version="1.0" encoding="UTF-8"?>
<svg id="Layer_2" data-name="Layer 2" xmlns="http://www.w3.org/2000/svg" viewBox="0 0 300 300">
  <defs>
    <style>
      .cls-1 {
        fill: #1a1a1a;
        stroke-width: 0px;
      }
    </style>
  </defs>
  <g id="Layer_1-2" data-name="Layer 1">
    <g>
      <path class="cls-1" d="M167.83081,69.23077c-2.33849-12.76893-7.5539-24.53876-14.95389-34.61538C137.4923,13.63056,112.64611,0,84.61538,0,37.87692,0,0,37.8771,0,84.61538c0,28.03035,13.63075,52.8771,34.61538,68.26172,13.99996,10.27644,31.29235,16.35367,50,16.35367h30.76923v-38.46154h-30.76923c-25.49232,0-46.15385-20.66181-46.15385-46.15385s20.66153-46.15385,46.15385-46.15385c20.0923,0,37.18459,12.83053,43.50774,30.76923h39.70769Z"/>
      <path class="cls-1" d="M265.38462,147.1229c-13.99996-10.27644-31.29235-16.35367-50-16.35367h-30.76923v38.46154h30.76923c25.49232,0,46.15385,20.66181,46.15385,46.15385s-20.66153,46.15385-46.15385,46.15385-46.15385-20.66181-46.15385-46.15385v-70.92323h0v-59.846h-38.46154v70.92323h0v59.846c0,18.70793,6.07694,35.99985,16.35385,50,15.38462,20.98483,40.23081,34.61538,68.26153,34.61538,46.73847,0,84.61538-37.8771,84.61538-84.61538,0-28.0311-13.63075-52.8771-34.61538-68.26172Z"/>
    </g>
  </g>
</svg>