<?xml version="1.0" encoding="UTF-8" standalone="no"?>
<svg
   width="2500"
   height="2480"
   viewBox="0 0 256 254"
   preserveAspectRatio="xMidYMid"
   version="1.1"
   id="svg1"
   xmlns="http://www.w3.org/2000/svg"
   xmlns:svg="http://www.w3.org/2000/svg">
  <defs
     id="defs1" />
  <path
     d="m 134.10811,127.17349 c 7.28005,-0.60598 12.69158,-6.99899 12.08559,-14.27904 -0.60599,-7.2808 -6.99899,-12.69232 -14.27979,-12.08633 -7.28004,0.60599 -12.69157,6.99899 -12.08559,14.27979 0.606,7.28079 6.999,12.69157 14.27979,12.08558 z m 15.41296,-0.18588 a 28.108986,28.108986 0 0 1 -10.32934,7.20347 l -0.0312,0.0885 a 119.97995,119.97995 0 0 0 13.89017,32.6104 50.604204,50.604204 0 0 1 -17.47182,5.52677 l -0.86401,0.11228 -1.02683,0.0781 -2.05813,0.1569 c -1.26403,0 -2.50129,0.11599 -3.82406,0.0394 a 52.638544,52.638544 0 0 1 -15.30513,-2.61357 51.031743,51.031743 0 0 1 -6.74991,-2.70204 54.089945,54.089945 0 0 1 -5.74314,-3.19725 51.520252,51.520252 0 0 1 -4.550505,-3.25747 c -1.339869,-1.00751 -2.389012,-2.02914 -3.299855,-2.82547 -1.739896,-1.67075 -2.700556,-2.67974 -2.700556,-2.67974 0,0 0.808234,1.12275 2.322836,3.03292 0.798567,0.91679 1.719076,2.08936 2.929568,3.29242 a 52.831122,52.831122 0 0 0 4.178723,3.94822 56.443265,56.443265 0 0 0 5.481419,4.11107 54.394798,54.394798 0 0 0 6.70455,3.80695 58.248594,58.248594 0 0 0 7.72543,3.07902 59.064262,59.064262 0 0 0 8.43776,1.99047 c 1.42314,0.2766 2.96155,0.36805 4.44789,0.55097 l 2.06706,0.12269 1.02832,0.0595 1.18074,0.0193 a 59.35722,59.35722 0 0 0 8.54557,-0.53089 60.187014,60.187014 0 0 0 14.16901,-3.75119 118.88918,118.88918 0 0 0 5.45984,6.87929 l -0.26321,0.16283 -2.27525,1.40753 -0.31378,0.19333 -0.0795,0.0491 -0.02,0.0126 c -0.38218,0.1911 0.49966,-0.24537 0.40003,-0.19703 l -0.0409,0.0208 -0.16804,0.0862 -0.69076,0.3502 -1.45511,0.73983 -0.76436,0.38739 -0.39186,0.19927 -0.19852,0.10038 -0.0491,0.0245 -0.0253,0.0134 c -0.0684,0.029 0.51157,-0.21042 0.25356,-0.10335 l -0.10187,0.0446 -1.68785,0.74131 -1.77707,0.78072 -0.22753,0.10039 -0.029,0.0119 c 0.39185,-0.13979 0.0929,-0.032 0.17251,-0.0602 l -0.0565,0.026 -0.11674,0.0461 -0.47066,0.18439 -0.95694,0.37401 a 69.470923,69.470923 0 0 1 -27.25911,4.59734 l -1.20901,-0.0438 -1.36664,-0.10782 -2.73997,-0.21934 c -1.699,-0.26916 -3.398,-0.38664 -5.14235,-0.76809 a 71.010061,71.010061 0 0 1 -19.796971,-6.7068 c -1.511628,-0.75544 -2.96972,-1.5488 -4.352714,-2.41057 -1.423146,-0.8008 -2.731043,-1.71314 -4.021837,-2.58606 a 72.574481,72.574481 0 0 1 -6.922406,-5.42564 68.892444,68.892444 0 0 1 -5.323785,-5.24646 c -1.554753,-1.60978 -2.725837,-3.16973 -3.759365,-4.40699 -1.004529,-1.25808 -1.699744,-2.31838 -2.220969,-3.00987 l -0.777005,-1.07591 0.667703,1.14878 c 0.447615,0.73908 1.035016,1.87224 1.912399,3.23442 0.904895,1.34359 1.92727,3.03589 3.326621,4.81817 a 70.392918,70.392918 0 0 0 4.862043,5.87921 74.928545,74.928545 0 0 0 6.535763,6.29486 c 1.238747,1.0365 2.502775,2.12207 3.89246,3.10505 1.348791,1.04244 2.785321,2.02615 4.28282,2.97789 a 76.950244,76.950244 0 0 0 9.611813,5.28958 77.8135,77.8135 0 0 0 10.69293,3.97054 c 1.81574,0.59409 3.78465,0.95917 5.67845,1.43949 l 2.70948,0.49818 1.34805,0.24538 1.50568,0.21562 c 3.70955,0.50115 7.45032,0.73462 11.19333,0.69819 a 78.978636,78.978636 0 0 0 19.8839,-2.77715 l 0.99039,-0.2751 0.48703,-0.13459 0.68034,-0.21711 1.84696,-0.59558 1.75477,-0.56658 1.90348,-0.73462 1.52203,-0.58741 0.72273,-0.28031 0.17622,-0.067 0.0438,-0.0171 0.46323,-0.22904 0.0841,-0.0409 0.33162,-0.16135 2.40685,-1.16885 3.0069,-1.46106 c 2.04401,1.95552 4.14899,3.85156 6.33501,5.66581 0,0 10.4089,10.71895 16.14236,6.31046 5.39071,-4.14303 -0.81938,-17.13796 -0.81938,-17.13796 a 120.4008,120.4008 0 0 0 -44.5704,-58.77718 z m -36.31104,-17.61607 -0.0602,-0.0729 a 119.9755,119.9755 0 0 0 -34.793504,-4.89476 50.543977,50.543977 0 0 1 4.613698,-18.50531 l 0.363594,-0.791131 0.475869,-0.912331 0.957686,-1.829122 c 0.669191,-1.071448 1.226106,-2.183791 1.992701,-3.264163 a 52.628134,52.628134 0 0 1 10.32487,-11.597075 51.033974,51.033974 0 0 1 5.866576,-4.292488 54.165043,54.165043 0 0 1 5.75504,-3.174938 51.483075,51.483075 0 0 1 5.17508,-2.133231 c 1.56665,-0.600785 2.98533,-0.951738 4.14155,-1.301204 2.33993,-0.596323 3.70656,-0.875896 3.70656,-0.875896 0,0 -1.38002,0.09071 -3.80397,0.363593 -1.20083,0.191091 -2.68271,0.350209 -4.34379,0.739084 a 52.961987,52.961987 0 0 0 -5.56321,1.455862 56.509441,56.509441 0 0 0 -6.39077,2.4708 54.373235,54.373235 0 0 0 -6.77965,3.669397 58.21216,58.21216 0 0 0 -6.706778,4.920782 59.052366,59.052366 0 0 0 -6.158042,6.102276 c -0.988915,1.060296 -1.88117,2.316887 -2.823242,3.480536 L 77.96076,80.617168 77.365924,81.457374 76.7235,82.44852 a 59.354245,59.354245 0 0 0 -4.076859,7.529139 60.28442,60.28442 0 0 0 -4.46722,14.718431 l -0.0342,0.20448 c -2.871571,0.26322 -5.730503,0.63053 -8.579025,1.10193 l 0.0074,-1.49676 0.01115,-2.67602 v -0.48479 c 0.0409,-0.4253 -0.05576,0.5532 -0.04461,0.4439 l 0.0037,-0.0461 0.01636,-0.18812 0.06915,-0.77106 0.142761,-1.623155 0.07584,-0.854316 0.03866,-0.436468 0.01933,-0.220829 0.0044,-0.0558 0.003,-0.0282 c 0.01115,-0.0736 -0.09369,0.545008 -0.04684,0.269909 l 0.01487,-0.111539 0.266189,-1.823901 0.279573,-1.920571 0.03569,-0.24686 0.0044,-0.0305 c -0.09071,0.407458 -0.02156,0.0952 -0.04015,0.178459 l 0.0119,-0.0617 0.02231,-0.12344 0.09443,-0.496677 0.190348,-1.007505 A 69.464974,69.464974 0 0 1 71.288078,66.63482 l 0.67737,-1.0023 0.81567,-1.10119 1.637286,-2.208329 c 1.127958,-1.298231 2.127283,-2.677507 3.375696,-3.954174 a 71.032368,71.032368 0 0 1 16.175946,-13.23733 c 1.440248,-0.8811 2.886444,-1.698257 4.349735,-2.415035 1.43356,-0.783696 2.899839,-1.408274 4.323729,-2.041032 a 72.59753,72.59753 0 0 1 8.26822,-2.996487 68.87906,68.87906 0 0 1 7.27113,-1.735435 c 2.189,-0.465459 4.13263,-0.632013 5.72976,-0.852846 1.6016,-0.190348 2.86786,-0.218602 3.72888,-0.2937 l 1.325,-0.08848 -1.325,-0.04684 c -0.86474,-0.01264 -2.13769,-0.111532 -3.75713,-0.0922 -1.61647,0.05576 -3.59579,0.02528 -5.84873,0.268421 a 70.383996,70.383996 0 0 0 -7.56186,1.007504 74.97167,74.97167 0 0 0 -8.80134,2.208329 c -1.53542,0.504124 -3.125869,0.998581 -4.695496,1.657362 -1.598623,0.591862 -3.194271,1.287077 -4.795123,2.054416 a 76.915297,76.915297 0 0 0 -9.577608,5.349808 77.860344,77.860344 0 0 0 -9.034075,6.96702 c -1.464784,1.224618 -2.81655,2.7013 -4.228542,4.053065 l -1.857376,2.034339 -0.921996,1.01494 -0.979994,1.162905 a 77.810526,77.810526 0 0 0 -6.523122,9.125531 78.959304,78.959304 0 0 0 -8.178254,18.335828 l -0.29147,0.985195 -0.143504,0.484788 -0.17622,0.691497 -0.473638,1.882651 -0.448358,1.787471 -0.385156,2.00532 -0.308572,1.603082 -0.146479,0.759156 -0.03569,0.18588 -0.0089,0.0461 -0.05131,0.5138 -0.0097,0.0929 -0.03867,0.36657 -0.284035,2.6604 -0.50338,4.73118 a 120.27589,120.27589 0 0 0 -8.237737,2.54368 c 0,0 -14.548208,3.40097 -13.723616,10.58585 0.776261,6.75585 15.111071,8.12695 15.111071,8.12695 a 120.40377,120.40377 0 0 0 73.34034,-7.92322 28.096345,28.096345 0 0 1 -0.85583,-12.56592 z m 102.45757,-7.80649 a 77.886367,77.886367 0 0 0 -1.79716,-11.264662 c -0.37474,-1.873741 -1.02609,-3.766803 -1.53765,-5.654664 l -0.89597,-2.604639 -0.44762,-1.295256 -0.55245,-1.416454 a 77.794911,77.794911 0 0 0 -4.89327,-10.09214 78.983097,78.983097 0 0 0 -12.19042,-15.95202 l -0.72793,-0.727187 -0.3569,-0.358389 -0.5242,-0.482561 -1.42613,-1.316075 -1.35548,-1.249156 -1.57631,-1.298231 -1.26031,-1.037245 -0.59632,-0.492227 -0.14499,-0.120454 -0.0371,-0.02974 -0.4268,-0.289983 -0.0766,-0.05354 -0.30262,-0.20968 -2.20238,-1.52055 -2.95187,-2.040288 a 120.84246,120.84246 0 0 0 1.93322,-9.196911 c 0.52644,-3.098354 4.06125,-14.378679 -2.6262,-17.131284 -6.28741,-2.588281 -14.42106,9.294316 -14.42106,9.294316 a 120.40601,120.40601 0 0 0 -28.54321,68.020994 28.104525,28.104525 0 0 1 11.40896,5.331204 l 0.0922,-0.0179 a 119.96806,119.96806 0 0 0 20.69286,-27.308902 50.538772,50.538772 0 0 1 13.737,12.708675 l 0.52048,0.697446 0.57328,0.855077 1.14803,1.714616 c 0.6216,1.100446 1.33094,2.121336 1.91463,3.311747 a 52.62293,52.62293 0 0 1 5.24497,14.612113 51.120969,51.120969 0 0 1 0.96214,7.20867 54.20445,54.20445 0 0 1 0.0372,6.57219 51.570813,51.570813 0 0 1 -0.60005,5.56396 c -0.22381,1.66331 -0.59334,3.07976 -0.84019,4.26274 -0.59931,2.33697 -1.00752,3.66865 -1.00752,3.66865 0,0 0.58145,-1.2551 1.49974,-3.51399 0.40671,-1.14655 0.97552,-2.52359 1.42834,-4.16832 a 52.841532,52.841532 0 0 0 1.38374,-5.58105 c 0.43349,-2.24402 0.72868,-4.51332 0.88706,-6.79377 0.18885,-2.56523 0.19555,-5.14162 0.02,-7.70909 a 58.218851,58.218851 0 0 0 -1.11383,-8.243662 58.985447,58.985447 0 0 0 -2.4128,-8.326192 c -0.45803,-1.375556 -1.1354,-2.76078 -1.70644,-4.143031 l -0.90935,-1.860351 -0.45357,-0.924226 -0.56286,-1.038733 a 59.409266,59.409266 0 0 0 -4.66279,-7.18116 60.273268,60.273268 0 0 0 -10.55684,-10.76951 120.67294,120.67294 0 0 0 3.36826,-8.332169 l 0.461,0.247602 2.34439,1.28782 0.32345,0.178451 0.0818,0.04461 0.0208,0.01115 c 0.35393,0.238678 -0.45876,-0.313777 -0.36879,-0.252062 l 0.0394,0.02602 0.15688,0.104097 0.64465,0.429025 1.35697,0.905638 0.71381,0.475126 0.36583,0.243139 0.18365,0.122685 0.0468,0.03049 0.023,0.01561 c 0.0595,0.04535 -0.43348,-0.342031 -0.21489,-0.168042 l 0.0907,0.06692 1.47817,1.103421 1.55401,1.163648 0.19927,0.14871 0.0245,0.01933 c -0.31452,-0.274368 -0.0729,-0.06469 -0.1383,-0.120454 l 0.0491,0.03941 0.0974,0.07955 0.39183,0.319725 0.79709,0.649114 a 69.470923,69.470923 0 0 1 17.40119,21.481024 l 0.55543,1.075166 0.57774,1.242463 1.15547,2.494596 c 0.60078,1.612008 1.33392,3.149659 1.85886,4.856091 a 71.010061,71.010061 0 0 1 3.88875,20.536681 c 0.0847,1.68711 0.11153,3.34818 0.0402,4.97581 0,1.63356 -0.1502,3.22103 -0.27511,4.77356 a 72.569276,72.569276 0 0 1 -1.32352,8.69427 68.815116,68.815116 0 0 1 -1.95254,7.2161 c -0.63797,2.14514 -1.42167,3.93262 -1.99123,5.43978 -0.60226,1.49453 -1.18371,2.61951 -1.52946,3.4151 l -0.55618,1.2053 0.67514,-1.14135 c 0.42383,-0.75321 1.11978,-1.82169 1.87746,-3.25524 0.72198,-1.44694 1.69677,-3.17048 2.56077,-5.26505 a 70.297001,70.297001 0 0 0 2.7303,-7.12316 74.92334,74.92334 0 0 0 2.27004,-8.78647 c 0.29444,-1.58822 0.61565,-3.22253 0.79113,-4.91483 0.24537,-1.68785 0.39631,-3.42181 0.48926,-5.19441 0.22083,-3.65601 0.17994,-7.32392 -0.1212,-10.97399 z"
     fill="#4da9e1"
     id="path1"
     style="display:inline;fill:#4da9e1;fill-opacity:1;stroke-width:0.743545" />
  <path
     style="font-weight:600;font-size:43.6662px;font-family:Inconsolata;-inkscape-font-specification:'Inconsolata Semi-Bold';fill:#4da9e1;fill-opacity:1;stroke-width:27.2913"
     d="m 42.261453,244.14788 q -2.226976,0 -4.191955,-0.82965 -1.921313,-0.82966 -3.405964,-2.53264 -1.484651,-1.70298 -2.357974,-4.32296 -0.829658,-2.61997 -0.829658,-6.24426 0,-3.18763 0.611327,-5.54561 0.654993,-2.40164 1.746647,-4.01729 1.091655,-1.65932 2.488974,-2.61997 1.397318,-1.00432 2.925635,-1.44099 1.528317,-0.48032 3.056634,-0.48032 3.056634,0 5.196278,1.44098 2.18331,1.39732 3.274965,3.88629 l -2.925636,1.96498 -0.349329,0.21833 -0.218331,-0.30566 q 0.08733,-0.34933 -0.04367,-0.65499 -0.08733,-0.34933 -0.480328,-0.917 -0.960656,-1.26631 -2.052311,-1.70298 -1.091655,-0.43666 -2.226976,-0.43666 -1.397319,0 -2.663638,0.69866 -1.222654,0.65499 -2.139644,1.96498 -0.91699,1.30999 -1.440985,3.27496 -0.523994,1.92132 -0.523994,4.45396 0,2.4453 0.480328,4.41028 0.523995,1.92132 1.397319,3.31863 0.91699,1.35366 2.095977,2.09598 1.222654,0.69866 2.619972,0.69866 1.091655,0 2.008645,-0.30566 0.91699,-0.30567 1.702982,-1.00433 0.785992,-0.74232 1.397318,-1.74664 l 3.056634,2.13964 q -1.440984,2.40164 -3.44963,3.4933 -2.008645,1.04798 -4.759615,1.04798 z m 20.479447,-0.0437 q -2.75097,0 -4.890614,-1.30999 -2.139644,-1.35365 -3.405964,-3.71162 -1.266319,-2.40165 -1.266319,-5.50195 0,-3.05663 1.266319,-5.4146 1.26632,-2.40164 3.405964,-3.7553 2.139644,-1.39732 4.890614,-1.39732 2.707304,0 4.846948,1.39732 2.18331,1.35366 3.44963,3.7553 1.26632,2.35797 1.26632,5.4146 0,3.05664 -1.26632,5.45828 -1.26632,2.35797 -3.44963,3.71163 -2.139644,1.35365 -4.846948,1.35365 z m 0,-3.53696 q 1.484651,0 2.619972,-0.87333 1.178987,-0.91699 1.83398,-2.48897 0.654993,-1.57198 0.654993,-3.66796 0,-2.13965 -0.654993,-3.71163 -0.654993,-1.57198 -1.83398,-2.44531 -1.135321,-0.87332 -2.619972,-0.87332 -1.484651,0 -2.663638,0.87332 -1.135321,0.87333 -1.790314,2.44531 -0.654993,1.57198 -0.654993,3.71163 0,2.09598 0.654993,3.66796 0.654993,1.57198 1.790314,2.48897 1.178987,0.87333 2.663638,0.87333 z m 13.536522,3.1003 v -20.21745 h 4.36662 v 3.1003 q 0.742325,-1.09166 1.659315,-1.87765 0.91699,-0.78599 2.052311,-1.22265 1.135322,-0.48033 2.445308,-0.48033 1.702981,0 3.143966,0.87332 1.440984,0.87333 2.314308,2.75097 0.873324,1.83398 0.873324,4.89062 v 12.18287 h -4.322953 v -12.13921 q 0,-1.79031 -0.392996,-2.92563 -0.392996,-1.13532 -1.135321,-1.65932 -0.698659,-0.52399 -1.702982,-0.52399 -0.873324,0 -1.746648,0.39299 -0.873324,0.393 -1.615649,1.09166 -0.69866,0.65499 -1.135321,1.65931 -0.436662,0.96066 -0.436662,2.18331 v 11.92088 z m 31.483328,0.48032 q -2.22698,0 -4.14829,-0.74232 -1.87764,-0.78599 -3.27496,-2.18331 -1.353655,-1.44098 -2.139647,-3.31863 -0.742325,-1.92131 -0.742325,-4.19196 0,-2.27064 0.742325,-4.19195 0.785992,-1.96498 2.139647,-3.40597 1.39732,-1.44098 3.27496,-2.22697 1.92131,-0.82966 4.10462,-0.82966 2.70731,0 4.71595,1.00432 2.05232,1.00433 3.31864,2.83831 l -2.48898,2.61997 -0.30566,0.30566 -0.262,-0.262 q -0.0437,-0.34933 -0.17466,-0.65499 -0.0873,-0.34933 -0.56766,-0.91699 -0.87333,-0.78599 -1.92132,-1.09165 -1.04799,-0.34933 -2.40164,-0.34933 -1.13532,0 -2.18331,0.48033 -1.00432,0.48032 -1.83398,1.39731 -0.78599,0.91699 -1.26632,2.22698 -0.48033,1.30999 -0.48033,2.92563 0,1.57199 0.48033,2.88197 0.48033,1.26632 1.30999,2.18331 0.82966,0.87333 1.92131,1.39732 1.13532,0.48033 2.35798,0.48033 0.96065,0 1.83398,-0.21833 0.91699,-0.262 1.74664,-0.78599 0.82966,-0.56766 1.57199,-1.44099 l 2.40164,2.79464 q -1.57199,1.70298 -3.6243,2.48897 -2.00864,0.78599 -4.10462,0.78599 z m 20.47945,-0.0437 q -2.75097,0 -4.89062,-1.30999 -2.13964,-1.35365 -3.40596,-3.71162 -1.26632,-2.40165 -1.26632,-5.50195 0,-3.05663 1.26632,-5.4146 1.26632,-2.40164 3.40596,-3.7553 2.13965,-1.39732 4.89062,-1.39732 2.7073,0 4.84695,1.39732 2.18331,1.35366 3.44963,3.7553 1.26632,2.35797 1.26632,5.4146 0,3.05664 -1.26632,5.45828 -1.26632,2.35797 -3.44963,3.71163 -2.13965,1.35365 -4.84695,1.35365 z m 0,-3.53696 q 1.48465,0 2.61997,-0.87333 1.17899,-0.91699 1.83398,-2.48897 0.65499,-1.57198 0.65499,-3.66796 0,-2.13965 -0.65499,-3.71163 -0.65499,-1.57198 -1.83398,-2.44531 -1.13532,-0.87332 -2.61997,-0.87332 -1.48465,0 -2.66364,0.87332 -1.13532,0.87333 -1.79031,2.44531 -0.655,1.57198 -0.655,3.71163 0,2.09598 0.655,3.66796 0.65499,1.57198 1.79031,2.48897 1.17899,0.87333 2.66364,0.87333 z m 20.30478,3.58062 q -1.22265,0 -2.31431,-0.34932 -1.04799,-0.30567 -1.92131,-1.00433 -0.87332,-0.69866 -1.52832,-1.74665 -0.61132,-1.04798 -0.96065,-2.53263 -0.30567,-1.48466 -0.30567,-3.3623 l 0.0437,-11.70254 h 4.27929 v 11.70254 q 0,1.52831 0.26199,2.61997 0.30567,1.04799 0.78599,1.70298 0.524,0.65499 1.17899,0.96066 0.655,0.262 1.39732,0.262 0.96066,0 1.79031,-0.34933 0.82966,-0.34933 1.44099,-1.04799 0.65499,-0.74233 0.96066,-1.83398 0.34933,-1.13532 0.34933,-2.61998 v -11.39687 h 4.36662 v 17.02981 q 0,0.87333 0.0437,1.65932 0.0873,0.74233 0.393,1.52832 h -4.06096 q -0.21833,-0.48033 -0.30566,-0.91699 -0.0873,-0.48033 -0.131,-0.91699 0,-0.48033 0,-0.96066 -0.43666,0.82966 -1.09166,1.44098 -0.61132,0.61133 -1.39731,1.04799 -0.74233,0.393 -1.57199,0.56766 -0.78599,0.21833 -1.70298,0.21833 z m 16.76782,-20.69777 h 4.49762 l -0.0873,5.76393 -0.524,-0.48032 q 0.21833,-1.30999 0.82966,-2.35798 0.61133,-1.09165 1.48465,-1.83398 0.91699,-0.74232 2.00865,-1.13532 1.09165,-0.43666 2.27064,-0.43666 1.65931,0 3.01297,0.56766 1.35365,0.56766 2.4453,1.70298 l -1.83398,3.58063 -0.17466,0.39299 -0.34933,-0.17466 q -0.131,-0.34933 -0.262,-0.69866 -0.131,-0.34933 -0.65499,-0.82966 -0.65499,-0.43666 -1.30999,-0.65499 -0.61132,-0.21833 -1.44098,-0.21833 -1.04799,0 -2.05231,0.393 -0.96066,0.34932 -1.74665,1.13532 -0.78599,0.78599 -1.26632,2.00864 -0.43666,1.17899 -0.43666,2.88197 v 10.65455 h -4.41029 z m 28.73236,20.69777 q -1.83398,0 -3.44963,-0.34932 -1.61565,-0.34933 -3.05663,-1.04799 -1.39732,-0.69866 -2.57631,-1.79032 l 2.00865,-3.66796 0.26199,-0.39299 0.30567,0.17466 q 0.0873,0.34933 0.21833,0.74233 0.131,0.34933 0.61132,0.87332 1.04799,0.91699 2.40164,1.48465 1.35366,0.524 3.31864,0.524 1.35365,0 2.27064,-0.30567 0.96065,-0.34933 1.48465,-0.91699 0.52399,-0.61133 0.52399,-1.35365 0,-0.56766 -0.30566,-0.96066 -0.262,-0.43666 -0.82966,-0.78599 -0.56766,-0.39299 -1.48465,-0.74232 -0.91699,-0.393 -2.22697,-0.74233 -2.22698,-0.65499 -3.8863,-1.48465 -1.65931,-0.87332 -2.5763,-2.05231 -0.91699,-1.17899 -0.91699,-2.79464 0,-1.61565 0.91699,-2.8383 0.96065,-1.26632 2.7073,-2.00865 1.74665,-0.74232 4.14829,-0.74232 1.30999,0 2.44531,0.21833 1.17899,0.17466 2.13964,0.56766 1.00432,0.393 1.87765,1.00432 0.87332,0.56766 1.65931,1.35365 l -2.22697,2.96931 -0.262,0.34933 -0.30566,-0.262 q -0.0437,-0.34933 -0.21833,-0.65499 -0.131,-0.30567 -0.61133,-0.786 -0.96066,-0.69865 -2.09598,-1.04798 -1.13532,-0.34933 -2.31431,-0.34933 -1.52831,0 -2.7073,0.52399 -1.13532,0.52399 -1.13532,1.57198 0,0.61133 0.48033,1.13532 0.52399,0.524 1.65931,1.04799 1.13532,0.48033 3.1003,1.00433 2.48898,0.65499 4.01729,1.52831 1.52832,0.82966 2.22698,1.96498 0.74232,1.13532 0.74232,2.66364 0,1.70298 -0.96065,3.18763 -0.91699,1.44099 -2.79464,2.31431 -1.87765,0.87332 -4.58495,0.87332 z m 22.44443,0 q -2.18331,0 -4.01729,-0.69865 -1.83398,-0.69866 -3.18764,-2.00865 -1.30998,-1.35365 -2.05231,-3.31863 -0.74232,-1.96498 -0.74232,-4.45395 0,-2.53264 0.74232,-4.49762 0.74233,-2.00865 2.00865,-3.3623 1.30998,-1.35365 3.01296,-2.09598 1.74665,-0.74232 3.71163,-0.74232 1.70298,0 3.2313,0.61133 1.57198,0.61132 2.7073,1.83398 1.17899,1.17898 1.83398,3.01296 0.69866,1.83398 0.69866,4.27929 0,0.43666 0,1.00432 0,0.524 -0.0437,0.91699 h -13.71119 q 0.0873,1.57199 0.61133,2.75097 0.52399,1.13533 1.30998,1.87765 0.82966,0.74233 1.87765,1.09166 1.04799,0.34933 2.18331,0.34933 1.00432,0 1.83398,-0.17467 0.87332,-0.21833 1.65932,-0.65499 0.78599,-0.43666 1.44098,-1.17899 l 2.27064,2.22698 q -0.91699,1.09165 -2.05231,1.83398 -1.13532,0.69866 -2.48897,1.04799 -1.30999,0.34932 -2.8383,0.34932 z m -5.72028,-12.79419 h 9.4319 q 0,-1.22265 -0.30566,-2.13965 -0.30566,-0.91699 -0.91699,-1.57198 -0.56766,-0.65499 -1.39732,-0.96065 -0.82966,-0.34933 -1.83398,-0.34933 -0.96066,0 -1.79031,0.30566 -0.786,0.30566 -1.44099,0.91699 -0.65499,0.61133 -1.13532,1.57198 -0.43666,0.91699 -0.61133,2.22698 z"
     id="text3"
     aria-label="Concourse" />
</svg>
