<?xml version="1.0" encoding="utf-8"?>
<!-- Generator: Adobe Illustrator 22.1.0, SVG Export Plug-In . SVG Version: 6.00 Build 0)  -->
<svg version="1.1" id="Layer_1" xmlns="http://www.w3.org/2000/svg" xmlns:xlink="http://www.w3.org/1999/xlink" x="0px" y="0px"
	 viewBox="0 0 2000 656.5" style="enable-background:new 0 0 2000 656.5;" xml:space="preserve">
<style type="text/css">
	.st0{display:none;}
	.st1{display:inline;}
	.st2{fill:#7F89A1;}
	.st3{fill:#0C9696;}
	.st4{fill:#273248;}
	.st5{fill:#7BCABC;}
	.st6{fill:#D2EBE6;}
	.st7{fill:#FFFFFF;}
	.st8{fill:#F05926;}
	.st9{fill:#F7971D;}
	.st10{fill:#85353C;}
	.st11{fill:#221F1F;}
</style>
<g id="logo_1">
</g>
<g id="base_line" class="st0">
	<g class="st1">
		<path class="st2" d="M53.3,780.7v-81.5H77c10,0,18.2,3.3,24.7,10c6.5,6.6,9.7,15.2,9.7,25.6v10.5c0,10.5-3.2,19-9.7,25.6
			c-6.5,6.6-14.7,9.9-24.7,9.9L53.3,780.7L53.3,780.7z M60,704.9V775h17c8.1,0,14.7-2.8,19.9-8.4c5.2-5.6,7.8-12.8,7.8-21.4v-10.6
			c0-8.5-2.6-15.6-7.8-21.2c-5.2-5.6-11.9-8.4-19.9-8.4L60,704.9L60,704.9z"/>
		<path class="st2" d="M188.1,746.6c0,10.5-2.9,19-8.6,25.5c-5.8,6.5-13.5,9.7-23.2,9.7c-9.6,0-17.2-3.2-22.9-9.7s-8.5-15-8.5-25.5
			v-13.3c0-10.5,2.8-19,8.5-25.5c5.7-6.5,13.3-9.8,22.8-9.8c9.7,0,17.5,3.3,23.2,9.8c5.8,6.5,8.7,15,8.7,25.5L188.1,746.6
			L188.1,746.6z M181.5,733.3c0-8.8-2.2-15.9-6.7-21.3c-4.5-5.4-10.6-8.1-18.6-8.1c-7.8,0-13.8,2.7-18.1,8.1
			c-4.3,5.4-6.5,12.5-6.5,21.3v13.4c0,8.9,2.2,16,6.5,21.4c4.3,5.4,10.4,8.1,18.2,8.1c8,0,14.1-2.7,18.6-8
			c4.4-5.4,6.6-12.5,6.6-21.5L181.5,733.3L181.5,733.3z"/>
		<path class="st2" d="M241.8,780.7h-6.7v-81.5h6.7V780.7z"/>
		<path class="st2" d="M317.7,704.9h-28.1v75.8h-6.7v-75.8h-28.1v-5.7h62.8V704.9z"/>
		<path class="st2" d="M413.5,704.9h-28.1v75.8h-6.7v-75.8h-28.1v-5.7h62.8V704.9z"/>
		<path class="st2" d="M484.7,746.6c0,10.5-2.9,19-8.6,25.5c-5.8,6.5-13.5,9.7-23.2,9.7c-9.6,0-17.2-3.2-22.9-9.7s-8.5-15-8.5-25.5
			v-13.3c0-10.5,2.8-19,8.5-25.5c5.7-6.5,13.3-9.8,22.8-9.8c9.7,0,17.5,3.3,23.2,9.8c5.8,6.5,8.7,15,8.7,25.5L484.7,746.6
			L484.7,746.6z M478.1,733.3c0-8.8-2.2-15.9-6.7-21.3c-4.5-5.4-10.6-8.1-18.6-8.1c-7.8,0-13.8,2.7-18.1,8.1
			c-4.3,5.4-6.5,12.5-6.5,21.3v13.4c0,8.9,2.2,16,6.5,21.4c4.3,5.4,10.4,8.1,18.2,8.1c8,0,14.1-2.7,18.6-8
			c4.4-5.4,6.6-12.5,6.6-21.5L478.1,733.3L478.1,733.3z"/>
		<path class="st2" d="M560.5,771.1c-1.8,2.7-5.2,5.1-10,7.4c-4.8,2.3-10.9,3.4-18.3,3.4c-9.5,0-17.3-3.2-23.3-9.7
			c-6.1-6.5-9.1-14.8-9.1-25.1v-15c0-10.1,2.9-18.3,8.7-24.6c5.8-6.3,13.2-9.5,22.4-9.5c8.8,0,15.6,2.2,20.6,6.6
			c4.9,4.4,7.8,10.1,8.6,17.1l-0.1,0.3h-6.2c-1-5.5-3.3-9.9-6.9-13.2c-3.6-3.4-8.9-5.1-16-5.1c-7.3,0-13.2,2.7-17.7,7.9
			c-4.5,5.3-6.7,12.1-6.7,20.4v15.1c0,8.5,2.4,15.5,7.1,20.9c4.7,5.4,10.9,8.2,18.6,8.2c5.4,0,10-0.8,13.8-2.3
			c3.8-1.5,6.4-3.2,7.8-4.9v-21.2h-21.7V742h28.4L560.5,771.1L560.5,771.1z"/>
		<path class="st2" d="M626.7,741.3h-39.3V775h45v5.7h-51.6v-81.5h51.3v5.7h-44.7v30.6h39.3V741.3z"/>
		<path class="st2" d="M702.6,704.9h-28.1v75.8h-6.7v-75.8h-28.1v-5.7h62.8L702.6,704.9L702.6,704.9z"/>
		<path class="st2" d="M775.6,780.7h-6.7v-37.5h-46.4v37.5h-6.7v-81.5h6.7v38.3h46.4v-38.3h6.7V780.7z"/>
		<path class="st2" d="M842.9,741.3h-39.3V775h45v5.7H797v-81.5h51.3v5.7h-44.7v30.6h39.3L842.9,741.3L842.9,741.3z"/>
		<path class="st2" d="M869.6,743.9v36.8h-6.7v-81.5h27.6c8.7,0,15.4,1.9,20.1,5.7c4.7,3.8,7,9.4,7,16.8c0,4.3-1.3,8.2-3.8,11.6
			c-2.5,3.4-6,5.9-10.6,7.5c5,1.3,8.7,3.5,10.9,6.8c2.2,3.3,3.3,7.4,3.3,12.3v7.7c0,2.5,0.3,4.8,0.9,6.8s1.6,3.7,3,4.9v1.3h-6.8
			c-1.4-1.3-2.4-3.2-2.9-5.7c-0.6-2.4-0.8-4.9-0.8-7.6v-7.4c0-5-1.6-8.9-4.8-11.8c-3.2-2.9-7.7-4.3-13.5-4.3L869.6,743.9
			L869.6,743.9z M869.6,738.2h20.1c7.4,0,12.7-1.5,16.1-4.5c3.4-3,5.1-7,5.1-12c0-5.4-1.7-9.5-5.1-12.4c-3.4-2.9-8.5-4.3-15.3-4.3
			h-20.9V738.2z"/>
		<path class="st2" d="M943,779.7l-5.9,15.5h-4.6l3.9-15.6v-9.3h6.7V779.7z"/>
		<path class="st2" d="M1034.7,742.5H995v38.2h-6.7v-81.5h52v5.7H995v31.9h39.6L1034.7,742.5L1034.7,742.5z"/>
		<path class="st2" d="M1095,758h-37.3l-8.4,22.7h-6.9l31-81.5h6.3l30.7,81.5h-6.9L1095,758z M1059.9,752h32.9l-16.2-44.1h-0.3
			L1059.9,752z"/>
		<path class="st2" d="M1169.5,760.7c0-4.4-1.7-8.1-5-10.9c-3.3-2.8-9.1-5.3-17.4-7.5c-8.9-2.2-15.7-5.2-20.3-8.7
			c-4.6-3.6-6.9-8.4-6.9-14.5c0-6.2,2.6-11.3,7.7-15.2c5.1-3.9,11.7-5.9,19.8-5.9c8.4,0,15.2,2.3,20.3,7c5.1,4.7,7.7,10.4,7.5,17.1
			l-0.2,0.3h-6.2c0-5.4-1.9-9.9-5.8-13.4c-3.9-3.5-9.1-5.3-15.7-5.3c-6.5,0-11.6,1.5-15.3,4.4c-3.7,2.9-5.5,6.5-5.5,10.9
			c0,4.1,1.7,7.5,5.1,10.3c3.4,2.7,9.3,5.2,17.6,7.3c8.8,2.2,15.4,5.3,20,9.1c4.6,3.8,6.9,8.8,6.9,15.1c0,6.5-2.7,11.7-8,15.5
			c-5.3,3.8-12.1,5.8-20.4,5.8c-8.1,0-15.2-2-21.3-6.1c-6.1-4.1-9-10-8.8-17.9l0.1-0.3h6.2c0,6.3,2.4,11,7.1,14.1
			c4.7,3.1,10.3,4.6,16.7,4.6c6.5,0,11.7-1.4,15.6-4.2C1167.5,769.1,1169.5,765.4,1169.5,760.7z"/>
		<path class="st2" d="M1246.4,704.9h-28.1v75.8h-6.7v-75.8h-28.1v-5.7h62.8L1246.4,704.9L1246.4,704.9z"/>
		<path class="st2" d="M1305.6,741.3h-39.3V775h45v5.7h-51.6v-81.5h51.3v5.7h-44.7v30.6h39.3L1305.6,741.3L1305.6,741.3z"/>
		<path class="st2" d="M1332.2,743.9v36.8h-6.7v-81.5h27.6c8.7,0,15.4,1.9,20.1,5.7c4.7,3.8,7,9.4,7,16.8c0,4.3-1.3,8.2-3.8,11.6
			c-2.5,3.4-6,5.9-10.6,7.5c5,1.3,8.7,3.5,10.9,6.8c2.2,3.3,3.3,7.4,3.3,12.3v7.7c0,2.5,0.3,4.8,0.9,6.8c0.6,2,1.6,3.7,3,4.9v1.3
			h-6.8c-1.4-1.3-2.4-3.2-2.9-5.7c-0.6-2.4-0.8-4.9-0.8-7.6v-7.4c0-5-1.6-8.9-4.8-11.8c-3.2-2.9-7.7-4.3-13.5-4.3L1332.2,743.9
			L1332.2,743.9z M1332.2,738.2h20.1c7.4,0,12.7-1.5,16.1-4.5c3.4-3,5.1-7,5.1-12c0-5.4-1.7-9.5-5.1-12.4c-3.4-2.9-8.5-4.3-15.3-4.3
			h-20.9V738.2z"/>
		<path class="st2" d="M1405.7,779.7l-5.9,15.5h-4.6l3.9-15.6v-9.3h6.7V779.7z"/>
		<path class="st2" d="M1494.8,758h-37.3l-8.4,22.7h-6.9l31-81.5h6.3l30.7,81.5h-6.9L1494.8,758z M1459.7,752h32.9l-16.2-44.1h-0.3
			L1459.7,752z"/>
		<path class="st2" d="M1570.1,704.9H1542v75.8h-6.7v-75.8h-28.1v-5.7h62.8V704.9z"/>
		<path class="st2" d="M1657.9,760.7c0-4.4-1.7-8.1-5-10.9c-3.3-2.8-9.1-5.3-17.4-7.5c-8.9-2.2-15.7-5.2-20.3-8.7
			c-4.6-3.6-6.9-8.4-6.9-14.5c0-6.2,2.6-11.3,7.7-15.2c5.1-3.9,11.7-5.9,19.8-5.9c8.4,0,15.2,2.3,20.3,7c5.1,4.7,7.7,10.4,7.5,17.1
			l-0.2,0.3h-6.2c0-5.4-1.9-9.9-5.8-13.4c-3.9-3.5-9.1-5.3-15.7-5.3c-6.5,0-11.6,1.5-15.3,4.4c-3.7,2.9-5.5,6.5-5.5,10.9
			c0,4.1,1.7,7.5,5.1,10.3c3.4,2.7,9.3,5.2,17.6,7.3c8.8,2.2,15.4,5.3,20,9.1c4.6,3.8,6.9,8.8,6.9,15.1c0,6.5-2.7,11.7-8,15.5
			c-5.3,3.8-12.1,5.8-20.4,5.8c-8.1,0-15.2-2-21.3-6.1c-6.1-4.1-9-10-8.8-17.9l0.1-0.3h6.2c0,6.3,2.4,11,7.1,14.1
			c4.7,3.1,10.3,4.6,16.7,4.6c6.5,0,11.7-1.4,15.6-4.2C1655.9,769.1,1657.9,765.4,1657.9,760.7z"/>
		<path class="st2" d="M1736.3,755.3l0.1,0.3c-0.7,8.2-3.6,14.6-8.7,19.3c-5.1,4.7-12,7-20.6,7c-9.1,0-16.4-3.3-21.9-9.8
			c-5.6-6.6-8.3-15-8.3-25.4v-13.3c0-10.4,2.8-18.9,8.3-25.4c5.6-6.6,12.9-9.9,21.9-9.9c8.7,0,15.5,2.3,20.6,6.9
			c5.1,4.6,8,11,8.7,19.4l-0.1,0.3h-6.3c-0.9-6.8-3.2-11.9-7-15.5c-3.8-3.6-9.1-5.4-15.9-5.4c-7.1,0-12.8,2.8-17.2,8.3
			c-4.3,5.5-6.5,12.6-6.5,21.2v13.4c0,8.7,2.2,15.8,6.5,21.3c4.3,5.5,10,8.3,17.2,8.3c6.9,0,12.2-1.7,16-5.2
			c3.8-3.5,6.1-8.7,6.9-15.7L1736.3,755.3L1736.3,755.3z"/>
		<path class="st2" d="M1797.5,758h-37.3l-8.4,22.7h-6.9l31-81.5h6.3l30.7,81.5h-6.9L1797.5,758z M1762.4,752h32.9l-16.2-44.1h-0.3
			L1762.4,752z"/>
		<path class="st2" d="M1832,775h40.3v5.7h-47v-81.5h6.7L1832,775L1832,775z"/>
		<path class="st2" d="M1931.6,741.3h-39.3V775h45v5.7h-51.6v-81.5h51.3v5.7h-44.7v30.6h39.3L1931.6,741.3L1931.6,741.3z"/>
	</g>
</g>
<g id="hibou">
	<g>
		<g>
			<path class="st3" d="M181.5,423.9c29,0,55-14.5,78.2-43.4l51.5,57.9c-40.2,41.7-83.6,62.5-130.3,62.5
				c-46.7,0-86.2-14.8-118.4-44.3c-32.2-29.5-48.4-68.1-48.4-115.8c0-47.7,16.3-86.5,48.9-116.4c32.6-29.9,71.3-44.9,116.1-44.9
				c22.4,0,45.1,4.6,68.1,13.9c23,9.3,43.1,23,60.5,41.1l-45.2,59.1c-10-12-22.3-21.2-36.8-27.8c-14.5-6.6-28.9-9.8-43.1-9.8
				c-22.8,0-42.4,7.4-58.8,22.3c-16.4,14.9-24.6,35.5-24.6,62c0,26.5,8.2,47,24.6,61.7C140.3,416.5,159.5,423.9,181.5,423.9z"/>
			<path class="st3" d="M394,619.1c-30.5,0-59.3-12.4-86.3-37.1l39.4-64.3c14.7,14.3,29.7,21.4,45.2,21.4c8.1,0,15.1-4,20.9-11.9
				c5.8-7.9,8.7-16.3,8.7-25.2s-40.2-114.7-120.5-317.4H394l75.9,194l75.9-194h92.7L493.7,551.9c-8.5,21.2-21.7,37.7-39.7,49.5
				C436,613.2,416,619.1,394,619.1z"/>
			<path class="st4" d="M802.4,423.9c29,0,55-14.5,78.2-43.4l51.5,57.9c-40.2,41.7-83.6,62.5-130.3,62.5
				c-46.7,0-86.2-14.8-118.4-44.3c-32.2-29.5-48.4-68.1-48.4-115.8c0-47.7,16.3-86.5,48.9-116.4c32.6-29.9,71.3-44.9,116.1-44.9
				c22.4,0,45.1,4.6,68.1,13.9c23,9.3,43.1,23,60.5,41.1l-45.2,59.1c-10-12-22.3-21.2-36.8-27.8c-14.5-6.6-28.9-9.8-43.1-9.8
				c-22.8,0-42.4,7.4-58.8,22.3c-16.4,14.9-24.6,35.5-24.6,62c0,26.5,8.2,47,24.6,61.7C761.1,416.5,780.3,423.9,802.4,423.9z"/>
			<path class="st4" d="M1047.9,496.3H961V66.5h86.9V496.3z"/>
			<path class="st4" d="M1412.8,340.5c0,45.2-15.6,83.2-46.9,114.1c-31.3,30.9-70.6,46.3-117.9,46.3c-47.3,0-86.6-15.4-117.9-46.3
				c-31.3-30.9-46.9-68.9-46.9-114.1s15.6-83.3,46.9-114.4c31.3-31.1,70.6-46.6,117.9-46.6c47.3,0,86.6,15.5,117.9,46.6
				C1397.2,257.2,1412.8,295.3,1412.8,340.5z M1170.7,340.5c0,25.5,7.2,46.2,21.7,62.3c14.5,16,33,24,55.6,24c22.6,0,41.1-8,55.6-24
				c14.5-16,21.7-36.8,21.7-62.3c0-25.5-7.2-46.3-21.7-62.5c-14.5-16.2-33-24.3-55.6-24.3c-22.6,0-41.1,8.1-55.6,24.3
				C1177.9,294.1,1170.7,315,1170.7,340.5z"/>
			<path class="st4" d="M1455.4,145c-9.8-9.8-14.8-21.9-14.8-36.2c0-14.3,4.9-26.4,14.8-36.2c9.8-9.8,21.9-14.8,36.2-14.8
				c14.3,0,26.4,4.9,36.2,14.8c9.8,9.8,14.8,21.9,14.8,36.2c0,14.3-4.9,26.4-14.8,36.2c-9.8,9.8-21.9,14.8-36.2,14.8
				C1477.3,159.8,1465.2,154.8,1455.4,145z M1535,496.3h-86.9V184.7h86.9V496.3z"/>
			<path class="st4" d="M1713.1,500.9c-36.9,0-69.8-15.6-98.7-46.9c-29-31.3-43.4-70.1-43.4-116.4c0-46.3,14.1-84.3,42.3-113.8
				c28.2-29.5,61.2-44.3,99-44.3c37.8,0,68.7,13.3,92.7,40V66.5h86.9v429.7h-86.9v-41.1C1780.5,485.7,1749.9,500.9,1713.1,500.9z
				 M1658.3,341.1c0,25.1,7.5,45.7,22.6,61.7c15.1,16,32.6,24,52.7,24c20.1,0,37.2-8,51.3-24c14.1-16,21.1-36.7,21.1-62
				c0-25.3-7.1-46.3-21.1-63.1c-14.1-16.8-31.4-25.2-51.8-25.2c-20.5,0-38,8.5-52.7,25.5C1665.7,294.9,1658.3,316,1658.3,341.1z"/>
		</g>
		<g>
			<g>
				<path class="st3" d="M1250.1,431.4c19.8-5.3,30.1-21,33.5-30.1c2.7-7.1,4.4-19.1-3.4-27.4c-7.9-8.3-16.8-4.5-21.2-4.9h-37.6
					c-4.4,0.4-13.3-3.4-21.2,4.9c-7.9,8.3-6.1,20.3-3.4,27.4c3.4,9,13.7,24.8,33.5,30.1H1250.1z"/>
			</g>
			<g>
				<path class="st5" d="M1207,383.4c-0.3,11.9-2.6,29.4,23.9,45.8c5.5,3.4,13,4.5,19.8,0c6.8-4.5,25.7-21.7,22.2-42
					C1267.5,354.1,1207.6,363.4,1207,383.4z"/>
			</g>
			<g>
				<path class="st6" d="M1259.3,374.3c-4,0-35.4-0.9-39.4-0.9c-3.6,0-5.8,19.8,0.6,38.1c2.4,6.8,9.2,16.8,12.8,20.6
					c0,0,13.7,0,11.9,0.9c2.6-1.3,5.6-7.9,10.1-14.9C1267.1,399.8,1264.8,374.3,1259.3,374.3z"/>
			</g>
			<g>
				<g>
					<path class="st3" d="M1296.7,306.3c-2.4-1.4-7.1-0.8-15.9-0.7c-10.4-6.9-23.9-11.2-38.7-11.2c-14.8,0-28.4,4.2-38.7,11.2
						c-7.8-1.2-16.6-1.8-17.6-0.8c-1.4,1.2-0.9,11.6,2.2,17.1c-3.1,5.5-4.9,11.7-4.9,18.1c0,25.1,26.5,45.5,59.1,45.5
						c32.6,0,59.1-20.4,59.1-45.5c0-6.4-1.7-12.5-4.9-18.1C1298.9,316.1,1298.2,307.1,1296.7,306.3z"/>
				</g>
				<g>
					<path class="st7" d="M1269.4,313.6c-13.6,0-24.9,9.8-27.3,22.8c-2.3-13-13.7-22.8-27.3-22.8c-15.3,0-27.8,12.4-27.8,27.8
						c0,15.3,12.4,27.8,27.8,27.8c13.6,0,24.9-9.9,27.3-22.8c2.4,12.9,13.7,22.8,27.3,22.8c15.3,0,27.8-12.4,27.8-27.8
						C1297.2,326.1,1284.7,313.6,1269.4,313.6z"/>
				</g>
				<g>
					<g>
						<path class="st8" d="M1235.4,372.3c0.2,2.5,2.2,5.3,6.7,5.3c4.6,0,7.2-2.8,6.7-5.3C1248.3,369.8,1236.8,368.7,1235.4,372.3z"
							/>
					</g>
					<g>
						<path class="st9" d="M1242.1,363.2c2.2,0,4.8,2.8,6.7,9c-2.2-0.3-4.1,2.1-6.7,7.7c-2.6-5.6-4.6-8-6.7-7.7
							C1237.3,366,1239.9,363.2,1242.1,363.2z"/>
					</g>
				</g>
				<g>
					<g>
						<g>
							<path class="st10" d="M1235.7,340.9c0,11.6-9.4,20.9-20.9,20.9c-11.6,0-20.9-9.4-20.9-20.9c0-11.6,9.4-20.9,20.9-20.9
								C1226.4,320,1235.7,329.4,1235.7,340.9z"/>
						</g>
						<g>
							<path class="st11" d="M1233.9,341.2c-0.2,10.7-8.2,19.9-19.3,19.7c-10.5-0.2-18.3-9.5-18.9-19.5
								c-0.7-10.9,8.4-20.5,19.2-20.3c10.8,0.2,18.8,10.1,19,20.4c0,1.1,3.6,0.4,3.6-1c-0.2-12.4-10.6-21.7-22.9-21.4
								c-12.1,0.2-22.3,10-22.6,22.1c-0.3,12.6,10.8,21.9,22.9,21.7c12.1-0.3,22.3-10,22.6-22.2
								C1237.6,339.2,1233.9,340,1233.9,341.2z"/>
						</g>
					</g>
					<g>
						<path class="st11" d="M1228.6,340.9c0,7.6-6.2,13.8-13.8,13.8c-7.6,0-13.8-6.2-13.8-13.8c0-7.6,6.2-13.8,13.8-13.8
							C1222.4,327.2,1228.6,333.3,1228.6,340.9z"/>
					</g>
					<g>
						<path class="st7" d="M1210.3,349.4c0,1.9-2.6,3.5-5.8,3.5c-3.2,0-5.8-1.5-5.8-3.5c0-1.9,2.6-3.5,5.8-3.5
							C1207.7,345.9,1210.3,347.5,1210.3,349.4z"/>
					</g>
					<g>
						<path class="st7" d="M1230.3,332.3c0,3.7-3.4,6.8-7.5,6.8c-4.1,0-7.5-3-7.5-6.8c0-3.7,3.3-6.8,7.5-6.8
							C1226.9,325.5,1230.3,328.6,1230.3,332.3z"/>
					</g>
				</g>
				<g>
					<g>
						<g>
							<path class="st10" d="M1291,340.9c0,11.6-9.3,20.9-20.9,20.9c-11.6,0-20.9-9.4-20.9-20.9c0-11.6,9.4-20.9,20.9-20.9
								C1281.7,320,1291,329.4,1291,340.9z"/>
						</g>
						<g>
							<path class="st11" d="M1289.2,341.2c-0.2,10.7-8.2,19.9-19.3,19.7c-10.5-0.2-18.3-9.5-18.9-19.5
								c-0.7-10.9,8.4-20.5,19.2-20.3c10.8,0.2,18.8,10.1,19,20.4c0,1.1,3.7,0.4,3.6-1c-0.3-12.4-10.6-21.7-22.9-21.4
								c-12.1,0.2-22.3,10-22.6,22.1c-0.3,12.6,10.8,21.9,22.9,21.7c12.1-0.3,22.3-10,22.6-22.2
								C1292.9,339.2,1289.2,340,1289.2,341.2z"/>
						</g>
					</g>
					<g>
						<path class="st11" d="M1283.9,340.9c0,7.6-6.2,13.8-13.8,13.8c-7.6,0-13.8-6.2-13.8-13.8c0-7.6,6.2-13.8,13.8-13.8
							C1277.7,327.2,1283.9,333.3,1283.9,340.9z"/>
					</g>
					<g>
						<path class="st7" d="M1265.6,349.4c0,1.9-2.6,3.5-5.8,3.5c-3.2,0-5.8-1.5-5.8-3.5c0-1.9,2.6-3.5,5.8-3.5
							C1263,345.9,1265.6,347.5,1265.6,349.4z"/>
					</g>
					<g>
						<path class="st7" d="M1285.6,332.3c0,3.7-3.3,6.8-7.5,6.8c-4.1,0-7.5-3-7.5-6.8c0-3.7,3.4-6.8,7.5-6.8
							C1282.2,325.5,1285.6,328.6,1285.6,332.3z"/>
					</g>
				</g>
			</g>
			<g>
				<g>
					<path class="st9" d="M1236.9,420c-2.6-2.1-6.3-2-8.2,1c-1.3-2.7-3.5-3.3-6.2-2.4c-0.8,0.3-1.6,0.8-2.2,1.4
						c-1.3-0.5-2.6-0.9-4-0.9c-5.8-0.1-8.5,7.5-7.8,12.4c0.8,5.5,6.2,10.5,10.1,8.1c0.3-0.2,1.7,1.8,5.1,1.6c3.3-0.2,5.1-0.3,6-3.6
						c2.4,5,8.4,2.8,9-2C1239.1,431.8,1240.2,422.8,1236.9,420"/>
				</g>
				<g>
					<path class="st9" d="M1270.4,423.2c-2.5-5.1-7.6-3.9-8.9-3c0,0-7.1-4.6-9.6,0.8c-2-2.9-5.7-3.1-8.2-1c-2.2,1.8-2,6.6-2.1,9.1
						c-0.1,3-0.5,8.3,2.2,10.4c2.3,1.8,6,0.4,7.2-2c0.8,3.2,2.1,3.9,5.4,3.3c1.4-0.2,2.6-0.8,3.6-1.9c1.6,1,3.6,1.1,5.3,0.6
						C1272.5,437.2,1273.4,429.1,1270.4,423.2"/>
				</g>
			</g>
		</g>
	</g>
</g>
</svg>
