<?xml version="1.0" encoding="UTF-8" standalone="no"?>
<!-- Created with Inkscape (http://www.inkscape.org/) -->

<svg
   xmlns:dc="http://purl.org/dc/elements/1.1/"
   xmlns:cc="http://creativecommons.org/ns#"
   xmlns:rdf="http://www.w3.org/1999/02/22-rdf-syntax-ns#"
   xmlns:svg="http://www.w3.org/2000/svg"
   xmlns="http://www.w3.org/2000/svg"
   xmlns:sodipodi="http://sodipodi.sourceforge.net/DTD/sodipodi-0.dtd"
   xmlns:inkscape="http://www.inkscape.org/namespaces/inkscape"
   width="210mm"
   height="297mm"
   viewBox="0 0 210 297"
   version="1.1"
   id="svg3741"
   inkscape:version="0.92.5 (2060ec1f9f, 2020-04-08)"
   sodipodi:docname="eiffel.svg">
  <defs
     id="defs3735" />
  <sodipodi:namedview
     id="base"
     pagecolor="#ffffff"
     bordercolor="#666666"
     borderopacity="1.0"
     inkscape:pageopacity="0.0"
     inkscape:pageshadow="2"
     inkscape:zoom="0.35"
     inkscape:cx="400"
     inkscape:cy="560"
     inkscape:document-units="mm"
     inkscape:current-layer="layer1"
     showgrid="false"
     inkscape:window-width="1771"
     inkscape:window-height="1051"
     inkscape:window-x="140"
     inkscape:window-y="-9"
     inkscape:window-maximized="1" />
  <metadata
     id="metadata3738">
    <rdf:RDF>
      <cc:Work
         rdf:about="">
        <dc:format>image/svg+xml</dc:format>
        <dc:type
           rdf:resource="http://purl.org/dc/dcmitype/StillImage" />
        <dc:title></dc:title>
      </cc:Work>
    </rdf:RDF>
  </metadata>
  <g
     inkscape:label="Layer 1"
     inkscape:groupmode="layer"
     id="layer1">
    <g
       id="g3754"
       transform="matrix(0.2488955,0,0,0.2488955,49.664646,-28.502694)">
      <path
         style="fill:#fefefe;stroke-width:0.35277778"
         d="M -172.40753,262.98214 V 126.10435 H 218.47024 609.34802 V 262.98214 399.85993 H 218.47024 -172.40753 Z"
         id="path3770"
         inkscape:connector-curvature="0" />
      <path
         style="fill:#cdcdcd;stroke-width:0.35277778"
         d="m 603.89443,396.97098 c -0.0859,-0.25434 -0.20373,-0.85931 -0.26176,-1.34438 l -0.10548,-0.88195 -352.24861,-0.17639 -352.24861,-0.17639 -3.44923,-0.95226 c -3.96781,-1.09544 -9.04041,-3.40159 -12.29264,-5.5886 -3.07512,-2.06791 -8.76316,-7.69774 -10.89925,-10.78771 -3.85315,-5.57377 -6.48065,-12.75229 -6.93113,-18.93635 -0.193,-2.64954 -0.30855,-3.07106 -0.78942,-2.88004 -0.30983,0.12308 -1.35708,0.52566 -2.32722,0.89462 -2.64662,1.00654 -6.45488,4.05747 -8.55137,6.85078 -3.47709,4.63279 -4.7937,10.02553 -4.60847,18.87595 l 0.10706,5.11528 1.23473,0.17639 c 1.17592,0.16799 1.23472,0.24358 1.23472,1.5875 v 1.41111 l -11.28889,0.0986 c -6.20889,0.0542 -11.64608,0.0115 -12.08264,-0.0949 -0.6286,-0.15326 -0.79375,-0.44186 -0.79375,-1.38702 0,-1.00008 0.16597,-1.25135 1.02415,-1.55051 l 1.02414,-0.35702 0.16115,-9.46708 c 0.14012,-8.23196 0.26141,-9.85828 0.92969,-12.46568 0.91332,-3.56354 4.00315,-10.1613 6.17444,-13.18441 1.80792,-2.51719 8.13873,-8.78977 10.44199,-10.34595 4.65605,-3.14582 13.18516,-6.4525 16.64943,-6.45487 l 1.3036,-0.001 0.12042,-19.31458 0.12042,-19.31459 0.93936,-3.44923 c 1.1358,-4.17056 3.47071,-9.21102 5.88391,-12.70185 2.1472,-3.10603 7.83078,-8.74267 10.88851,-10.79856 3.19922,-2.15104 8.21318,-4.46537 12.07212,-5.57222 l 3.35139,-0.96126 23.547918,-0.11986 c 12.951354,-0.0659 23.547917,-0.24348 23.547917,-0.39457 0,-0.15108 -0.400844,-1.45344 -0.890764,-2.89413 -2.402142,-7.0637 -7.718005,-11.79723 -15.673634,-13.95648 -1.167907,-0.31698 -4.800135,-0.65472 -9.011991,-0.83798 -5.122922,-0.2229 -7.876924,-0.50963 -10.054167,-1.04681 -3.523618,-0.86936 -10.117582,-3.94304 -13.184409,-6.14573 -2.51718,-1.80792 -8.78976,-8.13873 -10.34594,-10.44199 -1.94037,-2.87188 -4.69743,-8.79264 -5.63355,-12.09799 -0.84897,-2.99763 -0.93236,-3.91657 -1.08243,-11.92809 l -0.16259,-8.68025 -3.75734,-0.20708 c -6.68086,-0.36821 -13.80796,-2.78501 -19.49922,-6.61218 -3.07512,-2.06791 -8.76316,-7.69773 -10.89925,-10.7877 -2.3882,-3.45465 -4.72616,-8.43784 -5.85577,-12.48116 -0.86533,-3.09731 -0.95274,-4.04674 -1.15304,-12.52361 l -0.21674,-9.17222 -1.23472,-0.17639 c -1.17325,-0.16761 -1.23472,-0.24586 -1.23472,-1.5716 0,-1.73607 0.38008,-1.87231 5.35904,-1.92101 1.97733,-0.0193 3.69127,-0.19069 3.80875,-0.38078 0.11748,-0.19008 -0.11128,-1.39743 -0.50835,-2.68299 -0.39707,-1.28556 -0.72194,-2.55556 -0.72194,-2.82222 0,-1.74132 12.87055,-5.1839 23.62318,-6.31865 6.66374,-0.70324 24.04685,-0.70691 31.23376,-0.007 9.724801,0.94762 18.777036,2.95912 28.824863,6.40518 16.600096,5.69327 29.858639,12.94622 43.20866,23.63688 4.163007,3.33372 14.582496,13.47063 18.622377,18.11733 16.3378509,18.79191 27.741167,43.14958 31.921386,68.18459 1.591962,9.53413 1.931776,13.55043 1.931776,22.83208 0,9.28166 -0.339814,13.29795 -1.931776,22.83209 -2.957566,17.71264 -9.803169,35.82704 -19.3208205,51.12551 -3.254636,5.23144 -9.0360076,13.0583 -12.6704125,17.1533 -2.770187,3.12125 -9.138923,9.07377 -11.146553,10.41809 l -1.346613,0.9017 -11.882554,-11.86803 -11.882554,-11.86804 -2.645833,1.78599 c -3.86588,2.60953 -10.49479,5.83448 -14.216825,6.91645 l -3.245675,0.94349 -23.900694,0.11941 -23.900692,0.11941 v 1.1815 c 0,1.63598 1.262,5.60198 2.58859,8.13497 0.64065,1.22325 2.23587,3.25153 3.77935,4.80534 2.90931,2.92877 5.96499,4.67834 10.223778,5.85376 2.1833,0.60258 17.39453,0.62979 352.061052,0.62979 h 349.77917 l 0.17639,-1.23472 c 0.16799,-1.17592 0.24359,-1.23472 1.5875,-1.23472 h 1.41111 v 12.34722 12.34723 l -1.32574,0.10965 c -0.85993,0.0711 -1.38067,-0.0528 -1.48202,-0.35277 z M -69.013807,333.62574 c 6.982982,-2.35871 11.271627,-6.60167 13.817173,-13.66998 1.498864,-4.16195 1.675214,-6.55698 1.675214,-22.7511 v -15.20761 l -21.607638,0.11338 c -21.526761,0.11296 -21.616882,0.11645 -24.077084,0.93396 -4.032708,1.34003 -6.509078,2.84526 -9.391448,5.70848 -1.99868,1.9854 -3.01251,3.34428 -3.95058,5.29517 -2.50583,5.21135 -2.48122,4.98724 -2.62389,23.89697 l -0.12856,17.03925 21.452792,-0.1082 21.452797,-0.1082 z m 34.598338,-6.71425 c 7.676091,-10.46844 13.82057,-23.38153 17.242394,-36.2362 1.118341,-4.20125 2.457211,-11.51744 2.457211,-13.42733 v -1.1863 l -3.96875,1.92304 c -4.266371,2.06725 -9.076722,3.51218 -12.969561,3.89576 l -2.42611,0.23907 -0.128266,19.27089 c -0.123268,18.51922 -0.158679,19.38786 -0.907916,22.2695 -0.428805,1.64924 -1.014716,3.59714 -1.302022,4.32867 -1.00899,2.56905 -0.45025,2.2686 2.00302,-1.0771 z m 3.365422,-65.5135 c 6.38955,-2.03974 11.077758,-6.26704 13.595149,-12.25861 1.291586,-3.07408 1.307031,-4.4888 0.09747,-8.9287 -2.696069,-9.89636 -7.153723,-20.09102 -12.718352,-29.08688 -3.51028,-5.67476 -11.246315,-15.50273 -12.977787,-16.48716 -0.590649,-0.33581 -7.311108,-0.43697 -29.297704,-0.44097 l -28.531239,-0.005 0.17127,6.08541 c 0.15792,5.6112 0.25729,6.34846 1.275159,9.46081 1.592933,4.87076 4.024827,8.24498 7.998417,11.0977 4.300714,3.08756 7.844265,4.00975 16.925968,4.40489 5.122922,0.22289 7.876924,0.50963 10.054166,1.04681 3.523619,0.86935 10.117582,3.94304 13.18441,6.14573 2.517182,1.80792 8.789762,8.13873 10.345942,10.44198 3.220293,4.76627 6.034317,12.11658 6.651657,17.37431 0.130997,1.11566 0.291066,2.02847 0.355705,2.02847 0.06464,0 1.356039,-0.39536 2.86977,-0.87859 z m -87.859333,-88.66318 c 0.21457,-1.12909 1.19433,-3.77828 2.17724,-5.8871 0.98291,-2.10882 1.69572,-3.98211 1.58401,-4.16286 -0.11858,-0.19186 -1.61506,-0.23485 -3.59584,-0.10327 -1.866,0.12394 -4.7421,0.30908 -6.39134,0.41142 -1.64923,0.10234 -5.11784,0.49614 -7.708,0.8751 -2.59017,0.37897 -4.77298,0.68903 -4.8507,0.68903 -0.55677,0 0.11088,1.26251 1.4629,2.76628 3.22212,3.58377 7.71955,6.04991 12.67527,6.95042 4.2998,0.78132 4.19916,0.81465 4.64646,-1.53902 z m 48.249025,1.74737 c 0.518805,-0.83945 -17.056114,-7.8115 -19.677363,-7.8061 -0.783978,0.002 -1.597935,0.42279 -2.787526,1.44242 -1.689157,1.44781 -4.846175,5.53434 -4.846175,6.27301 0,0.48235 27.01357,0.57202 27.311064,0.0907 z M 474.93969,369.52897 c -19.60958,-1.62192 -34.94211,-12.05967 -43.85314,-29.8534 -3.42794,-6.84502 -5.52287,-13.85873 -6.99657,-23.42398 -0.6792,-4.40862 -0.79093,-6.57735 -0.80885,-15.69861 -0.0226,-11.43212 0.28152,-14.61464 2.15632,-22.57778 4.21474,-17.90197 14.32433,-31.82852 27.8064,-38.30495 7.44824,-3.57793 13.45654,-4.90772 23.37203,-5.17283 10.4117,-0.27838 17.68228,0.79031 24.94848,3.66715 11.75187,4.65278 20.58327,13.60687 25.34743,25.69951 3.09203,7.84839 4.21538,15.19368 4.26212,27.86945 l 0.0339,9.17222 -43.47986,0.0896 -43.47986,0.0896 v 3.15554 c 0,8.72681 2.46859,19.32216 6.37381,27.35696 5.64169,11.60743 13.32163,18.4174 23.08313,20.46828 5.27032,1.10729 14.29904,0.6035 20.28472,-1.13186 7.87644,-2.28353 16.496,-8.33566 22.73805,-15.96532 1.12003,-1.36903 2.27757,-2.48915 2.57228,-2.48915 0.29474,0 3.53109,2.41482 7.19194,5.36626 4.72701,3.811 6.65497,5.57468 6.65222,6.08541 -0.005,0.99313 -5.32846,6.99464 -9.26338,10.44384 -3.99154,3.49883 -10.56167,7.9552 -14.46004,9.80793 -3.06109,1.45481 -7.12798,2.83502 -10.99866,3.73268 -5.89308,1.3667 -17.13068,2.13884 -23.48241,1.61348 z m 35.70185,-84.85099 c -0.26864,-6.31254 -2.03683,-13.04764 -5.00123,-19.05001 -2.55319,-5.16972 -5.06969,-8.31906 -8.43516,-10.55643 -9.18496,-6.10615 -25.88715,-6.41217 -35.63052,-0.65283 -7.30102,4.31566 -13.8273,14.24893 -16.05636,24.43843 -0.69956,3.19777 -1.28845,7.79903 -1.048,8.18812 0.0959,0.15519 15.04735,0.24166 33.22539,0.19216 l 33.05097,-0.09 z m 68.72037,84.2904 c -3.50224,-0.75842 -6.57712,-2.43193 -8.99583,-4.89598 -2.52787,-2.57524 -3.67778,-4.60763 -5.00532,-8.84661 l -0.99191,-3.16725 V 264.92242 177.7863 l 9.48182,-0.094 c 6.70021,-0.0665 9.62385,0.0238 9.96598,0.30778 0.40784,0.33848 0.48415,13.40539 0.48415,82.89126 0,58.59037 0.11236,83.03107 0.38781,84.3589 1.19373,5.75466 5.14822,7.68581 14.67601,7.16697 l 4.3041,-0.23438 0.53375,1.87815 c 0.29359,1.03299 0.95892,3.59625 1.47853,5.69615 0.80508,3.2536 0.87214,3.88725 0.45378,4.28652 -0.69713,0.6653 -6.96383,2.94147 -10.74596,3.90311 -6.34373,1.61293 -11.7153,1.95535 -16.02691,1.02166 z M 82.108843,366.96456 c -0.09236,-0.24317 -0.127264,-42.90776 -0.07757,-94.8102 l 0.09036,-94.36806 50.409617,-0.0894 c 36.9625,-0.0656 50.53729,0.0165 50.88819,0.30778 0.6519,0.54101 0.70323,16.17282 0.0553,16.82079 -0.32424,0.32425 -9.73709,0.42333 -40.21855,0.42333 h -39.79522 l 0.0901,31.66181 0.0901,31.66181 31.73035,0.0901 c 24.84685,0.0706 31.79084,0.18535 32.00918,0.52917 0.15336,0.24149 0.27883,3.77282 0.27883,7.8474 0,4.07459 -0.12547,7.60592 -0.27883,7.84741 -0.21834,0.34382 -7.16233,0.45862 -32.00918,0.52917 l -31.73035,0.0901 -0.0898,37.12987 -0.0898,37.12986 h 41.58619 c 34.85549,0 41.65136,0.0785 41.98879,0.48508 0.2825,0.3404 0.3743,2.94472 0.30776,8.73126 l -0.0948,8.24616 -52.48632,0.0894 c -41.803563,0.0712 -52.520504,-7e-4 -52.654249,-0.35277 z m 135.543737,0.21009 c -0.13237,-0.13236 -0.24067,-29.49798 -0.24067,-65.25695 0,-63.91865 0.0116,-65.02246 0.68238,-65.38148 1.04094,-0.5571 18.06515,-0.48859 18.83174,0.0758 0.56024,0.41247 0.59309,4.6482 0.50838,65.52848 l -0.0906,65.0875 -9.72531,0.0937 c -5.34892,0.0515 -9.83361,-0.0146 -9.96597,-0.147 z m 61.7178,-0.56403 c -0.11702,-0.43656 -0.21488,-26.07187 -0.21752,-56.96734 l -0.005,-56.1736 -8.55486,-0.0945 -8.55486,-0.0945 -0.0949,-8.26534 c -0.0732,-6.37704 0.007,-8.33026 0.35278,-8.54946 0.2462,-0.15627 4.13857,-0.28655 8.64972,-0.28952 l 8.20208,-0.005 0.007,-3.96875 c 0.004,-2.18282 0.16107,-6.75117 0.3497,-10.1519 0.85895,-15.48573 4.56618,-25.60574 12.31696,-33.62273 4.71367,-4.8756 9.35309,-7.82963 15.54878,-9.90031 11.1366,-3.722 25.0849,-3.41154 36.68889,0.8166 3.80926,1.38798 5.29167,2.2852 5.29167,3.20274 0,0.93263 -7.59898,16.11706 -8.15915,16.30378 -0.23629,0.0788 -2.24367,-0.77686 -4.46081,-1.9014 -2.21713,-1.12455 -5.32496,-2.47816 -6.90629,-3.00802 -2.60752,-0.87373 -3.35128,-0.96312 -7.99042,-0.96038 -5.69679,0.004 -8.51842,0.5418 -12.12211,2.31322 -5.78316,2.84272 -8.31081,7.1063 -9.38474,15.82992 -0.43215,3.51052 -1.16628,24.25473 -0.87503,24.72599 0.11416,0.18473 6.38218,0.32124 14.75056,0.32124 11.45607,0 14.68677,0.0985 15.18539,0.46312 0.60727,0.44406 0.59605,0.78736 -0.27263,8.33634 -0.4983,4.33027 -1.00414,7.97155 -1.12416,8.09174 -0.11998,0.12019 -6.59479,0.2979 -14.38843,0.39491 l -14.17024,0.17639 -0.0892,56.88542 -0.0893,56.88542 h -9.83555 -9.83555 l -0.21272,-0.79375 z m 76.55278,0 c -0.11702,-0.43656 -0.21488,-26.07187 -0.21753,-56.96734 l -0.005,-56.1736 -8.55486,-0.0945 -8.55486,-0.0945 -0.0949,-8.26534 c -0.0732,-6.37704 0.007,-8.33026 0.35277,-8.54946 0.24621,-0.15627 4.13858,-0.28655 8.64973,-0.28952 l 8.20208,-0.005 0.007,-3.96875 c 0.004,-2.18282 0.16108,-6.75117 0.34971,-10.1519 0.85894,-15.48573 4.56618,-25.60574 12.31695,-33.62273 4.71368,-4.8756 9.3531,-7.82963 15.54879,-9.90031 11.1366,-3.722 25.0849,-3.41154 36.68889,0.8166 3.80926,1.38798 5.29167,2.2852 5.29167,3.20274 0,0.93263 -7.59898,16.11706 -8.15915,16.30378 -0.23629,0.0788 -2.24367,-0.77686 -4.46081,-1.9014 -2.21714,-1.12455 -5.32497,-2.47816 -6.90629,-3.00802 -2.60753,-0.87373 -3.35129,-0.96312 -7.99042,-0.96038 -5.6968,0.004 -8.51842,0.5418 -12.12211,2.31322 -5.78316,2.84272 -8.31081,7.1063 -9.38474,15.82992 -0.43215,3.51052 -1.16628,24.25473 -0.87503,24.72599 0.11416,0.18473 6.38217,0.32124 14.75056,0.32124 11.45607,0 14.68677,0.0985 15.18539,0.46312 0.60727,0.44406 0.59605,0.78736 -0.27263,8.33634 -0.4983,4.33027 -1.00415,7.97155 -1.12416,8.09174 -0.11998,0.12019 -6.5948,0.2979 -14.38843,0.39491 l -14.17024,0.17639 -0.0892,56.88542 -0.0893,56.88542 h -9.83555 -9.83555 l -0.21273,-0.79375 z M 49.313302,269.56031 c -4.672609,-1.54354 -8.301288,-4.69873 -10.358801,-9.00714 -1.271757,-2.66304 -1.282866,-2.72603 -1.282866,-7.27242 0,-4.54639 0.01111,-4.60938 1.282866,-7.27242 1.700262,-3.56033 4.443589,-6.31719 7.937077,-7.97624 1.463103,-0.69483 2.598113,-1.45679 2.598113,-1.7442 0,-1.57498 -2.723445,-13.08804 -4.42087,-18.68873 l -0.870811,-2.87327 -4.145132,-0.12692 c -3.910672,-0.11975 -4.297077,-0.1994 -6.831439,-1.40822 -3.588526,-1.71162 -6.31057,-4.43313 -8.025271,-8.0237 -1.271757,-2.66304 -1.282866,-2.72602 -1.282866,-7.27242 0,-4.54639 0.01111,-4.60937 1.282866,-7.27242 0.849647,-1.77915 1.951616,-3.35506 3.263194,-4.66663 1.08918,-1.08918 1.980329,-2.22157 1.980329,-2.51642 0,-0.70886 -4.243688,-7.66071 -8.253808,-13.52109 -3.607713,-5.2723 -3.123106,-5.02706 -7.092025,-3.58905 -1.803101,0.65329 -2.691536,0.74825 -5.9972226,0.64098 -3.6018999,-0.11688 -4.0734544,-0.21783 -6.5668631,-1.40573 -3.588145,-1.70947 -6.3098397,-4.43013 -8.025271,-8.02222 -1.2717568,-2.66304 -1.2828658,-2.72603 -1.2828658,-7.27242 0,-4.54639 0.011113,-4.60938 1.2828658,-7.27242 1.7139214,-3.58893 4.4363393,-6.31135 8.025271,-8.02527 2.6630419,-1.27176 2.7260268,-1.28287 7.2724186,-1.28287 4.5463921,0 4.6093771,0.0111 7.2724191,1.28287 3.588931,1.71392 6.311349,4.43634 8.025271,8.02527 1.272928,2.6655 1.282865,2.72204 1.282865,7.29902 v 4.6127 l -1.50061,3.02836 -1.500611,3.02836 2.851883,4.0006 c 1.568535,2.20033 4.466312,6.72024 6.4395,10.04423 l 3.587616,6.04364 4.409722,0.12998 c 4.217099,0.1243 4.527063,0.18602 7.09603,1.41284 3.588932,1.71392 6.31135,4.43634 8.025271,8.02527 1.271757,2.66305 1.282866,2.72603 1.282866,7.27242 0,4.5562 -0.0085,4.60385 -1.298042,7.30439 -0.952613,1.99488 -1.917767,3.32292 -3.626792,4.9904 l -2.32875,2.27215 1.269802,4.50645 c 1.383246,4.90906 2.734953,10.68177 3.543092,15.13144 0.283373,1.56026 0.588663,3.17161 0.678424,3.58077 0.13214,0.60235 0.512028,0.78524 1.996119,0.96101 4.799122,0.56839 9.905813,4.47594 12.241614,9.36709 1.271757,2.66304 1.282866,2.72603 1.282866,7.27242 0,4.54639 -0.01111,4.60938 -1.282866,7.27242 -1.714701,3.59056 -4.436745,6.31207 -8.025271,8.02369 -2.551405,1.21695 -2.89004,1.28552 -6.743252,1.36545 -2.632096,0.0546 -4.552544,-0.0796 -5.468055,-0.382 z m 8.290277,-8.04246 c 3.175396,-1.37456 5.751922,-5.0643 5.751922,-8.2371 0,-1.92012 -1.289191,-4.74869 -2.863307,-6.28228 -1.617736,-1.5761 -4.380279,-2.82816 -6.240003,-2.82816 -1.859725,0 -4.622268,1.25206 -6.240004,2.82816 -1.57172,1.53126 -2.862012,4.35872 -2.866874,6.28228 -0.007,2.75852 2.316674,6.50154 4.873544,7.8505 2.974242,1.56917 4.654956,1.65483 7.584722,0.3866 z M 43.845246,206.13173 c 3.175395,-1.37456 5.751922,-5.0643 5.751922,-8.2371 0,-1.92012 -1.289191,-4.74869 -2.863307,-6.28228 -1.617736,-1.57609 -4.380279,-2.82816 -6.240004,-2.82816 -1.859724,0 -4.622267,1.25207 -6.240003,2.82816 -1.571721,1.53126 -2.862012,4.35872 -2.866874,6.28228 -0.007,2.75853 2.316674,6.50154 4.873544,7.85051 2.974241,1.56916 4.654956,1.65482 7.584722,0.38659 z m -30.691666,-47.625 c 3.175395,-1.37456 5.751921,-5.06431 5.751921,-8.2371 0,-3.23977 -2.563343,-6.84165 -5.92831,-8.33017 -2.235182,-0.98875 -4.1148177,-0.98875 -6.3500001,0 -3.3628365,1.48757 -5.92367502,5.08377 -5.9318771,8.33017 -0.00695,2.75852 2.316674,6.50154 4.8735438,7.8505 2.9742412,1.56916 4.6549554,1.65483 7.5847224,0.3866 z m 210.43194,47.56233 c -3.30076,-1.29417 -6.44595,-4.395 -7.41397,-7.30944 -0.84385,-2.54061 -0.6179,-7.00104 0.46672,-9.21254 2.69861,-5.50247 8.54978,-8.17208 14.26796,-6.50976 2.69515,0.78349 5.50446,3.36673 7.02885,6.46322 0.99924,2.02974 1.13714,2.65843 1.13545,5.17585 -0.004,3.53557 -1.04045,6.07838 -3.47536,8.51326 -2.4348,2.43482 -4.66845,3.34644 -8.12909,3.31775 -1.55222,-0.0129 -3.29847,-0.21012 -3.88056,-0.43834 z"
         id="path3768"
         inkscape:connector-curvature="0" />
      <path
         style="fill:#e3b2b0;stroke-width:0.35277778"
         d="m 604.12691,396.96715 c -0.23283,-0.23283 -0.42333,-0.86728 -0.42333,-1.40988 v -0.98656 l -351.98403,-0.0894 -351.98402,-0.0894 -3.6894,-0.98247 c -4.33396,-1.15412 -9.08932,-3.32414 -12.74516,-5.81601 -3.09936,-2.11257 -9.18035,-8.20823 -11.16625,-11.19318 -3.68513,-5.53905 -6.21659,-12.71724 -6.67123,-18.91691 l -0.22308,-3.04191 -0.9205,0.45554 c -0.50627,0.25055 -1.9987,0.97184 -3.3165,1.60287 -2.81376,1.34737 -6.35896,4.46912 -8.16454,7.18934 -2.90069,4.37007 -4.04907,9.30846 -4.06743,17.4912 -0.0133,5.92789 0.10309,6.33237 1.82214,6.33237 0.8937,0 0.98778,0.11759 0.98778,1.23472 v 1.23472 h -11.99445 -11.99444 v -1.23472 c 0,-1.0649 0.11536,-1.23472 0.83875,-1.23472 0.46131,0 1.00193,-0.19844 1.20137,-0.44098 0.2185,-0.2657 0.42657,-4.15656 0.52353,-9.78958 0.13971,-8.1163 0.26238,-9.74388 0.93065,-12.34722 0.93697,-3.65008 3.59701,-9.32274 6.00513,-12.80621 2.11542,-3.06006 7.45977,-8.37286 10.43251,-10.37091 5.17626,-3.47909 13.64115,-6.73242 16.61413,-6.38535 l 1.16298,0.13578 0.12611,-19.24152 0.12611,-19.24152 0.96364,-3.68939 c 1.07083,-4.09975 3.248,-8.98715 5.52611,-12.40526 2.03055,-3.04666 8.08412,-9.16309 11.11428,-11.22968 3.8608,-2.6331 8.00413,-4.55074 12.47247,-5.77257 l 4.10529,-1.12255 h 23.195053 c 16.30494,0 23.195085,-0.11263 23.195138,-0.37918 1.8e-4,-0.84288 -1.766637,-5.49723 -2.675466,-7.04803 -2.19806,-3.75071 -6.458864,-7.43248 -10.398414,-8.98531 -3.731003,-1.47062 -5.759108,-1.80393 -12.855205,-2.11268 -8.39355,-0.3652 -11.387293,-0.99485 -16.626473,-3.49691 -4.841703,-2.31224 -7.470203,-4.14765 -11.333853,-7.91412 -5.29,-5.15695 -9.07746,-11.44055 -10.94007,-18.1502 -0.90829,-3.27193 -0.94946,-3.78533 -0.95632,-11.9251 l -0.007,-8.50597 -3.70417,-0.21075 c -7.10776,-0.40441 -14.22045,-2.82793 -20.13872,-6.86191 -3.09936,-2.11256 -9.18036,-8.20823 -11.16625,-11.19318 -2.37666,-3.57231 -4.31793,-7.823 -5.45368,-11.9416 -1.04772,-3.79935 -1.09026,-4.23698 -1.24823,-12.84104 l -0.16354,-8.90764 h -0.95257 c -0.52391,0 -1.14306,-0.1905 -1.3759,-0.42333 -0.56051,-0.56052 -0.53955,-1.86327 0.0377,-2.34234 0.36274,-0.30105 16.68457,-0.58933 23.94507,-0.42294 0.72888,0.0167 1.09846,1.06169 0.79837,2.25736 -0.18119,0.72194 -0.47064,0.9132 -1.51355,1.00014 l -1.28952,0.1075 0.008,6.70278 c 0.007,5.98506 0.0949,6.98608 0.82119,9.34861 0.89326,2.90586 2.71968,6.48588 4.37797,8.58137 3.35187,4.2356 10.86828,7.63145 16.91872,7.64374 1.02884,0.002 1.2675,-0.11289 1.10629,-0.53301 -0.33583,-0.87515 0.519,-3.61647 2.36949,-7.5986 0.95633,-2.05792 1.73877,-3.98662 1.73877,-4.28599 0,-0.82459 -1.60735,-0.98994 -6.05034,-0.62241 -2.20211,0.18216 -4.90992,0.33378 -6.01736,0.33694 l -2.01354,0.006 -0.69251,-2.38125 c -0.38088,-1.30969 -2.44095,-8.5725 -4.57793,-16.13959 -2.13699,-7.56708 -3.98134,-14.00787 -4.09856,-14.31286 -0.31755,-0.82619 1.12575,-1.33654 5.04319,-1.78325 1.8777,-0.21412 3.79524,-0.56947 4.26122,-0.78966 1.17407,-0.55478 22.65592,-0.56035 23.35204,-0.006 0.27235,0.21686 1.76517,0.50443 3.3174,0.63904 8.053207,0.6984 20.850948,3.54143 29.697612,6.59734 16.221216,5.60331 29.496611,12.90034 42.688683,23.46451 4.174691,3.34308 14.247569,13.13729 18.269998,17.76456 18.0770313,20.79519 29.326504,46.6315 32.871297,75.49445 0.879873,7.16424 0.879873,23.17464 0,30.33889 -3.092641,25.18136 -11.9911111,47.97218 -26.2467022,67.2232 -2.8311828,3.82329 -5.8624328,7.21292 -6.4503088,7.21292 -0.48127,0 -24.331972,-24.35547 -24.331972,-24.84693 0,-0.2895 1.323527,-2.47706 2.941172,-4.86125 8.124355,-11.97418 13.217779,-23.13457 16.629549,-36.43766 1.190149,-4.64059 2.618824,-13.38222 2.247755,-13.75329 -0.111008,-0.111 -2.022101,0.75424 -4.246876,1.92277 -4.410894,2.31675 -10.677045,4.23127 -14.254244,4.35515 -1.61768,0.056 -1.961868,0.18296 -2.094766,0.77259 -0.08747,0.38805 -0.212707,9.1193 -0.27831,19.40278 -0.112515,17.63674 -0.161636,18.86736 -0.866034,21.69682 -1.075976,4.32203 -3.786367,10.7988 -5.461896,13.05179 -2.34146,3.14843 -7.306024,8.06482 -9.969631,9.87288 -3.747653,2.54391 -9.33898,5.21343 -13.155386,6.2809 l -3.417722,0.95595 h -23.921561 -23.921557 l 0.22113,1.76388 c 0.26216,2.09121 1.39956,5.78682 2.38864,7.76112 2.91567,5.81993 9.28458,10.33009 16.163535,11.44624 1.551146,0.25168 111.580813,0.36732 351.244115,0.36915 l 348.98542,0.003 v -0.98777 c 0,-1.17514 0.57054,-1.83445 1.5875,-1.83445 1.55603,0 1.5875,0.24835 1.5875,12.52361 0,12.27527 -0.0314,12.52362 -1.5875,12.52362 -0.40746,0 -0.93134,-0.1905 -1.16417,-0.42334 z M -69.39642,334.11309 c 3.854814,-1.28256 6.228105,-2.6426 8.854451,-5.07413 3.453603,-3.19743 6.130117,-8.59988 6.980389,-14.08967 0.440186,-2.84207 0.550284,-32.15911 0.122954,-32.74076 -0.170561,-0.23215 -7.738036,-0.28812 -22.131405,-0.1637 l -21.872222,0.18909 -2.490085,0.91345 c -3.320772,1.21818 -4.536062,1.86922 -6.955782,3.72624 -4.01502,3.08135 -7.11833,8.47114 -7.99759,13.89011 -0.21508,1.32556 -0.36767,8.96291 -0.36935,18.48648 l -0.003,16.22778 21.431441,-0.1836 21.431447,-0.1836 2.998611,-0.99769 z m 38.135895,-72.49457 c 3.731183,-1.26122 4.9083,-1.86487 7.469692,-3.83063 4.372801,-3.35592 7.76206,-9.57663 7.741306,-14.20853 -0.01669,-3.72342 -4.179238,-15.63214 -8.419433,-24.0873 -4.115795,-8.20709 -10.703839,-17.78629 -16.491207,-23.97868 l -1.236391,-1.32291 -29.563127,-3.6e-4 -29.563125,-3.5e-4 0.22413,6.08587 c 0.19383,5.2631 0.35353,6.49125 1.181289,9.08447 2.597365,8.13706 7.858795,13.07769 16.393703,15.39416 1.167906,0.31698 4.800134,0.65473 9.011991,0.83798 5.134835,0.22342 7.871862,0.50887 10.054166,1.04861 3.611002,0.89308 9.278267,3.53815 12.806207,5.97702 3.060055,2.11541 8.372856,7.45977 10.370909,10.43251 3.528176,5.24929 6.061889,11.83529 6.643867,17.26971 0.136027,1.2702 0.278426,2.30946 0.316438,2.30946 0.03801,0 1.414826,-0.45488 3.059585,-1.01084 z m -37.430339,-87.12843 c 0,-0.66678 -10.650425,-5.31861 -17.041058,-7.4431 -4.741206,-1.57616 -5.297794,-1.44413 -8.707299,2.06555 -1.457639,1.50047 -3.012183,3.3912 -3.454538,4.20164 l -0.804284,1.47351 h 15.00359 c 8.251973,0 15.003589,-0.13392 15.003589,-0.2976 z M 473.38376,369.15928 c -9.14414,-1.04997 -16.98978,-3.84631 -24.19685,-8.62424 -3.81935,-2.53205 -11.34304,-10.17846 -14.06783,-14.29734 -5.45098,-8.23987 -8.81439,-17.5 -10.69922,-29.45694 -0.68029,-4.31585 -0.78045,-6.36299 -0.79392,-16.22778 -0.0173,-12.58432 0.28031,-15.48999 2.45932,-24.01937 2.87207,-11.24235 7.97856,-20.63287 15.15844,-27.87558 8.45237,-8.52628 18.50643,-12.81256 32.68627,-13.93489 13.50511,-1.06893 26.2908,1.77289 35.76697,7.94976 11.0696,7.21555 18.1507,19.29048 20.43529,34.84701 1.17955,8.03189 1.43319,22.60604 0.40538,23.29225 -0.2135,0.14255 -19.81991,0.26161 -43.56979,0.26458 l -43.18155,0.005 0.21922,4.49792 c 0.77057,15.8101 6.64827,30.62302 15.53728,39.1568 4.39777,4.22206 8.73005,6.49418 14.66871,7.69323 5.55385,1.12135 14.90038,0.38771 21.18932,-1.66321 7.29139,-2.37784 15.79262,-8.55043 21.55102,-15.64777 1.02051,-1.25783 2.08929,-2.28696 2.37504,-2.28696 0.8902,0 13.45692,10.33235 13.46295,11.06926 0.007,0.82372 -4.25422,5.88191 -7.36709,8.74546 -10.26234,9.44036 -19.60475,14.03456 -32.49137,15.97787 -4.45851,0.67234 -15.67596,0.97909 -19.54759,0.53454 z m 37.64248,-82.10005 c 0.0797,-0.14553 0.0148,-1.69334 -0.14439,-3.43959 -1.05678,-11.60166 -5.9877,-22.94431 -12.06161,-27.74546 -9.49921,-7.50868 -28.04224,-7.91295 -38.67662,-0.84323 -7.33153,4.87399 -13.47858,15.35004 -15.3695,26.19335 -0.28935,1.65931 -0.5261,3.71051 -0.5261,4.55822 v 1.54129 h 33.31669 c 18.32416,0 33.38184,-0.11906 33.46153,-0.26458 z m 67.90584,81.56119 c -6.51629,-1.57977 -11.12572,-6.24916 -13.39158,-13.56578 l -0.81862,-2.64333 -0.0925,-87.22998 -0.0925,-87.23 9.61732,0.0939 9.61736,0.0939 0.17639,83.43195 c 0.19244,91.02366 0.048,84.93652 2.08298,87.79434 1.75739,2.46807 6.89673,3.69965 13.8431,3.31734 3.08236,-0.16964 3.43447,-0.12483 3.74216,0.47623 0.57447,1.12206 2.64753,9.97227 2.45403,10.47652 -0.21114,0.55025 -5.50711,2.63374 -9.58056,3.76911 -6.24343,1.74017 -13.3616,2.2331 -17.55765,1.21585 z M 82.53321,367.16919 c -0.129353,-0.12935 -0.235186,-42.75427 -0.235186,-94.72205 v -94.48685 l 50.535416,0.0894 50.53542,0.0894 v 8.29028 8.29027 l -40.04028,0.17639 -40.04028,0.17639 -0.0901,31.8382 -0.0901,31.8382 h 31.68132 c 24.17066,0 31.78168,0.10035 32.10465,0.42333 0.59929,0.59929 0.59929,15.1346 0,15.73389 -0.32297,0.32298 -7.93393,0.42333 -32.10439,0.42333 h -31.68105 l 0.0898,37.30626 0.0898,37.30625 41.80417,0.17639 41.80416,0.17639 0.0949,8.26534 c 0.0732,6.37704 -0.007,8.33026 -0.35278,8.54946 -0.53524,0.3397 -103.766311,0.39894 -104.10551,0.0597 z m 135.6715,-0.0562 c -0.35193,-0.22346 -0.42376,-13.52659 -0.35278,-65.34668 l 0.0891,-65.06611 h 9.525 9.525 l 0.0891,65.06611 c 0.071,51.82009 0,65.12322 -0.35278,65.34668 -0.24307,0.15433 -4.41068,0.28059 -9.26137,0.28059 -4.8507,0 -9.01831,-0.12626 -9.26137,-0.28059 z m 61.71942,-0.13194 c -0.32575,-0.32575 -0.42333,-13.49963 -0.42333,-57.15001 v -56.72667 h -8.39611 c -6.05995,0 -8.5139,-0.11779 -8.81945,-0.42333 -0.3025,-0.30251 -0.42333,-2.54784 -0.42333,-7.86695 0,-5.3191 0.12083,-7.56444 0.42333,-7.86694 0.3054,-0.3054 2.74843,-0.42334 8.7695,-0.42334 h 8.34619 l 0.20673,-9.08402 c 0.33252,-14.61164 1.77831,-21.72945 6.12323,-30.14541 3.98921,-7.72702 11.07391,-14.24814 19.11735,-17.59664 10.45753,-4.35347 25.36807,-4.62392 37.4397,-0.67909 4.36855,1.42758 6.71008,2.66264 6.71008,3.53931 0,0.78298 -7.288,15.55919 -7.84973,15.91508 -0.19586,0.12409 -2.56335,-0.85232 -5.26108,-2.16982 -6.45654,-3.15317 -8.71012,-3.71621 -14.58224,-3.64329 -9.21258,0.1144 -15.81623,3.25354 -18.66325,8.87185 -2.28875,4.51663 -2.9608,9.54591 -3.2735,24.49689 l -0.21946,10.49514 h 15.05793 c 13.34174,0 15.0821,0.063 15.26992,0.55248 0.28634,0.74623 -1.31012,15.03079 -1.74206,15.58711 -0.26373,0.33968 -3.57374,0.44097 -14.41026,0.44097 h -14.06793 v 56.72667 c 0,43.65038 -0.0976,56.82426 -0.42334,57.15001 -0.3072,0.30721 -2.90061,0.42333 -9.45444,0.42333 -6.55384,0 -9.14725,-0.11612 -9.45445,-0.42333 z m 76.55278,0 c -0.32575,-0.32575 -0.42333,-13.49963 -0.42333,-57.15001 v -56.72667 h -8.39611 c -6.05995,0 -8.51391,-0.11779 -8.81945,-0.42333 -0.30251,-0.30251 -0.42333,-2.54784 -0.42333,-7.86695 0,-5.3191 0.12082,-7.56444 0.42333,-7.86694 0.3054,-0.3054 2.74842,-0.42334 8.76949,-0.42334 h 8.3462 l 0.20672,-9.08402 c 0.33253,-14.61164 1.77832,-21.72945 6.12324,-30.14541 3.98921,-7.72702 11.0739,-14.24814 19.11734,-17.59664 10.45754,-4.35347 25.36808,-4.62392 37.43971,-0.67909 4.36855,1.42758 6.71008,2.66264 6.71008,3.53931 0,0.78298 -7.288,15.55919 -7.84973,15.91508 -0.19586,0.12409 -2.56335,-0.85232 -5.26108,-2.16982 -6.45654,-3.15317 -8.71012,-3.71621 -14.58225,-3.64329 -9.21258,0.1144 -15.81622,3.25354 -18.66325,8.87185 -2.28875,4.51663 -2.96079,9.54591 -3.27349,24.49689 l -0.21946,10.49514 h 15.05793 c 13.34173,0 15.08209,0.063 15.26991,0.55248 0.28635,0.74623 -1.31011,15.03079 -1.74205,15.58711 -0.26374,0.33968 -3.57374,0.44097 -14.41027,0.44097 h -14.06793 v 56.72667 c 0,43.65038 -0.0976,56.82426 -0.42333,57.15001 -0.3072,0.30721 -2.90061,0.42333 -9.45444,0.42333 -6.55384,0 -9.14725,-0.11612 -9.45445,-0.42333 z M 49.842468,269.53218 c -2.713732,-0.75632 -5.348407,-2.317 -7.436555,-4.40515 -8.263742,-8.26374 -5.821998,-22.03232 4.802,-27.07764 l 2.698376,-1.28145 -0.240068,-1.62137 c -0.614634,-4.15113 -4.299155,-18.6711 -5.101876,-20.10548 -0.240764,-0.43022 -0.896542,-0.51859 -3.245841,-0.4374 -5.103742,0.1764 -9.205497,-1.39735 -12.668906,-4.86076 -3.266536,-3.26653 -4.90431,-7.22323 -4.90431,-11.8483 0,-4.63704 1.575696,-8.43294 4.949758,-11.9241 1.153583,-1.19362 2.097423,-2.37199 2.097423,-2.61861 0,-0.64129 -6.191324,-10.70996 -9.162313,-14.90026 -1.381139,-1.94796 -2.750012,-3.54175 -3.041943,-3.54175 -0.291931,0 -1.038835,0.26285 -1.659791,0.58412 -1.850242,0.95727 -4.500788,1.52417 -7.1262311,1.52417 -4.6240876,0 -8.5817815,-1.63779 -11.8462777,-4.90229 -6.5993327,-6.59933 -6.5993327,-17.09323 0,-23.69256 6.5993327,-6.59933 17.0932228,-6.59933 23.6925558,0 3.264496,3.2645 4.902291,7.22219 4.902291,11.84628 0,3.12066 -0.647174,5.55863 -2.249307,8.47335 l -1.262391,2.29664 3.377209,4.84556 c 1.857463,2.66506 4.805627,7.24583 6.551475,10.17948 l 3.174269,5.33393 3.099763,-0.17675 c 5.316259,-0.30311 9.515761,1.24392 13.096339,4.8245 3.266535,3.26653 4.90431,7.22323 4.90431,11.84829 0,4.85683 -1.661908,8.66872 -5.335743,12.23851 l -2.429531,2.36072 1.265252,4.49031 c 1.3791,4.89436 2.731177,10.66991 3.538541,15.11529 0.283372,1.56026 0.584902,3.15662 0.670062,3.54746 0.122993,0.56445 0.633843,0.80148 2.483736,1.1524 3.208386,0.60863 6.280432,2.25186 8.661706,4.63313 9.150361,9.15036 4.923014,24.77187 -7.610926,28.12499 -2.171524,0.58093 -6.513488,0.56824 -8.643056,-0.0253 z m 7.274045,-7.65442 c 2.627426,-0.98305 4.749638,-3.10526 5.732685,-5.73269 0.413381,-1.10486 0.751604,-2.39381 0.751604,-2.86432 0,-1.69307 -1.487488,-4.85744 -2.989326,-6.35929 -1.501842,-1.50183 -4.666217,-2.98932 -6.359285,-2.98932 -1.693069,0 -4.857443,1.48749 -6.359285,2.98932 -1.501839,1.50185 -2.989326,4.66622 -2.989326,6.35929 0,1.69373 1.487498,4.85745 2.990529,6.36049 1.52371,1.52371 4.499084,2.93598 6.256654,2.96974 0.526299,0.0101 1.860886,-0.31984 2.96575,-0.73322 z M 43.35818,206.49164 c 2.627425,-0.98304 4.749638,-3.10526 5.732685,-5.73268 0.413381,-1.10487 0.751603,-2.39381 0.751603,-2.86433 0,-1.69306 -1.487487,-4.85744 -2.989326,-6.35928 -1.501842,-1.50184 -4.666216,-2.98933 -6.359285,-2.98933 -1.693068,0 -4.857443,1.48749 -6.359285,2.98933 -1.501838,1.50184 -2.989326,4.66622 -2.989326,6.35928 0,1.69374 1.487498,4.85746 2.990529,6.36049 1.523711,1.52371 4.499085,2.93598 6.256655,2.96974 0.526299,0.0101 1.860885,-0.31984 2.96575,-0.73322 z m -30.691666,-47.625 c 2.627425,-0.98305 4.749637,-3.10526 5.732684,-5.73269 0.413382,-1.10486 0.751604,-2.39381 0.751604,-2.86432 0,-1.69307 -1.487488,-4.85744 -2.989326,-6.35928 -1.501842,-1.50184 -4.666216,-2.98933 -6.3592851,-2.98933 -1.6930687,0 -4.857443,1.48749 -6.359285,2.98933 -1.5018385,1.50184 -2.98932602,4.66621 -2.98932602,6.35928 0,1.69373 1.48749812,4.85745 2.99052892,6.36049 1.5237107,1.52371 4.4990844,2.93598 6.256655,2.96974 0.5262982,0.0101 1.8608852,-0.31984 2.9657502,-0.73322 z m 211.783526,47.21153 c -3.19952,-0.90469 -6.41706,-3.72804 -7.84842,-6.88684 -1.13108,-2.4961 -1.05954,-6.65399 0.15892,-9.2342 2.10362,-4.45474 5.28472,-6.7047 9.86826,-6.97973 3.64863,-0.21893 5.87696,0.53743 8.28057,2.81065 2.64541,2.50194 3.83762,5.27571 3.84214,8.939 0.004,2.49215 -0.1354,3.11167 -1.16064,5.19425 -2.4154,4.90634 -8.11657,7.57752 -13.14083,6.15687 z"
         id="path3766"
         inkscape:connector-curvature="0" />
      <path
         style="fill:#b4b3b3;stroke-width:0.35277778"
         d="m 604.24802,396.62036 c -0.0864,-0.25553 -0.20454,-0.86147 -0.26257,-1.34654 l -0.10549,-0.88195 -352.2486,-0.17638 -352.24861,-0.17639 -3.44923,-0.95227 c -3.96782,-1.09544 -9.04041,-3.40159 -12.29264,-5.5886 -3.07512,-2.06791 -8.76317,-7.69774 -10.89925,-10.7877 -2.43224,-3.51836 -4.73822,-8.46799 -5.89702,-12.65755 l -0.97575,-3.52778 v -31.92639 -31.92639 l 0.95227,-3.44923 c 1.15666,-4.1896 3.49653,-9.2297 5.89682,-12.70185 2.1472,-3.10603 7.83078,-8.74267 10.8885,-10.79857 3.19961,-2.15129 8.21352,-4.46549 12.07213,-5.57196 l 3.35139,-0.96102 23.200398,-0.12033 23.200402,-0.12034 0.325156,0.81026 c 0.76516,1.90671 0.341725,-1.79476 -0.482551,-4.21824 -2.51037,-7.38079 -7.879419,-12.20101 -16.064748,-14.4226 -1.167907,-0.31699 -4.800135,-0.65473 -9.011991,-0.83799 -8.39355,-0.3652 -11.387293,-0.99485 -16.626473,-3.49691 -4.841703,-2.31224 -7.470203,-4.14765 -11.333853,-7.91412 -5.293,-5.15988 -9.08324,-11.44999 -10.93677,-18.1502 -0.90282,-3.26355 -0.94634,-3.80439 -0.95633,-11.8858 l -0.0105,-8.46666 h 9.17222 9.17222 l 0.22157,5.99722 c 0.19126,5.17689 0.35284,6.40739 1.181287,8.99583 2.606167,8.14284 7.86263,13.07804 16.396265,15.39416 1.167906,0.31699 4.800134,0.65473 9.01199,0.83799 8.39355,0.3652 11.387293,0.99484 16.626473,3.49691 4.841702,2.31224 7.470203,4.14765 11.333854,7.91412 7.013056,6.83667 10.912754,14.76368 12.086195,24.56794 0.295437,2.46841 0.310903,10.69407 0.0587,31.22083 -0.322396,26.23949 -0.384806,28.04488 -1.067107,30.86905 -1.027959,4.25494 -3.74397,10.77148 -5.439819,13.05179 -2.34146,3.14843 -7.306024,8.06482 -9.96963,9.87288 -3.747654,2.54391 -9.33898,5.21343 -13.155387,6.2809 l -3.417711,0.95595 h -23.8125 -23.8125 v -9.17223 -9.17222 l 21.343056,-0.18241 21.343055,-0.18242 2.998611,-0.99888 c 3.856207,-1.28455 6.229022,-2.64463 8.854451,-5.07531 3.453603,-3.19743 6.130117,-8.59988 6.980389,-14.08967 0.456674,-2.94854 0.50915,-18.12544 0.127833,-36.97409 l -0.264062,-13.05278 -0.176389,8.29028 -0.176388,8.29027 -21.519445,0.18541 c -21.325885,0.18373 -21.541655,0.19277 -23.988888,1.0046 -4.029723,1.3368 -6.508033,2.84285 -9.391453,5.70711 -2.0021,1.98879 -3.01237,3.34381 -3.95631,5.30634 -2.63769,5.48397 -2.52724,3.95136 -2.52724,35.06877 v 27.86945 l 0.82581,2.64583 c 1.27909,4.0981 2.78049,6.61015 5.71853,9.56784 2.9093,2.92877 5.96498,4.67834 10.223772,5.85376 2.183307,0.60258 17.408677,0.62979 352.413828,0.62979 h 350.13194 l 0.17639,-1.23472 c 0.15678,-1.09753 0.29397,-1.23472 1.23473,-1.23472 h 1.05833 v 11.99444 11.99445 l -0.97215,0.11182 c -0.57408,0.066 -1.03646,-0.0784 -1.12924,-0.35278 z m -776.65555,-7.87293 c 0,-1.0649 0.11536,-1.23472 0.83875,-1.23472 0.46131,0 1.00193,-0.19844 1.20137,-0.44098 0.2185,-0.2657 0.42657,-4.15656 0.52353,-9.78958 0.13971,-8.1163 0.26238,-9.74388 0.93065,-12.34722 0.93697,-3.65008 3.59701,-9.32274 6.00513,-12.80621 2.11542,-3.06006 7.45977,-8.37286 10.43251,-10.37091 5.11424,-3.43741 13.49138,-6.68064 16.50387,-6.38952 l 1.13502,0.10969 v 9.51148 9.51147 l -0.88194,0.42445 c -0.48507,0.23344 -1.96015,0.94134 -3.27795,1.57309 -2.81463,1.34935 -6.35969,4.47156 -8.16454,7.19067 -2.90069,4.37007 -4.04907,9.30846 -4.06743,17.4912 -0.0133,5.92789 0.10309,6.33237 1.82214,6.33237 0.8937,0 0.98778,0.11759 0.98778,1.23472 v 1.23472 h -11.99445 -11.99444 z m 645.79129,-19.58815 c -9.14414,-1.04997 -16.98978,-3.84631 -24.19685,-8.62424 -3.81935,-2.53205 -11.34304,-10.17846 -14.06783,-14.29734 -5.45098,-8.23987 -8.81439,-17.5 -10.69922,-29.45694 -0.68029,-4.31585 -0.78045,-6.36299 -0.79392,-16.22778 -0.0173,-12.58432 0.28031,-15.48999 2.45932,-24.01937 2.87207,-11.24235 7.97856,-20.63287 15.15844,-27.87558 8.45237,-8.52628 18.50643,-12.81256 32.68627,-13.93489 13.50511,-1.06893 26.2908,1.77289 35.76697,7.94976 11.0696,7.21555 18.1507,19.29048 20.43529,34.84701 1.17955,8.03189 1.43319,22.60604 0.40538,23.29225 -0.2135,0.14255 -19.81991,0.26161 -43.56979,0.26458 l -43.18155,0.005 0.21922,4.49792 c 0.77057,15.8101 6.64827,30.62302 15.53728,39.1568 4.39777,4.22206 8.73005,6.49418 14.66871,7.69323 5.55385,1.12135 14.90038,0.38771 21.18932,-1.66321 7.29139,-2.37784 15.79262,-8.55043 21.55102,-15.64777 1.02051,-1.25783 2.08929,-2.28696 2.37504,-2.28696 0.8902,0 13.45692,10.33235 13.46295,11.06926 0.007,0.82372 -4.25422,5.88191 -7.36709,8.74546 -10.26234,9.44036 -19.60475,14.03456 -32.49137,15.97787 -4.45851,0.67234 -15.67596,0.97909 -19.54759,0.53454 z m 37.64248,-82.10005 c 0.0797,-0.14553 0.0148,-1.69334 -0.14439,-3.43959 -1.05678,-11.60166 -5.9877,-22.94431 -12.06161,-27.74546 -9.49921,-7.50868 -28.04224,-7.91295 -38.67662,-0.84323 -7.33153,4.87399 -13.47858,15.35004 -15.3695,26.19335 -0.28935,1.65931 -0.5261,3.71051 -0.5261,4.55822 v 1.54129 h 33.31669 c 18.32416,0 33.38184,-0.11906 33.46153,-0.26458 z m 67.90584,81.56119 c -6.51629,-1.57977 -11.12572,-6.24916 -13.39158,-13.56578 l -0.81862,-2.64333 -0.0925,-87.22998 -0.0925,-87.23 9.61732,0.0939 9.61736,0.0939 0.17639,83.43195 c 0.19244,91.02366 0.048,84.93652 2.08298,87.79434 1.75739,2.46807 6.89673,3.69965 13.8431,3.31734 3.08236,-0.16964 3.43447,-0.12483 3.74216,0.47623 0.57447,1.12206 2.64753,9.97227 2.45403,10.47652 -0.21114,0.55025 -5.50711,2.63374 -9.58056,3.76911 -6.24343,1.74017 -13.3616,2.2331 -17.55765,1.21585 z M 82.53321,367.16919 c -0.129353,-0.12935 -0.235186,-42.75427 -0.235186,-94.72205 v -94.48685 l 50.535416,0.0894 50.53542,0.0894 v 8.29028 8.29027 l -40.04028,0.17639 -40.04028,0.17639 -0.0901,31.8382 -0.0901,31.8382 h 31.68132 c 24.17066,0 31.78168,0.10035 32.10465,0.42333 0.59929,0.59929 0.59929,15.1346 0,15.73389 -0.32297,0.32298 -7.93393,0.42333 -32.10439,0.42333 h -31.68105 l 0.0898,37.30626 0.0898,37.30625 41.80417,0.17639 41.80416,0.17639 0.0949,8.26534 c 0.0732,6.37704 -0.007,8.33026 -0.35278,8.54946 -0.53524,0.3397 -103.766311,0.39894 -104.10551,0.0597 z m 135.6715,-0.0562 c -0.35193,-0.22346 -0.42376,-13.52659 -0.35278,-65.34668 l 0.0891,-65.06611 h 9.525 9.525 l 0.0891,65.06611 c 0.071,51.82009 0,65.12322 -0.35278,65.34668 -0.24307,0.15433 -4.41068,0.28059 -9.26137,0.28059 -4.8507,0 -9.01831,-0.12626 -9.26137,-0.28059 z m 61.71942,-0.13194 c -0.32575,-0.32575 -0.42333,-13.49963 -0.42333,-57.15001 v -56.72667 h -8.39611 c -6.05995,0 -8.5139,-0.11779 -8.81945,-0.42333 -0.3025,-0.30251 -0.42333,-2.54784 -0.42333,-7.86695 0,-5.3191 0.12083,-7.56444 0.42333,-7.86694 0.3054,-0.3054 2.74843,-0.42334 8.7695,-0.42334 h 8.34619 l 0.20673,-9.08402 c 0.33252,-14.61164 1.77831,-21.72945 6.12323,-30.14541 3.98921,-7.72702 11.07391,-14.24814 19.11735,-17.59664 10.45753,-4.35347 25.36807,-4.62392 37.4397,-0.67909 4.36855,1.42758 6.71008,2.66264 6.71008,3.53931 0,0.78298 -7.288,15.55919 -7.84973,15.91508 -0.19586,0.12409 -2.56335,-0.85232 -5.26108,-2.16982 -6.45654,-3.15317 -8.71012,-3.71621 -14.58224,-3.64329 -9.21258,0.1144 -15.81623,3.25354 -18.66325,8.87185 -2.28875,4.51663 -2.9608,9.54591 -3.2735,24.49689 l -0.21946,10.49514 h 15.05793 c 13.34174,0 15.0821,0.063 15.26992,0.55248 0.28634,0.74623 -1.31012,15.03079 -1.74206,15.58711 -0.26373,0.33968 -3.57374,0.44097 -14.41026,0.44097 h -14.06793 v 56.72667 c 0,43.65038 -0.0976,56.82426 -0.42334,57.15001 -0.3072,0.30721 -2.90061,0.42333 -9.45444,0.42333 -6.55384,0 -9.14725,-0.11612 -9.45445,-0.42333 z m 76.55278,0 c -0.32575,-0.32575 -0.42333,-13.49963 -0.42333,-57.15001 v -56.72667 h -8.39611 c -6.05995,0 -8.51391,-0.11779 -8.81945,-0.42333 -0.30251,-0.30251 -0.42333,-2.54784 -0.42333,-7.86695 0,-5.3191 0.12082,-7.56444 0.42333,-7.86694 0.3054,-0.3054 2.74842,-0.42334 8.76949,-0.42334 h 8.3462 l 0.20672,-9.08402 c 0.33253,-14.61164 1.77832,-21.72945 6.12324,-30.14541 3.98921,-7.72702 11.0739,-14.24814 19.11734,-17.59664 10.45754,-4.35347 25.36808,-4.62392 37.43971,-0.67909 4.36855,1.42758 6.71008,2.66264 6.71008,3.53931 0,0.78298 -7.288,15.55919 -7.84973,15.91508 -0.19586,0.12409 -2.56335,-0.85232 -5.26108,-2.16982 -6.45654,-3.15317 -8.71012,-3.71621 -14.58225,-3.64329 -9.21258,0.1144 -15.81622,3.25354 -18.66325,8.87185 -2.28875,4.51663 -2.96079,9.54591 -3.27349,24.49689 l -0.21946,10.49514 h 15.05793 c 13.34173,0 15.08209,0.063 15.26991,0.55248 0.28635,0.74623 -1.31011,15.03079 -1.74205,15.58711 -0.26374,0.33968 -3.57374,0.44097 -14.41027,0.44097 h -14.06793 v 56.72667 c 0,43.65038 -0.0976,56.82426 -0.42333,57.15001 -0.3072,0.30721 -2.90061,0.42333 -9.45444,0.42333 -6.55384,0 -9.14725,-0.11612 -9.45445,-0.42333 z m -379.95085,-23.7314 c -6.630698,-6.68816 -12.055813,-12.39715 -12.055813,-12.68665 0,-0.2895 1.323527,-2.47706 2.941172,-4.86125 8.127513,-11.97883 13.231329,-23.16412 16.626399,-36.43766 1.283169,-5.01675 2.539174,-12.81472 2.204515,-13.68684 -0.173362,-0.45177 -1.018339,-0.14317 -4.729773,1.72743 -4.771185,2.40472 -9.620225,3.91443 -13.161758,4.09782 l -1.940277,0.10047 -0.09396,-9.21243 c -0.07253,-7.1116 0.0079,-9.28839 0.352778,-9.54551 0.245706,-0.18319 1.399236,-0.61822 2.563403,-0.96675 6.419296,-1.92181 11.504824,-6.66143 13.9495,-13.00068 1.014797,-2.63146 1.095985,-3.1271 0.879856,-5.37151 -0.277111,-2.87765 -3.523474,-12.90224 -5.998799,-18.52395 -3.363715,-7.63933 -7.635791,-14.98725 -12.306283,-21.16667 -3.175349,-4.20123 -7.106641,-8.82333 -7.951388,-9.34861 -0.365725,-0.22742 -15.61089,-0.41668 -42.900664,-0.5326 l -42.333328,-0.17983 -3.44924,-0.94883 c -4.18447,-1.15109 -9.22471,-3.48966 -12.70184,-5.89339 -3.10604,-2.1472 -8.74267,-7.83078 -10.79857,-10.88851 -2.17712,-3.23802 -4.47828,-8.24588 -5.54725,-12.07212 -0.86532,-3.09732 -0.95273,-4.04675 -1.15304,-12.52362 l -0.21673,-9.17222 -1.23472,-0.17639 c -1.09753,-0.15679 -1.23472,-0.29398 -1.23472,-1.23472 v -1.05833 l 11.1125,-0.25112 c 6.11187,-0.13812 11.35062,-0.28219 11.64166,-0.32016 1.70702,-0.22272 2.35508,0.55686 1.91629,2.30516 -0.18887,0.75253 -0.43441,0.91195 -1.40455,0.91195 -0.64661,0 -1.25954,0.13572 -1.36206,0.30161 -0.10252,0.16588 -0.20991,3.30119 -0.23864,6.96736 -0.0514,6.55262 -0.0344,6.7167 0.99851,9.66756 1.66722,4.76293 2.79539,6.66887 5.56467,9.40104 1.81375,1.78944 3.31619,2.88898 5.15716,3.77419 5.44117,2.61633 3.73631,2.48635 34.259593,2.61206 23.177528,0.0955 27.428472,0.0373 27.428472,-0.37525 0,-0.83795 -9.78747,-5.22235 -17.041058,-7.63371 -2.524396,-0.83921 -3.786515,-1.08852 -4.670738,-0.92264 -1.594246,0.29908 -5.013033,3.46857 -6.916957,6.41257 l -1.455603,2.25077 h -9.839729 c -8.47413,0 -9.86825,-0.0744 -10.04528,-0.53568 -0.33583,-0.87515 0.519,-3.61647 2.36949,-7.5986 0.95633,-2.05792 1.73877,-3.98662 1.73877,-4.28599 0,-0.82459 -1.60735,-0.98994 -6.05034,-0.62241 -2.20211,0.18216 -4.90992,0.33378 -6.01736,0.33694 l -2.01354,0.006 -0.69251,-2.38125 c -0.38088,-1.30969 -2.44095,-8.5725 -4.57793,-16.13959 -2.13699,-7.56708 -3.98134,-14.00787 -4.09856,-14.31286 -0.31755,-0.82619 1.12575,-1.33654 5.04319,-1.78325 1.8777,-0.21412 3.79524,-0.56947 4.26122,-0.78966 1.17407,-0.55478 22.65592,-0.56035 23.35204,-0.006 0.27235,0.21686 1.76517,0.50443 3.3174,0.63904 8.053206,0.6984 20.850947,3.54143 29.697611,6.59734 16.221216,5.60331 29.496611,12.90034 42.688683,23.46451 4.174691,3.34308 14.247569,13.13729 18.269998,17.76456 18.0770313,20.79519 29.326504,46.6315 32.871297,75.49445 0.879873,7.16424 0.879873,23.17464 0,30.33889 -3.092641,25.18136 -11.9911111,47.97218 -26.2467022,67.2232 -2.8311828,3.82329 -5.8624328,7.21292 -6.4503088,7.21292 -0.12119,0 -5.645457,-5.47213 -12.276159,-12.16028 z m 73.14002,-74.04136 c -4.675929,-1.54713 -8.301461,-4.69985 -10.358801,-9.0079 -1.254792,-2.62752 -1.282866,-2.77894 -1.282866,-6.91964 0,-4.1407 0.02808,-4.29212 1.282866,-6.91964 1.707702,-3.57591 4.441278,-6.3161 7.974944,-7.99423 l 2.63598,-1.25182 -0.22847,-1.7223 c -0.507799,-3.82795 -3.814219,-17.06286 -5.005415,-20.03562 l -0.494761,-1.23473 h -3.964516 c -3.831555,0 -4.054609,-0.043 -6.650824,-1.28286 -3.588932,-1.71392 -6.31135,-4.43634 -8.025271,-8.02527 -1.254792,-2.62753 -1.282866,-2.77895 -1.282866,-6.91965 0,-4.14634 0.02656,-4.28894 1.292309,-6.93952 0.907736,-1.90087 1.931434,-3.33548 3.439989,-4.82079 1.621533,-1.59656 2.088752,-2.27316 1.907145,-2.76186 -0.837791,-2.25447 -11.083861,-18.0063 -12.135174,-18.65605 -0.207014,-0.12793 -1.357038,0.22045 -2.555607,0.77419 -2.013451,0.93022 -2.501233,1.00681 -6.4125511,1.00681 -4.1406974,0 -4.2921166,-0.0281 -6.9196408,-1.28287 -3.58893176,-1.71392 -6.3113496,-4.43634 -8.025271,-8.02527 -1.2547918,-2.62752 -1.2828658,-2.77894 -1.2828658,-6.91964 0,-4.1407 0.028081,-4.29212 1.2828658,-6.91964 1.7139214,-3.58894 4.43633924,-6.31135 8.025271,-8.02527 2.6275242,-1.2548 2.7789434,-1.28287 6.9196408,-1.28287 4.1406971,0 4.2921171,0.0281 6.9196411,1.28287 3.588932,1.71392 6.311349,4.43633 8.025271,8.02527 1.256171,2.63041 1.282866,2.77495 1.282866,6.94624 v 4.25993 l -1.499306,3.02572 c -0.824618,1.66415 -1.499306,3.12365 -1.499306,3.24334 0,0.11969 1.439415,2.2734 3.1987,4.78602 1.759285,2.51263 4.735908,7.12594 6.61471,10.2518 l 3.416011,5.68339 4.233206,0.0602 c 4.083012,0.0581 4.328517,0.10573 6.919514,1.34308 3.588932,1.71392 6.31135,4.43634 8.025271,8.02527 1.254792,2.62753 1.282866,2.77895 1.282866,6.91964 0,4.14974 -0.02565,4.28702 -1.298042,6.95161 -0.957534,2.00519 -1.917344,3.32251 -3.658821,5.02166 l -2.360775,2.30338 1.438374,5.2089 c 1.560488,5.65112 2.89614,11.4408 3.602507,15.61585 0.604326,3.57195 0.723247,3.74737 2.719973,4.01224 4.683933,0.62135 9.738945,4.55068 12.032251,9.35284 1.254792,2.62752 1.282866,2.77894 1.282866,6.91964 0,4.1407 -0.02808,4.29212 -1.282866,6.91964 -1.716207,3.59372 -4.437531,6.31348 -8.025271,8.02064 -2.492378,1.18595 -2.953716,1.28458 -6.390474,1.36619 -2.356654,0.056 -4.217504,-0.0819 -5.115277,-0.37893 z m 8.275291,-7.31777 c 2.1472,-0.94744 4.033802,-2.85262 4.994924,-5.0441 3.279405,-7.47748 -4.791505,-15.57871 -12.211882,-12.25777 -4.923406,2.20344 -7.217964,7.63354 -5.163661,12.21988 0.886128,1.97832 2.519987,3.8391 4.105328,4.6755 3.049954,1.60911 5.299374,1.7196 8.275291,0.40649 z M 44.183038,206.50441 c 2.1472,-0.94745 4.033802,-2.85263 4.994924,-5.04411 3.279405,-7.47747 -4.791505,-15.57871 -12.211882,-12.25777 -4.923406,2.20344 -7.217964,7.63355 -5.163662,12.21988 0.886129,1.97832 2.519987,3.8391 4.105328,4.6755 3.049955,1.60911 5.299375,1.71961 8.275292,0.4065 z M 13.491372,158.8794 c 2.147199,-0.94744 4.033802,-2.85262 4.994924,-5.04411 3.279404,-7.47747 -4.791506,-15.5787 -12.2118828,-12.25776 -4.9234055,2.20344 -7.21796384,7.63354 -5.1636612,12.21988 0.8861283,1.97832 2.5199869,3.8391 4.1053278,4.6755 3.0499544,1.60911 5.2993752,1.7196 8.2752922,0.40649 z m 210.958668,47.19877 c -3.19952,-0.90469 -6.41706,-3.72804 -7.84842,-6.88684 -1.13108,-2.4961 -1.05954,-6.65399 0.15892,-9.2342 2.10362,-4.45474 5.28472,-6.7047 9.86826,-6.97973 3.64863,-0.21893 5.87696,0.53743 8.28057,2.81065 2.64541,2.50194 3.83762,5.27571 3.84214,8.939 0.004,2.49215 -0.1354,3.11167 -1.16064,5.19425 -2.4154,4.90634 -8.11657,7.57752 -13.14083,6.15687 z"
         id="path3764"
         inkscape:connector-curvature="0" />
      <path
         style="fill:#cd6e6a;stroke-width:0.35277778"
         d="m 604.24802,396.62036 c -0.0864,-0.25553 -0.20454,-0.86147 -0.26257,-1.34654 l -0.10549,-0.88195 -352.2486,-0.17638 -352.24861,-0.17639 -3.44923,-0.95227 c -3.96782,-1.09544 -9.04041,-3.40159 -12.29264,-5.5886 -3.07512,-2.06791 -8.76317,-7.69774 -10.89925,-10.7877 -2.43224,-3.51836 -4.73822,-8.46799 -5.89702,-12.65755 l -0.97575,-3.52778 v -31.92639 -31.92639 l 0.95227,-3.44923 c 1.15666,-4.1896 3.49653,-9.2297 5.89682,-12.70185 2.1472,-3.10603 7.83078,-8.74267 10.8885,-10.79857 3.19961,-2.15129 8.21352,-4.46549 12.07213,-5.57196 l 3.35139,-0.96102 23.197597,-0.12033 23.197594,-0.12032 0.356613,0.93796 c 0.214238,0.56348 0.31889,4.26724 0.262124,9.27692 l -0.09448,8.33895 -21.519445,0.18541 c -21.325885,0.18373 -21.541655,0.19277 -23.988888,1.0046 -4.029725,1.3368 -6.508035,2.84285 -9.391455,5.70711 -2.0021,1.98879 -3.01237,3.34381 -3.95631,5.30634 -2.63769,5.48397 -2.52724,3.95136 -2.52724,35.06877 v 27.86945 l 0.82581,2.64583 c 1.27909,4.0981 2.78049,6.61015 5.71853,9.56784 2.9093,2.92877 5.96498,4.67834 10.223774,5.85376 2.183307,0.60258 17.408677,0.62979 352.413826,0.62979 h 350.13194 l 0.17639,-1.23472 c 0.15678,-1.09753 0.29397,-1.23472 1.23473,-1.23472 h 1.05833 v 11.99444 11.99445 l -0.97215,0.11182 c -0.57408,0.066 -1.03646,-0.0784 -1.12924,-0.35278 z m -776.65555,-7.87293 c 0,-1.17593 0.0588,-1.23472 1.23472,-1.23472 h 1.23472 l 0.0103,-5.37986 c 0.0143,-7.46564 0.52972,-13.78117 1.40819,-17.25424 0.91133,-3.60301 3.57106,-9.28797 5.96675,-12.75346 2.11219,-3.05539 7.09917,-8.01093 10.07727,-10.01374 4.99537,-3.35945 13.55805,-6.71061 16.32977,-6.39095 l 0.95635,0.1103 0.0941,9.2653 0.0941,9.26531 -0.97601,0.39451 c -4.15076,1.67778 -5.69981,2.68198 -8.58901,5.56799 -3.38904,3.38531 -4.79773,5.85251 -5.97923,10.47213 -0.57676,2.2551 -0.69526,3.90763 -0.69526,9.69523 v 6.97677 l 1.11095,0.11055 c 1.37065,0.13639 2.04946,1.04187 1.38303,1.84486 -0.40589,0.48907 -1.90998,0.55874 -12.06218,0.55874 h -11.59847 z m 646.81805,-19.78229 c -0.58208,-0.0814 -2.24896,-0.31737 -3.70417,-0.52442 -15.59831,-2.21933 -28.87405,-11.28923 -37.23541,-25.43908 -7.19695,-12.17926 -10.7346,-30.09453 -9.66456,-48.94311 0.8744,-15.40224 4.45986,-27.14654 11.52769,-37.75968 8.97304,-13.47398 22.17155,-20.44168 40.51677,-21.38941 15.88174,-0.82048 30.1515,3.73337 39.48723,12.60138 8.6069,8.17571 13.55838,19.42533 14.96159,33.99215 0.5364,5.56824 0.82398,16.08893 0.48217,17.6389 l -0.31118,1.41111 -43.3759,0.17639 -43.3759,0.17638 -0.10657,2.2643 c -0.26698,5.67298 1.83392,17.22472 4.28865,23.58081 6.87207,17.79408 17.68457,26.5257 32.85959,26.53569 9.41638,0.006 17.34739,-2.32654 24.82434,-7.30154 3.0916,-2.05707 9.81396,-8.29696 12.04094,-11.17672 0.6791,-0.87816 1.44956,-1.60266 1.71213,-1.61001 0.45227,-0.0127 9.88113,7.36561 12.29442,9.62061 l 1.13012,1.05603 -1.13012,1.59149 c -1.88373,2.65268 -8.72766,9.25446 -12.4453,12.00494 -11.07895,8.19672 -20.67602,11.2095 -36.66264,11.5094 -3.88056,0.0728 -7.53181,0.0658 -8.11389,-0.0156 z m 36.86528,-83.54655 c 0,-3.13568 -1.17602,-9.6997 -2.45085,-13.67943 -1.20982,-3.77681 -3.92427,-9.32303 -5.84045,-11.93341 -4.49432,-6.12251 -11.52116,-9.35399 -21.8712,-10.0581 -6.37272,-0.43353 -12.51539,0.71429 -18.03284,3.36959 -2.82384,1.35901 -4.16905,2.28214 -6.44355,4.42184 -4.59377,4.32147 -8.34299,10.44627 -10.56619,17.26112 -1.12635,3.45262 -2.17548,8.92671 -2.17548,11.35105 v 1.52534 h 33.69028 33.69028 z m 67.60425,82.86059 c -6.50342,-1.64757 -11.29884,-6.68159 -13.09941,-13.7512 -1.19924,-4.70856 -1.25981,-9.57609 -1.15902,-93.13334 l 0.10001,-82.90279 9.43176,-0.0939 9.43176,-0.094 0.0932,83.34951 c 0.0858,76.7132 0.14002,83.4842 0.68086,85.04111 1.7078,4.91631 4.84114,6.34452 13.6361,6.21554 4.0597,-0.0595 5.1453,0.0254 5.354,0.41882 0.14397,0.27142 0.79456,2.68452 1.44579,5.36245 1.0196,4.19284 1.11174,4.91383 0.66358,5.19207 -1.05107,0.65258 -7.67592,2.88955 -11.10376,3.74935 -4.51485,1.13245 -12.27652,1.45665 -15.47491,0.64637 z M 82.694313,366.57485 c -0.293243,-0.35333 -0.374279,-25.09908 -0.308751,-94.28103 l 0.08885,-93.80197 50.359028,-0.0894 50.35903,-0.0894 v 8.11509 8.1151 h -39.8207 c -33.12863,0 -39.88755,0.0806 -40.21856,0.4794 -0.29029,0.34977 -0.3735,9.05378 -0.30778,32.19097 l 0.0901,31.71158 31.92639,0.17638 31.92639,0.17639 v 7.76111 7.76112 l -31.92639,0.17639 -31.92639,0.17638 v 37.57084 37.57084 l 41.89886,0.0896 41.89885,0.0896 -0.0947,8.20064 -0.0947,8.20064 -51.72598,0.0894 c -43.225447,0.0747 -51.791311,0.0106 -52.123568,-0.38972 z m 135.664177,0.24738 c -0.13258,-0.13255 -0.24102,-29.42719 -0.24102,-65.09918 v -64.85818 l 9.26041,0.0941 9.26042,0.094 v 64.91112 64.91111 l -9.0194,0.094 c -4.96069,0.0517 -9.12788,-0.0144 -9.26041,-0.14699 z m 61.66142,-0.20573 c -0.0928,-0.24577 -0.20792,-25.92623 -0.25576,-57.06769 l -0.087,-56.62084 -8.64306,-0.17639 -8.64305,-0.17639 v -7.76111 -7.76111 l 8.64305,-0.17639 8.64306,-0.17639 0.22193,-9.17222 c 0.23527,-9.72534 0.75473,-14.32879 2.27877,-20.19443 3.93213,-15.13396 13.79679,-25.2765 28.37974,-29.17915 9.25463,-2.47669 21.50794,-2.0509 31.4864,1.09413 3.05171,0.96184 6.26389,2.43548 6.66016,3.05544 0.20525,0.32117 -6.63882,14.55263 -7.52732,15.65211 -0.24564,0.304 -1.64635,-0.22635 -5.26468,-1.99343 -6.36083,-3.10642 -8.76762,-3.7257 -14.25445,-3.6677 -9.35609,0.0989 -16.16565,3.26197 -19.17414,8.90644 -2.46376,4.62255 -3.29597,11.00999 -3.36098,25.79742 l -0.0426,9.70139 15.08125,0.092 15.08125,0.092 -0.0265,1.49552 c -0.0145,0.82253 -0.37176,4.35301 -0.79375,7.84551 l -0.76729,6.35 -14.2875,0.17639 -14.2875,0.17639 -0.17639,56.97362 -0.17639,56.97361 -9.26924,0.0941 c -7.22552,0.0733 -9.30645,-0.004 -9.43804,-0.35277 z m 76.55278,0 c -0.0928,-0.24577 -0.20793,-25.92623 -0.25576,-57.06769 l -0.087,-56.62084 -8.64306,-0.17639 -8.64305,-0.17639 v -7.76111 -7.76111 l 8.64305,-0.17639 8.64306,-0.17639 0.22193,-9.17222 c 0.23527,-9.72534 0.75473,-14.32879 2.27877,-20.19443 3.93213,-15.13396 13.79678,-25.2765 28.37973,-29.17915 9.25464,-2.47669 21.50795,-2.0509 31.48641,1.09413 3.0517,0.96184 6.26389,2.43548 6.66016,3.05544 0.20525,0.32117 -6.63882,14.55263 -7.52732,15.65211 -0.24564,0.304 -1.64635,-0.22635 -5.26468,-1.99343 -6.36083,-3.10642 -8.76763,-3.7257 -14.25445,-3.6677 -9.35609,0.0989 -16.16565,3.26197 -19.17414,8.90644 -2.46377,4.62255 -3.29597,11.00999 -3.36099,25.79742 l -0.0426,9.70139 15.08125,0.092 15.08125,0.092 -0.0264,1.49552 c -0.0145,0.82253 -0.37176,4.35301 -0.79375,7.84551 l -0.7673,6.35 -14.2875,0.17639 -14.2875,0.17639 -0.17639,56.97362 -0.17638,56.97361 -9.26924,0.0941 c -7.22552,0.0733 -9.30645,-0.004 -9.43804,-0.35277 z m -471.05411,-13.04102 c -0.63473,-0.63473 -0.59916,-17.33602 0.038,-17.86485 0.31744,-0.26346 7.16866,-0.41662 21.960418,-0.49095 l 21.499032,-0.10804 2.749212,-1.00034 c 7.251029,-2.6384 12.386045,-8.47419 14.374054,-16.3357 0.689814,-2.72784 0.710177,-3.70374 0.610302,-29.2487 l -0.103322,-26.4267 -1.002802,-2.74922 c -1.311706,-3.59608 -3.212,-6.38703 -6.287643,-9.2346 -4.62697,-4.28387 -8.758167,-5.57486 -19.688412,-6.1526 -8.075221,-0.42683 -10.811718,-1.02879 -16.097306,-3.54103 -4.769063,-2.26672 -7.453553,-4.12623 -11.155003,-7.72688 -5.07259,-4.93445 -8.95464,-11.39426 -10.69318,-17.79366 -1.33842,-4.9266 -2.14119,-18.93673 -1.14229,-19.93563 0.61752,-0.61752 17.33616,-0.60099 17.8438,0.0176 0.2021,0.24627 0.43092,3.16668 0.51827,6.61458 0.14224,5.61447 0.24453,6.42261 1.12943,8.92282 1.262422,3.56688 3.158832,6.36538 6.257868,9.23461 4.62697,4.28387 8.758167,5.57486 19.688411,6.1526 8.075221,0.42683 10.811718,1.02879 16.097307,3.54102 4.769058,2.26673 7.453552,4.12624 11.154999,7.72689 5.072591,4.93445 8.954643,11.39426 10.693184,17.79365 1.313385,4.83445 1.540479,9.93398 1.542881,34.64647 0.0025,23.78504 -0.220899,29.24968 -1.396118,34.17998 -0.863215,3.62136 -3.231127,9.17559 -5.165436,12.11615 -1.908524,2.90138 -7.952027,9.01793 -10.697065,10.82637 -6.569251,4.32784 -12.463484,6.36945 -19.936696,6.90556 -7.119006,0.5107 -42.268845,0.45366 -42.791945,-0.0694 z m 80.972734,-72.10931 c -0.14145,-0.14145 -0.257178,-4.33878 -0.257178,-9.32741 0,-6.84591 0.10814,-9.15074 0.440972,-9.39851 0.242535,-0.18056 1.393472,-0.61344 2.557639,-0.96197 6.390858,-1.9133 11.411645,-6.57665 14.000494,-13.0038 l 1.16895,-2.90206 v -16.75695 c 0,-15.268 -0.05767,-16.94502 -0.649002,-18.87361 -1.85801,-6.05975 -5.964735,-10.99767 -11.290204,-13.57535 -5.520659,-2.67215 -3.081186,-2.54606 -54.206627,-2.80194 l -45.684718,-0.22865 -3.44924,-0.93958 c -4.17087,-1.13615 -9.21133,-3.47115 -12.70184,-5.88413 -3.10604,-2.1472 -8.74267,-7.83078 -10.79857,-10.88851 -2.17712,-3.23802 -4.47828,-8.24588 -5.54725,-12.07212 -0.86532,-3.09732 -0.95273,-4.04675 -1.15304,-12.52362 l -0.21673,-9.17222 -1.23472,-0.17639 c -1.09753,-0.15679 -1.23472,-0.29398 -1.23472,-1.23472 v -1.05833 l 12.08263,-0.0928 12.08264,-0.0928 v 1.2393 c 0,1.13015 -0.0894,1.23935 -1.01513,1.23935 -1.81032,0 -1.9081,0.43595 -1.72071,7.67204 0.14456,5.5823 0.29529,7.00113 0.96516,9.08491 2.6423,8.21953 7.62465,13.16599 15.70541,15.59224 1.99245,0.59824 4.83891,0.63554 48.506939,0.63554 h 46.390278 l 3.017354,0.77064 c 8.521135,2.17632 13.860007,5.2476 19.9582191,11.48135 5.3670941,5.48637 8.27397942,10.33648 10.1705163,16.96936 1.4934494,5.22315 1.5970814,6.78363 1.5998578,24.09008 0.00282,18.23479 -0.1472389,20.07301 -2.1209459,25.96414 -2.19998922,6.56653 -5.0609111,10.94942 -10.705733,16.40104 -3.7219503,3.59455 -4.2263623,3.94986 -9.0499003,6.37467 -3.481673,1.75025 -6.175413,2.83733 -8.459646,3.41395 -3.897859,0.98395 -6.785395,1.40262 -7.151155,1.03686 z M 49.66608,269.20829 c -4.675929,-1.54713 -8.301461,-4.69985 -10.358801,-9.0079 -1.254792,-2.62752 -1.282866,-2.77894 -1.282866,-6.91964 0,-4.14635 0.02656,-4.28894 1.29231,-6.93953 1.75781,-3.68098 4.591829,-6.46563 8.231639,-8.08823 l 2.691877,-1.20002 -0.225929,-1.5875 c -0.576178,-4.04851 -4.670594,-20.49135 -5.245753,-21.0665 -0.06259,-0.0626 -2.0025,-0.15042 -4.310916,-0.19518 -4.020142,-0.0779 -4.310387,-0.13547 -6.883424,-1.36424 -3.588932,-1.71392 -6.31135,-4.43634 -8.025271,-8.02527 -1.254792,-2.62753 -1.282866,-2.77895 -1.282866,-6.91965 0,-4.14634 0.02656,-4.28894 1.292309,-6.93952 0.907662,-1.90071 1.931438,-3.33548 3.439584,-4.82039 1.181001,-1.16281 2.145252,-2.40565 2.142779,-2.76186 -0.0096,-1.38181 -11.020697,-18.24853 -12.211505,-18.70549 -0.279986,-0.10744 -1.495612,0.26037 -2.701392,0.81735 -2.028497,0.93701 -2.508688,1.01269 -6.4256641,1.01269 -4.1406974,0 -4.2921166,-0.0281 -6.9196408,-1.28287 -3.58893176,-1.71392 -6.3113496,-4.43634 -8.025271,-8.02527 -1.2547918,-2.62752 -1.2828658,-2.77894 -1.2828658,-6.91964 0,-4.1407 0.028081,-4.29212 1.2828658,-6.91964 1.7139214,-3.58894 4.43633924,-6.31135 8.025271,-8.02527 2.6275242,-1.2548 2.7789434,-1.28287 6.9196408,-1.28287 4.1406971,0 4.2921171,0.0281 6.9196411,1.28287 3.588932,1.71392 6.311349,4.43633 8.025271,8.02527 1.257656,2.63352 1.282866,2.77059 1.282866,6.97536 v 4.28905 l -1.655643,3.25143 -1.655642,3.25142 2.832809,4.01964 c 1.558046,2.21081 4.525585,6.8162 6.594531,10.2342 l 3.761722,6.21456 4.409722,0.0406 c 4.305756,0.0396 4.473057,0.0709 7.09603,1.32347 3.588932,1.71392 6.31135,4.43634 8.025271,8.02527 1.254792,2.62753 1.282866,2.77895 1.282866,6.91964 0,4.15173 -0.02508,4.28588 -1.301422,6.95872 -0.985227,2.06322 -1.90833,3.3145 -3.799395,5.15014 l -2.497974,2.42475 1.601696,5.78598 c 0.880935,3.18228 2.168514,8.56289 2.861289,11.9569 0.692774,3.39401 1.319914,6.26854 1.393645,6.38784 0.07373,0.1193 0.960903,0.31483 1.971495,0.43452 4.803634,0.56892 9.909418,4.47457 12.246133,9.36763 1.254792,2.62752 1.282866,2.77894 1.282866,6.91964 0,4.1407 -0.02808,4.29212 -1.282866,6.91964 -1.716207,3.59372 -4.437531,6.31348 -8.025271,8.02064 -2.492378,1.18595 -2.953716,1.28458 -6.390474,1.36619 -2.356654,0.056 -4.217504,-0.0819 -5.115277,-0.37893 z m 8.275291,-7.31777 c 2.1472,-0.94744 4.033802,-2.85262 4.994924,-5.0441 3.279405,-7.47748 -4.791505,-15.57871 -12.211882,-12.25777 -4.923406,2.20344 -7.217964,7.63354 -5.163661,12.21988 0.886128,1.97832 2.519987,3.8391 4.105328,4.6755 3.049954,1.60911 5.299374,1.7196 8.275291,0.40649 z M 44.183038,206.50441 c 2.1472,-0.94745 4.033802,-2.85263 4.994924,-5.04411 3.279405,-7.47747 -4.791505,-15.57871 -12.211882,-12.25777 -4.923406,2.20344 -7.217964,7.63355 -5.163662,12.21988 0.886129,1.97832 2.519987,3.8391 4.105328,4.6755 3.049955,1.60911 5.299375,1.71961 8.275292,0.4065 z M 13.491372,158.8794 c 2.147199,-0.94744 4.033802,-2.85262 4.994924,-5.04411 3.279404,-7.47747 -4.791506,-15.5787 -12.2118828,-12.25776 -4.9234055,2.20344 -7.21796384,7.63354 -5.1636612,12.21988 0.8861283,1.97832 2.5199869,3.8391 4.1053278,4.6755 3.0499544,1.60911 5.2993752,1.7196 8.2752922,0.40649 z m 210.737688,46.82033 c -3.15242,-1.03414 -5.91982,-3.51519 -7.28056,-6.52719 -1.06786,-2.36366 -1.05254,-6.65018 0.0321,-9.01092 1.27991,-2.78566 3.02439,-4.6336 5.54601,-5.87499 2.14401,-1.05549 2.45255,-1.11098 5.39525,-0.97028 3.61847,0.173 5.49885,1.03885 7.60846,3.50347 2.23958,2.61641 2.85732,4.32186 2.86156,7.89981 0.004,2.7783 -0.11638,3.40366 -0.95786,5.00501 -1.97284,3.75426 -5.38526,6.04725 -9.38509,6.30634 -1.44195,0.0934 -2.91479,-0.0343 -3.81992,-0.33125 z m -342.51983,-31.75701 c -0.10388,-0.27071 -0.008,-1.18352 0.21401,-2.02847 0.61496,-2.345 4.18547,-9.7417 5.85034,-12.11962 1.88238,-2.68858 7.06495,-7.72417 9.94399,-9.66196 3.240962,-2.1814 8.248289,-4.48115 12.072122,-5.54443 3.008637,-0.83661 4.12709,-0.94928 10.936111,-1.10171 4.171597,-0.0934 7.773737,-0.32358 8.004753,-0.51153 0.231017,-0.18795 0.469142,-0.76667 0.529167,-1.28605 0.09128,-0.78981 0.282303,-0.94432 1.167468,-0.94432 h 1.058334 v 11.99444 11.99445 h -1.058334 c -0.861172,0 -1.081059,-0.1643 -1.18033,-0.88194 -0.249072,-1.80062 -0.499633,-1.86793 -6.220171,-1.67122 -4.132054,0.1421 -5.843499,0.35522 -7.768943,0.96747 -5.708816,1.81529 -9.513026,4.52014 -12.773593,9.08222 l -1.57584,2.20486 h -9.505104 c -7.80618,0 -9.53886,-0.088 -9.69398,-0.49219 z"
         id="path3762"
         inkscape:connector-curvature="0" />
      <path
         style="fill:#5d5d5d;stroke-width:0.35277778"
         d="m 604.6565,396.46194 c -0.13603,-0.13606 -0.24737,-0.776 -0.24737,-1.42208 v -1.1747 l -352.16041,-0.0894 -352.160417,-0.0894 -3.704163,-0.98559 c -3.87169,-1.03017 -9.68994,-3.60365 -12.58941,-5.56844 -2.3963,-1.62384 -8.71361,-7.86142 -10.51197,-10.37931 -2.39778,-3.35715 -4.7213,-8.37653 -5.93903,-12.82978 l -1.12209,-4.10355 V 328.7752 297.73075 l 0.98411,-3.87857 c 1.11443,-4.3922 3.6913,-10.0976 6.03356,-13.3588 1.81047,-2.52076 8.14033,-8.793 10.44483,-10.34973 3.01861,-2.03913 8.20323,-4.38789 12.11972,-5.49052 l 3.93167,-1.10691 22.668299,-0.12249 22.6683,-0.12248 0.356969,0.93889 c 0.213582,0.56177 0.318922,4.14653 0.262252,8.92448 l -0.09471,7.98558 -21.695833,0.18966 -21.695834,0.18966 -2.722833,0.98498 c -7.01873,2.53901 -11.95727,7.58123 -14.2363,14.53516 l -1.03254,3.15054 v 28.575 28.575 l 1.00824,2.93783 c 2.37952,6.93349 7.38071,11.93054 14.38973,14.37782 l 2.946481,1.0288 350.904309,0.0894 350.90435,0.0894 0.10954,-1.32415 c 0.0871,-1.05244 0.25435,-1.32414 0.81513,-1.32414 0.6913,0 0.70555,0.23518 0.70555,11.63683 0,10.22622 -0.0662,11.64959 -0.54638,11.74206 -0.3005,0.0579 -0.65768,-0.006 -0.79375,-0.14216 z m -777.06403,-7.71451 c 0,-1.17593 0.0588,-1.23472 1.23472,-1.23472 h 1.23472 l 0.0103,-5.37986 c 0.0143,-7.46564 0.52972,-13.78117 1.40819,-17.25424 0.91133,-3.60301 3.57106,-9.28797 5.96675,-12.75346 2.11219,-3.05539 7.09917,-8.01093 10.07727,-10.01374 4.99537,-3.35945 13.55805,-6.71061 16.32977,-6.39095 l 0.95635,0.1103 0.0941,9.2653 0.0941,9.26531 -0.97601,0.39451 c -4.15076,1.67778 -5.69981,2.68198 -8.58901,5.56799 -3.38904,3.38531 -4.79773,5.85251 -5.97923,10.47213 -0.57676,2.2551 -0.69526,3.90763 -0.69526,9.69523 v 6.97677 l 1.11095,0.11055 c 1.37065,0.13639 2.04946,1.04187 1.38303,1.84486 -0.40589,0.48907 -1.90998,0.55874 -12.06218,0.55874 h -11.59847 z m 646.81805,-19.78229 c -0.58208,-0.0814 -2.24896,-0.31737 -3.70417,-0.52442 -15.59831,-2.21933 -28.87405,-11.28923 -37.23541,-25.43908 -7.19695,-12.17926 -10.7346,-30.09453 -9.66456,-48.94311 0.8744,-15.40224 4.45986,-27.14654 11.52769,-37.75968 8.97304,-13.47398 22.17155,-20.44168 40.51677,-21.38941 15.88174,-0.82048 30.1515,3.73337 39.48723,12.60138 8.6069,8.17571 13.55838,19.42533 14.96159,33.99215 0.5364,5.56824 0.82398,16.08893 0.48217,17.6389 l -0.31118,1.41111 -43.3759,0.17639 -43.3759,0.17638 -0.10657,2.2643 c -0.26698,5.67298 1.83392,17.22472 4.28865,23.58081 6.87207,17.79408 17.68457,26.5257 32.85959,26.53569 9.41638,0.006 17.34739,-2.32654 24.82434,-7.30154 3.0916,-2.05707 9.81396,-8.29696 12.04094,-11.17672 0.6791,-0.87816 1.44956,-1.60266 1.71213,-1.61001 0.45227,-0.0127 9.88113,7.36561 12.29442,9.62061 l 1.13012,1.05603 -1.13012,1.59149 c -1.88373,2.65268 -8.72766,9.25446 -12.4453,12.00494 -11.07895,8.19672 -20.67602,11.2095 -36.66264,11.5094 -3.88056,0.0728 -7.53181,0.0658 -8.11389,-0.0156 z m 36.86528,-83.54655 c 0,-3.13568 -1.17602,-9.6997 -2.45085,-13.67943 -1.20982,-3.77681 -3.92427,-9.32303 -5.84045,-11.93341 -4.49432,-6.12251 -11.52116,-9.35399 -21.8712,-10.0581 -6.37272,-0.43353 -12.51539,0.71429 -18.03284,3.36959 -2.82384,1.35901 -4.16905,2.28214 -6.44355,4.42184 -4.59377,4.32147 -8.34299,10.44627 -10.56619,17.26112 -1.12635,3.45262 -2.17548,8.92671 -2.17548,11.35105 v 1.52534 h 33.69028 33.69028 z m 67.60425,82.86059 c -6.50342,-1.64757 -11.29884,-6.68159 -13.09941,-13.7512 -1.19924,-4.70856 -1.25981,-9.57609 -1.15902,-93.13334 l 0.10001,-82.90279 9.43176,-0.0939 9.43176,-0.094 0.0932,83.34951 c 0.0858,76.7132 0.14002,83.4842 0.68086,85.04111 1.7078,4.91631 4.84114,6.34452 13.6361,6.21554 4.0597,-0.0595 5.1453,0.0254 5.354,0.41882 0.14397,0.27142 0.79456,2.68452 1.44579,5.36245 1.0196,4.19284 1.11174,4.91383 0.66358,5.19207 -1.05107,0.65258 -7.67592,2.88955 -11.10376,3.74935 -4.51485,1.13245 -12.27652,1.45665 -15.47491,0.64637 z M 82.694313,366.57485 c -0.293243,-0.35333 -0.374279,-25.09908 -0.308751,-94.28103 l 0.08885,-93.80197 50.359028,-0.0894 50.35903,-0.0894 v 8.11509 8.1151 h -39.8207 c -33.12863,0 -39.88755,0.0806 -40.21856,0.4794 -0.29029,0.34977 -0.3735,9.05378 -0.30778,32.19097 l 0.0901,31.71158 31.92639,0.17638 31.92639,0.17639 v 7.76111 7.76112 l -31.92639,0.17639 -31.92639,0.17638 v 37.57084 37.57084 l 41.89886,0.0896 41.89885,0.0896 -0.0947,8.20064 -0.0947,8.20064 -51.72598,0.0894 c -43.225447,0.0747 -51.791311,0.0106 -52.123568,-0.38972 z m 135.664177,0.24738 c -0.13258,-0.13255 -0.24102,-29.42719 -0.24102,-65.09918 v -64.85818 l 9.26041,0.0941 9.26042,0.094 v 64.91112 64.91111 l -9.0194,0.094 c -4.96069,0.0517 -9.12788,-0.0144 -9.26041,-0.14699 z m 61.66142,-0.20573 c -0.0928,-0.24577 -0.20792,-25.92623 -0.25576,-57.06769 l -0.087,-56.62084 -8.64306,-0.17639 -8.64305,-0.17639 v -7.76111 -7.76111 l 8.64305,-0.17639 8.64306,-0.17639 0.22193,-9.17222 c 0.23527,-9.72534 0.75473,-14.32879 2.27877,-20.19443 3.93213,-15.13396 13.79679,-25.2765 28.37974,-29.17915 9.25463,-2.47669 21.50794,-2.0509 31.4864,1.09413 3.05171,0.96184 6.26389,2.43548 6.66016,3.05544 0.20525,0.32117 -6.63882,14.55263 -7.52732,15.65211 -0.24564,0.304 -1.64635,-0.22635 -5.26468,-1.99343 -6.36083,-3.10642 -8.76762,-3.7257 -14.25445,-3.6677 -9.35609,0.0989 -16.16565,3.26197 -19.17414,8.90644 -2.46376,4.62255 -3.29597,11.00999 -3.36098,25.79742 l -0.0426,9.70139 15.08125,0.092 15.08125,0.092 -0.0265,1.49552 c -0.0145,0.82253 -0.37176,4.35301 -0.79375,7.84551 l -0.76729,6.35 -14.2875,0.17639 -14.2875,0.17639 -0.17639,56.97362 -0.17639,56.97361 -9.26924,0.0941 c -7.22552,0.0733 -9.30645,-0.004 -9.43804,-0.35277 z m 76.55278,0 c -0.0928,-0.24577 -0.20793,-25.92623 -0.25576,-57.06769 l -0.087,-56.62084 -8.64306,-0.17639 -8.64305,-0.17639 v -7.76111 -7.76111 l 8.64305,-0.17639 8.64306,-0.17639 0.22193,-9.17222 c 0.23527,-9.72534 0.75473,-14.32879 2.27877,-20.19443 3.93213,-15.13396 13.79678,-25.2765 28.37973,-29.17915 9.25464,-2.47669 21.50795,-2.0509 31.48641,1.09413 3.0517,0.96184 6.26389,2.43548 6.66016,3.05544 0.20525,0.32117 -6.63882,14.55263 -7.52732,15.65211 -0.24564,0.304 -1.64635,-0.22635 -5.26468,-1.99343 -6.36083,-3.10642 -8.76763,-3.7257 -14.25445,-3.6677 -9.35609,0.0989 -16.16565,3.26197 -19.17414,8.90644 -2.46377,4.62255 -3.29597,11.00999 -3.36099,25.79742 l -0.0426,9.70139 15.08125,0.092 15.08125,0.092 -0.0264,1.49552 c -0.0145,0.82253 -0.37176,4.35301 -0.79375,7.84551 l -0.7673,6.35 -14.2875,0.17639 -14.2875,0.17639 -0.17639,56.97362 -0.17638,56.97361 -9.26924,0.0941 c -7.22552,0.0733 -9.30645,-0.004 -9.43804,-0.35277 z m -471.05411,-13.04102 c -0.63473,-0.63473 -0.59916,-17.33602 0.038,-17.86485 0.31744,-0.26346 7.16866,-0.41662 21.960418,-0.49095 l 21.499032,-0.10804 2.749212,-1.00034 c 7.251029,-2.6384 12.386045,-8.47419 14.374054,-16.3357 0.689814,-2.72784 0.710177,-3.70374 0.610302,-29.2487 l -0.103322,-26.4267 -1.002802,-2.74922 c -1.311706,-3.59608 -3.212,-6.38703 -6.287643,-9.2346 -4.62697,-4.28387 -8.758167,-5.57486 -19.688412,-6.1526 -8.075221,-0.42683 -10.811718,-1.02879 -16.097306,-3.54103 -4.769063,-2.26672 -7.453553,-4.12623 -11.155003,-7.72688 -5.07259,-4.93445 -8.95464,-11.39426 -10.69318,-17.79366 -1.33842,-4.9266 -2.14119,-18.93673 -1.14229,-19.93563 0.61752,-0.61752 17.33616,-0.60099 17.8438,0.0176 0.2021,0.24627 0.43092,3.16668 0.51827,6.61458 0.14224,5.61447 0.24453,6.42261 1.12943,8.92282 1.262422,3.56688 3.158832,6.36538 6.257868,9.23461 4.62697,4.28387 8.758167,5.57486 19.688411,6.1526 8.075221,0.42683 10.811718,1.02879 16.097307,3.54102 4.769058,2.26673 7.453552,4.12624 11.154999,7.72689 5.072591,4.93445 8.954643,11.39426 10.693184,17.79365 1.313385,4.83445 1.540479,9.93398 1.542881,34.64647 0.0025,23.78504 -0.220899,29.24968 -1.396118,34.17998 -0.863215,3.62136 -3.231127,9.17559 -5.165436,12.11615 -1.908524,2.90138 -7.952027,9.01793 -10.697065,10.82637 -6.569251,4.32784 -12.463484,6.36945 -19.936696,6.90556 -7.119006,0.5107 -42.268845,0.45366 -42.791945,-0.0694 z m 81.21983,-72.71572 c -0.09043,-0.23564 -0.121817,-4.31179 -0.06976,-9.0581 l 0.09465,-8.62966 3.100391,-1.11234 c 8.527602,-3.05947 13.888914,-9.64871 15.069602,-18.52106 0.264414,-1.98694 0.357215,-7.83297 0.271455,-17.09959 -0.125483,-13.55807 -0.160429,-14.17211 -0.941878,-16.54993 -1.344115,-4.08993 -2.81959,-6.49523 -5.867001,-9.5643 -2.158256,-2.1736 -3.474008,-3.16574 -5.473058,-4.12697 -5.628054,-2.7062 -1.500248,-2.49573 -53.255344,-2.71545 l -46.390277,-0.19695 -3.70416,-0.97403 c -4.25046,-1.11769 -10.02936,-3.75736 -13.18043,-6.02053 -2.52076,-1.81047 -8.793,-8.14034 -10.34973,-10.44483 -2.06206,-3.05255 -4.39244,-8.22012 -5.46554,-12.11972 -1.03451,-3.75938 -1.09151,-4.32587 -1.30075,-12.9275 l -0.21883,-8.99584 -1.23472,-0.17639 c -0.94075,-0.13439 -1.23473,-0.34437 -1.23473,-0.88194 0,-0.6913 0.23519,-0.70556 11.64167,-0.70556 11.40648,0 11.64167,0.0143 11.64167,0.70556 0,0.53757 -0.29398,0.74755 -1.23473,0.88194 l -1.23472,0.17639 0.01,7.40834 c 0.0111,8.35981 0.24934,9.63829 2.66198,14.2875 2.65989,5.12567 6.9587,8.77787 12.68246,10.77483 l 2.99014,1.04322 47.095827,0.18182 47.095833,0.18182 3.449232,0.94684 c 4.182819,1.14821 9.222049,3.48581 12.705122,5.89366 3.100928,2.14367 8.3811536,7.47026 10.4417639,10.53346 2.2201469,3.30035 4.4902366,8.27513 5.5892417,12.24852 l 0.9757516,3.52778 -0.00427,19.57916 -0.00427,19.57917 -0.947995,3.44924 c -1.0894025,3.96372 -3.3938175,9.03569 -5.5850755,12.29263 -2.0746825,3.08367 -7.4352047,8.50542 -10.2330317,10.34991 -4.056641,2.67439 -8.663302,4.76872 -12.812085,5.8248 -5.076567,1.29224 -6.564122,1.50175 -6.774275,0.9541 z m 83.456836,-12.03314 c -7.03641,-1.96103 -11.986069,-8.38071 -11.986069,-15.54587 0,-6.28925 3.761884,-12.01777 9.624465,-14.65594 1.923564,-0.8656 2.661229,-1.37107 2.5504,-1.74762 -0.08576,-0.29137 -0.575426,-2.59352 -1.088146,-5.11589 -1.059865,-5.21409 -2.570625,-11.18747 -3.868949,-15.2974 l -0.885561,-2.80329 -2.768159,0.18973 c -4.838735,0.33166 -9.237789,-1.29033 -12.589291,-4.64183 -6.424231,-6.42423 -6.290652,-16.45849 0.305015,-22.91236 1.945591,-1.90375 2.09713,-2.15968 1.777831,-3.00245 -0.571712,-1.50898 -6.439786,-10.8468 -9.606121,-15.28614 l -2.946104,-4.13058 -1.281183,0.56236 c -4.115079,1.80625 -7.7239777,2.30481 -11.0339117,1.52432 -12.4081363,-2.92589 -16.8437523,-18.07134 -7.9091683,-27.00593 8.7909293,-8.79093 23.641424,-4.68577 26.883032,7.43134 1.03173,3.85661 0.419833,8.00371 -1.768288,11.98451 l -1.25325,2.28001 2.967838,4.15663 c 1.63231,2.28615 4.745432,7.12382 6.91805,10.75038 l 3.950215,6.59376 2.891292,-0.20405 c 4.966254,-0.35047 9.33256,1.23842 12.724596,4.63045 6.527465,6.52747 6.29702,16.49708 -0.534688,23.13193 l -2.361092,2.29306 0.666066,2.11666 c 1.228135,3.90285 3.705792,14.06803 4.518846,18.53966 l 0.805219,4.42854 2.256367,0.42803 c 12.664599,2.40245 17.503306,17.98029 8.409591,27.07401 -3.976423,3.97642 -10.170326,5.68278 -15.368842,4.23397 z m 7.286054,-6.2478 c 3.705002,-1.38622 6.825057,-5.6368 6.825057,-9.29807 0,-3.66127 -3.120055,-7.91185 -6.825057,-9.29807 -2.543683,-0.95171 -3.914535,-0.95171 -6.458218,0 -3.705003,1.38622 -6.825058,5.6368 -6.825058,9.29807 0,3.59857 3.112343,7.89389 6.724855,9.28091 2.470432,0.94852 4.058027,0.95268 6.558421,0.0171 z M 43.722966,207.1927 c 3.705003,-1.38622 6.825058,-5.6368 6.825058,-9.29807 0,-3.66126 -3.120055,-7.91185 -6.825058,-9.29807 -2.543683,-0.95171 -3.914535,-0.95171 -6.458218,0 -3.705002,1.38622 -6.825057,5.63681 -6.825057,9.29807 0,3.59858 3.112343,7.89389 6.724854,9.28091 2.470433,0.94853 4.058028,0.95268 6.558421,0.0171 z M 13.0313,159.5677 c 3.705003,-1.38622 6.825058,-5.63681 6.825058,-9.29807 0,-3.66127 -3.120055,-7.91185 -6.825058,-9.29807 -2.543683,-0.95171 -3.9145351,-0.95171 -6.4582181,0 -3.7050027,1.38622 -6.82505757,5.6368 -6.82505757,9.29807 0,3.59857 3.11234307,7.89389 6.72485457,9.28091 2.4704322,0.94852 4.0580271,0.95268 6.5584211,0.0172 z m 211.19776,46.13203 c -3.15242,-1.03414 -5.91982,-3.51519 -7.28056,-6.52719 -1.06786,-2.36366 -1.05254,-6.65018 0.0321,-9.01092 1.27991,-2.78566 3.02439,-4.6336 5.54601,-5.87499 2.14401,-1.05549 2.45255,-1.11098 5.39525,-0.97028 3.61847,0.173 5.49885,1.03885 7.60846,3.50347 2.23958,2.61641 2.85732,4.32186 2.86156,7.89981 0.004,2.7783 -0.11638,3.40366 -0.95786,5.00501 -1.97284,3.75426 -5.38526,6.04725 -9.38509,6.30634 -1.44195,0.0934 -2.91479,-0.0343 -3.81992,-0.33125 z m -342.51983,-31.75701 c -0.10388,-0.27071 -0.008,-1.18352 0.21401,-2.02847 0.61496,-2.345 4.18547,-9.7417 5.85034,-12.11962 1.88238,-2.68858 7.06495,-7.72417 9.94399,-9.66196 3.240962,-2.1814 8.248289,-4.48115 12.072122,-5.54443 3.008637,-0.83661 4.12709,-0.94928 10.936111,-1.10171 4.171597,-0.0934 7.773737,-0.32358 8.004753,-0.51153 0.231017,-0.18795 0.469142,-0.76667 0.529167,-1.28605 0.09128,-0.78981 0.282303,-0.94432 1.167468,-0.94432 h 1.058334 v 11.99444 11.99445 h -1.058334 c -0.861172,0 -1.081059,-0.1643 -1.18033,-0.88194 -0.249072,-1.80062 -0.499633,-1.86793 -6.220171,-1.67122 -4.132054,0.1421 -5.843499,0.35522 -7.768943,0.96747 -5.708816,1.81529 -9.513026,4.52014 -12.773593,9.08222 l -1.57584,2.20486 h -9.505104 c -7.80618,0 -9.53886,-0.088 -9.69398,-0.49219 z"
         id="path3760"
         inkscape:connector-curvature="0" />
      <path
         style="fill:#ac0d05;stroke-width:0.35277778"
         d="m 604.6565,396.46194 c -0.13603,-0.13606 -0.24737,-0.776 -0.24737,-1.42208 v -1.1747 l -352.16041,-0.0894 -352.160417,-0.0894 -3.704163,-0.98559 c -3.87169,-1.03017 -9.68994,-3.60365 -12.58941,-5.56844 -2.3963,-1.62384 -8.71361,-7.86142 -10.51197,-10.37931 -2.39778,-3.35715 -4.7213,-8.37653 -5.93903,-12.82978 l -1.12209,-4.10355 V 328.7752 297.73075 l 0.98411,-3.87857 c 1.11443,-4.3922 3.6913,-10.0976 6.03356,-13.3588 1.81047,-2.52076 8.14033,-8.793 10.44483,-10.34973 3.01861,-2.03913 8.20323,-4.38789 12.11972,-5.49052 l 3.93167,-1.10691 22.668299,-0.12249 22.6683,-0.12248 0.356969,0.93889 c 0.213582,0.56177 0.318922,4.14653 0.262252,8.92448 l -0.09471,7.98558 -21.695833,0.18966 -21.695834,0.18966 -2.722833,0.98498 c -7.01873,2.53901 -11.95727,7.58123 -14.2363,14.53516 l -1.03254,3.15054 v 28.575 28.575 l 1.00824,2.93783 c 2.37952,6.93349 7.38071,11.93054 14.38973,14.37782 l 2.946481,1.0288 350.904309,0.0894 350.90435,0.0894 0.10954,-1.32415 c 0.0871,-1.05244 0.25435,-1.32414 0.81513,-1.32414 0.6913,0 0.70555,0.23518 0.70555,11.63683 0,10.22622 -0.0662,11.64959 -0.54638,11.74206 -0.3005,0.0579 -0.65768,-0.006 -0.79375,-0.14216 z m -777.06403,-7.65459 c 0,-0.81814 0.10283,-0.88082 1.16289,-0.7088 0.74722,0.12126 1.30275,0.0188 1.55415,-0.28676 0.25554,-0.31055 0.44432,-3.7182 0.54425,-9.82408 0.14222,-8.69052 0.21781,-9.59143 1.07381,-12.79785 1.86899,-7.00092 5.51644,-13.21214 10.74593,-18.29923 3.62214,-3.5235 6.30299,-5.40195 10.77045,-7.54676 3.34607,-1.60644 9.80389,-3.53806 10.69073,-3.19775 0.41199,0.1581 0.49851,1.69177 0.49406,8.7576 -0.003,4.71126 -0.12204,8.73283 -0.26459,8.93682 -0.14255,0.20399 -1.01692,0.65508 -1.94304,1.00243 -4.33294,1.62511 -9.60518,6.5493 -11.71892,10.94528 -2.06202,4.28842 -2.36842,5.97235 -2.55744,14.05532 -0.18692,7.99284 -0.10868,8.37469 1.71592,8.37469 0.66715,0 1.01513,0.18139 1.01513,0.52917 0,0.45914 -1.4667,0.52917 -11.08364,0.52917 -6.09601,0 -11.33476,0.0964 -11.64167,0.21413 -0.41873,0.16068 -0.55802,-0.01 -0.55802,-0.68338 z m 646.28888,-20.3619 c -13.88992,-1.5207 -24.98594,-7.10632 -33.7464,-16.98758 -7.8202,-8.82072 -12.72667,-20.26055 -14.97986,-34.92683 -1.04779,-6.82011 -1.30563,-20.85869 -0.51054,-27.79612 2.62375,-22.89246 12.99965,-40.2894 28.58756,-47.93179 7.92878,-3.8873 15.28519,-5.40559 26.1173,-5.39037 16.39252,0.023 28.26971,4.54361 37.42856,14.24571 5.47275,5.79734 8.97082,12.33318 11.1905,20.90839 1.65456,6.3921 2.11783,10.83753 2.15074,20.6375 l 0.0303,8.99584 -43.39167,0.17639 -43.39166,0.17639 -0.11335,2.64583 c -0.3538,8.26038 2.23319,19.98562 6.28594,28.49008 5.71676,11.99631 13.95303,19.32046 24.06321,21.3983 5.74594,1.18091 14.79879,0.58293 21.38504,-1.41258 7.80193,-2.36382 16.86539,-8.93997 23.25395,-16.87229 0.8273,-1.02719 1.2301,-1.28903 1.57159,-1.02157 5.20657,4.07807 12.12405,9.81855 12.19845,10.12288 0.15635,0.63964 -5.2857,6.65405 -8.8344,9.76352 -11.85026,10.38351 -22.98185,14.47845 -40.6521,14.95452 -3.10444,0.0836 -6.99382,0.004 -8.64305,-0.17622 z m 37.83334,-83.06192 c -0.39374,-10.76966 -4.81341,-22.51971 -10.67809,-28.3884 -4.15011,-4.15294 -9.71557,-6.5983 -16.92469,-7.43639 -11.21784,-1.30412 -21.21651,1.44969 -27.94843,7.69747 -3.78986,3.51729 -8.09675,10.46149 -10.28291,16.57961 -1.46304,4.09441 -2.65592,10.98266 -2.38188,13.75433 0.0349,0.35245 7.00376,0.42438 34.17503,0.35277 l 34.13125,-0.0899 z m 67.77492,82.55217 c -6.67586,-1.45181 -11.13705,-6.02158 -13.43353,-13.7605 -0.59369,-2.00074 -0.63323,-6.86479 -0.72153,-88.81181 l -0.0935,-86.69515 h 9.0007 9.00066 v 82.35626 c 0,59.63403 0.10944,82.87204 0.39667,84.2257 0.63835,3.00868 1.88817,5.11931 3.71888,6.28031 2.35038,1.49055 4.84857,1.9328 10.60841,1.87795 l 5.02253,-0.0478 0.33796,1.28923 c 0.73438,2.8017 2.14055,8.48246 2.14055,8.64766 0,0.27764 -5.16639,2.19146 -8.64305,3.20169 -6.50406,1.88994 -12.83674,2.41471 -17.3348,1.43649 z M 83.23994,366.46481 c -0.129998,-0.13 -0.236361,-42.43741 -0.236361,-94.01647 v -93.7801 h 49.918051 49.91806 v 7.76112 7.76111 H 143.019 c -33.12765,0 -39.88756,0.0806 -40.21854,0.47938 -0.29032,0.34981 -0.37351,9.14569 -0.30778,32.54375 l 0.0901,32.06437 31.92638,0.17639 31.92639,0.17639 0.0954,7.32014 0.0953,7.32014 h -31.51334 c -24.65578,0 -31.64379,0.096 -32.1128,0.44097 -0.55861,0.41092 -0.59326,3.01352 -0.5084,38.1882 l 0.0911,37.74723 41.8991,0.0896 41.89909,0.0896 -0.0949,7.84786 -0.0949,7.84787 -51.35739,0.0894 c -28.24656,0.0491 -51.463751,-0.017 -51.59375,-0.14699 z m 135.39565,-0.20079 c -0.0935,-0.24593 -0.12926,-29.33965 -0.0795,-64.65271 l 0.0905,-64.20556 h 8.81945 8.81944 v 64.55834 64.55834 l -8.73996,0.0944 c -6.80134,0.0734 -8.77764,-0.005 -8.90997,-0.35278 z m 61.73717,-1e-4 c -0.0929,-0.24588 -0.208,-25.92643 -0.25583,-57.06789 l -0.087,-56.62084 -8.64306,-0.17638 -8.64305,-0.17639 v -7.40834 -7.40833 l 8.64305,-0.17639 8.64306,-0.17639 0.23103,-8.81944 c 0.12707,-4.8507 0.49086,-10.69284 0.80846,-12.98254 1.54954,-11.17196 5.15447,-19.52744 11.12217,-25.77876 5.93972,-6.22204 12.19771,-9.62689 21.24558,-11.55935 4.8465,-1.03512 15.29126,-1.1367 20.39137,-0.19831 6.19121,1.13915 14.46389,3.93581 14.46389,4.88966 0,0.3806 -7.36064,15.11402 -7.55079,15.11402 -0.0766,0 -2.22927,-1.0173 -4.78374,-2.26066 -6.20359,-3.01953 -8.45618,-3.56856 -14.47658,-3.52844 -7.5896,0.0506 -12.87357,1.80616 -16.71021,5.55192 -4.71769,4.60595 -5.96646,10.62356 -6.01563,28.98857 l -0.0282,10.58333 14.91742,0.092 c 11.47682,0.0708 14.95341,0.19286 15.07353,0.52917 0.0859,0.24043 -0.19974,3.61213 -0.63472,7.49269 l -0.79082,7.05556 -14.2827,0.17639 -14.28271,0.17638 -0.17638,56.97362 -0.17639,56.97362 -8.91639,0.0943 c -6.94306,0.0734 -8.95375,-0.005 -9.08526,-0.35278 z m 76.55278,0 c -0.0929,-0.24588 -0.208,-25.92643 -0.25584,-57.06789 l -0.087,-56.62084 -8.64305,-0.17638 -8.64306,-0.17639 v -7.40834 -7.40833 l 8.64306,-0.17639 8.64305,-0.17639 0.23104,-8.81944 c 0.12707,-4.8507 0.49085,-10.69284 0.80846,-12.98254 1.54954,-11.17196 5.15447,-19.52744 11.12217,-25.77876 5.93971,-6.22204 12.19771,-9.62689 21.24558,-11.55935 4.84649,-1.03512 15.29126,-1.1367 20.39136,-0.19831 6.19122,1.13915 14.46389,3.93581 14.46389,4.88966 0,0.3806 -7.36063,15.11402 -7.55078,15.11402 -0.0766,0 -2.22927,-1.0173 -4.78374,-2.26066 -6.2036,-3.01953 -8.45619,-3.56856 -14.47659,-3.52844 -7.58959,0.0506 -12.87356,1.80616 -16.7102,5.55192 -4.7177,4.60595 -5.96646,10.62356 -6.01564,28.98857 l -0.0282,10.58333 14.91742,0.092 c 11.47682,0.0708 14.95341,0.19286 15.07353,0.52917 0.0859,0.24043 -0.19975,3.61213 -0.63472,7.49269 l -0.79082,7.05556 -14.28271,0.17639 -14.2827,0.17638 -0.17639,56.97362 -0.17639,56.97362 -8.91638,0.0943 c -6.94306,0.0734 -8.95375,-0.005 -9.08527,-0.35278 z m -471.31269,-13.40276 c -0.0982,-0.25581 -0.13572,-4.11293 -0.0835,-8.57137 l 0.095,-8.10625 21.343059,-0.18556 c 21.139503,-0.18379 21.366607,-0.19337 23.8125,-1.0046 4.079826,-1.35318 6.500284,-2.83932 9.550365,-5.86387 2.257506,-2.23861 3.150683,-3.44513 4.310274,-5.82236 2.842514,-5.82734 2.719917,-4.30083 2.719917,-33.86667 v -26.28195 l -0.825811,-2.64583 c -1.325111,-4.24557 -2.759865,-6.59487 -6.054562,-9.91393 -2.331452,-2.34868 -3.608928,-3.32155 -5.650777,-4.30336 -4.156908,-1.99881 -6.122635,-2.38167 -13.927183,-2.71258 -8.266914,-0.35051 -11.926676,-1.12403 -17.25082,-3.6461 -4.483402,-2.12381 -7.231752,-4.0414 -10.883432,-7.59364 -5.20935,-5.06749 -8.82514,-11.20121 -10.74097,-18.22068 -0.90986,-3.33363 -0.96356,-3.95489 -0.97576,-11.28889 l -0.0129,-7.76111 h 8.46667 8.46667 l 0.22463,5.99722 c 0.34368,9.1754 1.79943,12.95661 7.008517,18.20421 2.331452,2.34868 3.608927,3.32154 5.650777,4.30335 4.156907,1.99882 6.122635,2.38168 13.927183,2.71259 8.266913,0.35051 11.926676,1.12403 17.250819,3.6461 4.4834,2.12381 7.231751,4.0414 10.883431,7.59363 5.198156,5.0566 8.801463,11.16182 10.753887,18.22068 l 0.975752,3.52778 v 30.16251 30.1625 l -0.984109,3.87857 c -1.113751,4.38952 -3.689819,10.09451 -6.032112,13.3588 -1.992387,2.77664 -7.165739,7.7924 -10.01582,9.71071 -3.195888,2.15105 -8.210296,4.46614 -12.072126,5.57353 l -3.351389,0.96102 -23.199876,0.12033 c -18.961354,0.0983 -23.232484,0.0354 -23.378354,-0.34478 z m 81.12556,-72.0014 c -0.09043,-0.23564 -0.121817,-4.31179 -0.06976,-9.0581 l 0.09465,-8.62966 3.100391,-1.11234 c 8.527602,-3.05947 13.888914,-9.64871 15.069602,-18.52106 0.264414,-1.98694 0.357215,-7.83297 0.271455,-17.09959 -0.125483,-13.55807 -0.160429,-14.17211 -0.941878,-16.54993 -1.344115,-4.08993 -2.81959,-6.49523 -5.867001,-9.5643 -2.158256,-2.1736 -3.474008,-3.16574 -5.473058,-4.12697 -5.628054,-2.7062 -1.500248,-2.49573 -53.255344,-2.71545 l -46.390277,-0.19695 -3.70416,-0.97403 c -4.25046,-1.11769 -10.02936,-3.75736 -13.18043,-6.02053 -2.52076,-1.81047 -8.793,-8.14034 -10.34973,-10.44483 -2.06206,-3.05255 -4.39244,-8.22012 -5.46554,-12.11972 -1.03451,-3.75938 -1.09151,-4.32587 -1.30075,-12.9275 l -0.21883,-8.99584 -1.23472,-0.17639 c -0.94075,-0.13439 -1.23473,-0.34437 -1.23473,-0.88194 0,-0.6913 0.23519,-0.70556 11.64167,-0.70556 11.40648,0 11.64167,0.0143 11.64167,0.70556 0,0.53757 -0.29398,0.74755 -1.23473,0.88194 l -1.23472,0.17639 0.01,7.40834 c 0.0111,8.35981 0.24934,9.63829 2.66198,14.2875 2.65989,5.12567 6.9587,8.77787 12.68246,10.77483 l 2.99014,1.04322 47.095827,0.18182 47.095833,0.18182 3.449232,0.94684 c 4.182819,1.14821 9.222049,3.48581 12.705122,5.89366 3.100928,2.14367 8.3811536,7.47026 10.4417639,10.53346 2.2201469,3.30035 4.4902366,8.27513 5.5892417,12.24852 l 0.9757516,3.52778 -0.00427,19.57916 -0.00427,19.57917 -0.947995,3.44924 c -1.0894025,3.96372 -3.3938175,9.03569 -5.5850755,12.29263 -2.0746825,3.08367 -7.4352047,8.50542 -10.2330317,10.34991 -4.056641,2.67439 -8.663302,4.76872 -12.812085,5.8248 -5.076567,1.29224 -6.564122,1.50175 -6.774275,0.9541 z m 83.456836,-12.03314 c -7.03641,-1.96103 -11.986069,-8.38071 -11.986069,-15.54587 0,-6.35408 3.617644,-11.83312 9.692781,-14.68002 1.649363,-0.77292 2.998844,-1.46655 2.998844,-1.54139 0,-1.59939 -3.67048,-16.85832 -5.041741,-20.95956 l -0.779093,-2.33014 -3.07051,0.12728 c -5.24238,0.21733 -9.462435,-1.32532 -12.825522,-4.68841 -6.477296,-6.4773 -6.300844,-16.35276 0.411536,-23.03218 1.240431,-1.23435 2.25533,-2.44445 2.25533,-2.68914 0,-0.95841 -8.347516,-14.03854 -12.181417,-19.08766 -0.514618,-0.67773 -0.54581,-0.67615 -2.372113,0.12042 -7.120078,3.10553 -13.8079441,2.06061 -18.806978,-2.93842 -6.287449,-6.28745 -6.287449,-16.33635 0,-22.6238 8.7909293,-8.79093 23.641424,-4.68577 26.883032,7.43134 1.03397,3.86499 0.420112,8.0032 -1.781281,12.00814 -0.696433,1.26701 -1.266243,2.45676 -1.266243,2.64389 0,0.18714 1.468437,2.45115 3.263194,5.03113 1.794757,2.57999 4.77132,7.25722 6.614584,10.39384 l 3.351389,5.70295 3.208764,-0.21113 c 2.088868,-0.13745 3.87416,-0.0542 5.115278,0.2385 7.38723,1.74222 12.65786,8.27884 12.65786,15.69824 0,4.57193 -1.756946,8.42186 -5.47376,11.99445 l -2.569136,2.46944 1.229844,4.23334 c 1.393814,4.79774 3.357911,13.16784 4.014907,17.10972 0.242542,1.45521 0.616042,2.81606 0.830002,3.02412 0.213959,0.20806 1.409735,0.57736 2.657277,0.82068 12.637082,2.46466 17.41654,17.96781 8.338083,27.04627 -3.976423,3.97642 -10.170326,5.68278 -15.368842,4.23397 z m 7.286054,-6.2478 c 3.705002,-1.38622 6.825057,-5.6368 6.825057,-9.29807 0,-3.66127 -3.120055,-7.91185 -6.825057,-9.29807 -2.543683,-0.95171 -3.914535,-0.95171 -6.458218,0 -3.705003,1.38622 -6.825058,5.6368 -6.825058,9.29807 0,3.59857 3.112343,7.89389 6.724855,9.28091 2.470432,0.94852 4.058027,0.95268 6.558421,0.0171 z M 43.722966,207.1927 c 3.705003,-1.38622 6.825058,-5.6368 6.825058,-9.29807 0,-3.66126 -3.120055,-7.91185 -6.825058,-9.29807 -2.543683,-0.95171 -3.914535,-0.95171 -6.458218,0 -3.705002,1.38622 -6.825057,5.63681 -6.825057,9.29807 0,3.59858 3.112343,7.89389 6.724854,9.28091 2.470433,0.94853 4.058028,0.95268 6.558421,0.0171 z M 13.0313,159.5677 c 3.705003,-1.38622 6.825058,-5.63681 6.825058,-9.29807 0,-3.66127 -3.120055,-7.91185 -6.825058,-9.29807 -2.543683,-0.95171 -3.9145351,-0.95171 -6.4582181,0 -3.7050027,1.38622 -6.82505757,5.6368 -6.82505757,9.29807 0,3.59857 3.11234307,7.89389 6.72485457,9.28091 2.4704322,0.94852 4.0580271,0.95268 6.5584211,0.0172 z m 212.26297,45.89705 c -2.11296,-0.41804 -3.96526,-1.47153 -5.66063,-3.21948 -3.29685,-3.39913 -4.02668,-8.13501 -1.91478,-12.42489 2.15946,-4.3865 5.77734,-6.47911 10.6027,-6.1327 2.85391,0.20488 4.69015,1.09955 6.67403,3.2518 2.16278,2.34633 2.97963,4.40287 3.02024,7.60377 0.0684,5.3877 -2.97357,9.41476 -8.12529,10.75661 -2.23608,0.58243 -2.44746,0.59001 -4.59627,0.16489 z m -343.15259,-31.66252 c -0.27595,-0.4465 1.41886,-5.13306 2.99757,-8.289 2.03951,-4.07709 3.96752,-6.64155 7.76931,-10.33402 5.19772,-5.04825 10.169383,-7.98156 16.687132,-9.8455 3.322151,-0.95007 9.831532,-1.57508 16.509972,-1.58524 l 3.439583,-0.005 v -1.01514 c 0,-1.23595 0.736963,-1.98734 1.348948,-1.37535 0.590427,0.59042 0.590427,22.18223 0,22.77266 -0.611985,0.61198 -1.348948,-0.13941 -1.348948,-1.37536 v -1.01514 l -4.497917,-0.0513 c -5.986441,-0.0683 -6.535857,-0.0227 -9.597294,0.79633 -5.349187,1.43103 -9.94899,4.67166 -13.303412,9.37246 l -1.591088,2.22971 h -9.120436 c -5.01624,0 -9.19828,-0.12595 -9.29342,-0.2799 z"
         id="path3758"
         inkscape:connector-curvature="0" />
      <path
         style="fill:#262626;stroke-width:0.35277778"
         d="m -172.40753,388.80735 c 0,-0.81814 0.10283,-0.88082 1.16289,-0.7088 0.74722,0.12126 1.30275,0.0188 1.55415,-0.28676 0.25554,-0.31055 0.44432,-3.7182 0.54425,-9.82408 0.14222,-8.69052 0.21781,-9.59143 1.07381,-12.79785 1.86899,-7.00092 5.51644,-13.21214 10.74593,-18.29923 3.62214,-3.5235 6.30299,-5.40195 10.77045,-7.54676 3.34607,-1.60644 9.80389,-3.53806 10.69073,-3.19775 0.41199,0.1581 0.49851,1.69177 0.49406,8.7576 -0.003,4.71126 -0.12204,8.73283 -0.26459,8.93682 -0.14255,0.20399 -1.01692,0.65508 -1.94304,1.00243 -4.33294,1.62511 -9.60518,6.5493 -11.71892,10.94528 -2.06202,4.28842 -2.36842,5.97235 -2.55744,14.05532 -0.18692,7.99284 -0.10868,8.37469 1.71592,8.37469 0.66715,0 1.01513,0.18139 1.01513,0.52917 0,0.45914 -1.4667,0.52917 -11.08364,0.52917 -6.09601,0 -11.33476,0.0964 -11.64167,0.21413 -0.41873,0.16068 -0.55802,-0.01 -0.55802,-0.68338 z m 646.28888,-20.3619 c -13.88992,-1.5207 -24.98594,-7.10632 -33.7464,-16.98758 -7.8202,-8.82072 -12.72667,-20.26055 -14.97986,-34.92683 -1.04779,-6.82011 -1.30563,-20.85869 -0.51054,-27.79612 2.62375,-22.89246 12.99965,-40.2894 28.58756,-47.93179 7.92878,-3.8873 15.28519,-5.40559 26.1173,-5.39037 16.39252,0.023 28.26971,4.54361 37.42856,14.24571 5.47275,5.79734 8.97082,12.33318 11.1905,20.90839 1.65456,6.3921 2.11783,10.83753 2.15074,20.6375 l 0.0303,8.99584 -43.39167,0.17639 -43.39166,0.17639 -0.11335,2.64583 c -0.3538,8.26038 2.23319,19.98562 6.28594,28.49008 5.71676,11.99631 13.95303,19.32046 24.06321,21.3983 5.74594,1.18091 14.79879,0.58293 21.38504,-1.41258 7.80193,-2.36382 16.86539,-8.93997 23.25395,-16.87229 0.8273,-1.02719 1.2301,-1.28903 1.57159,-1.02157 5.20657,4.07807 12.12405,9.81855 12.19845,10.12288 0.15635,0.63964 -5.2857,6.65405 -8.8344,9.76352 -11.85026,10.38351 -22.98185,14.47845 -40.6521,14.95452 -3.10444,0.0836 -6.99382,0.004 -8.64305,-0.17622 z m 37.83334,-83.06192 c -0.39374,-10.76966 -4.81341,-22.51971 -10.67809,-28.3884 -4.15011,-4.15294 -9.71557,-6.5983 -16.92469,-7.43639 -11.21784,-1.30412 -21.21651,1.44969 -27.94843,7.69747 -3.78986,3.51729 -8.09675,10.46149 -10.28291,16.57961 -1.46304,4.09441 -2.65592,10.98266 -2.38188,13.75433 0.0349,0.35245 7.00376,0.42438 34.17503,0.35277 l 34.13125,-0.0899 z m 67.77492,82.55217 c -6.67586,-1.45181 -11.13705,-6.02158 -13.43353,-13.7605 -0.59369,-2.00074 -0.63323,-6.86479 -0.72153,-88.81181 l -0.0935,-86.69515 h 9.0007 9.00066 v 82.35626 c 0,59.63403 0.10944,82.87204 0.39667,84.2257 0.63835,3.00868 1.88817,5.11931 3.71888,6.28031 2.35038,1.49055 4.84857,1.9328 10.60841,1.87795 l 5.02253,-0.0478 0.33796,1.28923 c 0.73438,2.8017 2.14055,8.48246 2.14055,8.64766 0,0.27764 -5.16639,2.19146 -8.64305,3.20169 -6.50406,1.88994 -12.83674,2.41471 -17.3348,1.43649 z M 83.23994,366.46481 c -0.129998,-0.13 -0.236361,-42.43741 -0.236361,-94.01647 v -93.7801 h 49.918051 49.91806 v 7.76112 7.76111 H 143.019 c -33.12765,0 -39.88756,0.0806 -40.21854,0.47938 -0.29032,0.34981 -0.37351,9.14569 -0.30778,32.54375 l 0.0901,32.06437 31.92638,0.17639 31.92639,0.17639 0.0954,7.32014 0.0953,7.32014 h -31.51334 c -24.65578,0 -31.64379,0.096 -32.1128,0.44097 -0.55861,0.41092 -0.59326,3.01352 -0.5084,38.1882 l 0.0911,37.74723 41.8991,0.0896 41.89909,0.0896 -0.0949,7.84786 -0.0949,7.84787 -51.35739,0.0894 c -28.24656,0.0491 -51.463751,-0.017 -51.59375,-0.14699 z m 135.39565,-0.20079 c -0.0935,-0.24593 -0.12926,-29.33965 -0.0795,-64.65271 l 0.0905,-64.20556 h 8.81945 8.81944 v 64.55834 64.55834 l -8.73996,0.0944 c -6.80134,0.0734 -8.77764,-0.005 -8.90997,-0.35278 z m 61.73717,-1e-4 c -0.0929,-0.24588 -0.208,-25.92643 -0.25583,-57.06789 l -0.087,-56.62084 -8.64306,-0.17638 -8.64305,-0.17639 v -7.40834 -7.40833 l 8.64305,-0.17639 8.64306,-0.17639 0.23103,-8.81944 c 0.12707,-4.8507 0.49086,-10.69284 0.80846,-12.98254 1.54954,-11.17196 5.15447,-19.52744 11.12217,-25.77876 5.93972,-6.22204 12.19771,-9.62689 21.24558,-11.55935 4.8465,-1.03512 15.29126,-1.1367 20.39137,-0.19831 6.19121,1.13915 14.46389,3.93581 14.46389,4.88966 0,0.3806 -7.36064,15.11402 -7.55079,15.11402 -0.0766,0 -2.22927,-1.0173 -4.78374,-2.26066 -6.20359,-3.01953 -8.45618,-3.56856 -14.47658,-3.52844 -7.5896,0.0506 -12.87357,1.80616 -16.71021,5.55192 -4.71769,4.60595 -5.96646,10.62356 -6.01563,28.98857 l -0.0282,10.58333 14.91742,0.092 c 11.47682,0.0708 14.95341,0.19286 15.07353,0.52917 0.0859,0.24043 -0.19974,3.61213 -0.63472,7.49269 l -0.79082,7.05556 -14.2827,0.17639 -14.28271,0.17638 -0.17638,56.97362 -0.17639,56.97362 -8.91639,0.0943 c -6.94306,0.0734 -8.95375,-0.005 -9.08526,-0.35278 z m 76.55278,0 c -0.0929,-0.24588 -0.208,-25.92643 -0.25584,-57.06789 l -0.087,-56.62084 -8.64305,-0.17638 -8.64306,-0.17639 v -7.40834 -7.40833 l 8.64306,-0.17639 8.64305,-0.17639 0.23104,-8.81944 c 0.12707,-4.8507 0.49085,-10.69284 0.80846,-12.98254 1.54954,-11.17196 5.15447,-19.52744 11.12217,-25.77876 5.93971,-6.22204 12.19771,-9.62689 21.24558,-11.55935 4.84649,-1.03512 15.29126,-1.1367 20.39136,-0.19831 6.19122,1.13915 14.46389,3.93581 14.46389,4.88966 0,0.3806 -7.36063,15.11402 -7.55078,15.11402 -0.0766,0 -2.22927,-1.0173 -4.78374,-2.26066 -6.2036,-3.01953 -8.45619,-3.56856 -14.47659,-3.52844 -7.58959,0.0506 -12.87356,1.80616 -16.7102,5.55192 -4.7177,4.60595 -5.96646,10.62356 -6.01564,28.98857 l -0.0282,10.58333 14.91742,0.092 c 11.47682,0.0708 14.95341,0.19286 15.07353,0.52917 0.0859,0.24043 -0.19975,3.61213 -0.63472,7.49269 l -0.79082,7.05556 -14.28271,0.17639 -14.2827,0.17638 -0.17639,56.97362 -0.17639,56.97362 -8.91638,0.0943 c -6.94306,0.0734 -8.95375,-0.005 -9.08527,-0.35278 z m -471.31269,-13.40276 c -0.0982,-0.25581 -0.13572,-4.11293 -0.0835,-8.57137 l 0.095,-8.10625 21.343059,-0.18556 c 21.139503,-0.18379 21.366607,-0.19337 23.8125,-1.0046 4.079826,-1.35318 6.500284,-2.83932 9.550365,-5.86387 2.257506,-2.23861 3.150683,-3.44513 4.310274,-5.82236 2.842514,-5.82734 2.719917,-4.30083 2.719917,-33.86667 v -26.28195 l -0.825811,-2.64583 c -1.325111,-4.24557 -2.759865,-6.59487 -6.054562,-9.91393 -2.331452,-2.34868 -3.608928,-3.32155 -5.650777,-4.30336 -4.156908,-1.99881 -6.122635,-2.38167 -13.927183,-2.71258 -8.266914,-0.35051 -11.926676,-1.12403 -17.25082,-3.6461 -4.483402,-2.12381 -7.231752,-4.0414 -10.883432,-7.59364 -5.20935,-5.06749 -8.82514,-11.20121 -10.74097,-18.22068 -0.90986,-3.33363 -0.96356,-3.95489 -0.97576,-11.28889 l -0.0129,-7.76111 h 8.46667 8.46667 l 0.22463,5.99722 c 0.34368,9.1754 1.79943,12.95661 7.008517,18.20421 2.331452,2.34868 3.608927,3.32154 5.650777,4.30335 4.156907,1.99882 6.122635,2.38168 13.927183,2.71259 8.266913,0.35051 11.926676,1.12403 17.250819,3.6461 4.4834,2.12381 7.231751,4.0414 10.883431,7.59363 5.198156,5.0566 8.801463,11.16182 10.753887,18.22068 l 0.975752,3.52778 v 30.16251 30.1625 l -0.984109,3.87857 c -1.113751,4.38952 -3.689819,10.09451 -6.032112,13.3588 -1.992387,2.77664 -7.165739,7.7924 -10.01582,9.71071 -3.195888,2.15105 -8.210296,4.46614 -12.072126,5.57353 l -3.351389,0.96102 -23.199876,0.12033 c -18.961354,0.0983 -23.232484,0.0354 -23.378354,-0.34478 z M 50.534223,235.11269 c -1.098962,-5.61928 -2.363748,-10.97225 -3.743346,-15.843 -0.846843,-2.98984 -1.498857,-5.47347 -1.448922,-5.51918 0.452417,-0.41416 2.921332,-1.17089 3.129224,-0.95911 0.669794,0.68231 3.921894,13.50957 5.226547,20.61509 l 0.625944,3.40907 -1.704992,0.1187 -1.704993,0.11871 z M 225.29427,205.46475 c -2.11296,-0.41804 -3.96526,-1.47153 -5.66063,-3.21948 -3.29685,-3.39913 -4.02668,-8.13501 -1.91478,-12.42489 2.15946,-4.3865 5.77734,-6.47911 10.6027,-6.1327 2.85391,0.20488 4.69015,1.09955 6.67403,3.2518 2.16278,2.34633 2.97963,4.40287 3.02024,7.60377 0.0684,5.3877 -2.97357,9.41476 -8.12529,10.75661 -2.23608,0.58243 -2.44746,0.59001 -4.59627,0.16489 z M 28.742145,178.02932 c -1.806776,-3.04408 -4.624588,-7.41338 -6.261805,-9.70956 -1.637221,-2.29618 -2.97676,-4.29368 -2.97676,-4.43888 0,-0.1452 0.62956,-0.76993 1.399021,-1.38828 l 1.399025,-1.12429 2.746114,3.89431 c 2.626367,3.72449 10.323477,16.13435 10.328455,16.65231 0.0018,0.19172 -3.113525,1.76619 -3.305655,1.67064 -0.02385,-0.0118 -1.521622,-2.51216 -3.328395,-5.55625 z m -146.600465,-4.22709 c -0.27595,-0.4465 1.41886,-5.13306 2.99757,-8.289 2.03951,-4.07709 3.96752,-6.64155 7.76931,-10.33402 5.19772,-5.04825 10.169383,-7.98156 16.687132,-9.8455 3.322151,-0.95007 9.831532,-1.57508 16.509972,-1.58524 l 3.439583,-0.005 v -1.01514 c 0,-1.23595 0.736963,-1.98734 1.348948,-1.37535 0.590427,0.59042 0.590427,22.18223 0,22.77266 -0.611985,0.61198 -1.348948,-0.13941 -1.348948,-1.37536 v -1.01514 l -4.497917,-0.0513 c -5.986441,-0.0683 -6.535857,-0.0227 -9.597294,0.79633 -5.349187,1.43103 -9.94899,4.67166 -13.303412,9.37246 l -1.591088,2.22971 h -9.120436 c -5.01624,0 -9.19828,-0.12595 -9.29342,-0.2799 z"
         id="path3756"
         inkscape:connector-curvature="0" />
    </g>
  </g>
</svg>
