<svg id="Layer_1" data-name="Layer 1" xmlns="http://www.w3.org/2000/svg" xmlns:xlink="http://www.w3.org/1999/xlink" viewBox="0 0 2209 978"><defs><style>.cls-1{fill:#282828;}.cls-2{fill:#ad0f07;}.cls-3,.cls-4{opacity:0.63;}.cls-3{fill:url(#linear-gradient);}.cls-4{fill:url(#linear-gradient-2);}.cls-5{fill:#272727;}.cls-6{fill:#fefefe;}.cls-7{fill:#fff;}</style><linearGradient id="linear-gradient" x1="407.48253" y1="334.02283" x2="407.48253" y2="191.99473" gradientUnits="userSpaceOnUse"><stop offset="0" stop-color="#939191" stop-opacity="0"/><stop offset="0.02842" stop-color="#999898" stop-opacity="0.16474"/><stop offset="0.06862" stop-color="#a1a0a0" stop-opacity="0.36004"/><stop offset="0.1139" stop-color="#a8a7a7" stop-opacity="0.53441"/><stop offset="0.16392" stop-color="#aeadad" stop-opacity="0.68058"/><stop offset="0.22042" stop-color="#b2b2b2" stop-opacity="0.79895"/><stop offset="0.2864" stop-color="#b6b5b5" stop-opacity="0.88983"/><stop offset="0.36798" stop-color="#b8b8b8" stop-opacity="0.95342"/><stop offset="0.48238" stop-color="#bababa" stop-opacity="0.98993"/><stop offset="0.8" stop-color="#bababa"/><stop offset="0.8794" stop-color="#bababa" stop-opacity="0.98993"/><stop offset="0.90801" stop-color="#bababa" stop-opacity="0.95342"/><stop offset="0.9284" stop-color="#bababa" stop-opacity="0.88983"/><stop offset="0.9449" stop-color="#bababa" stop-opacity="0.79895"/><stop offset="0.95902" stop-color="#bababa" stop-opacity="0.68058"/><stop offset="0.97153" stop-color="#bababa" stop-opacity="0.53441"/><stop offset="0.98285" stop-color="#bababa" stop-opacity="0.36004"/><stop offset="0.9929" stop-color="#bababa" stop-opacity="0.16474"/><stop offset="1" stop-color="#bababa" stop-opacity="0"/></linearGradient><linearGradient id="linear-gradient-2" x1="288.11026" y1="697.9787" x2="288.11026" y2="0.11914" xlink:href="#linear-gradient"/></defs><title>eiffel</title><path class="cls-1" d="M-.2293,741.42614c7.32649.80383,7.30434.80371,7.33948-6.1345.0632-12.481-.37381-24.99278.35321-37.43594A105.36107,105.36107,0,0,1,29.50212,638.876c17.99228-23.42664,41.429-38.63791,70.64729-44.48629,3.86249-.77316,5.67651-.07866,5.589,4.55958-.27953,14.8088-.21645,29.62754-.02,44.439.04588,3.45932-1.20915,4.71977-4.34356,5.94845q-36.21943,14.19708-41.26164,52.92442c-1.53393,11.92519-.21171,23.87576-.74488,35.80083-.1241,2.77573.80192,3.98155,3.67737,3.74574,2.16-.17715,4.35914-.38454,4.396,3.05264.04112,3.83465-2.50652,3.20949-4.7608,3.21144q-28.47618.0246-56.9524.02512c-1.98606.00262-3.97184.21026-5.95776.32283Z"/><path class="cls-2" d="M1209.80922,707.80686h350.78007q197.89286,0,395.78571.00006,118.68307.00009,237.366.05988c4.06827.00409,7.3449.06824,6.49591-5.50378-.36141-2.37029,1.515-2.49694,3.31616-2.54274,2.18117-.05531,2.93011.99135,2.90009,3.04917-.06076,4.16175-.00805,8.32508-.00757,12.4878q.00221,23.97727-.01171,47.95451c-.00317,2.2332.67744,4.81819-3.18,4.78806-3.43306-.02689-3.27712-2.22319-3.05993-4.38456.34335-3.415-1.55742-3.7172-4.2469-3.69372-9.99437.08726-19.9902.02847-29.9853.02835q-89.20695-.00109-178.41427-.00024H533.89457q-70.4499,0-140.8998.00024-80.45091.00266-160.90183.03818c-15.6212.02292-31.28365-.14343-46.09219-5.64209-39.98692-14.84795-65.555-42.8199-75.67856-84.52393-2.29478-9.45338-2.17981-19.07549-2.19981-28.6662-.09271-44.45763.13257-88.91667-.1262-133.373-.12483-21.4451,3.655-41.81736,14.4219-60.52344A117.61778,117.61778,0,0,1,166.5459,403.3403c18.75989-10.76118,39.09355-14.53958,60.56759-14.32432,33.64709.33725,67.30169.24807,100.94895-.08342,5.51423-.05433,7.355,2.15341,7.3992,6.74625.13772,14.3184.0108,28.63915.08562,42.9585.01736,3.32324-2.26435,2.6754-4.13154,2.68125q-18.74081.0585-37.48189.02241c-23.98569-.04464-47.994-.78883-71.95052.0165-23.05578.77505-46.093,14.29544-56.08879,38.58061a77.1616,77.1616,0,0,0-5.581,29.91019c.00342,45.4541-.63827,90.9168.081,136.35864a61.94106,61.94106,0,0,0,38.56454,56.05756,76.89161,76.89161,0,0,0,29.92411,5.5766q58.72161-.09714,117.44349-.03378,78.1967-.00239,156.39336-.00043h707.08912Z"/><path class="cls-2" d="M270.85167,140.14442c39.30214,0,78.6073-.298,117.90541.09982,28.427.28773,52.798,10.9656,73.59281,30.4196a113.52919,113.52919,0,0,1,34.49118,61.47681c1.76384,8.53307,1.61251,17.15614,1.61706,25.77439.01384,26.13679.51457,52.29017-.25377,78.40538-.64608,21.95989-8.60853,41.85276-21.8044,59.32811-18.13076,24.01077-42.59734,38.2581-71.89245,44.29564-11.75714,2.42309-11.81385,2.14935-11.81351-9.68529.0004-12.65253.07635-25.30579-.05262-37.957-.03078-3.02142.95185-4.26733,3.97963-5.058,22.81512-5.95842,38.43829-19.87082,45.91259-42.44173a67.69851,67.69851,0,0,0,3.0174-20.55139c.2602-22.63836.52306-45.29147-.00494-67.92049-.75931-32.54117-24.283-58.97014-56.85088-62.68734-10.29834-1.17543-20.58853-.96259-30.86479-.9892q-100.42362-.26-200.84826-.06009c-15.95.01838-31.93744-.03112-47.0762-5.67769-39.95947-14.90446-65.531-42.869-75.53925-84.59906-2.89717-12.07985-2.037-24.40037-2.26472-36.647-.099-5.32561-.16329-10.65937.02538-15.97991.10682-3.0125-.88086-4.32384-3.96074-3.98438-2.4138.266-4.195-.136-4.12133-3.34979.08044-3.50938,2.42459-2.95145,4.515-2.9584q29.73048-.09891,59.4611-.14345c2.07456-.00272,4.421-.57948,4.58058,2.91426.155,3.39287-1.60074,3.88795-4.30868,3.73042-1.8658-.10854-3.8157-.17607-3.72806,2.63263.43891,14.06656-1.50506,28.24312,1.80529,42.17662,6.49658,27.34456,27.61605,45.88293,55.21725,49.00771a110.02311,110.02311,0,0,0,12.34986.59058q58.457.05554,116.91405.022Z"/><path class="cls-1" d="M390.02031,464.1669c0,25.13743.90762,50.31668-.25013,75.40075-1.206,26.1303-10.54683,49.51889-28.73277,69.0185-14.09174,15.10949-30.608,26.17536-50.33794,32.52444-12.62434,4.06247-25.55031,5.1-38.68736,5.07468q-51.96857-.10026-103.93714.0614c-3.95687.01659-5.4862-.72883-5.3959-5.10345q.43793-21.2183.00224-42.4503c-.08207-4.16144,1.38377-4.88405,5.11372-4.86594,36.14185.17574,72.30141.87725,108.42094-.0039,23.84409-.58169,45.75312-13.87527,55.94549-38.51949,4.3027-10.40351,5.89162-21.148,5.86405-32.36553-.103-41.952.661-83.91606-.12248-125.85273-.44334-23.73144-14.579-45.72247-38.03026-55.98889-13.05207-5.71386-26.68405-5.75127-40.40468-5.86183-25.8477-.20824-48.76425-8.97966-68.39488-25.25374-20.41618-16.92526-34.36619-38.34247-39.79568-64.7616-3.24279-15.779-1.838-31.74553-2.23075-47.6424-.06023-2.43754,1.3896-2.57869,3.23543-2.57529,15.32406.02823,30.64843.059,45.97208-.02449,2.48474-.01355,3.1261,1.01483,3.09941,3.26592-.077,6.49206.00246,12.9858-.01424,19.47879-.08394,32.61992,21.57427,58.85745,53.83612,64.56891,8.52474,1.50915,17.2031.80749,25.81032,1.115,27.92435.99778,52.0028,10.99657,72.47756,30.09444,14.86892,13.869,25.63339,30.14743,31.83329,49.54672,4.09048,12.79894,5.01094,25.89946,4.969,39.18621-.0651,20.64438-.01717,41.28913-.01717,61.93372Z"/><path class="cls-3" d="M445.21887,247.34314c-2.2334-20.96857-13.272-36.77289-31.60522-47.02222-14.02564-7.841-29.55078-8.94433-45.28528-8.07733,4.17029,4.91425,8.30121,9.86249,12.518,14.73657a281.11385,281.11385,0,0,1,36.56214,54.14246c12.0852,23.15436,20.65289,47.62933,27.05023,72.90021,1.53272-3.16266,1.74548-6.77,1.70667-9.99579C445.858,298.46228,447.93372,272.8316,445.21887,247.34314Z"/><path class="cls-4" d="M552.99292,385.63171a391.7283,391.7283,0,0,0-8.28467-69.339A404.4235,404.4235,0,0,0,504.88507,207.7774a381.88892,381.88892,0,0,0-43.13843-63.72857c-12.35846-14.90174-26.01385-28.54444-40.09546-41.67963A360.57364,360.57364,0,0,0,358.58911,55.786,412.25887,412.25887,0,0,0,270.75787,17.1792,350.25683,350.25683,0,0,0,210.22571,3.98627c-5.90448-.73474-11.746-1.9773-17.73267-1.93354-1.34881.00983-2.24505-.49035-2.40417-1.93359H113.09613c-.14612,2.69251-2.23645,1.80768-3.72467,2.01843C99.6048,3.52087,89.76624,4.4942,80.243,7.2608c-.00677,5.40717,1.86115,10.36542,3.4812,15.384-1.62018-5.01874-3.48834-9.97724-3.4826-15.3855a10.41379,10.41379,0,0,0-2.48438-.09229A368.58374,368.58374,0,0,0,28.14227,20.969c-4.58624,1.62061-5.59558,4.78125-4.84179,8.99927.4934,2.76148,1.21307,5.48255,1.83129,8.22174l60.95685-.11517c4.61414-.32636,7.88172.79718,6.94446,6.44812,5.35278,18.70172,10.678,37.41144,16.0968,56.09405-5.41876-18.68261-10.744-37.39233-16.0968-56.09295a7.23,7.23,0,0,1-2.42706.41742c-5.1839-.96955-5.9718,1.61847-5.72431,6.09637.612,11.07288-.90673,22.22675.96637,33.25611,1.57788,9.29107,3.99024,18.3117,10.15131,25.82873,4.63061-1.5498,9.69379-1.16852,14.21979-3.18512,9.21527-.48425,18.25311-2.45331,27.48675-3.02527,9.33954-.57849,18.61585-2.07684,27.99878-.78467,10.23316-15.09448,22.567-28.09979,38.22608-37.63952a108.51889,108.51889,0,0,1,42.12439-15.17255c12.43481-1.70514,24.88317-.69592,37.32141-.95361,3.32013-.06885,5.59338-.3009,4.91223-4.45923-.38117-2.327.31579-3.65228,3.16461-3.70056,3.10016-.05255,3.49548,1.37561,3.48663,3.94812q-.10437,30.4714-.02441,60.9433c.00256,2.14306.04889,3.87286-3.00794,3.89642-2.86169.022-4.064-.95032-3.63409-3.74664.55-3.57642-1.02228-4.43134-4.45166-4.40686-14.06256.10016-28.21716-.78656-41.576,4.99127-3.91357,1.69263-8.09393,2.94757-11.1842,6.15515,10.25134,3.62805,20.592,7.02509,30.73,10.94629,11.10663,4.29584,22.21869,8.66687,32.31512,15.15527q25.2117.09,50.42273.17816c14.98676.04609,29.97467-.028,44.96008.13642,23.80152.26123,45.17139,8.0404,63.9264,22.36657,23.38006,17.85907,38.33587,41.34595,44.11065,70.35334,1.657,8.32354,1.35327,16.83685,1.34595,25.292-.02264,26.14124.542,52.30164-.28558,78.41773-.69819,22.03533-8.799,41.93688-22.1059,59.47369a129.39407,129.39407,0,0,1-27.43951,26.47272c-.51813.40606-1.23505.58392-1.75312.99l-.257.2066-.33465.326c1.96637,1.68842,1.58667,4.01276,1.28082,6.06372-2.48743,16.68213-5.57257,33.2237-10.87213,49.30853-6.7655,20.53437-14.73517,40.49634-25.40363,59.37958-6.61975,11.717-14.31756,22.69629-21.681,33.91156-3.34094,7.11756-8.64917,12.68762-14.20941,18.05945-1.95129.52509-2.58154,1.914-2.47534,3.78455l-.00018-.00019a161.77469,161.77469,0,0,1-28.33924,29.4859c-3.28674,2.68628-7.48095,4.13324-10.24249,7.52954,6.06824-3.99987,9.24378.3747,12.94122,4.177,9.74958,10.02588,20.12531,19.47241,29.47583,29.84863,9.70563,10.77026,20.32215,20.59186,30.38611,30.97833,1.33216,1.37488,3.49774,3.121,5.24268,1.50629,2.52466-2.33643,6.061-2.9892,8.33624-5.22064,8.77118-8.60254,17.96924-16.80066,25.86463-26.26722,7.022-5.71057,11.832-13.43719,18.09338-19.84033-.24316-4.09564,3.33044-6.00281,5.33667-8.61859a406.26531,406.26531,0,0,0,78.46295-184.83752c1.74609-11.24646,2.57257-22.6557,3.45306-34.04407A314.7024,314.7024,0,0,0,552.99292,385.63171Z"/><path class="cls-1" d="M722.21277,415.23517q0,131.46561-.05866,262.93115c-.0028,3.32025.22455,4.92267,4.38977,4.91663q143.97758-.20893,287.95569-.02179c3.69812.00415,4.3266-1.22229,4.276-4.54724-.18756-12.32721-.278-24.66419.0326-36.98645.11291-4.48023-.98328-5.77576-5.65473-5.76587-75.82226.1607-151.64508.07092-227.4674.22271-4.43641.00892-5.46637-1.09106-5.45649-5.47985q.228-101.47295-.00018-202.94642c-.01031-4.54058,1.09454-5.72973,5.68567-5.71624,56.99145.16815,113.98376.04809,170.97522.22851,4.51129.01428,5.49481-1.18536,5.37628-5.486q-.47506-17.23242.00311-34.48492c.11945-4.2381-1.10864-5.12641-5.20874-5.11585-56.99157.14642-113.98394.02515-170.97516.22846-4.97912.01776-5.8764-1.38154-5.86212-6.05427.17261-56.65136.1037-113.30334.12207-169.9552.00238-7.29528-.78967-6.46655,6.31079-6.46826q108.23475-.02617,216.46924.08338c4.114.00744,5.36859-.98755,5.27021-5.18067-.28138-11.99029-.3321-23.99817.01495-35.985.1402-4.83972-.83893-6.38855-6.13623-6.3772q-137.23005.29315-274.46082.04736c-4.30176-.00579-5.73327.7439-5.72418,5.482Q722.34171,284.01925,722.21277,415.23517Z"/><path class="cls-1" d="M1689.86841,518.265c1.14844,11.11933,2.38745,22.17041,4.32971,33.18531a197.58683,197.58683,0,0,0,15.76721,50.21936c11.71509,24.87481,28.17664,45.6817,50.78443,61.61645,12.8601,9.06415,26.96191,15.22467,41.85388,19.85913,9.51721,2.96173,19.371,5.21045,29.17492,5.58051,24.71668.93286,49.46546.58911,73.67945-5.76062,10.24511-2.68671,20.35473-5.91474,29.67016-10.893a200.51808,200.51808,0,0,0,39.57691-27.82654c8.30713-7.46466,15.56958-15.87554,22.5885-24.50854.9508-1.16962,2.61145-2.53442.1803-4.45062-11.68994-9.21442-23.24536-18.6001-34.80164-27.98273-1.72229-1.39838-2.94861-1.8725-4.421.345-4.03,6.06915-9.39477,10.9823-14.4082,16.19281a138.52336,138.52336,0,0,1-34.09351,26.22711c-14.53772,7.848-30.05554,11.89887-46.44812,13.39417-17.93725,1.63623-35.27954.11535-51.63159-7.98456-20.08459-9.94879-33.422-26.41821-43.82593-45.67639-15.13025-28.00659-21.20752-58.1994-21.95288-89.7489-.09888-4.1839.94287-5.1576,5.10266-5.13916,39.49341.17541,78.988.10455,118.48218.10455,39.66089-.00006,79.322-.0752,118.98218.10889,4.25976.01977,5.28894-1.22272,5.2384-5.25281-.12524-9.9715-.2185-19.92719-.59631-29.9046-.6344-16.74579-2.15564-33.29316-6.19019-49.56934-8.16406-32.93573-25.02929-60.12463-53.54321-79.17956-24.27661-16.223-51.79431-21.92884-80.47986-23.04517a191.81165,191.81165,0,0,0-40.67859,2.88184c-31.21167,5.47619-58.10327,18.38366-78.99292,43.21295-13.70813,16.29351-23.61108,34.47107-31.0769,54.09326-8.16016,21.44708-11.82495,44.04333-12.84693,66.764C1688.64966,489.39948,1688.38013,503.85468,1689.86841,518.265Zm56.98291-65.1261c2.36316-28.00915,11.88977-53.15264,30.18725-74.55828,18.417-21.54523,43.11158-28.241,70.34351-28.04956a119.57885,119.57885,0,0,1,26.25562,2.89868c21.93762,5.08679,37.876,17.66821,48.16113,37.75042,10.10705,19.73438,15.21387,40.653,16.38769,62.7.19971,3.75134-1.0144,4.27154-4.3479,4.258-30.4834-.124-60.96753-.07293-91.45129-.07293-30.15051,0-60.30164-.07569-90.45142.09167C1747.97266,458.17883,1746.47632,457.584,1746.85132,453.13885Z"/><path class="cls-5" d="M1231.91626,355.055c-.072,3.6294,1.104,4.34253,4.47766,4.29566,13.662-.19007,27.33106.07031,40.99133-.175,3.79468-.06824,4.68262.98913,4.65589,4.70813-.17627,24.49231-.09094,48.98645-.09094,73.48q0,119.96841-.13367,239.93652c-.01184,5.00226,1.3811,5.901,6.01672,5.79175q20.985-.494,41.98841-.0036c4.776.1106,6.29565-.76855,6.28588-6.03839q-.291-156.20838-.24707-312.41736c-.00549-4.32935.9137-5.52893,5.39844-5.48126,23.99378.25537,47.99243.03827,71.98779.20679,3.71546.02606,4.54163-1.02387,4.86536-4.69458,1.186-13.43854,2.93164-26.82764,4.53516-40.83515h-85.65161c-.71424.20123-.98084-.08441-.86072-.79089-.38465-25.93335-.14588-51.87146,3.00012-77.63495,1.48437-12.154,5.03052-23.86884,14.62378-32.63892,8.12158-7.42456,17.80542-11.54541,28.517-13.34839,12.49743-2.10351,25.03088-2.73791,37.41858.66822a118.339,118.339,0,0,1,30.70092,13.66827c2.79737,1.7226,4.82593,2.1023,6.71656-1.91113,6.18359-13.12567,12.842-26.03107,19.50048-38.92682,1.29847-2.51453,1.74634-4.08807-1.41162-5.1759-1.22522-.42206-2.24255-1.41474-3.44543-1.93927a159.92629,159.92629,0,0,0-53.3739-12.66089,164.13812,164.13812,0,0,0-32.87622.972c-23.45935,3.10858-44.91333,11.03974-62.84326,26.90729-14.3169,12.66992-23.98377,28.47315-30.68335,46.33893-3.60035,9.60071-5.58985,19.54706-7.77161,29.45007a98.0476,98.0476,0,0,0-2.12488,18.82428c-.35058,15.79627-.2373,31.60285-.31006,47.40534.142.683-.10058.96539-.802.76947-14.82751.05487-29.65723.26587-44.481.05841-3.856-.054-4.64257,1.06756-4.57129,4.70459Q1232.27442,336.80637,1231.91626,355.055Z"/><path class="cls-5" d="M1453.46851,313.86365c-3.856-.054-4.64258,1.06756-4.57129,4.70459q.35668,18.23813-.00147,36.48675c-.072,3.6294,1.10413,4.34253,4.47766,4.29566,13.662-.19007,27.33106.07031,40.99134-.175,3.79467-.06824,4.68261.98913,4.65588,4.70813-.17627,24.49231-.09094,48.98645-.09094,73.48q0,119.96841-.13367,239.93652c-.01184,5.00226,1.3811,5.901,6.01672,5.79175q20.985-.494,41.98841-.00366c4.776.11066,6.29565-.76849,6.28589-6.03833q-.291-156.20838-.24707-312.41736c-.0055-4.32935.91369-5.52893,5.39843-5.48126,23.99378.25537,47.99243.03827,71.98792.20679,3.71533.02606,4.54162-1.02381,4.86548-4.69458,1.18579-13.43854,2.93139-26.82764,4.53491-40.83515H1553.9751c-.71424.20123-.98084-.08441-.86072-.79089-.38464-25.93335-.14587-51.87146,3.00012-77.63495,1.48438-12.154,5.03052-23.86884,14.624-32.63886,8.12133-7.42456,17.80517-11.54547,28.51684-13.34838,12.49732-2.10358,25.03076-2.738,37.41846.66815a118.33735,118.33735,0,0,1,30.70093,13.66833c2.79736,1.72254,4.8258,2.10217,6.71655-1.91131,6.18359-13.12561,12.842-26.03095,19.50049-38.9267,1.29834-2.51453,1.74633-4.088-1.41162-5.1759-1.2251-.42206-2.24256-1.41486-3.44544-1.93933a159.92615,159.92615,0,0,0-53.3739-12.66083,164.13222,164.13222,0,0,0-32.8761.972c-23.45947,3.10852-44.9137,11.03968-62.84363,26.90723-14.31665,12.66992-23.9834,28.47327-30.6831,46.339-3.60022,9.60077-5.58985,19.54706-7.77161,29.45007a98.0476,98.0476,0,0,0-2.12488,18.82428c-.3507,15.79627-.2373,31.60285-.31006,47.40534.142.683-.10058.96539-.802.76947C1483.122,313.86011,1468.29224,314.07111,1453.46851,313.86365Z"/><path class="cls-1" d="M2090.17383,640.76624c2.6018,10.90417,5.73974,21.6311,13.55078,30.67309,8.009,9.27142,17.78809,14.74268,29.38013,16.22315,24.322,3.10626,47.13574-3.41327,69.41674-12.52894,3.39869-1.39038,3.99317-3.111,3.16968-6.23754-2.00342-7.60791-4.08178-15.20465-5.751-22.88825-.78589-3.61633-2.40235-4.12195-5.79078-3.6629-10.06713,1.36352-20.24389,1.62585-30.21069-.49133-7.01782-1.49073-13.37939-4.47223-16.75806-11.68683-3.78-8.07148-4.05249-16.63629-4.05639-25.24481q-.05017-111.69993-.01929-223.39979-.00036-114.44887.08594-228.89752c.0061-3.996-.81006-5.3966-5.10547-5.316-14.82324.2779-29.65723.24848-44.48193.00751-3.70923-.0603-4.61548.80792-4.6128,4.56927q.16443,234.14484.13306,468.28986C2089.12573,627.0578,2088.60449,634.19055,2090.17383,640.76624Z"/><path class="cls-1" d="M1112.01636,683.07782q21.48082-.41034,42.97314.002c4.231.08094,5.50842-.77227,5.49439-5.32361-.18311-59.62707-.12171-119.25488-.12171-178.8825q-.00018-89.94114.10437-179.882c.01074-4.21314-1.07666-5.20642-5.19421-5.12952q-21.731.40585-43.473.00495c-4.21228-.07581-5.65625.726-5.57264,5.34655.31946,17.6493.12915,35.30787.12915,52.963q0,152.65008-.11779,305.3C1106.23083,682.20374,1107.61365,683.16193,1112.01636,683.07782Z"/><path class="cls-1" d="M255.14447,837.38824c-9.69092-10.54089-22.2196-13.83905-35.69568-14.3161-13.30737-.471-26.64819.06244-39.96405-.26355-4.18927-.10254-4.75976,1.39917-4.73773,5.038.14416,23.81213.07422,47.62561.07422,71.4386v64.445c0,12.35016.00036,12.22956,12.38489,12.26441,3.22876.00909,4.16235-.80121,4.1322-4.09912-.16577-18.14966.12591-36.30542-.21326-54.45026-.09277-4.96417,1.34943-6.00671,6.05829-5.90423,14.65137.319,29.398.49163,42.90881-6.63208,19.84406-10.46308,27.3534-26.13129,24.66986-46.34552A37.91813,37.91813,0,0,0,255.14447,837.38824Zm-17.84113,52.47931c-7.36547,6.07331-16.19091,8.31372-25.465,8.87738-5.64111.34284-11.322-.01355-16.97437.21015-2.81091.11133-3.72381-.71546-3.66955-3.60523.08746-4.65936.1037-9.32.09814-13.98108s-.033-9.32263-.03314-13.98358c0-3.43329.01575-6.86688.02625-10.30041s.01574-6.86688-.00538-10.29981q-.021-3.43286-.08349-6.865c-.05914-3.097.561-4.45654,4.051-4.28583,9.62458.471,19.29541-.53924,28.89356,1.14386,11.14911,1.95508,19.957,6.94117,22.762,18.65564C250.03577,868.51544,248.4765,880.65454,237.30334,889.86755Z"/><path class="cls-1" d="M446.96741,877.08386c-12.8808-9.15045-27.21845-9.66986-42.17469-6.3869-14.777,3.24347-24.43206,12.94238-30.21533,25.81488-6.06665,13.50336-7.12481,28.00409-3.41266,42.79877,2.654,10.57776,7.13208,19.88788,15.02,27.33636,8.86762,8.37342,19.84467,11.205,27.03888,11.09308,21.83209.16632,35.34815-6.47211,44.76917-20.95477,10.37671-15.952,11.38659-33.25592,7.1654-51.20929C462.43842,894.00824,456.77112,884.0484,446.96741,877.08386Zm4.36853,46.72479a46.08289,46.08289,0,0,1-11.85132,32.28449c-9.63153,10.79443-26.54138,12.41-37.80768,3.28058-7.97784-6.46485-13.472-14.60163-14.90167-25.07794-1.64581-12.061-1.19214-23.87476,4.08276-35.10913,5.46918-11.648,14.71344-17.74482,27.55689-17.98969,12.70886-.24237,21.84649,5.57336,27.63006,16.90619C449.99731,905.84778,451.69849,914.01038,451.33594,923.80865Z"/><path class="cls-1" d="M908.58362,883.102c-10.34363-11.88446-24.0542-14.98608-39.02381-14.0874-18.55426,1.114-32.21826,10.41821-39.807,27.01263-6.54016,14.30145-7.3971,29.56885-3.19977,45.09735,2.67694,9.90369,7.20337,18.53467,14.55957,25.50342a40.9598,40.9598,0,0,0,28.57031,11.07971c22.75055.32147,36.90906-8.569,46.09265-25.53155,5.98059-11.04627,7.22217-23.0307,6.28626-35.41248C921.103,904.07959,916.95087,892.71576,908.58362,883.102Zm-2.28839,39.996c.199,11.18811-2.85388,21.9552-10.4076,31.32776-10.879,13.49854-29.73846,14.66614-42.12133,2.49066-15.9195-15.65277-17.41663-48.43847-2.9914-65.50616,12.653-14.97089,37.53656-13.38745,48.09485,3.08093A47.38343,47.38343,0,0,1,906.29523,923.098Z"/><path class="cls-1" d="M662.3537,882.8316c-10.30243-11.65484-23.86591-14.67846-38.64252-13.82281-18.55206,1.07422-32.17431,10.3186-39.88061,26.91113-6.65723,14.3338-7.374,29.61487-3.27808,45.08722,2.64966,10.00934,7.27484,18.65131,14.87293,25.76685,8.8742,8.31042,19.64074,10.87457,30.7763,10.89038,19.20606.62152,34.83234-8.60517,43.56848-25.3581,5.813-11.147,7.22785-23.03271,6.3147-35.41394C675.13611,904.0274,670.92584,892.52911,662.3537,882.8316Zm-2.04517,40.76752a46.20783,46.20783,0,0,1-11.89972,32.55426c-9.6568,10.781-26.55005,12.33917-37.81433,3.16736-7.81708-6.36493-13.28955-14.33246-14.76153-24.61536-1.87519-13.10046-1.29132-25.87732,5.18646-37.79968,5.78351-10.64465,15.03955-15.67761,26.95618-15.71228,11.58453-.03369,20.37,4.974,26.12,15.23993A49.21257,49.21257,0,0,1,660.30853,923.59912Z"/><path class="cls-1" d="M1132.29346,227.06848c15.68506,1.03674,31.66333-12.76861,32.80591-30.22973,1.06982-16.3523-11.01526-35.48945-31.91749-35.28931-21.71105.20788-32.30981,14.699-32.59985,33.06323C1100.28638,213.31873,1113.66675,226.54132,1132.29346,227.06848Z"/><path class="cls-1" d="M793.83154,957.37939c-7.46417-6.89929-7.65063-6.96044-14.93213.20966-.35577.35034-.71557.69678-1.07379,1.0448-11.76147,11.42816-33.23767,9.7511-42.84594-3.5769-12.47822-17.30939-13.939-36.30054-6.56812-55.76392,7.80634-20.6134,31.66656-23.929,47.0484-12.44757,6.85492,5.11682,6.8429,5.13251,13.26587-1.16016a6.978,6.978,0,0,1,.72467-.68432c2.47919-1.809,1.76416-3.07245-.30786-4.89319-9.30463-8.17621-20.24609-11.33936-33.78723-11.19879-30.58277-.44007-43.71875,21.44384-46.96851,44.70477-1.3916,9.96081-.97821,20.506,2.67694,30.572,3.964,10.91638,9.37049,20.4093,19.57392,26.63507,10.13012,6.18085,20.89166,7.60944,32.63372,6.26105,12.59748-1.44666,22.33869-7.17706,30.39386-16.489C794.51086,959.61523,795.42725,958.85431,793.83154,957.37939Z"/><path class="cls-1" d="M548.99109,963.13422c-2.32941-1.28528-5.09473.80383-7.74664.9237a39.254,39.254,0,0,0-3.888.78815c-6.23932.93463-11.05243-1.8349-13.28089-7.74951a29.1524,29.1524,0,0,1-1.86151-10.22937c-.03741-20.64105.02014-41.28229.04572-61.92353-.18177-.70788.07128-1.01971.81012-.88885,6.656-.05682,13.31274-.07745,19.96746-.20606,1.11652-.02148,2.48.68824,3.09565-1.4201,1.08166-3.70428,1.79156-7.82245.97106-11.11719-.51184-2.0553-5.43292-.49762-8.3551-.81671-.49359-.05389-1.00012.022-1.49731-.01227-4.94116-.33984-11.53559,2.14-14.35523-1.03137-2.43182-2.73529-.74383-9.19189-.75976-14.00372-.03992-12.0304-.01062-11.89673-11.97931-11.67542-3.11444.05768-3.45184,1.27185-3.39453,3.83771.145,6.48969-.05622,12.98718.09857,19.47638.06219,2.6087-.77844,3.60022-3.40558,3.43921-2.81988-.17285-5.66443.07422-8.48761-.07013-2.47192-.12634-3.47229.61023-3.6076,3.31543-.50611,10.11334-.60248,10.40057,9.63372,9.98657,4.87287-.19714,5.95154,1.18353,5.95014,5.97327-.00684,22.80072-.83679,45.61554.42743,68.403.53735,9.68567,6.617,16.2254,15.87018,18.66034,7.89288,2.07691,15.601.1839,23.38189-.23059,3.97089-.21167,5.48542-2.46057,3.83173-6.14252C549.36493,967.99188,551.64276,964.59741,548.99109,963.13422Z"/><path class="cls-1" d="M986.71246,964.58966c-9.94757.6532-12.59466-2.03857-12.647-10.55872-.00922-1.49853-.00439-2.99719-.00439-4.49578q-.00029-57.94538-.00013-115.89069c0-10.79333-.00445-10.59119-10.81756-10.82971-3.85254-.08484-4.61426,1.04974-4.58515,4.69842.1778,22.31079.089,44.6239.089,66.93616,0,8.15894-.09192,16.31915.01972,24.47662.20941,15.31061-.72437,30.64154.54315,45.9278.43957,5.3006,2.95947,9.49255,8.33386,11.4967,7.92224,2.95453,15.3515.32245,22.57507-2.31952,4.23285-1.54809.082-4.83569.27735-7.3349C990.64471,964.798,989.10242,964.43268,986.71246,964.58966Z"/><path class="cls-1" d="M353.24915,868.89111a52.49688,52.49688,0,0,0-14.25885,1.70179c-10.14057,2.67779-18.22278,8.50976-26.03766,17.12908,0-2.82836.04034-4.309-.00641-5.78692-.37189-11.75787-.37592-11.67572-12.18506-11.52826-2.69592.03369-3.6969.52368-3.59375,3.54187,1.04065,30.43988.28455,60.893.48578,91.34027.07062,10.68988.01562,10.49091,10.95117,10.73151,3.83771.08435,4.59375-1.035,4.56378-4.676-.18091-21.96271-.07355-43.92755-.11218-65.89166-.0044-2.51617.13818-4.8324,1.89783-6.90369,7.0578-8.30774,15.89013-13.1167,26.84173-13.62317,12.1612-.56243,12.13294-.48877,14.11115-12.61261C356.27942,870.029,355.83,868.92627,353.24915,868.89111Z"/><path class="cls-1" d="M566.30927,143.55646c3.46307,5.903,8.50622,12.64172,10.78759,19.21673.61255.62415.52509-.05175,1.13764.57239,4.50982-.80334,8.10516-3.79645,12.37719-5.16858q-.30349-.7251-.60589-1.44946l.10351.14612-.10162-.14679c.0047-.00482.01068-.00556.01544-.0102a415.7829,415.7829,0,0,0-21.78589-35.9981c-4.86468-7.13452-9.03021-14.816-15.39581-20.84662-3.9184,2.13482-7.086,5.221-10.34582,8.19055l1.8103,2.89264C552.02869,121.56091,559.6709,132.241,566.30927,143.55646Z"/><path class="cls-1" d="M629.90692,309.95752c.87256.48944.48169,1.381.66541,2.08978,4.22064-1.60821,8.65643-.40283,12.95507-.99048a1.8499,1.8499,0,0,1,.34491-.89959c-.22528-.10089-.44689-.20935-.666-.32312-1.02741-5.77338-1.9624-11.56513-3.09967-17.31684-3.41773-17.28369-8.14606-34.23755-13.0329-51.14917a.61487.61487,0,0,1-.60272-.22393q-5.97419,2.43173-11.94824,4.86352l1.477,4.115C622.17493,269.74219,626.40887,289.68835,629.90692,309.95752Z"/><path class="cls-2" d="M644.17065,312.81683l.03791.03015Z"/><path class="cls-2" d="M590.10931,156.87366a.71844.71844,0,0,0,.41755-.33234.59165.59165,0,0,0-.50373.17535c-.00476.00464-.01074.00538-.01544.0102Z"/><path class="cls-1" d="M155.90948,137.11737c16.4516-.04932,32.904-.09515,49.3545.04413,2.783.02356,3.99-1.17352,5.34314-3.35272,5.2434-8.44458,11.27234-16.20929,20.45459-20.82587,3.09027-3.20758,7.27063-4.46252,11.1842-6.15515,13.35889-5.77783,27.51349-4.89111,41.576-4.99127,3.42938-.02448,5.00165.83044,4.45166,4.40686-.42993,2.79632.7724,3.76867,3.63409,3.74664,3.05683-.02356,3.0105-1.75336,3.00794-3.89642q-.037-30.47169.02441-60.9433c.00885-2.57251-.38647-4.00067-3.48663-3.94812-2.84882.04828-3.54578,1.37359-3.16461,3.70056.68115,4.15833-1.5921,4.39038-4.91223,4.45923-12.43824.25769-24.8866-.75153-37.32141.95361A108.51889,108.51889,0,0,0,203.93079,65.4881c-15.65906,9.53973-27.99292,22.545-38.22608,37.63952-4.59106,9.96222-10.18359,19.46625-12.68194,30.36322C152.238,136.91357,153.20764,137.12549,155.90948,137.11737Z"/><path class="cls-6" d="M1751.93591,458.15686c30.14978-.16736,60.30091-.09167,90.45142-.09167,30.48376,0,60.96789-.051,91.45129.07293,3.3335.01355,4.54761-.50665,4.3479-4.258-1.17382-22.047-6.28064-42.96564-16.38769-62.7-10.28516-20.08221-26.22351-32.66363-48.16113-37.75042a119.57885,119.57885,0,0,0-26.25562-2.89868c-27.23193-.19141-51.92651,6.50433-70.34351,28.04956-18.29748,21.40564-27.82409,46.54913-30.18725,74.55828C1746.47632,457.584,1747.97266,458.17883,1751.93591,458.15686Z"/><path class="cls-6" d="M224.14142,836.778c-9.59815-1.6831-19.269-.67285-28.89356-1.14386-3.49-.17071-4.11016,1.18879-4.051,4.28583q.06555,3.432.08349,6.865c.02112,3.43293.01587,6.86634.00538,10.29981s-.02625,6.86712-.02625,10.30041c.00012,4.661.02753,9.32251.03314,13.98358s-.01068,9.32172-.09814,13.98108c-.05426,2.88977.85864,3.71656,3.66955,3.60523,5.65241-.2237,11.33326.13269,16.97437-.21015,9.274-.56366,18.09949-2.80407,25.465-8.87738,11.17316-9.213,12.73243-21.35211,9.6-34.434C244.09845,843.71912,235.29053,838.733,224.14142,836.778Z"/><path class="cls-6" d="M418.41492,881.197c-12.84345.24487-22.08771,6.34168-27.55689,17.98969-5.2749,11.23437-5.72857,23.04815-4.08276,35.10913,1.42963,10.47631,6.92383,18.61309,14.90167,25.07794,11.2663,9.12939,28.17615,7.51385,37.80768-3.28058a46.08289,46.08289,0,0,0,11.85132-32.28449c.36255-9.79827-1.33863-17.96087-5.291-25.7055C440.26141,886.77032,431.12378,880.95459,418.41492,881.197Z"/><path class="cls-6" d="M850.7749,891.41028c-14.42523,17.06769-12.9281,49.85339,2.9914,65.50616,12.38287,12.17548,31.24237,11.00788,42.12133-2.49066,7.55372-9.37256,10.60663-20.13965,10.4076-31.32776a47.38343,47.38343,0,0,0-7.42548-28.60681C888.31146,878.02283,863.42786,876.43939,850.7749,891.41028Z"/><path class="cls-6" d="M627.97559,881.19342c-11.91663.03467-21.17267,5.06763-26.95618,15.71228-6.47778,11.92236-7.06165,24.69922-5.18646,37.79968,1.472,10.2829,6.94445,18.25043,14.76153,24.61536,11.26428,9.17181,28.15753,7.61359,37.81433-3.16736a46.20783,46.20783,0,0,0,11.89972-32.55426,49.21257,49.21257,0,0,0-6.21289-27.16577C648.34564,886.16742,639.56012,881.15973,627.97559,881.19342Z"/><path class="cls-2" d="M518.82373,117.06982a47.35938,47.35938,0,1,1,47.35889-47.35937A47.41273,47.41273,0,0,1,518.82373,117.06982Zm0-75.71875a28.35938,28.35938,0,1,0,28.35889,28.35938A28.39175,28.39175,0,0,0,518.82373,41.35107Z"/><circle class="cls-7" cx="602.57619" cy="201.66075" r="37.85932"/><path class="cls-2" d="M602.57617,249.02a47.35938,47.35938,0,1,1,47.35938-47.35938A47.41274,47.41274,0,0,1,602.57617,249.02Zm0-75.71875a28.35938,28.35938,0,1,0,28.35938,28.35937A28.39175,28.39175,0,0,0,602.57617,173.30127Z"/><circle class="cls-7" cx="642.54602" cy="354.54108" r="37.85932"/><path class="cls-2" d="M642.5459,401.90039A47.35938,47.35938,0,1,1,689.90527,354.541,47.41275,47.41275,0,0,1,642.5459,401.90039Zm0-75.71875A28.35938,28.35938,0,1,0,670.90527,354.541,28.39176,28.39176,0,0,0,642.5459,326.18164Z"/></svg>