<svg id="Layer_1" data-name="Layer 1" xmlns="http://www.w3.org/2000/svg" viewBox="0 0 1016.45 622.68"><defs><style>.cls-1,.cls-2{fill:#2a3646;}.cls-1{fill-rule:evenodd;}</style></defs><title>fossa-glyph-stacked</title><g id="Page-1"><g id="fossa-logo"><g id="Page-1-2" data-name="Page-1"><g id="Fossa-Flat"><path id="Shape" class="cls-1" d="M389.73,208.74a2.29,2.29,0,0,1,.9-2.5c1.8-1.3,4.1-2.6,5.4-1.1l.1.1h0l.1.1h0a4.43,4.43,0,0,0,3.4,1.5c2.6,0,5.3-1.8,6.5-2.6,2.9-2,4.9-3.7,5.3-8.9v-.2c0-.1,0-1.6,1.3-1.9a1.87,1.87,0,0,1,1.4.5,8,8,0,0,1,2,6.3c-.4,4.7-2.7,8.9-6.8,12.5-.3.3-.6.5-.9.8-2.5,2-4.9,3.8-7.1,5.3-3.1,1.7-5.9-.9-7.3-2.6-.6-.8-1.1-1.5-1.9-2.7l-.2-.4a42.32,42.32,0,0,1-2.2-4.2Zm-10,30.3.9.6a5.39,5.39,0,0,0,1.3.7c1.1.5,2.2.3,4.1-.2l1.5-.3a23.17,23.17,0,0,1-5.5-7.7,12.38,12.38,0,0,1-2.3,6.9Zm28.4-177.1c0-.1-.1-.1,0,0a29.33,29.33,0,0,1-3-4.5c.3,2.7.8,5.4,1.3,7.8.2.9.3,1.7.5,2.5.9-1,1.8-1.9,2.6-2.8a7.46,7.46,0,0,0-1.4-3Zm-43.3,154.6a2.22,2.22,0,0,0,.1-.9v-.3a21,21,0,0,1,.1-3.5,25.67,25.67,0,0,1,.8-4.7h0a.37.37,0,0,1,.1-.3,2.55,2.55,0,0,0,.1-1.2h0a25,25,0,0,0-3.6-2.2,42.26,42.26,0,0,1,0,6.2v.7c-.1,1.5-.2,3.2,2.1,5.7,0,.2.2.3.3.5Zm222.5-103.7a21.86,21.86,0,0,0,3.6-.3c1.9-.6,3.2-.9,3.4-1,10.5-3.1,19.2-9.8,23.2-17.9a36.13,36.13,0,0,0,2.2-16.9,24.37,24.37,0,0,1-.1-2.7c-.1-7,8.6-19.2,10.4-21.7,6.3-10.4,8.4-19.3,6.3-25.7a13.21,13.21,0,0,0-6.7-7.7h-.1a36.18,36.18,0,0,0-5.5-2,36.91,36.91,0,0,0-9.5-1.2c-13.1,0-27.4,6.7-38.1,18,0,.1-.1.2-.2.3-3.9,5.1-10.1,15.5-7.4,27.8,1.9,8.4,6.5,15,14.1,20.3a3,3,0,0,1,1.3,3,3.07,3.07,0,0,1-2,2.5c-.1,0-9.6,3.6-11.6,9.7-.8,2.4-.3,5,1.6,7.9.3.1,5.8,7.6,15.1,7.6Zm-208.5,72.5c1.4,0,3.3-.8,6.4-2.7a36.3,36.3,0,0,1,12.9-5h.2a3,3,0,0,0,2.4-3v-.3a2.92,2.92,0,0,0-1.9-2.5c-.1,0-.2-.1-.3-.1a10.46,10.46,0,0,0-3.6-.6h-.1a9.91,9.91,0,0,0-3.8.7,8.08,8.08,0,0,1-2.7.5h-.6a7.56,7.56,0,0,1-2.4-.7,4.92,4.92,0,0,0-2-.5,2.2,2.2,0,0,0-.8.1,11,11,0,0,0-4.6,2.8.35.35,0,0,1-.2.1h-.1c-1.2,1-2.5,2.1-3.8,3.1l-.6.6a.35.35,0,0,0-.1.2l-.2.3a3.08,3.08,0,0,0,.6,3.5l.3.3h0l.3.3c2.2,2,3.2,2.9,4.7,2.9ZM526,366.84c.1,0,.2-.1.3-.1A252.25,252.25,0,0,0,570,344l.6-.4a3.23,3.23,0,0,0,1.4-2.5h0v-.3a.9.9,0,0,0-.1-.5c0-.1-.1-.2-.1-.3l-.1-.2c-3.2-8.9-7.7-28.3-2-57.6a118.82,118.82,0,0,0,2.4-21.4v-.7a3.11,3.11,0,0,0-3-2.8,3,3,0,0,0-2.4,1.2l-.1.2v.1l-.2.2a94.64,94.64,0,0,1-5.9,9.4c-23.9,34.3-41.9,63.1-38.5,95.9a3,3,0,0,0,3,2.7,3.55,3.55,0,0,0,1-.2Zm-44.6,12.4.5-.1a191.19,191.19,0,0,0,31.6-7.7h0l.2-.1h.1c.1,0,.2-.1.3-.1h0a3.08,3.08,0,0,0,1.8-2.8h0v-.2l-.1-.4c-4.9-36,14.1-66.6,39.3-102.8,16.1-23.1,11.8-34.3,7.1-40.7a22,22,0,0,0-17.7-8.2,35.79,35.79,0,0,0-10.7,1.8q-5,1.65-10.2,3c-3.5.8-7.2,1.5-11,2.1-2.5.4-5,.7-7.4,1-12.4,1.6-24.2,3.1-38,10.3l-.2.2h-.2c-1.1.5-2.1,1.1-3.2,1.6h-.1c-.1.1-.3.1-.4.2H463a2.34,2.34,0,0,0-.7.7.35.35,0,0,0-.1.2v.1l-.2.2a3.08,3.08,0,0,0-.3,1.3,3.19,3.19,0,0,0,1.1,2.4h.7v.5c9.3,5.8,16,20.1,17,36.4,1.3,20.9-.6,40.2-2.3,57.1v.2c-1.8,17.6-3.2,31.4-.5,41.3v.2a1.85,1.85,0,0,0,.2.7,3.08,3.08,0,0,0,2.8,1.8,1.73,1.73,0,0,1,.7-.2ZM397,77.64l.2-.2h0v-.1c1.4-1.7,2.7-3.3,4-4.7l.2-.2a3.16,3.16,0,0,0,.7-1.9v-.6c-.2-1.2-.4-2.5-.7-3.6-1.3-6.5-2.8-14.5,0-21.1a83.63,83.63,0,0,1,1-10.3v-.2c.3-1.9.6-3.8.8-5.7.6-6-.5-11-3-13.7a6.73,6.73,0,0,0-5.2-2.2h-.3a5.06,5.06,0,0,0-3.9,1.4c-1,1.2-1.8,3.5-2.4,6.4a48.51,48.51,0,0,0-.6,11.6c1,10.1.8,11.4,0,13.6-.4,1-.9,2.4-1.1,8.1-.2,4.3,1.6,10.3,3.4,16v.1c.6,1.9,1.2,3.9,1.7,5.9h0c0,.1.1.3.1.4v.1a3.14,3.14,0,0,0,2.9,2,3.86,3.86,0,0,0,2.2-1.1Zm3.7,35.7c0-.1.1-.3.1-.4h0v-.1c.5-3.6.9-8.4,1.2-15.6a55.37,55.37,0,0,1,.8-6.7h0l.3-1.3c0-.2.1-.4.1-.6v-.3a3.11,3.11,0,0,0-3-2.8,2.84,2.84,0,0,0-2.3,1.1.35.35,0,0,0-.1.2v.1c-1.1,1.4-1.8,2.3-2,2.5l-.1.1a18.22,18.22,0,0,0-2.7,4.1,40.92,40.92,0,0,0-2.9,7.7v.1q-.6,2.4-1.2,5.1a5.86,5.86,0,0,0,.9,3.1c1.1,2,3.2,3.8,6.4,5.6l.1.1c.1.1.2.1.3.2a2.77,2.77,0,0,0,1.3.3,3.42,3.42,0,0,0,2.8-2.5Zm14.7-55.6h0l.2-.2a53.53,53.53,0,0,1,9.4-6.4h.1a3,3,0,0,0,1.5-2.7v-.3a3.63,3.63,0,0,0-.7-1.7c-3.3-3.9-5.9-9.2-8.1-13.9l-.2-.4c-.7-1.4-1.4-2.8-2-4.1h0l-.3-.6a3.13,3.13,0,0,0-2.7-1.7,3,3,0,0,0-2.4,1.2.35.35,0,0,0-.1.2v.1l-.2.2a2.28,2.28,0,0,0-.3,1.1l-.1,1c-.2,2.1-.5,4.1-.8,6a72,72,0,0,0-1,10,19.87,19.87,0,0,0,3.3,11.1v.1c0,.1.1.1.2.2a3,3,0,0,0,2.5,1.2,1.61,1.61,0,0,0,1.7-.4Zm.9,115.5h0c3.8-10.3,11.1-20.5,17-28.8,2.4-3.4,4.8-6.6,6.4-9.3a246.92,246.92,0,0,0,19.9-40.5c0-.1.1-.2.1-.3,5.9-13.2,13.2-22.4,22.3-28.2,8-5.1,17.3-7.8,30.1-8.7h.2c4.6-.3,8.3-1.5,11-3.7v-.1h.1l.2-.2h.1c.2-.2.5-.4.6-.6a3.16,3.16,0,0,0,.7-1.9v-.3a3,3,0,0,0-2.7-2.7l-.9-.1a112,112,0,0,0-12-.6,170.55,170.55,0,0,0-28.5,2.6,63,63,0,0,1-10.2.8c-3,0-5.9-.2-8.8-.3s-5.7-.3-8.5-.3c-1.2,0-2.2,0-3.2.1a41.87,41.87,0,0,0-9.1,1.4h0l-.8.2h-.1c-11.4,3.3-21.3,13.4-27.3,27.5a.1.1,0,0,1-.1.1,55,55,0,0,0-4.4,18c-.7,14-1.5,20.1-3.7,25.8v.2l-.2.2c-1,2.5-2.2,4.9-3.7,8l-.3.7c-2.1,4.1-4.9,8.9-7.7,13.6l-.8,1.3c-.4.6-.7,1.2-1.1,1.8-2.4,4.1-4.8,8.3-6.3,11.5v.2l-.2.2a.35.35,0,0,1-.1.2h0a3.55,3.55,0,0,0-.2,1,3,3,0,0,0,1.9,2.8c.1,0,.2.1.3.1l.2.1c.4.2.8.3,1.2.5a2.07,2.07,0,0,0,.6.2,1.85,1.85,0,0,0,.7-.2h.1a17.38,17.38,0,0,1,5.8-.9h.1a16.79,16.79,0,0,1,8.9,2.5,39.32,39.32,0,0,1,7.3,6.8,3,3,0,0,0,2.4,1.1,2.62,2.62,0,0,0,2.7-1.8Zm8.7,32.1h0c.2,0,.3-.1.4-.1h.1c6.6-1.6,12-3.5,15.4-11.5,3.7-8.6,6.2-19,8.6-29.1l.8-3.2c4-16.5,8-30.9,16.6-40.8l.1-.1a11,11,0,0,1,1-1.1h0l.2-.2.2-.2c3.9-3.7,9.6-5.7,16.1-5.7a38.75,38.75,0,0,1,9.9,1.4h.1c.6.2,1.2.3,1.8.5a37.66,37.66,0,0,0,10.5,2h0a18.5,18.5,0,0,0,9.6-2.6h.1c.2-.1,23.4-12.8,35.8-51.2v-.1c.1-.2.1-.5.2-.7h0l.2-.5V62l.1-.2c.1-.3.2-.5.3-.8l.2-.5a2.2,2.2,0,0,0,.1-.8v-.3a3,3,0,0,0-4.6-2.2l-.2.1c-8.3,5.5-16.7,6-26,6.1-3.5,0-6.6.1-9.5.3h-.2c-19.9,1.4-35.6,7.5-47.1,33.1a251.65,251.65,0,0,1-20.4,41.6c-1.7,2.8-4.1,6.1-6.5,9.5l-.5.2c-9,12.5-21.2,29.7-17.9,42.8v.2a27.07,27.07,0,0,1,1,9.2h0v.2a6.75,6.75,0,0,1-.2,1.4h0v.4a3.12,3.12,0,0,0,3.1,3.1,1.27,1.27,0,0,1,.6-.1Zm137.5-80.2h0l.2-.1h.2a90.16,90.16,0,0,1,9.4-5.2h0c.1,0,.2-.1.4-.2a3,3,0,0,0,1.5-2.7v-.3a3,3,0,0,0-1.2-2.1h0a25.2,25.2,0,0,1-5.9-5.8c-3-4.6-3.8-9.1-2.4-13.4a19,19,0,0,1,7.2-9.1h.1c.1,0,.1-.1.2-.1h0a3,3,0,0,0,1.1-2.3v-.3a3.21,3.21,0,0,0-1-2l-.8-.7.1-.1a35.86,35.86,0,0,1-7.6-12.4h0l-.3-1.2a3.09,3.09,0,0,0-2.9-2.2,3,3,0,0,0-2.4,1.2,2.19,2.19,0,0,0-.3.5c-.1.1-.1.3-.2.4s0,.1-.1.2v.2c-2.6,10.2-1.6,21.5-.7,33.5v.1a190.48,190.48,0,0,1,1,21.4v.4a3,3,0,0,0,3.1,3,5.39,5.39,0,0,1,1.3-.7ZM410,259.84c11.1,0,16.8-4.7,25.4-11.7l.4-.3c1.2-1,2.4-2,3.7-3h.1l1.4-1.1.1-.1h.1a131,131,0,0,1,23.6-14.9,88.19,88.19,0,0,1,20.8-7.8,156.93,156.93,0,0,1,19.2-3.2l.4-.1c2.3-.3,4.7-.6,7.1-1a103.64,103.64,0,0,0,20.1-4.8c25-8.7,40.9-26.3,44.7-49.6,3-18.5,7.8-27,15.1-35.6.6-.7,1.3-1.5,2.2-2.5a3.23,3.23,0,0,0,.8-2.1v-.3a3.11,3.11,0,0,0-3-2.8,4.25,4.25,0,0,0-1.1.2l-1.4.5v-.1c-9.9,3.3-30.1,11.3-34.8,22.5-.1.4-.3.7-.4,1.1a44.78,44.78,0,0,1-8.9,14.2c-12.4,13.4-24.6,16.6-36.5,19.7-11.4,3-22.1,5.8-32.7,18l-.1.1c-.1.1-6.5,6.8-17.5,26-6.2,10.9-16.7,19.4-29.7,23.9a56,56,0,0,1-18.8,3.3,39.85,39.85,0,0,1-15.1-2.7h-.3l-.2-.2a9.37,9.37,0,0,0-3.6-.8,19.54,19.54,0,0,0-3.6.5,14.32,14.32,0,0,1-3.7.6h-1a3,3,0,0,0-2.2,1.2.35.35,0,0,0-.1.2v.1l-.2.2a3.08,3.08,0,0,0-.3,1.3,3.19,3.19,0,0,0,1.1,2.4l.1.1a18.82,18.82,0,0,0,2.3,1.6c7,4.5,15.9,6.7,26.2,6.8h.3v.2Zm129.5-208.3a37.65,37.65,0,0,0-5.7-2.2c-.3-.1-.6-.2-1-.3a22.35,22.35,0,0,1-.9,2.2,4.71,4.71,0,0,0-.4,1.7,4.06,4.06,0,0,0,4.1,4.1,2.2,2.2,0,0,0,.8-.1c.2,0,.3-.1.5-.1a29.39,29.39,0,0,0,6.7-2.7,26.31,26.31,0,0,0-4.1-2.6Zm41.6,284.9h0c.1-.1.2-.2.3-.2l.2-.1c5.1-3.7,10.2-7.7,15-11.8a266.36,266.36,0,0,0,51.8-58.9v-.1c.1-.1.2-.3.3-.4a3.26,3.26,0,0,0,.4-1.4v-.3a3.12,3.12,0,0,0-1.6-2.4h-.1a32.57,32.57,0,0,1-8.5-6.1c-10.7-10.5-17.4-28.9-19.8-54.6l-.2-1.7c-.8-9-2.5-27.7-11.4-41.7h0c-3.9-5.7-7.7-11.7-11.1-17.9l-.1-.2a3,3,0,0,0-2.6-1.4,3,3,0,0,0-2.4,1.2h0c0,.1-.1.1-.1.2l-.2.3c-3.6,6.3-6,13.8-7.8,24.3a65.59,65.59,0,0,1-27,43.4c-.1,0-.1.1-.2.1l-.1.1a3.39,3.39,0,0,0-.6.6.35.35,0,0,0-.1.2v.1l-.2.2a3.08,3.08,0,0,0-.3,1.3,3,3,0,0,0,1.9,2.8l.6.3a29.05,29.05,0,0,1,10.3,7.9c10.8,12.8,13.9,35.9,8.5,63.3-3.9,19.8-2.7,34.7-1,43.7a72.9,72.9,0,0,0,1.8,7.4c0,.1,0,.1.1.2a3,3,0,0,0,2.9,2.1,5.54,5.54,0,0,0,1.3-.5Zm73.9-81.9.1-.2.1-.2a223.18,223.18,0,0,0,16.8-36.3.35.35,0,0,1,.1-.2,2.77,2.77,0,0,0,.1-.9v-.3a3.12,3.12,0,0,0-1.6-2.4c-14.7-7-28.7-17.4-41.6-30.7l-.4-.4a2.88,2.88,0,0,0-2-.7,3,3,0,0,0-2.4,1.2.35.35,0,0,0-.1.2v.1l-.2.2a3.08,3.08,0,0,0-.3,1.3v.4l.1.3c.7,4.7,1.1,8.9,1.4,11.9l.2,1.7c1.5,16.5,5.8,38.6,17.6,50.4a27.08,27.08,0,0,0,7.6,5.5l.9.4a2.54,2.54,0,0,0,1.2.2,4.12,4.12,0,0,0,2.4-1.5Zm-277.2-23.7h0v-.4h0a4.2,4.2,0,0,0-2.9-3.5.37.37,0,0,1-.3-.1,22.76,22.76,0,0,1-3.6-1.3h-.1a44.91,44.91,0,0,1-4.7-2.6,22.18,22.18,0,0,1-2.4-1.7l-.1-.1a3.49,3.49,0,0,0-1.7-.6,2.94,2.94,0,0,0-2.3,1.2h0c-.1.1-.1.2-.2.3h0a3.19,3.19,0,0,0-.3,1.4,1.48,1.48,0,0,0,.1.7c0,.1,0,.1.1.2.1.3.2.7.3,1a23.52,23.52,0,0,0,6.8,10.2h0c2.3,1.9,4.7,2.9,6.7,2.8.2,0,.4-.1.6-.1a3.74,3.74,0,0,0,2.3-1.4,8.43,8.43,0,0,0,1.7-6Zm32.4-43.9v-.2a3,3,0,0,0-2.1-2.6H408a19.83,19.83,0,0,0-5.1-.6,12.1,12.1,0,0,0-1.9.1,28.57,28.57,0,0,0-12.5,4.4c-4,2.5-7.2,3.6-9.9,3.6-3.6,0-6-2.1-8.8-4.8a5.49,5.49,0,0,0-4-1.8,7.51,7.51,0,0,0-3.1.8,15.75,15.75,0,0,0-1.3,1c-.2.2-.3.4-.5.6h0l-.1.1a.35.35,0,0,0-.1.2v.1l-.2.2a3.08,3.08,0,0,0-.3,1.3,3,3,0,0,0,2.7,3h.2a8.78,8.78,0,0,1,4.5,1.9c6,4.5,4.8,8.3,3.8,12.1-.2.6-.3,1.2-.5,1.9l-.1.3a25.83,25.83,0,0,0-.6,3.7c-.1,1.1-.1,2.1-.1,3,.2,3.6,1.8,4.7,3.2,5.5l.6.3a1.88,1.88,0,0,0,.8.2,2,2,0,0,0,1.8-1.2c0-.1.1-.2.1-.3s.1-.2.2-.3v-.1c0-.1.1-.1.1-.2l.2-.2c.1-.1.2-.2.3-.2s.2-.1.3-.2.1-.1.2-.1.1-.1.2-.1h.1c.1,0,.1-.1.2-.1H380a.37.37,0,0,1,.3.1h.1l.2.1c.1,0,.2.1.4.2s.1.1.2.1.2.1.3.2l.2.2.2.2c.1.1.2.2.2.3h0c0,.1.1.1.1.2v.1c0,.1.1.1.1.2l.1.1c0,.1.1.1.1.2a3.54,3.54,0,0,0,1.6,2,6.83,6.83,0,0,0,3.4.8,12.22,12.22,0,0,0,2.6-.3c1-.3,1.5-.8,1.5-1.1a2.38,2.38,0,0,0-.7-1.7l-.1-.1a4.23,4.23,0,0,1-.5-.7c-.6-.9-1.2-1.6-2-2.8l-.3-.5a26.24,26.24,0,0,1-2.7-4.9l-.3-.7c-2-5-1.9-9.8.3-13.2a9.13,9.13,0,0,1,7.7-4.1h.1c4,0,5.5,3.4,6.2,5.7h0a2.5,2.5,0,0,0,2.5,1.8,2.13,2.13,0,0,0,1.2-.3c.1-.1.2-.1.3-.2s.2-.1.3-.2c2.2-1.5,2.8-1.9,3-4.9a7.36,7.36,0,0,1,2.5-5.5c.1-.1.2-.1.3-.2a3,3,0,0,0,1.1-2.3c-.3,0-.3,0-.3-.1Zm140.5-85.7c-.1-1.8-.3-3.6-.4-5.4v-.2a3.11,3.11,0,0,0-3-2.8,3,3,0,0,0-2.4,1.2.35.35,0,0,0-.1.2v.1l-.2.2c-9.9,15.3-20.3,22.5-23.8,24.7-.9,4.1-4.4,15.7-17.3,24.2l-.9.6a2.09,2.09,0,0,0-.6.4,47.35,47.35,0,0,1-27.3,6.5h0c-13.2-1.9-16.9,6.6-18.3,11.9l-.8,3.2c-2.5,10.4-5,21.1-9,30.2-5,11.6-13.8,13.7-21.5,15.5-4.5,1.1-8.7,2.1-12.1,4.8a3.92,3.92,0,0,1-1,.8c-2.5,2-4.9,3.8-7.2,5.3l-.7.5a38.94,38.94,0,0,1-12.4,5.6l-.5.1a.37.37,0,0,0-.3.1h-.2a3,3,0,0,0-2.3,3,3.37,3.37,0,0,0,.5,1.7h0a1.38,1.38,0,0,1,.3.4.1.1,0,0,0,.1.1,19.32,19.32,0,0,0,7.8,5.7l.2.1a34.35,34.35,0,0,0,12.8,2.3c14.1,0,33.6-7.5,43.1-24.1,11.1-19.3,17.7-26.5,18.4-27.2,11.8-13.6,24-16.8,35.8-19.9,11.5-3,22.3-5.8,33.5-17.9a35.3,35.3,0,0,0,7.6-12.2c.1-.4.3-.8.4-1.1,4-11.7,2.9-25.4,1.8-38.6Zm-165.2,46.2a.6.6,0,0,0-.1-.4v-.1a27.72,27.72,0,0,1-2.1-5.7V141a2.27,2.27,0,0,0-2-1.5,2.14,2.14,0,0,0-1.7.8h0a.35.35,0,0,1-.1.2h0a.1.1,0,0,1-.1.1.6.6,0,0,0-.1.4,81.34,81.34,0,0,1-3.1,8.1c-.7,1.5-1.4,2.8-2.1,4.1h0a.1.1,0,0,1-.1.1h0v.1h0c0,.1-.1.2-.1.4a.9.9,0,0,0,.1.5.1.1,0,0,0,.1.1,4.23,4.23,0,0,1,.5.7h0c.7,1.2,1.9,2.4,3.3,2.4a4.76,4.76,0,0,0,3.7-2.6c0-.1.1-.1.1-.2,1.1-2.1,2.4-4.4,3.7-6.6a.35.35,0,0,1,.1-.2h0a.9.9,0,0,0,.1-.5c-.1.1-.1.1-.1,0Zm-12.9,13c0-.1-.1-.1-.1-.2a.1.1,0,0,0-.1-.1,1.71,1.71,0,0,0-1.3-.7,1.61,1.61,0,0,0-1.3.6h0a.1.1,0,0,1-.1.1v.1h0a.1.1,0,0,1-.1.1h0a30.56,30.56,0,0,0-3.2,12.5v.2h0a1.58,1.58,0,0,0,1.6,1.6,1.61,1.61,0,0,0,.9-.3l.1-.1a10.63,10.63,0,0,0,1.1-.9l.1-.1a25.31,25.31,0,0,0,2.8-2.6l.1-.1h0l.1-.1h0c2.6-2.4,1.5-6.1-.6-10Z" transform="translate(-7.4 -13.14)"/></g></g></g></g><path class="cls-2" d="M399.5,523.24c-.74,32.8-9.76,62.41-34,85.85-16.05,15.51-35.81,23.46-57.64,25.71-39.59,4.09-75.62-3.47-101.68-36.54-20.44-26-26.92-56.4-23.93-88.8,2.58-27.94,12.46-53,32.92-73,15.35-15,34.13-23.39,55.13-26.18,30.25-4,59.55-1.17,85.21,17.26,27.35,19.66,39.44,48,43.49,80.4.33,2.65.41,5.34.49,8C399.56,518.37,399.5,520.81,399.5,523.24Zm-173.17.84a87.54,87.54,0,0,0,10.42,40.11c11.15,20.45,28.79,30.3,51.82,30.93,23.49.64,42.69-7.64,54.52-28.6,15.28-27.09,16.15-55.26,2.81-83.35-10.94-23-30.06-33.53-55.3-33.42s-44.05,10.66-55.37,33.52C229.2,495.47,226.43,508.48,226.33,524.08Z" transform="translate(-7.4 -13.14)"/><path class="cls-2" d="M509.63,634.72c-24.3,0-48.57-6.27-71.76-17.45-6.25-3-7.87-6.44-4.33-12.54,3.66-6.32,6.86-12.91,10.29-19.35,4.29-8,5.46-8.54,13.71-4.88,16.35,7.26,33.1,13.61,51.19,13.42,8.77-.09,18.26-1.39,26.11-5,17.07-7.86,18.16-26.59,2.1-36.15-9.89-5.9-21.35-9.21-32.21-13.41-11.34-4.39-23.19-7.66-34.15-12.81-27.62-13-39.46-34.51-35.75-62.93,3.6-27.55,22.56-47.08,51.27-52.7,20.07-3.94,39.85-1.46,59.28,3.73,11,3,21.69,7.23,32.54,10.85,5.72,1.91,6.82,5.57,4.53,10.83-3.21,7.37-6.39,14.75-9.4,22.2-2.19,5.39-5.45,6.31-11,4.55-14.12-4.49-28.27-9.2-42.76-12-8.07-1.57-17-.47-25.24,1.09-8.47,1.61-14.15,7.52-15.3,16.58-1,8.13,3.45,13.87,9.88,17.29,9,4.78,18.51,8.56,28,12.38,13.09,5.28,26.63,9.52,39.42,15.42,23,10.6,39,27.05,38.55,54.27-.43,27.74-15,46.59-39.34,58.35C541.34,633.12,526.44,635.2,509.63,634.72Z" transform="translate(-7.4 -13.14)"/><path class="cls-2" d="M707.55,634.73c-24.16,0-48.49-6.16-71.55-17.59-7.23-3.58-7.85-5.33-4.17-12.47,3.45-6.72,7.31-13.23,10.49-20.07,2.94-6.32,6.94-7.16,12.95-4.38,16.45,7.62,33.48,13.87,51.84,13.74a80.48,80.48,0,0,0,24.83-4.43c8.27-2.8,13.49-9.52,14.13-18.74.63-9-4.53-15.13-11.76-18.66-10.22-5-21-8.75-31.7-12.84-11.35-4.37-23.16-7.71-34.12-12.89-28-13.27-39.18-34.35-35.18-64.49,3.43-25.81,22.74-45.31,50.49-50.91,20.06-4,39.83-1.58,59.28,3.53,11,2.91,21.69,7.24,32.55,10.8,5.86,1.93,7.66,5.28,5,11.12-3.25,7.08-6.27,14.27-9.12,21.52-2.4,6.08-5.93,6.85-12.07,4.83-13.84-4.54-27.82-9-42.07-11.77-7.85-1.54-16.53-.55-24.54.91-8.41,1.52-14.41,7-15.81,16.12-1.36,8.81,3.46,14.86,10.46,18.4,10.16,5.13,20.91,9.14,31.49,13.43,12.18,4.93,24.77,9,36.59,14.61,22.66,10.83,37.78,27.37,37.07,54.39s-14.65,45.17-38,56.94C740.37,633,725,635.19,707.55,634.73Z" transform="translate(-7.4 -13.14)"/><path class="cls-2" d="M1001.18,632.58c-28.09-.4-21.74,3.72-32.77-22-3.45-8-6.9-16.11-10-24.31-1.5-4-3.67-5.71-8-5.67q-28.49.27-57,0c-4.25,0-6.6,1.37-8.17,5.46-5,12.94-10.49,25.69-15.53,38.61-2.15,5.49-5.64,8-11.61,7.92-10-.23-20,0-30-.07-9.41,0-10.12-1.06-6.31-9.53Q857.9,542.78,894,462.54c6.89-15.32,13.63-30.71,20.81-45.89,1.29-2.74,4.31-6.32,6.66-6.42s5.57,3.45,6.79,6.14Q975.4,520.08,1022.12,624c3.23,7.15,2.26,8.49-5.6,8.6C1011.41,632.64,1006.29,632.58,1001.18,632.58ZM942,545.85l-19.33-48.17h-1.83l-19.21,48.18Z" transform="translate(-7.4 -13.14)"/><path class="cls-2" d="M7.41,522.18q0-49.68,0-99.36c0-9.65.81-10.44,10.46-10.45q64.27,0,128.57,0c9.53,0,10.26.8,10.32,10.57,0,6.82-.28,13.65.08,20.45.36,7-2.52,9.54-9.42,9.49-28.73-.2-57.47-.09-86.2-.08-10,0-10,0-10,9.81,0,11.44.25,22.9-.11,34.33-.18,5.55,1.89,7.15,7.18,7.1,21.67-.2,43.34-.1,65-.06,9.91,0,10.69.85,10.75,11,0,6.82-.14,13.64,0,20.45.15,6.14-2.45,8.75-8.74,8.69-21.91-.19-43.84.19-65.74-.21-6.88-.13-8.63,2.18-8.53,8.76.35,23.37.16,46.75.11,70.13,0,8.52-1.26,9.73-9.72,9.8-7.55.06-15.1,0-22.65,0-10.84,0-11.37-.55-11.37-11.77Q7.4,571.49,7.41,522.18Z" transform="translate(-7.4 -13.14)"/></svg>