<?xml version="1.0" encoding="utf-8"?>
<!-- Generator: Adobe Illustrator 22.1.0, SVG Export Plug-In . SVG Version: 6.00 Build 0)  -->
<svg version="1.1" id="Layer_1" xmlns="http://www.w3.org/2000/svg" xmlns:xlink="http://www.w3.org/1999/xlink" x="0px" y="0px"
	 viewBox="0 0 396 123" style="enable-background:new 0 0 396 123;" xml:space="preserve">
<style type="text/css">
	.st0{fill:#FFFFFF;}
</style>
<g>
	<g>
		<g>
			<path d="M1,1c132,0,264,0,396,0c0,42,0,84,0,126c-132,0-264,0-396,0C1,85,1,43,1,1z M69.5,96.6c-17.1,3.5-26.7-1.7-29-16.6
				c-1.2-7.6-1.1-15.7,0-23.3c1.8-12.6,9.2-18.3,22-18.5c2.8,0,5.6,0.2,8.5,0.4c3.8,0.3,9,2.5,11.1,0.8c2.5-2,2-7.4,3.3-11.1
				c1.4-4-0.2-5.5-3.6-6.5c-10-3-20.2-3.7-30.6-2.2c-15.4,2.1-25,10.9-29.2,25.6c-4.2,14.5-4.4,29.3-0.7,43.9
				c2.5,9.9,7.7,18.3,17.3,22.7c16.1,7.2,32.3,6.8,48.2-0.7c1.4-0.7,3-2.9,3.1-4.4c0.2-14.2,0.2-28.3,0-42.5c0-1.2-1.5-3.3-2.4-3.3
				c-10.1-0.2-20.2-0.2-30.9-0.2c0,5.4-0.2,10.2,0.2,15c0.1,1.1,2.1,2.7,3.3,2.9c3,0.4,6.2,0.1,9.6,0.1
				C69.5,85.1,69.5,90.7,69.5,96.6z M224.1,56.6c-9,0-17.4,0-26.3,0c0-11.4,0-22.5,0-34.2c-5.3,0-10.1,0.3-14.9-0.1
				c-4.3-0.3-5.3,1.4-5.3,5.5c0.1,25.3,0.1,50.6,0.1,75.9c0,11.3,0,11.3,11.3,11.3c8.9,0,8.9,0,8.9-9c0-10.1,0-20.2,0-30.4
				c9,0,17.4,0,26.1,0c0,11.7,0.1,23-0.1,34.3c-0.1,3.7,0.7,5.6,5,5.2c3.5-0.4,7-0.3,10.5,0c4.1,0.4,5.1-1.3,5.1-5.1
				c-0.2-14.5-0.1-29-0.1-43.5c0-13-0.1-26,0.1-39c0.1-3.9-1.3-5.4-5.2-5.1c-3.5,0.2-7,0.2-10.5,0c-3.7-0.3-5,1.1-4.9,4.9
				C224.3,36.9,224.1,46.6,224.1,56.6z M334.8,112.1c6.1,1.6,11.9,3.7,17.9,4.5c12.8,1.6,21.8-4.3,24.3-16.8
				c1.8-8.9,2.6-18.3,1.6-27.2c-2.1-19.3-16.1-27.1-34.6-20.7c-1.4,0.5-2.7,0.9-4.8,1.5c0-10.5,0-20.4,0-30.9
				c-5.7,0-10.8,0.1-15.9,0c-3.2-0.1-4.3,1.1-4.3,4.4c0.1,28,0,56,0.1,84c0,1.2,0.2,2.9,0.9,3.7
				C322.5,116.9,333.4,114.5,334.8,112.1z M253.2,52c0,17.2-0.6,33.9,0.2,50.4c0.4,7.7,6.4,12,14,13.6c9.9,2.1,19.1,0.1,27.9-4.6
				c3.9,6.8,9.8,2.2,14.9,3.7c0-21.4,0-42.1,0-62.8c-6.7,0-12.9,0-19.7,0c0,2.2,0,4,0,5.8c0,11.5,0,23,0,34.5c0,5.3-2.5,7.3-9.2,7.5
				c-5.9,0.2-8.2-1.6-8.3-7.3c-0.2-10-0.1-20-0.1-30c0-3.4,0-6.9,0-10.5c-1.4-0.2-2.2-0.4-3-0.4C264.4,52,258.9,52,253.2,52z
				 M135.8,69.6c0,1.5,0,3.3,0,5.1c0,7.8-0.2,15.7,0.1,23.5c0.4,10.3,6.4,16.7,16.6,17.9c2.6,0.3,5.3,0.5,8,0.4
				c9.5-0.5,9.2-0.6,9.6-10.1c0.3-5.3-1.3-7.1-6.6-6.4c-3.7,0.4-7.5-0.8-7.6-5.3c-0.3-8.4-0.1-16.8-0.1-25.4
				c1.1-0.2,1.8-0.3,2.4-0.4c12.6-0.6,12.6-0.6,11.7-13.5c0-0.2,0.1-0.4,0-0.5c-1.1-1.1-2.2-2.9-3.4-3c-3.4-0.4-6.9-0.1-11-0.1
				c0-6.3,0-11.8,0-17.5c-6.9,0-13.1,0-19.7,0c0,4.6-0.2,9,0.1,13.2c0.3,3.7-0.9,5.4-4.7,6c-2,0.3-5.2,1.7-5.4,3.1
				c-0.6,3.7-0.6,7.8,0.6,11.2c0.4,1.2,5.1,0.8,7.8,1.2C134.6,69,134.9,69.2,135.8,69.6z M119.2,83.5c0-5.5,0-11,0-16.5
				c0-16.1,0-16.1-16.2-15.2c-0.2,0-0.4-0.1-0.5,0c-1.1,1-3.2,2.1-3.2,3.2c-0.2,18.8-0.2,37.6,0,56.4c0,1.2,2.1,3.3,3.5,3.5
				c3.9,0.5,8,0,12,0.2c3.6,0.2,4.6-1.3,4.5-4.6C119.1,101.5,119.2,92.5,119.2,83.5z M120.5,35.8c-0.1-6.5-4.9-11.3-11.4-11.1
				c-6.1,0.2-10.9,5.1-10.9,11.3c0,6.3,5.1,11.2,11.5,11.1C115.9,46.9,120.6,42.1,120.5,35.8z"/>
			<path class="st0" d="M69.5,96.6c0-5.9,0-11.5,0-17.8c-3.4,0-6.5,0.3-9.6-0.1c-1.3-0.2-3.3-1.8-3.3-2.9c-0.4-4.8-0.2-9.6-0.2-15
				c10.7,0,20.8-0.1,30.9,0.2c0.9,0,2.4,2.2,2.4,3.3c0.2,14.2,0.2,28.3,0,42.5c0,1.5-1.6,3.7-3.1,4.4c-15.9,7.5-32.2,7.9-48.2,0.7
				c-9.6-4.3-14.8-12.8-17.3-22.7c-3.7-14.6-3.5-29.4,0.7-43.9c4.3-14.7,13.8-23.5,29.2-25.6c10.4-1.4,20.6-0.7,30.6,2.2
				c3.4,1,5.1,2.5,3.6,6.5c-1.4,3.7-0.9,9.1-3.3,11.1c-2.1,1.7-7.3-0.5-11.1-0.8c-2.8-0.3-5.6-0.5-8.5-0.4
				c-12.8,0.2-20.2,5.9-22,18.5c-1.1,7.6-1.1,15.7,0,23.3C42.8,94.9,52.4,100.1,69.5,96.6z"/>
			<path class="st0" d="M224.1,56.6c0-10.1,0.1-19.7-0.1-29.4c-0.1-3.7,1.2-5.1,4.9-4.9c3.5,0.2,7,0.2,10.5,0
				c3.9-0.3,5.2,1.2,5.2,5.1c-0.2,13-0.1,26-0.1,39c0,14.5-0.1,29,0.1,43.5c0,3.8-1,5.5-5.1,5.1c-3.5-0.3-7-0.4-10.5,0
				c-4.2,0.4-5-1.5-5-5.2c0.2-11.3,0.1-22.6,0.1-34.3c-8.7,0-17.1,0-26.1,0c0,10.2,0,20.3,0,30.4c0,9,0,9-8.9,9
				c-11.3,0-11.3,0-11.3-11.3c0-25.3,0.1-50.6-0.1-75.9c0-4,1-5.8,5.3-5.5c4.8,0.3,9.6,0.1,14.9,0.1c0,11.7,0,22.8,0,34.2
				C206.7,56.6,215.1,56.6,224.1,56.6z"/>
			<path class="st0" d="M334.8,112.1c-1.4,2.4-12.3,4.7-14.8,2.3c-0.8-0.7-0.9-2.4-0.9-3.7c-0.1-28,0-56-0.1-84
				c0-3.3,1.1-4.5,4.3-4.4c5.1,0.2,10.3,0,15.9,0c0,10.5,0,20.4,0,30.9c2-0.6,3.4-1,4.8-1.5c18.5-6.4,32.5,1.4,34.6,20.7
				c1,8.9,0.2,18.4-1.6,27.2c-2.5,12.5-11.5,18.4-24.3,16.8C346.7,115.8,340.9,113.7,334.8,112.1z M338.9,83.3c0,3,0.3,6-0.1,9
				c-0.6,4.7,1.7,6.5,5.9,7.4c6.4,1.4,11.3,0.4,12.7-3.8c2.7-8.1,3-16.4-0.1-24.4c-1.7-4.5-6.2-5.6-12.5-4.4c-4.8,0.9-6.7,3.4-6,8.3
				C339.2,77.9,338.9,80.6,338.9,83.3z"/>
			<path class="st0" d="M253.2,52c5.7,0,11.2,0,16.6,0c0.8,0,1.6,0.2,3,0.4c0,3.6,0,7,0,10.5c0,10-0.1,20,0.1,30
				c0.1,5.6,2.4,7.5,8.3,7.3c6.7-0.2,9.2-2.2,9.2-7.5c0-11.5,0-23,0-34.5c0-1.8,0-3.6,0-5.8c6.8,0,13,0,19.7,0c0,20.7,0,41.4,0,62.8
				c-5.1-1.6-11,3-14.9-3.7c-8.7,4.7-17.9,6.7-27.9,4.6c-7.6-1.6-13.6-6-14-13.6C252.7,85.8,253.2,69.2,253.2,52z"/>
			<path class="st0" d="M135.8,69.6c-0.9-0.4-1.2-0.6-1.6-0.6c-2.7-0.4-7.4,0-7.8-1.2c-1.2-3.4-1.2-7.5-0.6-11.2
				c0.2-1.3,3.4-2.8,5.4-3.1c3.8-0.6,5-2.3,4.7-6c-0.3-4.3-0.1-8.6-0.1-13.2c6.6,0,12.8,0,19.7,0c0,5.7,0,11.2,0,17.5
				c4.1,0,7.6-0.3,11,0.1c1.2,0.2,2.3,1.9,3.4,3c0.1,0.1,0,0.3,0,0.5c0.9,12.8,0.9,12.8-11.7,13.5c-0.6,0-1.3,0.2-2.4,0.4
				c0,8.5-0.2,17,0.1,25.4c0.2,4.5,4,5.7,7.6,5.3c5.3-0.6,6.9,1.1,6.6,6.4c-0.4,9.5-0.1,9.6-9.6,10.1c-2.6,0.1-5.3,0-8-0.4
				c-10.2-1.3-16.2-7.6-16.6-17.9c-0.3-7.8-0.1-15.7-0.1-23.5C135.8,72.9,135.8,71.1,135.8,69.6z"/>
			<path class="st0" d="M119.2,83.5c0,9-0.1,18,0.1,27c0.1,3.4-0.9,4.9-4.5,4.6c-4-0.3-8,0.2-12-0.2c-1.3-0.2-3.5-2.2-3.5-3.5
				c-0.2-18.8-0.2-37.6,0-56.4c0-1.1,2.1-2.1,3.2-3.2c0.1-0.1,0.3,0,0.5,0c16.2-0.9,16.2-0.9,16.2,15.2
				C119.2,72.5,119.2,78,119.2,83.5z"/>
			<path class="st0" d="M120.5,35.8c0.1,6.3-4.6,11.1-10.8,11.2c-6.4,0.1-11.5-4.8-11.5-11.1c0-6.1,4.8-11.1,10.9-11.3
				C115.6,24.5,120.5,29.3,120.5,35.8z"/>
			<path d="M338.9,83.3c0-2.7,0.3-5.4-0.1-8c-0.7-4.9,1.2-7.4,6-8.3c6.3-1.2,10.8,0,12.5,4.4c3.1,8.1,2.8,16.4,0.1,24.4
				c-1.4,4.2-6.3,5.2-12.7,3.8c-4.2-0.9-6.5-2.7-5.9-7.4C339.2,89.3,338.9,86.3,338.9,83.3z"/>
		</g>
	</g>
</g>
</svg>
