<?xml version="1.0" encoding="utf-8"?>
<!-- Generator: Adobe Illustrator 23.0.1, SVG Export Plug-In . SVG Version: 6.00 Build 0)  -->
<svg version="1.1" id="Layer_1" xmlns="http://www.w3.org/2000/svg" xmlns:xlink="http://www.w3.org/1999/xlink" x="0px" y="0px"
	 viewBox="0 0 400 245" style="enable-background:new 0 0 400 245;" xml:space="preserve">
<style type="text/css">
	.st0{fill:#FFFFFF;}
	.st1{fill:#EE3524;}
</style>
<g>
	<g>
		<path d="M50.2,120V97.3c0-3-1.5-6.2-9-6.2v-1.9h28.3v1.9c-7.4,0-8.9,3.3-8.9,6.2v51.1c0,2.9,1.5,6.2,8.9,6.2v1.9H41.2v-1.9
			c7.4,0,9-3.3,9-6.2v-24.2H19.3v24.2c0,2.9,1.5,6.2,9,6.2v1.9H0v-1.9c7.4,0,9-3.3,9-6.2V97.3c0-3-1.5-6.2-9-6.2v-1.9h28.3v1.9
			c-7.4,0-9,3.3-9,6.2V120H50.2"/>
		<path d="M71.9,136h2.3c3.2,9.5,10.3,18,21.1,18c8.2,0,13.8-7.1,11.5-15.1c-4.2-14.2-31.9-14.9-31.9-34.3c0-10.1,8-17,18-17
			c10.8,0,15.7,7.5,18.1,0h2.1l2.2,21.7h-2.5c-2.3-9.5-9.1-17.5-18.5-17.5c-6.1,0-10.7,3.4-10.7,9.8c0,5.9,6.4,10.1,10.8,12.7
			c13.8,8.3,23.2,12.7,23.2,24.9c0,9.2-7.6,18.6-21.5,18.6c-10.6,0-17.9-7.4-18.9,0h-2.2L71.9,136"/>
		<path d="M151.2,119.3c10.3,0,16.3-4.4,16.3-12.6c0-7.7-4.9-11.9-12-13.2c-9.4-0.6-12.6-0.8-12.6,2.7v23.1H151.2 M142.9,147.3
			c0,3.6,0.9,5.4,8.3,5.4c10.6,0,18.4-3.2,18.4-15.1c0-12.1-12.1-14.4-21.7-14.4h-5.1V147.3z M132.5,97.3c0-3-1.5-6.2-9.8-6.2v-1.9
			H150c15.7,0,27.9,4.2,27.9,17.2c0,8.5-5.7,12.9-13.5,14.7v0.2c8.7,1.6,17,7,17,16.8c0,12.2-10.6,18.5-26.6,18.5h-32.1v-1.9
			c8.2,0,9.8-3.3,9.8-6.2V97.3z"/>
		<path d="M242.4,110.1h-2.4c-2.9-11.2-10.4-18.8-22-18.8c-16.8,0-24,13.5-24,31.8c0,14.2,7.4,29.6,24.1,29.6
			c10,0,16.8-3.3,23.8-10.2l1.7,2c-6.2,7.6-16.7,12.7-26.5,12.7c-19.8,0-35-12.7-35-35c0-20.2,14.3-35.2,34.8-35.2
			c13.9,0,19,8.4,22.4,0.1h2.1L242.4,110.1"/>
		<rect x="297.3" y="87.3" class="st0" width="68.4" height="68.4"/>
		<polyline class="st1" points="297.3,87.2 365.8,87.2 331.6,121.5 297.3,87.2 		"/>
		<polyline class="st1" points="297.3,155.7 365.8,155.7 331.6,121.5 297.3,155.7 		"/>
		<polyline class="st1" points="297.3,87.2 297.3,155.7 263.1,121.5 297.3,87.2 		"/>
		<polyline class="st1" points="365.8,87.2 365.8,155.7 400,121.5 365.8,87.2 		"/>
	</g>
</g>
</svg>
