<svg version="1.1" id="Layer_1" xmlns="http://www.w3.org/2000/svg" xmlns:xlink="http://www.w3.org/1999/xlink" x="0px" y="0px"
	 width="100%" viewBox="0 0 362 114" enable-background="new 0 0 362 114" xml:space="preserve">
<path fill="#EDF1F4" opacity="1.000000" stroke="none" 
	d="
M231.000000,115.000000 
	C154.000015,115.000000 77.500038,115.000000 1.000041,115.000000 
	C1.000027,77.000031 1.000027,39.000053 1.000014,1.000062 
	C121.666603,1.000041 242.333206,1.000041 362.999878,1.000021 
	C362.999908,38.999935 362.999908,76.999870 362.999939,114.999901 
	C319.166656,115.000000 275.333344,115.000000 231.000000,115.000000 
M59.862072,101.970612 
	C63.835209,101.997368 68.041466,103.562599 72.218704,100.198624 
	C92.035919,93.619202 105.355957,68.176277 100.255089,46.645622 
	C92.711182,14.802941 57.866478,-0.082010 29.561676,16.446833 
	C9.286150,28.286907 1.197235,55.566032 11.414573,76.543198 
	C19.298519,92.729698 32.291286,101.373833 50.665985,103.970734 
	C53.458862,103.280701 56.251736,102.590668 59.862072,101.970612 
M205.500687,84.199203 
	C212.399414,88.239815 219.144638,86.083992 226.643051,83.744644 
	C225.765427,88.677650 225.469864,94.426537 222.447983,97.455452 
	C216.294113,103.623665 208.247314,100.164612 200.478134,99.044769 
	C201.293198,100.781586 202.357346,102.718834 203.691833,102.927528 
	C208.378693,103.660530 213.224655,104.470909 217.888260,104.012123 
	C225.704224,103.243233 230.672180,97.886108 230.848648,90.051796 
	C231.170090,75.781380 230.939941,61.498547 230.939941,47.312027 
	C217.087570,42.224380 205.673264,44.356789 200.534012,52.868362 
	C195.884140,60.569435 195.427353,77.864731 205.500687,84.199203 
M149.430389,44.508636 
	C149.430389,39.749989 149.430389,34.991344 149.430389,29.932461 
	C147.400665,30.070707 145.993011,30.166586 144.127350,30.293657 
	C144.127350,38.663727 144.127350,46.727474 144.127350,54.821381 
	C134.224609,54.821381 124.806412,54.821381 114.979660,54.821381 
	C114.979660,46.522472 114.979660,38.437946 114.979660,29.987638 
	C113.038170,30.075022 111.528709,30.142962 110.133606,30.205753 
	C110.133606,49.039135 110.133606,67.317062 110.133606,85.645363 
	C111.855881,85.645363 113.352760,85.645363 115.197372,85.645363 
	C115.197372,76.686371 115.197372,68.093483 115.197372,59.382183 
	C124.965256,59.382183 134.379333,59.382183 144.354797,59.382183 
	C144.354797,68.323967 144.354797,77.046501 144.354797,86.047989 
	C146.349701,85.933289 147.765457,85.851891 149.430283,85.756172 
	C149.430283,72.129341 149.430283,58.817757 149.430389,44.508636 
M350.437866,60.849506 
	C350.159821,51.181396 347.745178,46.247086 341.059662,45.447041 
	C335.453033,44.776108 329.583527,45.955616 323.884491,46.719269 
	C322.847107,46.858276 322.070129,48.940826 321.172943,50.126171 
	C334.058594,47.753826 339.953064,47.807533 343.132111,51.508808 
	C346.144836,55.016418 346.167175,59.202774 345.433411,63.029659 
	C340.075867,63.029659 335.232178,62.649963 330.470764,63.114140 
	C322.291321,63.911533 317.702698,70.160027 319.260803,77.675079 
	C320.785645,85.029449 327.876709,88.693909 337.115509,86.747276 
	C341.048920,85.918488 344.792542,83.131859 348.996857,85.899048 
	C349.198456,86.031754 349.806763,85.546555 350.438354,85.248863 
	C350.438354,77.421982 350.438354,69.601357 350.437866,60.849506 
M278.690582,83.154480 
	C269.099457,82.350494 264.756073,77.208504 265.296509,66.745377 
	C274.150269,66.745377 283.043640,66.745377 291.786041,66.745377 
	C294.588959,56.066353 290.214844,46.933765 281.779968,45.048084 
	C271.394897,42.726425 263.124054,48.202583 260.909332,59.043785 
	C260.348938,61.787014 260.033203,64.649391 260.112274,67.442657 
	C260.565063,83.435104 274.080353,91.852119 288.742920,85.242874 
	C289.895569,84.723320 290.480743,82.944893 291.627045,81.333466 
	C286.736755,82.085716 283.154022,82.636833 278.690582,83.154480 
M163.368195,98.212440 
	C158.432129,99.903992 158.432129,99.903992 160.035248,103.681732 
	C167.378906,101.834053 171.313614,99.760818 173.982361,93.629669 
	C180.762115,78.053947 186.921768,62.208313 193.344345,46.434731 
	C189.634842,45.045830 188.128098,46.163963 187.101410,49.076637 
	C183.466187,59.389816 179.625626,69.630615 175.514938,80.848343 
	C171.560257,69.835297 167.791321,59.793446 164.395279,49.627037 
	C163.262268,46.235271 161.758377,44.882225 158.108658,46.354305 
	C162.434128,57.847233 166.363724,69.480217 171.231857,80.706200 
	C173.568756,86.095139 172.301910,89.943733 168.986526,93.780014 
	C167.605362,95.378174 165.723145,96.543304 163.368195,98.212440 
M303.357300,78.380005 
	C303.357300,80.828232 303.357300,83.276466 303.357300,86.054840 
	C305.297272,85.943367 306.691376,85.863258 308.074463,85.783783 
	C308.074463,72.292091 308.074463,59.179867 308.074463,45.736851 
	C306.455048,45.916626 305.043823,46.073292 303.357269,46.260525 
	C303.357269,56.828918 303.357269,67.120941 303.357300,78.380005 
M244.357712,66.499603 
	C244.357712,72.922409 244.357712,79.345215 244.357712,86.109856 
	C246.371155,85.947594 247.745026,85.836876 249.239471,85.716438 
	C249.239471,72.688934 249.243011,60.056007 249.225586,47.423107 
	C249.224930,46.954422 249.019882,46.486015 248.843384,45.732796 
	C247.389786,45.912319 245.980392,46.086380 244.357758,46.286781 
	C244.357758,52.887146 244.357758,59.193703 244.357712,66.499603 
M302.627838,30.987480 
	C303.474976,32.633175 304.128052,34.450012 305.315155,35.795849 
	C305.588135,36.105312 308.260803,35.114204 308.801758,34.146988 
	C309.369232,33.132401 308.921417,30.292135 308.536285,30.217558 
	C306.748993,29.871464 304.829437,30.208466 302.627838,30.987480 
M243.227142,32.446495 
	C244.714066,33.597347 246.108002,34.945877 247.768814,35.727016 
	C248.088913,35.877567 250.060486,33.863293 250.168762,32.741364 
	C250.278336,31.605995 248.723434,29.229008 248.412216,29.312572 
	C246.630875,29.790825 245.002838,30.840174 243.227142,32.446495 
z"/>
<path fill="#91C84C" opacity="1.000000" stroke="none" 
	d="
M49.769051,103.929237 
	C32.291286,101.373833 19.298519,92.729698 11.414573,76.543198 
	C1.197235,55.566032 9.286150,28.286907 29.561676,16.446833 
	C57.866478,-0.082010 92.711182,14.802941 100.255089,46.645622 
	C105.355957,68.176277 92.035919,93.619202 71.499969,100.061539 
	C66.595268,98.284645 62.409302,96.644844 58.252144,94.570343 
	C58.353977,92.392921 58.427006,90.650185 58.883446,88.917206 
	C61.390759,88.574074 63.557133,88.384033 65.631950,87.842949 
	C85.116570,82.761597 96.471130,62.325371 90.256401,43.493290 
	C87.055695,33.794441 80.537979,27.558125 70.253456,26.435326 
	C62.130966,25.548565 55.561550,28.531900 52.127869,36.576801 
	C52.000515,36.875195 51.821079,37.275513 51.565891,37.377117 
	C44.225746,40.299568 47.242222,45.472160 48.780754,50.277534 
	C49.489105,52.489960 50.377762,54.644661 50.710918,56.909630 
	C41.994686,56.993729 33.752197,56.993729 25.028439,56.993729 
	C28.040552,69.418861 35.471859,76.691841 46.875774,79.764633 
	C49.832497,80.561325 50.303650,81.713165 49.400093,84.154648 
	C46.873428,84.374008 44.738613,84.487457 42.651512,84.864815 
	C38.028931,85.700584 36.466770,88.810616 36.966877,93.151764 
	C37.446339,97.313713 39.911095,99.607086 44.073700,99.937149 
	C46.039967,100.093056 48.024998,100.012291 50.003532,100.429153 
	C49.926712,101.856102 49.847881,102.892670 49.769051,103.929237 
z"/>
<path fill="#202020" opacity="1.000000" stroke="none" 
	d="
M205.161133,84.041901 
	C195.427353,77.864731 195.884140,60.569435 200.534012,52.868362 
	C205.673264,44.356789 217.087570,42.224380 230.939941,47.312027 
	C230.939941,61.498547 231.170090,75.781380 230.848648,90.051796 
	C230.672180,97.886108 225.704224,103.243233 217.888260,104.012123 
	C213.224655,104.470909 208.378693,103.660530 203.691833,102.927528 
	C202.357346,102.718834 201.293198,100.781586 200.478134,99.044769 
	C208.247314,100.164612 216.294113,103.623665 222.447983,97.455452 
	C225.469864,94.426537 225.765427,88.677650 226.643051,83.744644 
	C219.144638,86.083992 212.399414,88.239815 205.161133,84.041901 
M205.798874,53.442928 
	C201.593384,60.313602 201.405075,67.674049 203.880432,75.010368 
	C206.540268,82.893463 219.527161,85.546341 225.346085,79.620689 
	C225.844254,79.113358 226.064377,78.133179 226.068420,77.370834 
	C226.116669,68.241089 226.099594,59.110996 226.099594,50.112335 
	C217.896927,47.262886 211.638214,48.172127 205.798874,53.442928 
z"/>
<path fill="#1C1D1D" opacity="1.000000" stroke="none" 
	d="
M149.430328,45.007401 
	C149.430283,58.817757 149.430283,72.129341 149.430283,85.756172 
	C147.765457,85.851891 146.349701,85.933289 144.354797,86.047989 
	C144.354797,77.046501 144.354797,68.323967 144.354797,59.382183 
	C134.379333,59.382183 124.965256,59.382183 115.197372,59.382183 
	C115.197372,68.093483 115.197372,76.686371 115.197372,85.645363 
	C113.352760,85.645363 111.855881,85.645363 110.133606,85.645363 
	C110.133606,67.317062 110.133606,49.039135 110.133606,30.205753 
	C111.528709,30.142962 113.038170,30.075022 114.979660,29.987638 
	C114.979660,38.437946 114.979660,46.522472 114.979660,54.821381 
	C124.806412,54.821381 134.224609,54.821381 144.127350,54.821381 
	C144.127350,46.727474 144.127350,38.663727 144.127350,30.293657 
	C145.993011,30.166586 147.400665,30.070707 149.430389,29.932461 
	C149.430389,34.991344 149.430389,39.749989 149.430328,45.007401 
z"/>
<path fill="#1E1F1F" opacity="1.000000" stroke="none" 
	d="
M350.438110,61.315121 
	C350.438354,69.601357 350.438354,77.421982 350.438354,85.248863 
	C349.806763,85.546555 349.198456,86.031754 348.996857,85.899048 
	C344.792542,83.131859 341.048920,85.918488 337.115509,86.747276 
	C327.876709,88.693909 320.785645,85.029449 319.260803,77.675079 
	C317.702698,70.160027 322.291321,63.911533 330.470764,63.114140 
	C335.232178,62.649963 340.075867,63.029659 345.433411,63.029659 
	C346.167175,59.202774 346.144836,55.016418 343.132111,51.508808 
	C339.953064,47.807533 334.058594,47.753826 321.172943,50.126171 
	C322.070129,48.940826 322.847107,46.858276 323.884491,46.719269 
	C329.583527,45.955616 335.453033,44.776108 341.059662,45.447041 
	C347.745178,46.247086 350.159821,51.181396 350.438110,61.315121 
M344.280518,80.671326 
	C344.987610,76.333504 345.694672,71.995689 346.506897,67.012787 
	C340.187714,67.012787 335.055969,66.542953 330.055725,67.152260 
	C325.554718,67.700745 323.947845,71.443436 324.165375,75.663071 
	C324.378815,79.803314 326.638947,82.904053 330.897766,82.862808 
	C335.101410,82.822098 339.293976,81.639656 344.280518,80.671326 
z"/>
<path fill="#232323" opacity="1.000000" stroke="none" 
	d="
M279.130920,83.171219 
	C283.154022,82.636833 286.736755,82.085716 291.627045,81.333466 
	C290.480743,82.944893 289.895569,84.723320 288.742920,85.242874 
	C274.080353,91.852119 260.565063,83.435104 260.112274,67.442657 
	C260.033203,64.649391 260.348938,61.787014 260.909332,59.043785 
	C263.124054,48.202583 271.394897,42.726425 281.779968,45.048084 
	C290.214844,46.933765 294.588959,56.066353 291.786041,66.745377 
	C283.043640,66.745377 274.150269,66.745377 265.296509,66.745377 
	C264.756073,77.208504 269.099457,82.350494 279.130920,83.171219 
M284.318878,62.996197 
	C285.559235,62.878746 286.799591,62.761292 287.995850,62.648018 
	C288.072479,53.073685 284.552399,48.395569 277.526917,48.332470 
	C270.230774,48.266945 265.290131,54.148876 265.425781,62.996254 
	C271.398651,62.996254 277.378357,62.996254 284.318878,62.996197 
z"/>
<path fill="#202021" opacity="1.000000" stroke="none" 
	d="
M163.718475,98.058884 
	C165.723145,96.543304 167.605362,95.378174 168.986526,93.780014 
	C172.301910,89.943733 173.568756,86.095139 171.231857,80.706200 
	C166.363724,69.480217 162.434128,57.847233 158.108658,46.354305 
	C161.758377,44.882225 163.262268,46.235271 164.395279,49.627037 
	C167.791321,59.793446 171.560257,69.835297 175.514938,80.848343 
	C179.625626,69.630615 183.466187,59.389816 187.101410,49.076637 
	C188.128098,46.163963 189.634842,45.045830 193.344345,46.434731 
	C186.921768,62.208313 180.762115,78.053947 173.982361,93.629669 
	C171.313614,99.760818 167.378906,101.834053 160.035248,103.681732 
	C158.432129,99.903992 158.432129,99.903992 163.718475,98.058884 
z"/>
<path fill="#477B4C" opacity="1.000000" stroke="none" 
	d="
M50.001526,100.038765 
	C48.024998,100.012291 46.039967,100.093056 44.073700,99.937149 
	C39.911095,99.607086 37.446339,97.313713 36.966877,93.151764 
	C36.466770,88.810616 38.028931,85.700584 42.651512,84.864815 
	C44.738613,84.487457 46.873428,84.374008 49.473198,84.552658 
	C49.927349,86.324554 49.894894,87.684639 49.437691,89.057724 
	C47.870453,89.078453 46.557362,88.730675 45.625721,89.177773 
	C44.251026,89.837486 43.147816,91.062927 41.928986,92.047440 
	C43.143921,93.044044 44.221565,94.401764 45.614109,94.931183 
	C46.892902,95.417358 48.511024,95.011002 50.418648,95.126633 
	C53.312881,95.171944 55.768108,95.088486 58.223335,95.005035 
	C62.409302,96.644844 66.595268,98.284645 71.141655,100.065659 
	C68.041466,103.562599 63.835209,101.997368 59.275322,101.575050 
	C55.792889,100.799248 52.897209,100.419006 50.001526,100.038765 
z"/>
<path fill="#282829" opacity="1.000000" stroke="none" 
	d="
M303.357300,77.896484 
	C303.357269,67.120941 303.357269,56.828918 303.357269,46.260525 
	C305.043823,46.073292 306.455048,45.916626 308.074463,45.736851 
	C308.074463,59.179867 308.074463,72.292091 308.074463,85.783783 
	C306.691376,85.863258 305.297272,85.943367 303.357300,86.054840 
	C303.357300,83.276466 303.357300,80.828232 303.357300,77.896484 
z"/>
<path fill="#282829" opacity="1.000000" stroke="none" 
	d="
M244.357727,65.999931 
	C244.357758,59.193703 244.357758,52.887146 244.357758,46.286781 
	C245.980392,46.086380 247.389786,45.912319 248.843384,45.732796 
	C249.019882,46.486015 249.224930,46.954422 249.225586,47.423107 
	C249.243011,60.056007 249.239471,72.688934 249.239471,85.716438 
	C247.745026,85.836876 246.371155,85.947594 244.357712,86.109856 
	C244.357712,79.345215 244.357712,72.922409 244.357727,65.999931 
z"/>
<path fill="#222222" opacity="1.000000" stroke="none" 
	d="
M302.792542,30.644196 
	C304.829437,30.208466 306.748993,29.871464 308.536285,30.217558 
	C308.921417,30.292135 309.369232,33.132401 308.801758,34.146988 
	C308.260803,35.114204 305.588135,36.105312 305.315155,35.795849 
	C304.128052,34.450012 303.474976,32.633175 302.792542,30.644196 
z"/>
<path fill="#222222" opacity="1.000000" stroke="none" 
	d="
M243.274963,32.071064 
	C245.002838,30.840174 246.630875,29.790825 248.412216,29.312572 
	C248.723434,29.229008 250.278336,31.605995 250.168762,32.741364 
	C250.060486,33.863293 248.088913,35.877567 247.768814,35.727016 
	C246.108002,34.945877 244.714066,33.597347 243.274963,32.071064 
z"/>
<path fill="#FFFFFF" opacity="1.000000" stroke="none" 
	d="
M50.003532,100.429153 
	C52.897209,100.419006 55.792889,100.799248 58.866592,101.540062 
	C56.251736,102.590668 53.458862,103.280701 50.217518,103.949982 
	C49.847881,102.892670 49.926712,101.856102 50.003532,100.429153 
z"/>
<path fill="#FDFEFD" opacity="1.000000" stroke="none" 
	d="
M58.252144,94.570343 
	C55.768108,95.088486 53.312881,95.171944 50.419926,94.699432 
	C49.942276,92.443878 49.902355,90.744293 49.862434,89.044716 
	C49.894894,87.684639 49.927349,86.324554 49.886696,84.566475 
	C50.303650,81.713165 49.832497,80.561325 46.875774,79.764633 
	C35.471859,76.691841 28.040552,69.418861 25.028439,56.993729 
	C33.752197,56.993729 41.994686,56.993729 51.034119,56.984344 
	C53.490978,56.917282 55.150898,56.859608 57.290524,56.877258 
	C66.103325,56.952579 74.436417,56.952579 83.333748,56.952579 
	C80.046555,69.324425 72.900314,76.793045 61.445469,79.780891 
	C58.506401,80.547508 57.998669,81.728554 58.477108,84.581909 
	C58.398533,86.273903 58.449284,87.590675 58.500031,88.907448 
	C58.427006,90.650185 58.353977,92.392921 58.252144,94.570343 
z"/>
<path fill="#417646" opacity="1.000000" stroke="none" 
	d="
M58.883446,88.917206 
	C58.449284,87.590675 58.398533,86.273903 58.848331,84.544113 
	C65.179634,81.576508 71.668236,79.931953 76.710686,76.286865 
	C89.005905,67.398888 90.657936,48.196640 80.906052,36.802246 
	C75.542282,30.535053 63.005646,27.416241 57.284763,37.595306 
	C62.176613,39.141376 61.568340,42.959789 60.588356,46.551178 
	C59.633335,50.051090 58.093746,53.391495 56.810814,56.801933 
	C55.150898,56.859608 53.490978,56.917282 51.507862,56.900246 
	C50.377762,54.644661 49.489105,52.489960 48.780754,50.277534 
	C47.242222,45.472160 44.225746,40.299568 51.565891,37.377117 
	C51.821079,37.275513 52.000515,36.875195 52.127869,36.576801 
	C55.561550,28.531900 62.130966,25.548565 70.253456,26.435326 
	C80.537979,27.558125 87.055695,33.794441 90.256401,43.493290 
	C96.471130,62.325371 85.116570,82.761597 65.631950,87.842949 
	C63.557133,88.384033 61.390759,88.574074 58.883446,88.917206 
z"/>
<path fill="#EBEFF2" opacity="1.000000" stroke="none" 
	d="
M206.020630,53.130363 
	C211.638214,48.172127 217.896927,47.262886 226.099594,50.112335 
	C226.099594,59.110996 226.116669,68.241089 226.068420,77.370834 
	C226.064377,78.133179 225.844254,79.113358 225.346085,79.620689 
	C219.527161,85.546341 206.540268,82.893463 203.880432,75.010368 
	C201.405075,67.674049 201.593384,60.313602 206.020630,53.130363 
z"/>
<path fill="#E7EBED" opacity="1.000000" stroke="none" 
	d="
M343.885986,80.814720 
	C339.293976,81.639656 335.101410,82.822098 330.897766,82.862808 
	C326.638947,82.904053 324.378815,79.803314 324.165375,75.663071 
	C323.947845,71.443436 325.554718,67.700745 330.055725,67.152260 
	C335.055969,66.542953 340.187714,67.012787 346.506897,67.012787 
	C345.694672,71.995689 344.987610,76.333504 343.885986,80.814720 
z"/>
<path fill="#EBEEF1" opacity="1.000000" stroke="none" 
	d="
M283.838440,62.996223 
	C277.378357,62.996254 271.398651,62.996254 265.425781,62.996254 
	C265.290131,54.148876 270.230774,48.266945 277.526917,48.332470 
	C284.552399,48.395569 288.072479,53.073685 287.995850,62.648018 
	C286.799591,62.761292 285.559235,62.878746 283.838440,62.996223 
z"/>
<path fill="#89C24A" opacity="1.000000" stroke="none" 
	d="
M49.437691,89.057724 
	C49.902355,90.744293 49.942276,92.443878 49.980919,94.570663 
	C48.511024,95.011002 46.892902,95.417358 45.614109,94.931183 
	C44.221565,94.401764 43.143921,93.044044 41.928986,92.047440 
	C43.147816,91.062927 44.251026,89.837486 45.625721,89.177773 
	C46.557362,88.730675 47.870453,89.078453 49.437691,89.057724 
z"/>
<path fill="#8FC74B" opacity="1.000000" stroke="none" 
	d="
M57.290524,56.877258 
	C58.093746,53.391495 59.633335,50.051090 60.588356,46.551178 
	C61.568340,42.959789 62.176613,39.141376 57.284763,37.595306 
	C63.005646,27.416241 75.542282,30.535053 80.906052,36.802246 
	C90.657936,48.196640 89.005905,67.398888 76.710686,76.286865 
	C71.668236,79.931953 65.179634,81.576508 58.977657,84.168884 
	C57.998669,81.728554 58.506401,80.547508 61.445469,79.780891 
	C72.900314,76.793045 80.046555,69.324425 83.333748,56.952579 
	C74.436417,56.952579 66.103325,56.952579 57.290524,56.877258 
z"/>
</svg>