<?xml version="1.0" encoding="UTF-8"?>
<svg id="Layer_1" xmlns="http://www.w3.org/2000/svg" version="1.1" viewBox="0 0 798.035 569.31">
  <!-- Generator: Adobe Illustrator 30.3.0, SVG Export Plug-In . SVG Version: 2.1.3 Build 182)  -->
  <defs>
    <style>
      .st0 {
        fill: #74c3d5;
      }

      .st1, .st2 {
        fill: #73c2d4;
      }

      .st2, .st3 {
        fill-rule: evenodd;
      }

      .st3, .st4 {
        fill: #f37e44;
      }

      .st5 {
        fill: #ed8747;
      }
    </style>
  </defs>
  <polygon class="st5" points="584.507 549.909 584.866 549.909 584.507 550.388 584.507 549.909"/>
  <polygon class="st4" points="731.285 481.365 776.383 422.989 798.035 394.877 762.507 394.877 762.148 394.877 731.285 394.877 722.672 394.877 717.529 401.696 693.484 432.798 669.56 401.696 664.296 394.877 655.803 394.877 624.701 394.877 589.292 394.877 610.944 422.989 656.042 481.365 611.303 539.263 589.651 567.374 625.06 567.374 656.162 567.374 664.775 567.374 669.918 560.675 693.723 529.932 717.529 560.675 722.792 567.374 731.285 567.374 762.387 567.374 797.916 567.374 776.144 539.263 731.285 481.365"/>
  <polygon class="st5" points="732.601 550.388 732.362 549.909 732.601 549.909 732.601 550.388"/>
  <path class="st0" d="M324.853,548.801h-27.362l-12.509-24.43-29.904-58.633-29.903,58.633-12.509,24.43h-27.362l12.509-24.43,57.265-112.381,57.266,112.381,12.509,24.43Z"/>
  <path class="st0" d="M298.852,548.801h.391l-.391.391v-.391ZM435.663,411.795l-52.965,68.602-2.931,3.714v64.496h-24.431v-64.105l-3.323-4.104-52.965-68.602h30.881l37.526,48.667,37.526-48.667h30.684ZM435.467,548.801h.195v.391l-.195-.391Z"/>
  <path class="st0" d="M459.111,448.93v12.704h87.95v24.431h-87.95v25.798c0,6.842,5.667,12.509,12.509,12.509h99.873v24.43h-99.873c-20.327,0-36.744-16.611-36.744-36.938v-62.933c0-20.327,16.418-36.94,36.744-36.94h99.873v24.431h-99.873c-6.842,0-12.509,5.668-12.509,12.509Z"/>
  <g>
    <g>
      <g>
        <path class="st2" d="M322.219,145.343c15.073,0,27.274,12.202,27.274,27.274s-12.202,27.274-27.274,27.274-27.274-12.202-27.274-27.274c0-15.073,12.202-27.274,27.274-27.274"/>
        <path class="st4" d="M322.219,131.945c11.245,0,21.413,4.546,28.71,11.843,7.297,7.417,11.843,17.465,11.843,28.71s-4.546,21.293-11.843,28.71c-7.297,7.297-17.465,11.843-28.71,11.843s-21.293-4.546-28.71-11.843c-7.417-7.417-11.843-17.465-11.843-28.71s4.546-21.293,11.843-28.71c7.297-7.297,17.465-11.843,28.71-11.843M347.221,147.615c-6.34-6.34-15.192-10.288-25.001-10.288-9.69,0-18.542,3.948-25.001,10.288-6.34,6.34-10.288,15.192-10.288,25.001,0,9.69,3.948,18.542,10.288,25.001,6.34,6.34,15.192,10.288,25.001,10.288s18.542-3.948,25.001-10.288c6.34-6.34,10.407-15.192,10.407-25.001-.12-9.809-4.067-18.661-10.407-25.001"/>
      </g>
      <g>
        <path class="st2" d="M475.816,145.343c15.073,0,27.274,12.202,27.274,27.274s-12.202,27.274-27.274,27.274-27.274-12.202-27.274-27.274,12.202-27.274,27.274-27.274"/>
        <path class="st4" d="M475.816,131.945c11.245,0,21.293,4.546,28.71,11.843,7.417,7.417,11.843,17.465,11.843,28.71s-4.546,21.293-11.843,28.71c-7.297,7.297-17.465,11.843-28.71,11.843s-21.413-4.546-28.71-11.843c-7.297-7.417-11.843-17.465-11.843-28.71s4.546-21.293,11.843-28.71c7.297-7.297,17.465-11.843,28.71-11.843M500.698,147.615c-6.34-6.34-15.192-10.288-25.001-10.288s-18.542,3.948-25.001,10.288c-6.34,6.34-10.407,15.192-10.407,25.001,0,9.69,3.948,18.542,10.407,25.001,6.34,6.34,15.192,10.288,25.001,10.288,9.689,0,18.542-3.948,25.001-10.288,6.34-6.34,10.288-15.192,10.288-25.001.12-9.809-3.828-18.661-10.288-25.001"/>
      </g>
    </g>
    <path class="st2" d="M645.442,19.738c-9.331,15.431-26.556,40.552-30.145,47.251l-2.392-28.71-47.251,49.883c-16.269-30.863-45.935-53.591-81.224-60.29-8.852-15.671-44.62-27.035-81.344-27.872h-8.134c-36.724.837-72.492,12.202-81.344,27.872-35.289,6.699-64.956,29.427-81.224,60.29l-47.251-50.003-2.392,28.71c-3.589-6.579-20.814-31.82-30.145-47.251-2.512,9.091,5.622,80.028,7.776,89.12,2.153,8.972,16.987,70.698,28.351,69.741,1.555-.598,4.665-13.039,8.374-24.284l25.958,48.208c12.202,48.567,51.917,86.607,101.321,96.297.478-3.589,1.316-7.058,2.632-10.288-55.266-10.527-97.374-59.333-97.374-117.59v-29.308c0-50.003,35.289-92.23,82.301-102.757.12.359.239.718.359,1.077l27.633,74.645c3.469,9.331,9.331,17.465,20.456,17.465h77.277c11.125,0,16.987-8.134,20.456-17.465l27.633-74.406c.12-.359.239-.718.359-1.077,46.892,10.646,82.301,52.754,82.301,102.757v29.308c0,58.257-42.107,107.063-97.374,117.59,1.316,3.23,2.153,6.699,2.632,10.288,49.524-9.69,89.12-47.73,101.321-96.297l25.958-48.208c3.828,11.125,6.819,23.566,8.374,24.284,11.364,1.077,26.198-60.769,28.351-69.741,2.153-9.331,10.288-80.148,7.776-89.239ZM190.992,128.356l-4.665,30.504c-13.637-39.476-20.814-69.142-26.437-111.489l28.949,52.993,5.383-40.074,33.375,38.16c-5.503,13.398-8.493,27.992-8.493,43.304v29.308c0,1.675,0,3.349.12,5.024l-28.231-47.73ZM475.696,36.366l-27.633,74.406c-2.034,5.383-4.785,10.527-10.527,10.527h-77.038c-5.742,0-8.493-5.144-10.527-10.527l-27.633-74.406c-3.23-8.852,37.323-20.814,76.798-21.173,39.236.359,79.908,12.321,76.559,21.173ZM611.589,158.86l-4.665-30.504-28.231,47.73c.12-1.675.12-3.349.12-5.024v-29.308c0-15.312-2.991-29.906-8.493-43.304l33.375-38.16,5.383,40.074,28.949-52.993c-5.622,42.227-12.68,72.013-26.437,111.489Z"/>
    <path class="st1" d="M447.944,258.746h-97.852c-34.93,0-53.591-17.226-59.931-24.403l-5.263,4.306c7.177,8.134,27.633,26.796,65.195,26.796h97.852c37.442,0,57.898-18.661,65.195-26.796l-5.263-4.306c-6.34,7.297-25.001,24.403-59.931,24.403Z"/>
    <path class="st3" d="M461.461,277.048c-5.742-2.991-11.962-2.751-17.944-.478-6.22,2.392-12.441,5.742-18.183,8.972-2.871,1.555-5.862,3.23-8.733,4.905-2.871-1.675-6.22-2.512-9.69-2.512h-15.671c-3.589,0-6.819.957-9.69,2.512-2.871-1.675-5.862-3.349-8.733-4.905-5.862-3.23-11.962-6.579-18.183-8.972-5.862-2.273-12.202-2.512-17.944.478-13.278,6.819-15.192,25.719-14.116,38.878,1.077,13.039,6.22,33.973,21.413,36.964,2.632.478,5.263.359,7.895-.239,9.929-2.632,21.054-8.134,30.982-14.355,2.512,1.196,5.383,1.914,8.493,1.914h15.671c2.991,0,5.862-.718,8.493-1.914,10.048,6.101,21.173,11.723,30.982,14.355,2.512.718,5.263.837,7.895.239,15.192-2.991,20.456-23.925,21.413-36.964.837-13.159-1.077-32.179-14.355-38.878ZM348.895,342.362c-18.542,5.024-25.36-66.391,1.675-56.103,5.981,2.273,13.637,6.46,23.087,11.723-1.555,2.871-2.512,6.101-2.512,9.57v1.316c-4.426-1.435-10.407-2.871-18.063-4.665,12.8,8.015,8.852,5.981,17.465,10.288-9.57,5.622-5.144,2.871-18.422,12.8,8.134-2.632,14.474-4.905,19.14-6.819.12,3.828,1.196,7.297,3.11,10.288-7.656,4.665-16.867,9.331-25.48,11.603ZM449.02,342.362c-8.613-2.273-17.824-6.938-25.36-11.484,1.794-2.871,2.871-6.101,3.11-9.69,4.546,1.794,10.407,3.828,17.585,6.22-12.8-9.57-9.211-7.297-17.585-12.202v-.957c7.417-3.708,4.306-2.034,16.628-9.809-6.819,1.555-12.321,2.991-16.628,4.187v-.837c0-3.469-.957-6.699-2.512-9.57,9.331-5.383,17.106-9.45,23.087-11.723,27.035-10.527,20.216,60.888,1.675,55.864Z"/>
  </g>
  <path class="st1" d="M174.372,395.188v127.291c0,25.907-21.174,46.831-47.08,46.831H47.08c-25.906,0-47.08-20.924-47.08-46.831v-32.632h31.138v32.632c0,8.719,7.224,15.943,15.943,15.943h80.211c8.719,0,15.943-7.224,15.943-15.943v-127.291h31.138Z"/>
  <metadata>
    <sfw xmlns="http://ns.adobe.com/SaveForWeb/1.0/">
      <slices/>
      <sliceSourceBounds x="-1412.9" y="-1678.23" width="3379.5" height="1678.23" bottomLeftOrigin="true"/>
    </sfw>
  </metadata>
</svg>