<?xml version="1.0" encoding="utf-8"?>
<!-- Generator: Adobe Illustrator 21.1.0, SVG Export Plug-In . SVG Version: 6.00 Build 0)  -->
<svg version="1.1" id="Layer_1" xmlns="http://www.w3.org/2000/svg" xmlns:xlink="http://www.w3.org/1999/xlink" x="0px" y="0px"
	 viewBox="0 0 70 70" style="enable-background:new 0 0 70 70;" xml:space="preserve">
<style type="text/css">
	.st0{fill:url(#SVGID_1_);}
	.st1{fill:#F4F5F7;}
	.st2{fill:#FFFFFF;}
	.st3{fill:url(#SVGID_2_);}
	.st4{fill:url(#SVGID_3_);}
</style>
<title>jira-app</title>
<g>
	
		<linearGradient id="SVGID_1_" gradientUnits="userSpaceOnUse" x1="90.9102" y1="-204.5181" x2="-25.5183" y2="-61.707" gradientTransform="matrix(1 0 0 -1 0 -101)">
		<stop  offset="0" style="stop-color:#0049B0"/>
		<stop  offset="1" style="stop-color:#0065FF"/>
	</linearGradient>
	<path class="st0" d="M15.6,69.8c-8.5,0-15.4-6.9-15.4-15.4V15.6c0-8.5,6.9-15.4,15.4-15.4h38.9c8.5,0,15.4,6.9,15.4,15.4v38.9
		c0,8.5-6.9,15.4-15.4,15.4L15.6,69.8L15.6,69.8z"/>
	<path class="st1" d="M54.4,0.3c8.4,0,15.3,6.8,15.3,15.3v38.9c0,8.4-6.8,15.3-15.3,15.3H15.6C7.2,69.8,0.3,63,0.3,54.5V15.6
		c0-8.4,6.8-15.3,15.3-15.3L54.4,0.3 M54.4,0H15.6C7,0,0,7,0,15.6v38.9C0,63,7,70,15.6,70h38.9C63,70,70,63,70,54.4V15.6
		C70,7,63,0,54.4,0L54.4,0z"/>
</g>
<g id="Layer_2">
	<g id="White">
		<path class="st2" d="M57.8,10.2H34.2c0,5.9,4.8,10.6,10.6,10.6l0,0h4.3V25c0,5.9,4.8,10.6,10.6,10.6V12.2
			C59.8,11.1,58.9,10.2,57.8,10.2z"/>
		
			<linearGradient id="SVGID_2_" gradientUnits="userSpaceOnUse" x1="47.2963" y1="49.6809" x2="37.2769" y2="39.3481" gradientTransform="matrix(1 0 0 -1 0 72)">
			<stop  offset="0.18" style="stop-color:#FFFFFF;stop-opacity:0.4"/>
			<stop  offset="1" style="stop-color:#FFFFFF"/>
		</linearGradient>
		<path class="st3" d="M45.8,22.3H22.2c0,5.9,4.8,10.6,10.6,10.6h4.3v4.2c0,5.9,4.8,10.6,10.6,10.6V24.3
			C47.8,23.2,46.9,22.3,45.8,22.3z"/>
		
			<linearGradient id="SVGID_3_" gradientUnits="userSpaceOnUse" x1="35.9693" y1="37.536" x2="24.3832" y2="26.27" gradientTransform="matrix(1 0 0 -1 0 72)">
			<stop  offset="0.18" style="stop-color:#FFFFFF;stop-opacity:0.4"/>
			<stop  offset="1" style="stop-color:#FFFFFF"/>
		</linearGradient>
		<path class="st4" d="M33.8,34.4H10.2C10.2,40.2,15,45,20.8,45h4.4v4.2c0,5.9,4.7,10.6,10.6,10.6V36.4
			C35.8,35.3,34.9,34.4,33.8,34.4z"/>
	</g>
</g>
</svg>
