<?xml version="1.0" encoding="UTF-8" standalone="no"?>
<svg
   xmlns:dc="http://purl.org/dc/elements/1.1/"
   xmlns:cc="http://creativecommons.org/ns#"
   xmlns:rdf="http://www.w3.org/1999/02/22-rdf-syntax-ns#"
   xmlns:svg="http://www.w3.org/2000/svg"
   xmlns="http://www.w3.org/2000/svg"
   xmlns:sodipodi="http://sodipodi.sourceforge.net/DTD/sodipodi-0.dtd"
   xmlns:inkscape="http://www.inkscape.org/namespaces/inkscape"
   version="1.1"
   id="svg2"
   xml:space="preserve"
   width="1333.3333"
   height="1333.3333"
   viewBox="0 0 1333.3333 1333.3333"
   sodipodi:docname="Ketch RGB.eps"><metadata
     id="metadata8"><rdf:RDF><cc:Work
         rdf:about=""><dc:format>image/svg+xml</dc:format><dc:type
           rdf:resource="http://purl.org/dc/dcmitype/StillImage" /></cc:Work></rdf:RDF></metadata><defs
     id="defs6" /><sodipodi:namedview
     pagecolor="#ffffff"
     bordercolor="#666666"
     borderopacity="1"
     objecttolerance="10"
     gridtolerance="10"
     guidetolerance="10"
     inkscape:pageopacity="0"
     inkscape:pageshadow="2"
     inkscape:window-width="640"
     inkscape:window-height="480"
     id="namedview4" /><g
     id="g10"
     inkscape:groupmode="layer"
     inkscape:label="ink_ext_XXXXXX"
     transform="matrix(1.3333333,0,0,-1.3333333,0,1333.3333)"><g
       id="g12"
       transform="scale(0.1)"><path
         d="m 5222.54,4188.81 c -34.38,52.23 -74,107.09 -118.86,164.54 -44.89,57.44 -92.04,112.9 -141.48,166.41 -49.45,53.47 -100.54,104.32 -153.22,152.56 -52.71,48.2 -104.7,89.9 -156.01,125.01 l 3.26,-611.54 -247.77,-1.32 -7.25,1362.72 247.76,1.32 3,-562.39 c 43.03,43.5 88.01,89.94 134.93,139.36 46.94,49.41 93.53,99.46 139.81,150.19 46.25,50.7 90.23,99.79 131.95,147.19 41.69,47.42 79.47,90.22 113.37,128.43 l 296.93,1.58 c -43,-50.07 -88.63,-102.09 -136.82,-156.08 -48.23,-54.02 -97.75,-108.36 -148.59,-163.01 -50.84,-54.69 -102.02,-109.03 -153.49,-163.06 -51.52,-54.04 -102.04,-105.44 -151.58,-154.2 55.28,-41.68 111.58,-90.19 168.9,-145.6 57.32,-55.43 113.68,-114.76 169.08,-178.03 55.4,-63.31 108.5,-129.22 159.35,-197.77 50.81,-68.56 97.38,-136.84 139.73,-204.76 l -293,-1.55"
         style="fill:#4d4d4f;fill-opacity:1;fill-rule:nonzero;stroke:none"
         id="path14" /><path
         d="m 6261.43,4809.82 c -0.18,32.76 -4.96,63.89 -14.27,93.33 -9.34,29.46 -22.9,54.96 -40.7,76.49 -17.82,21.54 -39.54,38.46 -65.16,50.79 -25.64,12.3 -56.14,18.38 -91.54,18.19 -36.71,-0.19 -68.79,-7.25 -96.24,-21.16 -27.47,-13.92 -50.66,-32.07 -69.54,-54.46 -18.89,-22.4 -33.5,-48.05 -43.82,-76.93 -10.36,-28.89 -17.4,-58.43 -21.17,-88.6 z m -689.64,-109.86 c -0.48,90.46 12.53,169.83 39.05,238.16 26.48,68.3 61.91,125.21 106.26,170.68 44.31,45.46 95.26,79.8 152.83,103.06 57.56,23.24 116.49,35.03 176.8,35.36 141.58,0.75 252.23,-42.6 332.03,-129.99 79.78,-87.43 120.13,-218.32 121.05,-392.66 0.08,-13.11 -0.17,-27.86 -0.73,-44.24 -0.59,-16.41 -1.5,-31.16 -2.71,-44.26 l -678.41,-3.61 c 6.99,-82.55 36.47,-146.31 88.52,-191.26 52.02,-44.95 127.2,-67.17 225.52,-66.64 57.67,0.3 110.38,5.81 158.2,16.57 47.79,10.74 85.43,22.09 112.89,34.04 l 32.5,-194.52 c -13.08,-6.64 -31.08,-13.62 -53.96,-20.93 -22.92,-7.34 -49.09,-14.03 -78.56,-20.08 -29.47,-6.06 -61.23,-11.14 -95.29,-15.27 -34.08,-4.1 -68.78,-6.25 -104.18,-6.44 -90.45,-0.49 -169.19,12.56 -236.18,39.05 -67,26.51 -122.25,63.58 -165.78,111.21 -43.51,47.61 -75.95,103.82 -97.26,168.61 -21.32,64.77 -32.18,135.81 -32.59,213.16"
         style="fill:#4d4d4f;fill-opacity:1;fill-rule:nonzero;stroke:none"
         id="path16" /><path
         d="m 6735.63,5496.68 237.71,40.6 1.65,-310.69 365.75,1.95 1.07,-198.61 -365.76,-1.95 2.23,-418.85 c 0.44,-82.59 13.85,-141.5 40.26,-176.76 26.4,-35.26 71.08,-52.72 134.01,-52.38 43.26,0.22 81.58,5.01 114.97,14.38 33.38,9.33 59.87,18.01 79.5,25.98 l 40.32,-188.56 c -27.46,-11.95 -63.47,-24.27 -107.96,-36.96 -44.51,-12.68 -96.93,-19.2 -157.21,-19.51 -73.43,-0.39 -134.75,9.1 -184.02,28.51 -49.24,19.41 -88.42,47.7 -117.44,84.92 -29.05,37.21 -49.6,82.32 -61.68,135.35 -12.08,53.04 -18.3,113.62 -18.66,181.81 l -4.74,890.77"
         style="fill:#4d4d4f;fill-opacity:1;fill-rule:nonzero;stroke:none"
         id="path18" /><path
         d="m 7494.92,4714.13 c -0.4,76.02 11.02,147.22 34.27,213.55 23.24,66.31 56.67,123.86 100.34,172.61 43.65,48.72 96.88,87.04 159.66,114.91 62.77,27.86 133.49,42 212.15,42.42 96.99,0.5 188.87,-16.7 275.57,-51.62 l -50.08,-194.96 c -27.59,11.66 -58.8,21.32 -93.57,29 -34.78,7.68 -71.82,11.42 -111.16,11.2 -93.1,-0.49 -163.73,-30.06 -211.9,-88.63 -48.22,-58.62 -72.02,-140.99 -71.45,-247.18 0.55,-102.25 23.9,-183.09 70.12,-242.48 46.19,-59.42 123.68,-88.81 232.51,-88.23 40.62,0.21 80.6,4.36 119.89,12.43 39.28,8.08 73.31,18.09 102.1,30.05 l 34.46,-196.47 c -26.16,-13.26 -65.74,-25.27 -118.77,-36.03 -53.03,-10.76 -107.76,-16.3 -164.11,-16.6 -87.84,-0.47 -164.27,12.57 -229.3,39.09 -65.03,26.51 -119,63.58 -161.85,111.23 -42.86,47.61 -74.96,104.47 -96.27,170.56 -21.34,66.08 -32.2,137.8 -32.61,215.15"
         style="fill:#4d4d4f;fill-opacity:1;fill-rule:nonzero;stroke:none"
         id="path20" /><path
         d="m 8482.78,4206.15 -7.91,1486.6 237.72,40.59 2.71,-509.3 c 26.16,9.31 56.59,17.33 91.32,24.09 34.68,6.73 69.08,10.21 103.18,10.4 82.58,0.43 151.13,-10.7 205.66,-33.33 54.51,-22.67 98.28,-54.54 131.29,-95.66 32.97,-41.12 56.52,-90.5 70.59,-148.1 14.08,-57.63 21.29,-121.81 21.67,-192.6 l 3.08,-578.12 -237.93,-1.27 -2.88,540.76 c -0.29,55.05 -4.18,101.89 -11.57,140.53 -7.42,38.63 -19.39,70.02 -35.89,94.22 -16.53,24.15 -38.58,41.73 -66.16,52.74 -27.58,10.97 -61.71,16.39 -102.34,16.18 -31.45,-0.18 -63.57,-3.64 -96.3,-10.35 -32.74,-6.75 -56.96,-12.78 -72.66,-18.09 l 4.35,-818.03 -237.93,-1.26"
         style="fill:#4d4d4f;fill-opacity:1;fill-rule:nonzero;stroke:none"
         id="path22" /><path
         d="M 3762.12,4792.48 C 3844.63,5323.51 3357.79,6007.7 2826.51,6599.87 4171.25,4554.18 1336.2,4349 716.367,4328.51 666.469,4326.86 640.25,4268.93 671.301,4229.83 1159.86,3614.79 1924.52,3500 1924.52,3500 c 0,0 1734.15,626.63 1837.6,1292.48"
         style="fill:#00adee;fill-opacity:1;fill-rule:nonzero;stroke:none"
         id="path24" /><path
         d="m 1924.52,3500 c 0,0 1733.23,1155.81 -374.63,4259.43 -17.91,26.37 16.15,56.78 40.32,36.01 C 3359.31,6275.89 3853.32,5285.17 3762.12,4792.48 3635.19,4106.69 2092.11,3553.29 1924.52,3500"
         style="fill:#6d67ae;fill-opacity:1;fill-rule:nonzero;stroke:none"
         id="path26" /><path
         d="m 3762.12,4792.48 c 61.39,331.65 -142.5,889.03 -821.88,1681.42 -38.64,42.63 -76.71,84.71 -113.73,125.97 646.63,-983.68 326.74,-1541.75 -248.53,-1858.4 C 2474.29,3866.69 1924.52,3500 1924.52,3500 c 167.59,53.29 1710.67,606.69 1837.6,1292.48"
         style="fill:#524fa0;fill-opacity:1;fill-rule:nonzero;stroke:none"
         id="path28" /></g></g></svg>
