<?xml version="1.0" standalone="no"?>
<!DOCTYPE svg PUBLIC "-//W3C//DTD SVG 20010904//EN"
 "http://www.w3.org/TR/2001/REC-SVG-20010904/DTD/svg10.dtd">
<svg version="1.0" xmlns="http://www.w3.org/2000/svg"
 width="1989.000000pt" height="1989.000000pt" viewBox="0 0 1989.000000 1989.000000"
 preserveAspectRatio="xMidYMid meet">
<metadata>
Created by potrace 1.11, written by Peter Selinger 2001-2013
</metadata>
<g transform="translate(0.000000,1989.000000) scale(0.100000,-0.100000)"
fill="#000000" stroke="none">
<path d="M9857 17064 c-1 -1 -90 -5 -197 -8 -227 -8 -349 -16 -480 -31 -19 -2
-60 -7 -90 -10 -30 -3 -70 -7 -88 -10 -58 -8 -191 -26 -219 -29 -38 -5 -94
-15 -183 -31 -41 -8 -86 -16 -100 -19 -53 -9 -187 -38 -240 -51 -30 -8 -66
-16 -80 -19 -29 -6 -104 -26 -210 -55 -166 -45 -459 -147 -568 -197 -29 -13
-55 -24 -58 -24 -3 0 -65 -30 -137 -66 -300 -152 -506 -306 -640 -481 -30 -40
-57 -78 -59 -83 -2 -6 -63 -24 -137 -40 -132 -29 -393 -100 -461 -125 -19 -8
-75 -28 -125 -45 -615 -219 -1221 -605 -1700 -1085 -205 -205 -306 -320 -454
-520 -44 -60 -85 -115 -91 -122 -36 -44 -270 -425 -270 -441 0 -4 -9 -18 -20
-32 l-19 -25 -43 47 c-24 25 -104 111 -179 190 -75 79 -152 160 -171 180 -19
21 -100 106 -179 189 -79 84 -162 171 -184 194 -22 24 -103 109 -180 190 -77
81 -151 160 -164 174 -13 14 -88 94 -167 176 -78 83 -160 169 -181 191 -21 23
-95 102 -165 175 -70 74 -163 172 -207 219 l-81 85 -1 -35 c-1 -19 -3 -39 -4
-45 -1 -10 -13 -142 -21 -245 -2 -30 -7 -84 -10 -120 -8 -98 -12 -148 -19
-225 -3 -38 -7 -92 -10 -120 -2 -27 -7 -88 -11 -135 -4 -47 -8 -96 -9 -110 -2
-14 -3 -44 -4 -67 -1 -24 -4 -43 -9 -43 -4 0 -22 26 -40 58 -45 79 -112 183
-524 815 -165 253 -511 792 -573 894 -38 61 -72 110 -75 108 -3 -2 -8 -21 -10
-42 -7 -65 -4 -482 4 -608 4 -66 9 -147 11 -180 3 -66 14 -215 20 -285 2 -25
7 -76 10 -115 3 -38 8 -90 10 -115 3 -25 8 -74 10 -110 3 -36 7 -83 10 -105 2
-22 7 -71 10 -110 3 -38 8 -86 10 -105 3 -19 7 -57 10 -85 2 -27 7 -79 11
-115 3 -36 7 -76 9 -90 2 -14 7 -56 11 -95 3 -38 8 -77 9 -85 2 -8 6 -49 10
-90 4 -41 8 -82 10 -90 2 -8 6 -46 10 -85 4 -38 9 -78 11 -87 1 -9 6 -48 9
-85 4 -37 9 -75 10 -83 4 -22 15 -110 19 -150 2 -19 7 -55 10 -80 3 -25 8 -61
11 -80 2 -19 6 -51 9 -70 4 -19 15 -93 26 -165 10 -71 22 -148 25 -170 4 -22
18 -87 32 -145 13 -58 26 -113 28 -123 2 -10 7 -27 10 -37 3 -10 8 -27 10 -37
4 -20 64 -251 90 -348 9 -33 29 -109 45 -170 16 -60 45 -164 65 -230 20 -66
38 -128 40 -137 2 -9 28 -97 59 -195 287 -928 534 -1425 736 -1483 44 -13 63
0 90 57 22 47 91 252 144 428 44 146 136 438 145 459 9 23 16 11 101 -149 29
-55 79 -147 110 -205 32 -58 79 -145 105 -195 26 -49 64 -119 83 -155 61 -115
222 -415 231 -430 29 -53 88 -163 111 -205 15 -27 49 -90 75 -140 26 -49 76
-142 110 -205 34 -63 76 -141 93 -173 17 -32 45 -109 61 -170 56 -211 179
-555 261 -732 155 -335 265 -533 443 -799 73 -109 227 -319 287 -390 287 -341
507 -556 866 -845 63 -50 228 -168 345 -244 468 -306 968 -530 1519 -678 25
-7 50 -14 55 -15 6 -2 22 -6 37 -9 15 -3 38 -9 50 -14 13 -5 26 -9 31 -9 17
-1 92 -15 98 -18 4 -2 2 -25 -2 -51 -24 -128 -33 -509 -17 -688 23 -248 85
-526 165 -735 66 -175 180 -370 275 -470 188 -198 433 -286 678 -244 234 41
719 245 1085 457 66 38 144 83 173 99 l52 30 68 -25 c37 -13 87 -28 112 -32
25 -4 54 -9 65 -12 28 -6 805 -5 835 2 14 2 39 7 55 10 17 4 64 18 107 32 l76
26 30 -22 c17 -11 33 -21 36 -21 3 0 30 -16 61 -35 30 -20 63 -38 73 -42 9 -3
24 -12 32 -19 28 -23 385 -202 527 -263 284 -123 507 -191 641 -195 439 -15
776 344 942 1004 16 63 31 129 34 145 3 17 8 41 11 55 5 24 7 43 20 150 3 25
10 77 14 115 10 78 6 537 -4 600 -4 22 -10 59 -15 82 -8 46 -6 48 57 59 57 10
335 85 459 124 537 170 1072 445 1534 788 104 77 304 241 405 331 75 68 320
316 391 396 242 275 444 553 633 875 192 326 390 793 497 1172 34 120 59 189
99 263 72 137 127 240 162 305 17 30 65 120 108 200 43 80 92 172 110 205 18
33 51 96 75 140 46 86 86 160 130 240 15 28 49 91 75 140 26 50 63 118 81 153
181 336 236 437 244 445 4 5 15 -13 23 -40 8 -26 38 -122 66 -213 29 -91 70
-223 92 -295 87 -281 133 -398 161 -407 7 -3 28 -1 46 3 262 59 625 943 1012
2464 49 193 92 364 95 380 3 17 8 44 11 60 3 17 7 39 9 50 6 45 46 323 51 360
5 42 9 65 18 130 4 22 8 58 11 80 5 45 14 122 20 175 3 19 7 58 10 85 6 57 23
203 30 255 2 19 7 60 10 90 3 30 8 71 10 90 2 19 7 64 10 100 3 36 8 76 10 90
2 14 7 52 10 85 8 95 15 167 20 210 3 22 7 67 10 100 8 92 14 155 20 210 2 28
7 88 10 134 3 46 7 100 10 120 2 20 6 79 10 131 3 52 8 115 10 140 17 170 27
747 14 812 -8 43 -15 42 -44 -9 -31 -52 -158 -258 -210 -338 -18 -27 -54 -84
-80 -125 -79 -123 -134 -207 -230 -355 -253 -387 -509 -783 -576 -892 -40 -67
-77 -122 -80 -123 -3 0 -7 21 -8 48 -1 26 -4 63 -6 82 -3 30 -7 76 -20 225 -1
17 -6 71 -10 120 -3 50 -8 106 -10 125 -2 19 -7 73 -10 120 -4 47 -8 101 -10
121 -2 19 -7 76 -11 125 -4 49 -8 103 -10 119 -1 17 -3 36 -3 44 -1 8 -22 -8
-48 -36 -27 -27 -110 -115 -186 -195 -76 -80 -159 -168 -185 -195 -26 -28
-104 -110 -173 -184 -70 -74 -151 -159 -180 -190 -30 -31 -115 -121 -189 -199
-74 -79 -180 -191 -236 -249 -55 -58 -131 -139 -170 -179 -38 -41 -91 -97
-119 -126 -70 -74 -321 -338 -370 -392 -23 -24 -44 -44 -47 -44 -3 0 -38 57
-78 128 -221 385 -444 676 -765 998 -244 244 -464 425 -741 607 -490 321 -997
533 -1594 667 l-95 21 -39 60 c-154 236 -550 497 -1011 664 -55 20 -109 40
-120 45 -37 17 -356 111 -455 135 -195 46 -430 95 -525 109 -23 4 -52 8 -65
11 -36 7 -295 42 -365 50 -33 3 -76 8 -95 10 -194 21 -462 35 -708 38 -79 1
-144 1 -145 1z m338 -629 c99 -3 194 -8 210 -10 17 -2 77 -6 135 -10 58 -3
116 -8 130 -10 14 -1 59 -6 100 -10 41 -4 82 -9 90 -10 9 -2 45 -6 81 -9 36
-4 76 -8 90 -11 13 -2 44 -6 69 -9 25 -3 54 -8 65 -10 18 -3 102 -15 150 -21
62 -8 380 -71 455 -90 30 -8 66 -16 80 -18 62 -11 351 -90 468 -128 386 -125
648 -271 706 -393 18 -39 21 -88 5 -117 -6 -11 -12 -28 -14 -37 -4 -19 -253
-687 -310 -832 -7 -19 -68 -181 -134 -360 -66 -179 -190 -514 -276 -745 -86
-231 -181 -487 -212 -570 -203 -550 -225 -601 -288 -690 -62 -88 -128 -140
-206 -163 -13 -4 -749 -8 -1635 -9 -1477 -3 -1614 -2 -1660 14 -105 35 -188
118 -256 256 -20 40 -95 232 -168 427 -72 195 -142 382 -155 415 -13 33 -83
220 -155 415 -72 195 -135 364 -140 375 -37 84 -570 1541 -570 1561 0 121 225
276 595 409 72 26 137 48 145 50 8 2 51 15 95 28 44 14 100 31 125 37 25 7 52
14 60 16 67 17 380 88 440 99 41 8 84 16 95 18 33 7 87 16 130 22 22 4 47 8
55 10 8 2 35 7 60 10 25 3 70 10 100 15 52 8 79 12 198 25 26 3 61 8 77 10 17
2 62 7 100 10 39 4 81 8 95 11 14 2 70 6 125 10 55 3 120 8 145 10 25 2 146 6
270 10 124 4 227 8 228 10 2 1 9 1 15 -1 7 -2 93 -7 192 -10z m-3641 -1265
c64 -173 123 -331 131 -350 8 -19 79 -210 159 -425 265 -718 707 -1910 715
-1930 50 -124 79 -189 104 -235 156 -283 347 -435 597 -474 105 -17 3320 -14
3400 3 247 51 437 215 583 503 51 100 40 72 327 848 127 344 235 634 239 645
25 59 111 291 176 470 18 50 104 284 193 520 183 491 257 691 266 721 l6 21
78 -19 c42 -10 84 -20 92 -22 8 -2 42 -12 75 -22 33 -10 65 -19 70 -20 6 -1
64 -21 129 -44 441 -153 870 -388 1239 -678 123 -96 149 -119 254 -216 312
-290 528 -555 770 -942 94 -151 228 -420 307 -620 49 -126 131 -367 142 -418
2 -10 8 -33 14 -50 15 -47 67 -284 75 -340 3 -27 8 -52 10 -55 1 -3 6 -30 10
-60 4 -30 8 -61 10 -70 1 -9 6 -45 9 -81 4 -36 9 -78 11 -95 24 -194 25 -1759
0 -1965 -1 -14 -6 -56 -9 -95 -4 -38 -9 -81 -11 -95 -2 -14 -6 -47 -10 -75 -7
-63 -13 -97 -25 -160 -5 -27 -11 -61 -14 -75 -35 -204 -159 -647 -220 -785 -7
-16 -19 -46 -26 -65 -14 -41 -22 -59 -83 -195 -255 -572 -601 -1066 -1055
-1508 -92 -90 -160 -153 -209 -194 -12 -10 -41 -34 -64 -53 -183 -153 -453
-342 -677 -474 -90 -52 -379 -199 -487 -247 -154 -68 -429 -165 -620 -219
-123 -34 -316 -80 -338 -80 -9 0 -33 33 -56 74 -55 101 -147 214 -228 281
-107 89 -313 178 -423 184 -266 12 -386 -20 -775 -210 -132 -64 -314 -159
-380 -199 -16 -9 -57 -32 -90 -50 -75 -41 -120 -66 -213 -119 l-74 -42 -89 36
c-148 60 -178 62 -645 60 -231 -2 -426 -5 -434 -7 -8 -3 -33 -8 -54 -13 -45
-9 -154 -52 -173 -67 -17 -14 -54 0 -137 51 -38 23 -70 41 -72 41 -2 0 -25 13
-51 28 -26 16 -84 48 -128 72 -44 24 -96 52 -115 63 -19 11 -102 55 -185 97
-128 66 -206 102 -400 185 -175 75 -399 97 -566 55 -185 -45 -340 -146 -469
-306 -19 -23 -90 -139 -110 -178 -8 -16 -20 -31 -27 -33 -7 -3 -48 3 -90 13
-43 10 -82 18 -88 20 -142 28 -572 169 -727 237 -18 8 -62 28 -98 43 -141 62
-385 190 -545 287 -117 70 -332 218 -444 305 -197 153 -564 498 -689 647 -22
28 -53 64 -67 80 -190 217 -463 630 -608 920 -245 489 -391 954 -466 1475 -27
186 -32 225 -37 305 -2 39 -7 99 -10 135 -5 71 -6 1603 0 1660 2 19 7 78 11
130 4 52 9 104 11 115 2 11 6 45 9 75 21 206 104 558 190 810 49 141 140 366
157 388 6 6 8 12 5 12 -5 0 128 265 143 285 4 6 22 37 40 70 36 65 159 259
200 315 121 163 155 207 229 295 164 194 363 392 551 545 30 25 57 47 60 50
21 23 251 185 365 258 383 244 773 414 1220 531 61 15 111 28 112 27 0 0 53
-143 117 -316z m-6184 -115 c18 -33 56 -103 85 -155 75 -136 112 -205 158
-290 21 -41 47 -88 57 -105 10 -16 31 -55 47 -85 17 -30 137 -251 268 -490
131 -239 253 -464 273 -500 19 -36 38 -69 42 -75 4 -5 33 -59 65 -120 32 -60
68 -126 80 -145 12 -19 25 -44 30 -55 7 -17 9 -13 16 21 4 22 10 67 13 100 4
32 8 70 11 84 5 29 9 62 25 180 6 47 13 101 16 120 3 19 7 53 10 75 2 22 6 54
8 70 3 17 12 86 21 155 9 69 18 136 20 150 4 29 13 91 20 153 5 39 12 89 20
147 2 14 6 45 10 70 3 25 8 56 10 70 2 14 7 52 11 85 7 70 12 96 17 102 2 2
28 -24 58 -58 30 -34 59 -67 64 -73 6 -6 107 -121 224 -256 117 -135 228 -261
245 -280 17 -19 74 -84 126 -145 52 -60 102 -116 110 -125 16 -17 33 -37 140
-160 36 -41 70 -80 75 -86 6 -6 35 -39 65 -74 30 -35 60 -68 65 -74 6 -6 39
-45 75 -86 36 -41 71 -81 78 -88 16 -17 18 -6 -27 -124 -77 -203 -176 -540
-195 -663 -4 -22 -11 -56 -16 -75 -5 -20 -12 -53 -15 -75 -2 -22 -7 -51 -10
-65 -14 -70 -32 -208 -40 -300 -4 -41 -9 -88 -12 -105 -3 -16 -7 -408 -8 -870
-2 -462 -4 -842 -5 -845 0 -3 -24 36 -54 85 -199 337 -423 715 -797 1345 -89
151 -189 319 -220 373 -64 111 -62 112 -85 -63 -3 -25 -7 -52 -9 -60 -2 -8 -7
-37 -10 -65 -4 -27 -8 -57 -10 -65 -2 -8 -7 -37 -10 -65 -4 -27 -8 -61 -11
-75 -2 -14 -13 -83 -24 -155 -11 -71 -23 -146 -26 -165 -3 -19 -7 -51 -10 -70
-3 -19 -6 -44 -8 -55 -2 -11 -12 -77 -22 -147 -14 -96 -21 -124 -28 -110 -6 9
-11 22 -13 27 -1 6 -38 116 -82 245 -104 308 -297 916 -316 1000 -2 8 -28 104
-59 214 -51 180 -163 612 -172 661 -2 11 -8 38 -13 60 -34 138 -48 202 -57
250 -2 17 -9 46 -14 65 -8 30 -17 73 -46 215 -2 11 -6 29 -8 40 -2 11 -18 90
-34 175 -17 85 -36 182 -41 215 -6 33 -13 71 -16 85 -7 35 -72 426 -80 475 -3
22 -10 69 -16 105 -5 36 -12 76 -14 90 -4 25 -7 47 -21 145 -3 28 -8 58 -10
69 -2 10 -6 44 -9 75 -4 31 -8 63 -10 71 -2 8 -7 38 -11 65 -3 28 -8 59 -10
69 -5 29 10 9 46 -59z m19196 58 c-2 -10 -7 -45 -11 -78 -4 -32 -8 -66 -10
-75 -1 -8 -6 -37 -9 -65 -4 -27 -11 -77 -16 -110 -5 -33 -11 -78 -15 -100 -3
-22 -12 -80 -20 -130 -7 -49 -16 -108 -20 -130 -3 -23 -7 -52 -10 -65 -3 -13
-7 -42 -10 -65 -3 -22 -12 -76 -20 -120 -8 -44 -17 -96 -20 -115 -3 -19 -7
-46 -10 -60 -3 -14 -7 -38 -10 -55 -3 -16 -7 -40 -9 -51 -2 -12 -7 -38 -10
-58 -3 -21 -13 -72 -22 -114 -9 -42 -18 -88 -21 -102 -4 -26 -70 -349 -78
-385 -9 -41 -15 -71 -19 -91 -2 -11 -11 -49 -20 -85 -8 -35 -25 -104 -36 -154
-19 -77 -61 -250 -76 -307 -2 -10 -6 -26 -8 -35 -10 -46 -78 -298 -81 -303 -2
-4 -6 -17 -9 -31 -39 -195 -472 -1561 -488 -1536 -4 6 -10 37 -13 67 -4 30 -9
66 -11 80 -2 14 -7 41 -10 60 -2 19 -7 46 -9 60 -3 14 -7 43 -10 65 -3 22 -13
83 -21 135 -19 118 -21 134 -29 190 -3 25 -13 88 -22 140 -8 52 -16 104 -18
115 -5 41 -18 121 -21 140 -3 11 -7 46 -11 78 -3 31 -9 57 -12 57 -3 0 -13
-10 -20 -22 -16 -26 -138 -233 -155 -263 -6 -11 -19 -31 -27 -45 -25 -38 -281
-470 -302 -510 -11 -19 -28 -47 -38 -62 -11 -14 -19 -28 -19 -31 0 -3 -24 -45
-54 -93 -29 -49 -120 -201 -201 -339 -240 -406 -317 -535 -318 -535 -1 0 -2
370 -2 823 0 716 -4 915 -20 1027 -2 14 -7 52 -11 85 -3 33 -7 67 -9 75 -1 8
-6 40 -10 70 -3 30 -10 71 -15 90 -5 19 -11 53 -15 75 -8 55 -61 288 -81 355
-52 176 -126 396 -159 474 -14 33 -14 41 -2 55 19 23 216 250 248 286 15 17
111 127 215 245 263 302 306 351 329 375 11 12 40 46 65 76 25 29 47 56 51 59
3 3 54 61 114 130 60 69 112 127 115 130 3 3 47 53 98 113 50 59 92 102 93 95
0 -7 2 -20 4 -28 1 -8 8 -55 14 -105 17 -124 21 -156 26 -185 2 -14 7 -52 10
-85 4 -33 8 -67 10 -75 2 -8 7 -42 11 -75 3 -33 8 -68 10 -79 2 -10 6 -44 9
-75 4 -31 8 -63 10 -71 2 -8 7 -42 11 -75 3 -33 8 -68 10 -79 2 -10 6 -44 9
-75 4 -31 8 -63 10 -71 2 -8 7 -42 10 -75 4 -33 8 -67 10 -75 2 -8 7 -40 10
-70 3 -30 8 -66 10 -80 2 -14 7 -44 10 -67 3 -24 8 -62 11 -85 4 -24 7 -49 7
-55 0 -7 1 -13 3 -13 2 0 85 150 169 305 12 22 60 110 107 195 47 85 101 184
120 220 64 118 510 934 648 1185 15 28 46 85 70 128 43 79 51 90 46 60z
m-11601 -9578 c41 -14 96 -34 122 -46 75 -32 400 -194 483 -239 278 -152 350
-194 350 -202 0 -5 -9 -27 -21 -50 -34 -66 -69 -222 -69 -305 0 -66 -2 -74
-17 -69 -29 8 -246 67 -264 71 -9 2 -52 13 -95 24 -166 43 -336 82 -340 78 -9
-9 438 -283 559 -344 l130 -65 -29 -14 c-108 -57 -297 -183 -482 -322 -120
-90 -221 -167 -226 -172 -5 -5 76 20 180 56 104 36 196 67 204 70 16 4 163 56
195 69 100 39 177 66 180 63 1 -1 5 -30 8 -63 9 -88 33 -169 77 -262 l39 -82
-122 -70 c-272 -154 -510 -263 -757 -347 -133 -45 -164 -52 -220 -50 -209 8
-388 251 -495 676 -14 52 -27 113 -31 135 -3 22 -7 42 -9 45 -2 3 -6 37 -10
75 -4 39 -9 72 -10 75 -6 10 -18 206 -19 300 -1 460 117 808 319 938 98 63
235 73 370 27z m4228 19 c225 -66 368 -329 414 -759 8 -74 7 -338 -1 -435 -23
-281 -97 -573 -196 -773 -127 -255 -280 -360 -455 -313 -33 9 -68 19 -78 21
-128 29 -517 201 -756 334 -103 58 -163 92 -173 97 -4 3 6 31 22 63 48 94 75
180 87 281 3 25 6 46 7 47 1 2 27 -7 57 -18 210 -81 655 -230 633 -211 -36 29
-334 254 -398 300 -34 24 -114 75 -179 114 -85 50 -117 74 -115 86 2 10 54 44
128 83 69 36 153 83 187 105 291 184 343 217 343 221 0 3 -12 2 -27 -2 -16 -4
-37 -9 -48 -11 -11 -2 -137 -33 -280 -70 -143 -36 -270 -68 -282 -71 -21 -5
-23 -2 -22 53 1 77 -22 183 -61 279 -17 43 -29 79 -28 80 20 17 384 214 553
300 242 123 379 181 470 200 60 12 156 12 198 -1z"/>
<path d="M6778 11745 c-2 -1 -39 -5 -83 -9 -87 -7 -93 -8 -205 -32 -334 -72
-652 -266 -886 -540 -179 -210 -312 -491 -359 -759 -4 -22 -9 -51 -12 -65 -3
-14 -7 -98 -9 -187 -8 -284 40 -510 158 -753 120 -247 277 -436 503 -605 52
-39 114 -82 137 -94 286 -157 530 -223 823 -224 115 0 216 8 295 23 30 6 66
13 80 16 14 2 76 21 139 41 565 180 995 670 1106 1258 20 107 27 385 13 495
-48 370 -215 707 -480 968 -231 228 -591 410 -883 447 -27 3 -64 8 -82 11 -32
5 -251 13 -255 9z m292 -229 c14 -3 59 -13 100 -22 578 -127 1022 -622 1096
-1225 13 -102 6 -341 -11 -391 -2 -7 -6 -29 -9 -48 -5 -29 -37 -148 -50 -185
-2 -5 -7 -21 -12 -35 -4 -14 -31 -72 -60 -130 -111 -223 -270 -404 -474 -544
-169 -116 -379 -197 -590 -230 -107 -16 -351 -15 -440 3 -30 7 -68 14 -85 17
-57 10 -233 73 -307 110 -390 195 -665 548 -763 977 -29 128 -38 321 -22 462
46 399 278 782 611 1007 173 116 339 184 541 223 102 20 145 23 285 20 91 -2
176 -6 190 -9z"/>
<path d="M6740 11203 c-14 -2 -61 -11 -105 -19 -510 -99 -882 -556 -878 -1081
4 -472 297 -876 748 -1032 259 -90 576 -71 827 51 154 74 334 228 426 365 85
126 157 302 177 433 4 25 9 54 11 65 6 28 5 225 -1 255 -2 13 -7 42 -10 65
-10 69 -55 207 -94 286 -54 108 -106 183 -186 268 -204 217 -482 341 -769 345
-67 1 -132 1 -146 -1z"/>
<path d="M12895 11738 c-117 -10 -149 -16 -260 -43 -558 -138 -1013 -579
-1170 -1135 -23 -83 -26 -97 -39 -170 -3 -19 -9 -48 -12 -65 -12 -64 -11 -333
2 -430 60 -441 281 -816 649 -1103 35 -27 182 -115 243 -146 127 -64 319 -128
427 -142 28 -3 52 -8 55 -9 27 -16 330 -23 425 -11 102 14 122 18 220 42 461
111 864 438 1071 869 47 97 105 254 118 318 21 101 35 181 40 227 8 66 8 295
1 330 -3 14 -7 46 -10 71 -10 83 -21 137 -52 239 -107 360 -341 678 -653 887
-133 89 -333 184 -450 213 -236 60 -410 76 -605 58z m445 -241 c287 -68 507
-191 711 -397 197 -199 329 -452 384 -735 20 -103 26 -303 13 -420 -31 -275
-155 -553 -343 -769 -218 -249 -513 -412 -860 -472 -57 -10 -353 -12 -395 -3
-19 4 -48 10 -65 12 -192 30 -429 135 -607 268 -263 197 -479 539 -533 844 -2
17 -7 39 -9 51 -12 60 -18 140 -18 239 0 126 8 195 37 320 24 104 65 216 116
317 140 272 365 496 626 623 43 21 89 44 103 51 51 25 198 66 300 84 154 27
396 21 540 -13z"/>
<path d="M12895 11200 c-27 -5 -62 -11 -77 -14 -16 -3 -39 -8 -53 -11 -15 -3
-61 -18 -105 -34 -335 -123 -594 -408 -686 -756 -42 -161 -42 -369 -1 -550 13
-55 61 -176 98 -244 139 -259 378 -452 664 -535 105 -31 177 -40 305 -40 102
0 181 8 245 25 22 6 47 12 55 14 29 6 146 53 200 80 217 110 407 313 504 540
21 48 39 94 41 104 3 9 11 43 19 77 35 144 39 310 10 469 -43 240 -205 499
-411 657 -54 43 -216 138 -233 138 -4 0 -27 9 -51 19 -115 51 -384 82 -524 61z"/>
<path d="M5534 7602 c-10 -9 -56 -48 -101 -85 -46 -38 -83 -71 -83 -75 0 -15
266 -265 361 -339 134 -104 299 -216 409 -276 131 -71 189 -101 300 -149 186
-82 466 -178 593 -202 12 -2 63 -13 112 -24 50 -12 108 -23 130 -26 23 -4 52
-8 65 -11 22 -4 61 -9 235 -31 22 -2 90 -7 150 -11 155 -9 4334 -9 4480 0 115
7 145 10 245 22 678 85 1279 330 1770 724 99 80 315 284 331 313 9 17 -28 52
-183 176 -14 11 -30 -1 -119 -90 -195 -194 -365 -323 -599 -455 -102 -57 -272
-143 -285 -143 -3 0 -26 -9 -51 -20 -98 -45 -389 -142 -466 -155 -15 -3 -58
-12 -95 -21 -38 -9 -77 -17 -88 -19 -11 -2 -54 -9 -95 -15 -41 -7 -83 -14 -92
-16 -9 -1 -43 -5 -75 -9 -32 -3 -78 -8 -103 -10 -25 -3 -85 -8 -135 -10 -113
-7 -4293 -7 -4395 -1 -202 13 -428 43 -580 77 -25 6 -52 12 -60 14 -120 26
-406 115 -499 156 -108 47 -251 117 -316 153 -73 40 -276 166 -285 176 -3 3
-21 17 -40 30 -86 60 -214 171 -318 276 -51 52 -94 94 -95 94 -2 0 -12 -8 -23
-18z"/>
</g>
</svg>
