<?xml version="1.0" encoding="UTF-8"?> <!-- Generator: Adobe Illustrator 23.0.1, SVG Export Plug-In . SVG Version: 6.00 Build 0) --> <svg xmlns="http://www.w3.org/2000/svg" xmlns:xlink="http://www.w3.org/1999/xlink" id="Layer_1" x="0px" y="0px" viewBox="0 0 400 245" style="enable-background:new 0 0 400 245;" xml:space="preserve"> <style type="text/css"> .st0{fill:#D82028;} </style> <path class="st0" d="M55,169.6c-6,1.1-12.1,1.4-18.5,2.2l-19.3-56.6v59c-6,0.6-11.5,1.5-17.2,2.3V68.4h16l22,61.3V68.4h17L55,169.6 L55,169.6z M88.3,108c6.5,0,16.6-0.3,22.6-0.3v16.9c-7.5,0-16.3,0-22.6,0.3v25.1c9.9-0.6,19.8-1.5,29.9-1.8v16.3l-46.8,3.7V68.4 h46.8v16.9H88.3C88.3,85.3,88.3,108,88.3,108z M180.9,85.3h-17.5V163c-5.7,0-11.4,0-16.9,0.2V85.3H129V68.4h51.9 C180.9,68.4,180.9,85.3,180.9,85.3z M208.4,106.9h23.1v16.9h-23.1v38.3h-16.6V68.4H239v16.9h-30.6 C208.4,85.3,208.4,106.9,208.4,106.9z M266.5,147.3c9.6,0.2,19.3,1,28.7,1.5v16.7c-15.1-1-30.2-1.9-45.6-2.2V68.4h16.9V147.3 L266.5,147.3z M309.4,166.6c5.4,0.3,11.1,0.6,16.6,1.3V68.4h-16.6V166.6z M400,68.4l-21.4,51.4l21.4,56.7c-6.3-0.8-12.7-2-19-3.1 l-12.1-31.2L356.5,171c-6.1-1.1-12-1.4-18.2-2.2l21.7-49.5l-19.6-50.8h18.2l11.1,28.4l11.8-28.4L400,68.4L400,68.4z"></path> </svg> 