<svg id="Layer_1" data-name="Layer 1" xmlns="http://www.w3.org/2000/svg" viewBox="0 0 328 246"><defs><style>.cls-1{fill:#fea000;}.cls-2,.cls-3{fill:#565757;}.cls-3{stroke:#565757;stroke-miterlimit:10;stroke-width:0.08627px;}</style></defs><title>openmakesoftware</title><path class="cls-1" d="M141.57558,130.0185c-26.84229,27.053-57.453,36.60533-93.20235,26.7329C7.90355,145.57545-6.73164,91.332,21.9613,60.59608c23.34407-25.00618,58.60674-24.217,79.16626,1.78166.81946,1.03633,1.95495,1.95547,1.70907,3.52486-.76061,1.02487-1.54849.45871-2.29875.01927C89.086,59.21457,76.75724,60.2792,67.782,69.77869c-8.9185,9.4395-12.28509,21.16815-9.51112,33.87723C61.6583,119.17571,78.972,124.60058,93.453,115.1652c17.18255-11.19565,25.17183-30.54153,21.14059-51.19139C110.65122,43.779,96.8405,30.25559,76.05079,26.22157c-1.27213-.24688-2.7652.01808-3.5572-1.4304,6.87055-5.75739,27.21663-5.96,44.84666-.61339,15.51921,4.70643,27.2631,14.72326,35.90762,30.53528"/><path class="cls-2" d="M46.45818,179.58349a25.28628,25.28628,0,0,1-3.4213,12.90891c-3.59625,5.913-9.05774,8.78132-15.801,9.49112a22.39217,22.39217,0,0,1-10.61609-1.1498,13.30564,13.30564,0,0,1-8.97512-11.271A23.42744,23.42744,0,0,1,11.81924,172.171c4.4156-6.03852,10.63885-8.431,17.93523-8.41727a20.64651,20.64651,0,0,1,9.1609,1.84137c4.59716,2.24078,6.80195,6.11848,7.35681,11.0621C46.38107,177.62737,46.39855,178.60779,46.45818,179.58349Zm-12.30391-.5028a13.92223,13.92223,0,0,0-.207-2.71652c-.65-3.262-3.12867-4.99055-6.26652-4.32275a7.22287,7.22287,0,0,0-4.40193,3.00505,18.7688,18.7688,0,0,0-3.363,13.79517c.45438,3.52131,3.01405,5.44656,6.18045,4.925a6.98607,6.98607,0,0,0,4.45426-3.07929A20.0542,20.0542,0,0,0,34.15427,179.08069Z"/><path class="cls-2" d="M64.37419,177.115a15.76869,15.76869,0,0,1,4.80227-3.58417A10.20762,10.20762,0,0,1,83.87959,182.298c.32638,5.25865-.64261,10.177-4.08814,14.351-3.55356,4.30486-9.97157,6.021-14.79212,4.0309-1.60873-.66415-2.23325-1.22649-4.27475-3.87856-.45185,3.48248-1.20851,6.82346-1.91528,10.17433-.27717,1.31414-.56668,2.62615-.812,3.94629a.81062.81062,0,0,1-.95736.78652q-4.863-.04551-9.72667,0c-.69508.00691-.8023-.20611-.66479-.83846,1.71223-7.874,3.44711-15.74348,5.08489-23.63307.90263-4.34811,2.045-8.65114,2.59076-13.06951.07717-.62476.3111-.84749.97211-.83884q4.39707.05758,8.79528.00268c.66371-.00739.85111.19515.73583.83051C64.64959,175.14128,64.52267,176.13007,64.37419,177.115Zm8.51312,8.22918c0-.31008.01787-.62134-.00273-.93-.24751-3.709-3.539-5.55294-6.82855-3.83073a6.20328,6.20328,0,0,0-2.086,1.81956,9.93368,9.93368,0,0,0-1.93985,6.71057c.19229,3.30678,2.59614,5.19413,5.64186,4.54865a5.33987,5.33987,0,0,0,3.058-1.988A10.38186,10.38186,0,0,0,72.88731,185.34413Z"/><path class="cls-2" d="M115.56477,192.779c-.36362,2.55877-.70512,4.93561-1.03651,7.31385-.07251.52037-.5117.53017-.86137.65a28.93572,28.93572,0,0,1-11.21824,1.34546,20.42889,20.42889,0,0,1-7.52131-1.70019,10.87728,10.87728,0,0,1-6.56274-9.47947c-.56216-6.323,1.88873-13.08031,8.3735-16.25943,5.35545-2.62546,10.96355-3.18867,16.49591-.48637,3.809,1.86054,5.523,5.23783,5.89225,9.3523a24.02069,24.02069,0,0,1-.59976,6.11906c-.12557.75141-.60944.64243-1.09536.64251q-8.40581.00142-16.81161.00071c-1.56885,0-1.8762.49126-1.16974,1.96011a3.98441,3.98441,0,0,0,2.70651,2.06056c2.88493.81468,5.76341.43638,8.63681-.08086A25.68548,25.68548,0,0,0,115.56477,192.779ZM104.263,184.408c1.202,0,2.40408.006,3.606-.00385.336-.00275.69148.0723.84734-.41428a3.45,3.45,0,0,0-1.99941-4.09589,5.44533,5.44533,0,0,0-6.7593,3.86322c-.11393.5814.1154.662.59333.65589C101.78814,184.39738,103.02564,184.40782,104.263,184.408Z"/><path class="cls-2" d="M138.11136,179.118a14.1988,14.1988,0,0,1,4.4866-3.9349c3.23759-1.63009,6.60942-2.13259,9.99974-.65827,3.31951,1.44352,4.70413,4.32806,5.04181,7.76311.33013,3.35813-.56622,6.58628-1.23013,9.83025-.62942,3.0754-1.30183,6.142-1.96136,9.21123-.08407.39134-.07512.82355-.70912.81958-3.55949-.02229-7.1192-.01074-10.77038-.01074.81382-3.80157,1.62071-7.50688,2.39549-11.21888a22.46883,22.46883,0,0,0,.75357-5.0611c-.05725-2.68164-1.968-4.06031-4.54565-3.28675a6.0698,6.0698,0,0,0-4.02126,4.35c-.78264,2.39124-1.12506,4.892-1.68363,7.33946q-.80324,3.51961-1.50019,7.06307c-.12623.63637-.39.83737-1.03843.831q-4.926-.04862-9.85271-.00234c-.65233.00544-.823-.11928-.67159-.81049q2.39592-10.938,4.72305-21.891c.30439-1.43219.52084-2.8859.70817-4.33868.07026-.54473.2699-.69245.78647-.68936,3.0047.01793,6.00969.0245,9.01424-.00345.65709-.00611.76141.25884.668.81808C138.50493,176.4297,138.33691,177.62684,138.11136,179.118Z"/><path class="cls-2" d="M205.156,175.24115c-.6534,1.35344-1.30132,2.70956-1.96113,4.05987q-5.38134,11.01315-10.75364,22.03066a1.18832,1.18832,0,0,1-1.26635.80542q-4.37224-.0641-8.74578-.00018c-.74385.01136-.9217-.20566-.95743-.93534-.413-8.43682-.85136-16.87224-.96156-25.32051a.98577.98577,0,0,0-.14026-.53835c-.40882,2.03317-.79485,4.07124-1.23064,6.09862q-2.14773,9.99192-4.323,19.97793c-.07687.35536-.08058.70834-.61941.70572-3.373-.01645-6.74613-.00832-10.19891-.00832.94577-4.26341,1.869-8.42533,2.79227-12.58725,1.57593-7.10415,3.1716-14.204,4.703-21.31779.193-.89643.51807-1.13778,1.41512-1.12972,5.201.04677,10.40272.03826,15.60392.00562.74331-.00466.94362.19665.94786.93864.03891,6.82448.11645,13.64876.19093,20.473a2.10183,2.10183,0,0,0,.14294,1.15592c.82234-1.8902,1.601-3.69473,2.39144-5.49408,2.43548-5.54416,5.059-11,7.70962-16.44348a.93423.93423,0,0,1,.97555-.62305q8.14989.02529,16.2999.00238c.55687-.0014.74061.08976.6049.721q-2.58651,12.03018-5.11924,24.07192c-.65092,3.07435-1.3126,6.1467-1.92341,9.22908-.14384.72585-.37841,1.0359-1.19494,1.022-3.17957-.05412-6.36075-.0386-9.541-.009-.68129.00633-.82714-.16023-.67223-.83694,1.91841-8.38137,3.55439-16.8277,5.79842-25.13416.07637-.2827.12248-.57358.1827-.86064Z"/><path class="cls-2" d="M236.944,197.92758a12.45051,12.45051,0,0,1-4.362,3.2161,12.74007,12.74007,0,0,1-9.43747.17265c-5.49213-2.12087-6.43575-9.4285-1.75274-13.31378a15.264,15.264,0,0,1,7.72243-3.08918,33.3354,33.3354,0,0,1,8.91868-.16182c.63548.07433.76184-.11974.76729-.68507.01988-2.06222-1.20869-3.28165-3.60941-3.52281a21.89692,21.89692,0,0,0-10.34184,1.69812c-.18946.07483-.38078.14526-.57281.21324a1.05058,1.05058,0,0,1-.23025-.0159q.348-3.35958.693-6.71635c.04275-.42346.38777-.42812.667-.5166a36.49776,36.49776,0,0,1,14.43087-1.39256,13.61178,13.61178,0,0,1,4.36321,1.11609c3.66368,1.64223,5.31754,4.88876,4.76046,9.08657-.55489,4.18138-1.53959,8.2805-2.24363,12.43188-.24593,1.45008-.41845,2.91662-.53446,4.38277-.04684.5924-.23117.74021-.79051.73515-2.64-.02384-5.28074-.03193-7.92053.00385-.6902.00935-.7973-.26737-.73141-.85547C236.83334,199.87975,236.86616,199.03824,236.944,197.92758Zm-1.518-8.1617-.00006.03888a12.66866,12.66866,0,0,0-1.43763.00843,8.5814,8.5814,0,0,0-4.47768,1.29025,2.30359,2.30359,0,0,0-.9973,2.32942,2.35916,2.35916,0,0,0,1.7606,1.939,6.14929,6.14929,0,0,0,7.11556-3.30254c.89692-2.15555.83822-2.24912-1.44952-2.30295C235.76872,189.76238,235.5973,189.76588,235.426,189.76588Z"/><path class="cls-2" d="M289.586,175.39265c-2.53152,2.72447-4.8673,5.23885-7.20373,7.75262-1.21585,1.30814-2.41145,2.63611-3.65963,3.91268a1.20964,1.20964,0,0,0-.27291,1.64542c2.05988,4.20036,4.03241,8.44346,6.06587,12.657.30674.63562.2249.78168-.48061.77692q-5.51082-.03715-11.022.004c-.58828.00489-.79881-.22632-.99828-.73006-1.69288-4.27494-3.5304-8.49367-5.0283-13.1863-.37414,1.75529-.69716,3.2216-.998,4.69244-.57995,2.83561-1.15878,5.67158-1.70974,8.51289-.10152.52357-.30457.71216-.8546.70775q-4.75238-.0381-9.50511.00149c-.65525.00633-.82094-.17609-.68267-.80828q1.79063-8.18557,3.54806-16.3784,1.854-8.63778,3.68464-17.28057c.23135-1.08628.46381-2.1724.682-3.26135.11826-.59018.35023-.89714,1.05962-.88654q4.59995.0687,9.20138.00076c.8785-.01394.90939.31929.75285,1.0175-1.09709,4.89286-2.16756,9.79168-3.24891,14.68807-.41363,1.87285-.83633,3.74371-1.24712,5.61718a1.03587,1.03587,0,0,0-.02581.77187c.31715-.04486.41188-.32761.57843-.52477q3.88059-4.59414,7.75731-9.19161c.21483-.25454.40286-.51762.80914-.51666C280.95853,175.39647,285.12911,175.39265,289.586,175.39265Z"/><g id="ymXysr.tif"><path class="cls-2" d="M317.01223,193.18449c-.25607,1.86165-.49336,3.59679-.73375,5.33149-.30242,2.18216-.30038,2.195-2.46984,2.71835a28.91083,28.91083,0,0,1-14.00172.11436c-5.66359-1.41909-8.92641-5.51672-8.87352-11.35062.06211-6.85266,2.87655-12.11576,9.402-14.81844a17.47723,17.47723,0,0,1,13.30988-.39783c4.26006,1.64574,6.37044,4.973,6.78283,9.4418a22.48625,22.48625,0,0,1-.50366,5.66089c-.11535.71513-.43993.89768-1.14953.89345-5.46561-.03253-10.93149-.01871-16.3973-.01717-1.16946.00033-1.217.08209-.97383,1.213a3.4565,3.4565,0,0,0,2.71065,2.60807c2.7503.82246,5.51155.453,8.26467-.02963A27.64007,27.64007,0,0,0,317.01223,193.18449Zm-10.79741-8.045c1.18478,0,2.36958-.00239,3.55436.00145.35647.00116.62441-.02573.73943-.48167a3.288,3.288,0,0,0-2.11739-3.88763,5.20811,5.20811,0,0,0-6.26347,3.62328c-.15577.62808.05818.76714.63443.75326C303.91245,185.12047,305.06387,185.14,306.21482,185.13948Z"/></g><path class="cls-3" d="M107.81386,224.71186l-1.67794-13.10025H106.055q-.07085.72787-.28812,1.99639-.21742,1.26873-.379,2.0166l-1.92051,9.08726h-1.63756l3.12342-14.77819h2.46642l1.50614,12.17029h.09092l6.66133-12.17029h2.68878l-3.06277,14.77819h-1.75887q1.27371-5.96371,1.95089-9.153.67709-3.189.95018-3.9675h-.06066L109.138,224.71186Z"/><path class="cls-3" d="M124.7653,213.43108a2.85607,2.85607,0,0,1,1.65772.50042,3.25162,3.25162,0,0,1,1.13215,1.44037h.11115l.67727-1.7386h1.28373l-2.35522,11.07859h-1.34438l.26284-2.11265h-.08087q-1.80951,2.31491-3.81081,2.31484a2.66371,2.66371,0,0,1-2.20357-1.00072,4.27576,4.27576,0,0,1-.79854-2.73932,10.43364,10.43364,0,0,1,.71766-3.90179,6.74043,6.74043,0,0,1,1.98122-2.8202A4.31,4.31,0,0,1,124.7653,213.43108ZM122.84473,223.509a2.84558,2.84558,0,0,0,1.9509-.935,6.92776,6.92776,0,0,0,1.57685-2.436,7.97309,7.97309,0,0,0,.60651-3.00721,2.35663,2.35663,0,0,0-.56607-1.65773,1.923,1.923,0,0,0-1.48592-.61656,2.7826,2.7826,0,0,0-1.9559.8693,5.86436,5.86436,0,0,0-1.4202,2.35516,9.49269,9.49269,0,0,0-.51553,3.13359,2.64877,2.64877,0,0,0,.47509,1.72343A1.639,1.639,0,0,0,122.84473,223.509Z"/><path class="cls-3" d="M137.43085,221.56816a2.9637,2.9637,0,0,1-1.117,2.46143,4.95976,4.95976,0,0,1-3.1487.88446,6.71634,6.71634,0,0,1-3.083-.69744v-1.59718a6.29056,6.29056,0,0,0,1.5263.65712,5.57628,5.57628,0,0,0,1.51625.2324,3.08122,3.08122,0,0,0,1.92056-.50536,1.57183,1.57183,0,0,0,.647-1.29389,1.40038,1.40038,0,0,0-.35383-.9704,7.13811,7.13811,0,0,0-1.5263-1.08148,6.14618,6.14618,0,0,1-1.85991-1.44554,2.66652,2.66652,0,0,1-.54585-1.67794,2.78877,2.78877,0,0,1,1.02094-2.24912,4.05239,4.05239,0,0,1,2.68877-.85414,7.81965,7.81965,0,0,1,3.33566.7481l-.54579,1.38477-.56608-.25274a5.62176,5.62176,0,0,0-2.22379-.43459,2.26092,2.26092,0,0,0-1.47581.43965,1.48218,1.48218,0,0,0-.17691,2.10759,6.33126,6.33126,0,0,0,1.48086,1.04116,8.61336,8.61336,0,0,1,1.55163,1.04116,3.00688,3.00688,0,0,1,.70249.935A2.64381,2.64381,0,0,1,137.43085,221.56816Z"/><path class="cls-3" d="M142.85894,223.52917a5.46843,5.46843,0,0,0,1.45559-.26273v1.30389a4.6612,4.6612,0,0,1-.84908.24263,4.35912,4.35912,0,0,1-.80864.10109,2.81048,2.81048,0,0,1-1.93573-.60151,2.28329,2.28329,0,0,1-.67222-1.7942,7.321,7.321,0,0,1,.182-1.51619l1.28373-6.08509H139.776l.14153-.73788,1.87-.78854L143.051,211.086h.99061l-.556,2.54724h2.76965l-.26285,1.28379h-2.75954l-1.30394,6.10531a7.1935,7.1935,0,0,0-.18192,1.33433,1.20036,1.20036,0,0,0,.29312.8693A1.08575,1.08575,0,0,0,142.85894,223.52917Z"/><path class="cls-3" d="M150.55127,224.91405a3.86543,3.86543,0,0,1-2.92129-1.10182,4.21744,4.21744,0,0,1-1.06133-3.05271,9.09579,9.09579,0,0,1,.753-3.644,6.74429,6.74429,0,0,1,1.99639-2.714,4.35069,4.35069,0,0,1,2.73932-.9704,3.47511,3.47511,0,0,1,2.32489.67228,2.34546,2.34546,0,0,1,.77832,1.87507,3.20388,3.20388,0,0,1-1.67795,2.85547,9.18762,9.18762,0,0,1-4.80142,1.0361h-.33355l-.04044.80865a3.12779,3.12779,0,0,0,.62168,2.06715,2.36963,2.36963,0,0,0,1.92556.74293,5.00482,5.00482,0,0,0,1.30906-.18185,10.025,10.025,0,0,0,1.67289-.66723v1.47587a9.15582,9.15582,0,0,1-1.67794.62162A6.81173,6.81173,0,0,1,150.55127,224.91405Zm1.405-10.03743a2.70078,2.70078,0,0,0-1.956.95017,6.20611,6.20611,0,0,0-1.4,2.63823h.12131a8.251,8.251,0,0,0,3.5328-.6014,1.88767,1.88767,0,0,0,1.22818-1.74377,1.1811,1.1811,0,0,0-.369-.88951A1.62446,1.62446,0,0,0,151.95631,214.87662Z"/><path class="cls-3" d="M163.38867,213.43108a4.61735,4.61735,0,0,1,1.213.14153l-.36394,1.51631a4.44874,4.44874,0,0,0-1.06132-.13143,2.80712,2.80712,0,0,0-1.72343.60646,5.30747,5.30747,0,0,0-1.40505,1.683,8.5633,8.5633,0,0,0-.88446,2.39066l-1.0816,5.07426h-1.69816l2.36528-11.07859h1.405l-.22235,2.052h.10109a9.939,9.939,0,0,1,1.20285-1.37982,3.81646,3.81646,0,0,1,.99567-.6469A2.86023,2.86023,0,0,1,163.38867,213.43108Z"/><path class="cls-3" d="M177.58058,220.01154h-5.01366l-2.47653,4.70032H168.18l8.07643-14.77819h1.75882l1.85991,14.77819h-1.71838Zm-.182-1.57685-.35378-3.02238a34.10572,34.10572,0,0,1-.29311-3.53786q-.37415.88964-.8137,1.76893-.43975.87952-2.522,4.79131Z"/><path class="cls-3" d="M191.97461,213.63327l-.25273,1.0816-2.13281.24262a2.84131,2.84131,0,0,1,.41443,1.59707,4.10032,4.10032,0,0,1-1.17764,3.078,4.31877,4.31877,0,0,1-3.14869,1.14719,3.38156,3.38156,0,0,1-.84908-.08087q-1.40514.536-1.40505,1.32422a.53555.53555,0,0,0,.33361.55085,4.02755,4.02755,0,0,0,.9704.21735l1.18263.14154a5.2678,5.2678,0,0,1,2.65339.88951,2.37477,2.37477,0,0,1,.82381,1.961,3.30089,3.30089,0,0,1-1.47581,2.88085,7.23887,7.23887,0,0,1-4.15442,1.02094,5.4815,5.4815,0,0,1-3.07293-.743,2.37945,2.37945,0,0,1-1.11187-2.09737,2.60357,2.60357,0,0,1,.72777-1.83969,5.66833,5.66833,0,0,1,2.35522-1.32423,1.31649,1.31649,0,0,1-.78842-1.22313,1.61036,1.61036,0,0,1,.51552-1.19774,5.31351,5.31351,0,0,1,1.43531-.935,2.6577,2.6577,0,0,1-1.44542-2.426,4.44111,4.44111,0,0,1,1.20791-3.21435,4.1022,4.1022,0,0,1,3.088-1.25346,6.09673,6.09673,0,0,1,1.55668.20219ZM181.20936,226.683a1.42473,1.42473,0,0,0,.65706,1.23312,3.4329,3.4329,0,0,0,1.95083.45493,5.45481,5.45481,0,0,0,2.8758-.64184,2.02255,2.02255,0,0,0,1.03611-1.81442,1.13269,1.13269,0,0,0-.54586-.99061,4.38113,4.38113,0,0,0-1.85991-.50547l-1.60717-.16175a3.64724,3.64724,0,0,0-1.85991.88963A2.077,2.077,0,0,0,181.20936,226.683Zm2.81008-8.84463a1.76127,1.76127,0,0,0,.45487,1.30894,1.71858,1.71858,0,0,0,1.26351.44987,2.34323,2.34323,0,0,0,1.39494-.42459,2.6996,2.6996,0,0,0,.91479-1.16753,4.04844,4.04844,0,0,0,.31844-1.61223,1.68848,1.68848,0,0,0-.44481-1.26346,1.74808,1.74808,0,0,0-1.27362-.4347,2.36346,2.36346,0,0,0-1.37977.40943,2.68631,2.68631,0,0,0-.91985,1.14214A3.84774,3.84774,0,0,0,184.01944,217.83835Z"/><path class="cls-3" d="M193.52119,224.71186H191.823l2.36527-11.07859h1.69821Zm1.1422-13.90889a1.3284,1.3284,0,0,1,.3235-.9249,1.07721,1.07721,0,0,1,.839-.35878.7953.7953,0,0,1,.88952.90974,1.37154,1.37154,0,0,1-.33861.94006,1.01944,1.01944,0,0,1-.78343.38405.9337.9337,0,0,1-.66711-.24757A.91831.91831,0,0,1,194.66339,210.803Z"/><path class="cls-3" d="M198.7572,224.71186H197.059l3.35588-15.72837h1.69822Z"/><path class="cls-3" d="M206.71237,224.91405a3.86543,3.86543,0,0,1-2.92129-1.10182,4.21744,4.21744,0,0,1-1.06132-3.05271,9.09579,9.09579,0,0,1,.753-3.644,6.7442,6.7442,0,0,1,1.99639-2.714,4.35069,4.35069,0,0,1,2.73932-.9704,3.47511,3.47511,0,0,1,2.32489.67228,2.34549,2.34549,0,0,1,.77831,1.87507,3.20389,3.20389,0,0,1-1.67794,2.85547,9.18762,9.18762,0,0,1-4.80142,1.0361h-.33356l-.04043.80865a3.12778,3.12778,0,0,0,.62167,2.06715,2.36966,2.36966,0,0,0,1.92557.74293,5.00487,5.00487,0,0,0,1.30906-.18185,10.02462,10.02462,0,0,0,1.67288-.66723v1.47587a9.15556,9.15556,0,0,1-1.67794.62162A6.81173,6.81173,0,0,1,206.71237,224.91405Zm1.405-10.03743a2.70082,2.70082,0,0,0-1.956.95017,6.20633,6.20633,0,0,0-1.4,2.63823h.12132a8.251,8.251,0,0,0,3.53279-.6014,1.88768,1.88768,0,0,0,1.22819-1.74377,1.18111,1.18111,0,0,0-.369-.88951A1.62444,1.62444,0,0,0,208.11741,214.87662Z"/><path class="cls-3" d="M217.16423,209.93367l.08082.2224q-.40437.92-1.122,2.20869-.71786,1.28879-1.60723,2.63317h-1.30395q1.35441-3.01211,2.052-5.06426Z"/><path class="cls-3" d="M222.89555,221.56816a2.9637,2.9637,0,0,1-1.117,2.46143,4.95975,4.95975,0,0,1-3.14869.88446,6.71639,6.71639,0,0,1-3.083-.69744v-1.59718a6.29056,6.29056,0,0,0,1.5263.65712,5.57628,5.57628,0,0,0,1.51625.2324,3.08128,3.08128,0,0,0,1.92057-.50536,1.57184,1.57184,0,0,0,.64694-1.29389,1.40038,1.40038,0,0,0-.35383-.9704,7.13811,7.13811,0,0,0-1.5263-1.08148,6.1463,6.1463,0,0,1-1.85991-1.44554,2.66652,2.66652,0,0,1-.54585-1.67794,2.78877,2.78877,0,0,1,1.02094-2.24912,4.0524,4.0524,0,0,1,2.68877-.85414,7.81973,7.81973,0,0,1,3.33567.7481l-.5458,1.38477-.56607-.25274a5.62185,5.62185,0,0,0-2.2238-.43459,2.26092,2.26092,0,0,0-1.47581.43965,1.48218,1.48218,0,0,0-.17691,2.10759,6.33148,6.33148,0,0,0,1.48086,1.04116,8.61336,8.61336,0,0,1,1.55163,1.04116,3.00688,3.00688,0,0,1,.70249.935A2.64381,2.64381,0,0,1,222.89555,221.56816Z"/><path class="cls-3" d="M230.57777,224.71186l3.12342-14.77819h1.71838l-2.78981,13.22156h5.7111l-.33356,1.55663Z"/><path class="cls-3" d="M245.98269,213.43108a2.85609,2.85609,0,0,1,1.65772.50042,3.25093,3.25093,0,0,1,1.13215,1.44037h.1112l.67722-1.7386h1.28378l-2.35527,11.07859H247.1451l.26285-2.11265h-.08088q-1.80949,2.31491-3.8108,2.31484a2.66373,2.66373,0,0,1-2.20358-1.00072,4.27576,4.27576,0,0,1-.79853-2.73932,10.43364,10.43364,0,0,1,.71766-3.90179,6.74043,6.74043,0,0,1,1.98122-2.8202A4.31,4.31,0,0,1,245.98269,213.43108ZM244.06212,223.509a2.84558,2.84558,0,0,0,1.9509-.935,6.92774,6.92774,0,0,0,1.57684-2.436,7.97185,7.97185,0,0,0,.60646-3.00721,2.35656,2.35656,0,0,0-.566-1.65773,1.923,1.923,0,0,0-1.48592-.61656,2.78258,2.78258,0,0,0-1.95589.8693,5.86437,5.86437,0,0,0-1.42021,2.35516,9.49294,9.49294,0,0,0-.51552,3.13359,2.64883,2.64883,0,0,0,.47508,1.72343A1.639,1.639,0,0,0,244.06212,223.509Z"/><path class="cls-3" d="M258.64824,221.56816a2.96387,2.96387,0,0,1-1.117,2.46143,4.9598,4.9598,0,0,1-3.14864.88446,6.71624,6.71624,0,0,1-3.083-.69744v-1.59718a6.28955,6.28955,0,0,0,1.5263.65712,5.57668,5.57668,0,0,0,1.5163.2324,3.08087,3.08087,0,0,0,1.92045-.50536,1.57172,1.57172,0,0,0,.647-1.29389,1.40065,1.40065,0,0,0-.35383-.9704,7.14139,7.14139,0,0,0-1.5263-1.08148,6.14464,6.14464,0,0,1-1.85991-1.44554,2.6662,2.6662,0,0,1-.54591-1.67794,2.789,2.789,0,0,1,1.02094-2.24912,4.05271,4.05271,0,0,1,2.68877-.85414,7.82021,7.82021,0,0,1,3.33578.7481l-.54591,1.38477-.566-.25274a5.62188,5.62188,0,0,0-2.22385-.43459,2.26086,2.26086,0,0,0-1.47575.43965,1.48231,1.48231,0,0,0-.17692,2.10759,6.32971,6.32971,0,0,0,1.48092,1.04116,8.617,8.617,0,0,1,1.55158,1.04116,3.007,3.007,0,0,1,.70249.935A2.64471,2.64471,0,0,1,258.64824,221.56816Z"/><path class="cls-3" d="M264.07633,223.52917a5.46846,5.46846,0,0,0,1.45553-.26273v1.30389a4.6612,4.6612,0,0,1-.84908.24263,4.359,4.359,0,0,1-.80864.10109,2.81048,2.81048,0,0,1-1.93573-.60151,2.28344,2.28344,0,0,1-.67217-1.7942,7.32171,7.32171,0,0,1,.182-1.51619l1.28368-6.08509h-1.7386l.14153-.73788,1.87-.78854,1.26345-2.30461h.99062l-.55591,2.54724h2.76965l-.26285,1.28379h-2.75954l-1.30389,6.10531a7.19019,7.19019,0,0,0-.182,1.33433,1.20012,1.20012,0,0,0,.29318.8693A1.08566,1.08566,0,0,0,264.07633,223.52917Z"/><path class="cls-3" d="M279.00605,224.71186l-1.67794-13.10025h-.08088q-.07076.72787-.288,1.99639-.21753,1.26873-.37911,2.0166l-1.92056,9.08726h-1.63751l3.12348-14.77819h2.46637L280.118,222.104h.091l6.66133-12.17029h2.68877l-3.06282,14.77819h-1.75881q1.27362-5.96371,1.95089-9.153.67716-3.189.95018-3.9675h-.06066l-7.24756,13.12047Z"/><path class="cls-3" d="M291.79291,224.71186h-1.69816l2.36539-11.07859h1.69816Zm1.14226-13.90889a1.3284,1.3284,0,0,1,.3235-.9249,1.07714,1.07714,0,0,1,.839-.35878.79532.79532,0,0,1,.88952.90974,1.371,1.371,0,0,1-.33867.94006,1.01925,1.01925,0,0,1-.78337.38405.93362.93362,0,0,1-.66711-.24757A.91831.91831,0,0,1,292.93517,210.803Z"/><path class="cls-3" d="M297.029,224.71186h-1.69828l3.356-15.72837h1.69816Z"/><path class="cls-3" d="M304.98426,224.91405a3.86519,3.86519,0,0,1-2.92129-1.10182,4.2175,4.2175,0,0,1-1.06137-3.05271,9.09562,9.09562,0,0,1,.753-3.644,6.74473,6.74473,0,0,1,1.99638-2.714,4.35084,4.35084,0,0,1,2.73932-.9704,3.47486,3.47486,0,0,1,2.32484.67228,2.34546,2.34546,0,0,1,.77831,1.87507,3.20378,3.20378,0,0,1-1.67794,2.85547,9.18733,9.18733,0,0,1-4.80131,1.0361h-.33361l-.04044.80865a3.1281,3.1281,0,0,0,.62162,2.06715,2.36985,2.36985,0,0,0,1.92562.74293,5.00476,5.00476,0,0,0,1.30906-.18185,10.02264,10.02264,0,0,0,1.67289-.66723v1.47587a9.15582,9.15582,0,0,1-1.67794.62162A6.8119,6.8119,0,0,1,304.98426,224.91405Zm1.405-10.03743a2.7007,2.7007,0,0,0-1.956.95017,6.20486,6.20486,0,0,0-1.39993,2.63823h.12131a8.25117,8.25117,0,0,0,3.5328-.6014,1.88764,1.88764,0,0,0,1.22807-1.74377,1.18123,1.18123,0,0,0-.36888-.88951A1.6248,1.6248,0,0,0,306.38925,214.87662Z"/><path class="cls-2" d="M308.07652,210.89671h-.77764v-4.09014h-1.39915v-.667h3.576v.667h-1.39916Z"/><path class="cls-2" d="M312.261,210.89671l-1.37958-3.973h-.026q.05522.88506.05526,1.65943v2.31354h-.70609v-4.75717h1.09655l1.32114,3.78425h.01948l1.36019-3.78425h1.09973v4.75717h-.74833v-2.3526q0-.35458.01789-.92412.01785-.56925.03091-.68979h-.026l-1.42847,3.96651Z"/><polygon class="cls-1" points="262.375 92.597 253.316 157.411 303.158 157.411 320.998 23.749 279.855 23.749 232.215 73.988 199.711 23.749 157.835 23.749 136.949 157.411 185.898 157.411 197.145 93.082 223.692 131.843 262.375 92.597"/></svg>