<?xml version="1.0" encoding="utf-8"?>
<!-- Generator: Adobe Illustrator 16.0.0, SVG Export Plug-In . SVG Version: 6.00 Build 0)  -->
<!DOCTYPE svg PUBLIC "-//W3C//DTD SVG 1.1//EN" "http://www.w3.org/Graphics/SVG/1.1/DTD/svg11.dtd">
<svg version="1.1" id="Layer_1" xmlns="http://www.w3.org/2000/svg" xmlns:xlink="http://www.w3.org/1999/xlink" x="0px" y="0px"
	 width="2000px" height="2000px" viewBox="0 0 2000 2000" enable-background="new 0 0 2000 2000" xml:space="preserve">
<path fill-rule="evenodd" clip-rule="evenodd" fill="#FAC213" d="M537.151,958.155v35.271
	c13.349-15.634,17.86-70.863,90.759-107.001c48.322-23.952,33.231-8.162,41.388,3.618c9.136-11.456,27.097-27.745,34.686-40.803
	c-8.03-17.447-27.167-23.551-30.393-35.552c-0.974,0.605-1.801,1.936-2.313,2.545c-18.841,22.337-1.175,8.665-41.189,26.765
	C552.262,878.2,547.677,940.662,537.151,958.155L537.151,958.155z"/>
<path fill-rule="evenodd" clip-rule="evenodd" fill="#5B94CE" d="M876.104,988.069l-4.583-2.276
	c8.745,44.402-24.413,80.275-44.66,99.461c-13.199,12.507-23.533,19.938-41.696,28.554c-3.312,1.573-23.46,9.886-26.775,10.002
	c-16.783,0.615-2.924,1.987-8.269-3.548l-6.337-10.984c-11.578,18.572-23.557,24.825-34.818,41.829
	c11.062,17.099,25.066,24.929,39.078,35.206c8.524-22.504-9.188-11.105,16.467-22.638c11.125-5.001,18.254-5.918,29.611-12.1
	C888.28,1100.326,870.354,1024.017,876.104,988.069L876.104,988.069z"/>
<path fill-rule="evenodd" clip-rule="evenodd" fill="#CA992C" d="M537.151,1041.757l4.516,9.554
	c33.462,83.357,61.902,107.854,166.137,122.834l-1.578-42.564c-64.183-4.587-115.501-29.471-145.571-78.424
	c-9.022-14.693-13.672-35.862-23.503-46.032V1041.757L537.151,1041.757z"/>
<path fill-rule="evenodd" clip-rule="evenodd" fill="#4374AB" d="M871.521,985.792l4.583,2.276
	c-1.122-93.391-70.07-162.196-165.277-161.236c-4.155,10.16-3.14,2.479-4.06,18.924c-0.443,7.982,0.723,14.334,2.188,21.983
	C796.534,875.052,849.476,913.008,871.521,985.792L871.521,985.792z"/>
<g>
	<path fill="#051A32" d="M904.362,1176.004v-179.79h20.072v16.889c4.73-6.608,10.076-11.564,16.033-14.87
		c5.954-3.305,13.176-4.957,21.662-4.957c11.096,0,20.887,2.857,29.374,8.566c8.484,5.713,14.889,13.77,19.214,24.172
		c4.324,10.403,6.487,21.807,6.487,34.208c0,13.301-2.387,25.273-7.16,35.921c-4.773,10.648-11.709,18.809-20.806,24.479
		c-9.099,5.67-18.664,8.506-28.7,8.506c-7.344,0-13.934-1.551-19.766-4.651c-5.835-3.1-10.629-7.016-14.381-11.749v63.275H904.362z
		 M924.312,1061.938c0,16.727,3.386,29.088,10.159,37.084c6.771,7.997,14.971,11.994,24.6,11.994
		c9.791,0,18.175-4.141,25.151-12.423c6.976-8.28,10.464-21.112,10.464-38.491c0-16.563-3.408-28.965-10.22-37.207
		c-6.813-8.24-14.952-12.36-24.416-12.36c-9.384,0-17.686,4.387-24.906,13.157C927.923,1032.463,924.312,1045.212,924.312,1061.938z
		"/>
	<path fill="#051A32" d="M1034.952,1087.395l21.785-3.428c1.224,8.732,4.629,15.422,10.219,20.072
		c5.588,4.65,13.402,6.977,23.438,6.977c10.116,0,17.624-2.06,22.52-6.181c4.896-4.119,7.344-8.954,7.344-14.504
		c0-4.976-2.163-8.892-6.486-11.749c-3.02-1.958-10.525-4.446-22.52-7.466c-16.155-4.079-27.354-7.607-33.596-10.587
		c-6.242-2.977-10.976-7.098-14.197-12.36c-3.225-5.263-4.835-11.077-4.835-17.44c0-5.793,1.325-11.156,3.978-16.095
		c2.651-4.936,6.262-9.036,10.832-12.3c3.427-2.528,8.097-4.67,14.014-6.425c5.914-1.754,12.258-2.631,19.031-2.631
		c10.198,0,19.153,1.468,26.864,4.406s13.401,6.915,17.073,11.933c3.672,5.018,6.2,11.729,7.588,20.133l-21.54,2.938
		c-0.979-6.689-3.815-11.912-8.506-15.666c-4.693-3.752-11.321-5.63-19.889-5.63c-10.118,0-17.339,1.674-21.663,5.018
		c-4.325,3.348-6.486,7.264-6.486,11.75c0,2.857,0.896,5.427,2.692,7.711c1.794,2.367,4.609,4.325,8.445,5.874
		c2.203,0.816,8.689,2.692,19.46,5.63c15.583,4.161,26.455,7.569,32.616,10.22c6.159,2.652,10.994,6.507,14.503,11.565
		c3.508,5.06,5.263,11.342,5.263,18.848c0,7.344-2.142,14.259-6.425,20.745c-4.284,6.486-10.465,11.505-18.542,15.054
		c-8.078,3.55-17.217,5.324-27.415,5.324c-16.89,0-29.762-3.508-38.614-10.525
		C1043.049,1111.587,1037.399,1101.184,1034.952,1087.395z"/>
	<path fill="#051A32" d="M1171.171,1126.191V946.77h35.737l42.469,127.039c3.916,11.832,6.771,20.685,8.567,26.559
		c2.038-6.526,5.221-16.113,9.546-28.761l42.959-124.837h31.943v179.422h-22.887V976.021l-52.138,150.171h-21.418l-51.893-152.741
		v152.741H1171.171z"/>
	<path fill="#051A32" d="M1363.198,1126.191l47.486-67.559l-43.938-62.418h27.538l19.949,30.475
		c3.752,5.794,6.771,10.647,9.057,14.564c3.59-5.385,6.894-10.158,9.913-14.32l21.908-30.719h26.313l-44.917,61.195l48.344,68.782
		h-27.048l-26.681-40.389l-7.099-10.893l-34.146,51.281H1363.198z"/>
</g>
</svg>
