<svg width="1199" height="154" viewBox="0 0 1199 154" fill="none" xmlns="http://www.w3.org/2000/svg">
<path d="M467.41 59.1498C450.73 56.6898 447.1 54.8298 447.1 51.0998C447.1 47.3698 451.82 44.2398 462.9 44.2398C471.731 44.3938 480.452 46.2229 488.6 49.6298C490.67 50.4198 492.53 51.2998 494.4 52.1798V35.8598L494 35.6998C485.27 31.9698 476 30.0098 463.87 30.0098C442.2 30.0098 427.87 39.7198 427.87 52.0798C427.87 65.8198 439.45 70.7298 462.31 73.9598C478.4 76.2198 482.31 77.9598 482.31 82.0098C482.31 86.5298 476.42 89.4598 463.37 89.4598C454.93 89.4598 444.95 87.1398 436.37 83.6798C433.905 82.6724 431.492 81.5409 429.14 80.2898V96.6298C429.82 96.9198 430.5 97.2198 430.98 97.4098C441.553 101.645 452.851 103.778 464.24 103.69C485.34 103.69 501.62 95.1598 501.62 81.1198C501.65 67.3898 490.76 62.4798 467.41 59.1498ZM201.71 31.3998C221.41 31.3998 232.48 40.7698 232.48 55.4598C232.48 70.9998 220.24 80.0498 200.75 80.0498H179.35V102.31H160.82V31.3998H201.71ZM179.35 65.7898H198.09C210.09 65.7898 214.09 61.9498 214.09 55.7898C214.09 49.7898 209.73 45.7898 198.97 45.7898H179.38L179.35 65.7898ZM282.1 102.31H263.57V31.3998H310C329.49 31.3998 339.82 40.0198 339.82 54.6098C339.82 66.1098 332.26 73.6698 321.18 76.6098L343.33 102.27H322.14L301.58 77.9998H282.1V102.31ZM282.1 64.3098H305.52C315.85 64.3098 321.07 61.2198 321.07 54.9398C321.07 48.9398 316.81 45.6698 306.37 45.6698H282.1V64.3098ZM394.43 31.4098V102.32H375.79V31.3998L394.43 31.4098ZM557.98 31.4098L582.79 79.6398H583.11L607.7 31.3998H634.7V102.31H616.39V49.3898H616.17L588.81 102.39H575.6L548.24 49.3898H548.03V102.31H530.89V31.3998L557.98 31.4098ZM729 89.6398H688.32L682.04 102.31H662.8L698.89 30.9998H719.12L755.33 102.34H735.33L729 89.6398ZM694.71 76.6398H722.61L708.8 48.4298H708.58L694.71 76.6398Z" fill="#141414"/>
<path d="M756.36 37.2797V36.9997C756.36 35.4897 755.21 34.4297 753.17 34.4297H749.62V42.5997H751.31V39.8497H753.18L754.59 42.5997H756.45L754.72 39.3697C755.19 39.2587 755.608 38.9914 755.906 38.6117C756.204 38.232 756.364 37.7623 756.36 37.2797V37.2797ZM751.31 35.9997H753.17C754.23 35.9997 754.68 36.3597 754.68 37.1597V37.2397C754.68 37.9497 754.23 38.3997 753.17 38.3997H751.31V35.9997Z" fill="#231F20"/>
<path d="M752.81 30.0994C751.146 30.1014 749.519 30.5969 748.135 31.5233C746.752 32.4497 745.674 33.7654 745.038 35.3042C744.403 36.8429 744.237 38.5356 744.563 40.1682C744.889 41.8009 745.692 43.3002 746.87 44.4768C748.048 45.6534 749.548 46.4543 751.181 46.7784C752.814 47.1025 754.507 46.9351 756.045 46.2975C757.583 45.66 758.897 44.5807 759.822 43.1963C760.747 41.8119 761.24 40.1843 761.24 38.5194C761.262 37.4069 761.059 36.3014 760.643 35.2693C760.227 34.2372 759.607 33.2999 758.819 32.5135C758.032 31.7271 757.094 31.1079 756.061 30.6931C755.029 30.2782 753.923 30.0763 752.81 30.0994V30.0994ZM752.81 45.7894C751.369 45.8073 749.955 45.3961 748.747 44.6082C747.54 43.8203 746.594 42.6912 746.03 41.3645C745.466 40.0377 745.309 38.5732 745.579 37.1571C745.85 35.741 746.535 34.4372 747.548 33.4115C748.561 32.3857 749.856 31.6843 751.269 31.3964C752.681 31.1085 754.148 31.2472 755.481 31.7947C756.815 32.3422 757.956 33.2738 758.759 34.4712C759.562 35.6687 759.99 37.0778 759.99 38.5194C760.028 39.4765 759.868 40.431 759.522 41.324C759.175 42.2169 758.649 43.0292 757.976 43.7107C757.303 44.3922 756.497 44.9283 755.609 45.2858C754.72 45.6434 753.768 45.8148 752.81 45.7894" fill="#231F20"/>
<path d="M77.5996 102.31V31.2695L114.72 102.31H77.5996Z" fill="#00C0E8"/>
<path d="M77.5996 31.27L40.4896 102.31H77.5996V153.45L0.889648 76.73L40.1196 37.48L46.3496 31.27L77.5996 0V31.27Z" fill="#00C0E8"/>
<path d="M161.24 132.121H173.34C177.34 132.121 179.77 133.771 179.77 136.961C179.855 137.963 179.573 138.963 178.977 139.774C178.382 140.584 177.512 141.152 176.53 141.371C179 142.371 180.18 143.651 180.18 145.931C180.18 149.931 177.18 151.341 172.9 151.341H161.24V132.121ZM171.8 139.811C173.4 139.811 174.06 139.321 174.06 138.081C174.06 136.841 173.34 136.431 171.8 136.431H166.92V139.811H171.8ZM172.08 146.971C173.78 146.971 174.44 146.431 174.44 145.161C174.44 143.891 173.78 143.381 172.08 143.381H166.92V147.001L172.08 146.971ZM191.75 145.191L183.32 132.121H189.8L194.55 139.781H194.82L199.62 132.121H205.94L197.54 145.121V151.301H191.75V145.191ZM221 132.121H232.34C237.06 132.121 239.56 134.841 239.56 139.291C239.56 144.291 236.35 146.621 231.9 146.621H226.77V151.341H221V132.121ZM231.32 142.121C231.673 142.15 232.027 142.101 232.358 141.976C232.689 141.851 232.987 141.654 233.233 141.399C233.478 141.145 233.663 140.838 233.775 140.503C233.887 140.168 233.923 139.812 233.88 139.461C233.932 139.103 233.901 138.739 233.789 138.395C233.677 138.052 233.488 137.739 233.235 137.481C232.983 137.223 232.674 137.026 232.333 136.906C231.992 136.787 231.629 136.747 231.27 136.791H226.77V142.121H231.32ZM248.9 132.121H258.18L264.85 151.341H258.85L257.51 147.341H249.58L248.2 151.341H242.27L248.9 132.121ZM250.9 143.051H256.06L254 137.051H253L250.9 143.051ZM269.9 132.121H275.66V146.371H285.85L285.63 151.371H269.9V132.121ZM289.62 141.731C289.62 135.471 293.87 131.551 300.62 131.551C307.37 131.551 311.62 135.471 311.62 141.731C311.62 147.991 307.36 151.921 300.62 151.921C293.88 151.921 289.6 148.001 289.6 141.731H289.62ZM305.84 141.731C305.84 138.411 303.92 136.431 300.6 136.431C297.28 136.431 295.35 138.431 295.35 141.731C295.35 145.031 297.28 147.031 300.57 147.031C303.86 147.031 305.82 145.051 305.82 141.731H305.84ZM332.75 132.121H342L348.67 151.341H342.67L341.33 147.341H333.39L332.02 151.341H326.09L332.75 132.121ZM334.75 143.051H339.91L337.86 137.051H336.86L334.75 143.051ZM353.75 132.121H359.52V146.371H369.7L369.48 151.371H353.75V132.121ZM377.75 137.061H371L371.22 132.121H390.03L390.25 137.061H383.52V151.341H377.73L377.75 137.061ZM394.04 141.731C394.04 135.471 398.29 131.551 405.04 131.551C411.79 131.551 416.04 135.471 416.04 141.731C416.04 147.991 411.78 151.921 405.04 151.921C398.3 151.921 394 148.001 394 141.731H394.04ZM410.26 141.731C410.26 138.411 408.34 136.431 405.02 136.431C401.7 136.431 399.78 138.431 399.78 141.731C399.78 145.031 401.7 147.031 404.99 147.031C408.28 147.031 410.26 145.051 410.26 141.731ZM432.26 132.121H438.26L446.52 143.021H446.61V132.121H452.1V151.341H446.3L437.85 140.171H437.77V151.341H432.28L432.26 132.121ZM458.92 132.121H475.72L475.94 136.791H464.66V139.431H473.53V143.681H464.66V146.681H476.27L476.05 151.351H459L458.92 132.121ZM487.51 137.061H480.79L481 132.121H499.81L500.03 137.061H493.3V151.341H487.51V137.061ZM504.21 132.121H510.36L513.49 145.471H513.79L517.86 132.121H523.48L527.48 145.471H527.78L530.85 132.121H536.73L531.73 151.341H524.18L520.66 139.761H520.5L516.93 151.341H509.35L504.21 132.121ZM540.49 141.731C540.49 135.471 544.74 131.551 551.49 131.551C558.24 131.551 562.49 135.471 562.49 141.731C562.49 147.991 558.23 151.921 551.49 151.921C544.75 151.921 540.52 148.001 540.52 141.731H540.49ZM556.71 141.731C556.71 138.411 554.79 136.431 551.47 136.431C548.15 136.431 546.22 138.431 546.22 141.731C546.22 145.031 548.15 147.031 551.44 147.031C554.73 147.031 556.74 145.051 556.74 141.731H556.71ZM568.22 132.121H579.42C584.53 132.121 587.03 134.541 587.03 139.011C587.03 142.091 585.77 144.171 583.3 145.161L587.85 151.341H581.32L577.78 146.291H574V151.341H568.23L568.22 132.121ZM578.68 141.791C579.028 141.844 579.384 141.817 579.719 141.71C580.055 141.603 580.361 141.419 580.614 141.174C580.867 140.929 581.059 140.629 581.177 140.297C581.294 139.965 581.333 139.61 581.29 139.261C581.29 137.811 580.61 136.761 578.68 136.761H574V141.761L578.68 141.791ZM592.97 132.121H598.73V139.211H601.1L606.72 132.121H613.2L605.84 141.321L613.61 151.321H606.89L601.1 144.001H598.76V151.381H593L592.97 132.121ZM617.55 150.121V144.851C620.344 146.342 623.445 147.167 626.61 147.261C628.61 147.261 629.71 146.771 629.71 145.811C629.71 144.851 629.02 144.601 624.9 143.941C620.4 143.231 617.41 141.881 617.41 138.011C617.41 134.411 620.57 131.641 626.74 131.641C629.298 131.652 631.828 132.175 634.18 133.181V138.401C631.784 137.06 629.096 136.325 626.35 136.261C624.16 136.261 623.28 136.781 623.28 137.661C623.28 138.791 624.62 138.901 628 139.471C632.5 140.241 635.49 141.471 635.49 145.571C635.49 148.721 633.13 151.881 626.35 151.881C623.337 151.859 620.358 151.247 617.58 150.081L617.55 150.121Z" fill="#807C7B"/>
<path d="M796.73 67.0002C796.73 47.1602 810.33 29.1602 837.13 29.1602C848.89 29.1602 858.3 33.5602 863.51 37.6502V53.6502H863.41C855.74 48.5402 848.171 43.5302 836.821 43.5302C821.481 43.5302 812.89 53.5302 812.89 66.9402C812.89 79.7302 820.89 89.7502 836.72 89.7502C847.86 89.7502 855.94 85.6602 863.41 80.0302H863.51V96.0302C858.51 99.8102 848.581 104.11 835.591 104.11C808.081 104 796.73 86.4202 796.73 67.0002ZM882.121 30.7902H897.871V87.8602H938.67L938.16 102.38H882.16L882.121 30.7902ZM945.72 66.5901C945.72 43.8801 960.961 29.1602 985.101 29.1602C1009.24 29.1602 1024.47 43.8801 1024.47 66.5901C1024.47 89.3001 1009.23 104 985.101 104C960.971 104 945.72 89.2802 945.72 66.5802V66.5901ZM1008.31 66.5901C1008.31 52.1701 1000.03 43.3702 985.2 43.3702C970.37 43.3702 961.88 52.1701 961.88 66.5901C961.88 81.0101 970.17 89.8002 984.99 89.8002C999.81 89.8002 1008.31 81.0002 1008.31 66.5802V66.5901ZM1040.73 74.7701V30.7701H1056.47V74.0002C1056.47 85.6602 1065.37 89.4501 1074.98 89.4501C1084.59 89.4501 1093.49 85.8702 1093.49 74.5102V30.7802H1109.24V74.2502C1109.24 96.1302 1094.01 104.01 1074.78 104.01C1055.55 104.01 1040.73 96.0002 1040.73 74.7602V74.7701ZM1127.55 30.7701H1162.62C1185.12 30.7701 1198.62 44.0702 1198.62 66.4702C1198.62 88.8702 1185.12 102.36 1162.62 102.36H1127.55V30.7701ZM1162.55 88.1501C1175.23 88.1501 1182.49 81.5002 1182.49 66.6702C1182.49 51.8402 1175.2 45.0002 1162.52 45.0002H1143.29V88.1602L1162.55 88.1501Z" fill="#807C7B"/>
</svg>
