<svg width="2226" height="485" viewBox="0 0 2226 485" fill="none" xmlns="http://www.w3.org/2000/svg">
<path fill-rule="evenodd" clip-rule="evenodd" d="M413.236 117.698H413.227C410.008 55.203 316.909 33.3046 287.205 88.8176C209.124 59.2366 182.742 185.024 266.306 189.167H297.66C283.144 247.964 234.858 282.559 182.875 302.89C180.459 303.869 178.458 305.657 177.215 307.949C175.972 310.24 175.564 312.892 176.06 315.451C176.557 318.01 177.928 320.317 179.938 321.977C181.948 323.637 184.472 324.547 187.079 324.551L331.937 324.672C333.843 324.667 335.716 324.178 337.381 323.252C339.047 322.325 340.45 320.992 341.46 319.376C342.47 317.761 343.054 315.915 343.158 314.012C343.261 312.109 342.881 310.212 342.051 308.496L333.186 290.217C329.159 281.948 328.261 272.501 330.658 263.622C334.709 248.601 343.553 215.93 350.815 189.167H413.236C459.907 188.954 459.999 117.911 413.236 117.698ZM413.236 117.881L413.228 117.726C413.42 117.751 413.587 117.796 413.236 117.881ZM31.2565 168.247H29.063V168.156C25.2464 168.156 21.4672 168.908 17.9411 170.368C14.415 171.829 11.2111 173.97 8.51233 176.668C5.81358 179.367 3.67282 182.571 2.21227 186.097C0.751712 189.623 0 193.402 0 197.219C0 201.036 0.751712 204.815 2.21227 208.341C3.67282 211.867 5.81358 215.071 8.51233 217.77C11.2111 220.468 14.415 222.609 17.9411 224.07C21.4672 225.53 25.2464 226.282 29.063 226.282H140.783L162.937 248.436C170.075 255.574 181.648 255.574 188.787 248.436C195.925 241.297 195.925 229.724 188.787 222.586L179.639 213.438C180.501 212.555 181.327 211.633 182.113 210.674C186.15 205.75 189.033 199.984 190.551 193.8C192.069 187.616 192.183 181.17 190.885 174.936C189.586 168.702 186.909 162.838 183.048 157.775C179.187 152.711 174.241 148.576 168.574 145.673C162.906 142.77 156.661 141.173 150.295 140.999C143.93 140.825 137.607 142.079 131.789 144.668C125.95 134.71 117.075 126.883 106.465 122.334C95.8552 117.786 84.0675 116.754 72.8286 119.39C61.5897 122.026 51.4902 128.191 44.0093 136.983C36.5284 145.775 32.0593 156.731 31.2565 168.247ZM93.7324 350.49H371.327C371.327 350.49 381.479 396.159 325.543 409.111V427.998H139.52V409.115C83.5777 396.168 93.7324 350.49 93.7324 350.49Z" fill="#295A38"/>
<path d="M545.627 388V96.2655H660.726C682.853 96.2655 701.704 100.491 717.278 108.943C732.852 117.3 744.723 128.934 752.89 143.843C761.152 158.658 765.283 175.752 765.283 195.125C765.283 214.498 761.105 231.592 752.748 246.406C744.391 261.221 732.283 272.759 716.423 281.021C700.659 289.283 681.571 293.414 659.159 293.414H585.798V243.985H649.188C661.058 243.985 670.84 241.943 678.532 237.859C686.319 233.681 692.112 227.935 695.911 220.623C699.804 213.216 701.751 204.716 701.751 195.125C701.751 185.438 699.804 176.986 695.911 169.769C692.112 162.457 686.319 156.806 678.532 152.818C670.745 148.734 660.868 146.692 648.903 146.692H607.308V388H545.627ZM782.145 388V169.199H840.976V207.375H843.255C847.244 193.795 853.939 183.539 863.34 176.606C872.742 169.579 883.568 166.065 895.819 166.065C898.857 166.065 902.134 166.255 905.647 166.635C909.161 167.015 912.248 167.537 914.907 168.202V222.048C912.058 221.193 908.117 220.433 903.083 219.768C898.05 219.104 893.444 218.771 889.266 218.771C880.339 218.771 872.362 220.718 865.335 224.612C858.402 228.41 852.894 233.728 848.811 240.566C844.822 247.403 842.828 255.285 842.828 264.212V388H782.145ZM1012.89 392.273C990.766 392.273 971.63 387.573 955.486 378.171C939.437 368.674 927.044 355.474 918.307 338.57C909.57 321.572 905.202 301.866 905.202 279.454C905.202 256.852 909.57 237.1 918.307 220.196C927.044 203.197 939.437 189.997 955.486 180.595C971.63 171.098 990.766 166.35 1012.89 166.35C1035.02 166.35 1054.11 171.098 1070.16 180.595C1086.3 189.997 1098.74 203.197 1107.48 220.196C1116.22 237.1 1120.58 256.852 1120.58 279.454C1120.58 301.866 1116.22 321.572 1107.48 338.57C1098.74 355.474 1086.3 368.674 1070.16 378.171C1054.11 387.573 1035.02 392.273 1012.89 392.273ZM1013.18 345.265C1023.24 345.265 1031.65 342.416 1038.39 336.719C1045.13 330.926 1050.21 323.043 1053.63 313.072C1057.15 303.101 1058.9 291.752 1058.9 279.027C1058.9 266.302 1057.15 254.953 1053.63 244.982C1050.21 235.01 1045.13 227.128 1038.39 221.335C1031.65 215.542 1023.24 212.646 1013.18 212.646C1003.02 212.646 994.469 215.542 987.537 221.335C980.699 227.128 975.524 235.01 972.01 244.982C968.591 254.953 966.882 266.302 966.882 279.027C966.882 291.752 968.591 303.101 972.01 313.072C975.524 323.043 980.699 330.926 987.537 336.719C994.469 342.416 1003.02 345.265 1013.18 345.265ZM1218.61 391.561C1201.99 391.561 1186.93 387.288 1173.45 378.741C1160.06 370.099 1149.42 357.421 1141.54 340.707C1133.75 323.898 1129.86 303.291 1129.86 278.884C1129.86 253.814 1133.9 232.969 1141.97 216.35C1150.04 199.636 1160.77 187.148 1174.16 178.886C1187.65 170.529 1202.41 166.35 1218.46 166.35C1230.71 166.35 1240.92 168.439 1249.09 172.618C1257.35 176.701 1264 181.83 1269.03 188.002C1274.16 194.08 1278.05 200.063 1280.71 205.951H1282.56V96.2655H1343.11V388H1283.28V352.958H1280.71C1277.86 359.035 1273.83 365.066 1268.6 371.049C1263.48 376.937 1256.78 381.827 1248.52 385.721C1240.35 389.614 1230.38 391.561 1218.61 391.561ZM1237.84 343.271C1247.62 343.271 1255.88 340.612 1262.62 335.294C1269.46 329.881 1274.68 322.331 1278.29 312.645C1281.99 302.958 1283.85 291.61 1283.85 278.6C1283.85 265.589 1282.04 254.288 1278.43 244.697C1274.83 235.105 1269.6 227.698 1262.76 222.475C1255.93 217.252 1247.62 214.64 1237.84 214.64C1227.86 214.64 1219.46 217.347 1212.62 222.76C1205.79 228.173 1200.61 235.675 1197.1 245.267C1193.58 254.858 1191.83 265.969 1191.83 278.6C1191.83 291.325 1193.58 302.578 1197.1 312.36C1200.7 322.046 1205.88 329.644 1212.62 335.152C1219.46 340.565 1227.86 343.271 1237.84 343.271ZM1574.92 169.199L1498.43 388H1430.05L1353.56 169.199H1417.66L1463.1 325.75H1465.38L1510.68 169.199H1574.92ZM1640.43 392.131C1626.47 392.131 1614.03 389.709 1603.11 384.866C1592.19 379.928 1583.55 372.663 1577.18 363.072C1570.91 353.385 1567.78 341.324 1567.78 326.89C1567.78 314.734 1570.01 304.525 1574.48 296.263C1578.94 288.001 1585.02 281.354 1592.71 276.32C1600.4 271.287 1609.14 267.489 1618.92 264.925C1628.8 262.36 1639.15 260.556 1649.97 259.511C1662.7 258.182 1672.96 256.947 1680.74 255.808C1688.53 254.573 1694.18 252.769 1697.69 250.395C1701.21 248.021 1702.96 244.507 1702.96 239.854V238.999C1702.96 229.977 1700.12 222.997 1694.42 218.059C1688.81 213.121 1680.84 210.652 1670.49 210.652C1659.57 210.652 1650.88 213.073 1644.42 217.917C1637.96 222.665 1633.69 228.648 1631.6 235.865L1575.47 231.307C1578.32 218.011 1583.92 206.521 1592.28 196.834C1600.64 187.053 1611.42 179.55 1624.62 174.327C1637.91 169.009 1653.3 166.35 1670.77 166.35C1682.93 166.35 1694.56 167.775 1705.67 170.624C1716.88 173.473 1726.8 177.888 1735.44 183.871C1744.18 189.854 1751.06 197.546 1756.1 206.948C1761.13 216.255 1763.65 227.413 1763.65 240.423V388H1706.1V357.658H1704.39C1700.88 364.496 1696.17 370.526 1690.29 375.749C1684.4 380.878 1677.32 384.914 1669.06 387.858C1660.8 390.707 1651.26 392.131 1640.43 392.131ZM1657.81 350.251C1666.74 350.251 1674.62 348.494 1681.45 344.981C1688.29 341.372 1693.66 336.529 1697.55 330.451C1701.44 324.373 1703.39 317.488 1703.39 309.796V286.577C1701.49 287.811 1698.88 288.951 1695.56 289.995C1692.33 290.945 1688.67 291.847 1684.59 292.702C1680.51 293.462 1676.42 294.174 1672.34 294.839C1668.25 295.408 1664.55 295.931 1661.23 296.406C1654.1 297.45 1647.88 299.112 1642.57 301.391C1637.25 303.67 1633.12 306.757 1630.17 310.65C1627.23 314.449 1625.76 319.197 1625.76 324.895C1625.76 333.157 1628.75 339.473 1634.73 343.841C1640.81 348.114 1648.5 350.251 1657.81 350.251ZM1849.35 261.506V388H1788.66V169.199H1846.5V207.803H1849.06C1853.91 195.077 1862.03 185.011 1873.42 177.604C1884.82 170.101 1898.63 166.35 1914.87 166.35C1930.07 166.35 1943.32 169.674 1954.62 176.322C1965.92 182.969 1974.7 192.466 1980.97 204.811C1987.24 217.062 1990.37 231.687 1990.37 248.685V388H1929.69V259.511C1929.78 246.121 1926.36 235.675 1919.43 228.173C1912.5 220.576 1902.96 216.777 1890.8 216.777C1882.63 216.777 1875.42 218.534 1869.15 222.048C1862.97 225.561 1858.13 230.689 1854.62 237.432C1851.2 244.08 1849.44 252.104 1849.35 261.506ZM2078.53 392.131C2064.57 392.131 2052.13 389.709 2041.21 384.866C2030.29 379.928 2021.64 372.663 2015.28 363.072C2009.01 353.385 2005.88 341.324 2005.88 326.89C2005.88 314.734 2008.11 304.525 2012.57 296.263C2017.04 288.001 2023.12 281.354 2030.81 276.32C2038.5 271.287 2047.24 267.489 2057.02 264.925C2066.9 262.36 2077.25 260.556 2088.07 259.511C2100.8 258.182 2111.05 256.947 2118.84 255.808C2126.63 254.573 2132.28 252.769 2135.79 250.395C2139.31 248.021 2141.06 244.507 2141.06 239.854V238.999C2141.06 229.977 2138.21 222.997 2132.52 218.059C2126.91 213.121 2118.94 210.652 2108.59 210.652C2097.66 210.652 2088.97 213.073 2082.52 217.917C2076.06 222.665 2071.79 228.648 2069.7 235.865L2013.57 231.307C2016.42 218.011 2022.02 206.521 2030.38 196.834C2038.74 187.053 2049.52 179.55 2062.72 174.327C2076.01 169.009 2091.4 166.35 2108.87 166.35C2121.03 166.35 2132.66 167.775 2143.77 170.624C2154.98 173.473 2164.9 177.888 2173.54 183.871C2182.28 189.854 2189.16 197.546 2194.2 206.948C2199.23 216.255 2201.75 227.413 2201.75 240.423V388H2144.2V357.658H2142.49C2138.97 364.496 2134.27 370.526 2128.39 375.749C2122.5 380.878 2115.42 384.914 2107.16 387.858C2098.9 390.707 2089.35 392.131 2078.53 392.131ZM2095.91 350.251C2104.83 350.251 2112.72 348.494 2119.55 344.981C2126.39 341.372 2131.76 336.529 2135.65 330.451C2139.54 324.373 2141.49 317.488 2141.49 309.796V286.577C2139.59 287.811 2136.98 288.951 2133.66 289.995C2130.43 290.945 2126.77 291.847 2122.69 292.702C2118.6 293.462 2114.52 294.174 2110.44 294.839C2106.35 295.408 2102.65 295.931 2099.33 296.406C2092.2 297.45 2085.98 299.112 2080.67 301.391C2075.35 303.67 2071.22 306.757 2068.27 310.65C2065.33 314.449 2063.86 319.197 2063.86 324.895C2063.86 333.157 2066.85 339.473 2072.83 343.841C2078.91 348.114 2086.6 350.251 2095.91 350.251Z" fill="#295A38"/>
</svg>
