<svg xmlns="http://www.w3.org/2000/svg" viewBox="0 0 747.67999 264.28" height="264.28" width="747.68"><path d="M40.51 183.255H20.255v-20.256H40.51zM20.256 20.259H40.51v20.253H20.256zm111.91 111.88V71.372H85.693l.015-.014-24.943-24.943V.003H0v60.765h46.471l24.914 24.913.016-.014v32.178l-.03-.029-24.929 24.928H0v60.765h60.765v-46.443l24.929-24.928h46.472" fill="#f9a512"/><path d="M199.408 196.259c3.239 6.693 10.365 11.228 18.139 11.228 14.468 0 23.106-11.66 23.106-26.992 0-15.548-8.638-27.21-23.106-27.21-7.99 0-14.9 4.751-18.139 11.23zm0 68.021h-26.777V132.123h26.777v7.99c4.319-5.182 13.82-10.149 24.185-10.149 28.074 0 44.052 23.321 44.052 50.53s-15.978 50.315-44.052 50.315c-10.365 0-19.866-4.966-24.185-10.149v43.62M364.819 228.65h-26.776v-8.854c-5.399 6.047-14.684 11.013-25.914 11.013-21.594 0-33.902-14.252-33.902-35.63v-63.056h26.776v57.657c0 10.15 4.968 17.06 15.548 17.06 8.206 0 15.332-4.967 17.276-13.39v-61.327h26.992v96.526M409.301 196.259c3.24 6.693 10.367 11.228 18.14 11.228 14.468 0 23.106-11.66 23.106-26.992 0-15.548-8.638-27.21-23.106-27.21-7.99 0-14.9 4.751-18.14 11.23zm0 68.021h-26.776V132.123h26.776v7.99c4.319-5.182 13.82-10.149 24.187-10.149 28.07 0 44.052 23.321 44.052 50.53s-15.981 50.315-44.052 50.315c-10.367 0-19.868-4.966-24.187-10.149v43.62M515.977 196.259c3.24 6.693 10.366 11.228 18.139 11.228 14.47 0 23.107-11.66 23.107-26.992 0-15.548-8.638-27.21-23.107-27.21-7.99 0-14.899 4.751-18.139 11.23zm0 68.021h-26.776V132.123h26.776v7.99c4.319-5.182 13.82-10.149 24.187-10.149 28.07 0 44.052 23.321 44.052 50.53s-15.981 50.315-44.052 50.315c-10.367 0-19.868-4.966-24.187-10.149v43.62M617.253 169.913h37.359c-.217-10.15-6.264-18.138-17.277-18.138-10.364 0-17.707 6.261-20.082 18.138zm63.055 27.208c-3.455 20.515-18.57 33.688-42.756 33.688-28.073 0-46.86-20.514-46.86-50.314 0-29.152 19.435-50.531 46.427-50.531 28.289 0 43.837 19.65 43.837 47.939v8.206h-64.35c.863 14.468 9.069 23.106 20.946 23.106 9.068 0 15.764-3.887 17.923-12.094h24.833M698.447 153.717h-14.684v-21.594h14.684v-26.128h26.56v26.128h21.164v21.594h-21.164v42.326c0 7.557 4.104 11.013 11.013 11.013 4.103 0 8.639-1.296 11.661-3.24v23.754c-3.672 1.943-10.149 3.024-17.276 3.024-19.65 0-31.958-9.718-31.958-31.097v-45.78" fill="#201f1e"/></svg>
