<svg id="Layer_1" data-name="Layer 1" xmlns="http://www.w3.org/2000/svg" xmlns:xlink="http://www.w3.org/1999/xlink" width="923.7" height="150" viewBox="0 0 923.7 150">
  <defs>
    <linearGradient id="linear-gradient" x1="55.37" y1="5" x2="55.37" y2="105.73" gradientUnits="userSpaceOnUse">
      <stop offset="0" stop-color="#2980c3"/>
      <stop offset="0.5" stop-color="#0d72b9"/>
      <stop offset="1" stop-color="#0a5287"/>
    </linearGradient>
    <linearGradient id="linear-gradient-2" x1="94.63" y1="145" x2="94.63" y2="44.27" gradientUnits="userSpaceOnUse">
      <stop offset="0" stop-color="#2980c3"/>
      <stop offset="0.7" stop-color="#0d72b9"/>
      <stop offset="1" stop-color="#0a5287"/>
    </linearGradient>
  </defs>
  <title>Screwdriver_Logo_FullBlack</title>
  <g>
    <g>
      <path d="M104.7,45.3a50.4,50.4,0,1,0-59.4,59.4,47.4,47.4,0,0,1-1-10.1V83.1A29.9,29.9,0,1,1,83.1,44.3a28.9,28.9,0,0,1,2.1,11.1V85.2H64.8v9.4a28.9,28.9,0,0,0,2.1,11.1h38.8V55.4A47.4,47.4,0,0,0,104.7,45.3Z" fill="url(#linear-gradient)"/>
      <path d="M104.7,45.3a47.4,47.4,0,0,1,1,10.1V66.9a29.9,29.9,0,1,1-38.8,38.8,28.9,28.9,0,0,1-2.1-11.1V64.8H85.2V55.4a28.9,28.9,0,0,0-2.1-11.1H44.3V94.6a47.4,47.4,0,0,0,1,10.1,50.4,50.4,0,1,0,59.4-59.4Z" fill="url(#linear-gradient-2)"/>
    </g>
    <path d="M186.3,93.1c.8,6.6,7.7,11,16.7,11s15.2-4.3,15.2-10.2-3.9-8.2-13.6-10.4L194,81.2c-14.9-3.2-22.2-10.8-22.2-22.6,0-14.9,12.9-24.8,30.9-24.8s30.7,9.7,31,24.4H217.8c-.6-6.9-6.6-11-15-11s-14,4-14,10,3.9,7.7,13.3,9.9l9.8,2c16.1,3.5,23.2,10.5,23.2,22.8,0,15.7-12.7,25.6-32.8,25.6s-31.8-9.2-32.3-24.4Z" fill="#303030"/>
    <path d="M281.9,78.4c-.8-6.3-5.2-10.6-11.9-10.6S256.9,74.6,256.9,86s5,18.3,13.1,18.3,10.9-3.7,11.9-10.2h15.2c-.9,14.1-11.3,23.1-27.3,23.1-18,0-29.5-11.8-29.5-31.2s11.5-31,29.4-31c16.3,0,26.6,9.8,27.4,23.4Z" fill="#303030"/>
    <path d="M303.8,56h15.8V66.8h.3c2.1-7.4,7.3-11.5,14.3-11.5a15.3,15.3,0,0,1,4.7.6V70.3a19,19,0,0,0-6-.9c-8,0-12.7,4.9-12.7,13.4v33.3H303.8Z" fill="#303030"/>
    <path d="M398.3,97.7c-1.8,11.7-12.6,19.5-27.4,19.5-18.3,0-29.6-11.7-29.6-30.9S352.6,55,370.3,55s28.5,11.6,28.5,29.8v5H357.4v1c0,8.5,5.6,14.3,13.8,14.3,5.9,0,10.6-2.8,12.1-7.4ZM357.6,79.8h25.5c-.3-7.7-5.4-12.7-12.6-12.7S358.2,72.3,357.6,79.8Z" fill="#303030"/>
    <path d="M472,116.1H454.6L443.7,73.6h-.3l-10.9,42.5H415.3L399.4,56h16.4l9.1,44.6h.4L435.9,56h15.7l10.7,44.6h.3L471.8,56h16.1Z" fill="#303030"/>
    <path d="M487.4,86c0-18.9,9.7-30.7,24.6-30.7,8.7,0,15.4,4.4,18.4,11h.3V35.2h16.4v80.9H530.9V105.8h-.3c-2.9,6.6-9.8,11-18.7,11C497,116.8,487.4,104.9,487.4,86Zm16.8.1c0,10.8,5.1,17.6,13.3,17.6s13.3-6.9,13.3-17.6-5.2-17.6-13.3-17.6S504.2,75.3,504.2,86.1Z" fill="#303030"/>
    <path d="M555.7,56h15.8V66.8h.3c2.1-7.4,7.3-11.5,14.3-11.5a15.3,15.3,0,0,1,4.7.6V70.3a19,19,0,0,0-6-.9c-8,0-12.7,4.9-12.7,13.4v33.3H555.7Z" fill="#303030"/>
    <path d="M596.1,41a8.8,8.8,0,0,1,17.5,0,8.6,8.6,0,0,1-8.8,8.4A8.5,8.5,0,0,1,596.1,41Zm.5,15H613v60.1H596.6Z" fill="#303030"/>
    <path d="M657.7,116.1H639.2L618.4,56h17.5l12.5,45.6h.3L661.2,56h17.1Z" fill="#303030"/>
    <path d="M733.6,97.7c-1.8,11.7-12.7,19.5-27.4,19.5-18.4,0-29.6-11.7-29.6-30.9S687.8,55,705.6,55s28.5,11.6,28.5,29.8v5H692.7v1c0,8.5,5.5,14.3,13.7,14.3,5.9,0,10.6-2.8,12.2-7.4ZM692.8,79.8h25.5c-.3-7.7-5.4-12.7-12.6-12.7S693.4,72.3,692.8,79.8Z" fill="#303030"/>
    <path d="M741.2,56H757V66.8h.3c2.1-7.4,7.2-11.5,14.3-11.5a15.3,15.3,0,0,1,4.7.6V70.3a19,19,0,0,0-6-.9c-8,0-12.8,4.9-12.8,13.4v33.3H741.2Z" fill="#303030"/>
    <path d="M774.1,107.7a9,9,0,1,1,9,9.1A9,9,0,0,1,774.1,107.7Z" fill="#303030"/>
    <path d="M838.8,78.4c-.9-6.3-5.2-10.6-11.9-10.6S813.8,74.6,813.8,86s5,18.3,13.1,18.3,10.9-3.7,11.9-10.2H854c-.9,14.1-11.3,23.1-27.3,23.1-18,0-29.5-11.8-29.5-31.2s11.5-31,29.4-31c16.3,0,26.6,9.8,27.4,23.4Z" fill="#303030"/>
    <path d="M858.1,86c0-18.9,9.6-30.7,24.6-30.7,8.7,0,15.4,4.4,18.3,11h.4V35.2h16.3v80.9H901.6V105.8h-.3c-2.9,6.6-9.9,11-18.7,11C867.7,116.8,858.1,104.9,858.1,86Zm16.8.1c0,10.8,5.1,17.6,13.2,17.6s13.4-6.9,13.4-17.6-5.2-17.6-13.4-17.6S874.9,75.3,874.9,86.1Z" fill="#303030"/>
  </g>
</svg>
