<svg xmlns="http://www.w3.org/2000/svg" xmlns:xlink="http://www.w3.org/1999/xlink" width="750" height="450" viewBox="0 0 750 450">
  <defs>
    <linearGradient id="linear-gradient" x1="337.55" y1="22.93" x2="337.55" y2="215.04" gradientUnits="userSpaceOnUse">
      <stop offset="0" stop-color="#2980c3"/>
      <stop offset="0.5" stop-color="#0d72b9"/>
      <stop offset="1" stop-color="#0a5287"/>
    </linearGradient>
    <linearGradient id="linear-gradient-2" x1="412.45" y1="289.93" x2="412.45" y2="97.82" gradientUnits="userSpaceOnUse">
      <stop offset="0" stop-color="#2980c3"/>
      <stop offset="0.7" stop-color="#0d72b9"/>
      <stop offset="1" stop-color="#0a5287"/>
    </linearGradient>
  </defs>
  <g id="Layer_2" data-name="Layer 2">
    <g id="Layer_1-2" data-name="Layer 1">
      <g>
        <g>
          <path d="M431.7,99.8c-9-43.8-47.8-76.9-94.1-76.9a96.1,96.1,0,0,0-19.3,190.2,100.8,100.8,0,0,1-1.9-19.2V171.8a56.9,56.9,0,1,1,74-74,57.6,57.6,0,0,1,4.1,21.2v57h-39v17.9a56.6,56.6,0,0,0,4.1,21.1h74V119A100.8,100.8,0,0,0,431.7,99.8Z" fill="url(#linear-gradient)"/>
          <path d="M431.7,99.8a100.8,100.8,0,0,1,1.9,19.2v22a56.9,56.9,0,1,1-78.1,52.9v-57h39V119a57.6,57.6,0,0,0-4.1-21.2h-74v96.1a100.8,100.8,0,0,0,1.9,19.2A96.1,96.1,0,1,0,431.7,99.8Z" fill="url(#linear-gradient-2)"/>
        </g>
        <g>
          <path d="M32.9,403.9a2.8,2.8,0,0,1,2.7,1.9c1.8,5.2,7.8,8.5,15.4,8.5s14.5-4,14.5-9.7-3.7-7.8-13-9.8l-10-2.2c-14.1-3.1-21.1-10.2-21.1-21.5,0-14.1,12.2-23.5,29.4-23.5s27.2,7.8,29.1,19.8a2.9,2.9,0,0,1-2.8,3.3H67.5a3,3,0,0,1-2.8-2.1c-1.5-5.2-6.7-8.3-13.9-8.3s-13.2,3.7-13.2,9.4,3.7,7.4,12.5,9.5l9.4,1.9c15.3,3.3,22,9.9,22,21.6,0,14.9-12,24.4-31.1,24.4-17,0-28.4-7.5-30.4-20a2.8,2.8,0,0,1,2.8-3.2Z" fill="#303030"/>
          <path d="M128.3,389.9a2.7,2.7,0,0,1-2.7-2c-1.4-4.9-5.3-8-10.9-8-7.7,0-12.4,6.5-12.4,17.3s4.7,17.4,12.4,17.4c5.6,0,9.4-2.8,10.9-7.8a2.7,2.7,0,0,1,2.7-2h8.9a2.9,2.9,0,0,1,2.9,3.4c-2.2,11.4-11.7,18.6-25.6,18.6-17.1,0-28-11.2-28-29.6s10.9-29.5,27.9-29.5c14.1,0,23.5,7.8,25.6,18.9a2.8,2.8,0,0,1-2.8,3.3Z" fill="#303030"/>
          <path d="M149.7,368.7H159a2.9,2.9,0,0,1,2.8,2.8V379h.3c2-7.1,6.9-11,13.6-11h1.9a2.8,2.8,0,0,1,2.5,2.8v7.8a2.8,2.8,0,0,1-3.2,2.8l-2.4-.2c-7.7,0-12.1,4.7-12.1,12.8v28.8a2.8,2.8,0,0,1-2.9,2.8h-9.8a2.8,2.8,0,0,1-2.9-2.8V371.5A2.9,2.9,0,0,1,149.7,368.7Z" fill="#303030"/>
          <path d="M232.9,408.3a2.8,2.8,0,0,1,2.7,3.8c-3.2,9-12.7,14.7-25,14.7-17.5,0-28.1-11.2-28.1-29.3s10.7-29.8,27.5-29.8,27.1,11,27.1,28.3v1.9a2.9,2.9,0,0,1-2.9,2.9H197.7v.9c0,8.1,5.3,13.6,13.1,13.6,5,0,9.1-2.1,10.9-5.6a2.9,2.9,0,0,1,2.5-1.4Zm-35-17.1h24.2c-.3-7.2-5.1-12-11.9-12S198.4,384.1,197.9,391.2Z" fill="#303030"/>
          <path d="M304.4,425.7H292.2a2.7,2.7,0,0,1-2.7-2.1l-9.8-38.2h-.3l-9.7,38.2a2.9,2.9,0,0,1-2.8,2.1H255a2.8,2.8,0,0,1-2.8-2.1l-13.7-51.3a2.9,2.9,0,0,1,2.8-3.6h9.6a2.8,2.8,0,0,1,2.8,2.3l8.2,40h.3l9.6-40.1a2.8,2.8,0,0,1,2.7-2.2H285a2.8,2.8,0,0,1,2.7,2.2l9.7,40.1h.3l8.2-40a2.8,2.8,0,0,1,2.8-2.3H318a2.8,2.8,0,0,1,2.7,3.6l-13.6,51.3A2.7,2.7,0,0,1,304.4,425.7Z" fill="#303030"/>
          <path d="M321.3,397.1c0-17.9,9.1-29.1,23.3-29.1,8.3,0,14.6,4.1,17.4,10.5h.4V351.8a2.8,2.8,0,0,1,2.8-2.9H375a2.9,2.9,0,0,1,2.9,2.9v71.1a2.8,2.8,0,0,1-2.9,2.8h-9.6a2.7,2.7,0,0,1-2.8-2.8v-7h-.3c-2.8,6.3-9.4,10.5-17.8,10.5C330.4,426.4,321.3,415.1,321.3,397.1Zm15.9.1c0,10.3,4.9,16.7,12.6,16.7s12.7-6.5,12.7-16.7-5-16.7-12.7-16.7S337.2,387,337.2,397.2Z" fill="#303030"/>
          <path d="M388.9,368.7h9.4a2.9,2.9,0,0,1,2.8,2.8V379h.3c2-7.1,6.9-11,13.6-11h1.9a2.8,2.8,0,0,1,2.5,2.8v7.8a2.8,2.8,0,0,1-3.2,2.8l-2.4-.2c-7.7,0-12.2,4.7-12.2,12.8v28.8a2.7,2.7,0,0,1-2.8,2.8h-9.9a2.8,2.8,0,0,1-2.8-2.8V371.5A2.9,2.9,0,0,1,388.9,368.7Z" fill="#303030"/>
          <path d="M424.5,354.4a8.3,8.3,0,0,1,16.6,0,8.3,8.3,0,0,1-16.6,0Zm3.3,14.3h9.9a2.8,2.8,0,0,1,2.8,2.8v51.4a2.7,2.7,0,0,1-2.8,2.8h-9.9a2.8,2.8,0,0,1-2.8-2.8V371.5A2.9,2.9,0,0,1,427.8,368.7Z" fill="#303030"/>
          <path d="M480.9,425.7H467.4a2.8,2.8,0,0,1-2.7-1.9L447,372.5a2.8,2.8,0,0,1,2.7-3.8h10.4a2.9,2.9,0,0,1,2.8,2.1L474.2,412h.3l11.2-41.2a2.9,2.9,0,0,1,2.8-2.1h10.1a2.9,2.9,0,0,1,2.7,3.8l-17.7,51.3A2.8,2.8,0,0,1,480.9,425.7Z" fill="#303030"/>
          <path d="M551.4,408.3a2.8,2.8,0,0,1,2.7,3.8c-3.3,9-12.7,14.7-25,14.7-17.5,0-28.2-11.2-28.2-29.3s10.7-29.8,27.6-29.8,27.1,11,27.1,28.3v1.9a2.9,2.9,0,0,1-2.9,2.9H516.2v.9c0,8.1,5.3,13.6,13.1,13.6,5,0,9-2.1,10.9-5.6a2.9,2.9,0,0,1,2.5-1.4Zm-35-17.1h24.2c-.3-7.2-5.1-12-12-12S516.9,384.1,516.4,391.2Z" fill="#303030"/>
          <path d="M565.2,368.7h9.3a2.8,2.8,0,0,1,2.8,2.8V379h.3c2-7.1,6.9-11,13.6-11h1.9a2.7,2.7,0,0,1,2.5,2.8v7.8a2.8,2.8,0,0,1-3.2,2.8l-2.4-.2c-7.7,0-12.1,4.7-12.1,12.8v28.8a2.8,2.8,0,0,1-2.9,2.8h-9.8a2.8,2.8,0,0,1-2.9-2.8V371.5A2.9,2.9,0,0,1,565.2,368.7Z" fill="#303030"/>
          <path d="M593.6,417.8a8.6,8.6,0,1,1,8.5,8.6A8.5,8.5,0,0,1,593.6,417.8Z" fill="#303030"/>
          <path d="M657.3,389.9a2.9,2.9,0,0,1-2.7-2c-1.4-4.9-5.2-8-10.9-8-7.6,0-12.4,6.5-12.4,17.3s4.8,17.4,12.5,17.4c5.5,0,9.4-2.8,10.8-7.8a2.9,2.9,0,0,1,2.7-2h9a2.9,2.9,0,0,1,2.8,3.4c-2.2,11.4-11.7,18.6-25.5,18.6-17.1,0-28.1-11.2-28.1-29.6s11-29.5,28-29.5c14.1,0,23.5,7.8,25.6,18.9a2.9,2.9,0,0,1-2.8,3.3Z" fill="#303030"/>
          <path d="M673.4,397.1c0-17.9,9.1-29.1,23.4-29.1,8.2,0,14.5,4.1,17.4,10.5h.3V351.8a2.9,2.9,0,0,1,2.8-2.9h9.9a2.8,2.8,0,0,1,2.8,2.9v71.1a2.7,2.7,0,0,1-2.8,2.8h-9.7a2.8,2.8,0,0,1-2.8-2.8v-7h-.3c-2.7,6.3-9.3,10.5-17.7,10.5C682.5,426.4,673.4,415.1,673.4,397.1Zm15.9.1c0,10.3,4.9,16.7,12.6,16.7s12.7-6.5,12.7-16.7-5-16.7-12.7-16.7S689.3,387,689.3,397.2Z" fill="#303030"/>
        </g>
      </g>
      <rect width="750" height="450" fill="none"/>
    </g>
  </g>
</svg>
