<svg id="Layer_1" data-name="Layer 1" xmlns="http://www.w3.org/2000/svg" xmlns:xlink="http://www.w3.org/1999/xlink" viewBox="0 0 2906.78484 2986.17616"><defs><style>.cls-1,.cls-2{stroke:#2c2c2c;}.cls-1,.cls-2,.cls-4{stroke-miterlimit:10;}.cls-1{stroke-width:6.973px;fill:url(#radial-gradient);}.cls-2{fill:#fff;stroke-width:3.486px;}.cls-3{fill:url(#radial-gradient-2);}.cls-4{stroke:#0c0000;stroke-width:4.649px;fill:url(#linear-gradient);}.cls-5{fill:url(#radial-gradient-3);}</style><radialGradient id="radial-gradient" cx="1124.3928" cy="25.12262" r="280.586" gradientTransform="translate(-6689.35864 2053.50402) scale(6.4314)" gradientUnits="userSpaceOnUse"><stop offset="0" stop-color="#2b2b2b"/><stop offset="1" stop-color="#838383"/></radialGradient><radialGradient id="radial-gradient-2" cx="1198.76877" cy="-329.32843" r="271.138" gradientTransform="translate(-6689.35864 2053.50402) scale(6.4314)" gradientUnits="userSpaceOnUse"><stop offset="0" stop-color="#fff" stop-opacity="0.8"/><stop offset="1" stop-color="#fff" stop-opacity="0.2"/></radialGradient><linearGradient id="linear-gradient" x1="1257.05342" y1="-120.17831" x2="1384.88839" y2="-270.4813" gradientTransform="translate(-6689.35864 2053.50402) scale(6.4314)" gradientUnits="userSpaceOnUse"><stop offset="0" stop-color="#227716"/><stop offset="1" stop-color="#20b228"/></linearGradient><radialGradient id="radial-gradient-3" cx="1487.6968" cy="-44.18799" r="88.692" gradientTransform="matrix(5.0544, -3.9772, 11.3115, 14.3754, -5239.28603, 7489.14431)" gradientUnits="userSpaceOnUse"><stop offset="0" stop-color="#fff" stop-opacity="0.4"/><stop offset="0.998" stop-color="#fff" stop-opacity="0"/></radialGradient></defs><title>selenium</title><path class="cls-1" d="M2149.22076,2361.3323l-1487.6-42.39991c-180.1-7.69995-387.8-221.9-385.2-400.69995l7.1-1494.69995c2.6-179.4,206.4-349.2,385.9-347.3l1467.6,54c178.8,2.6,384,167.9,381.3999,346.7v1526.2c0,194.79992-155,358.20007-369.19995,358.20007Z"/><path class="cls-2" d="M404.42071,1801.13222l236.7-57.19995c9.6,28.30005,47.6,98.4,81,126.69995s127.3,43.69995,189.7,37.9,93.3-60.5,96.5-101c2.6-39.9-16.7-68.19995-53.4-86.80005s-77.8-29.6-135.7-46.9c-57.9-16.69995-161.4-39.9-243.1-95.19995-81-55.30005-101-182-101.6-227s10.3-111.30005,39.2-159.5c29-48.9,123.5-154.4,311.3-154.4s266.3,59.80005,309.3,94.5c43.1,34.7,111.9,158.9,111.9,158.9l-216.1,77.80005c-36.7-107.4-104.8-144.1-198.1-144.1s-115.1,59.19995-115.1,94.5c0,35.4,20.6,77.80005,109.3,101s235.4,59.80005,305.5,104.80005,134.4,138.3,134.4,247-42.4,167.9-79.1,208.4c-36.7,39.9-125.4,132.5-314.5,132.5-181.9-.6-365.8-81-468.1-311.9Zm1644.5-27s35.4-439.9-375.6-439.9c-371.70008,0-357.6,381.4-357.6,407.7,0,110,64.30005,392.3,378.2,392.3s355-263.69995,355-263.69995l-214.19995-25.1c-10.3,27-31.5,124.1-131.8,124.1s-132.5-81-140.2-107.4-5.8-88.1-5.8-88.1Zm-493.9-127.4s-5.80005-166.6,138.3-166.6,134.4,166.6,134.4,166.6Z"/><path class="cls-3" d="M357.42071,578.53219v740.2s87.5,391,361.4,398.7,1297.90005,49.5,1390.5,45,336.4-131.80005,336.4-378.80005v-732.4c0-142.1-82.30005-418.7-396.2-433.5-313.80005-14.8-1195.6-37.3-1295.19995-37.3-162.8-.7-396.9,61.7-396.9,398.1Z"/><path class="cls-4" d="M1308.02069,690.43221l431.5,543.49994,1016.79992-846.4-140.2-281.7-844.4,719-301-340.2Z"/><path class="cls-5" d="M1331.82074,684.63222l421.29992,382,690.09986-543.5-79.7-182.7-593.6,505.5-299.1-337Z"/><path d="M380.24379,2827.80589q3.52076,24.8745,13.82813,37.18261,18.85473,22.41065,64.61572,22.40821,27.40284,0,44.501-5.90918,32.43529-11.32324,32.43506-42.1084,0-17.97217-15.88672-27.8252-15.89428-9.60351-50.395-16.99121l-39.29541-8.61816q-57.93237-12.80127-79.59815-27.8252Q313.754,2733.0017,313.758,2679.5676q0-48.75732,35.894-81.01464,35.89746-32.25587,105.44629-32.25782,58.07665,0,99.08593,30.41114,41.00538,30.41454,43.00049,88.27832H524.29653q-2.02-32.74659-29.28369-46.54-18.18018-9.10693-45.186-9.11133-30.0454,0-47.96728,11.82031-17.926,11.81984-17.92188,32.9961,0,19.456,17.67188,29.05664,11.35766,6.40722,48.22119,15.02148l63.69629,15.02051q41.87694,9.85254,62.77685,26.34863,32.45215,25.6128,32.4541,74.11914,0,49.74317-38.45605,82.61426-38.45435,32.874-108.63965,32.874-71.68066,0-112.749-32.38086-41.0691-32.37744-41.06494-89.01757Z"/><path d="M831.18569,2676.87815q28.08326,12.58155,46.38232,39.70606,16.48829,23.92236,21.38477,55.49023,2.83374,18.49659,2.3125,53.26953H705.77846q1.63331,40.38721,28.06787,56.63574,16.07886,10.1001,38.69483,10.09571,23.97948,0,38.96826-12.31153,8.17163-6.64892,14.44336-18.46875h71.64941q-2.83374,23.88721-26.01709,48.50977-36.06519,39.15381-100.97949,39.15332-53.581,0-94.542-33.02344-40.95924-33.0249-40.95752-107.459,0-69.74121,36.9751-106.958,36.97119-37.21435,95.98144-37.21777Q803.10024,2664.3,831.18569,2676.87815Zm-104.98828,60.626q-14.87842,15.334-18.69532,41.5459H828.40786q-1.916-27.94483-18.69532-42.41211-16.78344-14.46827-41.623-14.47071Q741.06826,2722.16721,726.19741,2737.50413Z"/><path d="M1008.41127,2939.8469h-70.1792V2576.884h70.1792Z"/><path d="M1251.76967,2676.87815q28.08326,12.58155,46.38233,39.70606,16.48827,23.92236,21.38476,55.49023,2.83374,18.49659,2.3125,53.26953H1126.36245q1.63329,40.38721,28.06787,56.63574,16.07885,10.1001,38.69482,10.09571,23.9795,0,38.96826-12.31153,8.17164-6.64892,14.44336-18.46875h71.64942q-2.83374,23.88721-26.01709,48.50977-36.06519,39.15381-100.9795,39.15332-53.581,0-94.542-33.02344-40.95923-33.0249-40.95752-107.459,0-69.74121,36.9751-106.958,36.97119-37.21435,95.98144-37.21777Q1223.68422,2664.3,1251.76967,2676.87815Zm-104.98828,60.626q-14.87841,15.334-18.69531,41.5459h120.90576q-1.916-27.94483-18.69531-42.41211-16.78346-14.46827-41.62305-14.47071Q1161.65224,2722.16721,1146.78139,2737.50413Z"/><path d="M1573.776,2686.83128q26.3584,21.79248,26.35937,72.27246V2939.8469h-71.90283V2776.58714q0-21.17432-5.62158-32.50391-10.27294-20.68506-39.11035-20.68457-35.44776,0-48.645,30.28809-6.84449,16.00927-6.84473,40.876V2939.8469H1357.8312V2671.93382h67.96337v39.15234q13.4817-20.68359,25.502-29.79492,21.57274-16.25244,54.68115-16.252Q1547.41665,2665.03928,1573.776,2686.83128Z"/><path d="M1737.53969,2639.42991h-71.16406v-64.7627h71.16406Zm-71.16406,32.01172h71.16406V2939.8469h-71.16406Z"/><path d="M1875.43618,2671.44163v161.78125q0,22.90137,5.39062,34.47461,9.55663,20.4419,37.48633,20.43847,35.77149,0,49.00683-29.05664,6.85548-15.75585,6.86036-41.61523V2671.44163h71.16406V2939.8469h-68.21V2901.925q-.98,1.23486-4.90918,7.38769a49.33669,49.33669,0,0,1-9.33008,10.835q-16.4546,14.77441-31.7998,20.19141-15.353,5.41406-35.97461,5.418-59.42286,0-80.04883-42.84668-11.543-23.63965-11.53906-69.6875V2671.44163Z"/><path d="M2448.445,2672.426q17.23389,6.89649,31.27344,24.13184,11.32324,14.03613,15.2666,34.47461,2.45948,13.5454,2.46289,39.64453l-.49218,169.16992h-71.90332V2768.95335q0-15.26514-4.92481-25.11621-9.36181-18.71046-34.47461-18.71485-29.05811,0-40.13769,24.13184-5.66748,12.80712-5.66309,30.78027v159.8125h-70.67187V2780.0344q0-23.88135-4.92578-34.71972-8.86377-19.4502-34.71973-19.45313-30.04541,0-40.38379,19.45313-5.66748,11.08007-5.66406,32.99609V2939.8469h-71.16407V2671.93382h68.209v39.15234q13.04883-20.92675,24.625-29.79492,20.436-15.75586,52.94238-15.75977,30.77784,0,49.74121,13.543a78.83479,78.83479,0,0,1,23.14649,32.25781q13.7871-23.63818,34.22754-34.71972,21.66649-11.08155,48.26464-11.08106A93.4822,93.4822,0,0,1,2448.445,2672.426Z"/></svg>