<?xml version="1.0" encoding="UTF-8"?> <svg xmlns="http://www.w3.org/2000/svg" width="1200" height="400" viewBox="0 0 1200 400" fill="none"><rect width="1200" height="400" fill="white"></rect><path d="M311.315 149.99C316.708 152.214 321.668 155.373 325.965 159.32L317.965 168.26C314.407 165.344 310.429 162.984 306.165 161.26C302.191 159.74 297.969 158.977 293.715 159.01C288.168 159.01 283.594 160.293 279.994 162.86C276.394 165.427 274.594 169.18 274.594 174.12C274.505 176.832 275.144 179.518 276.445 181.9C277.685 184.01 279.965 185.9 283.315 187.69C287.999 189.965 292.874 191.822 297.885 193.24C303.639 194.904 309.221 197.114 314.555 199.84C318.901 202.136 322.588 205.506 325.265 209.63C327.991 213.79 329.355 219.057 329.355 225.43C329.475 231.227 327.893 236.932 324.805 241.84C321.596 246.722 317.047 250.576 311.705 252.94C305.991 255.607 299.231 256.94 291.424 256.94C276.724 256.94 264.698 252.363 255.344 243.21L263.344 234.27C267.297 237.547 271.711 240.222 276.445 242.21C281.159 244.063 286.189 244.98 291.255 244.91C297.821 244.91 303.268 243.29 307.595 240.05C311.921 236.81 314.081 232.107 314.075 225.94C314.187 222.911 313.497 219.906 312.075 217.23C310.376 214.583 308.01 212.43 305.215 210.99C300.725 208.637 295.994 206.776 291.105 205.44C280.218 202.153 272.251 198.197 267.204 193.57C262.158 188.943 259.661 182.663 259.714 174.73C259.64 169.634 261.119 164.635 263.954 160.4C266.912 156.066 271.024 152.647 275.824 150.53C281.276 148.085 287.2 146.873 293.174 146.98C299.357 146.832 305.511 147.853 311.315 149.99Z" fill="#576573"></path><path d="M422.094 148.84L420.554 161.33H391.104V255.08H376.454V161.32H346.234V148.84H422.094Z" fill="#576573"></path><path d="M500.715 255.07L492.715 228.39H452.465L444.465 255.07H429.645L463.715 148.84H482.215L516.135 255.08L500.715 255.07ZM456.015 216.52H489.165L472.715 161.01L456.015 216.52Z" fill="#576573"></path><path d="M592.014 149.45C596.862 151.376 601.364 154.078 605.344 157.45L597.344 166.85C590.864 161.61 584.028 158.99 576.834 158.99C572.723 158.875 568.644 159.737 564.931 161.505C561.218 163.273 557.977 165.896 555.474 169.16C550.081 175.947 547.384 186.843 547.384 201.85C547.384 216.45 550.051 227.217 555.384 234.15C557.828 237.488 561.046 240.181 564.762 241.998C568.478 243.815 572.58 244.701 576.714 244.58C580.794 244.67 584.846 243.882 588.594 242.27C592.382 240.495 595.981 238.341 599.334 235.84L606.584 245.09C602.959 248.712 598.662 251.593 593.934 253.57C588.326 255.926 582.287 257.084 576.204 256.97C568.082 257.095 560.095 254.873 553.204 250.57C546.471 246.297 541.228 240.027 537.474 231.76C533.721 223.493 531.831 213.52 531.804 201.84C531.804 190.233 533.758 180.29 537.664 172.01C541.571 163.73 546.864 157.483 553.544 153.27C560.231 149.056 567.991 146.862 575.894 146.95C581.374 146.819 586.832 147.665 592.014 149.45Z" fill="#576573"></path><path d="M647.444 148.84V255.07H632.794V148.84H647.444ZM705.265 148.84L665.014 197.4L708.195 255.07H690.195L648.214 198.33L688.605 148.84H705.265Z" fill="#576573"></path><path d="M786.364 255.07V209.27H754.294V255.07H729.004V148.22H754.294V189.54H786.364V148.22H811.644V255.07H786.364Z" fill="#00CBC6"></path><path d="M898.764 255.07L893.214 232.07H862.064L856.664 255.07H830.454L862.714 148.22H893.394L925.614 255.07H898.764ZM866.384 213.74H888.894L877.634 166.56L866.384 213.74Z" fill="#00CBC6"></path><path d="M1061.27 148.22L1043.39 255.07H1010.54L997.284 173.5L983.284 255.07H951.184L933.604 148.22H958.894L969.534 235.95L984.334 148.22H1010.85L1024.71 235.95L1037.2 148.22H1061.27Z" fill="#00CBC6"></path><path d="M1107.83 148.22V255.07H1082.54V148.22H1107.83ZM1169.2 148.22L1135.12 196.22L1171.97 255.12H1142.71L1108.63 198.12L1142.55 148.32L1169.2 148.22Z" fill="#00CBC6"></path><path d="M88.4846 154.31C89.4846 155.15 90.3446 155.92 91.1746 156.63L136.715 130.34L181.665 156.34C182.505 155.63 183.405 154.85 184.355 154.02L136.715 126.47L88.4846 154.31Z" fill="#576573"></path><path d="M200.095 209.2C199.003 209.742 197.885 210.23 196.745 210.66V234.31L166.745 251.61C167.605 251.83 168.195 251.93 168.195 251.93C167.195 253.27 164.705 254.28 162.695 254.93C163.205 255.38 163.885 255.99 164.695 256.71L200.085 236.27L200.095 209.2Z" fill="#576573"></path><path d="M144.284 304.33L154.984 298.15L148.814 293.97L147.184 294.91C146.405 298.105 145.437 301.25 144.284 304.33Z" fill="#445463"></path><path d="M105.175 251.93C105.175 251.93 105.765 251.83 106.645 251.6L76.7145 234.31V211.03C75.5945 210.64 74.4745 210.19 73.3645 209.68V236.24L109.555 257.14L111.715 255.14C109.595 254.62 106.315 253.51 105.175 251.93Z" fill="#576573"></path><path d="M76.5845 143.45C77.8711 144.69 79.1411 145.89 80.3945 147.05L136.714 114.54L192.424 146.7C193.674 145.54 194.944 144.33 196.224 143.09L136.714 108.73L76.5845 143.45Z" fill="#576573"></path><path d="M215.454 195.4C213.9 197.446 212.23 199.402 210.454 201.26V242.26L172.455 264.18C173.665 265.43 174.855 266.7 175.965 267.96L215.464 245.16L215.454 195.4Z" fill="#576573"></path><path d="M70.5145 137.36L137.405 98.74L202.775 136.49C204.365 134.8 205.915 133.09 207.375 131.4L137.375 91L65.8645 132.31C67.3445 134 68.9045 135.69 70.5145 137.36Z" fill="#576573"></path><path d="M113.295 286.64L50.0147 250.11V165.33C47.7147 162.84 45.4747 160.09 43.3047 157.26V253.98L112.995 294.21C112.965 291.683 113.065 289.157 113.295 286.64Z" fill="#576573"></path><path d="M224.795 162.68V250.11L161.455 286.68C161.665 289.28 161.795 291.88 161.755 294.24L231.495 253.98V154.1C229.395 156.98 227.115 159.95 224.795 162.68Z" fill="#576573"></path><path d="M115.195 272.34L113.075 271.11L105.885 272.77L114.345 277.65C114.715 275.46 114.975 273.6 115.195 272.34Z" fill="#445463"></path><path d="M101.824 264.62L63.0044 242.21V202.26C61.2326 200.49 59.5632 198.62 58.0044 196.66V245.11L98.3744 268.42C99.4344 267.15 100.614 265.84 101.824 264.62Z" fill="#576573"></path><path d="M130.445 304.28C129.287 301.205 128.319 298.063 127.545 294.87L125.955 293.95L119.785 298.13L130.445 304.28Z" fill="#445463"></path><path d="M160.715 270.9L159.405 271.65C159.605 272.76 159.935 274.65 160.275 276.95L167.895 272.56L160.715 270.9Z" fill="#445463"></path><path d="M134.345 201.22C135.395 203.38 136.465 205.59 137.505 207.86C138.505 205.59 139.615 203.38 140.655 201.22C147.895 186.22 151.535 177.52 142.235 172.71L141.825 172.4C141.339 171.703 140.692 171.133 139.939 170.74C139.186 170.347 138.349 170.141 137.5 170.141C136.65 170.141 135.813 170.347 135.06 170.74C134.307 171.133 133.66 171.703 133.175 172.4L132.765 172.71C123.465 177.52 127.105 186.23 134.345 201.22Z" fill="#00CBC6"></path><path d="M235.185 135.84C213.695 170.99 168.185 187.63 168.185 187.63C248.315 140.19 245.305 92.48 245.305 92.48C216.555 146.53 168.305 175.75 150.635 185.1C149.555 190.47 146.635 196.51 143.635 202.73C142.075 205.94 140.475 209.27 139.005 212.73L137.465 216.3L135.925 212.73C134.445 209.31 132.845 205.98 131.295 202.73C128.465 196.88 125.715 191.17 124.505 186.04C108.505 177.86 57.8146 148.51 28.0146 92.48C28.0146 92.48 25.0146 140.19 105.135 187.63C105.135 187.63 59.6446 170.99 38.1346 135.84C38.1346 135.84 53.4546 182.21 99.6645 192.72C99.6645 192.72 70.5146 192.34 53.9346 175.17C53.9346 175.17 52.9346 195.82 97.4645 198.92C97.4645 198.92 75.5945 204.23 64.9046 194.5C64.9046 194.5 65.4346 204.99 98.1345 205.98C98.1345 205.98 112.555 204.98 121.735 211.38C121.445 223.13 124.185 235.3 126.925 244.38C126.445 244.71 126.305 247.03 110.035 252.17C110.035 252.42 120.475 254.96 125.545 250.17C126.715 251.28 113.785 254.84 101.715 269.93C101.865 269.34 117.555 264.22 128.605 259.29C128.725 259.22 120.435 267.46 118.755 292.02C119.045 291.94 123.885 284.02 131.475 275.22C130.949 286.548 132.961 297.85 137.365 308.3V270.05V308.27C141.585 298.27 143.604 287.479 143.285 276.63C150.165 284.85 154.495 291.91 154.765 291.99C153.085 267.43 144.765 259.19 144.925 259.26C155.975 264.19 171.665 269.31 171.805 269.9C159.715 254.84 146.715 251.28 147.855 250.14C152.925 254.9 163.405 252.36 163.355 252.14C146.895 246.94 146.945 244.62 146.455 244.34C146.455 244.34 146.455 244.34 146.455 244.29C149.215 235.21 151.975 223.05 151.715 211.29C160.895 204.92 175.225 205.95 175.225 205.95C207.925 204.95 208.455 194.47 208.455 194.47C197.715 204.18 175.855 198.84 175.855 198.84C220.335 195.74 219.385 175.09 219.385 175.09C202.805 192.26 173.655 192.64 173.655 192.64C219.865 182.16 235.185 135.84 235.185 135.84Z" fill="#00CBC6"></path></svg> 