<?xml version="1.0" encoding="utf-8"?>
<!-- Generator: Adobe Illustrator 24.0.1, SVG Export Plug-In . SVG Version: 6.00 Build 0)  -->
<svg version="1.1" id="Layer_1" xmlns="http://www.w3.org/2000/svg" xmlns:xlink="http://www.w3.org/1999/xlink" x="0px" y="0px"
	 viewBox="0 0 1920 655.346" enable-background="new 0 0 1920 655.346" xml:space="preserve">
<g>
	<g>
		<path fill="#0090FF" d="M734.761,298.369v-38.061h34.688v-59.191h47.765v59.191h54.556v38.061h-54.556v115.032
			c0,11.265,2.34,19.455,6.974,24.525c4.68,5.07,11.517,7.617,20.51,7.617c4.818,0,9.406-0.298,13.765-0.849
			c4.359-0.574,8.672-1.56,12.893-2.96l7.204,35.927c-13.536,4.52-28.219,6.768-44.003,6.768c-24.227,0-41.158-6.263-50.748-18.812
			c-9.59-12.549-14.362-31.362-14.362-56.46V298.369H734.761z"/>
	</g>
	<g>
		<path fill="#0090FF" d="M1094.4,415.076c-3.992,22.85-13.673,40.539-29.182,53.088c-15.509,12.526-37.808,18.812-66.807,18.812
			c-34.964,0-61.531-10.072-79.747-30.238c-18.17-20.143-27.255-48.545-27.255-85.207c0-18.881,2.615-35.652,7.8-50.312
			c5.231-14.66,12.572-27.003,22.024-37.006c9.406-10.003,20.694-17.62,33.817-22.85c13.123-5.208,27.531-7.823,43.361-7.823
			c16.885,0,31.568,2.615,43.957,7.823c12.389,5.231,22.713,12.549,30.88,22.001c8.167,9.452,14.224,20.717,18.17,33.817
			c3.946,13.123,5.919,27.714,5.919,43.773v21.153H939.632c0.551,20.005,5.598,36.226,15.188,48.614
			c9.59,12.412,24.135,18.606,43.59,18.606c15.188,0,26.613-2.96,34.23-8.879c7.617-5.919,12.71-14.362,15.234-25.374H1094.4z
			 M1050.397,348.704c0-18.055-4.221-32.279-12.664-42.718c-8.489-10.416-22.024-15.646-40.608-15.646
			c-17.757,0-31.293,5.277-40.607,15.853c-9.315,10.576-14.637,24.754-16.059,42.512H1050.397z"/>
	</g>
	<g>
		<path fill="#0090FF" d="M1169.17,412.965c0.872,7.341,2.799,13.329,5.919,17.987c3.12,4.634,6.974,8.374,11.655,11.196
			c4.634,2.822,10.049,4.726,16.243,5.713s12.848,1.468,19.914,1.468c16.059,0,27.622-2.386,34.642-7.181
			c7.066-4.795,10.599-11.838,10.599-21.13c0-7.341-2.202-13.536-6.561-18.606c-4.359-5.093-13.306-8.741-26.842-11.012
			c-17.482-3.097-32.853-6.057-46.114-8.879c-13.26-2.799-24.364-6.699-33.404-11.632c-9.039-4.933-15.784-11.265-20.281-19.019
			c-4.543-7.754-6.791-18.262-6.791-31.499c0-10.163,2.248-19.386,6.791-27.714c4.497-8.305,10.783-15.348,18.812-21.13
			c8.03-5.781,17.62-10.209,28.723-13.329c11.15-3.097,23.355-4.657,36.616-4.657c16.885,0,30.972,1.698,42.259,5.093
			c11.287,3.372,20.464,8.03,27.485,13.949c7.066,5.919,12.435,12.687,16.059,20.304c3.671,7.594,6.516,15.646,8.489,24.089
			l-43.131,5.919c-3.395-10.989-8.534-19.157-15.463-24.525c-6.883-5.345-18.4-8.03-34.459-8.03c-9.269,0-16.885,0.849-22.804,2.547
			c-5.919,1.675-10.645,3.808-14.178,6.332c-3.533,2.547-5.919,5.368-7.204,8.466c-1.239,3.097-1.881,6.194-1.881,9.292
			c0,4.795,0.551,8.741,1.698,11.838c1.101,3.12,3.166,5.644,6.103,7.617c2.983,1.973,6.974,3.671,12.068,5.07
			c5.047,1.422,11.425,2.822,19.042,4.244l27.485,4.634c14.637,2.547,26.842,5.781,36.57,9.727
			c9.727,3.969,17.482,8.833,23.263,14.591c5.781,5.781,9.773,12.48,12.022,20.097s3.395,16.059,3.395,25.374
			c0,20.005-7.617,36.157-22.85,48.408c-15.188,12.274-38.313,18.4-69.331,18.4c-12.664,0-24.869-1.216-36.57-3.602
			c-11.7-2.386-22.208-6.401-31.522-12.045c-9.314-5.644-16.839-13.169-22.621-22.621c-5.781-9.452-9.085-21.359-9.911-35.744
			H1169.17z"/>
	</g>
	<g>
		<path fill="#0090FF" d="M1333.195,298.369v-38.061h34.642v-59.191h47.811v59.191h54.556v38.061h-54.556v115.032
			c0,11.265,2.34,19.455,6.974,24.525c4.634,5.07,11.471,7.617,20.51,7.617c4.772,0,9.36-0.298,13.719-0.849
			c4.405-0.574,8.672-1.56,12.939-2.96l7.158,35.927c-13.536,4.52-28.173,6.768-43.957,6.768c-24.273,0-41.158-6.263-50.748-18.812
			c-9.59-12.549-14.408-31.362-14.408-56.46V298.369H1333.195z"/>
	</g>
	<g>
		<path fill="#0090FF" d="M1557.935,178.29v301.918h-48.178V178.29H1557.935z"/>
	</g>
	<g>
		<path fill="#0090FF" d="M1659.928,178.29v47.765h-49.876V178.29H1659.928z M1659.102,260.308v219.9h-48.224v-219.9H1659.102z"/>
	</g>
	<g>
		<path fill="#0090FF" d="M1810.933,486.976c-34.413,0-61.072-10.14-79.93-30.444c-18.904-20.304-28.356-49.05-28.356-86.262
			c0-17.482,2.478-33.404,7.433-47.788c4.91-14.385,12.022-26.636,21.336-36.799c9.314-10.14,20.74-18.032,34.275-23.676
			c13.49-5.644,28.861-8.466,46.068-8.466c17.482,0,32.991,2.914,46.527,8.672c13.536,5.781,24.869,13.742,34.046,23.906
			c9.131,10.14,16.059,22.346,20.694,36.57c4.68,14.247,6.974,29.825,6.974,46.733c0,19.18-2.661,36.019-8.03,50.518
			c-5.323,14.522-12.894,26.796-22.621,36.799s-21.198,17.551-34.459,22.621S1826.993,486.976,1810.933,486.976z M1811.346,448.066
			c20.281,0,35.147-6.974,44.599-20.923c9.452-13.949,14.178-33.06,14.178-57.309c0-23.952-4.726-42.833-14.178-56.667
			c-9.452-13.811-24.319-20.717-44.599-20.717c-20.281,0-35.193,6.974-44.599,20.946c-9.452,13.949-14.178,32.761-14.178,56.438
			c0,23.974,4.588,42.993,13.719,57.103C1775.465,441.023,1790.469,448.066,1811.346,448.066z"/>
	</g>
	<g>
		<path fill="#0090FF" d="M382.055,655.346l-79.823-66.714l-79.78,66.714l-13.909-6.22C200.033,645.303,0,553.882,0,409.181
			c0-93.473,54.641-172.022,140.08-215.67L107.295,14.405l132.477,63.928L302.188,0l62.502,78.333l132.52-63.928l-32.785,179.127
			c85.439,43.67,140.079,122.197,140.079,215.648c0,144.701-200.033,236.122-208.543,239.945L382.055,655.346z M149.366,244.092
			C87.426,280.591,48.637,339.811,48.637,409.181c0,86.626,109.714,160.294,166.299,189.04l49.371-41.294l-68.118-56.995
			L149.366,244.092z M340.199,556.927l49.242,41.164c41.726-21.619,166.428-94.164,166.428-188.911
			c0-69.37-38.789-128.568-100.729-165.046l-46.823,255.797L340.199,556.927z M240.852,473.886l61.379,51.315l61.422-51.315
			l45.916-250.96c-64.489-23.001-150.144-23.023-214.633-0.022L240.852,473.886z M302.188,156.45
			c41.639,0,80.817,6.328,116.236,17.99l13.649-74.597l-81.206,39.177l-48.68-60.969l-48.594,60.969l-81.162-39.177l13.606,74.554
			C221.458,162.778,260.592,156.45,302.188,156.45z"/>
	</g>
</g>
</svg>
