<?xml version="1.0" encoding="UTF-8"?>
<svg id="Layer_1" data-name="Layer 1" xmlns="http://www.w3.org/2000/svg" xmlns:xlink="http://www.w3.org/1999/xlink" viewBox="0 0 1486.66 145.09">
  <defs>
    <style>
      .cls-1 {
        fill: url(#linear-gradient);
      }

      .cls-1, .cls-2, .cls-3, .cls-4, .cls-5, .cls-6, .cls-7, .cls-8, .cls-9, .cls-10, .cls-11, .cls-12, .cls-13, .cls-14, .cls-15, .cls-16, .cls-17, .cls-18, .cls-19, .cls-20, .cls-21, .cls-22, .cls-23 {
        stroke-width: 0px;
      }

      .cls-2 {
        fill: url(#linear-gradient-11);
      }

      .cls-3 {
        fill: url(#linear-gradient-12);
      }

      .cls-4 {
        fill: url(#linear-gradient-13);
      }

      .cls-5 {
        fill: url(#linear-gradient-10);
      }

      .cls-6 {
        fill: url(#linear-gradient-17);
      }

      .cls-7 {
        fill: url(#linear-gradient-16);
      }

      .cls-8 {
        fill: url(#linear-gradient-19);
      }

      .cls-9 {
        fill: url(#linear-gradient-15);
      }

      .cls-10 {
        fill: url(#linear-gradient-18);
      }

      .cls-11 {
        fill: url(#linear-gradient-14);
      }

      .cls-12 {
        fill: url(#linear-gradient-20);
      }

      .cls-13 {
        fill: url(#linear-gradient-4);
      }

      .cls-14 {
        fill: url(#linear-gradient-2);
      }

      .cls-15 {
        fill: url(#linear-gradient-3);
      }

      .cls-16 {
        fill: url(#linear-gradient-8);
      }

      .cls-17 {
        fill: url(#linear-gradient-9);
      }

      .cls-18 {
        fill: url(#linear-gradient-7);
      }

      .cls-19 {
        fill: url(#linear-gradient-5);
      }

      .cls-20 {
        fill: url(#linear-gradient-6);
      }

      .cls-21 {
        fill: #121212;
      }

      .cls-22 {
        fill: #172e35;
      }

      .cls-23 {
        fill: #008593;
      }
    </style>
    <linearGradient id="linear-gradient" x1="65.25" y1="86.97" x2="100.37" y2="86.97" gradientUnits="userSpaceOnUse">
      <stop offset=".02" stop-color="#00818f"/>
      <stop offset=".13" stop-color="#008490"/>
      <stop offset=".24" stop-color="#039096"/>
      <stop offset=".34" stop-color="#07a4a0"/>
      <stop offset=".38" stop-color="#0aada5"/>
      <stop offset=".7" stop-color="#11cdb5"/>
      <stop offset=".96" stop-color="#19f2c8"/>
    </linearGradient>
    <linearGradient id="linear-gradient-2" x1="11.87" y1="55.19" x2="35.35" y2="95.86" gradientUnits="userSpaceOnUse">
      <stop offset="0" stop-color="#19f2c8"/>
      <stop offset=".18" stop-color="#15e3c0"/>
      <stop offset=".54" stop-color="#0dbcad"/>
      <stop offset="1" stop-color="#00818f"/>
    </linearGradient>
    <linearGradient id="linear-gradient-3" x1="-799.64" y1="-651.75" x2="-788.62" y2="-651.75" gradientTransform="translate(1043.3 -108.55) rotate(-52.73) scale(1.03 1.07) skewX(-5.09)" gradientUnits="userSpaceOnUse">
      <stop offset=".23" stop-color="#12d2b8"/>
      <stop offset=".74" stop-color="#0aada5"/>
    </linearGradient>
    <linearGradient id="linear-gradient-4" x1="29.36" y1="105.11" x2="76.82" y2="105.11" gradientUnits="userSpaceOnUse">
      <stop offset="0" stop-color="#19f2c8"/>
      <stop offset=".08" stop-color="#14dfbe"/>
      <stop offset=".25" stop-color="#0dbdad"/>
      <stop offset=".43" stop-color="#07a2a0"/>
      <stop offset=".61" stop-color="#038f96"/>
      <stop offset=".8" stop-color="#008490"/>
      <stop offset="1" stop-color="#00818f"/>
    </linearGradient>
    <linearGradient id="linear-gradient-5" x1="166.65" y1="37.21" x2="166.65" y2="11.17" gradientTransform="translate(-120.22 63) rotate(2.32)" gradientUnits="userSpaceOnUse">
      <stop offset="0" stop-color="#19f2c8"/>
      <stop offset="1" stop-color="#00818f"/>
    </linearGradient>
    <linearGradient id="linear-gradient-6" x1="74.37" y1="86.82" x2="130.61" y2="86.82" gradientUnits="userSpaceOnUse">
      <stop offset="0" stop-color="#19f2c8"/>
      <stop offset=".16" stop-color="#17ecc5"/>
      <stop offset=".36" stop-color="#14debe"/>
      <stop offset=".57" stop-color="#0fc6b1"/>
      <stop offset=".8" stop-color="#07a5a1"/>
      <stop offset="1" stop-color="#00818f"/>
    </linearGradient>
    <linearGradient id="linear-gradient-7" x1="15.69" y1="103.58" x2="59.54" y2="103.58" gradientUnits="userSpaceOnUse">
      <stop offset=".2" stop-color="#00818f"/>
      <stop offset=".84" stop-color="#18edc6"/>
      <stop offset=".96" stop-color="#19f2c8"/>
    </linearGradient>
    <linearGradient id="linear-gradient-8" x1="97.15" y1="10.84" x2="135.08" y2="71.8" gradientTransform="translate(-3.61 -16.88) rotate(6.02) scale(1.01) skewX(5.9)" gradientUnits="userSpaceOnUse">
      <stop offset="0" stop-color="#19f2c8"/>
      <stop offset=".15" stop-color="#17ebc4"/>
      <stop offset=".36" stop-color="#13dabb"/>
      <stop offset=".6" stop-color="#0dbdad"/>
      <stop offset=".86" stop-color="#049599"/>
      <stop offset=".97" stop-color="#00818f"/>
    </linearGradient>
    <linearGradient id="linear-gradient-9" x1="110.74" y1="62.34" x2="157.28" y2="40.63" gradientTransform="translate(-6.06 -.06) rotate(.01) scale(1.02 1) skewX(.02)" gradientUnits="userSpaceOnUse">
      <stop offset=".02" stop-color="#00818f"/>
      <stop offset=".19" stop-color="#008490"/>
      <stop offset=".36" stop-color="#039096"/>
      <stop offset=".53" stop-color="#07a4a0"/>
      <stop offset=".58" stop-color="#0aada5"/>
      <stop offset=".94" stop-color="#0fc3b0"/>
    </linearGradient>
    <linearGradient id="linear-gradient-10" x1="64.56" y1="93.66" x2="90.81" y2="139.14" gradientTransform="matrix(1,0,0,1,0,0)" xlink:href="#linear-gradient-8"/>
    <linearGradient id="linear-gradient-11" x1="-835.23" y1="-1393.44" x2="-824.2" y2="-1393.44" gradientTransform="translate(1963.48 5.67) rotate(-90.35) scale(1.22 1.38) skewX(-28.76)" gradientUnits="userSpaceOnUse">
      <stop offset=".19" stop-color="#0aada5"/>
      <stop offset=".92" stop-color="#12d2b8"/>
    </linearGradient>
    <linearGradient id="linear-gradient-12" x1="69.4" y1="96.58" x2="77.36" y2="88.63" gradientUnits="userSpaceOnUse">
      <stop offset="0" stop-color="#19f2c8"/>
      <stop offset=".16" stop-color="#15e3c0"/>
      <stop offset=".46" stop-color="#0dbcad"/>
      <stop offset=".82" stop-color="#018792"/>
      <stop offset="1" stop-color="#00818f"/>
    </linearGradient>
    <linearGradient id="linear-gradient-13" x1="87.96" y1="102.59" x2="105.31" y2="112.6" xlink:href="#linear-gradient-2"/>
    <linearGradient id="linear-gradient-14" x1="85.31" y1="106.5" x2="99.05" y2="98.56" gradientUnits="userSpaceOnUse">
      <stop offset=".12" stop-color="#0aaea6"/>
      <stop offset=".14" stop-color="#0ab0a7"/>
      <stop offset=".33" stop-color="#0ec1af"/>
      <stop offset=".54" stop-color="#10cbb4"/>
      <stop offset=".79" stop-color="#11cfb6"/>
    </linearGradient>
    <linearGradient id="linear-gradient-15" x1="806.83" y1="-103.46" x2="817.5" y2="-103.46" gradientTransform="translate(-775.46 -180.85) rotate(26.12) scale(1.05 1.13) skewX(-9.17)" gradientUnits="userSpaceOnUse">
      <stop offset=".02" stop-color="#00818f"/>
      <stop offset=".19" stop-color="#008490"/>
      <stop offset=".36" stop-color="#039096"/>
      <stop offset=".52" stop-color="#07a4a0"/>
      <stop offset=".58" stop-color="#0aada5"/>
      <stop offset=".88" stop-color="#12d2b8"/>
    </linearGradient>
    <linearGradient id="linear-gradient-16" x1="-206.85" y1="-424.29" x2="-195.76" y2="-424.29" gradientTransform="translate(435.49 534.4) rotate(-33.8) scale(1.13 1.26) skewX(-19.31)" xlink:href="#linear-gradient-15"/>
    <linearGradient id="linear-gradient-17" x1="-471.67" y1="-391.35" x2="-461.01" y2="-391.35" gradientTransform="translate(581.34 222.26) rotate(-39.36) scale(.97 1.08) skewX(-16.27)" gradientUnits="userSpaceOnUse">
      <stop offset=".19" stop-color="#12d2b8"/>
      <stop offset=".58" stop-color="#0aada5"/>
      <stop offset=".9" stop-color="#00818f"/>
    </linearGradient>
    <linearGradient id="linear-gradient-18" x1="399.49" y1="-413.53" x2="410.25" y2="-413.53" gradientTransform="translate(-530.11 877.41) rotate(-17.13) scale(1.29 1.44) skewX(-33.19)" xlink:href="#linear-gradient-15"/>
    <linearGradient id="linear-gradient-19" x1="118.33" y1="62.51" x2="100.67" y2="62.51" gradientUnits="userSpaceOnUse">
      <stop offset=".02" stop-color="#00818f"/>
      <stop offset=".18" stop-color="#008490"/>
      <stop offset=".35" stop-color="#039096"/>
      <stop offset=".5" stop-color="#07a4a0"/>
      <stop offset=".56" stop-color="#0aada5"/>
      <stop offset=".85" stop-color="#12d2b8"/>
    </linearGradient>
    <linearGradient id="linear-gradient-20" x1="1258.04" y1="-1342.14" x2="1267.39" y2="-1340.51" gradientTransform="translate(-885.55 -3187.59) rotate(107.63) scale(1.29 1.44) skewX(-33.19)" gradientUnits="userSpaceOnUse">
      <stop offset=".29" stop-color="#0aada5"/>
      <stop offset=".88" stop-color="#12d2b8"/>
    </linearGradient>
  </defs>
  <g>
    <path class="cls-21" d="M478.31,66.95c0-42.65,15.95-66.95,49.7-66.95,25.78,0,38.57,14.47,44.14,34.68l-22.25,6.31c-3.34-12.05-8.34-21.14-22.25-21.14-16.69,0-23.55,13.72-23.55,35.98v22.25c0,22.25,6.86,35.98,23.55,35.98,13.91,0,18.92-9.09,22.25-21.14l22.25,6.31c-5.56,20.21-18.36,34.68-44.14,34.68-33.75,0-49.7-24.29-49.7-66.95Z"/>
    <path class="cls-21" d="M819.12,71.77l1.11-37.46h-1.67l-25.03,66.57-25.04-66.57h-1.67l1.11,37.46v59.9h-21.14V2.23h28.93l17.99,47.66h1.3l18.17-47.66h27.08v129.44h-21.14v-59.9Z"/>
    <path class="cls-21" d="M960.41,66.95c0-42.65,15.95-66.95,49.7-66.95,25.78,0,38.57,14.47,44.14,34.68l-22.25,6.31c-3.34-12.05-8.34-21.14-22.25-21.14-16.69,0-23.55,13.72-23.55,35.98v22.25c0,22.25,6.86,35.98,23.55,35.98,13.91,0,18.92-9.09,22.25-21.14l22.25,6.31c-5.56,20.21-18.36,34.68-44.14,34.68-33.75,0-49.7-24.29-49.7-66.95Z"/>
    <path class="cls-21" d="M1132.31,76.03h-37.83v55.63h-24.29V2.23h24.29v53.78h37.83V2.23h24.29v129.44h-24.29v-55.63Z"/>
    <path class="cls-21" d="M1306.05,38.76h-1.85v92.91h-20.77V2.23h29.86l33.94,92.91h1.85V2.23h20.77v129.44h-29.86l-33.94-92.91Z"/>
    <g>
      <polygon class="cls-21" points="884.73 79 884.58 79 893.09 47.49 905.09 2.23 883.28 2.23 846.93 131.67 870.77 131.67 884.73 79"/>
      <polygon class="cls-21" points="917.03 2.23 909.4 2.23 901.73 31.28 914.62 79 889.13 79 883.89 98.84 918.7 98.84 927.78 131.67 953.56 131.67 917.03 2.23"/>
    </g>
    <g>
      <polygon class="cls-21" points="421.07 2.23 401.17 2.23 364.83 131.67 386.76 131.67 421.07 2.23"/>
      <polygon class="cls-21" points="434.92 2.23 425.38 2.23 418.65 27.7 432.51 79 405.11 79 399.87 98.84 436.59 98.84 445.68 131.67 471.46 131.67 434.92 2.23"/>
    </g>
    <g>
      <polygon class="cls-21" points="1437.96 2.23 1416.38 2.23 1380.03 131.67 1403.64 131.67 1437.96 2.23"/>
      <polygon class="cls-21" points="1450.13 2.23 1442.26 2.23 1434.71 30.85 1447.72 79 1422 79 1416.76 98.84 1451.8 98.84 1460.88 131.67 1486.66 131.67 1450.13 2.23"/>
    </g>
    <g>
      <rect class="cls-21" x="203.06" y="26.15" width="24.11" height="105.52"/>
      <path class="cls-21" d="M333.31,78.63c16.13-3.52,25.41-17.43,25.41-36.35,0-24.66-13.91-40.06-38.94-40.06h-155.66v19.84h150.65c12.98,0,18.36,5.19,18.36,16.69v7.05c0,11.5-5.38,16.69-18.36,16.69h-19.84V26.15h-24.29v105.52h24.29v-50.26h14.65l24.66,50.26h26.7l-27.63-53.04Z"/>
    </g>
    <g>
      <rect class="cls-21" x="591.05" y="2.23" width="81.78" height="19.84"/>
      <polygon class="cls-21" points="615.34 76.03 670.79 76.03 670.79 56 615.34 56 615.34 26.15 591.05 26.15 591.05 131.67 672.83 131.67 672.83 111.64 615.34 111.64 615.34 76.03"/>
    </g>
    <g>
      <polygon class="cls-21" points="1232.07 24.11 1207.96 24.11 1207.96 113.49 1178.84 113.49 1178.84 131.67 1261.18 131.67 1261.18 113.49 1232.07 113.49 1232.07 24.11"/>
      <rect class="cls-21" x="1178.84" y="2.23" width="82.34" height="17.8"/>
    </g>
  </g>
  <g>
    <polygon class="cls-1" points="74.51 116.44 65.25 109.71 91.12 57.5 100.37 62.09 95.96 75.08 74.51 116.44"/>
    <polygon class="cls-14" points="49.48 75.8 42.7 57.57 28.46 53.03 9.65 56.47 0 72.64 4.58 93.59 18.87 100.64 34.17 96.54 37.04 90.14 41 92.16 49.48 75.8"/>
    <polygon class="cls-15" points="31.65 80.47 32.89 79.94 33.6 78.72 27.73 61.69 26.54 61.53 25.65 62.4 31.65 80.47"/>
    <polygon class="cls-13" points="67.66 131.04 76.82 120.44 37.05 79.19 29.36 87.54 67.66 131.04"/>
    <path class="cls-19" d="M60.84,96.17l-16.29-15.31s-.42.99-.46.99l-14.84,3.64s-.26.4-.26.4l21.09,21.2c.63.56.05-3.65.12-3.68l11.62-5.98c.11-.06-.88-1.19-.98-1.27Z"/>
    <polygon class="cls-20" points="127.82 55.03 114.8 49.2 112.52 53.83 105.8 50.83 74.37 114.65 86.39 124.43 89.71 118.18 92.44 121.5 127.82 55.03"/>
    <polygon class="cls-18" points="53.26 129.49 59.54 121.85 19.64 77.67 15.69 87.49 21.42 95.67 53.26 129.49"/>
    <polygon class="cls-23" points="20.09 99.41 22.03 96.16 23.86 98.23 20.09 99.41"/>
    <polygon class="cls-16" points="151.62 34.18 137.99 4.46 109.23 0 109.23 0 109.23 0 90.69 .86 90.45 .86 71.74 24.56 81.23 58 96.72 61.29 121.43 65.81 135.21 62.79 151.62 34.18"/>
    <polygon class="cls-17" points="133.77 36.83 151.61 34.18 135.22 62.79 121.7 66.51 107.6 63.31 133.77 36.83"/>
    <polygon class="cls-5" points="105.04 130.92 108.28 107.75 85.6 92.91 82.64 94.19 67.53 92.75 50.28 101.9 50.25 109.06 48.23 114.92 48.17 126.93 66.57 145.09 89.12 138.13 105.04 130.92"/>
    <polygon class="cls-22" points="20.14 99.39 5.58 92.43 1.32 72.72 10.8 57.16 26.75 61.64 32.95 79.83 20.14 99.39"/>
    <polygon class="cls-23" points="46.1 82.3 49.46 75.75 32.95 79.83 28.74 85.98 46.1 82.3"/>
    <polygon class="cls-2" points="48.82 108.15 49.68 107.09 49.44 105.35 29.96 85.68 28.63 85.99 28.42 87.23 48.82 108.15"/>
    <path class="cls-3" d="M67.55,92.74c1.32-.16,12.03-1.9,12.03-1.9,0,0-7.14,8.57-7.33,8.57s-4.7-6.67-4.7-6.67Z"/>
    <polygon class="cls-4" points="108.15 107.67 102.01 103.7 85.52 106.81 90.96 111.32 108.15 107.67"/>
    <polygon class="cls-11" points="102 103.68 85.67 107.12 91.07 96.35 102 103.68"/>
    <polygon class="cls-9" points="50.23 101.9 50.19 103.57 50.68 104.48 68.53 94.98 68.83 93.7 67.56 92.73 50.23 101.9"/>
    <polygon class="cls-7" points="86.79 136.15 89.39 136.46 92.26 112.48 91.1 111.32 89.9 111.87 86.79 136.15"/>
    <polygon class="cls-6" points="48.04 122.97 49.32 123.79 50.24 123.78 50.2 103.57 48.1 105.16 48.04 122.97"/>
    <polygon class="cls-22" points="88.26 136.33 66.74 143.1 49.43 126.4 50.2 103.58 68.81 93.67 91.12 111.36 88.26 136.33"/>
    <g>
      <polygon class="cls-10" points="114.86 64.27 117.06 65.62 133.13 38.55 132.72 36.75 131.32 36.93 114.86 64.27"/>
      <polygon class="cls-8" points="101.21 59.4 100.67 61.96 117.07 65.62 118.33 63.51 101.21 59.4"/>
    </g>
    <polygon class="cls-12" points="121.38 6.31 118.63 6.6 131.97 37.86 133.72 35.27 121.38 6.31"/>
    <polygon class="cls-22" points="116.25 64.19 82.5 56.79 73.27 25.09 91.53 1.73 119.9 6.41 132.74 36.74 116.25 64.19"/>
    <polygon class="cls-22" points="63.05 117.36 75.07 127.15 110.44 60.68 94.48 53.55 63.05 117.36"/>
    <polygon class="cls-22" points="56.85 131.73 64.94 121.93 23.53 80.44 18.17 90.04 56.85 131.73"/>
  </g>
</svg>