<svg width="566" height="176.3" xmlns="http://www.w3.org/2000/svg" viewBox="0 0 642 200"><g fill="none" fill-rule="evenodd"><path d="M48.172 87.282s-31.372 22.082-32.6 30.495l2.355-.484s37.569-24.902 67.35-27.939l.674-3.779-37.779 1.707m49.249-3.156l-24.712 17.527 1.335 1.072c1.008-.812 43.897-13.911 43.897-13.911l9.042-5.669c-6.067.755-29.562.981-29.562.981m21.478 21.199c17.547 0 43.851-17.186 43.851-17.186l-8.503-1.619c-.421.421-13.711-.466-13.711-.466l-6.309-1.752-15.074 17.175-1.227 2.98c1.084-.439.973.868.973.868M44.82 170.423a58.82 58.82 0 0 1-.364-.167 2474.47 2474.47 0 0 0-2.03-1.751l2.394 1.918zm131.34-10.289l-5.421 1.526-25.046-.541-15.669-12.185-18.937 4.738-21.904-1.895-12.265 13.403-23.016 6.874-11.492-3.562-.578-.499 5.158 12.63s11.683 12.526 18.209 13.999c6.525 1.474 18.314-.105 27.156-1.474 8.841-1.368 15.893-4.526 18.735-9.682 2.841-5.159 3.262-6.632 3.262-6.632s8.422 11.894 15.684 13.263c7.262 1.368 28.839-6.001 28.839-6.001s13.158-3.578 15.473-8.104c2.315-4.526 8.421-19.366 8.421-19.366l-6.609 3.508z" fill="#B93346"/><path d="M197.438 70.66a50.486 50.486 0 0 0-.212-2.025 27.981 27.981 0 0 0-.216-1.436c-1.808-1.521-3.862-2.875-6.001-4.104-2.317-1.354-4.743-2.567-7.218-3.693-2.458-1.16-4.982-2.21-7.522-3.233a135.346 135.346 0 0 0-3.829-1.49c-1.279-.499-2.571-.964-3.867-1.435 2.719.45 5.41 1.067 8.081 1.755 1.738.449 3.466.952 5.182 1.489C169.625 24.574 140.43 3.79 108.553 3.79c-31.881 0-61.074 20.784-73.282 52.698 1.717-.537 3.445-1.04 5.179-1.489 2.674-.688 5.366-1.305 8.084-1.755-1.3.471-2.588.936-3.872 1.435-1.277.477-2.556.975-3.829 1.49-2.539 1.023-5.057 2.073-7.521 3.233-2.469 1.126-4.896 2.339-7.214 3.693-2.139 1.229-4.191 2.583-6.006 4.104a40.906 40.906 0 0 0-.423 3.461 52.639 52.639 0 0 0-.178 4.094c-.027 2.735.157 5.47.504 8.177.374 2.714.872 5.41 1.608 8.016a43.465 43.465 0 0 0 1.25 3.839c.24.622.499 1.235.77 1.831.135.297.276.589.417.871l.174.331c.2.102.411.206.611.303l1.214.58c.676.307 1.613.752 2.388 1.099l.124-.114-2.253-8.583c.477-.131 4.756-1.235 12.131-2.638a40.577 40.577 0 0 1-1.787-.384c-1.679-.418-3.336-.926-4.939-1.577a22.784 22.784 0 0 1-2.328-1.124c-.748-.43-1.484-.916-2.053-1.562 8.101 2.644 24.841 1.446 39.722-.091 13.61-1.403 27.251-2.313 40.962-2.339 13.713.026 27.36.936 40.963 2.339 14.887 1.537 31.627 2.735 39.728.091-.569.646-1.304 1.132-2.052 1.562-.747.421-1.532.788-2.328 1.124-1.605.651-3.261 1.159-4.939 1.577-.249.06-.5.114-.749.168 8.086 1.5 12.793 2.718 13.296 2.854l-2.155 8.177c.433-.195.871-.385 1.3-.579l1.212-.58c.201-.097.406-.201.612-.303l.167-.331c.148-.282.289-.574.423-.871.272-.596.532-1.209.77-1.831a42.82 42.82 0 0 0 1.251-3.839c.737-2.606 1.235-5.302 1.608-8.016.348-2.707.531-5.442.505-8.177a52.15 52.15 0 0 0-.18-4.094" fill="#F4EEAA"/><path d="M117.745 184.158a43.801 43.801 0 0 1-3.212.378c-.688.033-1.415.103-2.075.103l-.244.006c.829-1.852 1.457-3.287 1.934-4.375.97 1.088 2.205 2.437 3.597 3.888m2.332 2.377c3.331 3.299 7.458 5.187 12.002 5.523-7.631 3.099-14.823 4.296-20.363 4.668-5.523.37-11.122-.281-16.609-1.786.46-.082.796-.141 1.202-.19.451-.055 10.291-1.338 14.726-7.933l.416.01 1.089-.01c.737 0 1.407-.06 2.111-.088a43.908 43.908 0 0 0 4.918-.708l.508.514" fill="#E1C8A5"/><path d="M129.517 87.785a98.64 98.64 0 0 1-1.056 1.353c-1.949 2.464-4.652 5.615-7.858 8.698a369.279 369.279 0 0 0-11.498-.179c-6.513 0-12.758.172-18.688.46 8.378-3.477 18.446-6.873 29.347-8.914a114.718 114.718 0 0 1 9.753-1.418m-49.042 3.751c-2.99 2.102-6.369 4.783-9.645 8.037a362.248 362.248 0 0 0-21.743 2.833c9.282-4.268 19.875-8.194 31.388-10.87m102.493 17.318l-3.412 23.873-16.345 11.448-42.63-4.846-6.417-21.133a1.395 1.395 0 0 0-1.117-.979c-1.58-.255-2.977-.385-4.141-.385-1.17 0-2.562.13-4.149.385a1.406 1.406 0 0 0-1.115.979l-6.26 20.618-42.392 9.433-16.799-11.767-3.31-26.79c.721-.407 1.453-.813 2.194-1.218 1.04-.224 2.21-.461 3.504-.71l3.119 25.279c.049.394.266.747.591.974l11.556 8.098a1.44 1.44 0 0 0 1.111.215l34.853-7.755c.119-.027.239-.07.347-.125.324-.172.58-.47.688-.833l6.276-20.666c1.683-.433 5.996-1.44 9.786-1.44 3.78 0 8.095 1.007 9.78 1.44l6.276 20.666c.163.536.629.92 1.186.986l34.854 3.959c.337.037.683-.051.959-.244l11.563-8.09c.313-.222.524-.571.578-.954l3.088-21.597c2.317.444 4.256.85 5.778 1.179m4.305-14.972l-3 11.383c-6.135-1.353-19.616-4.008-37.962-5.795 5.994-2.556 12.098-5.762 17.675-9.769 10.917 1.543 18.933 3.195 23.287 4.181" fill="#5F655D"/><path d="M116.444 101.517a46.996 46.996 0 0 1-5.291 3.742l-6.147 3.71a52.586 52.586 0 0 0-7.391 1.479 1.422 1.422 0 0 0-.954.942l-6.259 20.627-33.457 7.441-10.538-7.381-3.066-24.836c5.984-1.099 13.988-2.371 23.601-3.448a56.672 56.672 0 0 0-2.979 3.887l-5.724 8.215 8.335-5.557c.124-.086 5.431-3.578 14.113-7.824a380.07 380.07 0 0 1 28.418-1.068c2.491 0 4.935.029 7.339.071zm-52.08 27.977c2.377-1.284 5.063-1.094 9.265-1.088.451.01.916.005 1.402-.006.413-.005.829-.011 1.268-.022 4.332-.042 7.933.369 7.869-6.433-.065-6.801-3.087-12.299-7.414-12.255-4.332.037-8.523 5.61-8.264 12.407.07 1.77.331 3.048.748 3.969-3.774.947-4.815 3.281-4.874 3.428zm110.069-22.333l-3.017 21.116-10.625 7.439-33.413-3.796-6.233-20.53a1.421 1.421 0 0 0-.953-.942c-.207-.06-4.344-1.24-8.73-1.62l.801-.053c.693-.05 12.218-1.463 25.978-6.207 15.24 1.17 27.684 3.043 36.192 4.593zm-21.353 19.544c-.043-.162-.953-2.896-4.982-2.417.465-1.011.671-2.375.525-4.244-.532-6.786-4.479-12.179-8.806-12.029-4.327.154-7.1 5.779-6.861 12.581.238 6.797 3.872 6.749 8.199 6.597 5.816-.109 9.011-1.896 11.925-.488z" fill="#E0C59B"/><path d="M116.444 101.517a46.996 46.996 0 0 1-5.291 3.742l-6.147 3.71a52.586 52.586 0 0 0-7.391 1.479 1.422 1.422 0 0 0-.954.942l-6.259 20.627-33.457 7.441-10.538-7.381-3.066-24.836c5.984-1.099 13.988-2.371 23.601-3.448a56.672 56.672 0 0 0-2.979 3.887l-5.724 8.215 8.335-5.557c.124-.086 5.431-3.578 14.113-7.824a380.07 380.07 0 0 1 28.418-1.068c2.491 0 4.935.029 7.339.071zm-52.08 27.977c2.377-1.284 5.063-1.094 9.265-1.088.451.01.916.005 1.402-.006.413-.005.829-.011 1.268-.022 4.332-.042 7.933.369 7.869-6.433-.065-6.801-3.087-12.299-7.414-12.255-4.332.037-8.523 5.61-8.264 12.407.07 1.77.331 3.048.748 3.969-3.774.947-4.815 3.281-4.874 3.428zm110.069-22.333l-3.017 21.116-10.625 7.439-33.413-3.796-6.233-20.53a1.421 1.421 0 0 0-.953-.942c-.207-.06-4.344-1.24-8.73-1.62l.801-.053c.693-.05 12.218-1.463 25.978-6.207 15.24 1.17 27.684 3.043 36.192 4.593zm-21.353 19.544c-.043-.162-.953-2.896-4.982-2.417.465-1.011.671-2.375.525-4.244-.532-6.786-4.479-12.179-8.806-12.029-4.327.154-7.1 5.779-6.861 12.581.238 6.797 3.872 6.749 8.199 6.597 5.816-.109 9.011-1.896 11.925-.488z" fill="#BFAC91"/><path d="M189.018 116.449c.512.422.918 1.515.46 6.611-.563 6.239-3.186 17.189-4.81 18.954-1.792.347-5.551-.064-7.842-.6.396-1.572.509-2.325.829-3.932l4.008-2.805c.319-.222.53-.57.584-.948l2.801-19.626c1.7.921 3.449 1.917 3.97 2.346M41.272 142.063c.201.71.411 1.419.629 2.118-2.156.633-6.548 1.24-8.535.894-1.646-1.659-4.717-13.073-5.389-19.134-.547-4.911-.163-5.973.336-6.385.58-.487 2.751-1.722 4.631-2.729l2.539 20.616c.049.396.26.747.591.975l5.198 3.645m81.07.288l-.152 1.316s-4.619 4.283-12.054 5.241c-7.436.958-13.28-3.611-13.28-3.611.244.794.591 2.587 2.275 4.12a53.391 53.391 0 0 0-6.364-.397c-.811 0-1.63.024-2.421.062-4.576.239-11.014 7.159-15.541 14.129-2.221.704-9.163 2.907-17.199 5.28-7.501-10.393-11.19-21.012-11.563-22.112l.005-.005c-.151-.422-.303-.846-.444-1.279l1.929 1.349v.005l4.765 3.336 1.593 1.11c.238.169.519.255.801.255a1.6 1.6 0 0 0 .308-.031l43.791-9.749a1.397 1.397 0 0 0 1.033-.958l6.245-20.558c1.078-.146 2.024-.222 2.837-.222.807 0 1.76.076 2.838.222l6.426 21.169c.164.536.629.927 1.181.985l2.991.343" fill="#E1C8A5"/><path d="M172.327 141.214l1.414-.993a90.374 90.374 0 0 1-.754 2.92c-1.965 6.299-4.284 11.87-6.861 16.792a25.82 25.82 0 0 1-1.814.062c-1.989 0-4.019-.169-6.266-.374-3.9-.358-10.089-1.067-12.045-1.294a2931.073 2931.073 0 0 0-12.239-9.694c-.188-.153-.35-.294-.509-.424-.844-.714-1.803-1.525-3.747-1.525-1.766 0-4.344.642-10.576 2.528 3.238-2.42 3.26-5.545 3.26-5.545l.152-1.316 41.082 4.667c.334.038.681-.048.963-.243l4.127-2.892 3.813-2.669" fill="#E1C8A5"/><path d="M142.092 54.782c.124 3.655.033 10.278-1.669 16.479a1.337 1.337 0 0 0 0 .71 263.5 263.5 0 0 0-6.498-.596c2.431-5.096 2.962-10.522 3.077-12.434 1.867-1.326 3.726-2.918 5.09-4.159m-61.985 4.159c.113 1.912.643 7.327 3.071 12.418a256.73 256.73 0 0 0-6.494.601c.059-.222.065-.46 0-.699-1.7-6.189-1.787-12.818-1.668-16.479 1.365 1.241 3.217 2.833 5.091 4.159" fill="#E7D193"/><path d="M139.481 116.746a2.221 2.221 0 0 0 2.172-2.253 2.205 2.205 0 0 0-2.254-2.171 2.206 2.206 0 0 0-2.17 2.252 2.214 2.214 0 0 0 2.252 2.172zm13.599 9.959c-2.914-1.408-6.109.379-11.925.488-4.327.152-7.961.2-8.199-6.597-.239-6.802 2.534-12.427 6.861-12.581 4.327-.15 8.274 5.243 8.806 12.029.146 1.869-.06 3.233-.525 4.244 4.029-.479 4.939 2.255 4.982 2.417z" fill="#292C2D"/><path d="M141.653 114.493a2.221 2.221 0 0 1-2.172 2.253 2.214 2.214 0 0 1-2.252-2.172 2.206 2.206 0 0 1 2.17-2.252 2.205 2.205 0 0 1 2.254 2.171" fill="#EEF7F8"/><path d="M77.48 118.386a2.212 2.212 0 0 0-.118-4.424 2.213 2.213 0 1 0 .118 4.424zm6.688 3.559c.064 6.802-3.537 6.391-7.869 6.433-.439.011-.855.017-1.268.022-.486.011-.951.016-1.402.006-4.202-.006-6.888-.196-9.265 1.088.059-.147 1.1-2.481 4.874-3.428-.417-.921-.678-2.199-.748-3.969-.259-6.797 3.932-12.37 8.264-12.407 4.327-.044 7.349 5.454 7.414 12.255z" fill="#292C2D"/><path d="M79.63 116.117a2.214 2.214 0 0 1-4.425.114 2.213 2.213 0 0 1 4.425-.114" fill="#EEF7F8"/><path d="M49.926 76.48l-.503-.95-.02-2.486 1.311-14.825L73.46 52.71l1.416 19.126c-1.103-1.496-2.754-4.88-3.777-9.524-.547-2.48-2.306-3.186-4.33-3.186-1.766 0-3.733.537-5.272.904-3.307.787-7.636 1.889-8.344 3.62-1.374 3.358-2.046 12.121-2.046 12.121l-1.181.709m117.462 0l-1.182-.709s-.671-8.763-2.045-12.121c-.709-1.731-5.038-2.833-8.343-3.62-1.54-.367-3.508-.904-5.273-.904-2.025 0-3.784.706-4.331 3.186-1.022 4.644-2.676 8.028-3.778 9.524l1.418-19.126 22.747 5.509 1.116 12.632-.04 5.084-.289.545" fill="#EAD698"/><path d="M131.797 73.047l-45.855-.085-2.376-5.35-1.699-9.171-3.737-2.971-.085-21.357 5.262-15.564s.866 45.842 11.579 45.842h27.854c10.713 0 11.315-45.862 11.315-45.862l6.967 25.709-5.063 14.458-.256 4.076-1.784 6.453-2.122 3.822m46.63 8.186l-2.587-1.264 2.587 1.264m-2.594-1.268l-8.169-2.463.013-1.567.419-.793-.379-4.291.077-9.559s2.204 15.82 8.039 18.673" fill="#EAD799"/><path fill="#E9D294" d="M167.677 75.935l.04-5.084.379 4.291-.419.793"/><path d="M38.675 81.233l2.594-1.268-2.594 1.268m2.594-1.268c5.835-2.853 8.04-18.673 8.04-18.673l.094 11.752-.185 2.098.205.388.016 1.972-8.17 2.463" fill="#EAD799"/><path fill="#E9D294" d="M49.423 75.53l-.205-.388.185-2.098.02 2.486"/><path d="M74.171 72.23l-.098-.248c-1.991-7.246-1.905-14.844-1.726-18.348l-20.683 5.881c-1.391 9.055-.741 15.711-.601 16.934 1.717-.466 3.439-.894 5.173-1.294 2.858-.634 5.739-1.164 8.626-1.652 2.892-.482 5.795-.85 8.697-1.202.206-.027.406-.043.612-.071zm9.007-.871c-2.428-5.091-2.958-10.506-3.071-12.418-1.874-1.326-3.726-2.918-5.091-4.159-.119 3.661-.032 10.29 1.668 16.479.065.239.059.477 0 .699a256.73 256.73 0 0 1 6.494-.601zm57.245-.098c1.702-6.201 1.793-12.824 1.669-16.479-1.364 1.241-3.223 2.833-5.09 4.159-.115 1.912-.645 7.338-3.078 12.433 2.167.174 4.334.369 6.499.597a1.337 1.337 0 0 1 0-.71zm25.617 5.193c.14-1.217.796-7.873-.597-16.939l-20.688-5.881c.185 3.504.267 11.102-1.721 18.348l-.102.26c.205.021.411.038.611.065 5.816.666 11.605 1.597 17.33 2.853 1.727.401 3.455.829 5.167 1.294zm3.324.976c2.778.909 5.572 1.873 8.103 3.351-1.355-.535-2.752-.92-4.161-1.267a71.35 71.35 0 0 0-4.235-.931 131.89 131.89 0 0 0-8.567-1.338 192.48 192.48 0 0 0-8.616-.932c-2.881-.243-5.756-.486-8.643-.655-11.54-.709-23.112-.887-34.692-.899-11.577.006-23.15.223-34.691.905-2.886.168-5.762.412-8.643.656-2.88.242-5.756.552-8.616.93-2.87.348-5.724.803-8.567 1.338a73.542 73.542 0 0 0-4.24.926c-1.402.347-2.806.732-4.159 1.267 2.529-1.478 5.323-2.447 8.107-3.357.233-.076.471-.141.709-.216l-.044-.179c-.048-.319-1.077-7.924.715-18.798.087-.52.461-.942.97-1.083l2.941-.838c.638-22.811 10.034-33.539 10.327-33.869-8.394 13.506-8.318 29.525-8.172 33.256l18.277-5.194.043-.01.227-.032.076-.006c.093-.005.196.006.3.027l.053.017.227.075.086.049.179.113.049.033.033.032.054.044c.011.017.498.498 1.272 1.219-.183-6.023.103-23.298 8.33-37.616-.174.502-6.7 19.588-4.451 40.978.73.586 1.498 1.159 2.247 1.663.362.249.584.66.589 1.099.007.071.162 6.889 3.174 12.689.043.086.076.178.104.271 7.489-.51 15-.715 22.494-.72 7.497.005 15.003.221 22.491.736.027-.098.06-.195.109-.287 3.01-5.8 3.168-12.618 3.168-12.689a1.37 1.37 0 0 1 .596-1.099 36.176 36.176 0 0 0 2.242-1.663c2.252-21.39-4.275-40.476-4.447-40.978 8.22 14.318 8.514 31.593 8.33 37.616a63.567 63.567 0 0 0 1.271-1.219l.054-.044.033-.032.049-.033.178-.119.082-.043.238-.081.049-.011c.097-.021.202-.032.298-.027l.07.006.233.032.043.01 18.277 5.194c.148-3.731.223-19.75-8.17-33.256.291.33 9.687 11.058 10.321 33.869l2.946.838c.503.141.883.563.97 1.083 1.792 10.874.758 18.479.714 18.798l-.043.184c.238.07.47.14.709.217z" fill="#292C2D"/><path d="M126.696 32.646v-9.869H91.183v9.869h4.855v-5.014h10.046v30.472h-4.134v5.652h13.979v-5.652h-4.134V27.632h10.045v5.014h4.856zm-39.16-13.517h42.816v17.165h-12.168v-5.015h-2.742v23.169h4.143v12.956H98.302V54.448h4.126V31.279h-2.734v5.015H87.536V19.129z" fill="#292C2D"/><path fill="#B93346" d="M126.696 22.777v9.869h-4.856v-5.014h-10.045v30.472h4.134v5.652H101.95v-5.652h4.134V27.632H96.038v5.014h-4.855v-9.869h35.513"/><path d="M30.946 93.882a230.18 230.18 0 0 1 7.109-1.482 104.747 104.747 0 0 0-6.274 4.635l-.835-3.153" fill="#5F655D"/><path d="M95.89 140.926s.496 3.191-3.97 4.556c-4.464 1.366-32.749 9.795-35.974 9.339-3.225-.455-11.412-5.923-11.412-5.923l-1.985-7.061 12.114 7.553 41.227-8.464m25.338-.618s-.357 3.208 4.165 4.38c4.52 1.171 33.144 8.363 36.346 7.767 3.202-.596 11.143-6.413 11.143-6.413l1.677-7.142-11.135 6.642-42.196-5.234" fill="#BFAC91"/><path d="M28.645 135.054s3.919 7.839 10.249 5.125l4.522 1.658-.452 3.317-9.496 1.205-2.562-1.507-2.261-9.798m160.443-2.152s-6.405 8.181-12.735 5.469l-2.036 1.313.452 3.315 9.496 1.207 2.561-1.508 2.262-9.796M90.01 194.485s23.219 11.707 49.509-4.222l-8.443-.576s-18.422 7.291-33.006 3.262l-8.06 1.536" fill="#BFAC91"/><path d="M38.055 92.4a230.18 230.18 0 0 0-7.109 1.482l.835 3.153a104.747 104.747 0 0 1 6.274-4.635zm3.846 51.781a67.208 67.208 0 0 1-.626-2.119l-5.204-3.642a1.401 1.401 0 0 1-.59-.977l-2.536-20.616c-1.88 1.007-4.05 2.243-4.63 2.729-.501.412-.882 1.472-.339 6.384.673 6.059 3.742 17.475 5.391 19.135 1.984.349 6.379-.261 8.534-.894zm31.103-54.642a151.59 151.59 0 0 1 11.91-2.818c-5.846.214-11.696.485-17.536.815-3.394.187-6.77.417-10.147.673-1.692.13-3.373.265-5.048.449-.48.046-.95.098-1.43.161-4.405 2.636-21.3 13.242-32.898 27.11 11.27-7.834 30.905-19.604 55.149-26.39zm-2.177 10.032c3.277-3.252 6.659-5.935 9.645-8.032-11.509 2.672-22.103 6.596-31.384 10.865a365.085 365.085 0 0 1 21.739-2.833zM115 86.319a509.17 509.17 0 0 0-6.99-.063h-.005c-3.418.005-6.843.042-10.273.11l-6.32 2.995-.088.048c-.95.464-9.249 4.651-17.058 12.12 7-3.68 17.287-8.487 29.392-12.214A145.301 145.301 0 0 1 115 86.319zm-3.847 18.941c1.842-1.111 3.611-2.385 5.291-3.742a429.055 429.055 0 0 0-7.337-.073c-10.22 0-19.767.418-28.42 1.07-8.681 4.243-13.989 7.734-14.113 7.823l-8.336 5.56 5.725-8.216a53.03 53.03 0 0 1 2.981-3.888c-9.614 1.074-17.62 2.348-23.602 3.45l3.063 24.833 10.539 7.381L90.4 132.02l6.263-20.632c.105-.34.334-.626.632-.799.099-.063.203-.109.318-.141.193-.052 3.539-1.007 7.396-1.477l6.144-3.711zm3.382 79.278a46.424 46.424 0 0 0 3.21-.381 139.251 139.251 0 0 1-3.597-3.889 398.537 398.537 0 0 1-1.936 4.375h.246c.662 0 1.387-.072 2.077-.105zm17.542 7.521c-4.54-.334-8.669-2.223-12-5.522l-.506-.516a44.997 44.997 0 0 1-4.922.71c-.704.026-1.372.087-2.108.087l-1.092.011-.416-.011c-4.432 6.593-14.275 7.877-14.725 7.935a17.32 17.32 0 0 0-1.201.187c5.487 1.504 11.086 2.156 16.609 1.785 5.537-.37 12.731-1.571 20.361-4.666zm-3.616-102.922c.38-.475.735-.933 1.053-1.351-3.309.334-6.566.814-9.75 1.419-10.903 2.041-20.972 5.434-29.349 8.91a385.533 385.533 0 0 1 18.692-.459c3.94 0 7.771.067 11.497.177 3.205-3.08 5.909-6.231 7.857-8.696zm30.12-.933l-.031-.012a570.469 570.469 0 0 0-9.907-.656 919.857 919.857 0 0 0-13.779-.674 75.747 75.747 0 0 1-1.587 2.244c-2.499 3.382-7.458 9.588-13.816 14.85 9-1.613 24.609-5.606 38.113-15.027.339-.241.673-.491 1.007-.725zm15.158 52.016l-1.415.991-3.81 2.672-4.129 2.892a1.426 1.426 0 0 1-.961.246l-41.081-4.671-2.99-.34a1.4 1.4 0 0 1-1.181-.986l-6.43-21.17c-1.074-.146-2.031-.22-2.833-.22-.816 0-1.766.074-2.84.22l-6.243 20.559c-.146.48-.542.846-1.034.954l-43.791 9.752a1.62 1.62 0 0 1-.307.03c-.282 0-.564-.084-.804-.255l-1.592-1.107-4.765-3.335v-.011l-1.926-1.346c.136.433.292.857.444 1.279l-.006.005c.371 1.101 4.061 11.717 11.562 22.109a887.428 887.428 0 0 0 17.197-5.277c4.525-6.973 10.966-13.889 15.544-14.129a51.933 51.933 0 0 1 2.422-.062c2.239 0 4.38.162 6.361.397-1.685-1.53-2.029-3.326-2.275-4.119 0 0 5.841 4.567 13.278 3.613 7.439-.961 12.057-5.247 12.057-5.247s-.021 3.128-3.262 5.548c6.233-1.884 8.811-2.531 10.575-2.531 1.947 0 2.907.814 3.747 1.531.162.13.324.27.511.422a3609.84 3609.84 0 0 1 12.241 9.693c1.952.229 8.141.933 12.041 1.294 2.249.202 4.279.375 6.268.375.642 0 1.243-.026 1.811-.063 2.58-4.92 4.897-10.496 6.864-16.79.265-.966.523-1.942.752-2.923zm-2.323-11.942l3.017-21.119c-8.508-1.549-20.95-3.423-36.192-4.592-13.758 4.745-25.282 6.158-25.977 6.205l-.803.057c4.389.377 8.523 1.557 8.731 1.619.455.136.81.485.951.94l6.237 20.533 33.409 3.795 10.627-7.438zm8.137 4.448l3.413-23.871a247.433 247.433 0 0 0-5.778-1.178l-3.084 21.597a1.429 1.429 0 0 1-.58.952l-11.566 8.089c-.272.193-.62.282-.955.245l-34.855-3.961a1.403 1.403 0 0 1-1.186-.981l-6.277-20.669c-1.682-.434-5.998-1.441-9.776-1.441-3.795 0-8.107 1.007-9.788 1.441l-6.279 20.669a1.398 1.398 0 0 1-1.033.955l-34.855 7.755c-.11.022-.203.033-.308.033-.282 0-.563-.084-.799-.252l-11.561-8.095a1.409 1.409 0 0 1-.589-.976l-3.116-25.278c-1.295.251-2.463.491-3.508.709-.741.408-1.472.815-2.192 1.223l3.309 26.785 16.802 11.77 42.392-9.431 6.258-20.616a1.4 1.4 0 0 1 1.117-.983c1.587-.255 2.974-.385 4.15-.385 1.163 0 2.556.13 4.138.385.533.084.965.465 1.117.983l6.419 21.128 42.628 4.847 16.342-11.449zm4.718-27.461l3.002-11.383c-4.353-.986-12.37-2.636-23.289-4.181-5.575 4.009-11.677 7.213-17.673 9.77 18.346 1.786 31.827 4.442 37.96 5.794zm5.204 17.792c.46-5.093.059-6.189-.459-6.607-.517-.433-2.265-1.424-3.967-2.348l-2.802 19.624a1.401 1.401 0 0 1-.584.95l-4.01 2.804c-.318 1.606-.432 2.364-.824 3.935 2.291.532 6.049.946 7.839.6 1.624-1.764 4.248-12.715 4.807-18.958zm12.093-48.424a54.178 54.178 0 0 1-.261 8.805 55.869 55.869 0 0 1-1.632 8.675 45.464 45.464 0 0 1-1.415 4.232 38.147 38.147 0 0 1-.898 2.088c-.162.344-.334.684-.527 1.034l-.287.516a9.06 9.06 0 0 1-.35.579l-.297.461-.465.238c-.496.257-.902.449-1.353.659l-1.308.59c-.878.375-1.759.73-2.642 1.074-.616.241-1.159.461-1.675.68l-1.456 5.532c-.036-.01-.475-.121-1.294-.318l-.079.578c1.607.84 4.764 2.543 5.84 3.431 2.166 1.79 2.318 4.624 1.838 9.921-.246 2.72-1.148 8.011-2.401 12.871-2.162 8.367-3.31 9.349-4.792 9.729-.752.193-1.91.386-3.033.386-2.285 0-5.397.063-7.49-.442-.537 1.903-2.072 6.868-5.11 13.068.152-.074.303-.135.439-.208 3.747-1.968 10.951-5.106 11.253-5.241l5.69-2.473-2.913 5.48c-.068.119-6.316 11.869-10.142 19.542-3.799 7.599-10.924 9.254-15.189 10.234-.642.152-1.251.293-1.747.429-3.06.86-9.255 2.338-14.719 3.652l-.198.043a64.52 64.52 0 0 1-11.045 5.455c-14.688 5.563-30.168 5.25-44.204.093-2.28.293-5.277.652-9.268 1.106-1.735.193-3.42.293-5.027.293-13.372 0-20.46-6.791-25.633-13.44-5.538-7.12-12.312-17.69-12.599-18.132l-3.925-6.128 6.638 2.985c3.179 1.431 12.627 5.804 15.33 7.057.219-.062.433-.125.647-.188-4.493-6.409-8.178-13.717-10.783-21.811-2.214.667-5.622 1.184-8.273 1.184-.97 0-1.837-.073-2.504-.23-1.483-.339-3.175-1.768-5.476-9.875-1.336-4.707-2.333-9.844-2.625-12.489-.575-5.163-.47-7.929 1.675-9.715 1.294-1.08 5.657-3.371 6.56-3.84l-.193-1.593c-13.863 8.147-22.171 15.345-22.338 15.492L0 135.402l7.062-11.137c5.59-8.827 12.046-15.962 17.986-21.458-.246-.099-.475-.198-.716-.297l-1.31-.59c-.449-.21-.856-.402-1.351-.659l-.465-.238-.297-.461c-.167-.25-.24-.391-.35-.579l-.292-.516c-.183-.35-.361-.69-.522-1.034a31.159 31.159 0 0 1-.897-2.088 45.179 45.179 0 0 1-1.416-4.232 55.29 55.29 0 0 1-1.633-8.675 55.096 55.096 0 0 1-.261-8.805c.078-1.467.219-2.933.422-4.39.105-.73.215-1.462.361-2.187.151-.741.298-1.43.522-2.239l.156-.568.407-.32c2.313-1.816 4.807-3.188 7.344-4.404a79.274 79.274 0 0 1 6.363-2.637c5.992-16.628 16.294-31.373 29.834-41.65C74.946 5.616 91.408 0 108.553 0c17.146 0 33.608 5.616 47.606 16.238 13.539 10.277 23.843 25.022 29.831 41.645 2.15.794 4.274 1.655 6.367 2.642 2.535 1.216 5.031 2.588 7.342 4.404l.408.32.157.568c.23.809.375 1.498.521 2.239.148.725.262 1.457.36 2.187.205 1.457.351 2.923.423 4.39zM40.831 56.167c-2.537 1.022-5.057 2.077-7.521 3.235-2.469 1.128-4.896 2.339-7.214 3.69-2.139 1.232-4.191 2.584-6.002 4.109-.078.459-.151.959-.213 1.434a52.383 52.383 0 0 0-.21 2.025 53.11 53.11 0 0 0-.181 4.092c-.027 2.735.161 5.471.505 8.179.376 2.715.872 5.413 1.607 8.018a42.333 42.333 0 0 0 1.253 3.835c.235.628.496 1.238.768 1.833.135.297.276.59.417.871l.173.329c.203.105.412.208.61.303l1.216.579c.679.314 1.613.757 2.385 1.102l.126-.115-2.25-8.581c.475-.13 4.756-1.237 12.13-2.641-.595-.109-1.2-.24-1.79-.381a37.1 37.1 0 0 1-4.937-1.576 22.813 22.813 0 0 1-2.328-1.128c-.747-.428-1.483-.913-2.052-1.56 8.1 2.646 24.839 1.446 39.721-.089 13.611-1.404 27.249-2.312 40.961-2.343 13.711.031 27.361.939 40.962 2.343 14.891 1.535 31.631 2.735 39.73.089-.569.647-1.304 1.132-2.051 1.56-.745.424-1.534.789-2.327 1.128a37.274 37.274 0 0 1-4.943 1.576c-.246.057-.496.115-.747.167 8.086 1.498 12.793 2.719 13.294 2.855l-2.155 8.173c.434-.193.871-.38 1.298-.579l1.218-.579c.198-.095.407-.198.61-.303l.167-.329c.146-.281.287-.574.423-.871a31.88 31.88 0 0 0 .773-1.833 41.99 41.99 0 0 0 1.246-3.835c.737-2.605 1.238-5.303 1.608-8.018.35-2.708.533-5.444.507-8.179a53.107 53.107 0 0 0-.177-4.092 50.496 50.496 0 0 0-.215-2.025 30.296 30.296 0 0 0-.214-1.434c-1.812-1.525-3.862-2.877-6.003-4.109-2.317-1.351-4.743-2.562-7.218-3.69-2.458-1.158-4.983-2.213-7.52-3.235a142.424 142.424 0 0 0-3.832-1.489c-1.278-.495-2.573-.964-3.867-1.434 2.718.449 5.413 1.069 8.079 1.753 1.738.449 3.472.956 5.183 1.493-12.209-31.918-41.406-52.701-73.281-52.701-31.881 0-61.072 20.783-73.28 52.701a108.422 108.422 0 0 1 5.177-1.493c2.673-.684 5.365-1.304 8.086-1.753-1.301.47-2.59.939-3.874 1.434-1.279.475-2.557.977-3.831 1.489zm72.718 116.748l1.606 1.915c.036.046 3.607 4.295 7.971 8.622 2.903 2.877 6.409 4.333 10.428 4.333 1.373 0 2.814-.177 4.27-.528 1.351-.329 2.818-.679 4.322-1.039 5.428-1.298 11.576-2.771 14.557-3.606a39.627 39.627 0 0 1 1.94-.476c3.967-.916 9.406-2.18 12.287-7.953 2.167-4.332 5.089-9.955 7.255-14.076-1.878.866-3.847 1.805-5.246 2.541-2.155 1.132-4.978 1.68-8.627 1.68-2.17 0-4.301-.182-6.66-.392-4.713-.433-12.689-1.371-12.771-1.382l-.611-.068-.481-.386c-.072-.052-7.061-5.621-12.71-10.063a97.41 97.41 0 0 1-.625-.517c-.595-.507-.595-.507-.95-.507-1.812 0-7.077 1.634-18.614 5.21l-.708.225-.695-.262c-.079-.026-7.647-2.833-16.717-2.833-.742 0-1.482.019-2.203.056-.909.047-6.007 2.468-12.527 12.783l-.423.662-.747.24a802.21 802.21 0 0 1-23.23 7.063l-.773.219-.731-.34c-.078-.031-4.734-2.191-9.165-4.228 2.417 3.57 5.507 8.023 8.226 11.516 4.749 6.117 10.737 11.769 22.214 11.769 1.44 0 2.97-.089 4.541-.267 11.675-1.32 14.682-1.852 16.3-2.134.547-.094.981-.173 1.535-.24.088-.011 9.65-1.247 12.333-7.266 2.766-6.184 3.324-7.657 3.345-7.713l.977-2.604s.121-.675.319-.884l.005.005.019.016c.308.22.764.909.764.909zM257.4 74.926h-23.461V62.762h61.196v12.164h-23.336v69.018H257.4V74.926m36.446 8.069h11.793l.992 10.799h.497c4.345-7.944 10.799-12.288 17.255-12.288 3.103 0 5.088.372 6.951 1.241l-2.483 12.412c-2.111-.62-3.724-.992-6.331-.992-4.841 0-10.675 3.352-14.399 12.537v37.24h-14.275V82.995m63.182 51.266c4.965 0 8.814-2.482 13.282-6.702v-13.655c-16.509 2.111-21.971 6.455-21.971 12.537 0 5.462 3.599 7.82 8.689 7.82zm13.282-29.295c-.124-6.454-2.855-11.916-11.047-11.916-6.083 0-11.793 2.73-17.131 5.958l-5.213-9.558c6.703-4.221 15.268-7.944 24.95-7.944 15.269 0 22.717 9.309 22.717 26.315v36.123h-11.669l-1.117-6.704h-.372c-5.462 4.594-11.669 8.193-18.868 8.193-10.676 0-18.124-7.199-18.124-17.874 0-13.034 10.924-19.862 35.874-22.593zm18.36-21.971h14.524l9.682 31.654c1.613 5.958 3.476 12.164 5.09 18.372h.496c1.737-6.208 3.476-12.414 5.214-18.372l9.681-31.654h13.779l-20.729 60.949h-16.51L388.67 82.995m65.431 60.949h14.275V82.995h-14.275v60.949zm-1.614-79.693c0-4.841 3.723-8.193 8.813-8.193 5.09 0 8.813 3.352 8.813 8.193 0 4.717-3.723 8.069-8.813 8.069-5.09 0-8.813-3.352-8.813-8.069zm30.772 63.556c5.462 4.22 10.676 6.827 16.882 6.827 6.58 0 9.683-3.103 9.683-7.323 0-5.09-6.58-7.324-13.034-9.807-8.069-2.979-17.13-7.572-17.13-17.75 0-10.677 8.565-18.248 22.219-18.248 8.441 0 15.268 3.475 20.233 7.323l-6.578 8.69c-4.221-3.104-8.565-5.215-13.406-5.215-6.083 0-8.939 2.855-8.939 6.704 0 4.717 6.084 6.704 12.662 9.061 8.317 3.104 17.503 7.076 17.503 18.496 0 10.427-8.318 18.868-23.709 18.868-8.317 0-17.13-3.599-23.088-8.441l6.702-9.185m110.106-66.535c9.93 0 17.998 4.841 23.088 10.303l-7.945 8.937c-4.221-4.096-8.813-6.703-15.019-6.703-13.282 0-22.841 11.172-22.841 29.42 0 18.496 8.813 29.667 22.343 29.667 7.2 0 12.538-2.98 17.131-8.068l7.945 8.813c-6.58 7.572-15.021 11.792-25.324 11.792-20.605 0-36.866-14.895-36.866-41.832 0-26.564 16.633-42.329 37.488-42.329m33.504 82.672h14.399V62.762h-14.399z" fill="#292C2D"/></g></svg>