<?xml version="1.0" encoding="UTF-8" standalone="no"?>
<svg
   xmlns:dc="http://purl.org/dc/elements/1.1/"
   xmlns:cc="http://creativecommons.org/ns#"
   xmlns:rdf="http://www.w3.org/1999/02/22-rdf-syntax-ns#"
   xmlns:svg="http://www.w3.org/2000/svg"
   xmlns="http://www.w3.org/2000/svg"
   viewBox="0 0 531.35065 167.62801"
   height="167.62801"
   width="531.35065"
   xml:space="preserve"
   id="svg2"
   version="1.1"><metadata
     id="metadata8"><rdf:RDF><cc:Work
         rdf:about=""><dc:format>image/svg+xml</dc:format><dc:type
           rdf:resource="http://purl.org/dc/dcmitype/StillImage" /></cc:Work></rdf:RDF></metadata><defs
     id="defs6"><clipPath
       id="clipPath18"
       clipPathUnits="userSpaceOnUse"><path
         id="path16"
         d="M 0,125.721 H 398.513 V 0 H 0 Z" /></clipPath><linearGradient
       id="linearGradient90"
       spreadMethod="pad"
       gradientTransform="matrix(39.63356,-96.012085,-96.012085,-39.63356,19.888084,106.03976)"
       gradientUnits="userSpaceOnUse"
       y2="0"
       x2="1"
       y1="0"
       x1="0"><stop
         id="stop84"
         offset="0"
         style="stop-opacity:1;stop-color:#fec02e" /><stop
         id="stop86"
         offset="0.00322571"
         style="stop-opacity:1;stop-color:#fec02e" /><stop
         id="stop88"
         offset="1"
         style="stop-opacity:1;stop-color:#f58335" /></linearGradient><linearGradient
       id="linearGradient112"
       spreadMethod="pad"
       gradientTransform="matrix(38.88575,-95.040573,-95.040573,-38.88575,68.271484,106.94799)"
       gradientUnits="userSpaceOnUse"
       y2="0"
       x2="1"
       y1="0"
       x1="0"><stop
         id="stop106"
         offset="0"
         style="stop-opacity:1;stop-color:#fec02e" /><stop
         id="stop108"
         offset="0.00322571"
         style="stop-opacity:1;stop-color:#fec02e" /><stop
         id="stop110"
         offset="1"
         style="stop-opacity:1;stop-color:#f58335" /></linearGradient><linearGradient
       id="linearGradient134"
       spreadMethod="pad"
       gradientTransform="matrix(30.589806,-74.049087,-74.049087,-30.589806,48.227234,95.841705)"
       gradientUnits="userSpaceOnUse"
       y2="0"
       x2="1"
       y1="0"
       x1="0"><stop
         id="stop128"
         offset="0"
         style="stop-opacity:1;stop-color:#fec02e" /><stop
         id="stop130"
         offset="0.00322571"
         style="stop-opacity:1;stop-color:#fec02e" /><stop
         id="stop132"
         offset="1"
         style="stop-opacity:1;stop-color:#f58335" /></linearGradient></defs><g
     transform="matrix(1.3333333,0,0,-1.3333333,0,167.628)"
     id="g10"><g
       id="g12"><g
         clip-path="url(#clipPath18)"
         id="g14"><g
           transform="translate(144.3131,44.1872)"
           id="g20"><path
             id="path22"
             style="fill:#424242;fill-opacity:1;fill-rule:nonzero;stroke:none"
             d="m 0,0 c 0,-1.221 -0.183,-1.953 -0.183,-1.953 l -5.005,-0.366 c 0.062,0.305 0.122,0.854 0.122,1.526 0,3.54 -2.563,6.103 -6.896,6.103 -5.433,0 -9.095,-4.089 -9.095,-10.315 0,-6.103 3.479,-10.193 9.582,-10.193 5.433,0 7.752,2.503 8.85,3.845 l 3.174,-3.418 c -2.685,-3.234 -7.019,-4.943 -12.207,-4.943 -8.971,0 -14.892,5.92 -14.892,14.587 0,8.789 5.982,14.954 14.466,14.954 C -4.7,9.827 0,5.493 0,0" /></g><g
           transform="translate(169.6974,39.1213)"
           id="g24"><path
             id="path26"
             style="fill:#424242;fill-opacity:1;fill-rule:nonzero;stroke:none"
             d="m 0,0 c 0,5.981 -3.723,10.376 -9.338,10.376 -5.615,0 -9.338,-4.395 -9.338,-10.376 0,-5.981 3.723,-10.132 9.338,-10.132 C -3.723,-10.132 0,-5.981 0,0 m 5.494,0 c 0,-8.728 -5.921,-14.648 -14.832,-14.648 -8.911,0 -14.831,5.92 -14.831,14.648 0,8.728 5.92,14.893 14.831,14.893 C -0.427,14.893 5.494,8.728 5.494,0" /></g><g
           transform="translate(203.1241,42.4782)"
           id="g28"><path
             id="path30"
             style="fill:#424242;fill-opacity:1;fill-rule:nonzero;stroke:none"
             d="M 0,0 V -17.639 H -5.433 V 0 c 0,4.211 -2.379,7.019 -6.713,7.019 -5.982,0 -8.667,-5.432 -8.667,-9.582 v -15.076 h -5.372 v 28.808 l 3.785,0.184 c 0.488,-2.198 0.732,-5.433 0.732,-6.714 h 0.184 c 1.525,3.601 4.76,6.897 10.254,6.897 C -4.334,11.536 0,6.897 0,0" /></g><g
           transform="translate(223.7931,44.7365)"
           id="g32"><path
             id="path34"
             style="fill:#424242;fill-opacity:1;fill-rule:nonzero;stroke:none"
             d="m 0,0 c 0,2.991 -2.624,4.761 -6.408,4.761 -3.602,0 -5.677,-1.648 -5.677,-4.029 0,-6.774 17.334,-1.892 17.518,-12.817 0.061,-5.188 -4.883,-8.179 -11.902,-8.179 -7.081,0 -10.803,2.991 -12.452,4.334 l 3.296,3.662 c 1.221,-1.16 4.822,-3.479 9.217,-3.479 4.272,0 6.347,1.526 6.347,3.723 0,5.92 -17.516,2.136 -17.516,12.817 0,4.761 4.516,8.484 11.291,8.484 6.774,0 11.291,-3.54 11.291,-8.3 0,-1.16 -0.244,-2.015 -0.244,-2.015 L -0.183,-1.404 C -0.061,-0.977 0,-0.427 0,0" /></g><g
           transform="translate(254.0743,39.1213)"
           id="g36"><path
             id="path38"
             style="fill:#424242;fill-opacity:1;fill-rule:nonzero;stroke:none"
             d="m 0,0 c 0,5.981 -3.723,10.376 -9.338,10.376 -5.615,0 -9.338,-4.395 -9.338,-10.376 0,-5.981 3.723,-10.132 9.338,-10.132 C -3.723,-10.132 0,-5.981 0,0 m 5.494,0 c 0,-8.728 -5.921,-14.648 -14.832,-14.648 -8.911,0 -14.831,5.92 -14.831,14.648 0,8.728 5.92,14.893 14.831,14.893 C -0.427,14.893 5.494,8.728 5.494,0" /></g><g
           transform="translate(277.6134,53.5251)"
           id="g40"><path
             id="path42"
             style="fill:#424242;fill-opacity:1;fill-rule:nonzero;stroke:none"
             d="m 0,0 -1.343,-5.432 c -0.61,0.367 -1.465,0.672 -2.685,0.672 -3.236,0 -6.898,-2.869 -6.898,-8.85 v -15.076 h -5.371 V 0.123 l 3.784,0.183 c 0.489,-2.198 0.733,-5.432 0.733,-6.714 h 0.244 c 1.099,3.784 3.54,6.897 7.812,6.897 C -2.441,0.489 -1.099,0.306 0,0" /></g><g
           transform="translate(300.9249,26.365)"
           id="g44"><path
             id="path46"
             style="fill:#424242;fill-opacity:1;fill-rule:nonzero;stroke:none"
             d="m 0,0 c 0,0 -2.868,-1.892 -7.568,-1.892 -7.447,0 -10.437,3.967 -10.437,11.352 v 13.489 h -4.578 v 4.334 h 4.578 v 8.544 l 5.433,0.306 v -8.85 H -1.403 V 22.949 H -12.572 V 9.644 c 0,-4.639 1.647,-6.958 5.553,-6.958 3.357,0 5.311,1.647 5.311,1.647 z" /></g><g
           transform="translate(303.5284,53.6477)"
           id="g48"><path
             id="path50"
             style="fill:#424242;fill-opacity:1;fill-rule:nonzero;stroke:none"
             d="M 0,0 5.432,0.183 V -28.809 H 0 Z m 2.868,5.737 c -2.075,0 -3.722,1.526 -3.722,3.601 0,2.075 1.647,3.662 3.722,3.662 2.075,0 3.785,-1.587 3.785,-3.662 0,-2.075 -1.71,-3.601 -3.785,-3.601" /></g><g
           transform="translate(337.4425,53.6477)"
           id="g52"><path
             id="path54"
             style="fill:#424242;fill-opacity:1;fill-rule:nonzero;stroke:none"
             d="m 0,0 v -28.809 l -3.906,-0.183 c -0.489,2.198 -0.733,5.432 -0.733,6.104 H -4.7 c -1.587,-3.479 -4.638,-6.287 -9.582,-6.287 -6.897,0 -11.231,4.639 -11.231,11.536 V 0 h 5.433 v -17.639 c 0,-4.212 2.38,-7.019 6.714,-7.019 5.309,0 7.995,5.432 7.995,9.582 l 0,15.076 z" /></g><g
           transform="translate(385.9259,42.3562)"
           id="g56"><path
             id="path58"
             style="fill:#424242;fill-opacity:1;fill-rule:nonzero;stroke:none"
             d="M 0,0 V -17.517 H -5.433 V 0 c 0,4.211 -2.379,7.019 -6.713,7.019 -5.432,0 -8.118,-5.31 -8.118,-9.46 v -15.076 h -5.432 V 0 c 0,4.211 -2.38,7.019 -6.713,7.019 -5.433,0 -8.118,-5.31 -8.118,-9.46 v -15.076 h -5.371 v 28.809 l 3.784,0.183 c 0.488,-2.198 0.732,-5.433 0.732,-6.714 1.465,3.662 4.639,6.774 9.888,6.774 5.127,0 8.849,-2.563 10.376,-6.713 1.525,3.661 4.699,6.713 9.888,6.713 C -4.334,11.535 0,6.897 0,0" /></g><g
           transform="translate(118.6471,73.2649)"
           id="g60"><path
             id="path62"
             style="fill:#424242;fill-opacity:1;fill-rule:nonzero;stroke:none"
             d="M 0,0 9.321,23.906 H 19.566 L 4.98,-13.447 H -5.265 l -15.297,37.353 h 11.1 z" /></g><g
           transform="translate(169.4474,89.9133)"
           id="g64"><path
             id="path66"
             style="fill:#424242;fill-opacity:1;fill-rule:nonzero;stroke:none"
             d="m 0,0 -7.684,-5.336 c -1.066,1.921 -4.268,4.554 -9.747,4.554 -2.775,0 -5.478,-0.498 -5.478,-2.633 0,-1.708 2.846,-2.206 5.976,-2.774 10.815,-2.135 17.574,-3.487 17.574,-12.594 0,-9.533 -9.463,-12.024 -16.933,-12.024 -8.467,0 -15.297,3.843 -18.57,9.677 l 8.324,4.624 c 1.423,-2.419 4.767,-5.478 9.818,-5.478 3.629,0 7.97,0 7.97,2.49 0,3.557 -9.107,3.913 -13.163,5.194 -5.905,1.921 -10.246,4.696 -10.246,11.241 0,7.684 5.621,11.028 14.87,11.028 C -6.973,7.969 -1.067,3.558 0,0" /></g><g
           transform="translate(172.7208,96.6013)"
           id="g68"><path
             id="path70"
             style="fill:#424242;fill-opacity:1;fill-rule:nonzero;stroke:none"
             d="m 0,0 4.481,0.996 c 1.495,-1.28 2.562,-3.842 3.415,-5.122 1.637,2.49 5.266,5.478 11.598,5.478 6.261,0 10.317,-3.344 11.811,-6.403 1.209,3.059 6.972,6.403 13.589,6.403 8.252,0 14.798,-5.55 14.798,-15.724 v -22.411 h -9.463 v 21.202 c 0,4.624 -3.343,7.755 -7.754,7.755 -2.491,0 -6.475,-1.494 -7.684,-3.985 v -24.972 h -9.463 v 21.202 c 0,4.624 -2.988,7.755 -7.328,7.755 -3.7,0 -8.396,-2.49 -8.396,-5.194 V -36.783 H 0 Z" /></g></g></g><g
       id="g72"><g
         id="g74"><g
           id="g80"><g
             id="g82"><path
               id="path92"
               style="fill:url(#linearGradient90);stroke:none"
               d="m 12.157,95.948 c 0,-6.644 5.386,-12.03 12.03,-12.03 v 0 c 0.396,0 0.77,0.079 1.156,0.117 v 0 L 46.454,32.487 c -2.733,-2.205 -4.517,-5.54 -4.517,-9.325 v 0 c 0,-6.643 5.386,-12.03 12.031,-12.03 v 0 c 6.643,0 12.029,5.387 12.029,12.03 v 0 c 0,6.644 -5.386,12.03 -12.029,12.03 v 0 c -0.412,0 -0.799,-0.08 -1.199,-0.121 v 0 L 31.668,86.596 c 2.751,2.205 4.548,5.552 4.548,9.352 v 0 c 0,6.644 -5.386,12.03 -12.029,12.03 v 0 c -6.644,0 -12.03,-5.386 -12.03,-12.03" /></g></g></g></g><g
       id="g94"><g
         id="g96"><g
           id="g102"><g
             id="g104"><path
               id="path114"
               style="fill:url(#linearGradient112);stroke:none"
               d="m 60.769,95.948 c 0,-6.644 5.385,-12.03 12.029,-12.03 v 0 c 0.379,0 0.737,0.077 1.107,0.112 v 0 L 95.012,32.487 c -2.732,-2.205 -4.515,-5.54 -4.515,-9.325 v 0 c 0,-6.643 5.385,-12.03 12.029,-12.03 v 0 c 6.644,0 12.03,5.387 12.03,12.03 v 0 c 0,6.644 -5.386,12.03 -12.03,12.03 v 0 c -0.411,0 -0.798,-0.08 -1.199,-0.121 v 0 L 80.24,86.564 c 2.775,2.204 4.588,5.565 4.588,9.384 v 0 c 0,6.644 -5.386,12.03 -12.03,12.03 v 0 c -6.644,0 -12.029,-5.386 -12.029,-12.03" /></g></g></g></g><g
       id="g116"><g
         id="g118"><g
           id="g124"><g
             id="g126"><path
               id="path136"
               style="fill:url(#linearGradient134);stroke:none"
               d="M 44.132,97.079 54.944,70.807 c -2.749,-2.205 -4.543,-5.551 -4.543,-9.348 v 0 c 0,-6.644 5.385,-12.029 12.03,-12.029 v 0 c 0.43,0 0.838,0.083 1.258,0.127 v 0 l 11.405,-27.72 7.918,0.024 -12.735,30.548 c 2.542,2.206 4.183,5.42 4.183,9.05 v 0 c 0,6.644 -5.386,12.03 -12.029,12.03 v 0 c -0.309,0 -0.6,-0.069 -0.904,-0.09 v 0 l -9.901,23.749 z" /></g></g></g></g></g></svg>
