<?xml version="1.0" encoding="utf-8"?>
<svg version="1.1" id="Layer_1" xmlns="http://www.w3.org/2000/svg" xmlns:xlink="http://www.w3.org/1999/xlink" x="0px" y="0px"
	 viewBox="0 0 266.06 166.11" style="enable-background:new 0 0 266.06 166.11;" xml:space="preserve">
<style type="text/css">
	.st0{fill:#292B68;}
	.st1{fill:#F6BC35;}
	.st2{fill:#FFFFFF;}
</style>
<g>
	<g>
		<path class="st0" d="M15.59,164.13l-10.3-31.08h6.81l6.27,20.9l7.06-20.9h3.95l7.19,20.9l6.18-20.9h6.81l-10.26,31.08h-5.26
			l-6.6-20.35l-6.6,20.35H15.59z"/>
		<path class="st0" d="M52.25,164.13v-31.96h5.76v12.03c1.22-2.06,3.99-3.62,7.23-3.62c2.48,0,4.58,0.84,6.31,2.48
			c1.72,1.64,2.61,3.99,2.61,7.07v14h-5.93v-12.41c0-3.66-1.89-5.68-4.79-5.68c-3.15,0-5.26,2.4-5.26,5.8v12.28H52.25z"/>
		<path class="st0" d="M77.58,137.6c-1.39-1.39-1.39-3.83,0-5.17c1.39-1.39,3.83-1.39,5.21,0c1.39,1.35,1.39,3.79,0,5.17
			C81.41,138.98,78.97,138.98,77.58,137.6z"/>
		<rect x="77.23" y="141.21" class="st0" width="5.93" height="22.92"/>
		<path class="st0" d="M104.86,162.79c-1.89,1.26-4.12,1.89-6.77,1.89c-5.26,0-7.99-3.11-7.99-9.04v-9.46h-3.74v-4.96h3.78v-8.12
			h5.89v8.12h7.57v4.96h-7.57v9.08c0,2.69,1.09,4.04,3.24,4.04c1.14,0,2.44-0.38,3.83-1.18L104.86,162.79z"/>
		<path class="st0" d="M129.44,154.76h-17.2c0.84,3.24,3.07,4.88,6.69,4.88c2.48,0,5.43-0.97,7.4-2.31l2.35,4.16
			c-2.9,2.1-6.22,3.15-10.01,3.15c-4.04,0-7.11-1.18-9.25-3.49c-2.15-2.31-3.2-5.17-3.2-8.49c0-3.49,1.09-6.35,3.32-8.62
			c2.23-2.27,5.09-3.41,8.62-3.41c3.32,0,6.1,1.05,8.24,3.11c2.15,2.06,3.24,4.84,3.24,8.41
			C129.65,152.95,129.57,153.83,129.44,154.76z M112.24,150.34h11.65c-0.55-2.99-2.69-4.79-5.72-4.79
			C115.19,145.54,112.96,147.35,112.24,150.34z"/>
		<path class="st0" d="M132.33,158.16l2.06-1.39c1.56,3.41,4.42,5.43,8.07,5.43c2.1,0,3.83-0.59,5.13-1.72
			c1.3-1.13,1.98-2.56,1.98-4.29c0-2.4-1.39-3.95-4.08-5.3c-0.59-0.29-1.64-0.8-3.2-1.47c-1.51-0.67-2.52-1.13-3.07-1.43
			c-3.53-1.77-5.3-4.25-5.3-7.4c0-2.31,0.8-4.25,2.44-5.76c1.64-1.56,3.83-2.31,6.48-2.31c3.7,0,6.65,1.56,8.79,4.63l-1.93,1.56
			c-1.77-2.52-4.04-3.79-6.81-3.79c-3.66,0-6.27,2.23-6.27,5.55c0,2.15,1.26,3.87,3.74,5.17c0.55,0.29,1.68,0.84,3.41,1.6
			c1.72,0.76,2.9,1.3,3.53,1.64c3.32,1.81,5,4.21,5,7.23c0,2.52-0.93,4.58-2.82,6.18c-1.85,1.56-4.16,2.36-6.94,2.36
			C138.18,164.64,134.23,162.41,132.33,158.16z"/>
		<path class="st0" d="M157.82,144.49c2.23-2.27,5.01-3.41,8.37-3.41c3.37,0,6.14,1.14,8.37,3.41c2.23,2.27,3.32,5.05,3.32,8.37
			c0,3.32-1.09,6.14-3.32,8.41c-2.23,2.27-5,3.41-8.37,3.41c-3.36,0-6.14-1.13-8.37-3.41c-2.23-2.27-3.32-5.09-3.32-8.41
			C154.49,149.54,155.59,146.76,157.82,144.49z M172.75,159.63c1.72-1.85,2.61-4.12,2.61-6.77c0-2.65-0.88-4.92-2.61-6.73
			c-1.72-1.81-3.91-2.73-6.56-2.73c-2.61,0-4.79,0.92-6.56,2.78c-1.72,1.81-2.61,4.04-2.61,6.69c0,2.65,0.88,4.92,2.61,6.77
			c1.77,1.81,3.95,2.73,6.56,2.73C168.83,162.37,171.02,161.44,172.75,159.63z"/>
		<path class="st0" d="M182.72,162.16c-1.64-1.72-2.48-3.99-2.48-6.81v-13.71h2.52v13.67c0,4.33,2.56,7.02,6.64,7.02
			c4.21,0,6.69-2.69,6.69-7.07v-13.63h2.52v13.71c0,5.72-3.49,9.34-9.21,9.34C186.63,164.68,184.4,163.84,182.72,162.16z"/>
		<path class="st0" d="M202.46,164.13v-22.5h2.4v3.62c1.22-2.82,3.37-4.21,6.52-4.21c0.88,0,1.81,0.13,2.78,0.38l-0.29,2.4
			c-0.8-0.25-1.6-0.38-2.4-0.38c-4.08,0-6.48,3.2-6.48,7.87v12.83H202.46z"/>
		<path class="st0" d="M218.18,161.36c-2.15-2.23-3.24-5.05-3.24-8.45c0-3.45,1.09-6.27,3.28-8.49c2.23-2.23,5.05-3.32,8.45-3.32
			c4.42,0,8.33,2.23,10.05,5.8l-2.06,1.18c-1.51-2.86-4.58-4.67-7.99-4.67c-2.65,0-4.88,0.88-6.6,2.69
			c-1.72,1.77-2.61,4.04-2.61,6.81c0,2.73,0.84,5.01,2.52,6.77c1.68,1.77,3.83,2.65,6.43,2.65c3.41,0,6.64-1.93,8.12-4.67l2.06,1.26
			c-0.88,1.72-2.27,3.11-4.12,4.16c-1.85,1.05-3.87,1.56-6.06,1.56C223.1,164.64,220.33,163.54,218.18,161.36z"/>
		<path class="st0" d="M260.65,153.87h-18.92c0.38,5,3.62,8.41,9.13,8.41c2.9,0,6.22-1.05,8.24-2.69l1.18,1.93
			c-2.19,1.72-5.76,3.11-9.46,3.11c-8.28,0-11.69-5.93-11.69-11.82c0-3.41,1.01-6.18,3.07-8.41c2.06-2.23,4.75-3.32,8.12-3.32
			c3.03,0,5.51,0.97,7.48,2.94c1.98,1.94,2.99,4.54,2.99,7.87C260.78,152.19,260.74,152.86,260.65,153.87z M241.73,151.56h16.44
			c-0.04-5-3.28-8.16-7.86-8.16C245.6,143.4,242.24,146.64,241.73,151.56z"/>
	</g>
	<g>
		
			<ellipse transform="matrix(0.9969 -0.0783 0.0783 0.9969 -3.9193 10.6547)" class="st0" cx="133.88" cy="55.3" rx="51.79" ry="51.79"/>
	</g>
	<path class="st1" d="M157.21,50.24c-0.15,0.7,1.86-17.89-12.49-24.8l0,21.08l-3.17,0l0-25.44l-7.65,0h-0.04l-7.62,0l0,25.44l-3.2,0
		l0-21.08c-15.81,7.62-12.49,24.8-12.49,24.8h-3.47l0,4.9l26.78,0h0.04l26.78,0v-4.9H157.21z"/>
	<g>
		<path class="st2" d="M160.68,69.71l0-9.98l-15.36,0v0.36v2.28c0,6.29-5.15,11.44-11.44,11.44c-6.29,0-11.44-5.15-11.44-11.44
			v-2.28v-0.36l-15.36,0l0,9.98h6.24l2.01,4.48l-4.21,3.71l7.71,8.19l4.4-4.44l4.77,2.05l0,5.8h11.76l0-5.8l4.77-2.05l4.4,4.44
			l7.71-8.19l-4.21-3.71l2.01-4.48L160.68,69.71z"/>
		<path class="st2" d="M145.32,60.09v-0.36h-0.02C145.31,59.85,145.32,59.97,145.32,60.09z"/>
		<path class="st2" d="M122.46,59.73h-0.02v0.36C122.44,59.97,122.45,59.85,122.46,59.73z"/>
	</g>
</g>
</svg>
