<svg xmlns="http://www.w3.org/2000/svg" role="img" viewBox="202.57 219.07 594.36 561.36"><title>Allero logo</title><path fill="#252525" d="M275.906 671.385c19.811 0 32.375 17.396 32.375 35.275 0 18.12-10.872 35.033-32.375 35.033-21.504 0-32.376-16.913-32.376-35.033-.001-17.88 11.113-35.275 32.376-35.275m76.582-74.174v168.885h29.235V597.211h-29.235zm45.507 0v168.885h29.235V597.211h-29.235zm72.784 95.435c4.349-15.462 17.396-23.194 33.342-23.194 16.912 0 28.993 7.732 30.927 23.194h-64.269zm92.536 24.404c4.591-49.048-20.296-73.692-60.16-73.692-38.658 0-63.302 26.094-63.302 62.337 0 38.173 24.402 63.543 65.476 63.543 18.121 0 38.657-6.282 51.222-19.329l-18.846-18.604c-6.766 7.006-21.021 11.113-31.893 11.113-20.778 0-33.584-10.63-35.517-25.368h93.02zm11.047-17.998v67.044h29.477v-62.818c0-21.987 14.255-30.201 29.719-30.201 9.664 0 15.221 2.657 21.261 7.732l13.289-25.612c-23.869-22.823-93.746-15.401-93.746 43.855zm149.492-27.667c19.811 0 32.374 17.396 32.374 35.275 0 18.12-10.871 35.033-32.374 35.033-21.505 0-32.377-16.913-32.377-35.033 0-17.88 11.114-35.275 32.377-35.275zm-.243-26.82c-37.933 0-61.611 28.027-61.611 62.095 0 34.308 23.195 62.093 61.854 62.093 38.656 0 62.093-27.785 62.093-62.093-.001-34.067-24.403-62.095-62.336-62.095zm-447.947 0c-37.933 0-61.611 28.027-61.611 62.095 0 34.308 23.195 62.093 61.853 62.093 13.237 0 24.687-3.258 34.024-8.92l1.541 6.263h26.528V706.66c0-34.067-24.402-62.095-62.335-62.095z"/><path fill="#F49925" fill-rule="evenodd" d="M526.994 292.365l-12.331-21.36c-3.314-5.703-9.438-8.387-15.263-8.362-5.424.022-10.556 2.341-13.926 8.179l-21.379 37.03L399.4 419.909c-2.923 5.59-2.139 11.969.698 16.835 2.73 4.686 7.305 7.972 14.046 7.972h9.415c2.989-5.916 7.673-11.06 13.842-14.621 16.882-9.748 38.466-3.964 48.212 12.918 9.748 16.88 3.963 38.466-12.918 48.211s-38.466 3.963-48.211-12.917c-.326-.564-.632-1.134-.924-1.708l-.083-.003h-3.807c-22.502.001-38.678-9.187-47.18-23.913-8.993-15.573-9.456-33.731 1.965-53.512 19.416-33.629 42.55-73.582 62.008-107.222l18.64-32.284c11.25-19.487 27.294-28.901 44.299-28.902 17.984-.001 33.939 8.677 45.36 28.458l19.714 34.146c-6.465-2.117-13.436-3.241-20.884-3.24-5.818.001-11.358.782-16.598 2.238" clip-rule="evenodd"/><path fill="#B52D9B" fill-rule="evenodd" d="M605.172 521.243l24.671.001c6.596-.02 11.982-3.98 14.873-9.037 2.692-4.708 3.25-10.313-.119-16.15l-21.38-37.03-64.696-112.056c-3.38-5.326-9.296-7.836-14.929-7.813-5.423.022-10.557 2.341-13.927 8.179l-4.708 8.154c3.629 5.545 5.742 12.175 5.741 19.298.001 19.494-15.8 35.294-35.293 35.293-19.492.002-35.294-15.8-35.293-35.293 0-19.493 15.801-35.294 35.292-35.294.651 0 1.298.019 1.941.054l.044-.071 1.903-3.297c11.251-19.487 27.295-28.902 44.299-28.902 17.983-.001 33.939 8.677 45.36 28.458 19.415 33.63 42.449 73.641 61.853 107.311l18.639 32.285c11.252 19.487 11.383 38.088 2.881 52.815-8.99 15.576-24.483 25.055-47.325 25.055l-39.358-.001c5.031-4.526 9.461-9.975 13.163-16.389 2.918-5.055 5.012-10.271 6.368-15.57" clip-rule="evenodd"/><path fill="#359C9B" fill-rule="evenodd" d="M367.892 474.534l-12.365 21.416c-3.282 5.721-2.545 12.367.39 17.399 2.73 4.686 7.306 7.971 14.046 7.971l42.758-.001h129.392c6.303-.264 11.435-4.131 14.23-9.021 2.691-4.707 3.251-10.313-.12-16.15l-4.707-8.154c-6.617.37-13.414-1.115-19.583-4.677-16.883-9.747-22.666-31.331-12.919-48.212 9.745-16.881 31.331-22.666 48.212-12.918s22.665 31.331 12.919 48.211c-.325.563-.665 1.114-1.017 1.653l.039.074 1.903 3.296c11.252 19.487 11.383 38.089 2.881 52.815-8.991 15.575-24.484 25.055-47.325 25.055-38.832 0-84.999-.059-123.861-.09h-37.279c-22.501.001-38.676-9.188-47.179-23.913-8.994-15.574-9.457-33.731 1.965-53.512l19.736-34.184c1.401 6.645 3.911 13.23 7.628 19.667 2.914 5.045 6.367 9.46 10.256 13.275" clip-rule="evenodd"/></svg>