<svg xmlns="http://www.w3.org/2000/svg" role="img" xmlns:xlink="http://www.w3.org/1999/xlink" viewBox="0.13 -4.12 343.98 97.23"><title>Apache Maven logo</title><defs><linearGradient x1="0" x2="1" y1="0" y2="0" gradientTransform="translate(-44.215 -9.85)" gradientUnits="userSpaceOnUse" xlink:href="#linearGradient11392"/><linearGradient id="u" x1="-7708.797" x2="-7633.153" y1="-803.36" y2="-714.907" gradientTransform="rotate(-65.001 -3054.253 -6609.844)" gradientUnits="userSpaceOnUse" xlink:href="#a"/><linearGradient id="v" x1="-8268.639" x2="-7728.958" y1="-813.123" y2="-813.123" gradientTransform="rotate(-65.001 -3054.253 -6609.844)" gradientUnits="userSpaceOnUse" xlink:href="#b"/><linearGradient id="w" x1="-8203.492" x2="-7881.895" y1="-758.994" y2="-758.994" gradientTransform="rotate(-65.001 -3054.253 -6609.844)" gradientUnits="userSpaceOnUse" xlink:href="#c"/><linearGradient id="x" x1="-8238.328" x2="-7698.647" y1="-818.152" y2="-818.152" gradientTransform="rotate(-65.001 -3054.253 -6609.844)" gradientUnits="userSpaceOnUse" xlink:href="#d"/><linearGradient id="y" x1="-8198.968" x2="-7915.35" y1="-810.851" y2="-810.851" gradientTransform="rotate(-65.001 -3054.253 -6609.844)" gradientUnits="userSpaceOnUse" xlink:href="#e"/><linearGradient id="z" x1="-8238.328" x2="-7698.647" y1="-762.297" y2="-762.297" gradientTransform="rotate(-65.001 -3054.253 -6609.844)" gradientUnits="userSpaceOnUse" xlink:href="#f"/><linearGradient id="A" x1="-8271.806" x2="-7732.125" y1="-765.071" y2="-765.071" gradientTransform="rotate(-65.001 -3054.253 -6609.844)" gradientUnits="userSpaceOnUse" xlink:href="#g"/><linearGradient id="B" x1="-8238.328" x2="-7698.647" y1="-745.685" y2="-745.685" gradientTransform="rotate(-65.001 -3054.253 -6609.844)" gradientUnits="userSpaceOnUse" xlink:href="#h"/><linearGradient id="C" x1="-8238.328" x2="-7698.647" y1="-747.586" y2="-747.586" gradientTransform="rotate(-65.001 -3054.253 -6609.844)" gradientUnits="userSpaceOnUse" xlink:href="#i"/><linearGradient id="D" x1="-7935.143" x2="-7815.856" y1="-747.967" y2="-747.967" gradientTransform="rotate(-65.001 -3054.253 -6609.844)" gradientUnits="userSpaceOnUse" xlink:href="#j"/><linearGradient id="k" x1="-7708.797" x2="-7633.153" y1="-803.36" y2="-714.907" gradientTransform="rotate(-65.001 -3054.253 -6609.844)" gradientUnits="userSpaceOnUse" xlink:href="#a"/><linearGradient id="l" x1="-8268.639" x2="-7728.958" y1="-813.123" y2="-813.123" gradientTransform="rotate(-65.001 -3054.253 -6609.844)" gradientUnits="userSpaceOnUse" xlink:href="#b"/><linearGradient id="m" x1="-8203.492" x2="-7881.895" y1="-758.994" y2="-758.994" gradientTransform="rotate(-65.001 -3054.253 -6609.844)" gradientUnits="userSpaceOnUse" xlink:href="#c"/><linearGradient id="n" x1="-8238.328" x2="-7698.647" y1="-818.152" y2="-818.152" gradientTransform="rotate(-65.001 -3054.253 -6609.844)" gradientUnits="userSpaceOnUse" xlink:href="#d"/><linearGradient id="o" x1="-8198.968" x2="-7915.35" y1="-810.851" y2="-810.851" gradientTransform="rotate(-65.001 -3054.253 -6609.844)" gradientUnits="userSpaceOnUse" xlink:href="#e"/><linearGradient id="p" x1="-8238.328" x2="-7698.647" y1="-762.297" y2="-762.297" gradientTransform="rotate(-65.001 -3054.253 -6609.844)" gradientUnits="userSpaceOnUse" xlink:href="#f"/><linearGradient id="q" x1="-8271.806" x2="-7732.125" y1="-765.071" y2="-765.071" gradientTransform="rotate(-65.001 -3054.253 -6609.844)" gradientUnits="userSpaceOnUse" xlink:href="#g"/><linearGradient id="r" x1="-8238.328" x2="-7698.647" y1="-745.685" y2="-745.685" gradientTransform="rotate(-65.001 -3054.253 -6609.844)" gradientUnits="userSpaceOnUse" xlink:href="#h"/><linearGradient id="s" x1="-8238.328" x2="-7698.647" y1="-747.586" y2="-747.586" gradientTransform="rotate(-65.001 -3054.253 -6609.844)" gradientUnits="userSpaceOnUse" xlink:href="#i"/><linearGradient id="t" x1="-7935.143" x2="-7815.856" y1="-747.967" y2="-747.967" gradientTransform="rotate(-65.001 -3054.253 -6609.844)" gradientUnits="userSpaceOnUse" xlink:href="#j"/></defs><g transform="rotate(-36.275 121.871 -184.413) scale(.1186)"><linearGradient x1="-7708.797" x2="-7633.153" y1="-803.36" y2="-714.907" gradientTransform="rotate(-65.001 -3054.253 -6609.844)" gradientUnits="userSpaceOnUse"><stop offset="0" stop-color="#f69923" stop-opacity="1"/><stop offset=".312" stop-color="#f79a23" stop-opacity="1"/><stop offset=".838" stop-color="#e97826" stop-opacity="1"/></linearGradient><path fill="url(#k)" d="M267.1 19.6c-8.4 5-22.4 19-39 39.3l15.3 28.9c10.7-15.4 21.7-29.2 32.7-41 .8-.9 1.3-1.4 1.3-1.4-.4.5-.9.9-1.3 1.4-3.6 3.9-14.4 16.5-30.7 41.6 15.7-.8 39.8-4 59.5-7.4 5.9-32.8-5.7-47.8-5.7-47.8s-14.8-23.9-32.1-13.6z"/><path fill="none" d="M241.1 184.4c.1 0 .2 0 .3-.1l-2.2.2c-.1.1-.3.1-.4.2.8-.1 1.6-.2 2.3-.3z"/><path fill="none" d="M225.5 236.1c-1.2.3-2.5.5-3.8.7 1.3-.2 2.6-.4 3.8-.7z"/><path fill="none" d="M119.3 352.2c.2-.4.3-.9.5-1.3 3.4-8.9 6.7-17.5 10-26 3.7-9.4 7.4-18.6 11-27.5 3.8-9.3 7.6-18.4 11.3-27.1 3.9-9.2 7.7-18 11.5-26.5 3.1-6.9 6.1-13.6 9.1-20.1 1-2.2 2-4.3 3-6.4 2-4.2 3.9-8.3 5.8-12.3 1.8-3.7 3.5-7.3 5.2-10.9.6-1.2 1.2-2.4 1.7-3.5l.3-.6-1.9.2-1.5-2.9c-.1.3-.3.6-.4.9-2.7 5.3-5.4 10.7-8 16.2-1.5 3.1-3 6.3-4.6 9.5-4.2 8.8-8.3 17.6-12.3 26.6-4.1 9-8.1 18.1-12 27.1-3.9 8.9-7.6 17.8-11.3 26.7-3.7 8.9-7.3 17.7-10.8 26.5-3.7 9.2-7.3 18.3-10.7 27.3-.8 2-1.6 4.1-2.3 6.1-2.8 7.3-5.5 14.4-8.1 21.5l2.4 4.7 2.1-.2c.1-.2.2-.4.2-.6 3.1-9.5 6.5-18.6 9.8-27.4z"/><path fill="none" d="M220.7 236.9z"/><path fill="#be202e" d="M215.6 262.2c-2 .4-4 .7-6 1 1-.1 2.1-.3 3.1-.5 1-.1 2-.3 2.9-.5z"/><path fill="#be202e" d="M215.6 262.2c-2 .4-4 .7-6 1 1-.1 2.1-.3 3.1-.5 1-.1 2-.3 2.9-.5z" opacity=".35"/><path fill="#be202e" d="M220.8 236.9c-.1 0-.1 0 0 0 .3 0 .6-.1.9-.1 1.3-.2 2.6-.4 3.8-.7-1.5.3-3.1.5-4.7.8z"/><path fill="#be202e" d="M220.8 236.9c-.1 0-.1 0 0 0 .3 0 .6-.1.9-.1 1.3-.2 2.6-.4 3.8-.7-1.5.3-3.1.5-4.7.8z" opacity=".35"/><linearGradient x1="-8268.639" x2="-7728.958" y1="-813.123" y2="-813.123" gradientTransform="rotate(-65.001 -3054.253 -6609.844)" gradientUnits="userSpaceOnUse"><stop offset=".323" stop-color="#9e2064" stop-opacity="1"/><stop offset=".63" stop-color="#c92037" stop-opacity="1"/><stop offset=".751" stop-color="#cd2335" stop-opacity="1"/><stop offset="1" stop-color="#e97826" stop-opacity="1"/></linearGradient><path fill="url(#l)" d="M198.2 162.4c4.7-8.7 9.4-17.2 14.1-25.5 4.9-8.6 9.9-16.9 15-25 .3-.5.6-1 .9-1.4 5-7.9 10-15.5 15.1-22.8L228 58.9c-1.1 1.4-2.3 2.8-3.5 4.3-4.4 5.5-9 11.4-13.7 17.7-5.3 7.1-10.7 14.6-16.3 22.5-5.1 7.3-10.3 15-15.5 22.9-4.4 6.8-8.8 13.7-13.2 20.8-.2.3-.3.5-.5.8l19.9 39.3c4.4-8.3 8.7-16.6 13-24.8z"/><linearGradient x1="-8203.492" x2="-7881.895" y1="-758.994" y2="-758.994" gradientTransform="rotate(-65.001 -3054.253 -6609.844)" gradientUnits="userSpaceOnUse"><stop offset="0" stop-color="#282662" stop-opacity="1"/><stop offset=".095" stop-color="#662e8d" stop-opacity="1"/><stop offset=".788" stop-color="#9f2064" stop-opacity="1"/><stop offset=".949" stop-color="#cd2032" stop-opacity="1"/></linearGradient><path fill="url(#m)" d="M107.5 384.1c-2.6 7.2-5.3 14.6-7.9 22.2 0 .1-.1.2-.1.3-.4 1.1-.8 2.1-1.1 3.2-1.8 5.1-3.3 9.7-6.9 20.1 5.9 2.7 10.6 9.7 15 17.7-.5-8.3-3.9-16.1-10.4-22.1 28.9 1.3 53.9-6 66.7-27.2 1.1-1.9 2.2-3.9 3.2-6-5.9 7.4-13.1 10.6-26.8 9.8h-.1.1c20.1-9 30.2-17.7 39.1-32 2.1-3.4 4.2-7.1 6.3-11.2-17.6 18.1-38 23.2-59.5 19.3L109 380c-.5 1.4-1 2.7-1.5 4.1z"/><linearGradient x1="-8238.328" x2="-7698.647" y1="-818.152" y2="-818.152" gradientTransform="rotate(-65.001 -3054.253 -6609.844)" gradientUnits="userSpaceOnUse"><stop offset=".323" stop-color="#9e2064" stop-opacity="1"/><stop offset=".63" stop-color="#c92037" stop-opacity="1"/><stop offset=".751" stop-color="#cd2335" stop-opacity="1"/><stop offset="1" stop-color="#e97826" stop-opacity="1"/></linearGradient><path fill="url(#n)" d="M115 348c3.5-9 7.1-18.1 10.7-27.3 3.5-8.8 7.1-17.6 10.8-26.5 3.7-8.9 7.5-17.8 11.3-26.7 3.9-9.1 7.9-18.1 12-27.1 4-8.9 8.2-17.8 12.3-26.6 1.5-3.2 3-6.3 4.6-9.5 2.6-5.4 5.3-10.8 8-16.2.1-.3.3-.6.4-.9L165.4 148c-.3.5-.6 1.1-1 1.6-4.6 7.6-9.3 15.3-13.8 23.2-4.6 8-9.1 16.1-13.5 24.4-3.7 7-7.3 14-10.9 21.1-.7 1.4-1.4 2.9-2.1 4.3-4.3 8.9-8.3 17.6-11.8 25.9-4 9.4-7.5 18.4-10.6 26.9-2 5.6-3.9 11-5.6 16.2-1.4 4.4-2.7 8.9-4 13.3-3 10.4-5.5 20.8-7.6 31.2l20 39.5c2.6-7.1 5.4-14.2 8.1-21.5.8-2 1.6-4 2.4-6.1z"/><linearGradient x1="-8198.968" x2="-7915.35" y1="-810.851" y2="-810.851" gradientTransform="rotate(-65.001 -3054.253 -6609.844)" gradientUnits="userSpaceOnUse"><stop offset="0" stop-color="#282662" stop-opacity="1"/><stop offset=".095" stop-color="#662e8d" stop-opacity="1"/><stop offset=".788" stop-color="#9f2064" stop-opacity="1"/><stop offset=".949" stop-color="#cd2032" stop-opacity="1"/></linearGradient><path fill="url(#o)" d="M84.2 337.5c-2.5 12.6-4.3 25.2-5.2 37.8 0 .4-.1.9-.1 1.3-6.2-10-23-19.8-22.9-19.7 12 17.4 21.1 34.6 22.4 51.5-6.4 1.3-15.2-.6-25.3-4.3 10.6 9.7 18.5 12.4 21.6 13.1-9.7.6-19.8 7.3-30 15 14.9-6.1 27-8.5 35.6-6.5-13.7 38.7-27.4 81.5-41.1 126.9 4.2-1.2 6.7-4.1 8.1-7.9 2.4-8.2 18.7-62.2 44.1-133.1.7-2 1.5-4 2.2-6.1.2-.6.4-1.1.6-1.7 2.7-7.4 5.5-15 8.4-22.8.7-1.8 1.3-3.5 2-5.3v-.1l-20-39.5c-.2.5-.3.9-.4 1.4z"/><linearGradient x1="-8238.328" x2="-7698.647" y1="-762.297" y2="-762.297" gradientTransform="rotate(-65.001 -3054.253 -6609.844)" gradientUnits="userSpaceOnUse"><stop offset=".323" stop-color="#9e2064" stop-opacity="1"/><stop offset=".63" stop-color="#c92037" stop-opacity="1"/><stop offset=".751" stop-color="#cd2335" stop-opacity="1"/><stop offset="1" stop-color="#e97826" stop-opacity="1"/></linearGradient><path fill="url(#p)" d="M188.4 190.6c-.6 1.2-1.1 2.3-1.7 3.5-1.7 3.6-3.5 7.2-5.2 10.9-1.9 4-3.8 8.1-5.8 12.3-1 2.1-2 4.2-3 6.4-3 6.5-6 13.2-9.1 20.1-3.8 8.5-7.6 17.3-11.5 26.5-3.7 8.7-7.5 17.8-11.3 27.1-3.6 8.9-7.3 18-11 27.5-3.3 8.4-6.6 17.1-10 26-.2.4-.3.9-.5 1.3-3.3 8.8-6.7 17.9-10.1 27.2-.1.2-.2.4-.2.6l16.1-1.8c-.3-.1-.6-.1-1-.2 19.3-2.4 44.9-16.8 61.4-34.6 7.6-8.2 14.5-17.8 20.9-29.1 4.8-8.4 9.2-17.7 13.5-28.1 3.7-9 7.3-18.8 10.7-29.4-4.4 2.3-9.5 4-15.1 5.2l-3 .6c-1 .2-2 .3-3.1.5 18-6.9 29.3-20.2 37.5-36.6-4.7 3.2-12.4 7.4-21.6 9.5-1.2.3-2.5.5-3.8.7-.3 0-.6.1-1 .1 6.2-2.6 11.5-5.5 16.1-9 1-.7 1.9-1.5 2.8-2.3 1.4-1.2 2.7-2.5 4-3.8.8-.9 1.6-1.7 2.4-2.6 1.8-2.1 3.5-4.4 5-6.9.5-.8 1-1.5 1.4-2.3.6-1.2 1.2-2.3 1.7-3.4 2.5-5 4.5-9.5 6.1-13.5.8-2 1.5-3.8 2.1-5.5.2-.7.5-1.3.7-2 .6-1.9 1.2-3.6 1.6-5.1.6-2.2 1-4 1.2-5.3-.6.5-1.3 1-2.1 1.4-5.4 3.2-14.7 6.2-22.2 7.6l14.8-1.6-14.8 1.6c-.1 0-.2 0-.3.1-.7.1-1.5.2-2.3.4.1-.1.3-.1.4-.2l-50.6 5.5c.1.4 0 .6-.1.7z"/><linearGradient x1="-8271.806" x2="-7732.125" y1="-765.071" y2="-765.071" gradientTransform="rotate(-65.001 -3054.253 -6609.844)" gradientUnits="userSpaceOnUse"><stop offset=".323" stop-color="#9e2064" stop-opacity="1"/><stop offset=".63" stop-color="#c92037" stop-opacity="1"/><stop offset=".751" stop-color="#cd2335" stop-opacity="1"/><stop offset="1" stop-color="#e97826" stop-opacity="1"/></linearGradient><path fill="url(#q)" d="M245.4 88.4c-4.5 6.9-9.4 14.8-14.7 23.6-.3.5-.6.9-.8 1.4-4.6 7.7-9.4 16.1-14.5 25.4-4.4 8-9 16.5-13.8 25.8-4.2 8-8.4 16.5-12.9 25.5l50.6-5.5c14.7-6.8 21.3-12.9 27.7-21.8 1.7-2.4 3.4-5 5.1-7.7 5.2-8.1 10.3-17 14.8-25.9 4.4-8.6 8.3-17.1 11.2-24.7 1.9-4.9 3.4-9.4 4.5-13.4.9-3.5 1.6-6.8 2.2-10-19.6 3.3-43.7 6.5-59.4 7.3z"/><path fill="#be202e" d="M212.7 262.8c-1 .2-2 .3-3.1.5 1-.2 2-.4 3.1-.5z"/><path fill="#be202e" d="M212.7 262.8c-1 .2-2 .3-3.1.5 1-.2 2-.4 3.1-.5z" opacity=".35"/><linearGradient x1="-8238.328" x2="-7698.647" y1="-745.685" y2="-745.685" gradientTransform="rotate(-65.001 -3054.253 -6609.844)" gradientUnits="userSpaceOnUse"><stop offset=".323" stop-color="#9e2064" stop-opacity="1"/><stop offset=".63" stop-color="#c92037" stop-opacity="1"/><stop offset=".751" stop-color="#cd2335" stop-opacity="1"/><stop offset="1" stop-color="#e97826" stop-opacity="1"/></linearGradient><path fill="url(#r)" d="M212.7 262.8c-1 .2-2 .3-3.1.5 1-.2 2-.4 3.1-.5z"/><path fill="#be202e" d="M220.7 236.9c.3 0 .6-.1 1-.1-.3 0-.6.1-1 .1z"/><path fill="#be202e" d="M220.7 236.9c.3 0 .6-.1 1-.1-.3 0-.6.1-1 .1z" opacity=".35"/><linearGradient x1="-8238.328" x2="-7698.647" y1="-747.586" y2="-747.586" gradientTransform="rotate(-65.001 -3054.253 -6609.844)" gradientUnits="userSpaceOnUse"><stop offset=".323" stop-color="#9e2064" stop-opacity="1"/><stop offset=".63" stop-color="#c92037" stop-opacity="1"/><stop offset=".751" stop-color="#cd2335" stop-opacity="1"/><stop offset="1" stop-color="#e97826" stop-opacity="1"/></linearGradient><path fill="url(#s)" d="M220.7 236.9c.3 0 .6-.1 1-.1-.3 0-.6.1-1 .1z"/><path fill="#be202e" d="M220.8 236.9z"/><path fill="#be202e" d="M220.8 236.9z" opacity=".35"/><linearGradient x1="-7935.143" x2="-7815.856" y1="-747.967" y2="-747.967" gradientTransform="rotate(-65.001 -3054.253 -6609.844)" gradientUnits="userSpaceOnUse"><stop offset=".323" stop-color="#9e2064" stop-opacity="1"/><stop offset=".63" stop-color="#c92037" stop-opacity="1"/><stop offset=".751" stop-color="#cd2335" stop-opacity="1"/><stop offset="1" stop-color="#e97826" stop-opacity="1"/></linearGradient><path fill="url(#t)" d="M220.8 236.9z"/></g><g fill="#000" fill-opacity="1" stroke="none"><path d="M23.5414 2.71665h16.3q1.7 0 2.4.7.6.5.7 1.5.1.9.3 1.8.2 1.6.4 3.3.3 1.6.5 3.3 1.1 6.3 1.8 12.8.8 6.5 1.9 12.9.4 2 .6 4.1.2 2.1.6 4.1l.2 1q.1.5.5.8.2.1.3.2.2.1.5-.1.8-.2 1.3-1.2t1-1.8q1.2-2.3 2.3-4.5 1.1-2.3 2.4-4.6l6.4-12.2q3.3-6.2 6.5-12.4.8-1.6 1.6-3.1.9-1.6 1.7-3.2.4-.8.9-1.6t1.4-1.3q.7-.5 1.6-.5h17.2q1 0 1.4.4 1 .6.6 2.3-.3 1.6-.6 3.3l-3 15-7.5 37.2-1.7 8.7q-.2 1.1-.5 2.2-.3 1-1 1.5t-1.6.6h-9.5q-.7-.2-1.3-.3-.5-.1-.8-.7-.3-.5-.2-1.3.2-.8.4-1.7l1-5.1 5.2-25.7q.2-1.4.4-2.6.3-1.3.5-2.6l.4-1.6q.2-.9.2-1.7-.1-.7 0-1.5.2-.8-.3-1-.3-.1-.5.1l-.3.3q-.5.4-.9 1l-.6 1q-.9 1.5-1.8 3.1-.8 1.6-1.8 3.2l-.6 1.2q-.2.6-.6 1.2-.8 1.3-1.5 2.6-.6 1.3-1.4 2.6-.2.3-.3.7-.1.3-.3.6-.6.9-1.1 1.9-.4 1-1.1 2-.6.9-1.1 1.9-.4 1-1 2-1.8 2.9-3.3 5.9-1.5 2.9-3.1 5.8-.3.3-.4.6 0 .3-.3.6-.7 1.1-1.3 2.3-.5 1.1-1.2 2.2-.4.7-.8 1.3-.4.6-.9 1-.6.4-1.1.5-.5 0-1.3.2h-2.3q-.7 0-1.7.1h-1.9q-.9 0-1.7-.1-.8-.1-1.1-.4-.7-.5-.9-1.1-.1-.7-.4-1.6-.2-1.2-.3-2.4-.1-1.3-.4-2.5l-.1-.9q-.3-1.2-.4-2.5-.1-1.4-.4-2.6v-.5q0-.3-.1-.6-.3-.9-.4-1.9-.1-1-.3-2v-.5q0-.3-.1-.5-.2-1-.3-2 0-1-.3-2-.4-2-.7-4.2-.2-2.2-.6-4.3-.4-2.5-.7-5.1-.2-2.6-.9-5-.2-1.4-.6-2.3-.2-.2-.4-.3-.1-.2-.4 0-.6.3-.8 1-.1.7-.4 1.4-.4.7-.5 1.5-.1.7-.2 1.5-.2 1.1-.5 2.2-.2 1.1-.5 2.2l-5.3 26.6-1 4.9-.4 1.6q-.1.8-.6 1.3-.5.7-1.7.9-.7.2-1.5.2-.8-.1-1.6-.1h-7.2q-.9-.1-1.4-.6-.5-.5-.4-1.5l.4-2.2 1.7-8.8 7.5-37.2 2.8-14q.1-.6.2-1.4.2-.9.4-1.7.2-.8.4-1.5.3-.8.5-1.2.6-.7 1.8-1 .3-.1.4 0 .2 0 .5-.1z"/><path d="M143.06641 70.01665q0 1.1-.2 2.2t-1.3 1.5q-.7.3-1.5.3h-8.8q-.8-.1-1.2-.5-.6-.4-.8-1.1-.2-.8-.7-1.3-.2-.2-.5-.3-.2-.2-.7-.1-.6.2-1.1.5-.5.3-1 .5-.6.4-1.3.7-.6.3-1.3.6-1.4.6-2.9 1-1.5.3-3 .7-.8.2-1.5.2-.6.1-1.3.2h-.6q-.3.1-.6.1h-1.1q-1.1.2-2 0h-.9q-.7-.2-1.4-.2-.6.1-1.2-.1l-1.8-.4q-.9-.1-1.6-.5-2.7-1.1-4.4-2.8-1.7-1.8-2.3-4.7-.2-.7-.3-1.5 0-.8-.1-1.7-.1-.5 0-1 .2-.5.2-1 0-.3.1-1.2.2-1 .4-1.4.4-1 .5-1.7l1-2.2q.6-1.2 1.3-2.1 2.2-2.9 4.7-4.4 2.5-1.5 6.2-2.6 1.4-.5 2.8-.7 1.4-.2 2.9-.5.8-.2 1.7-.2 1-.1 1.9-.3.7-.2 1.4-.1.7 0 1.6-.2.7-.2 1.4-.2t1.5-.2q2.2-.5 4-.8 1.9-.4 3.6-1.8 1-.9 1.6-2 .1-.3.1-.5t.1-.4q.2-.2.2-.6.1-.4.2-.6v-.8-.7q-.4-3-3.4-4.1-.8-.3-2.1-.4-1.2-.2-2.5-.1-1.3 0-2.6.2-1.2.2-2.1.5-.7.2-1.3.6-.6.3-1.2.7-.6.4-1.3 1.1-.7.7-1 1.3-.7 1-1.2 1.9-.5.9-1.7 1.2-.8.2-1.7.2h-5.6q-.5 0-1.1.1-.5 0-.8-.1h-.9q-.2-.1-.5-.1t-.5-.2q-.7-.2-.8-1.3 0-.5.2-1t.4-.9q.5-1.1 1-2 .6-1 1.2-1.8l.8-1 .8-1q1-1.1 2.4-2.1.3-.1.7-.5.6-.4 1-.7.5-.3 1.1-.6 1.9-1.1 3.9-1.7 2.1-.7 4.2-1.3 1.3-.3 2.6-.4 1.3-.1 2.7-.4.4-.1 1.2 0 .8.1 1.1-.1 4.1-.1 7.7.3 3.7.4 6.5 1.5 2.9 1.1 4.7 3 1.9 1.8 2.5 4.7.3 1.7 0 3.9t-.8 4.5l-4.5 22.3q-.3 1.9-.7 3.9-.4 1.9-.3 3.5 0 .3-.1.7v.6zm-11.6-15.4q.2-.5.3-1.1.1-.7.1-1.2 0-.6.1-1.1.1-.5-.3-.8-.4-.4-1.4-.4-.4.1-.7.2-.3 0-.8.1-.7.2-1.5.3-.8.1-1.7.3-.3.1-.9.1-1.4.3-2.7.4-1.3.1-2.6.5l-1.6.4q-.7.1-1.4.4-2.3.9-4.1 2.7-1.8 1.8-2.1 5-.1 1.7.6 2.8.4 1.1 1.7 1.8 1.3.6 2.9.9 1.6.3 3.4.2 1.9-.2 3.6-.7 2.8-.8 4.6-2.5 1.9-1.8 3.2-4.4.3-.7.5-1.4.2-.8.6-1.6l.2-.9z"/><path fill="none" stroke="none" d="M161.28828 22.41665h7.3q1.1 0 2.1.1 1 0 1.6.4 1 .7 1 2.6.1 1.8.4 3.2.4 3.3.7 6.8.3 3.4.7 6.8.4 2.4.6 4.9.2 2.5.6 4.8.1.9.2 1.9.2 1 1.3 1 .3-.2.4-.2l.3-.3q.4-.5.7-1 .3-.5.6-1.1.8-1.1 1.2-2.3.5-1.2 1.2-2.3 2.2-4.2 4.3-8.4 2.1-4.3 4.3-8.5.8-1.2 1.3-2.4.6-1.3 1.2-2.4l.8-1.6q.5-.8 1.2-1.3.3-.2 1.4-.6.6-.2 1.3-.1h6.2q1.1 0 2 .1 1 0 1.4.5.5.5.1 1.5-.3.9-.6 1.5-.8 1.4-1.6 3-.8 1.5-1.6 2.9-.4.7-.7 1.4l-.6 1.2q-.7 1.1-1.3 2.2l-1.2 2.2q-.1.3-.3.7-.1.3-.3.6-.9 1.5-1.7 3.1l-1.6 3q-1.7 3-3.3 6.2-1.6 3.1-3.4 6.1-.8 1.4-1.5 2.8-.6 1.3-1.4 2.7-.3.5-.5.9-.2.3-.5.8-.6 1.1-1.2 2.3-.5 1.1-1.2 2.2t-1.3 2.1q-.6.9-1.7 1.3-.9.3-1.8.3-.9-.1-1.8-.1h-8.7q-1 0-1.7-.4-.6-.5-.8-1.2-.1-.8-.2-1.7-.3-1.2-.5-2.5-.1-1.3-.3-2.5-.1-.4-.1-.7 0-.4-.1-.9-.3-1.2-.4-2.5-.1-1.3-.4-2.6-.1-.5-.1-.9 0-.5-.1-1-.2-.9-.3-1.8-.1-1-.3-1.9-.1-.3-.1-.6.1-.4 0-.7-.2-.9-.3-1.8-.1-.9-.3-1.9-.4-2.3-.7-4.7-.3-2.5-.6-4.9-.6-2.7-.9-5.4-.2-2.8-.7-5.5l-.3-2.7q-.1-.3-.1-.7.1-.5.4-.9.4-.7 1.6-1 .5 0 .7-.1z"/><path d="M259.04141 47.71665q0 .8-.4 1.8t-1 1.3q-.5.4-1.5.6-1 .1-2.2.2h-2.3q-1.1-.1-2-.1H223.84141q-.6 0-1.1.2-.9.4-1.2.8-.2.2-.6.8-.3.5-.3 1 .1.6 0 1.2 0 .5.1 1.1.3 2.4 1.1 4 .9 1.5 2.6 2.7.7.5 1.5.7.9.1 1.7.4.8.2 2.1.3 1.4.1 2.5-.1h.9q1-.2 1.9-.4l1.8-.6q1.1-.5 2.5-1.3t2.2-1.6q.6-.7 1.3-1.3.7-.7 1.5-1 1.1-.5 2.6-.4h4.1q.7-.1 1.2.1h1q.9.2 1.3.5.3.2.2.9 0 .7-.3 1.2-.8 1.4-1.7 2.5-.8 1.1-1.8 2.2-2.8 3.3-6 5.3t-7.7 3.4q-1.2.4-2.3.5-1.1.1-2.4.4-.4.1-.9 0-.4 0-.8.1h-1.1q-.6.2-1.2.1-.6 0-1.1-.1-.8-.1-1.4 0-.6.1-1.3-.1-.5-.2-1.1-.2-.6 0-1-.2-1.1-.2-2.2-.5-1-.2-1.8-.7-1-.4-1.9-.7-.9-.4-1.6-.9-2.8-2-4.8-4.6-1.9-2.7-2.8-6.2-.3-1.1-.4-2.2 0-1.2-.3-2.4v-.7q.1-.4.1-.8-.1-1.2 0-2.6l.4-2.8q.1-.5.1-1.1.1-.6.3-1.1l.3-1.2.8-2.4q.7-1.7 1.3-3.3.6-1.6 1.5-3 6.4-10.4 17.6-14.7 1.5-.6 3-.8 1.5-.3 3.2-.7.8-.1 1.5-.1t1.5-.1q5.1-.1 8.5 1.2 3.4 1.2 5.9 3.2.8.6 1.5 1.4.8.7 1.3 1.5.2.5.7.8.6 1.1 1 2.3.5 1.1 1.1 2.3.3.9.4 1.9.2.9.4 2 .2 1.3.2 2.7l.2 2.8q0 .8-.3 1.8-.2.9-.1 1.7l-.2 1.1zm-13.9-5.9q.9-1 .6-2.4-.2-1.5-.3-2.2-.9-2.7-2.9-4.1-2-1.5-6.1-1.6-.3.2-.7.1-.4-.1-.7 0-.6.2-1.2.3-.6 0-1.1.2-4.7 1.4-7.6 5.5-.3.4-.7 1.1-.4.6-.6 1.3-.2.6-.2 1.2t.5 1q.7.5 2.1.5h16.7q1.6-.1 2.2-.9z"/><path d="M302.16328 21.11665q6-.2 9.6 1.7 3.7 1.9 5.2 5.6.5 1.1.6 2.4.2 1.2.3 2.5.1.8 0 1.5t0 1.4q-.2.6-.1.8-.1 1.4-.4 2.9-.3 1.5-.6 2.9l-1.7 8.9-3.3 16.2q-.4 1.9-.8 3.7-.4 1.7-1.9 2.2-.6.2-1.4.2h-7q-1.2 0-2.1-.1-.9-.2-1.3-.9-.3-.6-.2-1.5.2-1 .4-2.1l1.4-7 3-14.9q.7-3.7 1-6.8.4-3.2-.7-5.4-1-2-3.5-2.8-.5-.2-1.1-.2-.5 0-1-.2-.5-.1-1.3 0-.7 0-1.1.1-.5.1-.8.1-.3 0-.6.1-2.4.6-4 1.6-3.7 2.3-5.2 6.7-1.4 4.4-2.5 9.9l-2.5 12.5-1.2 6.1-.4 1.8q-.2.9-.6 1.5-.7 1.1-1.9 1.3-1.1.2-2.7.2h-5q-1.1 0-2.2-.1t-1.4-.7q-.6-.9-.2-2.6.4-1.7.7-3.2l2.7-13.6 4.4-22 1.1-5.1q.2-1.1.4-2 .2-.9.9-1.5.2-.3.7-.4.5-.2 1-.3h.5q.5-.1 1-.1H281.66328q.8 0 1.5.1.8 0 1.4.2.6.3.7.9.2.6.2 1.4 0 .4-.1.7-.1.3 0 .6.1.5.2.6.2.1.5.3 1 .1 1.9-.7.9-.9 1.8-1.4 3.1-2 6.6-3.2 1-.3 1.9-.4 1-.1 2.2-.3.3-.1.9 0 .6 0 .8-.1z"/></g><path d="M326.92482 21.03805q.1.08.1.34t-.1.48l-.02.16q-.08.18-.18.3-.08.1-.26.16-.18.04-.5.04-.32-.02-.54-.02h-.3q-.1.04-.18.02-.08-.02-.16.02-.22.08-.38.38-.06.1-.08.24l-.04.28-.96 4.72q-.02.1-.02.18 0 .08-.04.16l-.04.16-.04.12q0 .06-.06.1-.08.16-.26.22-.1.04-.24.04h-.9q-.34 0-.46-.16-.06-.12-.04-.28.04-.16.08-.36l.94-4.72.04-.2q.04-.1.02-.18l.04-.28q.02-.32-.2-.4-.18-.1-.54-.08-.34.02-.6.02-.1 0-.2.02-.08 0-.14-.02-.08-.04-.14-.02-.06 0-.12-.02-.2-.1-.18-.32.02-.22.08-.52.02-.12.04-.22.04-.1.1-.2.06-.1.16-.14.1-.06.2-.1.06-.02.08 0 .04 0 .1-.02h5.34q.18 0 .34.02.16 0 .26.08zm10.64.04q.08.14.04.32-.02.18-.06.4l-1.3 6.5q-.04.22-.1.4-.04.16-.14.28-.14.16-.44.16h-.56q-.12 0-.26.02-.12 0-.2-.04-.18-.06-.22-.18-.02-.12-.02-.3l.06-.34q0-.06.02-.14.02-.1.04-.18l.52-2.54.08-.48q.06-.24.06-.44-.02-.1-.02-.16 0-.08-.06-.12-.02-.02-.06-.02-.06.04-.14.08-.2.24-.36.54-.16.3-.34.58-.36.62-.7 1.26-.34.62-.7 1.22-.16.28-.34.64-.18.34-.42.5-.12.08-.28.1h-.64q-.1-.04-.18-.06-.08-.04-.14-.1-.06-.06-.08-.16l-.04-.2q-.06-.18-.08-.36-.02-.2-.06-.4-.12-.58-.2-1.18-.08-.62-.2-1.2l-.12-.68q-.04-.34-.22-.58-.04 0-.06.02h-.04q-.1.08-.14.18-.06.1-.08.2 0 .08-.04.18l-.06.34q-.04.08-.06.16-.02.08-.02.14l-.48 2.32q-.04.26-.12.64-.06.36-.18.52-.06.04-.12.1-.04.04-.1.06-.1.04-.24.06h-.8q-.26 0-.4-.12-.1-.08-.1-.26.02-.18.06-.4l1.32-6.6q.04-.18.08-.34.06-.18.14-.28.1-.14.32-.18.06-.02.08 0 .04 0 .1-.02h1.74q.2 0 .3.1.16.12.18.38.04.26.1.48.1.56.2 1.14.1.56.2 1.14.08.3.12.62.06.32.12.62.04.12.06.26.04.12.16.16.1.04.18-.04.1-.08.14-.14.2-.22.32-.46.14-.26.28-.5.42-.66.78-1.34.38-.7.8-1.36.16-.28.32-.58.18-.32.48-.44.14-.04.28-.04h1.44q.12-.02.22 0h.1q.08.04.16.06.1.02.12.08z" fill="#000" fill-opacity="1" stroke="none"/><g transform="rotate(8.347 -1.03 1172.468) scale(.13415)"><linearGradient id="a" x1="-7708.797" x2="-7633.153" y1="-803.36" y2="-714.907" gradientTransform="rotate(-65.001 -3054.253 -6609.844)" gradientUnits="userSpaceOnUse"><stop offset="0" stop-color="#f69923" stop-opacity="1"/><stop offset=".312" stop-color="#f79a23" stop-opacity="1"/><stop offset=".838" stop-color="#e97826" stop-opacity="1"/></linearGradient><path fill="url(#u)" d="M267.1 19.6c-8.4 5-22.4 19-39 39.3l15.3 28.9c10.7-15.4 21.7-29.2 32.7-41 .8-.9 1.3-1.4 1.3-1.4-.4.5-.9.9-1.3 1.4-3.6 3.9-14.4 16.5-30.7 41.6 15.7-.8 39.8-4 59.5-7.4 5.9-32.8-5.7-47.8-5.7-47.8s-14.8-23.9-32.1-13.6z"/><path fill="none" d="M241.1 184.4c.1 0 .2 0 .3-.1l-2.2.2c-.1.1-.3.1-.4.2.8-.1 1.6-.2 2.3-.3z"/><path fill="none" d="M225.5 236.1c-1.2.3-2.5.5-3.8.7 1.3-.2 2.6-.4 3.8-.7z"/><path fill="none" d="M119.3 352.2c.2-.4.3-.9.5-1.3 3.4-8.9 6.7-17.5 10-26 3.7-9.4 7.4-18.6 11-27.5 3.8-9.3 7.6-18.4 11.3-27.1 3.9-9.2 7.7-18 11.5-26.5 3.1-6.9 6.1-13.6 9.1-20.1 1-2.2 2-4.3 3-6.4 2-4.2 3.9-8.3 5.8-12.3 1.8-3.7 3.5-7.3 5.2-10.9.6-1.2 1.2-2.4 1.7-3.5l.3-.6-1.9.2-1.5-2.9c-.1.3-.3.6-.4.9-2.7 5.3-5.4 10.7-8 16.2-1.5 3.1-3 6.3-4.6 9.5-4.2 8.8-8.3 17.6-12.3 26.6-4.1 9-8.1 18.1-12 27.1-3.9 8.9-7.6 17.8-11.3 26.7-3.7 8.9-7.3 17.7-10.8 26.5-3.7 9.2-7.3 18.3-10.7 27.3-.8 2-1.6 4.1-2.3 6.1-2.8 7.3-5.5 14.4-8.1 21.5l2.4 4.7 2.1-.2c.1-.2.2-.4.2-.6 3.1-9.5 6.5-18.6 9.8-27.4z"/><path fill="none" d="M220.7 236.9z"/><path fill="#be202e" d="M215.6 262.2c-2 .4-4 .7-6 1 1-.1 2.1-.3 3.1-.5 1-.1 2-.3 2.9-.5z"/><path fill="#be202e" d="M215.6 262.2c-2 .4-4 .7-6 1 1-.1 2.1-.3 3.1-.5 1-.1 2-.3 2.9-.5z" opacity=".35"/><path fill="#be202e" d="M220.8 236.9c-.1 0-.1 0 0 0 .3 0 .6-.1.9-.1 1.3-.2 2.6-.4 3.8-.7-1.5.3-3.1.5-4.7.8z"/><path fill="#be202e" d="M220.8 236.9c-.1 0-.1 0 0 0 .3 0 .6-.1.9-.1 1.3-.2 2.6-.4 3.8-.7-1.5.3-3.1.5-4.7.8z" opacity=".35"/><linearGradient id="b" x1="-8268.639" x2="-7728.958" y1="-813.123" y2="-813.123" gradientTransform="rotate(-65.001 -3054.253 -6609.844)" gradientUnits="userSpaceOnUse"><stop offset=".323" stop-color="#9e2064" stop-opacity="1"/><stop offset=".63" stop-color="#c92037" stop-opacity="1"/><stop offset=".751" stop-color="#cd2335" stop-opacity="1"/><stop offset="1" stop-color="#e97826" stop-opacity="1"/></linearGradient><path fill="url(#v)" d="M198.2 162.4c4.7-8.7 9.4-17.2 14.1-25.5 4.9-8.6 9.9-16.9 15-25 .3-.5.6-1 .9-1.4 5-7.9 10-15.5 15.1-22.8L228 58.9c-1.1 1.4-2.3 2.8-3.5 4.3-4.4 5.5-9 11.4-13.7 17.7-5.3 7.1-10.7 14.6-16.3 22.5-5.1 7.3-10.3 15-15.5 22.9-4.4 6.8-8.8 13.7-13.2 20.8-.2.3-.3.5-.5.8l19.9 39.3c4.4-8.3 8.7-16.6 13-24.8z"/><linearGradient id="c" x1="-8203.492" x2="-7881.895" y1="-758.994" y2="-758.994" gradientTransform="rotate(-65.001 -3054.253 -6609.844)" gradientUnits="userSpaceOnUse"><stop offset="0" stop-color="#282662" stop-opacity="1"/><stop offset=".095" stop-color="#662e8d" stop-opacity="1"/><stop offset=".788" stop-color="#9f2064" stop-opacity="1"/><stop offset=".949" stop-color="#cd2032" stop-opacity="1"/></linearGradient><path fill="url(#w)" d="M107.5 384.1c-2.6 7.2-5.3 14.6-7.9 22.2 0 .1-.1.2-.1.3-.4 1.1-.8 2.1-1.1 3.2-1.8 5.1-3.3 9.7-6.9 20.1 5.9 2.7 10.6 9.7 15 17.7-.5-8.3-3.9-16.1-10.4-22.1 28.9 1.3 53.9-6 66.7-27.2 1.1-1.9 2.2-3.9 3.2-6-5.9 7.4-13.1 10.6-26.8 9.8h-.1.1c20.1-9 30.2-17.7 39.1-32 2.1-3.4 4.2-7.1 6.3-11.2-17.6 18.1-38 23.2-59.5 19.3L109 380c-.5 1.4-1 2.7-1.5 4.1z"/><linearGradient id="d" x1="-8238.328" x2="-7698.647" y1="-818.152" y2="-818.152" gradientTransform="rotate(-65.001 -3054.253 -6609.844)" gradientUnits="userSpaceOnUse"><stop offset=".323" stop-color="#9e2064" stop-opacity="1"/><stop offset=".63" stop-color="#c92037" stop-opacity="1"/><stop offset=".751" stop-color="#cd2335" stop-opacity="1"/><stop offset="1" stop-color="#e97826" stop-opacity="1"/></linearGradient><path fill="url(#x)" d="M115 348c3.5-9 7.1-18.1 10.7-27.3 3.5-8.8 7.1-17.6 10.8-26.5 3.7-8.9 7.5-17.8 11.3-26.7 3.9-9.1 7.9-18.1 12-27.1 4-8.9 8.2-17.8 12.3-26.6 1.5-3.2 3-6.3 4.6-9.5 2.6-5.4 5.3-10.8 8-16.2.1-.3.3-.6.4-.9L165.4 148c-.3.5-.6 1.1-1 1.6-4.6 7.6-9.3 15.3-13.8 23.2-4.6 8-9.1 16.1-13.5 24.4-3.7 7-7.3 14-10.9 21.1-.7 1.4-1.4 2.9-2.1 4.3-4.3 8.9-8.3 17.6-11.8 25.9-4 9.4-7.5 18.4-10.6 26.9-2 5.6-3.9 11-5.6 16.2-1.4 4.4-2.7 8.9-4 13.3-3 10.4-5.5 20.8-7.6 31.2l20 39.5c2.6-7.1 5.4-14.2 8.1-21.5.8-2 1.6-4 2.4-6.1z"/><linearGradient id="e" x1="-8198.968" x2="-7915.35" y1="-810.851" y2="-810.851" gradientTransform="rotate(-65.001 -3054.253 -6609.844)" gradientUnits="userSpaceOnUse"><stop offset="0" stop-color="#282662" stop-opacity="1"/><stop offset=".095" stop-color="#662e8d" stop-opacity="1"/><stop offset=".788" stop-color="#9f2064" stop-opacity="1"/><stop offset=".949" stop-color="#cd2032" stop-opacity="1"/></linearGradient><path fill="url(#y)" d="M84.2 337.5c-2.5 12.6-4.3 25.2-5.2 37.8 0 .4-.1.9-.1 1.3-6.2-10-23-19.8-22.9-19.7 12 17.4 21.1 34.6 22.4 51.5-6.4 1.3-15.2-.6-25.3-4.3 10.6 9.7 18.5 12.4 21.6 13.1-9.7.6-19.8 7.3-30 15 14.9-6.1 27-8.5 35.6-6.5-13.7 38.7-27.4 81.5-41.1 126.9 4.2-1.2 6.7-4.1 8.1-7.9 2.4-8.2 18.7-62.2 44.1-133.1.7-2 1.5-4 2.2-6.1.2-.6.4-1.1.6-1.7 2.7-7.4 5.5-15 8.4-22.8.7-1.8 1.3-3.5 2-5.3v-.1l-20-39.5c-.2.5-.3.9-.4 1.4z"/><linearGradient id="f" x1="-8238.328" x2="-7698.647" y1="-762.297" y2="-762.297" gradientTransform="rotate(-65.001 -3054.253 -6609.844)" gradientUnits="userSpaceOnUse"><stop offset=".323" stop-color="#9e2064" stop-opacity="1"/><stop offset=".63" stop-color="#c92037" stop-opacity="1"/><stop offset=".751" stop-color="#cd2335" stop-opacity="1"/><stop offset="1" stop-color="#e97826" stop-opacity="1"/></linearGradient><path fill="url(#z)" d="M188.4 190.6c-.6 1.2-1.1 2.3-1.7 3.5-1.7 3.6-3.5 7.2-5.2 10.9-1.9 4-3.8 8.1-5.8 12.3-1 2.1-2 4.2-3 6.4-3 6.5-6 13.2-9.1 20.1-3.8 8.5-7.6 17.3-11.5 26.5-3.7 8.7-7.5 17.8-11.3 27.1-3.6 8.9-7.3 18-11 27.5-3.3 8.4-6.6 17.1-10 26-.2.4-.3.9-.5 1.3-3.3 8.8-6.7 17.9-10.1 27.2-.1.2-.2.4-.2.6l16.1-1.8c-.3-.1-.6-.1-1-.2 19.3-2.4 44.9-16.8 61.4-34.6 7.6-8.2 14.5-17.8 20.9-29.1 4.8-8.4 9.2-17.7 13.5-28.1 3.7-9 7.3-18.8 10.7-29.4-4.4 2.3-9.5 4-15.1 5.2l-3 .6c-1 .2-2 .3-3.1.5 18-6.9 29.3-20.2 37.5-36.6-4.7 3.2-12.4 7.4-21.6 9.5-1.2.3-2.5.5-3.8.7-.3 0-.6.1-1 .1 6.2-2.6 11.5-5.5 16.1-9 1-.7 1.9-1.5 2.8-2.3 1.4-1.2 2.7-2.5 4-3.8.8-.9 1.6-1.7 2.4-2.6 1.8-2.1 3.5-4.4 5-6.9.5-.8 1-1.5 1.4-2.3.6-1.2 1.2-2.3 1.7-3.4 2.5-5 4.5-9.5 6.1-13.5.8-2 1.5-3.8 2.1-5.5.2-.7.5-1.3.7-2 .6-1.9 1.2-3.6 1.6-5.1.6-2.2 1-4 1.2-5.3-.6.5-1.3 1-2.1 1.4-5.4 3.2-14.7 6.2-22.2 7.6l14.8-1.6-14.8 1.6c-.1 0-.2 0-.3.1-.7.1-1.5.2-2.3.4.1-.1.3-.1.4-.2l-50.6 5.5c.1.4 0 .6-.1.7z"/><linearGradient id="g" x1="-8271.806" x2="-7732.125" y1="-765.071" y2="-765.071" gradientTransform="rotate(-65.001 -3054.253 -6609.844)" gradientUnits="userSpaceOnUse"><stop offset=".323" stop-color="#9e2064" stop-opacity="1"/><stop offset=".63" stop-color="#c92037" stop-opacity="1"/><stop offset=".751" stop-color="#cd2335" stop-opacity="1"/><stop offset="1" stop-color="#e97826" stop-opacity="1"/></linearGradient><path fill="url(#A)" d="M245.4 88.4c-4.5 6.9-9.4 14.8-14.7 23.6-.3.5-.6.9-.8 1.4-4.6 7.7-9.4 16.1-14.5 25.4-4.4 8-9 16.5-13.8 25.8-4.2 8-8.4 16.5-12.9 25.5l50.6-5.5c14.7-6.8 21.3-12.9 27.7-21.8 1.7-2.4 3.4-5 5.1-7.7 5.2-8.1 10.3-17 14.8-25.9 4.4-8.6 8.3-17.1 11.2-24.7 1.9-4.9 3.4-9.4 4.5-13.4.9-3.5 1.6-6.8 2.2-10-19.6 3.3-43.7 6.5-59.4 7.3z"/><path fill="#be202e" d="M212.7 262.8c-1 .2-2 .3-3.1.5 1-.2 2-.4 3.1-.5z"/><path fill="#be202e" d="M212.7 262.8c-1 .2-2 .3-3.1.5 1-.2 2-.4 3.1-.5z" opacity=".35"/><linearGradient id="h" x1="-8238.328" x2="-7698.647" y1="-745.685" y2="-745.685" gradientTransform="rotate(-65.001 -3054.253 -6609.844)" gradientUnits="userSpaceOnUse"><stop offset=".323" stop-color="#9e2064" stop-opacity="1"/><stop offset=".63" stop-color="#c92037" stop-opacity="1"/><stop offset=".751" stop-color="#cd2335" stop-opacity="1"/><stop offset="1" stop-color="#e97826" stop-opacity="1"/></linearGradient><path fill="url(#B)" d="M212.7 262.8c-1 .2-2 .3-3.1.5 1-.2 2-.4 3.1-.5z"/><path fill="#be202e" d="M220.7 236.9c.3 0 .6-.1 1-.1-.3 0-.6.1-1 .1z"/><path fill="#be202e" d="M220.7 236.9c.3 0 .6-.1 1-.1-.3 0-.6.1-1 .1z" opacity=".35"/><linearGradient id="i" x1="-8238.328" x2="-7698.647" y1="-747.586" y2="-747.586" gradientTransform="rotate(-65.001 -3054.253 -6609.844)" gradientUnits="userSpaceOnUse"><stop offset=".323" stop-color="#9e2064" stop-opacity="1"/><stop offset=".63" stop-color="#c92037" stop-opacity="1"/><stop offset=".751" stop-color="#cd2335" stop-opacity="1"/><stop offset="1" stop-color="#e97826" stop-opacity="1"/></linearGradient><path fill="url(#C)" d="M220.7 236.9c.3 0 .6-.1 1-.1-.3 0-.6.1-1 .1z"/><path fill="#be202e" d="M220.8 236.9z"/><path fill="#be202e" d="M220.8 236.9z" opacity=".35"/><linearGradient id="j" x1="-7935.143" x2="-7815.856" y1="-747.967" y2="-747.967" gradientTransform="rotate(-65.001 -3054.253 -6609.844)" gradientUnits="userSpaceOnUse"><stop offset=".323" stop-color="#9e2064" stop-opacity="1"/><stop offset=".63" stop-color="#c92037" stop-opacity="1"/><stop offset=".751" stop-color="#cd2335" stop-opacity="1"/><stop offset="1" stop-color="#e97826" stop-opacity="1"/></linearGradient><path fill="url(#D)" d="M220.8 236.9z"/></g></svg>