<svg xmlns="http://www.w3.org/2000/svg" role="img" viewBox="96.03 -0.22 207.93 245.18"><title>Apple inc. (member) logo</title><style>svg {enable-background:new 0 0 336 235.2}</style><path id="ee-background" fill="#fff" fill-opacity="0" d="M0 0h400v245H0z" pointer-events="none"/><defs><style id="ee-google-fonts">@import url(https://fonts.googleapis.com/css?family=Audiowide:400);</style></defs><path d="M295.22746 188.44683c-3.56548 8.237-7.78585 15.8191-12.67566 22.79-6.66528 9.5031-12.12265 16.08106-16.32847 19.73386-6.51974 5.99584-13.50518 9.06652-20.98542 9.24116-5.37006 0-11.84615-1.52807-19.3846-4.62786-7.5632-3.08523-14.5137-4.6133-20.869-4.6133-6.66528 0-13.81371 1.52807-21.45986 4.6133-7.65778 3.0998-13.8268 4.71517-18.54343 4.87526-7.17317.30561-14.32306-2.8524-21.45985-9.48856-4.5551-3.97297-10.2526-10.78377-17.07795-20.43241-7.32307-10.30352-13.34364-22.25154-18.06027-35.87315-5.05135-14.71308-7.58357-28.96047-7.58357-42.7538 0-15.8002 3.41413-29.42762 10.25259-40.84736 5.37442-9.17276 12.52431-16.4085 21.47295-21.72035s18.61765-8.0187 29.03033-8.19189c5.6975 0 13.169 1.76237 22.45382 5.22599 9.25862 3.47525 15.20352 5.23762 17.80996 5.23762 1.94865 0 8.5528-2.0607 19.74842-6.16902 10.5873-3.80997 19.52285-5.38752 26.84301-4.7661 19.83574 1.60083 34.73801 9.42015 44.6486 23.50746-17.7401 10.74884-26.51556 25.80392-26.34093 45.1172.16009 15.04344 5.61746 27.56193 16.34302 37.50163 4.8607 4.6133 10.28897 8.17879 16.32847 10.71101-1.30977 3.79833-2.6923 7.43658-4.16216 10.9293zM249.73478 9.43037c0 11.79084-4.30769 22.80019-12.89396 32.9902-10.36173 12.11391-22.89477 19.1139-36.48582 18.00934a36.70558 36.70558 0 0 1-.2736-4.46778c0-11.31932 4.92765-23.43324 13.67837-33.338 4.3688-5.01497 9.92514-9.1844 16.66318-12.51122 6.72349-3.27734 13.08315-5.08919 19.06443-5.39917.17464 1.5761.2474 3.15218.2474 4.71518z"/></svg>