<?xml version="1.0" encoding="UTF-8"?> <!-- Generator: Adobe Illustrator 23.0.1, SVG Export Plug-In . SVG Version: 6.00 Build 0) --> <svg xmlns="http://www.w3.org/2000/svg" xmlns:xlink="http://www.w3.org/1999/xlink" id="Layer_1" x="0px" y="0px" viewBox="0 0 400 245" style="enable-background:new 0 0 400 245;" xml:space="preserve"> <style type="text/css"> .st0{fill-rule:evenodd;clip-rule:evenodd;fill:#4A514F;} .st1{fill-rule:evenodd;clip-rule:evenodd;fill:#FFFFFF;} .st2{fill-rule:evenodd;clip-rule:evenodd;fill:#026188;} .st3{fill-rule:evenodd;clip-rule:evenodd;fill:#54BBD2;} .st4{fill-rule:evenodd;clip-rule:evenodd;fill:#0B91AC;} .st5{fill-rule:evenodd;clip-rule:evenodd;fill:#C9CBCB;} .st6{fill-rule:evenodd;clip-rule:evenodd;fill:#296281;} .st7{fill-rule:evenodd;clip-rule:evenodd;fill:#63A4B3;} .st8{fill-rule:evenodd;clip-rule:evenodd;fill:#40889D;} </style> <g id="Page-1"> <g id="Guide-Page-B" transform="translate(-250.000000, -55.000000)"> <g id="Armory_logo" transform="translate(250.000000, 55.000000)"> <path id="Fill-1" class="st0" d="M131.9,119.1c-1.3-0.6-4.4-1.4-8.6-1.4c-6.9,0-10.1,2.8-10.1,8c0,5.9,3.6,8,8.6,8 c5.3,0,10.2-3.4,10.2-7.1V119.1z M133.4,136.1l-0.3-0.1c-3.1,4-8.3,6.4-14.4,6.4c-9.5,0-15.8-5.3-15.8-16.6 c0-9.6,6.4-15.8,18.3-15.8c4,0,7.7,0.7,10.6,1.6v-3.8c0-6.4-3-8.9-10.7-8.9c-5.5,0-9.5,0.8-14.1,2.9l-0.9-8.9 c5-2.2,10.7-3.3,17-3.3c14.2,0,19.4,6.1,19.4,19.8v32.1h-8.2L133.4,136.1L133.4,136.1z"></path> <path id="Fill-2" class="st0" d="M150.7,141.5V90.9l8.6-0.5l0.9,9.6h0.3c3.1-6.6,8.4-10.2,14.7-10.2c2.1,0,4,0.3,5.3,0.7 l-0.7,10.9c-1.6-0.5-3.5-0.8-5.3-0.8c-7.4,0-13,5.8-13,15.3v25.7H150.7"></path> <path id="Fill-3" class="st0" d="M244.1,141.5v-33.1c0-6.1-3.4-8.9-9-8.9c-4.9,0-8.6,2.7-8.6,8.3v33.7h-10.8v-33.7 c0-6-3.6-8.4-8.6-8.4c-3.6,0-7.3,1.9-9.1,4.7v37.4h-10.8V90.8l7.7-0.5l1.9,5.1c3.5-3.6,8.2-5.7,13.1-5.7c6.6,0,11,2.4,13.6,7.3 c3.2-5,8.3-7.3,14.4-7.3c9.9,0,16.9,6.1,16.9,18.5v33.3H244.1"></path> <path id="Fill-4" class="st0" d="M284.9,133.6c8.4,0,11.5-4.1,11.5-17.4c0-13.4-3.1-17.4-11.5-17.4c-8.5,0-11.7,4.1-11.7,17.4 C273.2,129.6,276.5,133.6,284.9,133.6z M284.9,142.7c-15.8,0-22.9-7.6-22.9-26.5c0-18.8,7.1-26.6,22.9-26.6 c15.8,0,22.6,7.8,22.6,26.6C307.5,135.1,300.7,142.7,284.9,142.7L284.9,142.7z"></path> <path id="Fill-5" class="st0" d="M315.5,141.5V90.9l8.6-0.5l0.9,9.6h0.3c3.1-6.6,8.4-10.2,14.7-10.2c2.1,0,4,0.3,5.3,0.7 l-0.7,10.9c-1.6-0.5-3.5-0.8-5.3-0.8c-7.4,0-13,5.8-13,15.3v25.7H315.5"></path> <path id="Fill-6" class="st0" d="M369.9,141.6l0.3-0.8L348,90.5h12.4l12.6,33.9l2.3,6.4h0.3l1.7-6.6l9.9-33.7h11.5l-18,51.2 c-3.7,10-9.1,13.7-17.2,13.7c-3,0-5.8-0.5-8.3-1.6l0.9-7.9c1.9,0.9,3.6,1.3,5.5,1.3C365.2,147.2,367.9,145.9,369.9,141.6"></path> <g id="Group-10"> <path id="Fill-7" class="st1" d="M72.7,90.1l-4.3-2v-8.3L46.8,75h0l-21.6,4.9v8.3l-16,7.4C9,97,8.8,98.9,8.8,101 c-0.1,3.2,0,7.1,0.5,11.5c3.4-1.4,7.2-2.2,11.1-2.2c3.7,0,7.2,0.7,10.5,1.9c5.3,2,9.8,5.4,13.2,9.8c0.9-0.1,1.8-0.1,2.7-0.1 c4.9,0,9.4,1.3,13.3,3.7c1,0.6,1.9,1.2,2.8,1.9c3.2-1.9,7-3,11-3c2.7,0,5.4,0.5,7.8,1.4c0.4-1.4,0.8-2.8,1.1-4.3 c0.8-3.4,1.3-6.7,1.6-9.8c0.7-7,0.4-12.8,0.1-16.3L72.7,90.1"></path> <path id="Fill-9" class="st2" d="M84.4,111.9c-0.3,3.1-0.8,6.4-1.6,9.8c-0.3,1.4-0.7,2.9-1.1,4.3c-2.4-0.9-5-1.4-7.8-1.4 c-4,0-7.7,1.1-11,3c-0.9-0.7-1.8-1.3-2.8-1.9c-3.9-2.3-8.4-3.7-13.3-3.7c-0.9,0-1.8,0.1-2.7,0.1c-3.3-4.4-7.9-7.8-13.2-9.8 c-3.3-1.2-6.8-1.9-10.5-1.9c-3.9,0-7.7,0.8-11.1,2.2c-0.5-4.4-0.6-8.3-0.5-11.5c0.1-2.2,0.2-4,0.4-5.5l16-7.4v-8.3L46.8,75h0 l21.6,4.9v8.3l16,7.4C84.8,99,85.1,104.8,84.4,111.9 M75.8,83.4V74l-29-6.5h0l-29,6.5v9.5L2.4,90.5c0,0-1.2,5.6-1,14.2 c0.1,3.5,0.3,7.4,1,11.7c0.6,3.7,1.4,7.6,2.6,11.6c4.5,15,14.1,31.7,34.1,44.8c2.4,1.6,5,3.2,7.8,4.6l0,0c2.8-1.5,5.4-3,7.8-4.6 C71.2,162,80.7,148.6,86,135.7c0.8-2,1.5-3.9,2.2-5.9c1.6-5.1,2.7-10,3.3-14.6c1.9-14.3-0.2-24.7-0.2-24.7L75.8,83.4"></path> </g> <path id="Fill-11" class="st3" d="M30.9,112.2c2.6-1.3,5.5-2.1,8.6-2.1c2.4,0,4.6,0.5,6.7,1.3c3.2-4,7.7-6.8,12.9-7.4 c-3.5-2-7.9-3.2-12.7-3.2c-0.6,0-1.3,0-1.9,0.1c-3.6-4.1-8.8-6.7-14.5-6.7c-5.9,0-11.2,2.8-14.9,7.2c-1.3-0.4-2.6-0.6-3.9-0.6 c-0.8,0-1.7,0.1-2.5,0.2c-0.1,3.2,0,7.1,0.5,11.5c3.4-1.4,7.2-2.2,11.1-2.2C24.1,110.3,27.6,111,30.9,112.2"></path> <path id="Fill-12" class="st4" d="M77.8,111c-0.5,0-1,0-1.6,0c-3.7-4.4-9-7.2-14.9-7.2c-0.8,0-1.5,0-2.3,0.1 c-5.1,0.6-9.7,3.4-12.9,7.4c-2.1-0.8-4.4-1.3-6.7-1.3c-3.1,0-6,0.8-8.6,2.1c5.3,2,9.8,5.4,13.2,9.8c0.9-0.1,1.8-0.1,2.7-0.1 c4.9,0,9.4,1.3,13.3,3.7c1,0.6,1.9,1.2,2.8,1.9c3.2-1.9,7-3,11-3c2.7,0,5.4,0.5,7.8,1.4c0.4-1.4,0.8-2.8,1.1-4.3 c0.8-3.4,1.3-6.7,1.6-9.8C82.4,111.3,80.1,111,77.8,111"></path> <path id="Fill-13" class="st5" d="M84.4,111.9c-2-0.6-4.3-0.9-6.6-0.9c-0.5,0-1,0-1.6,0c-3.7-4.4-9-7.2-14.9-7.2 c-0.8,0-1.5,0-2.3,0.1c-4.8,0.6-9.1,3.1-12.3,6.7c3.2-3.6,7.5-6.1,12.3-6.7c-3.4-1.9-7.6-3.1-12.3-3.2V75l21.6,4.9v8.3l16,7.4 c0.2,1.9,0.4,4.6,0.4,7.8C84.8,105.9,84.7,108.7,84.4,111.9"></path> <path id="Fill-14" class="st6" d="M46.8,177.6v-55.7c4.9,0,9.4,1.3,13.3,3.7c1,0.6,1.9,1.2,2.8,1.9c3.2-1.9,7-3,11-3 c2.7,0,5.4,0.5,7.8,1.4c0.4-1.4,0.8-2.8,1.1-4.3c0.8-3.4,1.3-6.7,1.6-9.8c0.3-3.1,0.4-6,0.4-8.5c0-3.2-0.2-5.8-0.4-7.8l-16-7.4 v-8.3L46.8,75v-7.6l29,6.5v9.5l15.4,7.1c0,0,1,5,1,12.8c0,3.5-0.2,7.5-0.8,11.9c-0.6,4.5-1.6,9.5-3.3,14.6 c-0.6,1.9-1.3,3.9-2.2,5.9c-5.3,12.8-14.7,26.3-31.4,37.2C52.2,174.5,49.6,176.1,46.8,177.6"></path> <path id="Fill-15" class="st7" d="M46.8,110.7v-9.9c4.7,0.1,8.9,1.2,12.3,3.2C54.3,104.6,50,107.1,46.8,110.7"></path> <path id="Fill-16" class="st8" d="M62.9,127.5c-0.9-0.7-1.8-1.3-2.8-1.9c-3.9-2.3-8.4-3.7-13.3-3.7v-11.2 c3.2-3.6,7.5-6.1,12.3-6.7c0.8-0.1,1.5-0.1,2.3-0.1c5.9,0,11.2,2.8,14.9,7.2c0.5,0,1,0,1.6,0c2.3,0,4.5,0.3,6.6,0.9 c-0.3,3.1-0.8,6.4-1.6,9.8c-0.3,1.4-0.7,2.9-1.1,4.3c-2.4-0.9-5-1.4-7.8-1.4C69.8,124.5,66.1,125.6,62.9,127.5"></path> </g> </g> </g> </svg> 