<svg xmlns="http://www.w3.org/2000/svg" role="img" viewBox="-6.70 59.30 413.14 126.14"><title>Armory logo</title><style>svg {enable-background:new 0 0 400 245}</style><style>.st0{fill-rule:evenodd;clip-rule:evenodd;fill:#4a514f}</style><g id="Page-1"><g id="Guide-Page-B" transform="translate(-250 -55)"><g id="Armory_logo" transform="translate(250 55)"><path id="Fill-1" d="M131.9 119.1c-1.3-.6-4.4-1.4-8.6-1.4-6.9 0-10.1 2.8-10.1 8 0 5.9 3.6 8 8.6 8 5.3 0 10.2-3.4 10.2-7.1v-7.5zm1.5 17l-.3-.1c-3.1 4-8.3 6.4-14.4 6.4-9.5 0-15.8-5.3-15.8-16.6 0-9.6 6.4-15.8 18.3-15.8 4 0 7.7.7 10.6 1.6v-3.8c0-6.4-3-8.9-10.7-8.9-5.5 0-9.5.8-14.1 2.9l-.9-8.9c5-2.2 10.7-3.3 17-3.3 14.2 0 19.4 6.1 19.4 19.8v32.1h-8.2l-.9-5.4z" class="st0"/><path id="Fill-2" d="M150.7 141.5V90.9l8.6-.5.9 9.6h.3c3.1-6.6 8.4-10.2 14.7-10.2 2.1 0 4 .3 5.3.7l-.7 10.9c-1.6-.5-3.5-.8-5.3-.8-7.4 0-13 5.8-13 15.3v25.7h-10.8" class="st0"/><path id="Fill-3" d="M244.1 141.5v-33.1c0-6.1-3.4-8.9-9-8.9-4.9 0-8.6 2.7-8.6 8.3v33.7h-10.8v-33.7c0-6-3.6-8.4-8.6-8.4-3.6 0-7.3 1.9-9.1 4.7v37.4h-10.8V90.8l7.7-.5 1.9 5.1c3.5-3.6 8.2-5.7 13.1-5.7 6.6 0 11 2.4 13.6 7.3 3.2-5 8.3-7.3 14.4-7.3 9.9 0 16.9 6.1 16.9 18.5v33.3h-10.7" class="st0"/><path id="Fill-4" d="M284.9 133.6c8.4 0 11.5-4.1 11.5-17.4 0-13.4-3.1-17.4-11.5-17.4-8.5 0-11.7 4.1-11.7 17.4 0 13.4 3.3 17.4 11.7 17.4zm0 9.1c-15.8 0-22.9-7.6-22.9-26.5 0-18.8 7.1-26.6 22.9-26.6 15.8 0 22.6 7.8 22.6 26.6 0 18.9-6.8 26.5-22.6 26.5z" class="st0"/><path id="Fill-5" d="M315.5 141.5V90.9l8.6-.5.9 9.6h.3c3.1-6.6 8.4-10.2 14.7-10.2 2.1 0 4 .3 5.3.7l-.7 10.9c-1.6-.5-3.5-.8-5.3-.8-7.4 0-13 5.8-13 15.3v25.7h-10.8" class="st0"/><path id="Fill-6" d="M369.9 141.6l.3-.8L348 90.5h12.4l12.6 33.9 2.3 6.4h.3l1.7-6.6 9.9-33.7h11.5l-18 51.2c-3.7 10-9.1 13.7-17.2 13.7-3 0-5.8-.5-8.3-1.6l.9-7.9c1.9.9 3.6 1.3 5.5 1.3 3.6 0 6.3-1.3 8.3-5.6" class="st0"/><g id="Group-10" fill-rule="evenodd" clip-rule="evenodd"><path id="Fill-7" fill="#fff" d="M72.7 90.1l-4.3-2v-8.3L46.8 75l-21.6 4.9v8.3l-16 7.4c-.2 1.4-.4 3.3-.4 5.4-.1 3.2 0 7.1.5 11.5 3.4-1.4 7.2-2.2 11.1-2.2 3.7 0 7.2.7 10.5 1.9 5.3 2 9.8 5.4 13.2 9.8.9-.1 1.8-.1 2.7-.1 4.9 0 9.4 1.3 13.3 3.7 1 .6 1.9 1.2 2.8 1.9 3.2-1.9 7-3 11-3 2.7 0 5.4.5 7.8 1.4.4-1.4.8-2.8 1.1-4.3.8-3.4 1.3-6.7 1.6-9.8.7-7 .4-12.8.1-16.3l-11.8-5.4"/><path id="Fill-9" fill="#026188" d="M84.4 111.9c-.3 3.1-.8 6.4-1.6 9.8-.3 1.4-.7 2.9-1.1 4.3-2.4-.9-5-1.4-7.8-1.4-4 0-7.7 1.1-11 3-.9-.7-1.8-1.3-2.8-1.9-3.9-2.3-8.4-3.7-13.3-3.7-.9 0-1.8.1-2.7.1-3.3-4.4-7.9-7.8-13.2-9.8-3.3-1.2-6.8-1.9-10.5-1.9-3.9 0-7.7.8-11.1 2.2-.5-4.4-.6-8.3-.5-11.5.1-2.2.2-4 .4-5.5l16-7.4v-8.3L46.8 75l21.6 4.9v8.3l16 7.4c.4 3.4.7 9.2 0 16.3m-8.6-28.5V74l-29-6.5-29 6.5v9.5l-15.4 7s-1.2 5.6-1 14.2c.1 3.5.3 7.4 1 11.7C3 120.1 3.8 124 5 128c4.5 15 14.1 31.7 34.1 44.8 2.4 1.6 5 3.2 7.8 4.6 2.8-1.5 5.4-3 7.8-4.6 16.5-10.8 26-24.2 31.3-37.1.8-2 1.5-3.9 2.2-5.9 1.6-5.1 2.7-10 3.3-14.6 1.9-14.3-.2-24.7-.2-24.7l-15.5-7.1"/></g><path id="Fill-11" fill="#54bbd2" fill-rule="evenodd" d="M30.9 112.2c2.6-1.3 5.5-2.1 8.6-2.1 2.4 0 4.6.5 6.7 1.3 3.2-4 7.7-6.8 12.9-7.4-3.5-2-7.9-3.2-12.7-3.2-.6 0-1.3 0-1.9.1-3.6-4.1-8.8-6.7-14.5-6.7-5.9 0-11.2 2.8-14.9 7.2-1.3-.4-2.6-.6-3.9-.6-.8 0-1.7.1-2.5.2-.1 3.2 0 7.1.5 11.5 3.4-1.4 7.2-2.2 11.1-2.2 3.8 0 7.3.7 10.6 1.9" clip-rule="evenodd"/><path id="Fill-12" fill="#0b91ac" fill-rule="evenodd" d="M77.8 111h-1.6c-3.7-4.4-9-7.2-14.9-7.2-.8 0-1.5 0-2.3.1-5.1.6-9.7 3.4-12.9 7.4-2.1-.8-4.4-1.3-6.7-1.3-3.1 0-6 .8-8.6 2.1 5.3 2 9.8 5.4 13.2 9.8.9-.1 1.8-.1 2.7-.1 4.9 0 9.4 1.3 13.3 3.7 1 .6 1.9 1.2 2.8 1.9 3.2-1.9 7-3 11-3 2.7 0 5.4.5 7.8 1.4.4-1.4.8-2.8 1.1-4.3.8-3.4 1.3-6.7 1.6-9.8-1.9-.4-4.2-.7-6.5-.7" clip-rule="evenodd"/><path id="Fill-13" fill="#c9cbcb" fill-rule="evenodd" d="M84.4 111.9c-2-.6-4.3-.9-6.6-.9h-1.6c-3.7-4.4-9-7.2-14.9-7.2-.8 0-1.5 0-2.3.1-4.8.6-9.1 3.1-12.3 6.7 3.2-3.6 7.5-6.1 12.3-6.7-3.4-1.9-7.6-3.1-12.3-3.2V75l21.6 4.9v8.3l16 7.4c.2 1.9.4 4.6.4 7.8.1 2.5 0 5.3-.3 8.5" clip-rule="evenodd"/><path id="Fill-14" fill="#296281" fill-rule="evenodd" d="M46.8 177.6v-55.7c4.9 0 9.4 1.3 13.3 3.7 1 .6 1.9 1.2 2.8 1.9 3.2-1.9 7-3 11-3 2.7 0 5.4.5 7.8 1.4.4-1.4.8-2.8 1.1-4.3.8-3.4 1.3-6.7 1.6-9.8.3-3.1.4-6 .4-8.5 0-3.2-.2-5.8-.4-7.8l-16-7.4v-8.3L46.8 75v-7.6l29 6.5v9.5l15.4 7.1s1 5 1 12.8c0 3.5-.2 7.5-.8 11.9-.6 4.5-1.6 9.5-3.3 14.6-.6 1.9-1.3 3.9-2.2 5.9-5.3 12.8-14.7 26.3-31.4 37.2-2.3 1.6-4.9 3.2-7.7 4.7" clip-rule="evenodd"/><path id="Fill-15" fill="#63a4b3" fill-rule="evenodd" d="M46.8 110.7v-9.9c4.7.1 8.9 1.2 12.3 3.2-4.8.6-9.1 3.1-12.3 6.7" clip-rule="evenodd"/><path id="Fill-16" fill="#40889d" fill-rule="evenodd" d="M62.9 127.5c-.9-.7-1.8-1.3-2.8-1.9-3.9-2.3-8.4-3.7-13.3-3.7v-11.2c3.2-3.6 7.5-6.1 12.3-6.7.8-.1 1.5-.1 2.3-.1 5.9 0 11.2 2.8 14.9 7.2h1.6c2.3 0 4.5.3 6.6.9-.3 3.1-.8 6.4-1.6 9.8-.3 1.4-.7 2.9-1.1 4.3-2.4-.9-5-1.4-7.8-1.4-4.2-.2-7.9.9-11.1 2.8" clip-rule="evenodd"/></g></g></g></svg>