<svg xmlns="http://www.w3.org/2000/svg" role="img" viewBox="-406.35 18.66 407.94 218.19"><title>Aspen Mesh (member) logo</title><path fill="none" d="M-401.62 5.38h400v245h-400z" pointer-events="none"/><path fill="none" d="M-401.62 5.38h400v245h-400z" pointer-events="none"/><path fill="#e40593" d="M-257.54 127.785c-.974-.607-.597-1.586-.598-2.409-.02-19.98.001-39.962-.05-59.943a3.864 3.864 0 0 1 1.652-3.425q21.726-17.138 43.37-34.38a11.923 11.923 0 0 0 .979-.976h.482c-.044 10.114-.14 20.228-.083 30.342a4.474 4.474 0 0 1-1.99 3.997c-5.968 4.619-11.84 9.361-17.762 14.04a2.723 2.723 0 0 0-1.373 2.32c.052 9.8.028 19.6.05 29.398a3.648 3.648 0 0 0 .367 1.084c.05 1.101-.897 1.453-1.555 1.967-7.771 6.071-15.708 11.927-23.49 17.985zm91.21-19.971c.718-.65.397-1.509.399-2.268.024-9.152-.028-18.303.058-27.454a3.782 3.782 0 0 0-1.713-3.375c-6.013-4.685-11.954-9.462-17.935-14.188a2.77 2.77 0 0 1-1.412-2.321c.054-9.954.052-19.908.078-29.861a10.584 10.584 0 0 1 .248-1.45c1.819 1.425 3.448 2.689 5.064 3.97q19.524 15.477 39.065 30.932a4.511 4.511 0 0 1 2.003 3.985c-.077 19.747-.044 39.495-.064 59.242 0 .763.318 1.607-.322 2.294-1.096.122-1.768-.663-2.517-1.228-7.164-5.403-14.269-10.885-21.417-16.31-.661-.502-1.61-.859-1.534-1.968z" class="cls-5"/><path fill="#d30057" d="M-166.33 107.814l25.469 19.506c-2.265 2.276-5.006 3.944-7.552 5.857-5.77 4.336-11.629 8.558-17.374 12.928-1.269.965-2.032.888-3.246-.082-5.39-4.305-10.87-8.498-16.33-12.717a2.946 2.946 0 0 1-1.54-2.496c.05-12.441.036-24.883.048-37.325a8.275 8.275 0 0 1 .26-1.179zm-91.21 19.971c1.135-2.596 3.774-3.54 5.786-5.131 6.352-5.026 12.83-9.893 19.258-14.821l20.22-15.453c.693.71.416 1.38.417 1.967.021 11.879-.013 23.758.052 35.637a3.738 3.738 0 0 1-1.657 3.399c-5.565 4.21-11.054 8.522-16.552 12.82-.796.622-1.364 1.085-2.447.27-8.326-6.274-16.711-12.47-25.078-18.689z" class="cls-6"/><path d="M-366.08 215.071h-19.718l-5.13 11.186h-7.488l22.79-48.951 21.985 48.951h-7.607zm-2.834-6.533l-6.83-15.66-7.16 15.66zm47.682-21.478l-5.637 3.341a9.696 9.696 0 0 0-3.013-3.58 7.032 7.032 0 0 0-3.848-.954 7.106 7.106 0 0 0-4.803 1.641 5.084 5.084 0 0 0-1.909 4.057q0 3.37 5.011 5.428l4.594 1.88q5.608 2.268 8.203 5.534a12.473 12.473 0 0 1 2.596 8.009 14.071 14.071 0 0 1-4.236 10.5 14.538 14.538 0 0 1-10.59 4.176 14.167 14.167 0 0 1-9.903-3.549q-3.848-3.55-4.803-9.993l7.04-1.552q.477 4.058 1.67 5.608a7.938 7.938 0 0 0 11.664.806 7.534 7.534 0 0 0 2.148-5.519 7.755 7.755 0 0 0-.373-2.46 6.256 6.256 0 0 0-1.164-2.059 9.288 9.288 0 0 0-2.043-1.76 19.705 19.705 0 0 0-2.983-1.566l-4.445-1.85q-9.456-3.997-9.456-11.694a11.092 11.092 0 0 1 3.968-8.68 14.335 14.335 0 0 1 9.873-3.52q7.965 0 12.44 7.756zm17.137 20.494v18.703h-6.95V180.2h7.875a35.521 35.521 0 0 1 8.74.806 11.72 11.72 0 0 1 5.25 3.043 13.107 13.107 0 0 1 3.967 9.784 12.628 12.628 0 0 1-4.236 10.023q-4.236 3.698-11.424 3.7zm0-6.443h2.595q9.576 0 9.576-7.369 0-7.129-9.874-7.13h-2.297zm52.067-14.379h-18.464v11.067h17.927v6.534h-17.927v15.392h18.464v6.532h-25.415V180.2h25.415zm9.739 39.525v-49.19l33.588 35.14V180.2h6.95v48.862l-33.588-35.05v32.246zm70.039 0l9.695-49.518 15.81 35.796 16.377-35.796 8.71 49.518h-7.13l-4.444-27.802-13.633 29.92-13.244-29.95-4.952 27.832zm86.372-39.525h-18.464v11.067h17.927v6.534h-17.927v15.392h18.464v6.532h-25.415V180.2h25.415zm35.78.328l-5.638 3.341a9.692 9.692 0 0 0-3.012-3.58 7.033 7.033 0 0 0-3.849-.954 7.104 7.104 0 0 0-4.802 1.641 5.084 5.084 0 0 0-1.909 4.057q0 3.37 5.011 5.428l4.594 1.88q5.608 2.268 8.203 5.534a12.474 12.474 0 0 1 2.596 8.009 14.073 14.073 0 0 1-4.236 10.5 14.54 14.54 0 0 1-10.59 4.176 14.167 14.167 0 0 1-9.904-3.549q-3.848-3.55-4.802-9.993l7.04-1.552q.476 4.058 1.67 5.608a7.938 7.938 0 0 0 11.663.806 7.534 7.534 0 0 0 2.148-5.519 7.767 7.767 0 0 0-.372-2.46 6.264 6.264 0 0 0-1.164-2.059 9.29 9.29 0 0 0-2.043-1.76 19.685 19.685 0 0 0-2.983-1.566l-4.445-1.85q-9.456-3.997-9.456-11.694a11.093 11.093 0 0 1 3.968-8.68 14.333 14.333 0 0 1 9.873-3.52q7.965 0 12.44 7.756zm17.138 11.157h19.865v-18.018h6.95v46.058h-6.95v-21.508h-19.866v21.508h-6.95V180.2h6.95z"/></svg>