<svg xmlns="http://www.w3.org/2000/svg" role="img" xmlns:xlink="http://www.w3.org/1999/xlink" viewBox="-7.74 81.25 415.74 82.24"><title>Autodesk (member) logo</title><style>svg {enable-background:new 0 0 400 245}</style><style>.st1{fill:#231f20}.st2{fill:#101011}</style><g id="layer1" transform="translate(322.857 -405.962)"><g id="g4585" transform="matrix(.2176 0 0 -.2176 -730.403 512.507)"><g id="g4558" transform="translate(-62459.022 -2751.335) scale(39.04)"><g transform="translate(1010.286 27.429)" id="g3623"><defs><path id="SVGID_1_" d="M461.1 8h400v66.3h-400z"/></defs><clipPath id="SVGID_2_"><use overflow="visible" xlink:href="#SVGID_1_"/></clipPath><g id="g3625" clip-path="url(#SVGID_2_)"><g id="g3631" transform="translate(755.057 42.025)"><path id="path3633" d="M-70.5-2.3c0-.2-.1-.4-.3-.4-.2 0-.3.1-.3.4 0 .2.1.4.3.4.2-.1.3-.2.3-.4m.1 0c0 .2-.2.4-.4.4s-.4-.2-.4-.4.2-.4.4-.4c.2-.1.4.1.4.4" class="st1"/></g><g id="g3635" transform="translate(754.377 42.263)"><path id="path3637" d="M-70.1-2.5c0-.1 0-.1 0 0l-.1-.1v.1h.1c0 .1 0 0 0 0m.1-.3l-.1.1v.1c.1 0 .1 0 .1.1s0 .1-.1.1h-.1v-.4h.1v.2h.1v-.2z" class="st1"/></g></g></g><g id="g3719" transform="translate(1678.057 77.434)"><path id="path3721" d="M-18.1-7.1l-.8-1.8h1.6l-.8 1.8zm2.4-3.6h-.8l-.5 1.1h-2.1l-.5-1.1h-.8l2 4.6h.7c0-.1 2-4.6 2-4.6z" class="st2"/></g><g id="g3723" transform="translate(1702.294 68.43)"><path id="path3725" d="M-32.6-1.7h-.8V2h-1.4v.7h3.7l-.4-.7h-1.2v-3.7z" class="st2"/></g><g id="g3727" transform="translate(1740.297 77.886)"><path id="path3729" d="M-55.4-7.4h-2.4v-1.1h1.5v-.7h-1.5v-1.2h2.4v-.7h-3.2v4.5h3.2v-.8z" class="st2"/></g><path id="path3731" d="M1690.5 66.7h-.8v4.5h.8v-4.5z" class="st2"/><g transform="translate(1010.286 27.429)" id="g3733"><defs><path id="SVGID_3_" d="M461.1 8h400v66.3h-400z"/></defs><clipPath id="SVGID_4_"><use overflow="visible" xlink:href="#SVGID_3_"/></clipPath><g id="g3735" clip-path="url(#SVGID_4_)"><g id="g3741" transform="translate(736.147 50.667)"><path id="path3743" d="M-59.1-7.5c-.5 0-.9-.2-.9-.5 0-.4.2-.5 1.1-.8.9-.3 1.4-.6 1.4-1.4 0-.9-.7-1.4-1.6-1.4-.7 0-1.3.2-1.8.6l.3.7c.4-.4.9-.6 1.5-.6.5 0 .8.2.8.6 0 .3-.2.5-1 .8-.9.3-1.5.6-1.5 1.4 0 .8.7 1.2 1.6 1.2.9 0 1.4-.3 1.5-.4l-.3-.6c-.1.2-.5.4-1.1.4" class="st2"/></g><g id="g3745" transform="translate(746.636 46.829)"><path id="path3747" d="M-65.4-5.2l2 2.2h-1l-2-2.2 2.2-2.3h1l-2.2 2.3z" class="st2"/></g><g id="g3749" transform="translate(701.87 42.629)"><path id="path3751" d="M-38.6-2.7c-.9 0-1.5.7-1.5 1.6s.6 1.6 1.5 1.6S-37-.2-37-1.1s-.7-1.6-1.6-1.6m0 3.9c-1.3 0-2.3-1-2.3-2.3s1-2.3 2.3-2.3c1.3 0 2.3 1 2.3 2.3s-1 2.3-2.3 2.3" class="st2"/></g><g id="g3753" transform="translate(714.09 42.808)"><path id="path3755" d="M-45.9-2.8h-.9V.3h.9c.9 0 1.5-.6 1.5-1.5s-.6-1.6-1.5-1.6m0 3.8h-1.7v-4.5h1.7c1.3 0 2.3 1 2.3 2.3 0 1.2-1 2.2-2.3 2.2" class="st2"/></g><g id="g3757" transform="translate(684.241 46.006)"><path id="path3759" d="M-28-4.7c0-1.3-.8-2.1-1.9-2.1-1.1 0-1.9.7-1.9 2.1v2.5h.8v-2.6c0-.8.5-1.3 1.1-1.3.7 0 1.1.5 1.1 1.3v2.6h.8v-2.5z" class="st2"/></g></g></g></g><linearGradient id="path4460_1_" x1="4501.281" x2="4719.559" y1="3720.906" y2="3677.415" gradientTransform="matrix(.1741 0 0 -.1741 1116.034 468.043)" gradientUnits="userSpaceOnUse"><stop offset="0" stop-color="#2d7b78"/><stop offset=".51" stop-color="#50baa9"/><stop offset="1" stop-color="#5fc2b1"/></linearGradient><path id="path4460" fill="url(#path4460_1_)" d="M1934.6-226c-8.7 0-13.2 3.3-17.5 10.9l-39.6 73.4c-2.7 5.3-2.8 7-2.8 10.8l62.2-2.7 14.2-14.2h124.8L1972.3-212c-5-3.1-24.2-14-37.7-14z"/><linearGradient id="path4458_1_" x1="5041.486" x2="4933.167" y1="2377.844" y2="2632.229" gradientTransform="matrix(.1741 0 0 -.1741 1116.034 468.043)" gradientUnits="userSpaceOnUse"><stop offset="0" stop-color="#256837"/><stop offset=".493" stop-color="#6ba442"/><stop offset="1" stop-color="#87c146"/></linearGradient><path id="path4458" fill="url(#path4458_1_)" d="M1951.2-147.9h-53.8c-16.3 0-22.7 8.5-22.7 17 0 5.4 1.7 8.3 4.1 14.3l78.4 187.2.8 1.6 1.1 1.7 2.3 2.2 3.3 1.8 4.8 1.1 8.3-.2 54.5-20.3L2013.9.4l-62.7-148.3z"/><linearGradient id="path4456_1_" x1="5150.841" x2="5310.037" y1="2265.738" y2="2644.854" gradientTransform="matrix(.1741 0 0 -.1741 1116.034 468.043)" gradientUnits="userSpaceOnUse"><stop offset="0" stop-color="#33a4dd"/><stop offset=".515" stop-color="#396fb6"/><stop offset="1" stop-color="#3b50a2"/></linearGradient><path id="path4456" fill="url(#path4456_1_)" fill-rule="evenodd" d="M2109.2-226L1985.4 67.1c-2.1 5-5.6 11.4-14.4 11.4-7.9 0-11.7-3.8-13.8-7.9 1.1 3 4.4 8.7 14.1 8.7h85.4c7.9 0 11.7-4.6 13.4-8.9L2195.3-226h-86.1z" clip-rule="evenodd"/></g></g></svg>