<svg xmlns="http://www.w3.org/2000/svg" role="img" viewBox="23.53 -3.97 518.44 250.44"><title>Cartographer logo</title><defs id="defs878"><style id="style876">.cls-1{fill:#717074}.cls-3{fill:#fff}.cls-4{fill:#218fcf}</style></defs><path id="path880" d="M44.44 233.77a21.76 21.76 0 0 1-7.77-7.83 21 21 0 0 1 0-21.21 21.83 21.83 0 0 1 7.77-7.8A20.34 20.34 0 0 1 63 195.67a21 21 0 0 1 6.78 4.65l-3.18 3.24a16.5 16.5 0 0 0-5.31-3.84 15.35 15.35 0 0 0-14.46.93 17.27 17.27 0 0 0-6 6.24 17 17 0 0 0 0 16.89 17.6 17.6 0 0 0 6 6.24 15.26 15.26 0 0 0 14.46 1 16.5 16.5 0 0 0 5.31-3.84l3.18 3.24A21.93 21.93 0 0 1 63 235a19.85 19.85 0 0 1-8 1.68 20.13 20.13 0 0 1-10.56-2.91z" class="cls-1"/><path id="path882" d="M105.07 226.6h-23L78 236h-5.1L91 194.74h5.1L114.31 236h-5.1zm-1.92-4.44l-9.54-21.66L84 222.16z" class="cls-1"/><path id="path884" d="M152 214.18a13.18 13.18 0 0 1-4.59 4.62 16 16 0 0 1-6.6 2.22L151.33 236H146l-10.44-14.82h-9.12V236h-4.68v-41.26h16.74a17.43 17.43 0 0 1 7.68 1.68 13.45 13.45 0 0 1 5.49 4.71 12.58 12.58 0 0 1 .36 13.05zm-25.59 2.52h11.22a13.23 13.23 0 0 0 8.19-2.34 8.21 8.21 0 0 0 0-12.84 13.23 13.23 0 0 0-8.19-2.34h-11.2z" class="cls-1"/><path id="path886" d="M171.37 199.18h-13.86v-4.44h32.4v4.44h-13.86V236h-4.68z" class="cls-1"/><path id="path888" d="M204.82 233.77a21.76 21.76 0 0 1-7.77-7.83 21 21 0 0 1 0-21.21 21.83 21.83 0 0 1 7.77-7.8 20.13 20.13 0 0 1 10.47-2.93 19.92 19.92 0 0 1 10.47 2.91 22 22 0 0 1 7.71 7.8 21 21 0 0 1 0 21.21 21.91 21.91 0 0 1-7.71 7.83 19.92 19.92 0 0 1-10.47 2.91 20.13 20.13 0 0 1-10.47-2.89zm18.6-3.75a17.35 17.35 0 0 0 6-6.24 17.17 17.17 0 0 0 0-16.89 17 17 0 0 0-6-6.24 15.46 15.46 0 0 0-16.26 0 17.27 17.27 0 0 0-6 6.24 17 17 0 0 0 0 16.89 17.6 17.6 0 0 0 6 6.24 15.29 15.29 0 0 0 16.26 0z" class="cls-1"/><path id="path890" d="M263.17 214.24h16.5v16.14a20.75 20.75 0 0 1-7.29 4.59 24 24 0 0 1-8.73 1.71 20.13 20.13 0 0 1-10.47-2.91 21.76 21.76 0 0 1-7.77-7.83 21 21 0 0 1 0-21.21 21.83 21.83 0 0 1 7.77-7.8 20.13 20.13 0 0 1 10.47-2.93 24.25 24.25 0 0 1 8.76 1.71 20.08 20.08 0 0 1 7.26 4.59l-3.18 3.24a16.14 16.14 0 0 0-5.82-3.78 18.83 18.83 0 0 0-7-1.44 15.22 15.22 0 0 0-8.13 2.31 17.27 17.27 0 0 0-6 6.24 17 17 0 0 0 0 16.89 17.6 17.6 0 0 0 6 6.24 15.07 15.07 0 0 0 8.13 2.34 19.93 19.93 0 0 0 11.33-3.82v-9.84h-11.83z" class="cls-1"/><path id="path892" d="M320.38 214.18a13.18 13.18 0 0 1-4.59 4.62 16 16 0 0 1-6.6 2.22l10.5 14.98h-5.34l-10.44-14.82h-9.12V236h-4.68v-41.26h16.74a17.43 17.43 0 0 1 7.68 1.68 13.45 13.45 0 0 1 5.49 4.71 12.58 12.58 0 0 1 .36 13.05zm-25.59 2.52H306a13.23 13.23 0 0 0 8.19-2.34 8.21 8.21 0 0 0 0-12.84 13.23 13.23 0 0 0-8.19-2.34h-11.21z" class="cls-1"/><path id="path894" d="M358.09 226.6h-23L331 236h-5.1l18.18-41.22h5.1L367.33 236h-5.1zm-1.92-4.44l-9.54-21.66-9.63 21.66z" class="cls-1"/><path id="path896" d="M374.77 194.74h16.74a17.43 17.43 0 0 1 7.68 1.68 13.45 13.45 0 0 1 5.49 4.71 12.54 12.54 0 0 1 0 13.62 13.45 13.45 0 0 1-5.49 4.71 17.43 17.43 0 0 1-7.68 1.68h-12.06V236h-4.68zm15.9 22a13.23 13.23 0 0 0 8.19-2.34 8.21 8.21 0 0 0 0-12.84 13.23 13.23 0 0 0-8.19-2.34h-11.22v17.48z" class="cls-1"/><path id="path898" d="M448.93 194.74V236h-4.68v-18.82H420V236h-4.68v-41.26H420v18h24.3v-18z" class="cls-1"/><path id="path900" d="M466.15 199.18v13.56h22.38v4.44h-22.38v14.34H491V236h-29.59v-41.26H491v4.44z" class="cls-1"/><path id="path902" d="M530.56 214.18a13.18 13.18 0 0 1-4.56 4.62 16 16 0 0 1-6.6 2.22L529.87 236h-5.34l-10.44-14.82H505V236h-4.68v-41.26H517a17.43 17.43 0 0 1 7.68 1.68 13.45 13.45 0 0 1 5.49 4.71 12.58 12.58 0 0 1 .36 13.05zM505 216.7h11.22a13.23 13.23 0 0 0 8.19-2.34 8.21 8.21 0 0 0 0-12.84 13.23 13.23 0 0 0-8.19-2.34H505z" class="cls-1"/><circle id="circle904" cx="289.9" cy="92.764" r="71.775" fill="#1e4488" stroke-width="1.65"/><path id="path906" stroke-width="1.65" d="M345.05915 100.40355l28.677-3.597-1.848-14.7345-31.515 3.96-20.361-9.5535 37.8015-24.1065-7.9695-12.507-14.0085 8.9265-34.9635-39.864-11.154 9.801 33.4455 38.1315-47.322 30.1785 6.798-67.65-14.85-1.485-2.871 29.271-5.775-2.805-7.8045-17.4405-13.5465 6.0555 6.864 15.3615-21.219 39.3195-7.755-6.402-9.4545 11.451 31.878 26.4 24.453 40.293-1.65 1.155 8.547 12.144.825-.5775 3.5475 5.8575 12.6885-7.7055-4.0755-6.7155 48.0975-33.8415 19.305 13.0845 8.25-12.2925-18.414-12.4905zm-109.9395-3.069l20.559-38.115 7.6725 3.729-3.4485 34.287-14.058 8.9595zm39.6 53.46l-19.8-32.736 50.3415-32.0925 25.1625 11.7975-5.3295 17.6385z" class="cls-3"/><path id="path908" stroke-width="1.65" d="M341.89115 96.64155l31.35-3.927-.825-6.6-32.703 4.1085-28.215-13.2 44.121-28.1325-3.5475-5.577-16.995 10.8405-37.29-42.5205-4.95 4.356 36.597 41.745-58.3935 37.257 7.491-75.9-6.6-.6435-3.465 35.1285-12.507-6.072-8.415-18.81-5.9895 2.64 7.689 17.226-24.552 45.474-11.6325-9.603-4.191 5.082 32.3895 26.763 36.0855 59.4 5.643-3.432-6.105-9.9165 53.625-37.7025 21.648 14.685 3.7125-5.4615-20.9385-14.19zm-112.0185 1.65l24.057-44.55 13.8765 6.7485-3.8445 39.006-18.4305 11.7645zm19.371 18.3975l55.6875-35.4585 30.426 14.289-6.7485 22.3905-55.1265 38.8245z" class="cls-4"/><path id="path910" stroke-width="1.65" d="M289.89965 6.13905a86.625 86.625 0 1 0 86.625 86.625 86.625 86.625 0 0 0-86.625-86.625zm0 158.4a71.775 71.775 0 1 1 71.77503-71.775 71.7585 71.7585 0 0 1-71.77503 71.775z" class="cls-1"/><circle id="circle912" cx="359.101" cy="43.363" r="15.164" stroke-width="1.65" class="cls-3"/><path id="path914" stroke-width="1.65" d="M359.10065 61.82655a18.48 18.48 0 1 1 18.4305-18.4635 18.48 18.48 0 0 1-18.4305 18.4635zm0-30.3435a11.88 11.88 0 1 0 11.88 11.88 11.8965 11.8965 0 0 0-11.88-11.88z" class="cls-4"/><circle id="circle916" cx="303.43" cy="77.056" r="15.164" stroke-width="1.65" class="cls-3"/><path id="path918" stroke-width="1.65" d="M303.42965 95.53605a18.48 18.48 0 1 1 18.48-18.48 18.4965 18.4965 0 0 1-18.48 18.48zm0-30.3435a11.88 11.88 0 1 0 11.88 11.8635 11.8635 11.8635 0 0 0-11.88-11.8635z" class="cls-4"/><circle id="circle920" cx="271.552" cy="165.612" r="15.164" stroke-width="1.65" class="cls-3"/><path id="path922" stroke-width="1.65" d="M271.55165 184.07505a18.48 18.48 0 1 1 18.5295-18.4635 18.48 18.48 0 0 1-18.5295 18.4635zm0-30.3435a11.88 11.88 0 1 0 11.8635 11.88 11.88 11.88 0 0 0-11.8635-11.88z" class="cls-4"/></svg>