<svg xmlns="http://www.w3.org/2000/svg" role="img" viewBox="-23.16 -23.16 1128.32 1204.32"><title>Chef logo</title><path fill="#435363" d="M0 1022.5471v-.7547c0-75.3119 56.75943-136.9925 138.12468-136.9925 49.96643 0 79.8557 16.6655 104.44642 40.8638l-37.08988 42.7657c-20.43942-18.5373-41.25625-29.8892-67.74903-29.8892-44.65276 0-76.82146 37.0899-76.82146 82.5125v.7547c0 45.4228 31.41393 83.2674 76.82146 83.2674 30.28178 0 48.81917-12.1217 69.63599-31.0365l37.08987 37.4672c-27.23245 29.1194-57.49911 47.2945-108.5977 47.2945C57.9067 1158.8 0 1098.629 0 1022.5471m307.50014-133.5472h58.28825v104.8584h107.51616V888.9999h58.31841V1154h-58.31841v-106.3837H365.78839V1154h-58.28825V888.9999zm295.00013 0h199.9095v51.8614H660.4263v53.7491h124.93409v51.8763H660.4263v55.6519h143.87122V1154H602.50027V888.9999zm278.07287 0H1082.332v53.003H938.84623v56.4007h126.45237v53.0031H938.84623V1154h-58.27309V888.9999zM548.45332 538.5948c-92.12785 0-167.09321-74.95099-167.09321-167.07884 0-92.14224 74.96536-167.1076 167.09321-167.1076 76.05869 0 140.34967 51.08463 160.50444 120.72718h64.65062C752.08693 220.53505 659.3261 141.6423 548.45332 141.6423c-126.74053 0-229.85926 103.11874-229.85926 229.87366 0 126.74052 103.11873 229.85925 229.85926 229.85925 110.87278 0 203.63361-78.87832 225.15506-183.47883h-64.65062c-20.15477 69.62815-84.44575 120.69842-160.50444 120.69842"/><path fill="#435363" d="M435.81106 484.14384c28.85828 28.85829 68.70746 46.74006 112.64226 46.74006v-66.62151c-25.60705 0-48.79726-10.40107-65.58571-27.1751l-47.05655 47.05655z"/><path fill="#f38b00" d="M389.08538 371.50158c0 22.80178 4.86246 44.49585 13.52283 64.13272l60.93903-26.8011c-5.0351-11.42247-7.85475-24.03898-7.85475-37.33162 0-51.2285 41.53234-92.74646 92.74644-92.74646v-66.62149c-87.86959 0-159.35355 71.49835-159.35355 159.36795"/><path fill="#435363" d="M606.22745 222.99505l-24.16846 62.1043c19.73757 7.6965 36.20954 21.89547 46.6825 40.0218h72.1601c-14.24212-46.76883-49.45902-84.47449-94.67414-102.1261"/><path fill="#f38b00" d="M582.08775 457.9038l24.15407 62.10429c45.21517-17.6516 80.43206-55.37165 94.68855-102.14049h-72.16009c-10.50175 18.14075-26.95935 32.35408-46.68253 40.0362"/><path fill="#435363" d="M253.61256 460.65154c-1.05017-3.48142-2.05719-6.9916-2.99228-10.53055-.0575-.21579-.1151-.43158-.17263-.64737-.86316-3.28-1.6544-6.56-2.41686-9.86879-.15826-.67616-.3021-1.35227-.44596-2.02843-.63299-2.83405-1.20842-5.69685-1.76948-8.55965-.24457-1.28037-.46035-2.56073-.67614-3.84106-.40279-2.28737-.80562-4.56036-1.16526-6.87651-.30211-1.97087-.56106-3.92737-.82-5.89825-1.81264-13.43651-2.79089-27.08882-2.7765-40.91374h-62.93868c-.0144 15.0765.93508 29.966 2.70456 44.66848.0288.31648.0863.63298.12947.94948.48913 3.9993 1.03579 7.9986 1.65439 11.95476.17263 1.09332.35965 2.18664.54667 3.29437.54667 3.25123 1.10772 6.50249 1.74071 9.73934.31649 1.72631.69053 3.42384 1.05018 5.13579.53228 2.57506 1.07895 5.15017 1.66877 7.71086.5179 2.24422 1.07895 4.48843 1.65439 6.73264.50351 1.99968.99263 3.99932 1.52491 5.99896.7193 2.64704 1.48176 5.26526 2.24422 7.8979.31649 1.09336.60421 2.21548.93508 3.29443h.0288c4.34457 14.37159 9.49475 28.39793 15.47932 41.97827L266.47365 495.48c-4.96316-11.24985-9.25019-22.9025-12.86107-34.82846z"/><path fill="#f38b00" d="M548.45332 679.59184c-84.93486 0-161.92864-34.58394-217.70311-90.37275l-44.58217 44.58216c67.13939 67.13937 159.84268 108.71489 262.28528 108.71489 189.1901 0 345.27801-141.61567 368.10857-324.61976h-63.5141c-22.44213 147.9311-150.47742 261.69546-304.59447 261.69546m0-616.15176c69.00958 0 132.75387 22.80179 184.16937 61.2843l37.70568-50.53796C708.43986 27.92109 631.64749.51579 548.45332.51579c-157.42583 0-291.93479 98.05487-345.79592 236.43366l58.7092 22.84494C306.17895 144.97985 417.97244 63.44008 548.45332 63.44008"/><path fill="#435363" d="M853.04779 325.13554h63.5141c-6.80454-54.59481-25.47756-105.50681-53.3576-150.07459l-53.48708 33.37548c21.83792 34.85724 36.90005 74.37555 43.33058 116.69911"/><path fill="#f38b00" d="M781.49191 325.13554h63.72988c-16.63018-106.85909-89.8117-195.21782-187.88095-233.49892l-22.75862 58.52218c74.57696 29.11724 130.9844 94.81803 146.90969 174.97674"/><path fill="#435363" d="M548.45332 133.91703l.0143-62.75167h-.0143c-127.21527 0-236.18911 79.49695-279.89373 191.43431l58.47904 22.75863c34.58391-88.54574 120.78473-151.44127 221.41469-151.44127"/><path fill="#f38b00" d="M310.86878 371.50158h-62.75167c0 126.20822 78.27415 234.434 188.81605 278.80039l23.3053-58.24887c-87.4524-35.1018-149.36968-120.71281-149.36968-220.55152"/><path fill="#435363" d="M548.45332 609.08612v62.76604c149.84442 0 274.39828-110.31174 296.76847-253.98456h-63.7443c-21.62213 108.90192-117.87874 191.21852-233.02417 191.21852"/></svg>