<svg xmlns="http://www.w3.org/2000/svg" role="img" viewBox="10.39 4.89 278.46 239.21"><title>Codefresh (member) logo</title><defs><style>.cls-1{fill:#2eb99b}</style></defs><path d="M154.82 58.35s26.31 26.65 18.57 71.19C199.7 119 209.91 101.37 213 83.73c0 0 9-33.42 22.9-47.35-27.54 4.33-30.33-6.5-81.09 22" class="cls-1"/><path d="M160.08 139.44h.07c.62-3.4 10.77-38.1-9.35-66.27C117.06 35.76 66.31 30.5 66.31 30.5c9.9 19.19 10.22 37.14 21 73.66 13.11 37.85 61.5 40.4 65.07 40.54 3.25 5.14 10.69 12.08 27.76 15.66l1.9-9c-14.72-3.09-20.09-8.76-22-11.89m-47.39-46.94c-3.92-12.65-14.79-34-27.7-45.17 0 0 38.27 10.09 60.39 81.79-20.8-6.3-29.69-26.88-32.7-36.62" class="cls-1"/><path fill="#4e555d" d="M71.74 19.48c-21.42 10.11-30 34.79-30 72.48 0 37 8.57 61.86 30 72.66l-2.4 9.25c-32.9-11.48-47.81-37.18-47.81-81.74 0-44.9 14.91-70.6 47.81-81.91zm158.5-9.26c32.9 11.31 47.81 37 47.81 81.91 0 44.55-14.91 70.25-47.81 81.73l-2.57-9.25c21.42-10.8 30-35.64 30-72.66 0-37.7-8.57-62.37-30-72.48zM40.58 226.64a30 30 0 0 1-11.53 2c-9.69 0-14.35-4.21-12.85-14.85 1.38-10 5.21-14.13 15.35-14.13a32.26 32.26 0 0 1 11.69 2l-1.39 6.15-9-.05c-4.1 0-5.49 1.39-6.15 6.37-.72 5.49.22 6.48 4.21 6.48a81.85 81.85 0 0 0 9-.44zM76 214.62c-1.5 10.36-5.71 14-16.24 14s-15-4-13.47-14.79c1.45-10.47 5.65-14.19 16.35-14.19s14.91 4.1 13.35 15m-19.23 0c-.77 5.65-.28 7 3.32 7s4.6-1.5 5.49-7.76c.89-5.76.28-7.09-3.1-7.09-3.66 0-4.77 1.38-5.71 7.87M108 228h-7.92l-.11-4.65c-2.6 2.5-6.43 5.32-10.81 5.32-6.43 0-9.31-4.55-7.92-15.07 1.5-11.52 6-13.91 12-13.91a49.18 49.18 0 0 1 8.87.78 33.91 33.91 0 0 1 .39-5.65l.94-5.6h10.06zm-10.46-21.86c-4.21 0-5.21.89-6 7.26-.66 5-.77 7 1.72 6.82 2.27-.05 4.16-1.22 6.21-2.88l1.5-11.19zm45.1 20.28c-3.72 1.66-8.53 2.22-12.64 2.22-11.74 0-15-5.15-13.91-14.79 1.28-11.47 6.49-14.18 16.4-14.18 10.86 0 13.74 3.6 12.85 9.92-.77 5.15-4.27 6.65-11.52 7.2l-7.48.55c.11 2.94 1.55 3.49 4.66 3.49 2.44 0 7.65-.28 11-.67zm-11-14.85c2.49-.22 3.82-.61 4-3 .17-1.83-.55-2.16-3.32-2.11-3.38.05-4.49 1.05-5.37 5.54z"/><path d="M167 192.62c-3.38 0-4.76.77-5.26 4.32l-.61 4h8.37l-.55 4.15h-8.37l-3.66 26c-.72 5-3.6 7.92-8.81 7.92a56.68 56.68 0 0 1-6.71-.44l.83-4h4.15c3.33 0 4.71-.78 5.21-4.32l3.54-25.15h-4.82l.5-3.88 4.93-.27.67-4.82c.72-5 3.6-7.87 8.87-7.87a64.94 64.94 0 0 1 7.92.39l-.89 4zm25.28 12.64h-1.5c-3 0-6 2-10.69 5.49L177.71 228h-5.37l3.82-27h4.1l-.28 6.21c4.32-4.43 8.53-6.93 12.19-6.93h1.44zm26.43 21.83c-2.94 1.16-7.92 1.55-11.13 1.55-9.37 0-12.58-4.82-11.25-14.91 1.44-10.53 5.15-13.52 15-13.52 8.87 0 11 3.32 10.25 8.76s-4 7.31-10.58 7.81l-9.37.83c-.05 5.43 2.49 6.53 6.81 6.53 3 0 6.87-.33 10-.66zm-7.71-14.3c3.32-.22 4.76-1.16 5.21-4.27.5-3.71-1.38-3.82-5.71-3.82-5.48 0-7.37 1.5-8.53 8.92zm22.56 1.78c-3.88-1.83-5.7-3.93-5.21-7.87.61-5.15 4.32-6.59 11.42-6.48a89.9 89.9 0 0 1 11.58.94l-.66 3.82c-3.44-.11-6.65-.22-10.75-.28-4.43 0-6.1.11-6.38 2.38-.27 2.05 1 2.61 3.22 3.6l7.31 3.32c4.21 1.94 5.93 3.66 5.37 7.81-.83 6.15-5.21 6.76-12.8 6.76a68.58 68.58 0 0 1-10.47-.78l.61-4c2.49.22 6 .28 8.48.28 6.82 0 8.59-.55 8.92-2.77.33-2-1-2.33-3.38-3.43zm32.36-14.74a58.83 58.83 0 0 1-1.33 6.65c4.71-4.16 8.64-6.26 12.52-6.26 4.49 0 7.15 2.6 6.43 7.59L280.66 228h-5.32l2.6-18.84c.44-3.38-.17-4.38-2.49-4.38-3.32 0-6.54 2.27-11.19 5.93L261.87 228h-5.37l5.5-38.81h5.32z" class="cls-1"/></svg>