<svg xmlns="http://www.w3.org/2000/svg" role="img" viewBox="-23.54 19.46 1952.08 636.08"><title>Cycloid logo</title><style>svg {enable-background:new 0 0 2000 656.5}</style><style>.st3{fill:#0c9696}.st7{fill:#fff}.st9{fill:#f7971d}.st10{fill:#85353c}.st11{fill:#221f1f}</style><g id="hibou"><path d="M181.5 423.9c29 0 55-14.5 78.2-43.4l51.5 57.9c-40.2 41.7-83.6 62.5-130.3 62.5-46.7 0-86.2-14.8-118.4-44.3-32.2-29.5-48.4-68.1-48.4-115.8S30.4 254.3 63 224.4c32.6-29.9 71.3-44.9 116.1-44.9 22.4 0 45.1 4.6 68.1 13.9 23 9.3 43.1 23 60.5 41.1l-45.2 59.1c-10-12-22.3-21.2-36.8-27.8-14.5-6.6-28.9-9.8-43.1-9.8-22.8 0-42.4 7.4-58.8 22.3s-24.6 35.5-24.6 62 8.2 47 24.6 61.7c16.5 14.5 35.7 21.9 57.7 21.9z" class="st3"/><path d="M394 619.1c-30.5 0-59.3-12.4-86.3-37.1l39.4-64.3c14.7 14.3 29.7 21.4 45.2 21.4 8.1 0 15.1-4 20.9-11.9 5.8-7.9 8.7-16.3 8.7-25.2s-40.2-114.7-120.5-317.4H394l75.9 194 75.9-194h92.7L493.7 551.9c-8.5 21.2-21.7 37.7-39.7 49.5-18 11.8-38 17.7-60 17.7z" class="st3"/><path fill="#273248" d="M802.4 423.9c29 0 55-14.5 78.2-43.4l51.5 57.9c-40.2 41.7-83.6 62.5-130.3 62.5-46.7 0-86.2-14.8-118.4-44.3-32.2-29.5-48.4-68.1-48.4-115.8s16.3-86.5 48.9-116.4c32.6-29.9 71.3-44.9 116.1-44.9 22.4 0 45.1 4.6 68.1 13.9 23 9.3 43.1 23 60.5 41.1l-45.2 59.1c-10-12-22.3-21.2-36.8-27.8-14.5-6.6-28.9-9.8-43.1-9.8-22.8 0-42.4 7.4-58.8 22.3s-24.6 35.5-24.6 62 8.2 47 24.6 61.7c16.4 14.5 35.6 21.9 57.7 21.9zm245.5 72.4H961V66.5h86.9v429.8zm364.9-155.8c0 45.2-15.6 83.2-46.9 114.1-31.3 30.9-70.6 46.3-117.9 46.3-47.3 0-86.6-15.4-117.9-46.3-31.3-30.9-46.9-68.9-46.9-114.1s15.6-83.3 46.9-114.4c31.3-31.1 70.6-46.6 117.9-46.6 47.3 0 86.6 15.5 117.9 46.6 31.3 31.1 46.9 69.2 46.9 114.4zm-242.1 0c0 25.5 7.2 46.2 21.7 62.3 14.5 16 33 24 55.6 24s41.1-8 55.6-24 21.7-36.8 21.7-62.3-7.2-46.3-21.7-62.5c-14.5-16.2-33-24.3-55.6-24.3s-41.1 8.1-55.6 24.3c-14.5 16.1-21.7 37-21.7 62.5zM1455.4 145c-9.8-9.8-14.8-21.9-14.8-36.2 0-14.3 4.9-26.4 14.8-36.2 9.8-9.8 21.9-14.8 36.2-14.8 14.3 0 26.4 4.9 36.2 14.8 9.8 9.8 14.8 21.9 14.8 36.2 0 14.3-4.9 26.4-14.8 36.2-9.8 9.8-21.9 14.8-36.2 14.8-14.3 0-26.4-5-36.2-14.8zm79.6 351.3h-86.9V184.7h86.9v311.6zm178.1 4.6c-36.9 0-69.8-15.6-98.7-46.9-29-31.3-43.4-70.1-43.4-116.4 0-46.3 14.1-84.3 42.3-113.8 28.2-29.5 61.2-44.3 99-44.3s68.7 13.3 92.7 40v-153h86.9v429.7H1805v-41.1c-24.5 30.6-55.1 45.8-91.9 45.8zm-54.8-159.8c0 25.1 7.5 45.7 22.6 61.7 15.1 16 32.6 24 52.7 24s37.2-8 51.3-24c14.1-16 21.1-36.7 21.1-62 0-25.3-7.1-46.3-21.1-63.1-14.1-16.8-31.4-25.2-51.8-25.2-20.5 0-38 8.5-52.7 25.5-14.7 16.9-22.1 38-22.1 63.1z"/><path d="M1250.1 431.4c19.8-5.3 30.1-21 33.5-30.1 2.7-7.1 4.4-19.1-3.4-27.4-7.9-8.3-16.8-4.5-21.2-4.9h-37.6c-4.4.4-13.3-3.4-21.2 4.9-7.9 8.3-6.1 20.3-3.4 27.4 3.4 9 13.7 24.8 33.5 30.1h19.8z" class="st3"/><path fill="#7bcabc" d="M1207 383.4c-.3 11.9-2.6 29.4 23.9 45.8 5.5 3.4 13 4.5 19.8 0 6.8-4.5 25.7-21.7 22.2-42-5.4-33.1-65.3-23.8-65.9-3.8z"/><path fill="#d2ebe6" d="M1259.3 374.3c-4 0-35.4-.9-39.4-.9-3.6 0-5.8 19.8.6 38.1 2.4 6.8 9.2 16.8 12.8 20.6 0 0 13.7 0 11.9.9 2.6-1.3 5.6-7.9 10.1-14.9 11.8-18.3 9.5-43.8 4-43.8z"/><path d="M1296.7 306.3c-2.4-1.4-7.1-.8-15.9-.7-10.4-6.9-23.9-11.2-38.7-11.2-14.8 0-28.4 4.2-38.7 11.2-7.8-1.2-16.6-1.8-17.6-.8-1.4 1.2-.9 11.6 2.2 17.1-3.1 5.5-4.9 11.7-4.9 18.1 0 25.1 26.5 45.5 59.1 45.5s59.1-20.4 59.1-45.5c0-6.4-1.7-12.5-4.9-18.1 2.5-5.8 1.8-14.8.3-15.6z" class="st3"/><path d="M1269.4 313.6c-13.6 0-24.9 9.8-27.3 22.8-2.3-13-13.7-22.8-27.3-22.8-15.3 0-27.8 12.4-27.8 27.8 0 15.3 12.4 27.8 27.8 27.8 13.6 0 24.9-9.9 27.3-22.8 2.4 12.9 13.7 22.8 27.3 22.8 15.3 0 27.8-12.4 27.8-27.8 0-15.3-12.5-27.8-27.8-27.8z" class="st7"/><path fill="#f05926" d="M1235.4 372.3c.2 2.5 2.2 5.3 6.7 5.3 4.6 0 7.2-2.8 6.7-5.3s-12-3.6-13.4 0z"/><path d="M1242.1 363.2c2.2 0 4.8 2.8 6.7 9-2.2-.3-4.1 2.1-6.7 7.7-2.6-5.6-4.6-8-6.7-7.7 1.9-6.2 4.5-9 6.7-9z" class="st9"/><path d="M1235.7 340.9c0 11.6-9.4 20.9-20.9 20.9-11.6 0-20.9-9.4-20.9-20.9 0-11.6 9.4-20.9 20.9-20.9 11.6 0 20.9 9.4 20.9 20.9z" class="st10"/><path d="M1233.9 341.2c-.2 10.7-8.2 19.9-19.3 19.7-10.5-.2-18.3-9.5-18.9-19.5-.7-10.9 8.4-20.5 19.2-20.3 10.8.2 18.8 10.1 19 20.4 0 1.1 3.6.4 3.6-1-.2-12.4-10.6-21.7-22.9-21.4-12.1.2-22.3 10-22.6 22.1-.3 12.6 10.8 21.9 22.9 21.7 12.1-.3 22.3-10 22.6-22.2.1-1.5-3.6-.7-3.6.5z" class="st11"/><path d="M1228.6 340.9c0 7.6-6.2 13.8-13.8 13.8-7.6 0-13.8-6.2-13.8-13.8 0-7.6 6.2-13.8 13.8-13.8 7.6.1 13.8 6.2 13.8 13.8z" class="st11"/><path d="M1210.3 349.4c0 1.9-2.6 3.5-5.8 3.5-3.2 0-5.8-1.5-5.8-3.5 0-1.9 2.6-3.5 5.8-3.5 3.2 0 5.8 1.6 5.8 3.5z" class="st7"/><path d="M1230.3 332.3c0 3.7-3.4 6.8-7.5 6.8s-7.5-3-7.5-6.8c0-3.7 3.3-6.8 7.5-6.8 4.1 0 7.5 3.1 7.5 6.8z" class="st7"/><path d="M1291 340.9c0 11.6-9.3 20.9-20.9 20.9-11.6 0-20.9-9.4-20.9-20.9 0-11.6 9.4-20.9 20.9-20.9 11.6 0 20.9 9.4 20.9 20.9z" class="st10"/><path d="M1289.2 341.2c-.2 10.7-8.2 19.9-19.3 19.7-10.5-.2-18.3-9.5-18.9-19.5-.7-10.9 8.4-20.5 19.2-20.3 10.8.2 18.8 10.1 19 20.4 0 1.1 3.7.4 3.6-1-.3-12.4-10.6-21.7-22.9-21.4-12.1.2-22.3 10-22.6 22.1-.3 12.6 10.8 21.9 22.9 21.7 12.1-.3 22.3-10 22.6-22.2.1-1.5-3.6-.7-3.6.5z" class="st11"/><path d="M1283.9 340.9c0 7.6-6.2 13.8-13.8 13.8-7.6 0-13.8-6.2-13.8-13.8 0-7.6 6.2-13.8 13.8-13.8 7.6.1 13.8 6.2 13.8 13.8z" class="st11"/><path d="M1265.6 349.4c0 1.9-2.6 3.5-5.8 3.5-3.2 0-5.8-1.5-5.8-3.5 0-1.9 2.6-3.5 5.8-3.5 3.2 0 5.8 1.6 5.8 3.5z" class="st7"/><path d="M1285.6 332.3c0 3.7-3.3 6.8-7.5 6.8-4.1 0-7.5-3-7.5-6.8 0-3.7 3.4-6.8 7.5-6.8s7.5 3.1 7.5 6.8z" class="st7"/><g><path d="M1236.9 420c-2.6-2.1-6.3-2-8.2 1-1.3-2.7-3.5-3.3-6.2-2.4-.8.3-1.6.8-2.2 1.4-1.3-.5-2.6-.9-4-.9-5.8-.1-8.5 7.5-7.8 12.4.8 5.5 6.2 10.5 10.1 8.1.3-.2 1.7 1.8 5.1 1.6 3.3-.2 5.1-.3 6-3.6 2.4 5 8.4 2.8 9-2 .4-3.8 1.5-12.8-1.8-15.6m33.5 3.2c-2.5-5.1-7.6-3.9-8.9-3 0 0-7.1-4.6-9.6.8-2-2.9-5.7-3.1-8.2-1-2.2 1.8-2 6.6-2.1 9.1-.1 3-.5 8.3 2.2 10.4 2.3 1.8 6 .4 7.2-2 .8 3.2 2.1 3.9 5.4 3.3 1.4-.2 2.6-.8 3.6-1.9 1.6 1 3.6 1.1 5.3.6 7.2-2.3 8.1-10.4 5.1-16.3" class="st9"/></g></g></svg>