<svg xmlns="http://www.w3.org/2000/svg" viewBox="0 0 185.11 40"><defs><style>.cls-1{fill:#0087cc;}.cls-2{fill:gray;}</style></defs><title>Boomi-Logo-Clr</title><g id="Layer_2" data-name="Layer 2"><g id="Layer_1-2" data-name="Layer 1"><g id="Artwork_1" data-name="Artwork 1"><g id="Big_Boomi_Logo_RGB" data-name="Big Boomi Logo RGB"><g id="White_Logo_RGB" data-name="White Logo RGB"><path class="cls-1" d="M20,0A20,20,0,1,0,40,20,20,20,0,0,0,20,0m0,38A18,18,0,1,1,38,20,18,18,0,0,1,20,38M35.74,22.55v1.71H30.21V15.74h1.7v6.81ZM9.2,24.26a4.51,4.51,0,0,0,4.39-3.19l5.12,3.76,5.12-3.76v3.19h5.53V22.55H25.53V15.74h-1.7v3.19l-4.91,3.6-1.1-.8L20.17,20l2.56-1.88-1.46-1.07-4.91,3.6-1.1-.8,4.91-3.61-1.46-1.07-5.12,3.76A4.51,4.51,0,0,0,9.2,15.74H5.53v8.52ZM7.66,22.55v-5.1H9.17A2.44,2.44,0,0,1,11.48,20a2.44,2.44,0,0,1-2.31,2.55Z"/></g></g><path class="cls-2" d="M63,2.55l2.52,0c.9,0,1.79.07,2.68.15a21.73,21.73,0,0,1,2.47.38,6.22,6.22,0,0,1,2,.76,9.42,9.42,0,0,1,3,2.94,8.14,8.14,0,0,1,1.25,4.61,8.83,8.83,0,0,1-1.4,5,8.26,8.26,0,0,1-4,3.11v.11a8.34,8.34,0,0,1,5.14,3,9.09,9.09,0,0,1,1.79,5.68,10.64,10.64,0,0,1-.72,3.85,9.68,9.68,0,0,1-2.11,3.32,10.59,10.59,0,0,1-3.46,2.33,12,12,0,0,1-4.77.88H49.79V2.55Zm1.1,15.32c2.74,0,4.7-.48,5.9-1.44a5.21,5.21,0,0,0,1.8-4.33,6.29,6.29,0,0,0-.61-3A4.28,4.28,0,0,0,69.5,7.34a6.72,6.72,0,0,0-2.45-.78,23.23,23.23,0,0,0-3-.18H54.47V17.87Zm2.28,16.6a6.82,6.82,0,0,0,4.92-1.7,6.2,6.2,0,0,0,1.77-4.7,5.72,5.72,0,0,0-.65-2.89,5,5,0,0,0-1.72-1.83,7.39,7.39,0,0,0-2.47-1,15.33,15.33,0,0,0-2.9-.27H54.47V34.47Z"/><path class="cls-2" d="M82,20.13a12.38,12.38,0,0,1,2.44-4.37,11.55,11.55,0,0,1,4-2.92,14.8,14.8,0,0,1,11,0,11.72,11.72,0,0,1,4,2.92,12.54,12.54,0,0,1,2.44,4.37,17.63,17.63,0,0,1,.81,5.42,17.28,17.28,0,0,1-.81,5.38,12.54,12.54,0,0,1-2.44,4.35,11.26,11.26,0,0,1-4,2.89,14.93,14.93,0,0,1-11,0,11.12,11.12,0,0,1-4-2.89A12.38,12.38,0,0,1,82,30.93a17.28,17.28,0,0,1-.81-5.38A17.63,17.63,0,0,1,82,20.13Zm4.4,9.66a8.87,8.87,0,0,0,1.75,3.1,7.66,7.66,0,0,0,2.62,1.91,8,8,0,0,0,6.35,0,7.66,7.66,0,0,0,2.62-1.91,8.87,8.87,0,0,0,1.75-3.1,13.17,13.17,0,0,0,.64-4.24,13.18,13.18,0,0,0-.64-4.25,9.25,9.25,0,0,0-1.75-3.12,7.47,7.47,0,0,0-2.62-1.93,8,8,0,0,0-6.35,0,7.47,7.47,0,0,0-2.62,1.93A9.25,9.25,0,0,0,86.4,21.3a12.92,12.92,0,0,0-.64,4.25A12.9,12.9,0,0,0,86.4,29.79Z"/><path class="cls-2" d="M109.9,20.13a12.23,12.23,0,0,1,2.44-4.37,11.52,11.52,0,0,1,4-2.92,14.82,14.82,0,0,1,11,0,11.72,11.72,0,0,1,4,2.92,12.36,12.36,0,0,1,2.43,4.37,17.33,17.33,0,0,1,.82,5.42,17,17,0,0,1-.82,5.38,12.36,12.36,0,0,1-2.43,4.35,11.26,11.26,0,0,1-4,2.89,15,15,0,0,1-11,0,11.08,11.08,0,0,1-4-2.89,12.23,12.23,0,0,1-2.44-4.35,17.28,17.28,0,0,1-.81-5.38A17.63,17.63,0,0,1,109.9,20.13Zm4.4,9.66a8.72,8.72,0,0,0,1.75,3.1,7.57,7.57,0,0,0,2.62,1.91,8,8,0,0,0,6.35,0,7.66,7.66,0,0,0,2.62-1.91,9,9,0,0,0,1.75-3.1,13.17,13.17,0,0,0,.63-4.24,13.19,13.19,0,0,0-.63-4.25,9.42,9.42,0,0,0-1.75-3.12A7.47,7.47,0,0,0,125,16.25a8,8,0,0,0-6.35,0,7.38,7.38,0,0,0-2.62,1.93,9.08,9.08,0,0,0-1.75,3.12,12.92,12.92,0,0,0-.64,4.25A12.9,12.9,0,0,0,114.3,29.79Z"/><path class="cls-2" d="M142.55,12.34v3.83h.1a10.21,10.21,0,0,1,12.91-3.48,5.73,5.73,0,0,1,2.79,3.48,9.16,9.16,0,0,1,3.48-3.32,9.7,9.7,0,0,1,4.75-1.18,14.05,14.05,0,0,1,3.58.43,7.54,7.54,0,0,1,2.75,1.36,6.1,6.1,0,0,1,1.77,2.38,8.61,8.61,0,0,1,.64,3.5V38.72h-4.26V21.5a11.83,11.83,0,0,0-.2-2.29,4.69,4.69,0,0,0-.76-1.86,3.78,3.78,0,0,0-1.55-1.24,6,6,0,0,0-2.56-.46,6.78,6.78,0,0,0-5,1.83,6.63,6.63,0,0,0-1.82,4.88V38.72h-4.68V21.5a11.32,11.32,0,0,0-.23-2.34,4.88,4.88,0,0,0-.79-1.86A3.74,3.74,0,0,0,152,16.08a5.94,5.94,0,0,0-2.41-.43,6.52,6.52,0,0,0-3.22.76,7.32,7.32,0,0,0-2.18,1.83,7.58,7.58,0,0,0-1.22,2.21,6.45,6.45,0,0,0-.38,1.91V38.72H138.3V12.34Z"/><path class="cls-2" d="M180.85,7.66V2.55h4.26V7.66Zm4.26,4.68V38.72h-4.26V12.34Z"/></g></g></g></svg>