<svg xmlns="http://www.w3.org/2000/svg" role="img" viewBox="-1.73 -1.73 89.96 30.34"><title>Drone logo</title><defs><style>.cls-1{fill:#1e375a}</style></defs><g id="Landing"><g id="logos"><g id="drone-logo-back-with-text"><g id="Group-4"><path id="DRONE" d="M29.07 6.52h4.35A4.93 4.93 0 0 1 37 7.69a5.09 5.09 0 0 1 1.19 3.74A4.91 4.91 0 0 1 37 15.06a4.89 4.89 0 0 1-3.53 1.17h-4.4zm4 7.54a3 3 0 0 0 1.22-.22 1.31 1.31 0 0 0 .71-.79 4.32 4.32 0 0 0 .24-1.62A4.65 4.65 0 0 0 35 9.76a1.58 1.58 0 0 0-.69-.85 2.71 2.71 0 0 0-1.24-.24h-1.16v5.39zm7.82-7.54h5.07a3.47 3.47 0 0 1 2.6.93 3.52 3.52 0 0 1 .85 2.55 3.19 3.19 0 0 1-.48 1.73 3.32 3.32 0 0 1-1.3 1.16 1.15 1.15 0 0 1 .3.32 3.74 3.74 0 0 1 .26.53l1.12 2.55h-3l-1-2.34a1 1 0 0 0-.29-.39.88.88 0 0 0-.48-.11h-.8v2.84h-2.82V6.52zm4.32 4.7a1.31 1.31 0 0 0 1-.32 1.17 1.17 0 0 0 .34-.93c0-.85-.39-1.27-1.22-1.27h-1.65v2.55h1.51zm11.38 5.17a5.23 5.23 0 0 1-3.71-1.19 5.09 5.09 0 0 1-1.25-3.77 5.13 5.13 0 0 1 1.25-3.84 5.14 5.14 0 0 1 3.71-1.2 5.17 5.17 0 0 1 3.72 1.2 5.13 5.13 0 0 1 1.24 3.84 5.09 5.09 0 0 1-1.24 3.77 5.24 5.24 0 0 1-3.74 1.19zm0-2.41a1.91 1.91 0 0 0 1.57-.61 3.19 3.19 0 0 0 .47-2 3.25 3.25 0 0 0-.47-2 2.39 2.39 0 0 0-3.19 0 3.38 3.38 0 0 0-.47 2 3.32 3.32 0 0 0 .47 2 2 2 0 0 0 1.6.63zm7.69-7.46h2.42l3.66 5.15V6.52h2.84v9.71h-2.46l-3.64-5.12v5.12h-2.84zm12 0h7.32V8.7h-4.54v1.59h4v2.2h-4v1.59h4.54v2.18h-7.37z" class="cls-1"/><g id="Group-3"><path id="Combined-Shape" fill="#00abe4" d="M4.43 2.47l-.11.1 3.85 3.8a5.68 5.68 0 0 0-.85 3.05 5.27 5.27 0 0 0 5.49 5.43 5.7 5.7 0 0 0 3.08-.85l3.87 3.85A10.89 10.89 0 0 1 11 22.12 10.84 10.84 0 0 1 0 11.25a10.63 10.63 0 0 1 4.43-8.78zM6.58 1a11.17 11.17 0 0 1 4.69-1A10.82 10.82 0 0 1 22.2 10.87a11 11 0 0 1-1 4.7l-3.45-3.45a5.71 5.71 0 0 0 .85-3 5.28 5.28 0 0 0-5.5-5.49 5.61 5.61 0 0 0-3 .85zm6.58 11.25A3.18 3.18 0 0 1 9.87 9a3.18 3.18 0 0 1 3.29-3.3A3.21 3.21 0 0 1 16.44 9a3.16 3.16 0 0 1-3.28 3.28z"/></g></g></g></g></g><path d="M44.32 24.61a1.85 1.85 0 0 1-1.3.45 1.79 1.79 0 0 1-1.62-1v.88h-.43v-7.09h.51v3a1.85 1.85 0 0 1 1.64-1 1.82 1.82 0 0 1 1.33.51 2.81 2.81 0 0 1 .77 2.06 3.19 3.19 0 0 1-.9 2.19zm-.27-3.79A1.4 1.4 0 0 0 43 20.4a1.53 1.53 0 0 0-1 .37 2.18 2.18 0 0 0-.61 1.72 2.2 2.2 0 0 0 .64 1.7 1.32 1.32 0 0 0 1 .4 1.46 1.46 0 0 0 1-.35 2.27 2.27 0 0 0 .64-1.75 2.35 2.35 0 0 0-.62-1.67z" class="cls-1"/><path d="M47.26 26a1.36 1.36 0 0 1-1.32 1 2.37 2.37 0 0 1-.61-.08v-.42a5.37 5.37 0 0 0 .61.05 1 1 0 0 0 .9-.72l.32-.79-2-5h.53l1.71 4.36 1.6-4.35h.53zm7.35-1.07v-3.15c0-.59-.19-1-.85-1s-1.06.8-1.06 1.41v2.7h-1.22v-7.04h1.22v2.52a1.74 1.74 0 0 1 1.41-.66 1.67 1.67 0 0 1 1.72 1.83v3.39zm5.91.07a.82.82 0 0 1-.87-.72 1.75 1.75 0 0 1-1.54.77 1.66 1.66 0 0 1-1.86-1.59A1.62 1.62 0 0 1 58 21.88l1.51-.1v-.32c0-.48-.16-.8-.88-.8-.55 0-.9.27-.92.72h-1.2c.08-1.14 1-1.67 2.12-1.67a1.81 1.81 0 0 1 1.91 1 2.61 2.61 0 0 1 .16 1v1.88c0 .24.08.32.3.32a.43.43 0 0 0 .15 0v.9a1 1 0 0 1-.63.19zm-1-2.33l-1.3.1a.73.73 0 0 0-.74.67.66.66 0 0 0 .71.63 1.15 1.15 0 0 0 1.3-1.16v-.24zm4.64-1.74a1.28 1.28 0 0 0-1.33 1.43v2.57h-1.24v-5.09h1l.11.77a1.44 1.44 0 0 1 1.43-.82 2.17 2.17 0 0 1 .37 0V21a1.44 1.44 0 0 0-.34-.07zm3.84 4V21.8c0-.61-.19-.95-.85-.95a.94.94 0 0 0-.88.63 3.46 3.46 0 0 0-.16 1.36v2.09h-1.24v-5.09h1l.08.66a1.76 1.76 0 0 1 3.23 1v3.39zm6.34-2.17h-3.42a1.4 1.4 0 0 0 .37 1 1.15 1.15 0 0 0 .75.32 1 1 0 0 0 .74-.24 1 1 0 0 0 .24-.42h1.16a2.14 2.14 0 0 1-.42.95 2.39 2.39 0 0 1-3.34.08 2.76 2.76 0 0 1-.8-2 2.81 2.81 0 0 1 .74-2 2.17 2.17 0 0 1 1.64-.72 2.12 2.12 0 0 1 1.86 1 3 3 0 0 1 .45 1.77c.06-.09.03.15.03.26zM72.83 21a1 1 0 0 0-.77-.29 1 1 0 0 0-.85.4 1.16 1.16 0 0 0-.26.79h2.2a1.45 1.45 0 0 0-.32-.9zm5.62 3.48a2.43 2.43 0 0 1-1.75.58 2.34 2.34 0 0 1-1.64-.58 1.74 1.74 0 0 1-.53-1.19h1.14a.86.86 0 0 0 .26.61 1.13 1.13 0 0 0 .77.24c.43 0 1-.08 1-.64a.53.53 0 0 0-.51-.53c-.45-.08-1-.11-1.4-.19a1.43 1.43 0 0 1-1.17-1.35 1.39 1.39 0 0 1 .53-1.14 2.32 2.32 0 0 1 1.54-.5 2.07 2.07 0 0 1 1.59.61 1.63 1.63 0 0 1 .45 1.06h-1.12a.64.64 0 0 0-.22-.48 1 1 0 0 0-.66-.24 1.23 1.23 0 0 0-.53.08.58.58 0 0 0-.4.53c0 .37.32.48.59.5l1.08.16a1.5 1.5 0 0 1 1.41 1.44 1.44 1.44 0 0 1-.43 1.03zm4.55 0a2.43 2.43 0 0 1-1.75.58 2.34 2.34 0 0 1-1.64-.58 1.74 1.74 0 0 1-.53-1.19h1.14a.82.82 0 0 0 .26.61 1.13 1.13 0 0 0 .77.24c.43 0 1-.08 1-.64a.53.53 0 0 0-.51-.53c-.45-.08-.95-.11-1.4-.19a1.43 1.43 0 0 1-1.17-1.35 1.39 1.39 0 0 1 .53-1.14 2.32 2.32 0 0 1 1.54-.5 2.07 2.07 0 0 1 1.59.61 1.68 1.68 0 0 1 .45 1.06h-1.09A.67.67 0 0 0 82 21a1 1 0 0 0-.66-.24 1.2 1.2 0 0 0-.53.08.58.58 0 0 0-.4.53c0 .37.32.48.58.5l1.09.16a1.5 1.5 0 0 1 1.41 1.44 1.37 1.37 0 0 1-.49 1.01zm2.19-17.8v.93h-.13v-.93h-.32v-.13h.77v.13zm1.3.93v-.9l-.32.88h-.1l-.32-.88v.9h-.14V6.55h.19l.32.88.32-.88h.18v1.06z" class="cls-1"/></svg>