<svg xmlns="http://www.w3.org/2000/svg" role="img" viewBox="-2.28 -2.28 222.56 222.56"><title>East China Normal University (member) logo</title><g><g><path fill="#b70031" d="M 888.22587,159.85215 C 842.2499,155.85824 819.74999,152.028 786.68057,142.56592 657.01155,105.46396 547.45318,6.4021127 497.09813,-119.27233 c -11.84744,-29.56832 -20.79751,-61.12656 -25.89527,-91.30754 -8.62121,-51.04058 -8.11654,-108.22437 1.39828,-158.43904 25.8076,-136.20065 114.83439,-253.88804 238.64547,-315.47329 83.81546,-41.69086 173.18564,-56.02952 265.46702,-42.59183 150.25297,21.87935 280.13377,121.10432 342.52557,261.67924 52.2164,117.64852 50.1812,254.07831 -5.5399,371.380361 -13.462,28.339483 -33.5301,60.455355 -53.6779,85.9030493 -14.1319,17.8492233 -52.455,56.3318657 -69.9042,70.1951617 -66.9826,53.217178 -142.1744,84.617248 -227.79075,95.125368 -16.93057,2.07795 -62.10285,3.69526 -74.10058,2.653 z m 74.10058,-19.05674 C 1056.3677,128.82636 1141.374,88.324108 1208.2061,23.643163 c 74.6311,-72.228963 117.2791,-158.757223 130.2967,-264.358193 3.6647,-29.72841 2.0059,-81.07607 -3.7459,-115.95377 -21.2549,-128.88506 -101.5661,-242.02479 -217.1197,-305.87089 -63.9418,-35.32943 -132.32964,-52.78148 -206.76948,-52.76607 -30.38036,0.006 -44.36163,1.15683 -73.4145,6.04139 -69.47707,11.68088 -137.3343,42.27778 -194.85712,87.86121 -18.36899,14.55631 -52.74264,48.79185 -66.35422,66.08758 -52.18123,66.30486 -82.31519,138.3751 -92.28757,220.72052 -2.69121,22.22301 -3.05345,71.08562 -0.68058,91.82168 9.75641,85.2591 39.91285,158.905045 92.1518,225.046363 14.71074,18.62575733 51.53569,55.220494 69.92696,69.489833 70.3961,54.618614 144.55273,83.066454 238.7567,91.591444 12.69618,1.14895 61.67415,-0.45334 78.21726,-2.55885 z m -10.87599,-14.33603 c -3.14514,-3.14508 -2.32015,-8.37093 1.47818,-9.36422 2.46514,-0.64464 3.66973,-4.45995 1.40809,-4.45995 -1.57664,0 -8.47711,-10.78532 -8.47711,-13.249575 0,-1.113986 0.66753,-3.272732 1.48338,-4.797208 1.98963,-3.717683 0.50664,-4.893403 -2.61219,-2.070908 -2.84377,2.573586 -4.36013,2.904964 -4.36013,0.952848 0,-1.648543 20.49614,-24.746643 21.95901,-24.746643 0.58565,0 2.50274,1.164231 4.26,2.587181 2.74933,2.226297 2.93663,2.898488 1.34301,4.818805 -1.01867,1.227381 -4.52633,3.414516 -7.79476,4.860289 -6.11416,2.704605 -6.94847,4.181457 -7.72251,13.670148 -0.22863,2.801722 0.3048,4.903973 1.33456,5.260226 1.12439,0.389017 1.71525,-0.833241 1.71525,-3.548292 0,-2.277948 0.60765,-5.739916 1.35037,-7.693277 1.06824,-2.809716 2.00799,-3.386508 4.49885,-2.761332 2.22326,0.558004 4.75014,-0.44127 8.59834,-3.400287 2.9974,-2.30479 7.85818,-6.042441 10.80158,-8.305885 5.82968,-4.482801 9.87274,-5.141913 13.82303,-2.253427 2.23435,1.633838 2.3925,2.768524 1.29137,9.262578 -1.05793,6.239122 -1.75265,7.471211 -4.4263,7.850154 -3.74267,0.530462 -4.99546,3.070154 -3.8215,7.747374 1.52403,6.072421 5.36977,6.786041 14.49682,2.690039 9.8127,-4.40369 12.5638,-7.218468 13.6627,-13.978915 0.639,-3.930957 1.4763,-5.141393 3.5569,-5.141393 1.997,0 3.055,1.350896 3.9753,5.075811 1.0685,4.324966 0.7723,5.778795 -2.0024,9.828186 -6.5976,9.628653 -22.2591,16.485803 -30.16938,13.209253 -7.51794,-3.11405 -12.30764,-8.722564 -12.30764,-14.411579 0,-8.740439 8.23287,-20.201432 11.13652,-15.503179 0.58536,0.947115 1.48289,1.303418 1.99453,0.791779 1.45511,-1.455103 -0.47365,-5.165324 -2.68513,-5.165324 -2.49214,0 -15.34607,10.981592 -22.64715,19.348141 -5.36015,6.142364 -5.53322,6.658472 -6.44223,19.211282 -1.17848,16.27258 -3.09645,19.29024 -8.69936,13.6873 z M 838.83353,115.82335 c 0,-2.88556 1.85327,-12.03905 4.10863,-20.341064 4.22909,-15.567953 5.10315,-22.041261 2.78222,-20.606894 -0.73389,0.453592 -2.07532,3.297822 -2.9809,6.320498 -1.30885,4.368491 -2.22856,5.412186 -4.48363,5.088257 -3.82601,-0.549569 -4.18029,-3.705389 -1.47013,-13.093952 1.80811,-6.263826 3.69741,-9.213508 9.13502,-14.262383 7.04506,-6.541385 7.12212,-9.811734 0.14518,-6.157942 -6.07469,3.181317 -20.96684,20.889091 -20.96684,24.931021 0,0.866442 -1.22335,2.682524 -2.71871,4.035753 -2.22493,2.013522 -3.09723,2.146256 -4.80286,0.730783 -2.89089,-2.399241 -2.66491,-3.381006 2.00141,-8.695668 4.10313,-4.673155 4.28631,-6.913794 0.44469,-5.439643 -1.13451,0.435339 -2.62957,-0.0704 -3.32252,-1.123724 -2.04941,-3.115684 -5.02639,2.083698 -6.0964,10.647492 -1.18132,9.454954 -3.88108,9.004352 -4.44828,-0.74242 -0.72525,-12.464425 8.26644,-36.015858 15.57999,-40.807891 2.97286,-1.947884 4.2981,-2.041854 8.9864,-0.637223 3.02459,0.906196 5.85922,2.585672 6.2992,3.732172 1.56732,4.084485 -2.27921,12.873504 -6.85178,15.655792 -5.21928,3.175804 -5.95945,1.983167 -3.0665,-4.940728 1.18143,-2.827666 1.85789,-5.431454 1.50321,-5.786176 -2.63172,-2.631726 -13.11348,11.146518 -13.11348,17.23766 l 0,3.28392 4.2814,-3.602512 c 4.02628,-3.38788 4.47646,-3.474659 7.55622,-1.456695 3.14543,2.06096 3.45092,1.946568 7.72575,-2.893026 2.44786,-2.771363 5.68577,-6.838542 7.19516,-9.038163 l 2.74452,-3.999322 14.70299,0.444315 c 15.73598,0.475522 19.48052,1.887676 16.63597,6.273799 -1.14687,1.768551 -3.1257,2.279873 -7.85945,2.030919 -5.93884,-0.312317 -8.15101,1.101561 -4.88336,3.121109 0.79387,0.4906 1.25701,2.842692 1.02927,5.226863 -0.40661,4.255656 -0.29705,4.342423 5.99459,4.748645 8.52963,0.550705 10.14367,2.62972 7.30933,9.415006 -3.10812,7.4405 -8.63447,12.700561 -15.0607,14.334946 -8.6222,2.192912 -10.43473,4.368235 -14.98609,17.985636 -2.97943,8.91417 -4.97466,12.86462 -6.65624,13.17874 -1.94761,0.36382 -2.39986,-0.54288 -2.39328,-4.7979 z m 27.33123,-35.557616 c 5.34258,-4.49541 5.30253,-5.576554 -0.23775,-6.422755 -5.25158,-0.802112 -7.89028,0.907432 -7.89028,5.111818 0,5.857409 2.28658,6.226211 8.12803,1.310937 z M 852.81578,62.291938 c 4.19374,-4.017858 4.85106,-5.918321 2.04705,-5.918321 -1.83737,0 -9.17624,6.919216 -9.17624,8.651553 0,2.09297 3.48714,0.756046 7.12919,-2.733232 z m 209.68372,21.335069 c 0,-0.859937 1.8859,-4.628641 4.1911,-8.374895 3.9659,-6.445547 8.0667,-20.800391 6.4141,-22.452957 -0.4204,-0.420524 -2.11,-0.0446 -3.7543,0.835497 -1.6444,0.880055 -4.4761,1.227065 -6.2927,0.771154 -2.6148,-0.656285 -3.3028,-1.729702 -3.3028,-5.153411 0,-3.470997 1.583,-5.858958 8.0204,-12.099671 7.0972,-6.880286 8.3078,-8.867172 10.5175,-17.262086 3.0314,-11.51657 5.3688,-16.5371214 10.0063,-21.4939063 4.3387,-4.6372835 5.1112,-4.6698195 7.9515,-0.3349625 1.8802,2.86945322 1.9783,4.1023918 0.5925,7.4480887 -0.9135,2.2051679 -2.8394,5.0760021 -4.28,6.3796271 -2.4223,2.192224 -3.7346,8.806051 -1.7472,8.806051 0.4795,0 2.3426,-1.587004 4.1402,-3.526672 4.0131,-4.330219 7.8757,-3.900532 8.4393,0.938829 0.3352,2.877698 -1.1439,4.914273 -7.6831,10.579361 -8.0083,6.937674 -8.1404,7.172408 -11.8872,21.124732 -6.6078,24.606268 -12.0619,35.378745 -17.9123,35.378745 -1.8773,0 -3.4133,-0.703587 -3.4133,-1.563524 z M 724.93495,70.439016 c -6.20742,-6.37499 -9.55625,-11.080694 -10.74209,-15.094573 -0.94769,-3.207598 -2.32938,-5.831995 -3.07043,-5.831995 -1.4508,0 -8.98021,11.230953 -10.28444,15.340493 -0.926,2.917449 -3.75524,3.261934 -5.86924,0.714643 -1.10309,-1.329089 -0.44774,-3.340757 2.57047,-7.890345 2.22817,-3.358543 4.05376,-6.569569 4.057,-7.135616 0.01,-1.727067 -6.65653,-1.149053 -11.86972,1.029175 -6.34103,2.649456 -12.0207,2.622009 -14.25398,-0.06888 -2.76121,-3.327104 0.50781,-5.48674 14.35126,-9.480764 6.72966,-1.941588 13.15893,-4.292252 14.28715,-5.22367 1.12832,-0.93143 3.33803,-1.693501 4.91065,-1.693501 1.57252,0 2.91543,-0.617508 2.98424,-1.372236 0.0687,-0.754729 0.49868,-2.298489 0.95545,-3.430583 0.45657,-1.132095 1.02711,-3.293363 1.26771,-4.80282 0.25828,-1.620511 1.69611,-2.924051 3.5109,-3.182964 3.41048,-0.486583 4.07506,-2.314138 1.23739,-3.403044 -4.53968,-1.742037 -12.44547,4.52273 -17.64571,13.982926 -1.56967,2.85562 -3.02341,3.97008 -4.45967,3.41892 -3.27805,-1.257885 -2.5585,-6.118256 2.32879,-15.73247 5.40982,-10.6418655 10.79176,-14.3993847 18.54205,-12.9454211 4.5334,0.8504706 4.83182,1.1476539 2.71026,2.6989901 -3.64156,2.662766 -2.89942,3.49909 3.10489,3.49909 5.62637,0 12.50054,-4.6421584 10.08585,-6.811112 -2.38945,-2.1463518 -10.70616,-4.1667612 -17.15183,-4.1667612 -6.10601,0 -6.65643,-0.2715383 -6.65643,-3.28376878 0,-6.20240032 5.30646,-6.41253112 19.17945,-0.75945112 9.34107,3.8063711 10.40705,3.9794796 11.90339,1.93306591 2.26056,-3.09149051 6.55709,-1.97019621 7.10161,1.85334199 0.2839,1.9940198 2.1679,3.9659329 5.14586,5.3860176 2.58382,1.2321413 4.69792,3.1240956 4.69792,4.2043326 0,1.594932 -1.63171,1.789325 -8.68198,1.034293 -6.97488,-0.746949 -9.02891,-0.511746 -10.44632,1.196134 -1.47583,1.778278 -1.34635,2.257328 0.79161,2.929693 4.39655,1.382609 9.36188,4.446738 10.75112,6.634588 3.15515,4.96879 -9.06807,14.233934 -20.54523,15.573138 -6.56847,0.766421 -11.00026,5.560418 -9.50265,10.279049 1.18428,3.731229 15.46623,18.886798 17.79806,18.886798 2.02064,0 3.36856,3.065019 3.36856,7.65952 0,2.693901 -0.70032,3.31835 -3.72137,3.31835 -2.78869,0 -5.98183,-2.321476 -12.74055,-9.262578 z m 6.86857,-36.872269 c 3.05619,-1.222853 6.14793,-3.328024 6.87052,-4.678153 1.07315,-2.005314 0.41839,-2.983058 -3.57598,-5.3398 -5.81034,-3.428212 -7.4235,-2.786801 -7.4235,2.951675 0,2.348894 -1.022,5.399973 -2.27106,6.78018 -2.8206,3.116714 -0.89007,3.203013 6.40002,0.286098 z M 947.99581,67.43753 c -2.08946,-2.308882 -2.18763,-3.346373 -0.74646,-7.890349 2.75277,-8.679788 8.07139,-16.895903 10.93725,-16.895903 3.98553,0 4.58945,2.371287 1.66214,6.527469 -2.76091,3.920104 -5.09382,9.939338 -3.85222,9.939338 0.39394,0 2.25997,-1.543765 4.14682,-3.430584 1.88684,-1.886822 4.53928,-3.444624 5.89437,-3.461791 1.35508,-0.01716 6.1281,-3.41343 10.60662,-7.547287 4.47862,-4.13384 8.95557,-7.516081 9.94871,-7.516081 1.16062,0 1.80586,1.776136 1.80586,4.970837 0,4.164607 0.31963,4.705582 1.97058,3.335363 1.46277,-1.213972 2.70054,-1.244835 4.80286,-0.119795 3.7401,2.001651 3.57244,3.615302 -0.66389,6.391055 -1.92278,1.259891 -4.36131,4.361645 -5.41885,6.892814 -1.05764,2.531167 -2.88068,4.602116 -4.05131,4.602116 -2.5048,0 -2.81981,-4.418979 -0.57172,-8.018814 1.22178,-1.956297 1.044,-3.275178 -0.82636,-6.129645 -3.25027,-4.960501 -5.76096,-3.382528 -13.75813,8.646927 -3.5168,5.290028 -6.69609,9.618235 -7.0651,9.618235 -0.369,0 -1.8568,-0.634619 -3.30612,-1.410273 -2.07278,-1.109341 -3.14347,-0.816535 -5.01756,1.372234 -2.94271,3.436923 -3.48989,3.447367 -6.49749,0.124051 z M 1096.3042,49.412853 c -1.9886,-1.564239 -3.6156,-4.188635 -3.6156,-5.831995 0,-2.791564 0.6538,-2.989906 9.9487,-3.018081 7.9547,-0.02414 11.6358,-0.803741 18.3665,-3.889857 9.4986,-4.355222 14.7018,-4.397062 15.3133,-0.123089 0.2974,2.078619 -1.5029,4.117101 -6.8612,7.769122 -12.1311,8.268095 -26.3407,10.451482 -33.1517,5.093939 z M 890.97029,15.211566 C 811.05456,9.5505649 736.38256,-27.230491 684.80544,-86.338714 644.48147,-132.55074 619.70294,-186.9319 611.65099,-246.89008 c -2.28187,-16.99168 -2.58815,-57.63115 -0.55886,-74.13663 4.11746,-33.48904 14.16984,-67.56186 28.47928,-96.53087 15.74953,-31.88456 30.83654,-53.24084 55.50748,-78.57314 26.55229,-27.26402 48.74709,-43.43175 82.68214,-60.2298 43.67565,-21.61957 83.31982,-30.79 133.10669,-30.79 36.52005,0 63.03435,4.18304 96.05628,15.15442 20.0299,6.6548 53.2385,22.76875 69.9839,33.9586 74.6328,49.87214 121.5223,125.87385 133.9079,217.04679 3.7391,27.52444 1.2116,73.19027 -5.6961,102.91754 -23.7628,102.26169 -99.2391,185.15046 -198.7205,218.23676306 C 968.54201,12.754401 929.01917,17.906841 890.97029,15.211566 Z M 952.03464,3.384392 c 62.55236,-9.0853821 118.77256,-37.007079 163.55146,-81.227552 25.7485,-25.42731 42.6185,-48.65335 57.5013,-79.1656 14.2515,-29.21794 22.3983,-55.31051 27.4204,-87.82297 3.1694,-20.51844 3.1702,-61.8066 0,-82.33404 -18.4538,-119.55093 -104.418,-214.23229 -220.34374,-242.68806 -45.48926,-11.16604 -95.79277,-10.94958 -140.9844,0.6067 -71.00668,18.15767 -132.66239,62.43551 -173.33279,124.47849 -52.94614,80.76949 -61.82563,184.0171 -23.55725,273.91395 14.65174,34.41856 35.45348,64.70378 63.64415,92.659431 64.80919,64.268932 156.35305,94.61483 246.0995,81.579651 z m -59.00601,-15.695161 c -66.34194,-3.921582 -127.61029,-31.860719 -175.67935,-80.112085 -42.62125,-42.782866 -68.97956,-94.713326 -77.70631,-153.094996 -2.30984,-15.45262 -2.66579,-23.19087 -2.14629,-46.65596 0.67449,-30.46337 2.40251,-42.91982 9.42293,-67.92557 12.95063,-46.12816 35.90013,-84.97588 70.63081,-119.55987 44.0156,-43.82969 94.79905,-69.11324 156.91181,-78.12172 21.6012,-3.13293 64.26927,-2.17481 85.83906,1.92752 56.04491,10.6591 104.49411,36.39762 144.78621,76.91752 43.066,43.30934 67.7988,92.39011 77.5173,153.82851 3.0756,19.44343 3.0756,58.7739 0,78.21734 -9.9655,63.00032 -37.4952,116.0676 -82.5636,159.15333 -56.1686,53.697535 -128.53585,80.0648746 -207.01257,75.425981 z m 26.34094,-46.522888 c 9.37955,-5.719047 9.26391,-5.040888 10.02322,-58.773283 l 0.68618,-48.54725 33.61974,23.60514 c 18.49081,12.98282 38.55969,27.03757 44.59749,31.23278 6.0379,4.19521 18.0792,12.61201 26.7585,18.704015 14.9488,10.492432 16.1661,11.076361 23.0904,11.076361 6.6885,0 7.7089,-0.435629 12.0071,-5.125721 3.8159,-4.163894 4.6964,-6.223884 4.6922,-10.977869 -0.01,-6.489216 -3.6946,-13.717566 -8.2429,-16.151746 -1.5982,-0.85537 -25.8683,-17.67991 -53.9336,-37.38787 -71.7688,-50.39755 -69.56232,-48.85513 -76.73226,-53.6406 l -6.49347,-4.33395 -0.0245,-12.69316 c -0.0138,-6.98124 0.28448,-12.69317 0.66222,-12.69317 0.37784,0 27.7024,18.93963 60.72137,42.08807 72.21488,50.62739 79.33418,55.34054 83.59308,55.34054 5.677,0 13.6339,-5.00185 16.0473,-10.08764 5.4537,-11.49282 2.1742,-16.91961 -19.2385,-31.83473 -9.4383,-6.5744 -17.4446,-12.69349 -17.7917,-13.59799 -0.3471,-0.9045 -0.4511,-6.95966 -0.2312,-13.4559 l 0.3999,-11.81135 8.0288,5.40184 c 5.7075,3.84002 9.4765,5.40035 13.0362,5.3967 9.5508,-0.01 18.0437,-8.27639 18.0437,-17.56283 0,-6.70566 -5.4582,-12.60257 -22.9849,-24.83226 l -16.8099,-11.72952 0,-12.72991 c 0,-7.00145 0.3183,-12.72991 0.7072,-12.72991 0.389,0 4.0892,2.24547 8.2227,4.98994 11.8361,7.85882 21.7983,6.43231 28.1807,-4.03532 3.1607,-5.18354 3.364,-9.02129 0.8028,-15.15105 -1.5461,-3.70042 -15.7875,-14.23306 -79.9326,-59.11662 -42.92806,-30.0377 -78.84763,-55.36293 -79.82114,-56.27831 -1.25731,-1.18226 -1.65478,-5.31237 -1.37226,-14.25935 l 0.39777,-12.59502 67.92555,47.58184 c 37.92358,26.56551 70.13198,48.192 72.92108,48.96323 14.6011,4.03744 27.1292,-12.78184 18.7543,-25.17784 -1.7846,-2.64155 -10.7792,-10.05161 -19.9878,-16.46681 l -16.7431,-11.66399 -0.027,-23.83248 -0.028,-23.83247 -5.3274,-5.32751 c -4.5738,-4.57377 -6.1754,-5.32461 -11.321,-5.30725 -12.6556,0.0427 -18.0297,6.22604 -19.0296,21.89496 l -0.6861,10.75232 -9.8776,-7.07118 c -5.4326,-3.88914 -25.03067,-17.56877 -43.55133,-30.39915 l -33.67392,-23.32798 -0.0167,-20.99471 c -0.0128,-15.33007 -0.53726,-21.9945 -1.94506,-24.70023 -5.46195,-10.49774 -16.76447,-14.15608 -25.51664,-8.25906 -8.33948,5.61897 -9.60111,10.013 -9.60346,33.44735 l 0,20.66036 -18.18208,12.52887 c -10.00016,6.89088 -29.60594,20.55169 -43.56846,30.35735 l -25.38627,17.82846 -0.68608,-11.67648 c -0.669,-11.38486 -0.81419,-11.79367 -5.81191,-16.3688 -4.41265,-4.04017 -6.08422,-4.69232 -12.02659,-4.69232 -5.94325,0 -7.61306,0.65177 -12.02718,4.69424 l -5.12563,4.69424 -0.42624,24.50074 -0.42633,24.50074 -15.83906,10.94287 c -8.71153,6.01857 -17.29456,12.65919 -19.07343,14.7569 -10.53702,12.42531 0.34417,30.87882 16.42845,27.86139 2.70535,-0.50752 25.03356,-15.25062 57.17139,-37.7497 29.0028,-20.30432 55.51121,-38.85674 58.90745,-41.22759 3.39635,-2.37085 10.49766,-7.37789 15.78075,-11.12673 l 9.60563,-6.8161 0.39767,12.62128 c 0.28242,8.9609 -0.11554,13.10987 -1.37217,14.30593 -0.97351,0.92656 -35.42402,25.2008 -76.55668,53.94277 -41.13267,28.74196 -76.71356,54.05986 -79.06866,56.26199 -5.65082,5.28387 -7.01434,12.31858 -3.68495,19.01106 5.77598,11.61042 16.17155,13.55737 28.54005,5.34516 4.13347,-2.74447 7.83363,-4.98994 8.22257,-4.98994 0.38903,0 0.70728,5.74791 0.70728,12.77311 l 0,12.77312 -17.10098,11.96403 c -9.40556,6.5802 -18.04759,13.31552 -19.20457,14.96735 -7.87104,11.23746 0.59851,27.09239 14.48014,27.10682 3.43129,0.004 7.51951,-1.66653 13.42899,-5.48601 l 8.49586,-5.49115 -0.39276,13.33619 -0.39286,13.33618 -15.09427,10.68192 c -8.30208,5.87505 -16.72118,12.20965 -18.70923,14.0769 -10.54517,9.90451 -1.99807,28.88827 12.97782,28.82454 5.19748,-0.0221 9.11872,-2.39416 42.09557,-25.46401 20.00021,-13.99178 40.37796,-28.24026 45.2837,-31.66329 4.90564,-3.42301 19.59891,-13.73127 32.65153,-22.90723 13.05262,-9.17597 24.01333,-16.68358 24.3572,-16.68358 0.34378,0 0.62198,5.71193 0.61815,12.69317 l -0.01,12.69316 -8.56959,5.8685 c -9.32634,6.38666 -28.8422,19.99183 -40.81716,28.455 -4.15094,2.93368 -25.14616,17.66027 -46.65586,32.72578 -21.50981,15.06552 -40.81971,28.65278 -42.91094,30.19393 -7.26466,5.35388 -8.38326,19.375942 -2.00877,25.180791 10.58493,9.638885 15.19657,8.643442 39.43067,-8.511369 4.15104,-2.938398 28.5425,-20.068312 54.20325,-38.066492 l 46.65606,-32.72396 0.68608,48.48629 c 0.61864,43.718621 0.92963,48.857565 3.16212,52.261997 3.26597,4.980385 10.24242,9.123352 15.36305,9.123352 2.26419,0 6.09001,-1.203216 8.50195,-2.673826 z m -114.81329,-171.210813 0.0363,-13.41503 30.41678,-21.26962 c 16.72933,-11.6983 36.47293,-25.47515 43.87493,-30.61522 l 13.45804,-9.34558 -0.0628,13.46228 -0.0628,13.46229 -33.89941,23.56174 c -18.64474,12.95895 -38.37646,26.71452 -43.84823,30.56793 l -9.94871,7.00623 0.0363,-13.41502 z M 974.37189,-246.67 c -23.18668,-16.3477 -42.817,-30.39598 -43.62274,-31.21837 -0.88703,-0.90524 -1.30826,-6.46968 -1.06765,-14.10173 l 0.39747,-12.60649 10.29171,7.33316 c 5.66053,4.03322 25.26631,17.78298 43.56845,30.55501 l 33.27667,23.22186 0,13.39281 c 0,7.36605 -0.1545,13.33749 -0.3431,13.26985 -0.1887,-0.0676 -19.31404,-13.49836 -42.50081,-29.8461 z m -169.56009,-53.15725 0.39394,-13.33568 42.53919,-29.89773 c 23.39665,-16.44374 43.00243,-29.9376 43.56845,-29.98633 0.56602,-0.0487 1.02917,5.65083 1.02917,12.6657 l 0,12.75434 -42.03765,29.44187 c -23.12071,16.19303 -42.90378,29.94848 -43.9623,30.56768 -1.60707,0.94003 -1.85965,-1.0749 -1.5308,-12.20985 z m 173.2953,-13.88205 c -21.13236,-14.84176 -40.73814,-28.52772 -43.56836,-30.4132 l -5.14595,-3.42816 0,-13.54146 0,-13.54143 6.10307,4.52261 c 3.35678,2.48745 9.06866,6.56012 12.69323,9.05041 3.62448,2.49029 12.64936,8.8191 20.05509,14.06399 7.40573,5.2449 20.37334,14.25235 28.81687,20.01655 21.76075,14.85553 20.33475,12.86902 19.86635,27.67519 l -0.3977,12.58055 -38.4226,-26.98505 z M 1202.8103,3.3199238 c -2.048,-0.826413 -2.2863,-5.4374623 -0.343,-6.638484 3.457,-2.1365401 -0.017,-17.1529228 -3.9678,-17.1529228 -0.5872,0 -2.5591,3.06354 -4.3819,6.807857 -2.4897,5.1140547 -4.0825,6.8211154 -6.4018,6.86117 -2.4778,0.04281 -3.078,-0.6919896 -3.0389,-3.720332 0.027,-2.075504 0.9311,-5.317406 2.0097,-7.204229 2.6154,-4.575301 2.5417,-8.304744 -0.2426,-12.280025 -2.1819,-3.115011 -2.3544,-3.148564 -3.3342,-0.64838 -0.5682,1.450163 -1.0765,4.621819 -1.1296,7.048134 -0.159,7.270456 -8.3298,9.804325 -8.3298,2.583164 0,-3.701654 10.3214,-19.583013 14.0102,-21.557192 2.8293,-1.51419 7.9456,-0.427957 7.9456,1.686943 0,0.741348 -0.9789,3.24071 -2.1752,5.554129 -1.3728,2.654656 -1.6945,4.686798 -0.8724,5.509012 1.5677,1.567696 4.291,-0.92398 8.5608,-7.8326 2.3932,-3.872265 3.7822,-4.826176 6.5467,-4.496167 5.0381,0.601408 5.1383,2.920827 0.3615,8.361378 -4.2184,4.804424 -5.3219,7.838202 -2.8511,7.838202 2.7646,0 5.8009,8.826675 6.0032,17.4513146 0.1713,7.300932 -0.2537,9.1664834 -2.4566,10.7830552 -2.8214,2.0705367 -3.2053,2.1384501 -5.9128,1.045973 z m -41.3481,-12.1525847 c -4.8194,-5.4891011 -6.6306,-10.8631951 -4.5188,-13.4079071 1.0575,-1.27405 -0.1919,-4.104872 -4.7138,-10.681565 -6.4849,-9.431474 -6.6522,-10.119896 -5.2169,-21.465814 0.7888,-6.236172 1.2812,-7.119698 3.8229,-6.86117 2.3104,0.234994 3.0107,-0.559694 3.366,-3.819971 0.7154,-6.563956 2.6938,-7.199643 5.0272,-1.615189 3.6225,8.669638 6.8743,5.880684 6.8743,-5.895735 0,-8.489968 1.8046,-9.844638 9.0928,-6.825765 4.8367,2.00345 8.0601,7.618204 8.0601,14.039835 0,2.553246 0.4256,5.067837 0.9457,5.587996 0.5202,0.520158 3.6218,-1.680546 6.8924,-4.890463 6.1972,-6.082055 8.4481,-6.220461 11.9099,-0.73236 2.0361,3.22789 -2.7816,8.301892 -6.9008,7.268024 -2.3956,-0.601248 -4.0775,0.490913 -7.8051,5.068139 -5.6107,6.889506 -18.3174,25.807166 -22.1442,32.967864 l -2.6935,5.040271 3.7227,3.885687 c 2.0476,2.1371295 3.7228,4.623783 3.7228,5.5259026 0,3.3052731 -5.3192,1.5097463 -9.4437,-3.1877795 z m 1.8012,-22.9597531 c -0.5316,-1.698141 -2.4257,-4.83305 -4.2092,-6.96646 -1.7836,-2.133401 -3.2429,-4.449044 -3.2429,-5.145879 0,-0.69682 -0.9262,-1.266942 -2.0583,-1.266942 -3.501,0 -2.2884,4.067768 3.0875,10.356814 5.7042,6.673091 7.8869,7.700261 6.4229,3.022467 z m 1.6389,-13.550809 c -0.4717,-2.358527 -0.8575,-5.137301 -0.8575,-6.175052 0,-1.037753 -0.9263,-1.886823 -2.0585,-1.886823 -2.413,0 -2.7866,5.680608 -0.6378,9.695848 2.2787,4.257645 4.5256,3.224557 3.5538,-1.633973 z m 7.933,-3.558205 c -2.102,-3.332457 -4.6739,-3.759331 -4.6739,-0.775766 0,3.556598 2.8794,6.291721 4.7034,4.467736 0.9651,-0.965188 0.9559,-2.129913 -0.03,-3.69197 z m 6.6127,-5.891536 c -0.9245,-1.480379 -1.6809,-3.645614 -1.6809,-4.81164 0,-1.166017 -0.9263,-2.475471 -2.0584,-2.909891 -2.8805,-1.105362 -2.5631,-2.788626 0.6861,-3.638315 3.6162,-0.94566 3.4933,-4.411222 -0.2495,-7.032793 -2.2079,-1.546412 -3.469,-1.702888 -4.8028,-0.595908 -2.6957,2.237196 -2.1484,10.944748 0.9356,14.887476 1.4759,1.886823 2.6972,4.078967 2.714,4.871431 0.017,0.792466 0.7715,2.181852 1.6772,3.087526 2.6057,2.605721 4.8604,-0.524592 2.7787,-3.857886 z m -561.93789,41.743728 -6.32512,-4.927856 -5.64434,4.535905 c -4.67583,3.7576442 -5.86246,4.1911318 -6.91529,2.526448 -1.88645,-2.982537 -1.61748,-4.252951 1.63289,-7.712779 2.43756,-2.594714 2.64537,-3.497825 1.2042,-5.234319 -0.9579,-1.154224 -2.49655,-2.098582 -3.41931,-2.098582 -2.64027,0 -6.50967,-5.028262 -5.98115,-7.772485 0.73026,-3.792127 4.48127,-3.758672 12.94346,0.115405 7.32798,3.35485 10.14593,3.556668 10.14593,0.726626 0,-0.703738 -3.26764,-3.123686 -7.26152,-5.37769 -3.99388,-2.253991 -8.99189,-5.904269 -11.10678,-8.11174 -3.66983,-3.830412 -3.7195,-4.053496 -1.08856,-4.888515 1.51617,-0.481214 4.30987,-0.485127 6.20811,-0.0082 2.99896,0.752686 3.35285,0.489136 2.69926,-2.010226 -1.17436,-4.490498 1.92503,-6.978564 8.69318,-6.978564 5.18109,0 6.22666,-0.488322 7.34526,-3.430584 1.68825,-4.44037 5.887,-4.442663 18.44987,-0.0096 5.24157,1.849442 9.8637,3.029193 10.27119,2.621667 1.16258,-1.162529 -5.48855,-5.766634 -11.97152,-8.287016 -6.31874,-2.456588 -7.49732,-6.324875 -2.16004,-7.090113 3.01615,-0.432447 13.06126,5.62786 17.55028,10.588185 1.42527,1.574913 2.9865,2.863466 3.46948,2.863466 2.13,0 15.37827,13.636656 14.55014,14.976631 -1.58233,2.56037 -5.02079,1.647022 -9.88815,-2.626525 -5.06742,-4.44929 -6.65652,-4.956756 -8.11772,-2.592451 -0.51812,0.83834 0.74292,2.867748 2.80224,4.509806 3.48714,2.780544 3.66129,3.404649 2.5371,9.089595 -1.52344,7.703281 -5.2719,9.988463 -14.74589,8.989588 -3.71587,-0.391786 -7.39002,-1.346246 -8.16484,-2.121023 -0.77473,-0.77568 -2.21148,-1.409598 -3.19255,-1.409598 -3.92742,0 -1.3646,3.802337 6.34838,9.419096 11.19562,8.152865 13.38865,10.73998 11.56718,13.646152 -3.05355,4.8722818 -6.59331,3.4110843 -15.83238,-6.535607 -9.35433,-10.070662 -10.09096,-10.520918 -13.47277,-8.235297 -1.72007,1.162515 -1.27753,2.061109 2.69268,5.467913 2.61298,2.242232 5.23745,4.076783 5.83194,4.076783 1.68011,0 1.27223,4.748848 -0.56563,6.5867228 -2.54456,2.5445331 -4.26511,2.0354353 -11.08921,-3.2811768 z m 29.45466,-25.738771 c -0.23874,-1.394714 0.59371,-3.671454 1.84974,-5.059415 4.14279,-4.577703 -0.0805,-7.307638 -4.70214,-3.039565 -1.43018,1.320775 -4.25117,3.781602 -6.26868,5.468489 -4.76035,3.980192 -3.2967,6.102844 3.84918,5.582123 4.6779,-0.340875 5.62785,-0.872726 5.2719,-2.951632 z m -16.98563,-6.202168 5.90811,-5.190393 -5.67801,-1.701187 c -5.36339,-1.606898 -6.0214,-1.477867 -11.87247,2.328215 l -6.19437,4.029413 5.27809,2.741601 c 2.90305,1.507892 5.58701,2.795871 5.96436,2.862177 0.37735,0.06628 3.3447,-2.215101 6.59429,-5.069826 z m -13.62277,-6.910283 c 2.42636,-1.536806 0.7812,-4.24911 -2.57715,-4.24911 -2.94547,0 -4.68487,2.087265 -3.4306,4.116703 1.03751,1.678804 3.48125,1.732666 6.00775,0.132421 z m 25.89811,-5.282814 c 0.65928,-1.977841 -9.65746,-5.124468 -12.82105,-3.910466 -3.2274,1.238468 -0.83176,3.540211 5.14517,4.943471 5.41316,1.270909 6.97812,1.060298 7.67588,-1.033005 z m 22.64038,-2.895646 c -2.45287,-2.099791 -4.45977,-4.235962 -4.45977,-4.74705 0,-2.122159 8.43529,-0.727354 10.97788,1.81523 3.31006,3.310009 3.46319,4.919487 0.57388,6.028239 -2.68003,1.028433 -1.85043,1.390648 -7.09199,-3.096419 z m -14.83031,-14.315529 c -4.19129,-3.605174 -3.91662,-7.827564 0.50919,-7.827564 3.34323,0 7.4876,4.613503 6.89409,7.674534 -0.71593,3.692777 -3.22769,3.744703 -7.40328,0.15303 z m 600.64005,-46.550323 c -14.042,-16.67585 -14.3175,-16.90792 -26.2562,-22.11236 l -12.0653,-5.25965 2.0639,-5.25435 2.0641,-5.25433 11.1601,5.02505 c 10.8248,4.874 11.5934,5.01492 25.5687,4.68768 7.9247,-0.18556 18.298,-0.70107 23.052,-1.14557 l 8.6435,-0.8082 -2.1693,5.19178 c -1.1931,2.85549 -2.5082,5.53226 -2.9226,5.94841 -0.4143,0.41612 -7.2196,0.96811 -15.1227,1.22662 -7.9031,0.25853 -14.1826,0.98503 -13.9543,1.61443 0.2283,0.6294 3.1938,4.14828 6.5902,7.81974 13.7294,14.84186 12.7425,12.9209 9.9801,19.42507 l -2.4413,5.74839 -14.1909,-16.85271 z m -704.25271,-5.37619 c -3.34795,-7.74358 -6.28095,-14.53804 -6.51782,-15.0988 -0.23678,-0.56075 1.37992,-1.95576 3.59267,-3.10001 l 4.02313,-2.08047 3.82592,9.2042 c 2.10418,5.06231 4.30133,9.74525 4.88257,10.40654 1.18957,1.35346 16.35384,-4.48738 16.35384,-6.29903 0,-0.63858 -1.54376,-4.82889 -3.4306,-9.31177 -4.27748,-10.16289 -4.26904,-10.4171 0.39904,-12.04442 3.76545,-1.31262 3.89483,-1.17673 7.71122,8.09916 2.13481,5.1888 4.40765,9.43419 5.05073,9.43419 1.14903,0 16.4738,-6.5355 17.32814,-7.38991 0.24031,-0.24025 -1.42704,-4.81703 -3.70517,-10.17059 -2.27824,-5.35355 -4.14211,-10.33364 -4.14211,-11.06683 0,-0.73322 1.69336,-1.89758 3.76309,-2.58748 3.74012,-1.24671 3.80304,-1.1619 10.30692,13.90545 3.59915,8.3379 6.37087,15.67882 6.15942,16.31316 -0.40425,1.21296 -51.08501,23.75034 -56.41856,25.08897 -2.80911,0.70505 -3.65815,-0.5249 -9.18243,-13.30236 z m 738.34941,-38.22208 c -3.6388,-0.92361 -3.9204,-2.35651 -2.1647,-11.01695 l 0.979,-4.82888 -26.5087,-6.85557 -26.5088,-6.85557 0.3266,-5.33768 c 0.1796,-2.93571 0.4993,-5.51039 0.7104,-5.7215 0.2111,-0.2111 11.7968,2.64501 25.7458,6.34691 13.9492,3.70192 26.3811,6.74892 27.6265,6.77115 1.5967,0.0286 2.7534,-1.99679 3.9216,-6.86633 1.4699,-6.12767 1.9884,-6.8068 4.5966,-6.02082 1.6168,0.48725 3.4861,1.39374 4.1538,2.0144 1.0631,0.98812 -6.4271,33.72368 -8.6422,37.77053 -0.454,0.8291 -2.3024,1.09107 -4.2359,0.60031 z m -727.28367,-13.76652 c -16.22662,-1.32426 -29.63361,-2.4765 -29.79323,-2.56052 -1.15551,-0.60839 -3.10695,-11.70585 -2.21109,-12.57429 3.46496,-3.35898 56.15577,-35.31964 56.89878,-34.5131 0.48887,0.53063 1.30698,2.9501 1.81804,5.3766 0.87858,4.17168 0.54776,4.64652 -6.07657,8.72254 -4.91997,3.02728 -6.80564,4.9822 -6.33336,6.56605 0.36998,1.24043 1.70082,6.42349 2.95744,11.51791 l 2.28491,9.26258 7.98559,0 c 8.71536,0 8.76199,0.0299 10.15359,6.51811 1.14,5.31551 4.80531,5.1517 -37.6841,1.68412 z m 8.37895,-17.80787 c -1.17976,-4.52837 -2.67885,-8.2334 -3.33136,-8.2334 -1.92935,0 -26.94063,14.31468 -26.97332,15.43763 -0.0167,0.56605 7.27792,1.02918 16.20993,1.02918 l 16.23977,0 -2.14502,-8.23341 z m 700.37952,-29.35502 -28.8168,-4.36692 0.4786,-5.43783 c 0.2634,-2.99081 0.5942,-5.56283 0.7353,-5.71561 0.141,-0.15278 14.1282,1.84125 31.0826,4.43118 16.9544,2.58992 31.46,4.72181 32.2347,4.73754 0.8129,0.0165 1.1872,2.34938 0.8851,5.51752 -0.6396,6.7058 1.7831,6.65059 -36.5995,0.83412 z m -741.00595,-7.55886 c -7.62591,-3.35808 -12.62079,-15.0454 -11.01283,-25.76825 0.84001,-5.60152 1.13755,-5.92956 5.37782,-5.92956 l 4.48853,0 -0.62943,7.59056 c -0.73075,8.81176 1.82794,12.99295 7.95094,12.99295 4.51023,0 6.85345,-2.53747 11.47931,-12.43113 5.54618,-11.8621 8.9221,-14.32744 19.61904,-14.32744 8.30257,0 9.19352,0.30434 12.84097,4.38662 4.40323,4.92803 6.82449,12.15623 6.80466,20.3136 -0.0167,6.91793 -0.9581,8.27953 -6.46432,9.35052 l -4.43464,0.86255 0.83245,-7.96395 c 0.94926,-9.08195 -0.66881,-13.37799 -5.76892,-15.31708 -6.01344,-2.28627 -9.47791,0.40705 -15.06266,11.70987 -2.85378,5.77548 -6.64298,11.45376 -8.42037,12.61838 -3.85841,2.5281 -13.75932,3.60386 -17.60055,1.91236 z m 721.46505,-25.38658 c -4.8585,-4.45243 -5.1148,-5.12955 -5.5845,-14.75152 -0.2709,-5.54668 0.1174,-11.66599 0.8628,-13.59848 1.1756,-3.04806 2.0091,-3.43725 6.2908,-2.93739 2.7146,0.31691 4.9356,0.74199 4.9356,0.94461 0,0.20261 -0.9262,2.58525 -2.0583,5.29473 -2.9537,7.06929 -2.5523,11.50646 1.3984,15.45721 5.076,5.07597 9.8603,4.0132 15.0212,-3.33673 8.9452,-12.73969 13.4573,-16.83889 19.4144,-17.6379 7.2334,-0.97021 14.1803,2.23162 17.6885,8.15266 2.7229,4.59555 3.4666,14.75195 1.606,21.93357 -0.8377,3.23388 -1.6818,3.77364 -5.901,3.77364 -4.1549,0 -4.7675,-0.37491 -3.9245,-2.40141 0.5495,-1.32077 1.3009,-5.22264 1.6698,-8.67081 0.8292,-7.75144 -1.9267,-11.24238 -8.3793,-10.61457 -3.6039,0.35064 -5.2754,1.91364 -10.4811,9.80074 -7.2828,11.03417 -10.5162,13.1442 -20.2423,13.20965 -6.3369,0.0427 -7.8498,-0.5246 -12.3165,-4.618 z m -733.12901,-31.4841 c 0,-3.27887 0.40257,-12.54145 0.89458,-20.58351 l 0.89469,-14.62192 4.49511,0 4.49521,0 -0.76255,7.38772 -0.76246,7.38772 12.18258,0.82638 c 6.70041,0.45451 19.43821,1.21786 28.30621,1.69633 l 16.12374,0.86996 0,5.49145 0,5.49148 -25.72926,-0.94599 c -14.1512,-0.52029 -26.72968,-1.22905 -27.95214,-1.57505 -2.28088,-0.64553 -3.95235,4.12395 -3.95235,11.27796 0,2.70635 -0.69815,3.25906 -4.11668,3.25906 -3.94244,0 -4.11668,-0.25243 -4.11668,-5.96159 z m 728.19851,-11.42004 c -0.5032,-0.50315 -0.9148,-3.18375 -0.9148,-5.95689 0,-4.9687 0.1424,-5.09941 9.7946,-8.98508 12.869,-5.18065 16.2778,-7.95264 16.2778,-13.23692 l 0,-4.19428 -11.321,0.95625 c -6.2264,0.52595 -12.7103,1.29014 -14.4085,1.69819 -2.6713,0.64194 -3.1151,0.16707 -3.2933,-3.52353 -0.1132,-2.34602 -0.2675,-5.03232 -0.343,-5.96959 -0.098,-1.21868 9.0488,-2.7467 32.1102,-5.36412 17.7361,-2.01302 32.4012,-3.51096 32.5892,-3.32878 1.0114,0.98042 1.957,25.83884 1.1471,30.15581 -1.2044,6.42006 -7.2218,10.41795 -15.6914,10.42523 -4.9665,0.004 -6.7557,-0.78133 -10.6512,-4.67685 -4.2703,-4.27034 -4.7987,-4.46388 -6.0096,-2.2012 -0.7303,1.36444 -7.2496,5.32384 -14.4874,8.79868 -14.6923,7.05365 -13.5612,6.64068 -14.7987,5.40308 z m 52.3156,-22.03877 c 0.9794,-1.338 1.5989,-4.90276 1.3768,-7.92167 l -0.404,-5.48893 -7.5473,0.43259 c -12.0471,0.6905 -12.7891,1.12296 -11.8622,6.91377 1.0868,6.78996 5.5569,10.29812 11.826,9.2808 2.6565,-0.4311 5.6313,-1.87855 6.6107,-3.21656 z m -63.9823,-47.23394 c -2.4703,-9.11452 -4.2839,-16.7795 -4.0301,-17.03331 1.0174,-1.01747 61.7631,-17.20113 62.3524,-16.61175 0.3486,0.34849 2.5417,7.54867 4.8738,16.00038 3.5453,12.84926 3.9243,15.56657 2.3133,16.5865 -4.5189,2.86098 -6.5076,1.3576 -8.7681,-6.62856 -1.2284,-4.3397 -2.5488,-8.97099 -2.9343,-10.29176 -0.3855,-1.32077 -1.4735,-2.40141 -2.4177,-2.40141 -2.5027,0 -15.9373,4.10807 -15.9373,4.87335 0,0.35767 1.2043,4.99621 2.6762,10.30784 2.7921,10.07527 2.7376,10.25743 -3.3388,11.16912 -2.3129,0.34703 -3.1163,-1.09333 -5.3572,-9.60307 l -2.6361,-10.01132 -4.219,0.92665 c -7.1892,1.57901 -14.7692,3.96855 -14.8698,4.68754 -0.053,0.37737 1.0306,5.4637 2.4072,11.30297 1.3765,5.83926 2.2375,10.8468 1.9132,11.12788 -0.3244,0.28107 -2.1527,0.88448 -4.0629,1.34092 -3.4017,0.81281 -3.5655,0.48926 -7.9648,-15.74197 z m -677.90611,7.1835 c -8.66588,-2.9926 -12.94748,-5.98374 -18.64896,-13.02804 -3.81914,-4.7187 -4.19246,-6.06682 -4.15536,-15.0058 0.0314,-7.46642 0.77797,-11.21969 3.1154,-15.65332 3.29955,-6.25845 3.79784,-6.51135 8.96254,-4.54775 l 3.37778,1.28425 -3.28845,6.49561 c -3.8107,7.52708 -4.09597,11.4664 -1.23159,17.00555 4.21936,8.15931 15.20736,13.72513 27.09613,13.72513 11.97083,0 19.2886,-7.24281 19.46716,-19.26754 l 0.0942,-6.33711 5.2345,1.32775 c 5.22684,1.3258 5.23312,1.336 4.28425,6.9522 -1.52559,9.03006 -4.54871,16.3078 -8.54288,20.56582 -8.34508,8.89649 -21.74324,11.32526 -35.76456,6.48325 z m 45.0805,-45.48285 c -2.51707,-1.57897 -47.4995,-23.04693 -51.79671,-24.7201 -3.03499,-1.18167 -3.04628,-1.276 -0.73536,-6.12208 2.68228,-5.6248 2.32535,-5.64911 17.03972,1.16069 l 10.47744,4.84898 4.11884,-9.3251 4.11875,-9.32508 -12.1386,-5.73446 -12.1387,-5.73443 2.25634,-4.73151 c 1.24092,-2.60234 2.66913,-4.7315 3.1737,-4.7315 0.50458,0 7.95458,3.33219 16.55567,7.40487 8.6011,4.07268 21.66726,10.20945 29.03598,13.63726 l 13.39768,6.23237 -2.33095,4.88791 c -1.28195,2.68835 -2.84769,4.8879 -3.47939,4.8879 -0.6317,0 -6.06115,-2.47002 -12.06547,-5.48894 -6.00431,-3.01891 -11.53929,-5.48893 -12.29988,-5.48893 -1.18143,0 -9.65589,15.02344 -9.65589,17.11781 0,0.40109 5.86492,3.48813 13.03319,6.86007 l 13.03328,6.13081 -2.30955,4.84305 c -2.37836,4.9874 -3.73698,5.6193 -7.29009,3.39041 z M 1212.3698,-420.364 c -1.2328,-3.08144 -1.9717,-5.91137 -1.6418,-6.28873 0.3299,-0.37737 11.862,-10.42753 25.6269,-22.3337 l 25.0271,-21.64758 2.7057,5.30378 2.7058,5.30377 -5.7476,4.77979 c -3.1612,2.62888 -12.0367,9.82302 -19.7235,15.98699 -7.6868,6.16395 -14.2824,11.70293 -14.6568,12.30883 -0.3745,0.6059 9.9285,-0.59217 22.8954,-2.66237 12.967,-2.07021 24.641,-3.79477 25.9425,-3.83236 2.4817,-0.0717 7.4075,7.764 5.86,9.32178 -0.4926,0.49591 -15.7133,2.80532 -33.8238,5.13203 l -32.9282,4.23037 -2.2417,-5.6026 z m -18.7305,-35.79997 c -1.425,-2.64605 -2.3373,-5.02875 -2.0273,-5.29487 0.3099,-0.26612 11.0611,-6.82041 23.8915,-14.56506 12.8304,-7.74466 24.5461,-14.93328 26.0347,-15.97473 4.0791,-2.85362 5.9195,-2.32447 8.3653,2.40524 2.5051,4.84435 3.2229,3.94359 -9.0136,11.31107 -4.1511,2.49927 -15.7852,9.5808 -25.8538,15.73675 -10.0686,6.15594 -18.4187,11.19263 -18.5562,11.19263 -0.1373,0 -1.4156,-2.16496 -2.8406,-4.81103 z m -571.64301,-6.72178 c -2.63261,-1.81468 -10.0353,-6.65008 -16.45053,-10.74533 -28.28472,-18.05604 -31.56101,-20.26374 -31.55453,-21.26261 0,-0.58126 1.39307,-2.74728 3.08751,-4.81336 l 3.08074,-3.75652 13.03623,8.43588 c 7.16993,4.63973 19.21125,12.43274 26.75853,17.3178 7.54729,4.88506 13.9368,9.06602 14.1991,9.29102 0.90715,0.77843 -4.50463,8.83252 -5.93481,8.83252 -0.78964,0 -3.58963,-1.48473 -6.22224,-3.2994 z m 556.52671,-16.38446 c -1.9252,-2.52411 -3.5005,-5.11576 -3.5005,-5.75925 0,-0.6435 5.6011,-11.60535 12.4468,-24.35971 6.8458,-12.75438 12.2184,-23.41812 11.9392,-23.69723 -0.2791,-0.27911 -8.951,6.26411 -19.2711,14.54052 -10.3201,8.27643 -19.3021,15.04805 -19.96,15.04805 -1.562,0 -5.7384,-4.63254 -5.7384,-6.36523 0,-1.00269 35.3252,-30.30064 48.8387,-40.50574 0.9293,-0.70182 3.1184,0.88816 5.7762,4.1954 l 4.2797,5.32549 -13.0089,24.36417 c -7.155,13.40031 -12.8,24.5732 -12.5445,24.82867 0.2554,0.25547 9.3292,-6.72062 20.1639,-15.50244 l 19.6995,-15.96691 3.1608,3.96401 c 2.4849,3.11642 2.8008,4.31215 1.4772,5.59205 -4.087,3.95226 -48.3209,38.88745 -49.2379,38.88745 -0.5611,0 -2.5954,-2.0652 -4.5207,-4.5893 z m -560.97019,-22.90836 c -13.39639,-11.34875 -24.3571,-21.10718 -24.3571,-21.68536 0,-0.57821 2.0391,-3.02769 4.53143,-5.44328 l 4.53134,-4.39203 25.9469,8.17906 c 14.27086,4.49847 26.20311,7.9229 26.51616,7.6098 0.31305,-0.31307 -1.48338,-2.29276 -3.99201,-4.39927 -2.50883,-2.10653 -11.23744,-9.50049 -19.39708,-16.43106 l -14.8357,-12.60099 3.31417,-3.85297 c 3.06376,-3.56184 3.50541,-3.69036 5.84548,-1.70114 1.39219,1.18346 12.56572,10.64803 24.82997,21.0323 12.26445,10.38427 22.29886,19.32349 22.29886,19.86494 0,0.54149 -2.06011,2.98123 -4.57806,5.42168 l -4.57796,4.43719 -24.58191,-7.6658 c -13.52018,-4.21621 -25.50829,-7.9535 -26.64034,-8.30511 -2.60846,-0.81019 6.62443,7.88589 23.656,22.28068 l 13.26947,11.2152 -2.78162,3.53631 c -1.52992,1.94498 -3.20001,3.53579 -3.71126,3.53513 -0.51125,-6.5e-4 -11.89024,-9.28653 -25.28674,-20.63528 z m 49.13966,-53.71509 -12.05869,-31.81232 4.61595,-3.83462 c 2.53877,-2.10904 5.37527,-3.56408 6.30323,-3.23345 0.92806,0.33062 7.72055,4.5406 15.09457,9.35547 7.37402,4.81487 19.7757,12.8737 27.55937,17.9085 l 14.15208,9.15416 -4.05837,3.41497 c -2.23219,1.87822 -4.47558,3.41494 -4.98535,3.41494 -0.50978,0 -3.68397,-1.89689 -7.05361,-4.21529 -3.36964,-2.31835 -6.5994,-4.0165 -7.1773,-3.77362 -2.96824,1.24756 -16.55086,13.0126 -16.61692,14.39323 -0.0422,0.88085 1.20076,4.58138 2.76189,8.22339 l 2.83847,6.62188 -3.60112,3.09755 c -1.98059,1.70365 -4.07682,3.09752 -4.65836,3.09752 -0.58144,0 -6.48366,-14.31553 -13.11584,-31.81231 z m 18.57209,-3.97399 6.68529,-5.5972 -3.75032,-3.05022 c -7.62592,-6.20242 -22.27619,-16.04829 -22.29661,-14.98475 -0.0285,1.45102 11.54077,29.19914 12.18081,29.21617 0.27261,0.007 3.50393,-2.50558 7.18083,-5.584 z m 448.79024,30.20139 c -8.9405,-3.58084 -16.7078,-13.2812 -16.6359,-20.77592 0.073,-7.53539 7.6276,-18.35002 29.6437,-42.43163 l 5.8106,-6.3558 4.2466,3.61134 4.2468,3.61134 -15.8661,18.49409 c -8.7262,10.17173 -16.2181,19.89745 -16.6487,21.6127 -1.2865,5.12632 0.6697,9.79686 5.053,12.06358 3.7444,1.93628 4.5362,1.93054 8.5566,-0.062 2.4367,-1.20768 11.2229,-10.15677 19.5249,-19.88681 8.3021,-9.73007 15.4423,-17.71849 15.8671,-17.75205 0.4248,-0.0336 2.3966,1.63715 4.3817,3.71266 l 3.6092,3.77363 -5.7539,6.8079 c -28.496,33.71584 -34.5906,38.16105 -46.0356,33.57703 z m -67.7817,-46.825 c -7.3587,-3.88218 -13.3793,-7.5681 -13.3793,-8.19094 0,-0.89577 28.1975,-55.28768 29.666,-57.22472 0.2084,-0.27479 2.5676,0.85314 5.2428,2.50653 l 4.864,3.00612 -6.3452,11.90192 c -3.4899,6.54605 -9.4147,17.65326 -13.1662,24.68274 -3.7516,7.02945 -6.6034,12.95937 -6.337,13.17759 0.2662,0.21824 4.6371,2.69354 9.7132,5.50065 9.1847,5.07937 9.2185,5.11991 7.0463,8.43508 -1.2004,1.83217 -2.5748,3.31599 -3.054,3.29739 -0.4793,-0.0187 -6.892,-3.2102 -14.2506,-7.09236 z m -319.64154,-8.99754 c -2.30935,-5.09445 -8.41732,-18.4049 -13.57329,-29.5788 l -9.37444,-20.31622 6.23412,-2.67227 c 7.3752,-3.16135 5.47097,-4.23919 26.13547,14.79346 14.86535,13.6914 22.39379,20.15554 22.39379,19.22792 0,-0.33424 -4.63127,-10.62744 -10.29181,-22.87375 -5.66043,-12.24632 -10.2917,-22.75914 -10.2917,-23.36186 0,-1.21114 8.01818,-4.85621 8.83168,-4.0149 0.75951,0.78533 25.1228,54.20504 26.02838,57.07041 0.60794,1.92361 -0.59282,3.02872 -5.47932,5.04316 l -6.25798,2.57975 -5.04327,-4.71214 c -21.58058,-20.16355 -35.91858,-32.78176 -35.91858,-31.61025 0,0.76474 4.32254,10.77425 9.60562,22.24338 5.28309,11.46912 9.60573,21.61944 9.60573,22.55631 0,1.43923 -5.43162,4.88835 -7.69797,4.88835 -0.38913,0 -2.59708,-4.16814 -4.90643,-9.26255 z m 291.42544,-4.82284 -4.5451,-1.45514 0.901,-8.4139 0.9011,-8.41393 -11.1633,-3.88607 c -6.1398,-2.13733 -11.3427,-3.6539 -11.5618,-3.37014 -0.2191,0.28375 -2.516,3.34402 -5.1042,6.80059 -2.922,3.90254 -5.4805,6.03842 -6.7499,5.63498 -1.1243,-0.35734 -3.44531,-1.16773 -5.15772,-1.80085 l -3.11362,-1.15115 3.7997,-5.20643 c 2.08986,-2.86354 11.49584,-15.22431 20.90214,-27.46836 18.1444,-23.61814 16.9068,-22.68832 25.7798,-19.36896 3.0391,1.13693 3.0875,1.52908 3.0875,24.99604 0,24.77935 -1.1739,44.94033 -2.6027,44.69853 -0.4553,-0.0772 -2.8732,-0.7949 -5.3729,-1.59521 z m -1.5007,-43.68091 c 0.6819,-8.4825 1.0096,-15.65285 0.7283,-15.9341 -0.5564,-0.55645 -17.1493,22.24709 -18.222,25.04235 -0.4192,1.09266 2.232,2.69038 7.3245,4.41395 4.3898,1.48574 8.1949,2.52119 8.4555,2.30094 0.2606,-0.22022 1.0318,-7.34063 1.7137,-15.82314 z m -213.51157,29.59181 c -0.7547,-0.2213 -3.05904,-0.77402 -5.12072,-1.22833 -4.72698,-1.0416 -12.86463,-8.11284 -15.74658,-13.68316 -5.67448,-10.96759 -7.52451,-28.16781 -3.94529,-36.67903 5.52782,-13.14462 20.98982,-18.67529 33.85759,-12.11062 16.51258,8.42408 23.42934,43.24643 11.04906,55.62667 -5.43927,5.43929 -15.41292,9.44704 -20.09406,8.07447 z m 9.88148,-10.9384 c 7.34339,-5.14356 7.01591,-22.80298 -0.68667,-37.02942 -6.16767,-11.39146 -16.67946,-13.4285 -22.42373,-4.34548 -5.36457,8.4825 -0.37922,32.19511 8.5098,40.47647 3.72068,3.46635 10.35178,3.87438 14.6006,0.89843 z m 142.28244,5.12909 c -1.10093,-0.72723 -0.6261,-8.08221 1.70406,-26.39449 1.7768,-13.96248 3.05384,-25.9313 2.83788,-26.59736 -0.21587,-0.66609 -5.61401,10.57459 -11.99587,24.97921 -11.14201,25.14894 -11.73975,26.1585 -15.0339,25.39103 -1.88684,-0.43958 -3.78724,-1.18264 -4.22309,-1.65125 -0.43586,-0.46859 -2.52188,-12.58461 -4.63559,-26.92445 -2.11371,-14.33984 -4.25912,-26.53665 -4.76752,-27.10403 -0.5084,-0.56734 -2.37257,11.01087 -4.1427,25.72939 l -3.21836,26.76099 -4.51995,0 c -2.48595,0 -4.78568,-0.46314 -5.11061,-1.02919 -0.32483,-0.56603 1.15639,-14.61428 3.2915,-31.21833 2.1351,-16.60401 3.90817,-30.96642 3.94018,-31.91643 0.0432,-1.28623 2.07277,-1.50427 7.94848,-0.85396 4.33972,0.48032 8.34224,1.27724 8.89452,1.77087 0.55228,0.49367 2.56694,11.64056 4.47705,24.77095 1.91001,13.13039 3.74758,24.14824 4.0835,24.48413 0.65182,0.65176 3.09271,-4.71592 13.73438,-30.20188 l 6.70708,-16.06299 6.26652,0.82943 c 11.50955,1.52335 10.97356,-1.35205 6.40925,34.38413 l -4.07487,31.90443 -3.52288,-0.0211 c -1.93759,-0.0116 -4.20964,-0.47469 -5.04906,-1.02919 z m -107.58573,-6.15404 c -0.0108,-1.69814 -0.93208,-15.43764 -2.04744,-30.5322 -1.11546,-15.09457 -2.03302,-28.44069 -2.03901,-29.65808 -0.0167,-3.31304 23.80885,-4.93975 30.62657,-2.09109 6.08598,2.54286 9.5316,7.72774 9.5316,14.34276 0,7.788 -1.35527,10.58848 -6.45244,13.33354 l -4.64835,2.50331 3.12354,2.45705 c 2.51874,1.98122 8.9221,14.78012 13.95065,27.88428 0.65201,1.69927 -0.38874,2.10351 -5.41611,2.10351 l -6.22322,0 -2.82109,-7.89036 c -4.69734,-13.13845 -7.29853,-17.2376 -11.66701,-18.38615 -2.19951,-0.57828 -4.54822,-0.71208 -5.21938,-0.29727 -0.68373,0.42256 -0.79907,6.49182 -0.2624,13.8035 1.0492,14.29433 0.55218,15.45364 -6.64288,15.49374 -2.99906,0.0168 -3.77762,-0.61271 -3.79303,-3.06654 z m 16.59847,-35.33502 c 3.83926,0 8.12116,-4.90361 8.12116,-9.30031 0,-6.61729 -3.44611,-9.91096 -10.36955,-9.91096 l -6.09728,0 0,8.12118 c 0,9.67174 1.01131,12.8945 3.7199,11.85509 1.09641,-0.42074 3.17802,-0.765 4.62577,-0.765 z" transform="translate(-109.632 177.692) scale(.24003)"/></g></g></svg>