<svg xmlns="http://www.w3.org/2000/svg" role="img" viewBox="2.86 -1.14 202.28 75.78"><title>Eiffel logo</title><path fill="#fefefe" d="M6.75277 36.95325V2.88437h194.57895v68.13777H6.75277z"/><path fill="#cdcdcd" d="M199.97432 70.30308c-.02138-.0633-.0507-.21389-.06515-.33462l-.02625-.21952-87.67468-.0439-87.67468-.0439-.85851-.23702c-.9876-.27266-2.25016-.84666-3.05964-1.391-.7654-.5147-2.18115-1.91597-2.71283-2.68506-.95904-1.38732-1.61303-3.17405-1.72515-4.71326-.04804-.65947-.0768-.76439-.19649-.71684-.07712.03063-.33778.13083-.57925.22267-.65874.25052-1.60661 1.0099-2.12843 1.70516-.86545 1.1531-1.19315 2.49535-1.14705 4.69822l.02665 1.2732.30732.0439c.29269.0418.30732.06062.30732.39513v.35122l-2.8098.02454c-1.5454.0135-2.89871.00286-3.00737-.02362-.15646-.03814-.19756-.10998-.19756-.34523 0-.24892.0413-.31146.2549-.38592l.25492-.08886.0401-2.35636c.03488-2.04893.06507-2.45372.2314-3.1027.22733-.88697.99639-2.52915 1.53682-3.2816.45-.62653 2.02573-2.18778 2.59901-2.57511 1.1589-.783 3.2818-1.60603 4.14405-1.60662l.32446-.00025.02998-4.8074.02997-4.8074.2338-.85851c.2827-1.03805.86387-2.29263 1.46451-3.1615.53444-.77308 1.94908-2.17604 2.71015-2.68775.79629-.5354 2.04426-1.11143 3.00475-1.38693l.83416-.23926 5.86108-.02983c3.2236-.0164 5.86108-.0606 5.86108-.0982 0-.03761-.09977-.36177-.22172-.72036-.59789-1.75815-1.921-2.93633-3.90116-3.47377-.2907-.0789-1.19476-.16296-2.24309-.20857-1.2751-.05548-1.96056-.12685-2.50248-.26055-.87703-.21638-2.51827-.98142-3.2816-1.52967-.62652-.45-2.18777-2.02573-2.5751-2.59901-.48296-.71481-1.1692-2.1885-1.4022-3.0112-.2113-.7461-.23206-.97483-.26941-2.9689l-.04047-2.1605-.9352-.05155c-1.66287-.09165-3.4368-.69319-4.85336-1.64577-.7654-.5147-2.18115-1.91597-2.71282-2.68506-.59442-.85986-1.17634-2.10018-1.4575-3.10656-.21538-.77092-.23714-1.00724-.287-3.11713L9.43087 6.9674l-.30732-.0439c-.29202-.04173-.30732-.0612-.30732-.39118 0-.4321.0946-.46602 1.33386-.47814.49216-.0048.91876-.04746.948-.09477.02924-.04732-.0277-.34783-.12653-.6678-.09883-.31998-.17969-.63608-.17969-.70245 0-.43342 3.20348-1.29027 5.87981-1.57271 1.6586-.17504 5.98526-.17595 7.77408-.00175 2.4205.23587 4.6736.73653 7.17451 1.59425 4.13176 1.41706 7.43182 3.22232 10.75464 5.88322 1.03617.82977 3.62958 3.35284 4.6351 4.5094 4.0665 4.67731 6.90478 10.73994 7.94524 16.97115.39624 2.37305.48082 3.3727.48082 5.6829 0 2.31021-.08458 3.30987-.48082 5.68291-.73614 4.40868-2.44001 8.91735-4.80895 12.72514-.81008 1.3021-2.24907 3.25021-3.15367 4.26946-.6895.77688-2.27468 2.25846-2.77438 2.59306l-.33517.22443-2.95757-2.95395-2.95756-2.95395-.65855.44453c-.96222.64951-2.61215 1.4522-3.53857 1.7215l-.80785.23484-5.94888.02972-5.94888.02972v.29408c0 .4072.31411 1.39433.6443 2.02479.15946.30447.5565.8093.94068 1.19605.72413.72897 1.48468 1.16444 2.5447 1.457.54342.14998 4.3295.15675 87.628.15675h87.06003l.0439-.30732c.04181-.29268.06063-.30732.39513-.30732h.35123v6.14645l-.32998.0273c-.21404.01769-.34365-.01315-.36888-.08781zM32.48746 54.53645c1.73807-.58709 2.80551-1.64316 3.4391-3.40246.37307-1.03591.41696-1.63203.41696-5.66275v-3.78517l-5.37814.02822c-5.35801.02811-5.38044.02898-5.99279.23246-1.00374.33353-1.6201.70818-2.33753 1.42084-.49747.49417-.74981.8324-.9833 1.31797-.6237 1.2971-.61758 1.24132-.65309 5.94795l-.032 4.24107 5.3396-.02693 5.3396-.02693zm8.61153-1.67118c1.91058-2.6056 3.43994-5.81966 4.29163-9.01919.27836-1.0457.6116-2.8667.6116-3.34206v-.29527l-.98782.47864c-1.0619.51454-2.2592.87418-3.22812.96966l-.60386.0595-.03193 4.79653c-.03068 4.60943-.0395 4.82563-.22598 5.54287-.10673.4105-.25256.89533-.32407 1.07741-.25114.63944-.11207.56465.49855-.26809zm.83765-16.30631c1.59036-.5077 2.75726-1.55987 3.38384-3.05117.32147-.76514.32532-1.11726.02426-2.22235-.67106-2.4632-1.78057-5.00066-3.1656-7.23973-.87371-1.41244-2.7992-3.85863-3.23017-4.10365-.14702-.08358-1.81974-.10876-7.2922-.10976l-7.10143-.00124.04263 1.51466c.0393 1.39662.06404 1.58013.31739 2.3548.39648 1.21232 1.00178 2.05217 1.9908 2.7622 1.07045.7685 1.95244.99804 4.21288 1.09639 1.2751.05547 1.96057.12684 2.50248.26055.87703.21638 2.51827.98142 3.2816 1.52967.62653.45 2.18777 2.02573 2.5751 2.599.80154 1.18633 1.50195 3.01583 1.6556 4.32447.0326.2777.07245.5049.08854.5049.01609 0 .33752-.09841.71428-.2187zM20.06846 14.49069c.0534-.28103.29726-.94041.54191-1.4653.24465-.52488.42207-.99114.39426-1.03613-.02951-.04775-.40199-.05845-.895-.0257-.46445.03084-1.18031.07693-1.5908.1024-.4105.02547-1.27384.12349-1.91853.21781-.6447.09433-1.188.1715-1.20734.1715-.13858 0 .0276.31424.36412.68853.80198.892 1.9214 1.50582 3.15487 1.72996 1.07022.19447 1.04517.20276 1.1565-.38307zm12.00918.43492c.12913-.20893-4.24527-1.94428-4.8977-1.94293-.19513.0005-.39772.10523-.69381.35901-.42043.36036-1.20622 1.3775-1.20622 1.56136 0 .12005 6.72368.14237 6.79773.02257zm135.79985 48.54715c-4.88083-.4037-8.6971-3.00165-10.91505-7.43051-.85321-1.70373-1.37464-3.44944-1.74144-5.83023-.16906-1.0973-.19687-1.6371-.20133-3.90738-.00562-2.84546.07007-3.63759.53671-5.61961 1.04905-4.4558 3.56533-7.92212 6.92101-9.5341 1.85387-.89055 3.34934-1.22154 5.8173-1.28752 2.59147-.0693 4.40112.1967 6.20968.91275 2.92504 1.15808 5.12318 3.38675 6.30897 6.39661.76961 1.95346 1.04921 3.7817 1.06085 6.9367l.00843 2.28297-10.82213.0223-10.82214.0223v.78542c0 2.1721.61443 4.80928 1.58644 6.80915 1.40422 2.88908 3.31575 4.58409 5.7454 5.09455 1.31177.2756 3.55902.15021 5.04886-.28172 1.96044-.56837 4.10585-2.07475 5.6595-3.97377.27877-.34075.56689-.61955.64024-.61955.07336 0 .87889.60105 1.79007 1.33566 1.17656.94856 1.65643 1.38754 1.65574 1.51466-.00124.2472-1.32625 1.74097-2.30565 2.59948-.9935.87085-2.6288 1.98004-3.5991 2.44119-.76191.3621-1.77416.70564-2.73757.92906-1.4668.34017-4.26383.53236-5.84478.4016zm8.88619-21.11941c-.06687-1.5712-.50697-3.24756-1.2448-4.74155-.6355-1.28674-1.26185-2.07061-2.09952-2.6275-2.28613-1.51981-6.44331-1.59598-8.86843-.16248-1.81723 1.07416-3.44162 3.54656-3.99643 6.08272-.17412.79593-.3207 1.94118-.26085 2.03803.02387.03862 3.74529.06014 8.2698.04782l8.22639-.0224zm17.1045 20.97988c-.8717-.18877-1.63705-.6053-2.23906-1.21861-.62919-.64098-.9154-1.14684-1.24583-2.20192l-.24688-.78833V15.74801l2.36002-.0234c1.66768-.01655 2.39538.00593 2.48053.07661.10152.08425.1205 3.3366.1205 20.63163 0 14.58315.02798 20.66644.09654 20.99693.29711 1.43234 1.28139 1.913 3.65285 1.78386l1.0713-.05833.13284.46747c.07308.2571.23868.8951.36801 1.41777.20039.80982.21708.96754.11295 1.06691-.17352.1656-1.7333.73214-2.67467.97149-1.57896.40146-2.91594.48669-3.9891.25429zm-123.76629-.49875c-.02299-.06053-.03167-10.67974-.0193-23.59826l.02248-23.48821 12.54696-.02225c9.19996-.01633 12.57873.0041 12.66607.0766.16226.13466.17503 4.02542.01376 4.1867-.0807.0807-2.42356.10537-10.0104.10537h-9.90502l.02242 7.88062.02243 7.88063 7.89768.02242c6.18438.01757 7.91274.04613 7.96709.13171.03817.0601.0694.93906.0694 1.95322s-.03123 1.89311-.0694 1.95322c-.05435.08558-1.7827.11415-7.96709.13171l-7.89768.02243-.02235 9.24162-.02236 9.24162h10.3508c8.67554 0 10.36703.01954 10.45102.12074.07031.08472.09316.73294.0766 2.17321l-.0236 2.05247-13.06384.02225c-10.4049.01772-13.07236-.00017-13.10564-.0878zm33.73684.05229c-.03295-.03294-.0599-7.34205-.0599-16.24245 0-15.90936.00288-16.1841.16984-16.27345.25909-.13867 4.49641-.12161 4.68722.01886.13944.10267.14762 1.15694.12653 16.31004l-.02255 16.20028-2.42063.02332c-1.33134.01282-2.44758-.00363-2.48053-.03659zm15.36156-.14039c-.02913-.10866-.05349-6.48929-.05414-14.17917l-.00125-13.9816-2.1293-.02353-2.1293-.02352-.02363-2.05724c-.01822-1.58725.00174-2.0734.0878-2.12796.06129-.0389 1.0301-.07132 2.15292-.07206l2.0415-.00125.00174-.98782c.001-.5433.0401-1.68037.08705-2.5268.21379-3.8544 1.13652-6.37328 3.06569-8.3687 1.17323-1.21354 2.32798-1.9488 3.87009-2.4642 2.7719-.9264 6.24363-.84913 9.13186.20326.94813.34547 1.3171.56879 1.3171.79716 0 .23213-1.89139 4.01154-2.03081 4.05801-.05882.01961-.55845-.19336-1.1103-.47326-.55184-.2799-1.32538-.61681-1.71897-.7487-.64902-.21746-.83414-.23971-1.98882-.23903-1.41793.001-2.12023.13485-3.0172.57576-1.43942.70755-2.06855 1.76876-2.33586 3.94007-.10756.87376-.29028 6.037-.21779 6.1543.02841.04597 1.58852.07995 3.67141.07995 2.85142 0 3.65554.02452 3.77965.11527.15115.11053.14835.19598-.06786 2.07492-.12403 1.0778-.24993 1.98412-.2798 2.01403-.02987.02992-1.64145.07415-3.58128.0983l-3.52698.0439-.0222 14.15878-.02222 14.15878h-4.89614l-.05295-.19756zm19.05398 0c-.02912-.10866-.05348-6.48929-.05414-14.17917l-.00124-13.9816-2.1293-.02353-2.12931-.02352-.02362-2.05724c-.01822-1.58725.00174-2.0734.0878-2.12796.06128-.0389 1.0301-.07132 2.15292-.07206l2.0415-.00125.00174-.98782c.001-.5433.0401-1.68037.08704-2.5268.2138-3.8544 1.13652-6.37328 3.0657-8.3687 1.17323-1.21354 2.32798-1.9488 3.87008-2.4642 2.7719-.9264 6.24364-.84913 9.13187.20326.94812.34547 1.3171.56879 1.3171.79716 0 .23213-1.89139 4.01154-2.03082 4.05801-.0588.01961-.55845-.19336-1.1103-.47326-.55184-.2799-1.32538-.61681-1.71897-.7487-.64901-.21746-.83413-.23971-1.98881-.23903-1.41794.001-2.12024.13485-3.0172.57576-1.43942.70755-2.06856 1.76876-2.33586 3.94007-.10756.87376-.29029 6.037-.2178 6.1543.02842.04597 1.58853.07995 3.67142.07995 2.85142 0 3.65554.02452 3.77964.11527.15115.11053.14836.19598-.06785 2.07492-.12403 1.0778-.24994 1.98412-.2798 2.01403-.02987.02992-1.64145.07415-3.58129.0983l-3.52697.0439-.0222 14.15878-.02223 14.15878H138.30724l-.05295-.19756zM61.93908 38.59056c-1.16301-.38419-2.06619-1.16951-2.5783-2.24188-.31655-.66283-.31931-.6785-.31931-1.8101 0-1.1316.00277-1.14728.3193-1.8101.4232-.88617 1.10601-1.57236 1.97554-1.9853.36417-.17294.64667-.36259.64667-.43412 0-.39202-.67786-3.25762-1.10035-4.65163l-.21675-.71516-1.03172-.03159c-.97336-.0298-1.06954-.04963-1.70034-.3505-.89319-.42602-1.5707-1.1034-1.9975-1.9971-.31653-.66283-.3193-.6785-.3193-1.8101 0-1.1316.00277-1.14728.3193-1.81011.21148-.44283.48576-.83508.81222-1.16153.2711-.2711.4929-.55294.4929-.62633 0-.17644-1.05625-1.90675-2.05437-3.3654-.89796-1.31228-.77734-1.25124-1.7652-.89332-.4488.1626-.66993.18624-1.49272.15954-.89651-.02909-1.01388-.05421-1.63449-.34988-.89309-.42549-1.57052-1.10266-1.99749-1.99673-.31654-.66283-.3193-.67851-.3193-1.8101 0-1.1316.00276-1.14728.3193-1.81011.4266-.89329 1.1042-1.5709 1.99749-1.9975.66283-.31654.6785-.3193 1.8101-.3193 1.1316 0 1.14728.00276 1.81011.3193.89329.4266 1.5709 1.10421 1.99749 1.9975.31683.66344.3193.67751.3193 1.81672v1.1481l-.3735.75376-.3735.75376.70984.99575c.3904.54766 1.11166 1.67267 1.60279 2.5l.89295 1.50427 1.09758.03235c1.04964.03094 1.12679.0463 1.7662.35166.8933.4266 1.5709 1.1042 1.9975 1.99749.31654.66283.3193.6785.3193 1.8101 0 1.13404-.00211 1.1459-.32308 1.81807-.2371.49652-.47733.82707-.90271 1.2421l-.57963.56554.31606 1.12166c.34429 1.22187.68073 2.6587.88187 3.76622.07054.38834.14652.7894.16886.89125.0329.14992.12745.19545.49684.2392 1.1945.14147 2.46555 1.11406 3.04694 2.33146.31654.66283.3193.67851.3193 1.8101 0 1.1316-.00276 1.14728-.3193 1.81011-.4268.8937-1.10431 1.57108-1.9975 1.9971-.63504.3029-.71933.31997-1.67839.33986-.65513.0136-1.13313-.01981-1.361-.09508zm2.06345-2.00177c.79036-.34213 1.43165-1.2605 1.43165-2.05021 0-.47792-.32088-1.18195-.71267-1.56366-.40266-.3923-1.09025-.70393-1.55314-.70393s-1.15048.31164-1.55314.70393c-.3912.38113-.71235 1.08488-.71356 1.56366-.00174.6866.57662 1.61823 1.21302 1.95399.7403.39056 1.15862.41189 1.88784.09622zm-3.42445-13.7856c.79036-.34213 1.43166-1.2605 1.43166-2.05022 0-.47791-.32088-1.18195-.71268-1.56366-.40266-.39228-1.09025-.70393-1.55314-.70393-.46288 0-1.15048.31165-1.55314.70393-.3912.38113-.71235 1.08489-.71356 1.56366-.00174.6866.57662 1.61824 1.21302 1.954.7403.39056 1.15862.41188 1.88784.09622zm-7.63915-11.85386c.79035-.34213 1.43165-1.26051 1.43165-2.05022 0-.80638-.63802-1.70289-1.47556-2.07338-.55633-.2461-1.02418-.2461-1.58051 0-.83701.37026-1.4744 1.26535-1.47645 2.07338-.00173.6866.57662 1.61823 1.21303 1.95399.74029.39056 1.15862.41189 1.88784.09623zm52.3765 11.83826c-.82155-.32212-1.6044-1.09392-1.84533-1.81932-.21004-.63236-.1538-1.74256.11617-2.293.67168-1.36957 2.12804-2.03403 3.5513-1.62028.67081.19501 1.37005.83798 1.74947 1.6087.24871.5052.28304.66168.28261 1.28826-.001.88-.25896 1.51291-.86501 2.11895-.60602.60603-1.16198.83293-2.02333.8258-.38635-.00322-.821-.0523-.96587-.10911z"/><path fill="#e3b2b0" d="M200.03219 70.30212c-.05795-.05795-.10537-.21586-.10537-.35092v-.24555L112.318 69.6834l-87.60883-.02225-.91829-.24454c-1.07872-.28726-2.26233-.82738-3.17227-1.4476-.77143-.52582-2.28499-2.04303-2.77928-2.78599-.91723-1.37867-1.5473-3.16532-1.66047-4.70842l-.05552-.75713-.22911.11339c-.12602.06236-.49748.24189-.82548.39895-.70035.33536-1.58275 1.11236-2.03216 1.78943-.72198 1.0877-1.0078 2.31687-1.01238 4.35356-.0033 1.47545.02566 1.57612.45353 1.57612.22244 0 .24586.02927.24586.30733v.30732H6.75277v-.30732c0-.26506.0287-.30733.20876-.30733.11482 0 .24938-.04939.29902-.10976.05439-.06613.10617-1.03456.1303-2.43662.03478-2.02015.06531-2.42525.23165-3.07323.2332-.9085.8953-2.32043 1.49467-3.18746.52653-.76165 1.85674-2.084 2.59666-2.58132 1.28837-.86595 3.39528-1.6757 4.13525-1.58931l.28947.0338.03139-4.78922.03139-4.78922.23985-.91829c.26653-1.02042.80842-2.2369 1.37544-3.08767.5054-.75831 2.01214-2.28069 2.76635-2.79506.96095-.65538 1.99223-1.13268 3.1044-1.4368l1.0218-.2794h5.77325c4.0583 0 5.77326-.02803 5.77327-.09438.00005-.20979-.43971-1.36826-.66592-1.75425-.5471-.93355-1.60761-1.84995-2.58817-2.23645-.92864-.36603-1.43344-.449-3.19966-.52584-2.08915-.0909-2.8343-.24762-4.13833-.87038-1.2051-.57552-1.85933-1.03235-2.821-1.96983-1.31667-1.28356-2.25937-2.84755-2.72298-4.51758-.22607-.81438-.23632-.94217-.23802-2.96816l-.00175-2.11713-.92196-.05246c-1.76913-.10066-3.53947-.70387-5.01253-1.70793-.77143-.52582-2.285-2.04303-2.77928-2.78598-.59155-.88915-1.07473-1.94715-1.35742-2.97227-.26078-.94565-.27137-1.05458-.31069-3.19613l-.0407-2.21711h-.2371c-.1304 0-.2845-.04742-.34246-.10537-.1395-.13951-.1343-.46377.00939-.583.09028-.07494 4.15279-.1467 5.95992-.10528.18142.00416.27341.26426.19872.56186-.0451.17969-.11714.2273-.37672.24893l-.32097.02676.002 1.66832c.00174 1.48968.02362 1.73884.20439 2.32687.22233.72327.67693 1.61434 1.08968 2.1359.83428 1.05425 2.70511 1.89947 4.21107 1.90253.25607.0005.31548-.0281.27535-.13266-.08359-.21783.12918-.90014.58977-1.8913.23803-.51221.43278-.99227.43278-1.06678 0-.20524-.40007-.2464-1.50593-.15492-.5481.04534-1.22208.08308-1.49772.08387l-.50117.0015-.17237-.5927c-.0948-.32598-.60755-2.1337-1.13945-4.01715-.5319-1.88344-.99095-3.48656-1.02013-3.56247-.07904-.20564.2802-.33266 1.25525-.44385.46736-.0533.94464-.14174 1.06062-.19654.29223-.13809 5.63906-.13948 5.81232-.0015.06779.05398.43935.12555.8257.15906 2.00445.17383 5.1898.88146 7.39174 1.64208 4.03746 1.39466 7.3417 3.2109 10.62521 5.84031 1.03908.8321 3.54622 3.26988 4.5474 4.4216 4.49938 5.17593 7.29937 11.60658 8.18167 18.79057.219 1.78318.219 5.76817 0 7.55135-.76976 6.26764-2.98459 11.94028-6.5328 16.73186-.70469.95161-1.45916 1.7953-1.60549 1.7953-.11978 0-6.05622-6.06209-6.05622-6.18441 0-.07206.32942-.61654.73205-1.20996 2.02216-2.98038 3.28991-5.7582 4.1391-9.06934.29623-1.15504.65182-3.33083.55947-3.4232-.02763-.02762-.5033.18774-1.05705.47859-1.09787.57663-2.65752 1.05316-3.54788 1.084-.40264.01393-.48831.04553-.5214.19229-.02176.09659-.05293 2.2698-.06926 4.82935-.028 4.38979-.04023 4.69609-.21556 5.40034-.2678 1.07575-.94242 2.68782-1.35946 3.2486-.5828.78363-1.81847 2.00732-2.48145 2.45735-.93279.63318-2.32447 1.29762-3.27437 1.56332l-.85067.23793H20.9671l.05504.43903c.06525.5205.34835 1.44034.59453 1.93174.7257 1.44859 2.31093 2.57116 4.0231 2.84897.38608.06265 27.77247.09143 87.42466.09189l86.86247.00074v-.24585c0-.2925.14201-.4566.39513-.4566.3873 0 .39513.06182.39513 3.11713s-.00781 3.11713-.39513 3.11713c-.10141 0-.2318-.04742-.28976-.10537zM32.39223 54.65775c.95946-.31923 1.55018-.65775 2.20387-1.26295.8596-.79584 1.52579-2.14051 1.73742-3.50692.10957-.7074.13697-8.0044.0306-8.14918-.04245-.05778-1.926-.07171-5.5085-.04074l-5.444.04706-.61978.22736c-.82654.3032-1.12902.46525-1.7313.92746-.99933.76695-1.77175 2.10847-1.9906 3.45725-.05353.32993-.0915 2.23087-.09192 4.60128l-.00075 4.0391 5.33428-.0457 5.3343-.0457.74635-.24832zm9.49203-18.0439c.92869-.31392 1.22167-.46417 1.8592-.95344 1.0884-.8353 1.93198-2.38363 1.92681-3.5365-.00415-.92677-1.04021-3.89085-2.0956-5.99534-1.02442-2.04274-2.66418-4.427-4.10466-5.96829l-.30773-.32927-7.35827-.0001-7.35826-.00008.05579 1.51477c.04824 1.30999.088 1.61568.29402 2.26113.64649 2.02531 1.95606 3.25504 4.0804 3.8316.29069.0789 1.19475.16297 2.24308.20858 1.27806.0556 1.9593.12666 2.50248.261.89878.22229 2.30936.88064 3.18747 1.48768.76164.52652 2.084 1.85673 2.58131 2.59665.87817 1.30655 1.5088 2.9458 1.65366 4.29843.03386.31615.0693.57482.07876.57482.00947 0 .35215-.11321.76154-.2516zm-9.31642-21.68627c0-.16596-2.65089-1.3238-4.24152-1.85258-1.18008-.39231-1.31862-.35945-2.16724.51411-.3628.37347-.74973.84407-.85984 1.04579l-.20018.36676h3.7344c2.0539 0 3.73438-.03334 3.73438-.07408zm134.92238 48.45316c-2.27598-.26133-4.22876-.95734-6.0226-2.14657-.95063-.63023-2.82328-2.53342-3.50148-3.5586-1.35675-2.05091-2.1939-4.35576-2.66304-7.33184-.16932-1.07421-.19425-1.58375-.1976-4.0391-.00431-3.13223.06977-3.85545.61212-5.97841.71486-2.79823 1.98586-5.13553 3.77294-6.93824 2.1038-2.12219 4.60625-3.18904 8.13561-3.46839 3.36142-.26606 6.54378.44127 8.9024 1.9787 2.75522 1.79595 4.5177 4.8014 5.08634 8.67342.2936 1.99913.35672 5.62664.1009 5.79744-.05314.03548-4.93317.06511-10.84452.06585l-10.74789.00125.05457 1.11953c.1918 3.93513 1.65475 7.62207 3.86723 9.74612 1.0946 1.05088 2.1729 1.6164 3.65104 1.91485 1.38235.2791 3.7087.0965 5.27402-.41397 1.81483-.59185 3.93078-2.1282 5.36405-3.89473.254-.31308.52002-.56923.59115-.56923.22157 0 3.34942 2.57172 3.35092 2.75514.00175.20503-1.05887 1.464-1.83366 2.17675-2.5543 2.3497-4.87963 3.4932-8.0871 3.97689-1.10973.16734-3.90175.2437-4.8654.13305zm9.36921-20.4347c.01984-.03622.00368-.42147-.03594-.85611-.26303-2.88765-1.49034-5.71084-3.00213-6.90585-2.36436-1.8689-6.97972-1.96953-9.62661-.20988-1.82482 1.21314-3.35482 3.82063-3.82547 6.51953-.07202.413-.13095.92354-.13095 1.13454v.38363h8.29253c4.56088 0 8.30874-.02964 8.32857-.06586zm16.90176 20.30058c-1.6219-.3932-2.76919-1.55541-3.33316-3.37652l-.20375-.65792-.02303-21.71155-.02302-21.71154 2.39375.02337 2.39376.02337.0439 20.76621c.0479 22.6558.01195 21.1407.51846 21.85201.43741.6143 1.7166.92085 3.44555.82569.7672-.04222.85484-.03107.93142.11853.14299.27928.65897 2.4821.6108 2.6076-.05254.13697-1.37071.65555-2.3846.93814-1.55398.43313-3.3257.55582-4.3701.30262zm-123.55367-.3612c-.0322-.0322-.05854-10.64155-.05854-23.57633V15.79132l12.57826.02225 12.57827.02225v4.1269l-9.96603.0439-9.96602.0439-.02243 7.92453-.02242 7.92453h7.88548c6.01607 0 7.91046.02498 7.99084.10537.14917.14916.14917 3.767 0 3.91616-.08038.0804-1.97475.10537-7.99078.10537h-7.88541l.02235 9.28553.02235 9.28552 10.40506.0439 10.40505.04391.02362 2.05724c.01822 1.58725-.00174 2.0734-.0878 2.12796-.13322.08456-25.82744.0993-25.91186.01486zm33.76863-.014c-.0876-.05562-.10547-3.36677-.0878-16.26479l.02217-16.19495h4.74155l.02217 16.19495c.01768 12.89802 0 16.20917-.0878 16.2648-.0605.0384-1.09782.06983-2.30516.06983-1.20734 0-2.24465-.03142-2.30515-.06984zm15.36197-.03284c-.08108-.08108-.10537-3.36005-.10537-14.22463V34.49468h-2.0898c-1.50831 0-2.1191-.02932-2.19515-.10537-.0753-.0753-.10537-.63416-.10537-1.95808 0-1.32393.03007-1.8828.10537-1.95808.07601-.07602.68408-.10537 2.18272-.10537h2.07737l.05146-2.26102c.08276-3.63683.44262-5.40846 1.52407-7.50319.99291-1.92325 2.7563-3.54636 4.7583-4.3798 2.60289-1.08358 6.31412-1.1509 9.31875-.16903 1.08733.35533 1.67014.66273 1.67014.88094 0 .19488-1.81399 3.87268-1.9538 3.96126-.04875.03089-.63802-.21214-1.30948-.54007-1.60704-.78482-2.16795-.92496-3.62952-.90681-2.29301.02847-3.93666.8098-4.64529 2.2082-.56967 1.12419-.73694 2.37598-.81477 6.09728l-.05462 2.61224h3.74792c3.32075 0 3.75393.01568 3.80068.1375.07127.18575-.3261 3.74117-.4336 3.87964-.06564.08455-.8895.10976-3.58671.10976h-3.50151v14.11927c0 10.86458-.0243 14.14355-.10537 14.22463-.07646.07647-.72196.10537-2.35321.10537-1.63125 0-2.27675-.0289-2.35321-.10537zm19.05398 0c-.08108-.08108-.10536-3.36005-.10536-14.22463V34.49468h-2.0898c-1.50832 0-2.1191-.02932-2.19516-.10537-.0753-.0753-.10536-.63416-.10536-1.95808 0-1.32393.03007-1.8828.10536-1.95808.07602-.07602.68408-.10537 2.18273-.10537h2.07737l.05145-2.26102c.08277-3.63683.44262-5.40846 1.52408-7.50319.99291-1.92325 2.75629-3.54636 4.7583-4.3798 2.60288-1.08358 6.31412-1.1509 9.31875-.16903 1.08733.35533 1.67013.66273 1.67013.88094 0 .19488-1.81398 3.87268-1.9538 3.96126-.04874.03089-.63801-.21214-1.30948-.54007-1.60703-.78482-2.16795-.92496-3.62952-.90681-2.29301.02847-3.93666.8098-4.64528 2.2082-.56967 1.12419-.73694 2.37598-.81477 6.09728l-.05463 2.61224h3.74792c3.32076 0 3.75393.01568 3.80068.1375.07128.18575-.32608 3.74117-.4336 3.87964-.06564.08455-.8895.10976-3.58671.10976h-3.5015v14.11927c0 10.86458-.0243 14.14355-.10537 14.22463-.07647.07647-.72197.10537-2.35321.10537-1.63126 0-2.27676-.0289-2.35322-.10537zM62.0708 38.58356c-.67545-.18825-1.33122-.5767-1.85096-1.09644-2.05684-2.05685-1.4491-5.48385 1.19522-6.73963l.67163-.31895-.05976-.40356c-.15298-1.03321-1.07006-4.64724-1.26985-5.00425-.05993-.10708-.22315-.12908-.8079-.10887-1.27032.0439-2.29124-.3478-3.15329-1.20984-.81304-.81304-1.22068-1.79787-1.22068-2.94905 0-1.15416.3922-2.09896 1.232-2.9679.28712-.2971.52205-.5904.52205-.65178 0-.15961-1.54103-2.6657-2.2805-3.70867-.34377-.48485-.68448-.88154-.75714-.88154-.07267 0-.25857.06542-.41313.14538-.46052.23827-1.12024.37937-1.77371.37937-1.15094 0-2.13601-.40765-2.94854-1.22018-1.64258-1.64257-1.64258-4.2545 0-5.89708 1.64257-1.64257 4.2545-1.64257 5.89707 0 .81254.81254 1.22018 1.7976 1.22018 2.94854 0 .77673-.16108 1.38354-.55985 2.10902l-.3142.57163.84058 1.20606c.46232.66333 1.19612 1.80349 1.63066 2.53367l.79008 1.32762.77153-.044c1.32322-.07544 2.36847.30962 3.25968 1.20082.81304.81304 1.22068 1.79787 1.22068 2.94904 0 1.20887-.41365 2.15765-1.32807 3.04617l-.6047.58758.31491 1.11764c.34326 1.2182.6798 2.65574.88075 3.7622.07053.38834.14558.78568.16678.88296.0306.14049.15776.19949.6182.28683.79857.15149 1.5632.56049 2.1559 1.15319 2.27752 2.27752 1.22533 6.16572-1.89436 7.0003-.5405.1446-1.62121.14144-2.15126-.00629zm1.81051-1.90519c.65397-.24468 1.18218-.7729 1.42687-1.42686.10289-.275.18707-.59582.18707-.71293 0-.4214-.37024-1.20902-.74404-1.58283-.37381-.3738-1.16143-.74404-1.58283-.74404s-1.20902.37024-1.58283.74404c-.3738.37381-.74404 1.16142-.74404 1.58283 0 .42157.37024 1.20902.74434 1.58312.37926.37926 1.11983.73077 1.55728.73917.131.00252.46318-.0796.73818-.1825zm-3.42445-13.7856c.65397-.24468 1.18219-.7729 1.42687-1.42686.10289-.275.18707-.59582.18707-.71294 0-.4214-.37024-1.20901-.74404-1.58282-.37381-.3738-1.16142-.74405-1.58283-.74405-.4214 0-1.20902.37024-1.58283.74405-.3738.3738-.74404 1.16142-.74404 1.58282 0 .42158.37024 1.20903.74434 1.58313.37926.37925 1.11983.73076 1.55729.73917.131.00251.46317-.07961.73817-.1825zM52.8177 11.0389c.65396-.24468 1.18218-.7729 1.42686-1.42687.1029-.275.18707-.59582.18707-.71293 0-.4214-.37023-1.20902-.74404-1.58282-.3738-.37381-1.16142-.74405-1.58282-.74405s-1.20902.37024-1.58283.74405c-.3738.3738-.74404 1.16142-.74404 1.58282 0 .42157.37023 1.20902.74434 1.58313.37925.37925 1.11982.73076 1.55728.73917.131.0025.46317-.07961.73818-.1825zm52.71291 11.75095c-.79636-.22518-1.5972-.92791-1.95347-1.71414-.28152-.62128-.26372-1.65618.03956-2.29839.52359-1.10879 1.31537-1.6688 2.4562-1.73726.90815-.05449 1.46278.13377 2.06104.69958.65844.62273.95519 1.31312.95631 2.22491.001.6203-.0337.7745-.28888 1.29285-.6012 1.22119-2.02022 1.88605-3.27076 1.53245z"/><path fill="#b4b3b3" d="M200.06233 70.2158c-.0215-.0636-.0509-.21441-.06535-.33515l-.02626-.21951-87.67467-.0439-87.67468-.0439-.85852-.23703c-.98759-.27265-2.25015-.84665-3.05963-1.391-.7654-.5147-2.18116-1.91597-2.71283-2.68506-.60538-.87572-1.17934-2.10768-1.46777-3.15046l-.24286-.87807V45.33877l.23702-.85852c.2879-1.04279.87029-2.29727 1.46772-3.16149.53444-.77309 1.94908-2.17605 2.71015-2.68776.79638-.53546 2.04434-1.11146 3.00475-1.38686l.83416-.2392 5.77458-.02995 5.77458-.02995.08093.20167c.19045.47458.08506-.44672-.1201-1.04992-.62484-1.83708-1.9612-3.03683-3.99852-3.58979-.2907-.0789-1.19476-.16296-2.24309-.20857-2.08915-.0909-2.8343-.24762-4.13833-.87038-1.2051-.57552-1.85933-1.03235-2.821-1.96983-1.31742-1.2843-2.26081-2.8499-2.72215-4.51758-.22472-.8123-.23555-.94691-.23804-2.95838l-.0026-2.10735h4.56592l.05515 1.49271c.0476 1.28853.08782 1.5948.29402 2.23906.64868 2.02675 1.95701 3.25513 4.08103 3.8316.2907.0789 1.19476.16297 2.24309.20858 2.08915.0909 2.8343.24762 4.13833.87038 1.2051.57552 1.85933 1.03235 2.821 1.96983 1.74554 1.70165 2.71618 3.67468 3.00825 6.11496.07353.61439.07738 2.66175.0146 7.77086-.08024 6.53101-.09577 6.98037-.2656 7.68331-.25585 1.05906-.93187 2.68102-1.35397 3.2486-.58279.78364-1.81847 2.00732-2.48144 2.45735-.93279.63318-2.32447 1.29762-3.27437 1.56332l-.85067.23793H21.0213v-4.56593l5.31228-.0454 5.31229-.0454.74635-.24863c.95981-.31972 1.5504-.65825 2.20388-1.26324.8596-.79584 1.52578-2.14051 1.73742-3.50692.11366-.7339.12672-4.51142.03181-9.20285l-.06572-3.24884-.0439 2.06345-.0439 2.06345-5.3562.04615c-5.30801.04573-5.36172.04798-5.97083.25004-1.003.33273-1.61985.70759-2.33753 1.4205-.49833.49501-.74978.83228-.98473 1.32075-.65652 1.36496-.62903.9835-.62903 8.72862v6.9367l.20554.65855c.31837 1.02002.69207 1.64527 1.42335 2.38144.72412.72897 1.48468 1.16443 2.5447 1.457.54342.14998 4.33301.15675 87.7158.15675h87.14783l.0439-.30732c.03903-.27318.07318-.30732.30733-.30732h.26342V70.27578l-.24197.02783c-.14289.01643-.25797-.0195-.28107-.0878zM6.75277 68.25625c0-.26506.0287-.30733.20876-.30733.11482 0 .24938-.04939.29902-.10976.05439-.06613.10617-1.03456.1303-2.43662.03478-2.02015.06531-2.42525.23165-3.07323.2332-.9085.8953-2.32043 1.49467-3.18746.52653-.76165 1.85674-2.084 2.59666-2.58132 1.27293-.85557 3.358-1.66281 4.1078-1.59035l.28252.0273V59.73228l-.21952.10565c-.12073.0581-.48788.2343-.81588.39154-.70056.33585-1.58293 1.11297-2.03216 1.78976-.72198 1.0877-1.0078 2.31687-1.01238 4.35356-.0033 1.47545.02566 1.57612.45353 1.57612.22244 0 .24586.02927.24586.30733v.30732H6.75277zm160.73745-4.8755c-2.27598-.26133-4.22876-.95734-6.0226-2.14657-.95063-.63023-2.82328-2.53342-3.50148-3.5586-1.35675-2.05091-2.1939-4.35576-2.66304-7.33184-.16932-1.07421-.19425-1.58375-.1976-4.0391-.00431-3.13223.06977-3.85545.61212-5.97841.71486-2.79823 1.98586-5.13553 3.77294-6.93824 2.1038-2.12219 4.60625-3.18904 8.13561-3.46839 3.36142-.26606 6.54378.44127 8.9024 1.9787 2.75522 1.79595 4.5177 4.8014 5.08634 8.67342.2936 1.99913.35672 5.62664.1009 5.79744-.05314.03548-4.93317.06511-10.84452.06585l-10.74789.00125.05457 1.11953c.1918 3.93513 1.65475 7.62207 3.86723 9.74612 1.0946 1.05088 2.1729 1.6164 3.65104 1.91485 1.38235.2791 3.7087.0965 5.27402-.41397 1.81483-.59185 3.93078-2.1282 5.36405-3.89473.254-.31308.52002-.56923.59115-.56923.22157 0 3.34942 2.57172 3.35092 2.75514.00175.20503-1.05887 1.464-1.83366 2.17675-2.5543 2.3497-4.87963 3.4932-8.0871 3.97689-1.10973.16734-3.90175.2437-4.8654.13305zm9.36921-20.4347c.01984-.03622.00368-.42147-.03594-.85611-.26303-2.88765-1.49034-5.71084-3.00213-6.90585-2.36436-1.8689-6.97972-1.96953-9.62661-.20988-1.82482 1.21314-3.35482 3.82063-3.82547 6.51953-.07202.413-.13095.92354-.13095 1.13454v.38363h8.29253c4.56088 0 8.30874-.02964 8.32857-.06586zm16.90176 20.30058c-1.6219-.3932-2.76919-1.55541-3.33316-3.37652l-.20375-.65792-.02303-21.71155-.02302-21.71154 2.39375.02337 2.39376.02337.0439 20.76621c.0479 22.6558.01195 21.1407.51846 21.85201.43741.6143 1.7166.92085 3.44555.82569.7672-.04222.85484-.03107.93142.11853.14299.27928.65897 2.4821.6108 2.6076-.05254.13697-1.37071.65555-2.3846.93814-1.55398.43313-3.3257.55582-4.3701.30262zm-123.55367-.3612c-.0322-.0322-.05854-10.64155-.05854-23.57633V15.79132l12.57826.02225 12.57827.02225v4.1269l-9.96603.0439-9.96602.0439-.02243 7.92453-.02242 7.92453h7.88548c6.01607 0 7.91046.02498 7.99084.10537.14917.14916.14917 3.767 0 3.91616-.08038.0804-1.97475.10537-7.99078.10537h-7.88541l.02235 9.28553.02235 9.28552 10.40506.0439 10.40505.04391.02362 2.05724c.01822 1.58725-.00174 2.0734-.0878 2.12796-.13322.08456-25.82744.0993-25.91186.01486zm33.76863-.014c-.0876-.05562-.10547-3.36677-.0878-16.26479l.02217-16.19495h4.74155l.02217 16.19495c.01768 12.89802 0 16.20917-.0878 16.2648-.0605.0384-1.09782.06983-2.30516.06983-1.20734 0-2.24465-.03142-2.30515-.06984zm15.36197-.03284c-.08108-.08108-.10537-3.36005-.10537-14.22463V34.49468h-2.0898c-1.50831 0-2.1191-.02932-2.19515-.10537-.0753-.0753-.10537-.63416-.10537-1.95808 0-1.32393.03007-1.8828.10537-1.95808.07601-.07602.68408-.10537 2.18272-.10537h2.07737l.05146-2.26102c.08276-3.63683.44262-5.40846 1.52407-7.50319.99291-1.92325 2.7563-3.54636 4.7583-4.3798 2.60289-1.08358 6.31412-1.1509 9.31875-.16903 1.08733.35533 1.67014.66273 1.67014.88094 0 .19488-1.81399 3.87268-1.9538 3.96126-.04875.03089-.63802-.21214-1.30948-.54007-1.60704-.78482-2.16795-.92496-3.62952-.90681-2.29301.02847-3.93666.8098-4.64529 2.2082-.56967 1.12419-.73694 2.37598-.81477 6.09728l-.05462 2.61224h3.74792c3.32075 0 3.75393.01568 3.80068.1375.07127.18575-.3261 3.74117-.4336 3.87964-.06564.08455-.8895.10976-3.58671.10976h-3.50151v14.11927c0 10.86458-.0243 14.14355-.10537 14.22463-.07646.07647-.72196.10537-2.35321.10537-1.63125 0-2.27675-.0289-2.35321-.10537zm19.05398 0c-.08108-.08108-.10536-3.36005-.10536-14.22463V34.49468h-2.0898c-1.50832 0-2.1191-.02932-2.19516-.10537-.0753-.0753-.10536-.63416-.10536-1.95808 0-1.32393.03007-1.8828.10536-1.95808.07602-.07602.68408-.10537 2.18273-.10537h2.07737l.05145-2.26102c.08277-3.63683.44262-5.40846 1.52408-7.50319.99291-1.92325 2.75629-3.54636 4.7583-4.3798 2.60288-1.08358 6.31412-1.1509 9.31875-.16903 1.08733.35533 1.67013.66273 1.67013.88094 0 .19488-1.81398 3.87268-1.9538 3.96126-.04874.03089-.63801-.21214-1.30948-.54007-1.60703-.78482-2.16795-.92496-3.62952-.90681-2.29301.02847-3.93666.8098-4.64528 2.2082-.56967 1.12419-.73694 2.37598-.81477 6.09728l-.05463 2.61224h3.74792c3.32076 0 3.75393.01568 3.80068.1375.07128.18575-.32608 3.74117-.4336 3.87964-.06564.08455-.8895.10976-3.58671.10976h-3.5015v14.11927c0 10.86458-.0243 14.14355-.10537 14.22463-.07647.07647-.72197.10537-2.35321.10537-1.63126 0-2.27676-.0289-2.35322-.10537zm-94.56976-5.90674c-1.65038-1.66469-3.0007-3.08565-3.0007-3.1577 0-.07207.32943-.61655.73206-1.20997 2.02294-2.98154 3.29328-5.76555 4.13831-9.06934.31938-1.24867.632-3.18958.5487-3.40665-.04314-.11245-.25346-.03564-1.17723.42995-1.18755.59854-2.39448.9743-3.27597 1.01995l-.48293.025-.02339-2.29296c-.01805-1.77008.00197-2.31188.0878-2.37588.06117-.0456.34828-.15388.63804-.24063 1.59776-.47833 2.86355-1.65803 3.47203-3.23587.25258-.65497.2728-.77833.219-1.33696-.06898-.71625-.877-3.21137-1.4931-4.61062-.83723-1.90142-1.90055-3.73032-3.06304-5.26838-.79034-1.04569-1.76884-2.19613-1.9791-2.32687-.09103-.0566-3.88555-.10371-10.67797-.13256l-10.53677-.04476-.85851-.23617c-1.04152-.2865-2.29603-.86857-3.1615-1.46686-.77309-.53444-2.17604-1.94908-2.68776-2.71015-.54188-.80594-1.11464-2.0524-1.3807-3.00475-.21539-.77092-.23714-1.00724-.287-3.11713l-.05394-2.28297-.30732-.0439c-.27318-.03902-.30733-.07317-.30733-.30732v-.26342l2.7659-.0625c1.52125-.03438 2.82517-.07024 2.89761-.0797.42488-.05543.58618.13861.47697.57376-.04701.1873-.10813.22699-.3496.22699-.16094 0-.3135.03378-.33901.07507-.02552.04129-.05225.82166-.0594 1.73417-.0128 1.63095-.00856 1.67179.24853 2.40626.41497 1.1855.69577 1.65988 1.38505 2.33992.45144.44539.8254.71907 1.28361.9394 1.35431.6512.92997.61885 8.52722.65014 5.76888.02377 6.82694.00928 6.82694-.0934 0-.20857-2.4361-1.29985-4.24152-1.90003-.62832-.20888-.94246-.27094-1.16254-.22965-.39681.07444-1.24775.86333-1.72163 1.59609l-.3623.56022h-2.44911c-2.10921 0-2.4562-.01852-2.50027-.13333-.08359-.21783.12918-.90014.58976-1.8913.23804-.51221.43278-.99227.43278-1.06678 0-.20524-.40006-.2464-1.50592-.15492-.54811.04534-1.22208.08308-1.49773.08387l-.50117.0015-.17236-.5927c-.0948-.32598-.60755-2.1337-1.13945-4.01715-.5319-1.88344-.99095-3.48656-1.02013-3.56247-.07904-.20564.2802-.33266 1.25525-.44385.46736-.0533.94464-.14174 1.06062-.19654.29222-.13809 5.63906-.13948 5.81232-.0015.06779.05398.43935.12555.8257.15906 2.00444.17383 5.1898.88146 7.39174 1.64208 4.03746 1.39466 7.3417 3.2109 10.62521 5.84031 1.03908.8321 3.54622 3.26988 4.5474 4.4216 4.49938 5.17593 7.29937 11.60658 8.18167 18.79057.219 1.78318.219 5.76817 0 7.55135-.76976 6.26764-2.98459 11.94028-6.5328 16.73186-.70469.95161-1.45917 1.7953-1.60549 1.7953-.03016 0-1.40515-1.36202-3.05553-3.0267zm18.20455-18.4289c-1.16384-.38508-2.06624-1.16979-2.5783-2.24206-.31233-.654-.31931-.69168-.31931-1.7223 0-1.03062.00699-1.06831.3193-1.7223.42505-.89004 1.10544-1.57208 1.98497-1.98976l.6561-.31158-.05688-.42868c-.12639-.95278-.94935-4.24695-1.24584-4.98687l-.12315-.30732h-.98677c-.95367 0-1.00919-.0107-1.65539-.3193-.89328-.4266-1.5709-1.10421-1.99749-1.9975-.31232-.65399-.3193-.69168-.3193-1.7223 0-1.03202.0066-1.06751.32165-1.72724.22594-.47313.48074-.8302.85622-1.1999.4036-.39738.51989-.56579.47468-.68742-.20852-.56114-2.75877-4.48177-3.02044-4.6435-.05153-.03184-.33777.05487-.6361.1927-.50114.23153-.62255.2506-1.59607.2506-1.03062 0-1.06831-.007-1.7223-.31931-.89329-.4266-1.5709-1.1042-1.9975-1.9975-.31231-.65398-.3193-.69167-.3193-1.72229s.007-1.0683.3193-1.7223c.4266-.89328 1.10421-1.5709 1.9975-1.99749.65399-.31232.69168-.3193 1.7223-.3193 1.03061 0 1.0683.007 1.7223.3193.89328.4266 1.57089 1.1042 1.99748 1.9975.31266.6547.3193.69068.3193 1.72891v1.0603l-.37317.7531c-.20525.4142-.37318.77748-.37318.80727 0 .02979.35828.56585.79616 1.19124.43789.6254 1.17877 1.77364 1.6464 2.55167l.85025 1.4146 1.05364.01498c1.01626.01446 1.07737.02632 1.72227.3343.89328.42659 1.5709 1.1042 1.99749 1.99748.31232.654.3193.69168.3193 1.7223 0 1.03287-.00638 1.06704-.32308 1.73026-.23833.49909-.47722.82697-.91068 1.24989l-.5876.5733.35802 1.2965c.3884 1.40657.72085 2.84762.89666 3.88679.15042.88906.18002.93272.677.99865 1.16583.15465 2.42402 1.13266 2.99483 2.32792.31232.65399.3193.69168.3193 1.7223 0 1.03062-.00699 1.0683-.3193 1.7223-.42717.89447-1.1045 1.57142-1.9975 1.99633-.62034.29518-.73517.31973-1.59058.34005-.58657.01393-1.04974-.02039-1.2732-.09432zm2.05972-1.82139c.53444-.23582 1.00401-.71002 1.24323-1.25548.81625-1.86114-1.1926-3.87754-3.03953-3.05096-1.22544.54844-1.79655 1.9-1.28524 3.04153.22056.4924.62723.95556 1.02182 1.16374.75913.4005 1.31901.428 2.05972.10117zm-3.42445-13.7856c.53444-.23582 1.00401-.71002 1.24323-1.25548.81625-1.86114-1.1926-3.87754-3.03953-3.05096-1.22544.54844-1.79655 1.89999-1.28524 3.04153.22056.4924.62723.95555 1.02182 1.16373.75913.4005 1.31901.42801 2.05972.10118zM53.023 11.04208c.53444-.23582 1.00402-.71001 1.24324-1.25548.81624-1.86114-1.1926-3.87753-3.03954-3.05095-1.22543.54843-1.79655 1.89999-1.28523 3.04153.22055.4924.62722.95555 1.02181 1.16373.75914.4005 1.31902.428 2.05972.10117zm52.50761 11.74778c-.79636-.22518-1.5972-.92791-1.95347-1.71414-.28152-.62128-.26372-1.65618.03956-2.29839.52359-1.10879 1.31537-1.6688 2.4562-1.73726.90815-.05449 1.46278.13377 2.06104.69958.65844.62273.95519 1.31312.95631 2.22491.001.6203-.0337.7745-.28888 1.29285-.6012 1.22119-2.02022 1.88605-3.27076 1.53245z"/><path fill="#cd6e6a" d="M200.06233 70.2158c-.0215-.0636-.0509-.21441-.06535-.33515l-.02626-.21951-87.67467-.0439-87.67468-.0439-.85852-.23703c-.98759-.27265-2.25015-.84665-3.05963-1.391-.7654-.5147-2.18116-1.91597-2.71283-2.68506-.60538-.87572-1.17934-2.10768-1.46777-3.15046l-.24286-.87807V45.33877l.23702-.85852c.2879-1.04279.87029-2.29727 1.46772-3.16149.53444-.77309 1.94908-2.17605 2.71015-2.68776.79638-.53546 2.04434-1.11146 3.00475-1.38686l.83416-.2392 5.77388-.02995 5.77388-.02995.08876.23346c.05333.14025.07938 1.06212.06525 2.30902l-.02352 2.07557-5.35619.04615c-5.30801.04573-5.36172.04798-5.97083.25004-1.003.33273-1.61985.70759-2.33754 1.4205-.49832.49501-.74978.83228-.98472 1.32075-.65652 1.36496-.62903.9835-.62903 8.72862v6.9367l.20554.65855c.31837 1.02002.69207 1.64527 1.42334 2.38144.72413.72897 1.48469 1.16443 2.5447 1.457.54343.14998 4.33302.15675 87.7158.15675h87.14784l.0439-.30732c.03903-.27318.07317-.30732.30733-.30732h.26342V70.27578l-.24197.02783c-.14289.01643-.25797-.0195-.28107-.0878zM6.75277 68.25625c0-.2927.01463-.30733.30732-.30733h.30732l.00256-1.33904c.00356-1.8582.13185-3.43014.3505-4.29458.22683-.8968.88884-2.31178 1.48513-3.17434.52572-.76049 1.76698-1.99392 2.50823-2.49242 1.24335-.83617 3.3746-1.67027 4.06448-1.5907l.23803.02745.02342 2.30613.02343 2.30613-.24293.0982c-1.03313.4176-1.41869.66754-2.1378 1.38587-.84354.8426-1.19416 1.4567-1.48824 2.60651-.14355.5613-.17305.97261-.17305 2.41315v1.73652l.27652.02751c.34115.03395.5101.25932.34423.45919-.10102.12173-.47539.13907-3.00227.13907H6.75279zm160.993-4.92382c-.14487-.02026-.55976-.07899-.92196-.13052-3.88242-.5524-7.18675-2.8099-9.2679-6.3318-1.79131-3.03141-2.67183-7.49052-2.4055-12.18193.21764-3.83362 1.11006-6.75678 2.86924-9.39839 2.23339-3.35367 5.5185-5.08793 10.08462-5.32382 3.95297-.20422 7.50471.92924 9.82838 3.13648 2.14225 2.03494 3.37468 4.83497 3.72394 8.46065.1335 1.38593.20508 4.00453.12 4.39032l-.07745.35123-10.79626.0439-10.79626.0439-.02652.56359c-.06645 1.412.45646 4.28723 1.06744 5.86926 1.71046 4.42895 4.4017 6.60225 8.17875 6.60473 2.34374.0015 4.31777-.57907 6.17878-1.81735.7695-.512 2.4427-2.06511 2.997-2.78189.16902-.21857.36079-.3989.42614-.40073.11257-.00316 2.45941 1.8333 3.06008 2.39457l.28129.26285-.28129.39612c-.46886.66025-2.17231 2.30343-3.09763 2.98803-2.75755 2.04016-5.14626 2.79004-9.12533 2.86469-.96588.01812-1.87467.01638-2.01955-.00388zm9.17578-20.79473c0-.78047-.29271-2.41426-.61002-3.40481-.30112-.94005-.97675-2.3205-1.45369-2.97023-1.11863-1.5239-2.86761-2.3282-5.44374-2.50346-1.58617-.1079-3.11508.17779-4.48837.8387-.70286.33825-1.03768.56802-1.6038 1.10059-1.1434 1.07561-2.07657 2.60007-2.62993 4.29629-.28035.85936-.54147 2.22186-.54147 2.82528v.37965h16.77102zm16.8267 20.624c-1.6187-.41008-2.81229-1.66305-3.26045-3.42268-.29849-1.17196-.31357-2.38348-.28848-23.18088l.0249-20.6345 2.34756-.02338 2.34756-.0234.0232 20.7457c.02136 19.09391.03485 20.77921.16947 21.16673.42507 1.22367 1.20496 1.57915 3.39402 1.54705 1.01046-.01481 1.28067.00632 1.33261.10424.03584.06756.19777.66818.35986 1.33471.25378 1.0436.27671 1.22306.16517 1.29231-.26162.16243-1.91054.71921-2.76373.93321-1.12375.28187-3.05563.36256-3.8517.16089zM70.2476 62.73748c-.07298-.08794-.09315-6.24716-.07684-23.46655l.02211-23.3473 12.53436-.02226 12.53437-.02225v4.03969h-9.91138c-8.24571 0-9.928.02006-10.0104.11933-.07225.08705-.09296 2.25348-.0766 8.01233l.02242 7.89301 7.94648.0439 7.94648.0439v3.86349l-7.94648.0439-7.94648.0439v18.70277l10.42863.0223 10.42862.0223-.02357 2.04114-.02357 2.04114-12.8746.02225c-10.7588.0186-12.89085.00264-12.97355-.097zm33.76682.06157c-.033-.03299-.06-7.32442-.06-16.20318v-16.1432l2.30492.02342 2.30492.0234V62.81223l-2.24493.0234c-1.23471.01286-2.27193-.00359-2.30491-.0366zm15.34753-.0512c-.0231-.06118-.05176-6.45304-.06366-14.20415l-.02166-14.09293-2.15125-.0439-2.15126-.0439v-3.86349l2.15126-.0439 2.15125-.0439.05524-2.28297c.05856-2.42064.18785-3.56643.56719-5.0264.9787-3.76683 3.43402-6.29131 7.06371-7.26268 2.30348-.61645 5.35333-.51047 7.83697.27233.75957.2394 1.55908.60619 1.65771.7605.05109.07993-1.6524 3.62215-1.87355 3.8958-.06114.07567-.40977-.05633-1.31038-.49616-1.5832-.77319-2.18226-.92733-3.54793-.91289-2.32873.02462-4.02363.8119-4.77244 2.21681-.61323 1.15056-.82037 2.74039-.83655 6.42098l-.0106 2.41468 3.75372.0229 3.75372.0229-.0066.37223c-.0036.20473-.09252 1.08346-.19756 1.95275l-.19098 1.58051-3.55615.0439-3.55616.0439-.0439 14.18074-.04391 14.18073-2.30711.02343c-1.79844.01824-2.31638-.001-2.34913-.0878zm19.05398 0c-.0231-.06118-.05175-6.45304-.06366-14.20415l-.02165-14.09293-2.15126-.0439-2.15125-.0439v-3.86349l2.15125-.0439 2.15126-.0439.05524-2.28297c.05856-2.42064.18785-3.56643.56718-5.0264.97871-3.76683 3.43402-6.29131 7.06372-7.26268 2.30348-.61645 5.35333-.51047 7.83697.27233.75956.2394 1.55908.60619 1.65771.7605.05109.07993-1.6524 3.62215-1.87355 3.8958-.06114.07567-.40978-.05633-1.31038-.49616-1.58321-.77319-2.18226-.92733-3.54793-.91289-2.32873.02462-4.02363.8119-4.77244 2.21681-.61324 1.15056-.82037 2.74039-.83656 6.42098l-.0106 2.41468 3.75372.0229 3.75373.0229-.00657.37223c-.00361.20473-.09253 1.08346-.19757 1.95275l-.19098 1.58051-3.55616.0439-3.55616.0439-.0439 14.18074-.0439 14.18073-2.30711.02343c-1.79844.01824-2.31638-.001-2.34913-.0878zM21.17057 59.50194c-.15798-.15799-.14913-4.31494.00946-4.44656.07901-.06558 1.78428-.1037 5.46595-.1222l5.35111-.0269.68428-.24898c1.80478-.6567 3.08289-2.10922 3.5777-4.06595.1717-.67896.17676-.92186.1519-7.28l-.02571-6.57761-.2496-.68428c-.32648-.89507-.79947-1.58973-1.565-2.2985-1.15165-1.06625-2.1799-1.38758-4.90044-1.53138-2.00992-.10623-2.69104-.25606-4.00662-.88136-1.18702-.56418-1.85519-1.02702-2.77648-1.92322-1.26257-1.22818-2.2288-2.83603-2.66153-4.42884-.33313-1.22623-.53294-4.71335-.28432-4.96198.1537-.1537 4.31497-.14958 4.44132.00438.0503.0613.10726.78819.129 1.64637.0354 1.39744.06087 1.59859.28112 2.2209.31421.88779.78623 1.58433 1.55758 2.29849 1.15165 1.06625 2.1799 1.38758 4.90045 1.53138 2.00992.10624 2.69103.25606 4.00662.88136 1.18701.56419 1.85518 1.02702 2.77647 1.92322 1.26257 1.22819 2.22882 2.83603 2.66154 4.42884.3269 1.2033.38342 2.47257.38402 8.6235.00062 5.9201-.05498 7.28025-.3475 8.5074-.21485.90136-.80422 2.2838-1.28567 3.01571-.47503.72216-1.97926 2.24457-2.6625 2.69469-1.63509 1.0772-3.10216 1.58535-4.96224 1.7188-1.77192.1271-10.52072.1129-10.65092-.01728zM41.3247 41.55393c-.0352-.0352-.06401-1.07992-.06401-2.3216 0-1.70394.02691-2.27761.10975-2.33928.06037-.04494.34684-.15269.6366-.23944 1.59069-.47622 2.84036-1.63692 3.48472-3.23664l.29096-.72232v-4.17081c0-3.8002-.01436-4.21761-.16154-4.69764-.46246-1.50827-1.48462-2.73732-2.81013-3.3789-1.3741-.6651-.76691-.63372-13.49203-.6974l-11.37093-.05692-.85851-.23386c-1.03813-.28279-2.2927-.86397-3.1615-1.46456-.77309-.53444-2.17604-1.94908-2.68776-2.71015-.54188-.80594-1.11464-2.0524-1.3807-3.00475-.21539-.77092-.23714-1.00724-.287-3.11713l-.05394-2.28297-.30732-.0439c-.27318-.03902-.30733-.07317-.30733-.30732v-.26342l3.00737-.0231 3.00737-.0231v.30847c0 .28129-.02225.30847-.25267.30847-.45059 0-.47492.1085-.42828 1.90957.03598 1.38944.0735 1.74258.24023 2.26124.65767 2.04584 1.89777 3.27701 3.90907 3.8809.49592.1489 1.2044.15819 12.07338.15819h11.54654l.75102.19181c2.12091.54169 3.44976 1.30613 4.9676 2.85771 1.33587 1.36556 2.0594 2.57275 2.53144 4.22367.37172 1.30005.39752 1.68845.3982 5.99602.0007 4.53864-.03664 4.99618-.5279 6.46248-.54757 1.6344-1.25966 2.72531-2.66465 4.08222-.9264.89468-1.05194.98312-2.25252 1.58665-.8666.43564-1.53706.70621-2.1056.84974-.97019.2449-1.6889.3491-1.77993.25807zm20.7022-3.05099c-1.16384-.38508-2.06624-1.16979-2.5783-2.24206-.31233-.654-.31931-.69168-.31931-1.7223 0-1.03203.0066-1.06752.32165-1.72725.43752-.9162 1.1429-1.6093 2.04886-2.01316l.67-.29869-.05623-.39512c-.1434-1.00768-1.1625-5.1003-1.30567-5.24346-.01557-.01558-.49842-.03744-1.07298-.04858-1.00062-.01939-1.07286-.03372-1.71329-.33956-.89328-.4266-1.5709-1.1042-1.99749-1.99749-.31232-.65399-.3193-.69168-.3193-1.7223 0-1.03202.0066-1.06751.32165-1.72724.22592-.47309.48074-.8302.85612-1.1998.29395-.28942.53395-.59876.53333-.68743-.00239-.34393-2.74305-4.54205-3.03944-4.6558-.06969-.02673-.37226.06481-.67238.20345-.50489.23322-.6244.25206-1.59934.25206-1.03062 0-1.06831-.007-1.7223-.31931-.89329-.4266-1.5709-1.1042-1.9975-1.9975-.31231-.65398-.3193-.69167-.3193-1.72229s.007-1.0683.3193-1.7223c.4266-.89328 1.10421-1.5709 1.9975-1.99749.65399-.31232.69168-.3193 1.7223-.3193 1.03061 0 1.0683.007 1.7223.3193.89328.4266 1.57089 1.1042 1.99748 1.9975.31303.65548.3193.6896.3193 1.73616v1.06754l-.41208.80929-.41209.80927.70509 1.0005c.3878.55026 1.12641 1.69654 1.64138 2.54728l.93629 1.5468 1.09758.01011c1.0717.00986 1.11334.01765 1.7662.32942.89328.42659 1.5709 1.1042 1.99749 1.99749.31232.65399.3193.69168.3193 1.7223 0 1.03336-.00624 1.06675-.32392 1.73202-.24522.51353-.47498.82498-.94567 1.28187l-.62174.60352.39866 1.44013c.21926.79207.53974 2.1313.71217 2.97607.17243.84477.32853 1.56024.34688 1.58994.01835.02969.23917.07836.4907.10815 1.19563.1416 2.46646 1.11372 3.04807 2.3316.31232.65399.3193.69168.3193 1.7223 0 1.03062-.00699 1.0683-.3193 1.7223-.42717.89447-1.1045 1.57142-1.9975 1.99633-.62034.29519-.73517.31974-1.59058.34005-.58657.01394-1.04974-.02039-1.2732-.09432zm2.05972-1.82139c.53444-.23582 1.00401-.71002 1.24323-1.25548.81625-1.86114-1.1926-3.87754-3.03953-3.05096-1.22544.54844-1.79655 1.9-1.28524 3.04153.22056.4924.62723.95556 1.02182 1.16374.75913.4005 1.31901.428 2.05972.10117zm-3.42445-13.7856c.53444-.23582 1.00401-.71002 1.24323-1.25548.81625-1.86114-1.1926-3.87754-3.03953-3.05096-1.22544.54844-1.79655 1.89999-1.28524 3.04153.22056.4924.62723.95555 1.02182 1.16373.75913.4005 1.31901.42801 2.05972.10118zM53.023 11.04208c.53444-.23582 1.00402-.71001 1.24324-1.25548.81624-1.86114-1.1926-3.87753-3.03954-3.05095-1.22543.54843-1.79655 1.89999-1.28523 3.04153.22055.4924.62722.95555 1.02181 1.16373.75914.4005 1.31902.428 2.05972.10117zm52.45261 11.65358c-.78463-.2574-1.47344-.87493-1.81213-1.62461-.26579-.58832-.26198-1.65523.008-2.24282.31856-.69335.75276-1.1533 1.3804-1.46229.53364-.2627.61043-.27652 1.34287-.2415.90064.04306 1.36866.25857 1.89375.87201.55743.65123.71118 1.07571.71224 1.96627.001.69151-.02897.84717-.23841 1.24574-.49104.93444-1.3404 1.50516-2.33595 1.56965-.3589.02325-.7255-.00854-.95078-.08245zm-85.25318-7.90432c-.02586-.06738-.002-.29458.05326-.50488.15307-.58367 1.04177-2.42471 1.45615-3.01658.46853-.66918 1.75847-1.92254 2.47506-2.40486.80668-.54295 2.053-1.11536 3.00475-1.38.74885-.20824 1.02724-.23628 2.722-.27422 1.03831-.02325 1.93489-.08054 1.99239-.12732.0575-.04678.11676-.19083.1317-.3201.02272-.19658.07027-.23504.29059-.23504h.26342V12.49917h-.26342c-.21435 0-.26908-.0409-.29379-.21951-.06199-.44818-.12435-.46493-1.5482-.41597-1.02847.03537-1.45444.08842-1.93369.2408-1.42092.45183-2.36779 1.12507-3.17934 2.26057l-.39223.54879h-2.36582c-1.94296 0-2.37422-.0219-2.41283-.1225z"/><path fill="#5d5d5d" d="M200.164 70.17638c-.03386-.03387-.06157-.19315-.06157-.35396v-.29238l-87.65272-.02225-87.65273-.02225-.92197-.24532c-.96366-.2564-2.41182-.89695-3.1335-1.38598-.59644-.40418-2.16882-1.95671-2.61643-2.58341-.5968-.8356-1.17513-2.08492-1.47823-3.19334l-.27928-1.02137V45.60218l.24494-.96537c.27738-1.09322.91877-2.5133 1.50175-3.325.45063-.62742 2.02613-2.18859 2.59972-2.57606.75133-.50753 2.04179-1.09214 3.0166-1.36659l.9786-.2755 5.64213-.0305 5.64214-.03048.08885.2337c.05316.13982.07938 1.03206.06528 2.2213l-.02358 1.9876-5.40009.04721-5.4001.0472-.6777.24517c-1.74697.63196-2.97617 1.88697-3.54342 3.6178l-.257.78417V60.44146l.25095.73123c.59226 1.72575 1.83706 2.96951 3.5816 3.57864l.73338.25607 87.34009.02225 87.34009.02225.02726-.32958c.02168-.26195.06331-.32958.20289-.32958.17206 0 .17561.05854.17561 2.8964 0 2.54532-.01648 2.8996-.136 2.9226-.07479.01442-.16369-.00149-.19756-.03538zM6.75277 68.25624c0-.2927.01463-.30733.30732-.30733h.30732l.00256-1.33904c.00356-1.8582.13185-3.43014.3505-4.29458.22683-.8968.88884-2.31178 1.48513-3.17434.52572-.76049 1.76698-1.99392 2.50823-2.49242 1.24335-.83617 3.3746-1.67027 4.06448-1.5907l.23803.02745.02342 2.30613.02343 2.30613-.24293.0982c-1.03313.4176-1.41869.66754-2.1378 1.38587-.84354.8426-1.19416 1.4567-1.48824 2.60651-.14355.5613-.17305.97261-.17305 2.41315v1.73652l.27652.02751c.34115.03395.5101.25932.34423.45919-.10102.12173-.47539.13907-3.00227.13907H6.75279zm160.993-4.92382c-.14487-.02026-.55976-.07899-.92196-.13052-3.88242-.5524-7.18675-2.8099-9.2679-6.3318-1.79131-3.03141-2.67183-7.49052-2.4055-12.18193.21764-3.83362 1.11006-6.75678 2.86924-9.39839 2.23339-3.35367 5.5185-5.08793 10.08462-5.32382 3.95297-.20422 7.50471.92924 9.82838 3.13648 2.14225 2.03494 3.37468 4.83497 3.72394 8.46065.1335 1.38593.20508 4.00453.12 4.39032l-.07745.35123-10.79626.0439-10.79626.0439-.02652.56359c-.06645 1.412.45646 4.28723 1.06744 5.86926 1.71046 4.42895 4.4017 6.60225 8.17875 6.60473 2.34374.0015 4.31777-.57907 6.17878-1.81735.7695-.512 2.4427-2.06511 2.997-2.78189.16902-.21857.36079-.3989.42614-.40073.11257-.00316 2.45941 1.8333 3.06008 2.39457l.28129.26285-.28129.39612c-.46886.66025-2.17231 2.30343-3.09763 2.98803-2.75755 2.04016-5.14626 2.79004-9.12533 2.86469-.96588.01812-1.87467.01638-2.01955-.00388zm9.17578-20.79473c0-.78047-.29271-2.41426-.61002-3.40481-.30112-.94005-.97675-2.3205-1.45369-2.97023-1.11863-1.5239-2.86761-2.3282-5.44374-2.50346-1.58617-.1079-3.11508.17779-4.48837.8387-.70286.33825-1.03768.56802-1.6038 1.10059-1.1434 1.07561-2.07657 2.60007-2.62993 4.29629-.28035.85936-.54147 2.22186-.54147 2.82528v.37965h16.77102zm16.8267 20.624c-1.6187-.41008-2.81229-1.66305-3.26045-3.42268-.29849-1.17196-.31357-2.38348-.28848-23.18088l.0249-20.6345 2.34756-.02338 2.34756-.0234.0232 20.7457c.02136 19.09391.03485 20.77921.16947 21.16673.42507 1.22367 1.20496 1.57915 3.39402 1.54705 1.01046-.01481 1.28067.00632 1.33261.10424.03584.06756.19777.66818.35986 1.33471.25378 1.0436.27671 1.22306.16517 1.29231-.26162.16243-1.91054.71921-2.76373.93321-1.12375.28187-3.05563.36256-3.8517.16089zM70.2476 62.73748c-.07298-.08794-.09315-6.24716-.07684-23.46655l.02211-23.3473 12.53436-.02226 12.53437-.02225v4.03969h-9.91138c-8.24571 0-9.928.02006-10.0104.11933-.07225.08705-.09296 2.25348-.0766 8.01233l.02242 7.89301 7.94648.0439 7.94648.0439v3.86349l-7.94648.0439-7.94648.0439v18.70277l10.42863.0223 10.42862.0223-.02357 2.04114-.02357 2.04114-12.8746.02225c-10.7588.0186-12.89085.00264-12.97355-.097zm33.76682.06157c-.033-.03299-.06-7.32442-.06-16.20318v-16.1432l2.30492.02342 2.30492.0234V62.81223l-2.24493.0234c-1.23471.01286-2.27193-.00359-2.30491-.0366zm15.34753-.0512c-.0231-.06118-.05176-6.45304-.06366-14.20415l-.02166-14.09293-2.15125-.0439-2.15126-.0439v-3.86349l2.15126-.0439 2.15125-.0439.05524-2.28297c.05856-2.42064.18785-3.56643.56719-5.0264.9787-3.76683 3.43402-6.29131 7.06371-7.26268 2.30348-.61645 5.35333-.51047 7.83697.27233.75957.2394 1.55908.60619 1.65771.7605.05109.07993-1.6524 3.62215-1.87355 3.8958-.06114.07567-.40977-.05633-1.31038-.49616-1.5832-.77319-2.18226-.92733-3.54793-.91289-2.32873.02462-4.02363.8119-4.77244 2.21681-.61323 1.15056-.82037 2.74039-.83655 6.42098l-.0106 2.41468 3.75372.0229 3.75372.0229-.0066.37223c-.0036.20473-.09252 1.08346-.19756 1.95275l-.19098 1.58051-3.55615.0439-3.55616.0439-.0439 14.18074-.04391 14.18073-2.30711.02343c-1.79844.01824-2.31638-.001-2.34913-.0878zm19.05398 0c-.0231-.06118-.05175-6.45304-.06366-14.20415l-.02165-14.09293-2.15126-.0439-2.15125-.0439v-3.86349l2.15125-.0439 2.15126-.0439.05524-2.28297c.05856-2.42064.18785-3.56643.56718-5.0264.97871-3.76683 3.43402-6.29131 7.06372-7.26268 2.30348-.61645 5.35333-.51047 7.83697.27233.75956.2394 1.55908.60619 1.65771.7605.05109.07993-1.6524 3.62215-1.87355 3.8958-.06114.07567-.40978-.05633-1.31038-.49616-1.58321-.77319-2.18226-.92733-3.54793-.91289-2.32873.02462-4.02363.8119-4.77244 2.21681-.61324 1.15056-.82037 2.74039-.83656 6.42098l-.0106 2.41468 3.75372.0229 3.75373.0229-.00657.37223c-.00361.20473-.09253 1.08346-.19757 1.95275l-.19098 1.58051-3.55616.0439-3.55616.0439-.0439 14.18074-.0439 14.18073-2.30711.02343c-1.79844.01824-2.31638-.001-2.34913-.0878zM21.17057 59.50194c-.15798-.15799-.14913-4.31494.00946-4.44656.07901-.06558 1.78428-.1037 5.46595-.1222l5.35111-.0269.68428-.24898c1.80478-.6567 3.08289-2.10922 3.5777-4.06595.1717-.67896.17676-.92186.1519-7.28l-.02571-6.57761-.2496-.68428c-.32648-.89507-.79947-1.58973-1.565-2.2985-1.15165-1.06625-2.1799-1.38758-4.90044-1.53138-2.00992-.10623-2.69104-.25606-4.00662-.88136-1.18702-.56418-1.85519-1.02702-2.77648-1.92322-1.26257-1.22818-2.2288-2.83603-2.66153-4.42884-.33313-1.22623-.53294-4.71335-.28432-4.96198.1537-.1537 4.31497-.14958 4.44132.00438.0503.0613.10726.78819.129 1.64637.0354 1.39744.06087 1.59859.28112 2.2209.31421.88779.78623 1.58433 1.55758 2.29849 1.15165 1.06625 2.1799 1.38758 4.90045 1.53138 2.00992.10624 2.69103.25606 4.00662.88136 1.18701.56419 1.85518 1.02702 2.77647 1.92322 1.26257 1.22819 2.22882 2.83603 2.66154 4.42884.3269 1.2033.38342 2.47257.38402 8.6235.00062 5.9201-.05498 7.28025-.3475 8.5074-.21485.90136-.80422 2.2838-1.28567 3.01571-.47503.72216-1.97926 2.24457-2.6625 2.69469-1.63509 1.0772-3.10216 1.58535-4.96224 1.7188-1.77192.1271-10.52072.1129-10.65092-.01728zM41.3862 41.40299c-.0225-.05865-.03032-1.0732-.01736-2.25456l.02356-2.14792.77168-.27686c2.12252-.7615 3.45695-2.40156 3.75083-4.6099.0658-.49454.0889-1.94962.06756-4.25608-.03123-3.3746-.03993-3.52744-.23443-4.11928-.33455-1.01798-.7018-1.61666-1.4603-2.38055-.53719-.54101-.86468-.78795-1.36224-1.0272-1.40082-.67358-.37341-.6212-13.25526-.67588l-11.54654-.04902-.92196-.24244c-1.05794-.2782-2.49631-.9352-3.28061-1.4985-.62742-.45063-2.18858-2.02614-2.57605-2.59973-.51325-.75978-1.09328-2.04598-1.36037-3.0166-.2575-.9357-.27168-1.0767-.32376-3.21765l-.05447-2.23906-.30732-.0439c-.23415-.03346-.30732-.08572-.30732-.21952 0-.17207.05854-.17562 2.89761-.17562s2.89761.00356 2.89761.17562c0 .1338-.07317.18606-.30732.21951l-.30732.0439.00248 1.84394c.00277 2.08076.06206 2.39897.66257 3.55616.66205 1.27578 1.73202 2.18481 3.15667 2.68186l.74424.25965 11.72215.04526 11.72216.04525.8585.23567c1.04111.2858 2.29538.86762 3.16231 1.46693.77182.53356 2.08607 1.85935 2.59896 2.62178.5526.82146 1.11762 2.05968 1.39116 3.04866l.24287.87806-.00107 4.87326-.00106 4.87325-.23596.85852c-.27115.98657-.84472 2.24898-1.39012 3.05963-.51639.76753-1.85062 2.117-2.547 2.5761-1.0097.66565-2.1563 1.18693-3.18893 1.44979-1.26356.32164-1.63381.37378-1.68612.23747zm20.7724-2.99504c-1.75136-.4881-2.98333-2.08596-2.98333-3.86937 0-1.5654.93634-2.99122 2.39553-3.64786.47878-.21545.66238-.34126.6348-.43499-.02135-.07252-.14323-.64552-.27084-1.27334-.2638-1.29779-.63983-2.78456-.96298-3.80753l-.22042-.69773-.689.04722c-1.20435.08255-2.29928-.32116-3.13347-1.15535-1.59899-1.599-1.56574-4.09652.07592-5.70289.48426-.47384.52198-.53754.4425-.7473-.1423-.3756-1.60286-2.69978-2.39096-3.80473l-.73329-1.0281-.31888.13997c-1.02425.44958-1.9225.57367-2.74634.3794-3.08839-.72825-4.19241-4.49795-1.9686-6.72177 2.18807-2.18806 5.88435-1.16629 6.6912 1.84966.25679.95991.10449 1.99212-.44014 2.98294l-.31193.5675.7387 1.03458c.40628.56903 1.18113 1.77312 1.7219 2.67577l.9832 1.64119.71965-.05079c1.2361-.08723 2.32287.30824 3.16715 1.15252 1.62469 1.62469 1.56733 4.10612-.13308 5.75754l-.58768.57074.16578.52684c.30569.97142.92238 3.50153 1.12475 4.61452l.20041 1.10226.56161.10654c3.15222.59797 4.35658 4.4753 2.09315 6.73872-.98973.98973-2.5314 1.41444-3.8253 1.05384zm1.8135-1.55508c.92218-.34503 1.69876-1.403 1.69876-2.3143 0-.91128-.77658-1.96925-1.69875-2.31428-.63313-.23688-.97433-.23688-1.60745 0-.92218.34503-1.69876 1.403-1.69876 2.31429 0 .89568.77466 1.96479 1.67381 2.31002.6149.23608 1.01005.23712 1.6324.00425zm-3.42444-13.7856c.92217-.34504 1.69875-1.403 1.69875-2.3143 0-.91128-.77658-1.96926-1.69875-2.31429-.63313-.23688-.97433-.23688-1.60745 0-.92218.34503-1.69876 1.403-1.69876 2.3143 0 .89568.77466 1.96478 1.67382 2.31001.61489.2361 1.01004.23712 1.63239.00426zM52.90849 11.2134c.92218-.34503 1.69876-1.403 1.69876-2.31429 0-.91129-.77658-1.96926-1.69876-2.31429-.63312-.23688-.97433-.23688-1.60745 0-.92218.34503-1.69876 1.403-1.69876 2.3143 0 .89567.77467 1.96478 1.67382 2.31.61489.2361 1.01004.23713 1.6324.00429zm52.56712 11.48226c-.78463-.2574-1.47344-.87493-1.81213-1.62461-.26579-.58832-.26198-1.65523.008-2.24282.31856-.69335.75276-1.1533 1.3804-1.46229.53364-.2627.61043-.27652 1.34287-.2415.90064.04306 1.36866.25857 1.89375.87201.55743.65123.71118 1.07571.71224 1.96627.001.69151-.02897.84717-.23841 1.24574-.49104.93444-1.3404 1.50516-2.33595 1.56965-.3589.02325-.7255-.00854-.95078-.08245zm-85.25318-7.90432c-.02586-.06738-.002-.29458.05326-.50488.15307-.58367 1.04177-2.42471 1.45615-3.01658.46853-.66918 1.75847-1.92254 2.47506-2.40486.80668-.54295 2.053-1.11536 3.00475-1.38.74885-.20824 1.02724-.23628 2.722-.27422 1.03831-.02325 1.93489-.08054 1.99239-.12732.0575-.04678.11676-.19083.1317-.3201.02272-.19658.07027-.23504.29059-.23504h.26342V12.49917h-.26342c-.21435 0-.26908-.0409-.29379-.21951-.06199-.44818-.12435-.46493-1.5482-.41597-1.02847.03537-1.45444.08842-1.93369.2408-1.42092.45183-2.36779 1.12507-3.17934 2.26057l-.39223.54879h-2.36582c-1.94296 0-2.37422-.0219-2.41283-.1225z"/><path fill="#ac0d05" d="M200.164 70.17638c-.03386-.03387-.06157-.19315-.06157-.35396v-.29238l-87.65272-.02225-87.65273-.02225-.92197-.24532c-.96366-.2564-2.41182-.89695-3.1335-1.38598-.59644-.40418-2.16882-1.95671-2.61643-2.58341-.5968-.8356-1.17513-2.08492-1.47823-3.19334l-.27928-1.02137V45.60218l.24494-.96537c.27738-1.09322.91877-2.5133 1.50175-3.325.45063-.62742 2.02613-2.18859 2.59972-2.57606.75133-.50753 2.04179-1.09214 3.0166-1.36659l.9786-.2755 5.64213-.0305 5.64214-.03048.08885.2337c.05316.13982.07938 1.03206.06528 2.2213l-.02358 1.9876-5.40009.04721-5.4001.0472-.6777.24517c-1.74697.63196-2.97617 1.88697-3.54342 3.6178l-.257.78417V60.44146l.25095.73123c.59226 1.72575 1.83706 2.96951 3.5816 3.57864l.73338.25607 87.34009.02225 87.34009.02225.02726-.32958c.02168-.26195.06331-.32958.20289-.32958.17206 0 .17561.05854.17561 2.8964 0 2.54532-.01648 2.8996-.136 2.9226-.07479.01442-.16369-.00149-.19756-.03538zM6.75277 68.27115c0-.20364.02559-.21924.28944-.17642.18598.03018.32425.00468.38683-.07138.0636-.0773.11059-.92546.13546-2.4452.0354-2.16308.05421-2.38732.26727-3.1854.4652-1.74252 1.37304-3.2885 2.67466-4.55467.90155-.877 1.56882-1.34455 2.68077-1.8784.83284-.39983 2.44019-.88061 2.66092-.79591.10255.03935.12408.42108.12297 2.17977-.00074 1.17263-.03037 2.1736-.06585 2.22437-.03548.05077-.25311.16305-.48363.2495-1.07846.4045-2.39073 1.63013-2.91683 2.72429-.51324 1.06738-.5895 1.48651-.63655 3.49836-.04653 1.98942-.02705 2.08446.4271 2.08446.16604 0 .25266.04515.25266.13172 0 .11428-.36507.1317-2.75872.1317-1.5173 0-2.82122.024-2.89761.0533-.10422.04-.1389-.00249-.1389-.1701zm160.8613-5.06808c-3.4572-.3785-6.219-1.76876-8.39948-4.2282-1.94645-2.19548-3.16767-5.04286-3.72849-8.6933-.2608-1.69752-.32497-5.19172-.12707-6.91845.65305-5.69793 3.23561-10.02803 7.11544-11.93022 1.97348-.96755 3.80449-1.34545 6.5006-1.34166 4.0801.00572 7.03633 1.1309 9.31597 3.54575 1.36216 1.44296 2.23283 3.06973 2.78531 5.2041.41182 1.591.52713 2.69746.53532 5.13668l.00754 2.23906-10.80018.0439-10.80019.0439-.02821.65855c-.08806 2.05601.55584 4.97442 1.56457 7.09118 1.4229 2.98589 3.4729 4.80887 5.98933 5.32604 1.43017.29393 3.68342.1451 5.32274-.35159 1.9419-.58835 4.1978-2.22516 5.7879-4.19951.20592-.25567.30618-.32084.39118-.25427 1.29591 1.01503 3.01767 2.44384 3.03619 2.51958.03892.15921-1.31561 1.6562-2.19888 2.43014-2.94953 2.58446-5.72018 3.60369-10.1183 3.72218-.7727.02081-1.74077.001-2.15126-.04386zm9.41672-20.6741c-.098-2.68058-1.19806-5.60517-2.65778-7.06588-1.03296-1.03367-2.4182-1.64232-4.21256-1.85092-2.79212-.3246-5.28078.36083-6.95636 1.9159-.9433.87545-2.01528 2.60387-2.55942 4.12667-.36415 1.0191-.66105 2.73358-.59285 3.42345.0087.08772 1.74324.10563 8.50617.0878l8.49527-.02237zm16.86917 20.54723c-1.66162-.36136-2.772-1.49878-3.3436-3.425-.14777-.49798-.15761-1.70864-.1796-22.10525l-.02326-21.57843h4.48054V36.466c0 14.8429.02724 20.62685.09873 20.96377.15888.74887.46996 1.2742.92563 1.56317.585.371 1.2068.48108 2.64043.46743l1.2501-.0119.08413.32089c.18278.69734.53278 2.11128.53278 2.1524 0 .0691-1.28592.54545-2.15126.7969-1.61886.4704-3.19506.60102-4.31463.35754zm-123.51654-.3661c-.03236-.03237-.05883-10.56268-.05883-23.4007V15.96751h24.8492v3.86349h-9.91136c-8.24547 0-9.92801.02006-10.0104.11932-.07226.08706-.09296 2.27636-.0766 8.10014l.02242 7.98082 7.94648.0439 7.94648.0439.02374 1.82199.02372 1.82198H83.2946c-6.13682 0-7.87614.0239-7.99287.10976-.13904.10227-.14767.75006-.12654 9.50504l.02267 9.39529 10.42869.0223 10.42868.0223-.02362 1.95333-.02362 1.95334-12.78285.02225c-7.03057.01222-12.80933-.00423-12.84169-.03659zm33.69998-.04999c-.02327-.0612-.03217-7.30263-.01979-16.09205l.02253-15.98077h4.39032v32.13714l-2.17538.0235c-1.69285.01827-2.18475-.00125-2.2177-.0878zm15.36638-.00002c-.02312-.0612-.05177-6.45309-.06368-14.2042l-.02165-14.09293-2.15126-.0439-2.15125-.0439v-3.68787l2.15125-.0439 2.15126-.0439.0575-2.19516c.03163-1.20734.12218-2.66145.20123-3.23136.38568-2.7807 1.28295-4.86038 2.7683-6.41633 1.4784-1.54867 3.03602-2.39613 5.28803-2.87712 1.2063-.25765 3.806-.28293 5.07541-.04936 1.541.28353 3.60007.97962 3.60007 1.21703 0 .09473-1.83207 3.76188-1.8794 3.76188-.01906 0-.55486-.2532-1.19067-.56268-1.54407-.75156-2.10474-.88821-3.60322-.87822-1.88905.01259-3.20423.44955-4.15917 1.38187-1.17423 1.14642-1.48505 2.6442-1.4973 7.21525l-.00701 2.6342 3.71295.0229c2.85658.01762 3.7219.048 3.7518.1317.02138.05985-.04972.89906-.15798 1.86493l-.19684 1.75613-3.55496.0439-3.55497.0439-.0439 14.18074-.0439 14.18074-2.2193.02347c-1.72812.01827-2.22858-.00125-2.26132-.08781zm19.05399 0c-.02313-.0612-.05177-6.45309-.06368-14.2042l-.02166-14.09293-2.15125-.0439-2.15126-.0439v-3.68787l2.15126-.0439 2.15125-.0439.05751-2.19516c.03163-1.20734.12217-2.66145.20123-3.23136.38568-2.7807 1.28294-4.86038 2.7683-6.41633 1.4784-1.54867 3.03601-2.39613 5.28803-2.87712 1.20629-.25765 3.806-.28293 5.0754-.04936 1.541.28353 3.60007.97962 3.60007 1.21703 0 .09473-1.83206 3.76188-1.87939 3.76188-.01906 0-.55486-.2532-1.19067-.56268-1.54408-.75156-2.10475-.88821-3.60322-.87822-1.88905.01259-3.20423.44955-4.15917 1.38187-1.17424 1.14642-1.48506 2.6442-1.4973 7.21525l-.00702 2.6342 3.71295.0229c2.85658.01762 3.7219.048 3.7518.1317.02138.05985-.04972.89906-.15798 1.86493l-.19684 1.75613-3.55496.0439-3.55497.0439-.0439 14.18074-.0439 14.18074-2.21929.02347c-1.72813.01827-2.22859-.00125-2.26132-.08781zM21.19404 59.32414c-.02444-.06367-.03378-1.0237-.02078-2.13341l.02364-2.01765 5.31229-.04618c5.26162-.04575 5.31815-.04813 5.92693-.25005 1.01547-.3368 1.61792-.7067 2.37709-1.45951.56189-.5572.7842-.8575 1.07282-1.44919.7075-1.45043.67699-1.07048.67699-8.42941v-6.54158l-.20554-.65855c-.32982-1.05672-.68694-1.64146-1.50699-2.46758-.5803-.58458-.89826-.82673-1.40647-1.0711-1.03466-.4975-1.52393-.5928-3.46648-.67516-2.05763-.08725-2.96855-.27977-4.29373-.90752-1.11592-.52861-1.79998-1.0059-2.70888-1.89005-1.29661-1.2613-2.19658-2.78799-2.67343-4.53513-.22647-.82974-.23983-.98437-.24287-2.8098l-.00321-1.93175h4.21471l.0559 1.49271c.08555 2.28376.44789 3.2249 1.74443 4.53103.5803.58459.89826.82673 1.40648 1.0711 1.03465.4975 1.52392.5928 3.46647.67517 2.05764.08724 2.96855.27977 4.29373.90751 1.11592.52862 1.79998 1.0059 2.70889 1.89006 1.29382 1.25858 2.19068 2.77817 2.67664 4.53512l.24287.87807V51.04618l-.24495.96538c-.27721 1.09255-.9184 2.51252-1.5014 3.325-.4959.6911-1.78354 1.93953-2.49293 2.417-.79546.5354-2.04354 1.11162-3.00475 1.38725l-.83416.2392-5.77445.02995c-4.71948.02447-5.78257.00881-5.81887-.08582zM41.38619 41.403c-.0225-.05865-.03032-1.0732-.01736-2.25456l.02356-2.14792.77168-.27686c2.12252-.7615 3.45695-2.40156 3.75083-4.6099.0658-.49454.0889-1.94962.06756-4.25608-.03123-3.3746-.03993-3.52744-.23443-4.11928-.33455-1.01798-.7018-1.61666-1.4603-2.38055-.53719-.54101-.86468-.78795-1.36224-1.0272-1.40082-.67358-.37341-.6212-13.25526-.67588l-11.54654-.04902-.92196-.24244c-1.05794-.2782-2.49631-.9352-3.28061-1.4985-.62742-.45063-2.18858-2.02614-2.57605-2.59973-.51325-.75978-1.09328-2.04598-1.36037-3.0166-.2575-.9357-.27168-1.0767-.32376-3.21765l-.05447-2.23906-.30732-.0439c-.23415-.03346-.30732-.08572-.30732-.21952 0-.17207.05854-.17562 2.89761-.17562s2.89761.00356 2.89761.17562c0 .1338-.07317.18606-.30732.21951l-.30732.0439.00248 1.84394c.00277 2.08076.06206 2.39897.66257 3.55616.66205 1.27578 1.73202 2.18481 3.15667 2.68186l.74424.25965 11.72215.04526 11.72216.04525.8585.23567c1.04111.2858 2.29538.86762 3.16231 1.46693.77182.53356 2.08607 1.85935 2.59896 2.62178.5526.82146 1.11762 2.05968 1.39116 3.04866l.24287.87806-.00107 4.87326-.00106 4.87325-.23596.85852c-.27115.98657-.84472 2.24898-1.39012 3.05963-.51639.76753-1.85062 2.117-2.547 2.5761-1.0097.66565-2.1563 1.18693-3.18893 1.44979-1.26356.32164-1.63381.37378-1.68612.23747zm20.7724-2.99504c-1.75136-.4881-2.98333-2.08596-2.98333-3.86937 0-1.58153.90044-2.94526 2.41254-3.65386.41052-.19238.74641-.36502.74641-.38365 0-.39809-.91358-4.19604-1.25489-5.21683l-.19392-.57998-.76425.03168c-1.30482.0541-2.3552-.32987-3.19227-1.16694-1.6122-1.6122-1.56828-4.0702.10243-5.73271.30875-.30723.56135-.60843.56135-.66933 0-.23855-2.0777-3.4942-3.03195-4.75092-.12809-.16868-.13585-.1683-.59042.02998-1.77219.77296-3.4368.51288-4.68106-.73138-1.56494-1.56494-1.56494-4.06611 0-5.63106 2.18807-2.18806 5.88435-1.16629 6.6912 1.84966.25735.962.10456 1.992-.44337 2.98883-.17334.31535-.31517.61148-.31517.65806 0 .04658.3655.6101.81221 1.25225.44672.64216 1.18758 1.80632 1.64637 2.58702l.83416 1.41947.79866-.05255c.51992-.03421.96428-.0135 1.2732.05936 1.83868.43364 3.15054 2.0606 3.15054 3.9073 0 1.13795-.4373 2.0962-1.36242 2.98541l-.63946.61465.3061 1.05367c.34693 1.19416.8358 3.27748.99932 4.25861.06037.3622.15333.70092.20659.7527.05325.0518.35088.14371.6614.20427 3.14536.61346 4.33497 4.4722 2.07534 6.73182-.98973.98973-2.5314 1.41444-3.8253 1.05384zm1.8135-1.55508c.92218-.34503 1.69876-1.403 1.69876-2.3143 0-.91128-.77658-1.96925-1.69875-2.31428-.63313-.23688-.97433-.23688-1.60745 0-.92218.34503-1.69876 1.403-1.69876 2.31429 0 .89568.77466 1.96479 1.67381 2.31002.6149.23608 1.01005.23712 1.6324.00425zm-3.42444-13.7856c.92217-.34504 1.69875-1.403 1.69875-2.3143 0-.91128-.77658-1.96926-1.69875-2.31429-.63313-.23688-.97433-.23688-1.60745 0-.92218.34503-1.69876 1.403-1.69876 2.3143 0 .89568.77466 1.96478 1.67382 2.31001.61489.2361 1.01004.23712 1.63239.00426zM52.90849 11.2134c.92218-.34503 1.69876-1.403 1.69876-2.31429 0-.91129-.77658-1.96926-1.69876-2.31429-.63312-.23688-.97433-.23688-1.60745 0-.92218.34503-1.69876 1.403-1.69876 2.3143 0 .89567.77467 1.96478 1.67382 2.31.61489.2361 1.01004.23713 1.6324.00429zm52.83225 11.42378c-.52591-.10405-.98695-.36627-1.40893-.80133-.82058-.84605-1.00224-2.0248-.47659-3.09256.5375-1.0918 1.43798-1.61265 2.63902-1.52643.71033.051 1.16737.27368 1.66116.80938.53832.584.74163 1.09587.75174 1.89257.01702 1.341-.74012 2.34334-2.02238 2.67733-.55656.14496-.60918.14685-1.14402.04104zm-85.41068-7.8808c-.06868-.11114.35316-1.27762.7461-2.06314.50763-1.01478.98752-1.65308 1.93378-2.57213 1.29371-1.25651 2.53116-1.98661 4.15343-2.45055.82688-.23647 2.44707-.39204 4.10933-.39457l.85611-.00124v-.25267c0-.30763.18343-.49465.33576-.34232.14695.14695.14695 5.52115 0 5.66811-.15233.15232-.33576-.0347-.33576-.34233v-.25266l-1.11953-.01277c-1.49002-.017-1.62677-.00565-2.38877.1982-1.3314.35619-2.4763 1.16278-3.31122 2.33281l-.39602.55497H22.6432c-1.24855 0-2.28946-.03134-2.31314-.06966z"/><path fill="#262626" d="M6.75277 68.27115c0-.20364.02559-.21924.28944-.17642.18598.03018.32425.00468.38683-.07138.0636-.0773.11059-.92546.13546-2.4452.0354-2.16308.05421-2.38732.26727-3.1854.4652-1.74252 1.37304-3.2885 2.67466-4.55467.90155-.877 1.56882-1.34455 2.68077-1.8784.83284-.39983 2.44019-.88061 2.66092-.79591.10255.03935.12408.42108.12297 2.17977-.00074 1.17263-.03037 2.1736-.06585 2.22437-.03548.05077-.25311.16305-.48363.2495-1.07846.4045-2.39073 1.63013-2.91683 2.72429-.51324 1.06738-.5895 1.48651-.63655 3.49836-.04653 1.98942-.02705 2.08446.4271 2.08446.16604 0 .25266.04515.25266.13172 0 .11428-.36507.1317-2.75872.1317-1.5173 0-2.82122.024-2.89761.0533-.10422.04-.1389-.00249-.1389-.1701zm160.8613-5.06808c-3.4572-.3785-6.219-1.76876-8.39948-4.2282-1.94645-2.19548-3.16767-5.04286-3.72849-8.6933-.2608-1.69752-.32497-5.19172-.12707-6.91845.65305-5.69793 3.23561-10.02803 7.11544-11.93022 1.97348-.96755 3.80449-1.34545 6.5006-1.34166 4.0801.00572 7.03633 1.1309 9.31597 3.54575 1.36216 1.44296 2.23283 3.06973 2.78531 5.2041.41182 1.591.52713 2.69746.53532 5.13668l.00754 2.23906-10.80018.0439-10.80019.0439-.02821.65855c-.08806 2.05601.55584 4.97442 1.56457 7.09118 1.4229 2.98589 3.4729 4.80887 5.98933 5.32604 1.43017.29393 3.68342.1451 5.32274-.35159 1.9419-.58835 4.1978-2.22516 5.7879-4.19951.20592-.25567.30618-.32084.39118-.25427 1.29591 1.01503 3.01767 2.44384 3.03619 2.51958.03892.15921-1.31561 1.6562-2.19888 2.43014-2.94953 2.58446-5.72018 3.60369-10.1183 3.72218-.7727.02081-1.74077.001-2.15126-.04386zm9.41672-20.6741c-.098-2.68058-1.19806-5.60517-2.65778-7.06588-1.03296-1.03367-2.4182-1.64232-4.21256-1.85092-2.79212-.3246-5.28078.36083-6.95636 1.9159-.9433.87545-2.01528 2.60387-2.55942 4.12667-.36415 1.0191-.66105 2.73358-.59285 3.42345.0087.08772 1.74324.10563 8.50617.0878l8.49527-.02237zm16.86917 20.54723c-1.66162-.36136-2.772-1.49878-3.3436-3.425-.14777-.49798-.15761-1.70864-.1796-22.10525l-.02326-21.57843h4.48054V36.466c0 14.8429.02724 20.62685.09873 20.96377.15888.74887.46996 1.2742.92563 1.56317.585.371 1.2068.48108 2.64043.46743l1.2501-.0119.08413.32089c.18278.69734.53278 2.11128.53278 2.1524 0 .0691-1.28592.54545-2.15126.7969-1.61886.4704-3.19506.60102-4.31463.35754zm-123.51654-.3661c-.03236-.03237-.05883-10.56268-.05883-23.4007V15.96751h24.8492v3.86349h-9.91136c-8.24547 0-9.92801.02006-10.0104.11932-.07226.08706-.09296 2.27636-.0766 8.10014l.02242 7.98082 7.94648.0439 7.94648.0439.02374 1.82199.02372 1.82198H83.2946c-6.13682 0-7.87614.0239-7.99287.10976-.13904.10227-.14767.75006-.12654 9.50504l.02267 9.39529 10.42869.0223 10.42868.0223-.02362 1.95333-.02362 1.95334-12.78285.02225c-7.03057.01222-12.80933-.00423-12.84169-.03659zm33.69998-.04999c-.02327-.0612-.03217-7.30263-.01979-16.09205l.02253-15.98077h4.39032v32.13714l-2.17538.0235c-1.69285.01827-2.18475-.00125-2.2177-.0878zm15.36638-.00002c-.02312-.0612-.05177-6.45309-.06368-14.2042l-.02165-14.09293-2.15126-.0439-2.15125-.0439v-3.68787l2.15125-.0439 2.15126-.0439.0575-2.19516c.03163-1.20734.12218-2.66145.20123-3.23136.38568-2.7807 1.28295-4.86038 2.7683-6.41633 1.4784-1.54867 3.03602-2.39613 5.28803-2.87712 1.2063-.25765 3.806-.28293 5.07541-.04936 1.541.28353 3.60007.97962 3.60007 1.21703 0 .09473-1.83207 3.76188-1.8794 3.76188-.01906 0-.55486-.2532-1.19067-.56268-1.54407-.75156-2.10474-.88821-3.60322-.87822-1.88905.01259-3.20423.44955-4.15917 1.38187-1.17423 1.14642-1.48505 2.6442-1.4973 7.21525l-.00701 2.6342 3.71295.0229c2.85658.01762 3.7219.048 3.7518.1317.02138.05985-.04972.89906-.15798 1.86493l-.19684 1.75613-3.55496.0439-3.55497.0439-.0439 14.18074-.0439 14.18074-2.2193.02347c-1.72812.01827-2.22858-.00125-2.26132-.08781zm19.05399 0c-.02313-.0612-.05177-6.45309-.06368-14.2042l-.02166-14.09293-2.15125-.0439-2.15126-.0439v-3.68787l2.15126-.0439 2.15125-.0439.05751-2.19516c.03163-1.20734.12217-2.66145.20123-3.23136.38568-2.7807 1.28294-4.86038 2.7683-6.41633 1.4784-1.54867 3.03601-2.39613 5.28803-2.87712 1.20629-.25765 3.806-.28293 5.0754-.04936 1.541.28353 3.60007.97962 3.60007 1.21703 0 .09473-1.83206 3.76188-1.87939 3.76188-.01906 0-.55486-.2532-1.19067-.56268-1.54408-.75156-2.10475-.88821-3.60322-.87822-1.88905.01259-3.20423.44955-4.15917 1.38187-1.17424 1.14642-1.48506 2.6442-1.4973 7.21525l-.00702 2.6342 3.71295.0229c2.85658.01762 3.7219.048 3.7518.1317.02138.05985-.04972.89906-.15798 1.86493l-.19684 1.75613-3.55496.0439-3.55497.0439-.0439 14.18074-.0439 14.18074-2.21929.02347c-1.72813.01827-2.22859-.00125-2.26132-.08781zM21.19404 59.32414c-.02444-.06367-.03378-1.0237-.02078-2.13341l.02364-2.01765 5.31229-.04618c5.26162-.04575 5.31815-.04813 5.92693-.25005 1.01547-.3368 1.61792-.7067 2.37709-1.45951.56189-.5572.7842-.8575 1.07282-1.44919.7075-1.45043.67699-1.07048.67699-8.42941v-6.54158l-.20554-.65855c-.32982-1.05672-.68694-1.64146-1.50699-2.46758-.5803-.58458-.89826-.82673-1.40647-1.0711-1.03466-.4975-1.52393-.5928-3.46648-.67516-2.05763-.08725-2.96855-.27977-4.29373-.90752-1.11592-.52861-1.79998-1.0059-2.70888-1.89005-1.29661-1.2613-2.19658-2.78799-2.67343-4.53513-.22647-.82974-.23983-.98437-.24287-2.8098l-.00321-1.93175h4.21471l.0559 1.49271c.08555 2.28376.44789 3.2249 1.74443 4.53103.5803.58459.89826.82673 1.40648 1.0711 1.03465.4975 1.52392.5928 3.46647.67517 2.05764.08724 2.96855.27977 4.29373.90751 1.11592.52862 1.79998 1.0059 2.70889 1.89006 1.29382 1.25858 2.19068 2.77817 2.67664 4.53512l.24287.87807V51.04618l-.24495.96538c-.27721 1.09255-.9184 2.51252-1.5014 3.325-.4959.6911-1.78354 1.93953-2.49293 2.417-.79546.5354-2.04354 1.11162-3.00475 1.38725l-.83416.2392-5.77445.02995c-4.71948.02447-5.78257.00881-5.81887-.08582zm41.04893-29.3076c-.27353-1.39863-.58834-2.73098-.93172-3.94331-.21078-.74418-.37307-1.36235-.36064-1.37373.1126-.10308.72712-.29143.77887-.23872.1667.16983.97616 3.36253 1.30088 5.1311l.1558.84851-.42437.02955-.42437.02954zm43.49777-7.37936c-.52591-.10405-.98695-.36627-1.40893-.80133-.82058-.84605-1.00224-2.0248-.47659-3.09256.5375-1.0918 1.43798-1.61265 2.63902-1.52643.71033.051 1.16737.27368 1.66116.80938.53832.584.74163 1.09587.75174 1.89257.01702 1.341-.74012 2.34334-2.02238 2.67733-.55656.14496-.60918.14685-1.14402.04104zM56.81892 15.8085c-.4497-.75767-1.15106-1.8452-1.55856-2.41671-.4075-.57152-.74092-1.0687-.74092-1.10484 0-.03614.1567-.19163.34822-.34554l.34821-.27984.68351.9693c.6537.92702 2.56952 4.01584 2.57075 4.14476.00045.04772-.77495.4396-.82277.41582-.00594-.00294-.37873-.62528-.82844-1.38295zm-36.48886-1.05212c-.06868-.11114.35316-1.27762.7461-2.06314.50763-1.01478.98752-1.65308 1.93378-2.57213 1.29371-1.25651 2.53116-1.98661 4.15343-2.45055.82688-.23647 2.44707-.39204 4.10933-.39457l.85611-.00124v-.25267c0-.30763.18343-.49465.33576-.34232.14695.14695.14695 5.52115 0 5.66811-.15233.15232-.33576-.0347-.33576-.34233v-.25266l-1.11953-.01277c-1.49002-.017-1.62677-.00565-2.38877.1982-1.3314.35619-2.4763 1.16278-3.31122 2.33281l-.39602.55497H22.6432c-1.24855 0-2.28946-.03134-2.31314-.06966z"/></svg>