<svg xmlns="http://www.w3.org/2000/svg" role="img" viewBox="22.31 41.81 555.88 526.88"><title>Four Keys logo</title><path fill="#fff" d="M0 0h600v600H0z"/><path d="M502.33963 63.1418h-83.24332c-13.61 0-25.13444 9.979-29.06822 23.75744H372.5578l-9.27959 8.57742L322.7041 50.28l-34.39228 38.15521-10.74806-11.87743-41.35989 46.1764-27.261-30.48873-39.17422 43.696-17.70529-19.612-51.73051 52.01676-13.87534-15.74061H76.07166l-8.91291 9.59521-.01494 33.28866c0 13.85844 10.03286 25.09293 22.409 25.09293H392.334c5.18766 10.57542 15.22624 17.74516 26.76234 17.74516h83.24332c16.85383 0 30.51656-15.2991 30.51656-34.17149V97.3133c-.00003-18.8724-13.66276-34.1715-30.51659-34.1715z"/><path fill="#c06ef0" d="M502.33963 63.1418h-83.24332c-13.61 0-25.13444 9.979-29.06822 23.75744H372.5578l-9.27959 8.57742L322.7041 50.28l-34.39228 38.15521-10.74806-11.87743-41.35989 46.1764-27.261-30.48873-39.17422 43.696-17.70529-19.612-51.73051 52.01676-13.87534-15.74061H76.07166l-8.91291 9.59521-.01494 33.28866c0 13.85844 10.03286 25.09293 22.409 25.09293H392.334c5.18766 10.57542 15.22624 17.74516 26.76234 17.74516h83.24332c16.85383 0 30.51656-15.2991 30.51656-34.17149V97.3133c-.00003-18.8724-13.66276-34.1715-30.51659-34.1715z"/><path fill="none" stroke="#fff" stroke-linejoin="round" stroke-width="3" d="M502.33963 63.1418h-83.24332c-13.61 0-25.13444 9.979-29.06822 23.75744H372.5578l-9.27959 8.57742L322.7041 50.28l-34.39228 38.15521-10.74806-11.87743-41.35989 46.1764-27.261-30.48873-39.17422 43.696-17.70529-19.612-51.73051 52.01676-13.87534-15.74061H76.07166l-8.91291 9.59521-.01494 33.28866v0c0 13.85844 10.03286 25.09293 22.409 25.09293H392.334c5.18766 10.57542 15.22624 17.74516 26.76234 17.74516h83.24332c16.85383 0 30.51656-15.2991 30.51656-34.17149V97.3133c-.00003-18.8724-13.66276-34.1715-30.51659-34.1715z"/><path fill="#fff" d="M512.38454 131.96055c0-5.12348-4.60489-8.62132-8.86931-6.76446-9.13626 3.9782-15.6118 13.92173-15.6118 25.55882s6.47554 21.58063 15.6118 25.55883c4.26442 1.85686 8.86931-1.641 8.86931-6.76447z"/><path d="M67.14381 149.70959v106.8428c0 18.8724 13.66273 34.1715 30.51656 34.1715h83.24332c11.5361 0 21.57468-7.16974 26.76234-17.74517h302.78114c12.37616 0 22.409-11.23448 22.409-25.09293l-.01494-33.28866-8.91291-9.59521h-10.38583l-13.87531 15.74062-51.73051-52.01677-17.70529 19.612-39.17422-43.696-27.261 30.48873-41.35989-46.17639-10.74809 11.87739-34.39228-38.15525-40.57411 45.19675-9.27959-8.57742h-17.47029c-3.93378-13.77844-15.4582-23.75743-29.06822-23.75743H97.66037c-16.85383-.00005-30.51656 15.29905-30.51656 34.17144z"/><path fill="#a83cde" d="M67.14381 149.70959v106.8428c0 18.8724 13.66273 34.1715 30.51656 34.1715h83.24332c11.5361 0 21.57468-7.16974 26.76234-17.74517h302.78114c12.37616 0 22.409-11.23448 22.409-25.09293l-.01494-33.28866-8.91291-9.59521h-10.38583l-13.87531 15.74062-51.73051-52.01677-17.70529 19.612-39.17422-43.696-27.261 30.48873-41.35989-46.17639-10.74809 11.87739-34.39228-38.15525-40.57411 45.19675-9.27959-8.57742h-17.47029c-3.93378-13.77844-15.4582-23.75743-29.06822-23.75743H97.66037c-16.85383-.00005-30.51656 15.29905-30.51656 34.17144z"/><path fill="none" stroke="#fff" stroke-linejoin="round" stroke-width="3" d="M67.14381 149.70959v106.8428c0 18.8724 13.66273 34.1715 30.51656 34.1715h83.24332c11.5361 0 21.57468-7.16974 26.76234-17.74517h302.78114c12.37616 0 22.409-11.23448 22.409-25.09293v0l-.01494-33.28866-8.91291-9.59521h-10.38583l-13.87531 15.74062-51.73051-52.01677-17.70529 19.612-39.17422-43.696-27.261 30.48873-41.35989-46.17639-10.74809 11.87739-34.39228-38.15525-40.57411 45.19675-9.27959-8.57742h-17.47029c-3.93378-13.77844-15.4582-23.75743-29.06822-23.75743H97.66037c-16.85383-.00005-30.51656 15.29905-30.51656 34.17144z"/><path fill="#fff" d="M87.61546 184.35685c0-5.12348 4.60489-8.62132 8.86931-6.76447 9.13626 3.97821 15.6118 13.92174 15.6118 25.55883S105.621 224.73183 96.48477 228.71c-4.26442 1.85685-8.86931-1.641-8.86931-6.76447z"/><path d="M502.33963 166.13114h-83.24332c-13.61 0-25.13444 9.979-29.06822 23.75744H372.5578l-9.27959 8.57742-40.57411-45.1967-34.39228 38.15525-10.74806-11.87742-41.35989 46.17639-27.261-30.48873-39.17422 43.696-17.70529-19.612-51.73051 52.01676L86.45751 255.595H76.07166l-8.91291 9.59521-.01494 33.28866c0 13.85845 10.03286 25.09293 22.409 25.09293H392.334c5.18766 10.57543 15.22624 17.74517 26.76234 17.74517h83.24332c16.85383 0 30.51656-15.2991 30.51656-34.1715V200.30264c-.00003-18.8724-13.66276-34.1715-30.51659-34.1715z"/><path fill="#76219c" d="M502.33963 166.13114h-83.24332c-13.61 0-25.13444 9.979-29.06822 23.75744H372.5578l-9.27959 8.57742-40.57411-45.1967-34.39228 38.15525-10.74806-11.87742-41.35989 46.17639-27.261-30.48873-39.17422 43.696-17.70529-19.612-51.73051 52.01676L86.45751 255.595H76.07166l-8.91291 9.59521-.01494 33.28866c0 13.85845 10.03286 25.09293 22.409 25.09293H392.334c5.18766 10.57543 15.22624 17.74517 26.76234 17.74517h83.24332c16.85383 0 30.51656-15.2991 30.51656-34.1715V200.30264c-.00003-18.8724-13.66276-34.1715-30.51659-34.1715z"/><path fill="none" stroke="#fff" stroke-linejoin="round" stroke-width="3" d="M502.33963 166.13114h-83.24332c-13.61 0-25.13444 9.979-29.06822 23.75744H372.5578l-9.27959 8.57742-40.57411-45.1967-34.39228 38.15525-10.74806-11.87742-41.35989 46.17639-27.261-30.48873-39.17422 43.696-17.70529-19.612-51.73051 52.01676L86.45751 255.595H76.07166l-8.91291 9.59521-.01494 33.28866v0c0 13.85845 10.03286 25.09293 22.409 25.09293H392.334c5.18766 10.57543 15.22624 17.74517 26.76234 17.74517h83.24332c16.85383 0 30.51656-15.2991 30.51656-34.1715V200.30264c-.00003-18.8724-13.66276-34.1715-30.51659-34.1715z"/><path fill="#fff" d="M512.38454 234.9499c0-5.12348-4.60489-8.62132-8.86931-6.76447-9.13626 3.9782-15.6118 13.92174-15.6118 25.55883s6.47554 21.58062 15.6118 25.55883c4.26442 1.85685 8.86931-1.641 8.86931-6.76447z"/><path fill="#202124" d="M33.34473 463.23828h10.9707v-2.77539c0-21.81152 8.72461-31.72461 28.15625-31.72461a58.14107 58.14107 0 0 1 14.27637 1.98242v15.8623a30.415 30.415 0 0 0-9.38575-1.4541c-10.83886 0-12.82226 5.8164-12.82226 15.334v2.77539H85.0293v15.73047H64.54V529.332H44.31543v-50.36325h-10.9707zm87.37207 67.41602c-20.88575 0-33.83985-12.42578-33.83985-34.63379 0-22.86817 13.61524-34.10352 33.83985-34.10352 19.96 0 33.97168 11.23535 33.97168 34.10352 0 22.20801-13.21875 34.63379-33.97168 34.63379zm0-53.00782c-8.72461 0-13.74805 6.874-13.74805 18.374 0 11.23633 4.23047 18.90332 13.74805 18.90332 9.38476 0 13.8789-7.667 13.8789-18.90332 0-11.49997-5.02246-18.374-13.8789-18.374zM225.93262 529.332H208.749l-1.9834-7.00586c-5.02246 4.36231-11.89648 8.46-21.14941 8.46-13.74805 0-23.66211-8.06347-23.66211-24.32226v-43.2256h20.09278v37.541c0 10.57519 5.55175 12.82226 9.91406 12.82226a21.5966 21.5966 0 0 0 13.87988-5.02246v-45.3408h20.0918zm11.10058 0v-66.09372h20.0928v12.0293c4.3623-8.46 11.89648-14.14356 18.50586-14.14356a22.94366 22.94366 0 0 1 5.55175.66016v19.167a26.70719 26.70719 0 0 0-7.26953-.793c-6.3457 0-12.55859 3.4375-16.78808 11.23633V529.332zm119.49219 0l-26.70215-31.32812V529.332h-20.22461v-99.14059h20.22461v57.89843c15.73047-4.09765 21.94336-13.48339 23.13281-24.85156H373.71c-.66113 14.27637-8.19629 27.23047-22.33984 31.19629l28.68453 34.89743z"/><path fill="#202124" d="M398.55859 502.10156c1.71875 8.46 7.53418 12.293 21.5459 12.293a107.34779 107.34779 0 0 0 21.415-2.37891v15.86231a135.61278 135.61278 0 0 1-26.041 2.77637c-24.9834 0-38.20215-11.1045-38.20215-35.16211 0-21.81055 10.97168-33.5752 32.38574-33.5752s31.59277 11.63184 31.59277 32.91406v7.27051zm-.52929-11.76465h23.39746v-1.85058c0-8.19531-4.627-11.76465-11.36817-11.76465s-11.10351 3.30469-12.02929 13.61523zm56.30859 68.20801c5.02344-9.91406 10.17871-19.82715 14.80469-29.74121-13.48242-21.67871-22.0752-43.62207-26.17285-65.56543h20.62109a168.207 168.207 0 0 0 14.4082 45.60449 221.47742 221.47742 0 0 0 13.08692-45.60449h20.48926c-5.55176 33.17969-21.94336 66.49024-36.748 95.30664zm109.70996-78.51855a86.64068 86.64068 0 0 0-19.69531-2.24707c-6.874 0-9.25391 1.85058-9.25391 4.626 0 4.36231 7.667 5.15528 15.86231 7.79981 8.85742 2.9082 16.65625 6.873 16.65625 19.43066 0 15.99512-12.16114 21.01856-31.32813 21.01856a72.1024 72.1024 0 0 1-21.54687-2.77637v-15.86234a103.40442 103.40442 0 0 0 21.28222 2.7754c6.21289 0 10.83887-1.05664 10.83887-5.6836 0-4.09765-5.81543-5.41992-13.08594-7.79883-9.64941-3.04-18.374-6.874-18.374-18.7705 0-11.36817 7.40234-20.6211 29.874-20.6211a76.38512 76.38512 0 0 1 18.77051 2.37891z"/><path d="M67.14381 252.69894v106.8428c0 18.87239 13.66273 34.1715 30.51656 34.1715h83.24332c11.5361 0 21.57468-7.16975 26.76234-17.74517h302.78114c12.37616 0 22.409-11.23449 22.409-25.09293l-.01494-33.28866-8.91291-9.59521h-10.38583l-13.87531 15.74062-51.73051-52.01679-17.70529 19.612-39.17422-43.696-27.261 30.48873-41.35989-46.1764-10.74806 11.87743-34.39231-38.15527-40.57411 45.19671-9.27959-8.57742h-17.47029c-3.93378-13.77845-15.4582-23.75744-29.06822-23.75744H97.66037c-16.85383 0-30.51656 15.2991-30.51656 34.1715z"/><path fill="#480766" d="M67.14381 252.69894v106.8428c0 18.87239 13.66273 34.1715 30.51656 34.1715h83.24332c11.5361 0 21.57468-7.16975 26.76234-17.74517h302.78114c12.37616 0 22.409-11.23449 22.409-25.09293l-.01494-33.28866-8.91291-9.59521h-10.38583l-13.87531 15.74062-51.73051-52.01679-17.70529 19.612-39.17422-43.696-27.261 30.48873-41.35989-46.1764-10.74806 11.87743-34.39231-38.15527-40.57411 45.19671-9.27959-8.57742h-17.47029c-3.93378-13.77845-15.4582-23.75744-29.06822-23.75744H97.66037c-16.85383 0-30.51656 15.2991-30.51656 34.1715z"/><path fill="none" stroke="#fff" stroke-linejoin="round" stroke-width="3" d="M67.14381 252.69894v106.8428c0 18.87239 13.66273 34.1715 30.51656 34.1715h83.24332c11.5361 0 21.57468-7.16975 26.76234-17.74517h302.78114c12.37616 0 22.409-11.23449 22.409-25.09293v0l-.01494-33.28866-8.91291-9.59521h-10.38583l-13.87531 15.74062-51.73051-52.01679-17.70529 19.612-39.17422-43.696-27.261 30.48873-41.35989-46.1764-10.74806 11.87743-34.39231-38.15527-40.57411 45.19671-9.27959-8.57742h-17.47029c-3.93378-13.77845-15.4582-23.75744-29.06822-23.75744H97.66037c-16.85383 0-30.51656 15.2991-30.51656 34.1715z"/><path fill="#fff" d="M87.61546 287.34619c0-5.12348 4.60489-8.62132 8.86931-6.76446 9.13626 3.9782 15.6118 13.92173 15.6118 25.55883s-6.47554 21.58062-15.6118 25.55882c-4.26442 1.85686-8.86931-1.641-8.86931-6.76446z"/></svg>