<svg xmlns="http://www.w3.org/2000/svg" role="img" viewBox="-6.91 -6.91 411.58 141.58"><title>GitHub logo</title><style>svg {enable-background:new 0 0 396 123}</style><path d="M1 1h396v126H1V1zm68.5 95.6c-17.1 3.5-26.7-1.7-29-16.6-1.2-7.6-1.1-15.7 0-23.3 1.8-12.6 9.2-18.3 22-18.5 2.8 0 5.6.2 8.5.4 3.8.3 9 2.5 11.1.8 2.5-2 2-7.4 3.3-11.1 1.4-4-.2-5.5-3.6-6.5-10-3-20.2-3.7-30.6-2.2-15.4 2.1-25 10.9-29.2 25.6-4.2 14.5-4.4 29.3-.7 43.9 2.5 9.9 7.7 18.3 17.3 22.7 16.1 7.2 32.3 6.8 48.2-.7 1.4-.7 3-2.9 3.1-4.4.2-14.2.2-28.3 0-42.5 0-1.2-1.5-3.3-2.4-3.3-10.1-.2-20.2-.2-30.9-.2 0 5.4-.2 10.2.2 15 .1 1.1 2.1 2.7 3.3 2.9 3 .4 6.2.1 9.6.1-.2 6.4-.2 12-.2 17.9zm154.6-40h-26.3V22.4c-5.3 0-10.1.3-14.9-.1-4.3-.3-5.3 1.4-5.3 5.5.1 25.3.1 50.6.1 75.9 0 11.3 0 11.3 11.3 11.3 8.9 0 8.9 0 8.9-9V75.6H224c0 11.7.1 23-.1 34.3-.1 3.7.7 5.6 5 5.2 3.5-.4 7-.3 10.5 0 4.1.4 5.1-1.3 5.1-5.1-.2-14.5-.1-29-.1-43.5 0-13-.1-26 .1-39 .1-3.9-1.3-5.4-5.2-5.1-3.5.2-7 .2-10.5 0-3.7-.3-5 1.1-4.9 4.9.4 9.6.2 19.3.2 29.3zm110.7 55.5c6.1 1.6 11.9 3.7 17.9 4.5 12.8 1.6 21.8-4.3 24.3-16.8 1.8-8.9 2.6-18.3 1.6-27.2-2.1-19.3-16.1-27.1-34.6-20.7-1.4.5-2.7.9-4.8 1.5V22.5c-5.7 0-10.8.1-15.9 0-3.2-.1-4.3 1.1-4.3 4.4.1 28 0 56 .1 84 0 1.2.2 2.9.9 3.7 2.5 2.3 13.4-.1 14.8-2.5zM253.2 52c0 17.2-.6 33.9.2 50.4.4 7.7 6.4 12 14 13.6 9.9 2.1 19.1.1 27.9-4.6 3.9 6.8 9.8 2.2 14.9 3.7V52.3h-19.7v40.3c0 5.3-2.5 7.3-9.2 7.5-5.9.2-8.2-1.6-8.3-7.3-.2-10-.1-20-.1-30V52.3c-1.4-.2-2.2-.4-3-.4-5.5.1-11 .1-16.7.1zM135.8 69.6v5.1c0 7.8-.2 15.7.1 23.5.4 10.3 6.4 16.7 16.6 17.9 2.6.3 5.3.5 8 .4 9.5-.5 9.2-.6 9.6-10.1.3-5.3-1.3-7.1-6.6-6.4-3.7.4-7.5-.8-7.6-5.3-.3-8.4-.1-16.8-.1-25.4 1.1-.2 1.8-.3 2.4-.4 12.6-.6 12.6-.6 11.7-13.5 0-.2.1-.4 0-.5-1.1-1.1-2.2-2.9-3.4-3-3.4-.4-6.9-.1-11-.1V34.3h-19.7c0 4.6-.2 9 .1 13.2.3 3.7-.9 5.4-4.7 6-2 .3-5.2 1.7-5.4 3.1-.6 3.7-.6 7.8.6 11.2.4 1.2 5.1.8 7.8 1.2.4 0 .7.2 1.6.6zm-16.6 13.9V67c0-16.1 0-16.1-16.2-15.2-.2 0-.4-.1-.5 0-1.1 1-3.2 2.1-3.2 3.2-.2 18.8-.2 37.6 0 56.4 0 1.2 2.1 3.3 3.5 3.5 3.9.5 8 0 12 .2 3.6.2 4.6-1.3 4.5-4.6-.2-9-.1-18-.1-27zm1.3-47.7c-.1-6.5-4.9-11.3-11.4-11.1-6.1.2-10.9 5.1-10.9 11.3 0 6.3 5.1 11.2 11.5 11.1 6.2-.2 10.9-5 10.8-11.3z"/><path fill="#fff" d="M69.5 96.6V78.8c-3.4 0-6.5.3-9.6-.1-1.3-.2-3.3-1.8-3.3-2.9-.4-4.8-.2-9.6-.2-15 10.7 0 20.8-.1 30.9.2.9 0 2.4 2.2 2.4 3.3.2 14.2.2 28.3 0 42.5 0 1.5-1.6 3.7-3.1 4.4-15.9 7.5-32.2 7.9-48.2.7-9.6-4.3-14.8-12.8-17.3-22.7-3.7-14.6-3.5-29.4.7-43.9C26.1 30.6 35.6 21.8 51 19.7c10.4-1.4 20.6-.7 30.6 2.2 3.4 1 5.1 2.5 3.6 6.5-1.4 3.7-.9 9.1-3.3 11.1-2.1 1.7-7.3-.5-11.1-.8-2.8-.3-5.6-.5-8.5-.4-12.8.2-20.2 5.9-22 18.5-1.1 7.6-1.1 15.7 0 23.3 2.5 14.8 12.1 20 29.2 16.5zm154.6-40c0-10.1.1-19.7-.1-29.4-.1-3.7 1.2-5.1 4.9-4.9 3.5.2 7 .2 10.5 0 3.9-.3 5.2 1.2 5.2 5.1-.2 13-.1 26-.1 39 0 14.5-.1 29 .1 43.5 0 3.8-1 5.5-5.1 5.1-3.5-.3-7-.4-10.5 0-4.2.4-5-1.5-5-5.2.2-11.3.1-22.6.1-34.3H198v30.4c0 9 0 9-8.9 9-11.3 0-11.3 0-11.3-11.3 0-25.3.1-50.6-.1-75.9 0-4 1-5.8 5.3-5.5 4.8.3 9.6.1 14.9.1v34.2c8.8.1 17.2.1 26.2.1zm110.7 55.5c-1.4 2.4-12.3 4.7-14.8 2.3-.8-.7-.9-2.4-.9-3.7-.1-28 0-56-.1-84 0-3.3 1.1-4.5 4.3-4.4 5.1.2 10.3 0 15.9 0v30.9c2-.6 3.4-1 4.8-1.5 18.5-6.4 32.5 1.4 34.6 20.7 1 8.9.2 18.4-1.6 27.2-2.5 12.5-11.5 18.4-24.3 16.8-6-.6-11.8-2.7-17.9-4.3zm4.1-28.8c0 3 .3 6-.1 9-.6 4.7 1.7 6.5 5.9 7.4 6.4 1.4 11.3.4 12.7-3.8 2.7-8.1 3-16.4-.1-24.4-1.7-4.5-6.2-5.6-12.5-4.4-4.8.9-6.7 3.4-6 8.3.4 2.5.1 5.2.1 7.9zM253.2 52h16.6c.8 0 1.6.2 3 .4v10.5c0 10-.1 20 .1 30 .1 5.6 2.4 7.5 8.3 7.3 6.7-.2 9.2-2.2 9.2-7.5V52.4h19.7v62.8c-5.1-1.6-11 3-14.9-3.7-8.7 4.7-17.9 6.7-27.9 4.6-7.6-1.6-13.6-6-14-13.6-.6-16.7-.1-33.3-.1-50.5zM135.8 69.6c-.9-.4-1.2-.6-1.6-.6-2.7-.4-7.4 0-7.8-1.2-1.2-3.4-1.2-7.5-.6-11.2.2-1.3 3.4-2.8 5.4-3.1 3.8-.6 5-2.3 4.7-6-.3-4.3-.1-8.6-.1-13.2h19.7v17.5c4.1 0 7.6-.3 11 .1 1.2.2 2.3 1.9 3.4 3 .1.1 0 .3 0 .5.9 12.8.9 12.8-11.7 13.5-.6 0-1.3.2-2.4.4 0 8.5-.2 17 .1 25.4.2 4.5 4 5.7 7.6 5.3 5.3-.6 6.9 1.1 6.6 6.4-.4 9.5-.1 9.6-9.6 10.1-2.6.1-5.3 0-8-.4-10.2-1.3-16.2-7.6-16.6-17.9-.3-7.8-.1-15.7-.1-23.5v-5.1zm-16.6 13.9c0 9-.1 18 .1 27 .1 3.4-.9 4.9-4.5 4.6-4-.3-8 .2-12-.2-1.3-.2-3.5-2.2-3.5-3.5-.2-18.8-.2-37.6 0-56.4 0-1.1 2.1-2.1 3.2-3.2.1-.1.3 0 .5 0 16.2-.9 16.2-.9 16.2 15.2v16.5zm1.3-47.7c.1 6.3-4.6 11.1-10.8 11.2-6.4.1-11.5-4.8-11.5-11.1 0-6.1 4.8-11.1 10.9-11.3 6.5-.1 11.4 4.7 11.4 11.2z"/><path d="M338.9 83.3c0-2.7.3-5.4-.1-8-.7-4.9 1.2-7.4 6-8.3 6.3-1.2 10.8 0 12.5 4.4 3.1 8.1 2.8 16.4.1 24.4-1.4 4.2-6.3 5.2-12.7 3.8-4.2-.9-6.5-2.7-5.9-7.4.4-2.9.1-5.9.1-8.9z"/></svg>