<svg xmlns="http://www.w3.org/2000/svg" role="img" viewBox="3.00 30.62 130.13 82.50"><title>Gitea logo</title><path fill="#609926" fill-opacity="1" stroke="#428f29" stroke-dasharray="none" stroke-linecap="butt" stroke-linejoin="miter" stroke-miterlimit="4" stroke-opacity="1" stroke-width="1" d="M27.70994 33.61795c-9.54658-.0272-22.33928 6.79805-21.63176 23.90397 1.10554 26.72889 25.4566 29.20839 35.19165 29.42301 1.06802 5.01357 12.5218 22.30563 21.00182 23.21667h37.15277c22.27763-1.66785 38.9607-75.75671 26.59321-76.03825-46.78158 2.47691-49.99515 2.13838-88.59976 0-2.49505-.0266-5.97232-.49474-9.70793-.5054zm2.49132 9.45886c1.35137 13.69267 3.55584 21.70359 8.01821 33.94345-11.38287-1.50473-21.06982-5.22443-22.85151-19.10984-.95096-7.4112 2.39043-15.16769 14.8333-14.83361z" display="inline"/><g fill="#fff" fill-opacity="1" stroke="none" stroke-opacity="1" display="inline"><rect width="34.762" height="34.762" x="87.509" y="18.292" stroke-width=".248" display="inline" ry="5.483" transform="rotate(25.915)"/><path stroke-linecap="butt" stroke-linejoin="miter" stroke-width=".266" d="M79.80495 57.35906l3.24114 1.60995V35.25573h-3.2627z" display="inline"/></g><g stroke-opacity="1" display="inline"><circle cx="49.065" cy="90.078" r="3.475" fill="#609926" fill-opacity="1" stroke="none" stroke-width=".265" transform="rotate(-19.796)"/><circle cx="36.81" cy="102.105" r="3.475" fill="#609926" fill-opacity="1" stroke="none" stroke-width=".265" transform="rotate(-19.796)"/><circle cx="46.484" cy="111.439" r="3.475" fill="#609926" fill-opacity="1" stroke="none" stroke-width=".265" transform="rotate(-19.796)"/><path fill="#609926" fill-opacity="1" stroke="none" stroke-width=".274" d="M79.53978 58.93532l2.40199 1.17277-11.9607 24.49702-2.40199-1.17277z"/><path fill="none" stroke="#609926" stroke-dasharray="none" stroke-linecap="butt" stroke-linejoin="miter" stroke-miterlimit="4" stroke-width="2.68" d="M76.5581 68.11634c12.97589 6.39538 13.01299 4.10187 4.89085 20.90725"/></g></svg>