<svg xmlns="http://www.w3.org/2000/svg" role="img" viewBox="-7.99 79.00 415.74 86.74"><title>HSBC (member) logo</title><style>svg {enable-background:new 0 0 400 245}</style><path d="M50.2 120V97.3c0-3-1.5-6.2-9-6.2v-1.9h28.3v1.9c-7.4 0-8.9 3.3-8.9 6.2v51.1c0 2.9 1.5 6.2 8.9 6.2v1.9H41.2v-1.9c7.4 0 9-3.3 9-6.2v-24.2H19.3v24.2c0 2.9 1.5 6.2 9 6.2v1.9H0v-1.9c7.4 0 9-3.3 9-6.2V97.3c0-3-1.5-6.2-9-6.2v-1.9h28.3v1.9c-7.4 0-9 3.3-9 6.2V120h30.9m21.7 16h2.3c3.2 9.5 10.3 18 21.1 18 8.2 0 13.8-7.1 11.5-15.1-4.2-14.2-31.9-14.9-31.9-34.3 0-10.1 8-17 18-17 10.8 0 15.7 7.5 18.1 0h2.1l2.2 21.7h-2.5c-2.3-9.5-9.1-17.5-18.5-17.5-6.1 0-10.7 3.4-10.7 9.8 0 5.9 6.4 10.1 10.8 12.7 13.8 8.3 23.2 12.7 23.2 24.9 0 9.2-7.6 18.6-21.5 18.6-10.6 0-17.9-7.4-18.9 0H75L71.9 136m79.3-16.7c10.3 0 16.3-4.4 16.3-12.6 0-7.7-4.9-11.9-12-13.2-9.4-.6-12.6-.8-12.6 2.7v23.1h8.3m-8.3 28c0 3.6.9 5.4 8.3 5.4 10.6 0 18.4-3.2 18.4-15.1 0-12.1-12.1-14.4-21.7-14.4h-5.1v24.1zm-10.4-50c0-3-1.5-6.2-9.8-6.2v-1.9H150c15.7 0 27.9 4.2 27.9 17.2 0 8.5-5.7 12.9-13.5 14.7v.2c8.7 1.6 17 7 17 16.8 0 12.2-10.6 18.5-26.6 18.5h-32.1v-1.9c8.2 0 9.8-3.3 9.8-6.2V97.3zm109.9 12.8H240c-2.9-11.2-10.4-18.8-22-18.8-16.8 0-24 13.5-24 31.8 0 14.2 7.4 29.6 24.1 29.6 10 0 16.8-3.3 23.8-10.2l1.7 2c-6.2 7.6-16.7 12.7-26.5 12.7-19.8 0-35-12.7-35-35 0-20.2 14.3-35.2 34.8-35.2 13.9 0 19 8.4 22.4.1h2.1l1 23"/><path fill="#fff" d="M297.3 87.3h68.4v68.4h-68.4z"/><path fill="#ee3524" d="M297.3 87.2h68.5l-34.2 34.3-34.3-34.3m0 68.5h68.5l-34.2-34.2-34.3 34.2m0-68.5v68.5l-34.2-34.2 34.2-34.3m68.5 0v68.5l34.2-34.2-34.2-34.3"/></svg>