<svg xmlns="http://www.w3.org/2000/svg" role="img" xmlns:xlink="http://www.w3.org/1999/xlink" viewBox="-11.67 -11.67 606.84 98.84"><title>Jira logo</title><defs><linearGradient id="a" x1="34.64" x2="19" y1="15.35" y2="30.99" gradientUnits="userSpaceOnUse"><stop offset=".18" stop-color="#0052cc"/><stop offset="1" stop-color="#2684ff"/></linearGradient><linearGradient id="b" x1="38.78" x2="54.39" y1="60.28" y2="44.67" xlink:href="#a"/></defs><g data-name="Layer 2"><path fill="#253858" d="M109.28 9h7.92v40.2c0 10.65-4.66 18-15.58 18a28.14 28.14 0 0 1-9.5-1.5V58a22.19 22.19 0 0 0 8.18 1.5c6.69 0 9-4 9-9.77zm22.35-3.09a4.94 4.94 0 0 1 5.28 5.28 5.28 5.28 0 1 1-10.56 0 4.94 4.94 0 0 1 5.28-5.28zm-3.87 16.9h7.57v44h-7.57zm19-.01h7.39v7.74c2.55-5.19 7-8.89 15.58-8.36v7.39c-9.68-1-15.58 1.94-15.58 11.26v26h-7.39zm58.43 36.08c-2.82 5.81-8.1 8.8-14.87 8.8-11.7 0-17.6-9.94-17.6-22.88 0-12.41 6.16-22.88 18.48-22.88 6.42 0 11.35 2.9 14 8.62V22.8h7.57v44h-7.57zm-12.85 1.76c6.78 0 12.85-4.31 12.85-14.08V43c0-9.77-5.54-14.08-12-14.08-8.54 0-12.94 5.63-12.94 15.84.04 10.6 4.26 15.88 12.1 15.88zm65.21 7.04c-11.18 0-16.37-2.2-20.86-4.49V55.1c5.37 2.82 13.64 4.84 21.29 4.84 8.71 0 12-3.43 12-8.54s-3.17-7.83-14.17-10.47c-13-3.17-18.83-7.66-18.83-17.16 0-9 6.86-15.66 20.33-15.66 8.36 0 13.73 2 17.69 4.22v7.92a35.52 35.52 0 0 0-18-4.4c-7.57 0-12.06 2.64-12.06 7.92 0 4.75 3.7 7.13 13.9 9.68 12.23 3.08 19.1 7 19.1 17.42-.06 10.03-6.04 16.81-20.39 16.81zm27.02-22.97c0-13.2 7.74-22.79 20.94-22.79s20.77 9.59 20.77 22.79-7.66 23-20.77 23-20.94-9.8-20.94-23zm7.39 0c0 8.36 4.14 15.93 13.55 15.93s13.38-7.57 13.38-15.93S314.84 29 305.51 29 292 36.35 292 44.71zm53.59-21.91h11.35v7h-11.35v37h-7.39v-37H331v-7h7.13V18c0-8.18 4.58-13.73 14-13.73a18.19 18.19 0 0 1 5.1.7v7a25 25 0 0 0-4.75-.44c-4.66 0-7 2.73-7 6.69zm36.96 36.61a24 24 0 0 0 4.75-.62v7.3a18.15 18.15 0 0 1-5.1.7c-9.42 0-14-5.54-14-13.73V29.84H361v-7h7.13v-9.37h7.39v9.33h11.7v7h-11.7v23.1c.04 3.87 2.33 6.51 6.99 6.51zm6.87-36.61h8.36l12.67 37.31 12.84-37.31h7.22l12.85 37.31L456 22.8h8.36l-16.19 44h-9.68l-7.57-21.29-4-13.55-4 13.55-7.67 21.29h-9.68zm109.55 36.08c-2.82 5.81-8.1 8.8-14.87 8.8-11.7 0-17.6-9.94-17.6-22.88 0-12.41 6.16-22.88 18.48-22.88 6.42 0 11.35 2.9 14 8.62V22.8h7.57v44h-7.57zm-12.85 1.76c6.78 0 12.85-4.31 12.85-14.08V43c0-9.77-5.54-14.08-12-14.08C478.43 29 474 34.59 474 44.8c0 10.56 4.25 15.84 12.09 15.84zm31.86-37.84h7.39v7.74c2.55-5.19 7-8.89 15.58-8.36v7.39c-9.68-1-15.58 1.94-15.58 11.26v26h-7.39zm49.63 44.88c-16.46 0-23.67-9.5-23.67-23 0-13.29 7.39-22.79 20.77-22.79 13.55 0 19 9.42 19 22.79v3.43h-32.11c1.06 7.48 5.9 12.32 16.28 12.32a39 39 0 0 0 13.38-2.38v7c-3.61 1.95-9.16 2.63-13.65 2.63zm-16.1-26H576c-.44-8.18-4.14-12.85-11.7-12.85-7.99-.04-12.04 5.17-12.83 12.8z"/><path fill="#2684ff" d="M72.4 35.76L39.8 3.16 36.64 0 12.1 24.54.88 35.76a3 3 0 0 0 0 4.24L23.3 62.42l13.34 13.34 24.54-24.54.38-.38L72.4 40a3 3 0 0 0 0-4.24zM36.64 49.08l-11.2-11.2 11.2-11.2 11.2 11.2z"/><path fill="url(#a)" d="M36.64 26.68A18.86 18.86 0 0 1 36.56.09l-24.51 24.5 13.34 13.34 11.25-11.25z"/><path fill="url(#b)" d="M47.87 37.85L36.64 49.08a18.86 18.86 0 0 1 0 26.68l24.57-24.57z"/></g></svg>