<svg xmlns="http://www.w3.org/2000/svg" role="img" viewBox="-2.41 -2.41 144.56 48.69"><title>Keptn.sh logo</title><style>.st0{fill:#006bb8}.st1{fill:#002c66}</style><style>.st0{fill:#006bb8}</style><style>.st0{fill:#006bb8}</style><style>.st0{fill:#006bb8}</style><style>.st0{fill:#006bb8}</style><style>.st0{fill:#006bb8}</style><path d="M33.5 6.9l-2.1-1-23 28.5 1.5 1.9c.1.1.2.2.2.3L33.8 7.1c-.1-.1-.2-.1-.3-.2zM13 37.2h3.5l19.3-24-.7-3.4zM26.4 3.5L15.7 16.8 5 30.1l1.7 2.1L28.8 4.7zm-.1 33.7c.8 0 1.5-.4 2-.9l9.1-11.4c.5-.6.7-1.4.5-2.1l-1.4-6.2L20 37.2h6.3zM13.2 12c-1-.8-2.3-.6-3.1.3-.8 1-.6 2.3.3 3.1 1 .8 2.3.6 3.1-.3.8-1 .7-2.4-.3-3.1z" class="st0"/><path d="M8.8 17.5c-2.1-1.7-2.5-4.8-.7-6.9s4.8-2.5 6.9-.7c.6.5 1.1 1.1 1.4 1.8l7.5-9.4L20.5.6c-.7-.3-1.5-.3-2.2 0L5.2 6.9c-.4.2-.7.5-1 .8-.2.3-.3.6-.4.9L.5 22.8c-.2.7 0 1.5.5 2.1l2.3 3 7.5-9.4c-.7-.2-1.4-.5-2-1z" class="st0"/><path fill="#002c66" d="M68.3 28.3c0-1.6.2-3 .7-4.2.5-1.2 1.1-2.2 1.9-3s1.7-1.4 2.7-1.8c1-.4 2-.6 3.1-.6 2.5 0 4.4.8 5.8 2.3 1.4 1.5 2.1 3.8 2.1 6.9v.8c0 .3 0 .5-.1.8H72.7c.1 1.4.6 2.6 1.5 3.4.9.8 2.2 1.2 4 1.2 1 0 1.9-.1 2.8-.3.8-.2 1.5-.4 2-.6l.6 3.4c-.2.1-.5.2-1 .4-.4.1-.9.2-1.4.4-.5.1-1.1.2-1.7.3-.6.1-1.2.1-1.8.1-1.6 0-3-.2-4.1-.7-1.2-.5-2.1-1.1-2.9-2-.8-.8-1.3-1.8-1.7-3-.5-1.2-.7-2.4-.7-3.8zm12.2-1.9c0-.6-.1-1.1-.2-1.6-.2-.5-.4-1-.7-1.3-.3-.4-.7-.7-1.1-.9s-1-.3-1.6-.3c-.6 0-1.2.1-1.7.4-.5.2-.9.6-1.2 1-.3.4-.6.8-.8 1.3-.2.5-.3 1-.4 1.5l7.7-.1zm24.6 1.8c0 1.4-.2 2.6-.5 3.8-.4 1.2-.9 2.1-1.5 3-.7.8-1.5 1.5-2.5 1.9-1 .5-2.1.7-3.4.7-.8 0-1.6-.1-2.4-.3-.7-.2-1.3-.4-1.8-.7v7h-4.2V19.8c.8-.2 1.9-.5 3.1-.7 1.2-.2 2.6-.3 3.9-.3 1.4 0 2.7.2 3.8.7 1.1.4 2.1 1.1 2.9 1.9.8.8 1.4 1.8 1.8 3 .6 1.1.8 2.4.8 3.8zm-4.3.1c0-1.9-.4-3.3-1.3-4.4-.8-1-2.2-1.5-4.1-1.5-.4 0-.8 0-1.2.1-.4 0-.8.1-1.3.2V33c.4.2.9.5 1.5.7.6.2 1.3.3 1.9.3 1.5 0 2.6-.5 3.3-1.5.9-1.1 1.2-2.5 1.2-4.2zm8.2-13.9l4.2-.7v5.5h6.4v3.5h-6.4V30c0 1.4.2 2.5.7 3.1.5.6 1.2.9 2.4.9.8 0 1.4-.1 2-.2.6-.2 1.1-.3 1.4-.5l.7 3.3c-.5.2-1.1.4-1.9.6-.8.2-1.7.3-2.8.3-1.3 0-2.4-.2-3.2-.5-.9-.4-1.5-.8-2.1-1.5-.5-.7-.9-1.4-1.1-2.4-.2-.9-.3-2-.3-3.2V14.4zm15.3 5.4c.8-.2 1.9-.5 3.1-.7 1.3-.2 2.7-.3 4.3-.3 1.5 0 2.7.2 3.7.6 1 .4 1.8 1 2.4 1.7.6.7 1 1.6 1.2 2.6.2 1 .4 2.1.4 3.4v10.2h-4.2v-9.5c0-1-.1-1.8-.2-2.5s-.3-1.2-.6-1.7c-.3-.4-.7-.7-1.2-.9-.5-.2-1.1-.3-1.8-.3-.5 0-1.1 0-1.7.1-.6.1-1 .1-1.3.2v14.6h-4.2l.1-17.5zM66.9 37.2H62l-7-8.4v8.4h-4.2V10.8l4.2-.7V26c.5-.6 1.1-1.2 1.7-1.8.6-.6 1.2-1.3 1.8-1.9.6-.6 1.1-1.3 1.7-1.9s1-1.1 1.3-1.5h5c-1.2 1.3-2.4 2.7-3.7 4-1.3 1.4-2.8 3.2-4.1 4.5l8.2 9.8z"/></svg>