<svg xmlns="http://www.w3.org/2000/svg" role="img" viewBox="63.84 269.84 1204.32 619.32"><title>Ketch logo</title><g fill-opacity="1" fill-rule="nonzero" stroke="none" transform="matrix(1.33333 0 0 -1.33333 0 1333.333) scale(.1)"><path fill="#4d4d4f" d="M5222.54 4188.81c-34.38 52.23-74 107.09-118.86 164.54-44.89 57.44-92.04 112.9-141.48 166.41-49.45 53.47-100.54 104.32-153.22 152.56-52.71 48.2-104.7 89.9-156.01 125.01l3.26-611.54-247.77-1.32-7.25 1362.72 247.76 1.32 3-562.39c43.03 43.5 88.01 89.94 134.93 139.36 46.94 49.41 93.53 99.46 139.81 150.19 46.25 50.7 90.23 99.79 131.95 147.19 41.69 47.42 79.47 90.22 113.37 128.43l296.93 1.58c-43-50.07-88.63-102.09-136.82-156.08-48.23-54.02-97.75-108.36-148.59-163.01-50.84-54.69-102.02-109.03-153.49-163.06-51.52-54.04-102.04-105.44-151.58-154.2 55.28-41.68 111.58-90.19 168.9-145.6 57.32-55.43 113.68-114.76 169.08-178.03 55.4-63.31 108.5-129.22 159.35-197.77 50.81-68.56 97.38-136.84 139.73-204.76l-293-1.55"/><path fill="#4d4d4f" d="M6261.43 4809.82c-.18 32.76-4.96 63.89-14.27 93.33-9.34 29.46-22.9 54.96-40.7 76.49-17.82 21.54-39.54 38.46-65.16 50.79-25.64 12.3-56.14 18.38-91.54 18.19-36.71-.19-68.79-7.25-96.24-21.16-27.47-13.92-50.66-32.07-69.54-54.46-18.89-22.4-33.5-48.05-43.82-76.93-10.36-28.89-17.4-58.43-21.17-88.6zm-689.64-109.86c-.48 90.46 12.53 169.83 39.05 238.16 26.48 68.3 61.91 125.21 106.26 170.68 44.31 45.46 95.26 79.8 152.83 103.06 57.56 23.24 116.49 35.03 176.8 35.36 141.58.75 252.23-42.6 332.03-129.99 79.78-87.43 120.13-218.32 121.05-392.66.08-13.11-.17-27.86-.73-44.24-.59-16.41-1.5-31.16-2.71-44.26l-678.41-3.61c6.99-82.55 36.47-146.31 88.52-191.26 52.02-44.95 127.2-67.17 225.52-66.64 57.67.3 110.38 5.81 158.2 16.57 47.79 10.74 85.43 22.09 112.89 34.04l32.5-194.52c-13.08-6.64-31.08-13.62-53.96-20.93-22.92-7.34-49.09-14.03-78.56-20.08-29.47-6.06-61.23-11.14-95.29-15.27-34.08-4.1-68.78-6.25-104.18-6.44-90.45-.49-169.19 12.56-236.18 39.05-67 26.51-122.25 63.58-165.78 111.21-43.51 47.61-75.95 103.82-97.26 168.61-21.32 64.77-32.18 135.81-32.59 213.16"/><path fill="#4d4d4f" d="M6735.63 5496.68l237.71 40.6 1.65-310.69 365.75 1.95 1.07-198.61-365.76-1.95 2.23-418.85c.44-82.59 13.85-141.5 40.26-176.76 26.4-35.26 71.08-52.72 134.01-52.38 43.26.22 81.58 5.01 114.97 14.38 33.38 9.33 59.87 18.01 79.5 25.98l40.32-188.56c-27.46-11.95-63.47-24.27-107.96-36.96-44.51-12.68-96.93-19.2-157.21-19.51-73.43-.39-134.75 9.1-184.02 28.51-49.24 19.41-88.42 47.7-117.44 84.92-29.05 37.21-49.6 82.32-61.68 135.35-12.08 53.04-18.3 113.62-18.66 181.81l-4.74 890.77"/><path fill="#4d4d4f" d="M7494.92 4714.13c-.4 76.02 11.02 147.22 34.27 213.55 23.24 66.31 56.67 123.86 100.34 172.61 43.65 48.72 96.88 87.04 159.66 114.91 62.77 27.86 133.49 42 212.15 42.42 96.99.5 188.87-16.7 275.57-51.62l-50.08-194.96c-27.59 11.66-58.8 21.32-93.57 29-34.78 7.68-71.82 11.42-111.16 11.2-93.1-.49-163.73-30.06-211.9-88.63-48.22-58.62-72.02-140.99-71.45-247.18.55-102.25 23.9-183.09 70.12-242.48 46.19-59.42 123.68-88.81 232.51-88.23 40.62.21 80.6 4.36 119.89 12.43 39.28 8.08 73.31 18.09 102.1 30.05l34.46-196.47c-26.16-13.26-65.74-25.27-118.77-36.03-53.03-10.76-107.76-16.3-164.11-16.6-87.84-.47-164.27 12.57-229.3 39.09-65.03 26.51-119 63.58-161.85 111.23-42.86 47.61-74.96 104.47-96.27 170.56-21.34 66.08-32.2 137.8-32.61 215.15"/><path fill="#4d4d4f" d="M8482.78 4206.15l-7.91 1486.6 237.72 40.59 2.71-509.3c26.16 9.31 56.59 17.33 91.32 24.09 34.68 6.73 69.08 10.21 103.18 10.4 82.58.43 151.13-10.7 205.66-33.33 54.51-22.67 98.28-54.54 131.29-95.66 32.97-41.12 56.52-90.5 70.59-148.1 14.08-57.63 21.29-121.81 21.67-192.6l3.08-578.12-237.93-1.27-2.88 540.76c-.29 55.05-4.18 101.89-11.57 140.53-7.42 38.63-19.39 70.02-35.89 94.22-16.53 24.15-38.58 41.73-66.16 52.74-27.58 10.97-61.71 16.39-102.34 16.18-31.45-.18-63.57-3.64-96.3-10.35-32.74-6.75-56.96-12.78-72.66-18.09l4.35-818.03-237.93-1.26"/><path fill="#00adee" d="M3762.12 4792.48c82.51 531.03-404.33 1215.22-935.61 1807.39C4171.25 4554.18 1336.2 4349 716.367 4328.51c-49.898-1.65-76.117-59.58-45.066-98.68C1159.86 3614.79 1924.52 3500 1924.52 3500s1734.15 626.63 1837.6 1292.48"/><path fill="#6d67ae" d="M1924.52 3500s1733.23 1155.81-374.63 4259.43c-17.91 26.37 16.15 56.78 40.32 36.01 1769.1-1519.55 2263.11-2510.27 2171.91-3002.96-126.93-685.79-1670.01-1239.19-1837.6-1292.48"/><path fill="#524fa0" d="M3762.12 4792.48c61.39 331.65-142.5 889.03-821.88 1681.42-38.64 42.63-76.71 84.71-113.73 125.97 646.63-983.68 326.74-1541.75-248.53-1858.4C2474.29 3866.69 1924.52 3500 1924.52 3500c167.59 53.29 1710.67 606.69 1837.6 1292.48"/></g></svg>