<svg xmlns="http://www.w3.org/2000/svg" role="img" viewBox="-7.99 60.26 415.74 123.99"><title>Netflix (member) logo</title><style>svg {enable-background:new 0 0 400 245}</style><path fill="#d82028" d="M55 169.6c-6 1.1-12.1 1.4-18.5 2.2l-19.3-56.6v59c-6 .6-11.5 1.5-17.2 2.3V68.4h16l22 61.3V68.4h17v101.2zM88.3 108c6.5 0 16.6-.3 22.6-.3v16.9c-7.5 0-16.3 0-22.6.3V150c9.9-.6 19.8-1.5 29.9-1.8v16.3l-46.8 3.7V68.4h46.8v16.9H88.3V108zm92.6-22.7h-17.5V163c-5.7 0-11.4 0-16.9.2V85.3H129V68.4h51.9v16.9zm27.5 21.6h23.1v16.9h-23.1v38.3h-16.6V68.4H239v16.9h-30.6v21.6zm58.1 40.4c9.6.2 19.3 1 28.7 1.5v16.7c-15.1-1-30.2-1.9-45.6-2.2V68.4h16.9v78.9zm42.9 19.3c5.4.3 11.1.6 16.6 1.3V68.4h-16.6v98.2zM400 68.4l-21.4 51.4 21.4 56.7c-6.3-.8-12.7-2-19-3.1l-12.1-31.2-12.4 28.8c-6.1-1.1-12-1.4-18.2-2.2l21.7-49.5-19.6-50.8h18.2l11.1 28.4 11.8-28.4 18.5-.1z"/></svg>