<svg xmlns="http://www.w3.org/2000/svg" role="img" viewBox="202.70 285.20 2849.60 1897.10"><title>OpenMake Meister logo</title><path d="M0 1230V0h3280v2460H0V1230z" fill="#555656"/><g fill="#606161"><path d="M0 1230V0h3280v2460H0V1230zm1833 875c4-8 2-17-2-20-5-2-11 4-14 15-6 23 8 27 16 5zm-66-12c-4-3-7 0-7 7s3 10 7 7c3-4 3-10 0-14zm-573-24c-3-5-10-7-15-3-5 3-7 10-3 15 3 5 10 7 15 3 5-3 7-10 3-15zm246 11c0-5-7-10-15-10s-15 5-15 10c0 6 7 10 15 10s15-4 15-10zm127-7c-4-3-7 0-7 7s3 10 7 7c3-4 3-10 0-14zm698 8c3-5 1-12-5-16-14-9-52 4-45 16 8 12 42 12 50 0zm50-1c3-5 1-10-4-10-6 0-11 5-11 10 0 6 2 10 4 10 3 0 8-4 11-10zm32-7c-4-3-7 0-7 7s3 10 7 7c3-4 3-10 0-14zm336 3c6-16-2-28-14-20-12 7-11 34 0 34 5 0 11-6 14-14zm-1430-3c-7-2-13-11-13-19 0-9-5-12-10-9-13 8 6 35 24 34 7 0 6-2-1-6zm115-18c-3-3-9 2-12 12-6 14-5 15 5 6 7-7 10-15 7-18zm129 18c-4-3-10-3-14 0-3 4 0 7 7 7s10-3 7-7zm178-3c3-5 4-10 1-10s-8 5-11 10c-3 6-4 10-1 10s8-4 11-10zm122 3c-4-3-10-3-14 0-3 4 0 7 7 7s10-3 7-7zm332-7c7-8 8-17 3-20-6-3-12 3-15 14-6 24-4 25 12 6zm354-19c-3-5-10-4-15 1-6 6-7 16-3 22 6 9 9 9 16-1 4-7 5-17 2-22zm24 26c-4-3-10-3-14 0-3 4 0 7 7 7s10-3 7-7zm278-2c3-5 1-12-5-16-5-3-10 1-10 9 0 18 6 21 15 7zm48-6c-3-9-8-14-10-11-3 3-2 9 2 15 9 16 15 13 8-4zm-1736-22c-4-3-7 0-7 7s3 10 7 7c3-4 3-10 0-14zm380 0c-4-3-7 0-7 7s3 10 7 7c3-4 3-10 0-14zm1110 0c-4-3-7 0-7 7s3 10 7 7c3-4 3-10 0-14zm-870 0c-4-3-10-3-14 0-3 4 0 7 7 7s10-3 7-7zm160-15c-3-8-6-5-6 6-1 11 2 17 5 13 3-3 4-12 1-19zm-460-5c-4-3-7 0-7 7s3 10 7 7c3-4 3-10 0-14zm510 0c-4-3-7 0-7 7s3 10 7 7c3-4 3-10 0-14zm948 7c3-5 4-10 1-10s-8 5-11 10c-3 6-4 10-1 10s8-4 11-10zm-1578-17c-4-3-7 0-7 7s3 10 7 7c3-4 3-10 0-14zm40 0c-4-3-7 0-7 7s3 10 7 7c3-4 3-10 0-14zm406-8c-7-21-13-19-13 6 0 11 4 18 10 14 5-3 7-12 3-20zm354 8c-4-3-7 0-7 7s3 10 7 7c3-4 3-10 0-14zm390 0c-4-3-7 0-7 7s3 10 7 7c3-4 3-10 0-14zm-502-3c3-5 4-10 1-10s-8 5-11 10c-3 6-4 10-1 10s8-4 11-10zm42-7c-4-3-7 0-7 7s3 10 7 7c3-4 3-10 0-14zm203 1c0-8-5-12-10-9-6 4-8 11-5 16 9 14 15 11 15-7zm85 6c3-5 4-10 1-10s-8 5-11 10c-3 6-4 10-1 10s8-4 11-10zm422-7c-4-3-7 0-7 7s3 10 7 7c3-4 3-10 0-14zm-847-3c0-5-5-10-11-10-5 0-7 5-4 10 3 6 8 10 11 10 2 0 4-4 4-10zm54-21c-3-5-10-7-15-3-5 3-7 10-3 15 3 5 10 7 15 3 5-3 7-10 3-15zm-1224-54c7-36 15-65 18-65s16 10 28 21c27 25 77 21 116-11 36-28 63-119 48-164-11-36-28-47-70-50-28-2-80 21-80 35 0 5-4 9-9 9s-7-9-4-21c5-18 2-20-37-17-41 3-43 5-46 38-2 19-7 42-11 50-3 8-7 20-7 25-5 35-19 102-24 110-3 5-7 16-7 25-1 8-5 30-9 48l-8 32h90l12-65zm2034 34c-3-5-10-7-15-3-5 3-7 10-3 15 3 5 10 7 15 3 5-3 7-10 3-15zm-854 1c0-5-4-10-10-10-5 0-10 5-10 10 0 6 5 10 10 10 6 0 10-4 10-10zm897-7c-4-3-7 0-7 7s3 10 7 7c3-4 3-10 0-14zm-2327-66c98-35 141-95 143-204 4-147-254-142-316 7-5 14-11 30-12 35 0 6-4 21-9 35-10 35 28 120 54 120 10 0 22 5 25 10 9 14 73 12 115-3zm696 1c16-7 30-21 30-31 2-16-4-17-42-11-35 5-49 3-64-11-39-35-26-45 60-45h80v-48c0-62-27-90-85-88-99 4-159 62-156 151 3 77 93 119 177 83zm1036 0c13-7 29-20 36-28 11-13 12-12 7 8-6 22-4 23 37 20 34-2 43-7 46-23 2-11 6-27 9-35 7-20 14-67 16-109 2-28-3-37-28-51-30-16-100-19-141-5-12 4-27 18-33 32-11 24-10 25 11 18 62-19 118-10 118 20 0 10-9 12-32 9-34-6-126 27-140 49-13 21-9 70 9 89 19 21 54 23 85 6zm715 0c21-8 33-19 33-31 0-16-5-18-39-12-29 5-46 2-66-11-42-27-25-39 66-44 83-5 84-5 87-33 4-37-17-84-43-92-38-13-89-12-114 1-14 8-30 14-36 14-15 1-43 43-58 88-12 35-12 43 3 71 28 56 95 75 167 49zm-1552-8c4-6 8-25 10-43s9-50 17-72c10-32 18-41 41-43 20-3 27 1 29 15 2 34-4 78-13 89-5 6-6 13-3 17 3 3 0 15-6 27-11 20-10 21 36 18l47-3 14-50c8-27 14-58 14-67 0-10 4-20 10-23 16-10 10-54-10-74-11-11-30-18-47-16-34 3-84 25-84 37 0 4-5 8-11 8s-9-9-6-20c4-17 0-20-34-20-27 0-41 5-48 19-6 10-8 21-5 24s0 23-7 44-12 43-11 50c1 6-2 14-7 17s-7 15-4 25 0 22-6 25c-6 4-11 11-11 17 0 12 87 12 95-1zm325-8c0-10 3-22 7-26s8-13 8-19c1-23 17-102 23-112 7-10 8-16 10-49 4-39 17-2 18 47 0 29 4 80 8 115l9 62h36c40 0 30 14 127-170 19-36 39-66 44-68 7-3-2 43-18 88-3 8-6 20-6 25-6 47-20 102-28 113-8 9 0 12 35 12 43 0 55-8 62-45 1-5 3-12 4-15s5-23 7-45c3-21 9-44 14-50 6-7 7-15 4-18s-2-12 2-19 9-19 9-28c1-8 5-32 9-52l7-38h-147l-43 95c-24 52-47 95-51 95-3 0-7-15-7-32 0-18-4-61-8-95l-8-63h-73c-75 0-79 2-75 42 1 9-3 19-9 23-6 3-8 11-5 16 4 5 3 14-1 21s-9 26-11 43c-2 16-6 37-9 45-4 8-9 31-11 50s-8 39-14 45c-18 18-8 25 36 25 37 0 45-3 45-18zm805-4c10-32 12-40 13-65 3-40 20-25 38 32l18 55h48c26 0 48-4 48-9s-11-32-23-62l-24-53 56-53 56-52-52-1c-49 0-54 3-103 52l-52 52 7-40c4-21 12-44 16-50 5-6 10-36 12-65 2-54 2-54-30-57-25-2-34 2-44 20-7 13-13 28-14 33-4 44-19 106-26 111-5 3-7 9-4 13 2 5 0 23-6 42-5 19-12 49-15 68-2 19-7 38-10 42-3 5 15 9 39 9 38 0 46-4 52-22z"/><path d="M763 1828c-30-40 0-108 47-108 28 0 30 2 30 40 0 59-50 103-77 68zm-365 2c-20-12-34-68-20-82 6-6 8-16 6-22-3-7 6-28 18-47 28-41 80-52 104-22 27 35 1 124-49 163-28 22-35 24-59 10zm682-86c0-16 19-30 53-38 20-5 27-3 29 9 0 8 1 20 2 26s-18 12-41 13c-28 2-43-2-43-10zm1102 94c-16-16 23-58 55-58 30 0 31 33 1 54-27 19-40 20-56 4zm692-87c-26-5-30-9-24-26 5-13 17-20 38-21 29-2 32 1 32 27 0 16-3 28-7 28-5-1-22-4-39-8z"/></g><g fill="#6e6f6f"><path d="M0 1230V0h3280v2460H0V1230zm1780 882c0-13-12-22-22-16s-1 24 13 24c5 0 9-4 9-8zm54-7c3-9-3-19-14-25-24-13-26-30-5-30 8 0 15-7 15-16 0-13-3-14-14-5-20 17-32-5-15-27 12-15 11-15-7 1-17 14-20 24-14 50 4 19 12 31 20 29s11 4 7 18c-6 23 18 28 27 5zm-731-37c7-27-2-45-14-27-11 18-11 49 0 49 5 0 11-10 14-22zm96-6c0-9 2-34 5-54 5-30 3-38-9-38-8 0-15 5-15 11 0 5 5 7 11 3 7-4 10-1 7 7s-11 14-18 14-15 6-18 14 0 11 6 7c16-10 24 11 13 32-6 11-8 22-4 25 9 10 22-2 22-21zm171 13c11-13 9-20-10-40l-23-25 24-9c13-5 19-10 12-10-24-2-43 12-43 30 0 10 7 19 15 19 22 0 18 21-5 27-11 3-20 9-20 14 0 15 37 10 50-6zm70 6c0-6-4-13-10-16-18-11-11-47 10-52 25-7 26-19 2-25-15-4-21 4-31 38-7 24-10 48-6 53 8 14 35 14 35 2zm87-7c2-6-7-10-19-10-19 1-22-4-20-23 1-13 10-30 20-37 9-8 12-14 5-14-31-1-58 82-30 93 18 8 40 4 44-9zm55-68c-2-4-8-2-13 5-4 7-6 17-3 21s0 16-5 26c-6 11-7 23-3 27 8 8 32-66 24-79zm162 42c-1-24-2-51-3-60-1-10-9-18-18-17-11 0-13 3-5 6 11 4 18 53 8 53-2 0-12 3-21 7-15 5-16 3-5-16 6-13 10-24 8-27-2-2-14 18-26 44-13 26-16 39-9 30 16-20 46-18 59 5 13 24 14 22 12-25zm139 13c2-10 1-25-4-32-7-12-9-11-9 1 0 8-3 26-7 39-4 16-2 22 4 18s13-15 16-26zm132 20c3-5-5-11-17-13-18-2-22-9-20-27 1-13 10-30 20-37 9-8 12-14 5-14-27 0-56 74-36 93 9 10 41 8 48-2zm115-6c10-13 10-19-4-33-21-24-20-42 2-43 9 0 12-3 5-5-19-8-53 15-47 31 4 8 12 15 20 15 21 0 17 21-6 27-11 3-20 9-20 14 0 15 37 10 50-6zm135 4c4-6-3-13-15-16-14-4-21-13-19-27 2-36-1-47-11-41-6 4-8 11-5 16 4 5 2 17-4 26-19 35 34 76 54 42zm60 2c3-5 1-12-5-16-13-8-13-52 1-60 17-11 23 3 22 47-2 52 14 37 19-17 3-36 1-41-18-40-31 0-54 24-54 55 0 36 20 54 35 31zm105-6c10-12 9-20-4-40-20-31-20-35 2-36 11 0 12-2 4-6-16-6-42 15-42 33 0 8 7 14 15 14s15 7 15 15-9 15-20 15-20 5-20 10c0 15 36 12 50-5zm75 5c3-5 2-10-3-10-14 0-21-25-15-50 3-13 11-19 19-16 18 7 18-2 0-19-12-12-16-8-29 32-8 25-13 52-10 59 6 16 29 18 38 4zm176-2c1-7 1-17 0-21s3-16 9-26c5-10 6-21 3-25-6-5-32 57-33 77 0 12 20 8 21-5zm184 2c3-5-3-10-14-10-15 0-21-6-21-24 0-28 24-51 41-40 9 5 7 11-6 21-11 7-14 13-8 13s16-6 22-14c8-10 8-16-3-25-18-15-40-6-56 24-12 22-11 28 5 45 20 22 31 25 40 10zm-1715-21c11-19 10-20-9-9-22 11-29 30-11 30 5 0 14-9 20-21zm103 14c-18-7-16-29 3-59 13-18 13-23 3-19-23 9-41 56-28 72 6 7 17 13 23 12 7 0 6-2-1-6zm42-13c-3-5-1-18 4-28 6-11 7-22 4-26-8-7-31 55-25 67 2 4 8 5 13 1 5-3 7-9 4-14zm638-29c-3-10 0-22 6-25 14-9 15-56 1-56-5 0-10 6-11 13 0 6-2 21-5 32-16 82-16 91-1 72 8-10 13-26 10-36zm660 10c2-28 17-27 18 2 1 12 1 25 0 30 0 4 3 7 9 7 14 0 43-47 37-62-3-8-9-2-16 15-6 15-13 27-16 27-2 0-2-12 1-27 7-37-7-75-24-64-8 4-15 21-18 37-2 16-6 40-9 53-2 15 0 20 6 14s11-20 12-32zm151-13c4-22 3-38-2-38-13 0-22 25-22 63 0 40 15 24 24-25zm43 19c2-12 4-31 4-42 0-10 5-25 11-32 10-12 7-16-9-10-7 2-10 10-17 52-2 11-5 25-6 30-1 6-2 16-1 24 1 20 14 5 18-22zm-1248-21c7-8 8-17 3-19-4-3-13 3-20 14-14 22 0 26 17 5zm490 0c8-10 9-16 1-21-5-3-10 0-10 9 0 8-6 17-12 19-8 4-9 6-2 6 6 1 17-5 23-13zm-908-41c5 4 9 1 9-4 0-6-4-11-10-11-13 0-31 36-22 45 4 4 8-3 10-14 2-12 8-19 13-16zm716 18c-4-3-10-3-14 0-3 4 0 7 7 7s10-3 7-7zm53-3c0-5-5-10-11-10-5 0-7 5-4 10 3 6 8 10 11 10 2 0 4-4 4-10zm806-27c-8-8-36 5-36 17 0 7 6 7 21 0 11-7 18-14 15-17zm-1976-45c7-35 14-65 16-67 1-1 13 7 26 19 26 24 72 23 114-4 27-19 64-97 64-137 0-31-19-78-32-80-42-7-78-2-105 13-29 15-33 16-33 2 0-12-10-14-42-12-25 2-42 8-41 14 1 7-2 27-8 45-6 19-12 46-14 61s-9 46-16 70-13 50-14 58-5 30-9 48l-8 32h89l13-62zm1354 46c3-8 2-12-4-9s-10 10-10 16c0 14 7 11 14-7zm163-11c-4-3-7 0-7 7s3 10 7 7c3-4 3-10 0-14zm517-4c-3-5-10-7-15-3-5 3-7 10-3 15 3 5 10 7 15 3 5-3 7-10 3-15zm-854 1c0-5-4-10-10-10-5 0-10 5-10 10 0 6 5 10 10 10 6 0 10-4 10-10zm-1427-71c39-11 100-58 118-92 14-26 21-62 22-116 1-39-3-48-37-77-32-28-44-32-84-30-81 5-131 26-168 71-19 23-36 55-38 71s-7 37-11 46c-4 10 1 38 11 64 26 68 91 90 187 63zm697 2c18-5 26-15 28-35 3-24 1-28-15-22-45 18-69 17-93-2-38-31-16-44 68-40 67 3 71 2 77-20 9-37-6-92-29-106-48-30-168 0-201 51-18 27-25 76-18 115 11 54 98 82 183 59zm1036-6c17-9 30-11 32-5s23 10 47 10c40 0 43-2 49-32 3-18 8-42 10-53 18-88 18-110-3-129-14-13-38-19-78-21-68-2-97 8-112 41-12 27-13 26 49 14 48-9 80 1 80 26 0 10-7 13-25 8-33-8-120 13-138 34-8 9-18 32-22 51-6 29-4 37 16 52 29 23 58 24 95 4zm712 4c27-9 51-43 40-55-3-2-19 1-37 7-27 10-39 9-68-5-54-26-37-41 49-42 42-1 81-5 87-8 25-16-3-124-32-127-92-8-144 4-175 41-22 26-45 84-44 114 2 68 91 106 180 75zm-1549-18c6-10 8-21 4-24-3-4-1-13 5-20 7-8 9-16 6-19-7-7 24-70 40-80 34-23 51 11 33 70-6 20-10 41-9 45s-2 17-8 27c-10 19-7 20 40 20 42 0 50-3 50-19 0-10 9-47 20-81 25-78 25-95 1-119-26-26-95-20-129 11l-25 23 6-22c5-21 2-23-34-23-27 0-41 5-48 19-6 10-8 21-4 24 3 4 1 13-5 20-7 8-9 16-6 20 3 3 1 14-5 25-6 10-12 34-14 53-3 19-8 42-12 52-6 15-1 17 39 17 34 0 48-5 55-19zm326-8c5-16 9-35 11-43s8-35 14-60 15-61 19-80c11-45 13-40 16 45 1 39 5 91 9 118 7 46 8 47 44 47 35 0 39-4 74-63 20-34 49-89 64-122 30-65 42-62 23 7-7 24-13 50-15 58-11 58-22 98-28 108-5 9 6 12 38 12 52 0 61-11 72-81 3-24 12-62 19-84s15-64 19-92l7-53h-146l-45 95c-25 52-47 95-50 95s-6-35-8-78c-4-116-1-112-88-112-71 0-80 4-75 33 1 4-3 16-9 26-5 10-14 43-19 72-9 52-26 125-37 162-5 14 1 17 39 17 40 0 46-3 52-27zm802 11c5-15 9-36 12-76 2-35 20-17 37 37l18 55h54c29 0 52-3 50-7-2-5-10-21-17-38-7-16-18-40-24-53-10-20-5-29 43-77l54-55h-57c-49 0-59 3-72 24-9 14-28 32-42 41l-26 17 6-28c3-16 12-52 20-80 17-61 8-84-32-84-34 0-51 18-56 59-2 16-9 49-16 73s-12 46-11 49c1 4-3 22-9 40-6 19-12 49-15 68-2 19-7 38-10 42-3 5 15 9 41 9 32 0 47-5 52-16z"/><path d="M2600 1990c0-7 3-10 7-7 3 4 3 10 0 14-4 3-7 0-7-7zM769 1830c-19-12-20-49-2-83 11-22 20-28 41-25 22 2 28 9 30 36 5 48-37 91-69 72zm-383-26c-10-39 4-111 26-139 23-30 82-35 92-9 11 28 6 91-9 120-28 55-98 73-109 28zm694-58c0-18 18-32 51-40 21-5 28-2 32 15 6 21 2 24-50 33-24 4-33 2-33-8zm1110 89c-10-13-10-19 5-35 24-27 65-27 65-1 0 11-10 27-22 35-28 20-32 20-48 1zm684-82c-26-3-31-8-27-24 8-30 67-23 71 9 2 12 0 21-5 20-4 0-22-3-39-5z"/></g><g fill="#fea000"><path d="M0 1230V0h3280v2460H0V1230zm1824 885c17-18 11-45-10-45-8 0-14-4-14-10 0-5 7-10 15-10 9 0 20-12 25-26 14-35 14-34-20-34-27 0-58 29-44 43 3 2-1 21-9 40-11 25-12 38-4 46 16 16 43 14 61-4zm-716-62l10-38 1 32c1 47 17 49 41 6l20-38-2 30c-3 46 15 46 24 0 4-22 10-50 13-62 4-18 1-23-13-23-13 0-25 14-38 42l-19 43-5-40c-3-26-11-41-21-43-12-2-19 11-28 54-13 69-14 74-2 74 5 0 13-17 19-37zm186 17c3-8 7-29 11-47 6-30 5-31-27-30-40 2-66 43-49 76 13 23 59 23 65 1zm80-2c8-13 6-22-8-37-17-19-17-21-3-21 10 0 17-4 17-10 0-17-40-11-47 6-3 9-1 25 5 35 16 24 15 29-3 29-8 0-15 5-15 11 0 16 42 6 54-13zm66 13c0-6-4-12-9-15-13-8 0-56 15-56 18 0 18-8-1-26-12-13-17-13-27-2-13 13-20 72-13 96 5 14 35 17 35 3zm87-8c3-7-3-9-16-6-31 8-25-10 9-29 20-11 28-22 24-32-7-19-45-21-62-4-16 16-15 75 1 81 18 8 40 3 44-10zm53-14c0-10 9-28 20-39 26-26 25-27-5-27-20 0-26 6-33 41-5 22-7 44-5 49 7 13 23-3 23-24zm122-1c9-1 24 6 32 17 15 19 15 19 16-10 0-55-12-105-26-105-7 0-25 24-39 53-27 59-34 94-12 65 7-9 20-18 29-20zm186-20c7-25 7-40 1-44-15-9-16-5-24 51-8 58 7 53 23-7zm51-5c13-68 14-83 2-83-9 0-31 84-31 120 0 41 18 18 29-37zm76 47c3-5-3-10-14-10-29 0-26-12 9-32 20-11 28-22 24-32-7-19-45-21-62-4-13 13-17 70-5 81 10 10 41 8 48-3zm119-12c8-13 6-22-8-37-17-19-17-21-3-21 10 0 17-4 17-10 0-15-36-12-49 3-8 10-7 19 4 33 19 25 19 34 0 34-8 0-15 5-15 11 0 16 42 6 54-13zm131 11c4-6-3-13-15-16-19-5-21-10-15-42 4-20 7-40 8-45s-3-10-9-13c-9-3-34 84-34 119 0 12 58 10 65-3zm96-25c12-56 11-61-21-62-33-1-50 20-50 61 0 31 6 36 38 33 21-3 29-10 33-32zm73 14c8-13 6-22-8-37-19-21-19-21 2-21 12 0 22-5 22-11s-12-9-27-7c-32 3-44 36-19 50 22 12 20 28-4 28-11 0-20 5-20 11 0 16 42 6 54-13zm71 12c3-5 1-10-4-10-18 0-12-48 6-58 15-9 15-11 1-26-14-14-17-14-29 0-12 15-19 68-11 92 5 14 28 16 37 2zm90-32l8-33 6 33c7 41 21 40 44-1l18-32-6 38c-3 20-2 37 3 37 13 0 20-20 28-80 9-65-14-69-42-8l-19 42-8-42c-11-58-33-54-46 8-6 28-11 58-11 66 0 25 17 6 25-28zm139 25c14-50 17-83 7-83s-15 13-26 68c-7 33 10 47 19 15zm51-5c19-86 22-109 14-114-5-3-11 1-14 8-7 20-24 101-25 116 0 21 19 13 25-10zm92 5c3-7-3-9-16-6-30 8-26-12 5-26 30-14 29-45-3-49-38-6-68 59-41 86 15 15 50 12 55-5zm-803-89c9-22-3-32-14-14-12 19-12 30-1 30 5 0 12-7 15-16zm-1355-31c6-21 11-45 11-54 0-25 11-29 36-12 59 39 157-25 170-112 16-109-47-158-134-105-19 12-31 16-27 10 12-19-4-26-46-21l-42 6-33 145c-19 80-34 153-34 163 0 14 9 17 45 17 42 0 44-1 54-37zm2035 6c-3-5-10-7-15-3-5 3-7 10-3 15 3 5 10 7 15 3 5-3 7-10 3-15zm-854 1c0-5-4-10-10-10-5 0-10 5-10 10 0 6 5 10 10 10 6 0 10-4 10-10zm1040-25c0-8-4-15-10-15-5 0-10 5-10 11 0 8-5 8-15-1-14-12-22 0-8 13 12 13 43 7 43-8zm-65-5c3-5-1-10-10-10s-13 5-10 10c3 6 8 10 10 10s7-4 10-10zm-2402-41c43-12 101-59 122-99 25-47 28-121 8-160-22-42-54-60-108-60-110 0-194 63-214 161-12 55-10 72 12 118 22 45 100 63 180 40zm697 2c17-5 26-15 28-32 3-26 2-26-47-21-48 4-81-7-81-29 0-4 37-9 83-11l82-3 3-47c3-40-1-52-22-73-51-51-178-19-217 55-35 64-18 139 35 160 25 10 101 11 136 1zm1040-6c17-9 30-11 30-5 0 5 20 10 44 10h44l16-69c29-129 16-160-71-168-70-7-115 7-124 38-6 26-6 26 54 25 40-1 61 3 64 12 3 7-5 12-22 12-52 0-115 22-135 48-57 72 15 141 100 97zm736 3c1-2 5-15 9-30 7-26 6-26-34-21-50 7-91-3-91-22 0-12 16-15 80-15 78 0 80-1 86-26 11-41-7-97-36-112-39-20-124-9-166 23-77 59-76 172 1 206 17 8 143 5 151-3zm-1566-50c6-29 14-61 17-70 6-24 31-48 49-48s18 36 0 113l-14 57h96l22-89c23-95 21-124-12-142-26-14-85-5-109 17-18 16-19 16-19 1 0-13-9-17-35-17-19 0-38-1-42-2-7-3-38 108-56 200l-6 32h97l12-52zm341-63c23-93 27-104 29-70 2 22 4 45 5 50 2 6 3 38 4 73l1 62 48-1h47l55-109c30-60 56-106 58-101 1 4-8 54-21 110l-24 101h95l27-117c15-65 31-133 35-152 5-19 8-37 6-40s-37-5-78-3l-74 3-43 86c-23 47-45 83-48 79-3-3-8-42-12-87l-6-82-75 2c-41 1-76 4-78 6s-17 63-33 137c-16 73-32 141-35 151-5 16 0 18 42 15l48-3 27-110zm786 65c6-25 12-47 13-50s9 18 19 45l18 50 56 3c31 2 57 1 57-2s-11-31-25-63l-26-57 53-53 52-53h-54c-50 0-57 3-97 42-24 23-43 38-43 33 0-6 9-44 20-85 27-103 28-100-28-100h-48l-33 148c-18 81-35 157-38 170-5 22-3 23 43 20 49-3 49-3 61-48z"/><path d="M1780 2100c0-5 7-10 15-10s15 5 15 10c0 6-7 10-15 10s-15-4-15-10zm20-74c0-9 5-16 10-16 6 0 10 4 10 9 0 6-4 13-10 16-5 3-10-1-10-9zm-548 12c5-32 28-35 28-4 0 17-5 26-16 26-10 0-14-7-12-22zm243-18c3-5 10-10 16-10 5 0 9 5 9 10 0 6-7 10-16 10-8 0-12-4-9-10zm211-5c4-8 10-15 15-15s9 7 9 15-7 15-15 15c-9 0-12-6-9-15zm279 5c3-5 10-10 16-10 5 0 9 5 9 10 0 6-7 10-16 10-8 0-12-4-9-10zm330 40c-8-13 3-50 16-50 12 0 12 47 0 55-5 3-12 1-16-5zm525-40c0-5 7-10 16-10 8 0 12 5 9 10-3 6-10 10-16 10-5 0-9-4-9-10zM767 1823c-15-14-6-70 12-87 44-40 77 5 46 63-14 29-42 40-58 24zm-378-14c-29-56 24-169 81-169 30 0 40 15 40 61 0 89-89 168-121 108zm705-75c3-9 6-18 6-20s14-4 30-4c23 0 30 4 30 20s-7 20-36 20-35-3-30-16zm1091 96c-11-18 15-40 46-40 33 0 37 10 11 33-21 19-48 22-57 7zm665-101c14-25 63-23 68 4 3 14-4 17-38 17-38 0-40-1-30-21z"/></g><g fill="#e0e1e1"><path d="M0 1230V0h3280v2460H0V1230zm1824 885c17-18 11-45-10-45-8 0-14-4-14-10 0-5 7-10 15-10 9 0 20-12 25-26 14-35 14-34-20-34-27 0-58 29-44 43 3 2-1 21-9 40-11 25-12 38-4 46 16 16 43 14 61-4zm-716-62l10-38 1 32c1 47 17 49 41 6l20-38-2 30c-3 46 15 46 24 0 4-22 10-50 13-62 4-18 1-23-13-23-13 0-25 14-38 42l-19 43-5-40c-3-26-11-41-21-43-12-2-19 11-28 54-13 69-14 74-2 74 5 0 13-17 19-37zm186 17c3-8 7-29 11-47 6-30 5-31-27-30-40 2-66 43-49 76 13 23 59 23 65 1zm80-2c8-13 6-22-8-37-17-19-17-21-3-21 10 0 17-4 17-10 0-17-40-11-47 6-3 9-1 25 5 35 16 24 15 29-3 29-8 0-15 5-15 11 0 16 42 6 54-13zm66 13c0-6-4-12-9-15-13-8 0-56 15-56 18 0 18-8-1-26-12-13-17-13-27-2-13 13-20 72-13 96 5 14 35 17 35 3zm87-8c3-7-3-9-16-6-31 8-25-10 9-29 20-11 28-22 24-32-7-19-45-21-62-4-16 16-15 75 1 81 18 8 40 3 44-10zm53-14c0-10 9-28 20-39 26-26 25-27-5-27-20 0-26 6-33 41-5 22-7 44-5 49 7 13 23-3 23-24zm122-1c9-1 24 6 32 17 15 19 15 19 16-10 0-55-12-105-26-105-7 0-25 24-39 53-27 59-34 94-12 65 7-9 20-18 29-20zm186-20c7-25 7-40 1-44-15-9-16-5-24 51-8 58 7 53 23-7zm51-5c13-68 14-83 2-83-9 0-31 84-31 120 0 41 18 18 29-37zm76 47c3-5-3-10-14-10-29 0-26-12 9-32 20-11 28-22 24-32-7-19-45-21-62-4-13 13-17 70-5 81 10 10 41 8 48-3zm119-12c8-13 6-22-8-37-17-19-17-21-3-21 10 0 17-4 17-10 0-15-36-12-49 3-8 10-7 19 4 33 19 25 19 34 0 34-8 0-15 5-15 11 0 16 42 6 54-13zm131 11c4-6-3-13-15-16-19-5-21-10-15-42 4-20 7-40 8-45s-3-10-9-13c-9-3-34 84-34 119 0 12 58 10 65-3zm96-25c12-56 11-61-21-62-33-1-50 20-50 61 0 31 6 36 38 33 21-3 29-10 33-32zm73 14c8-13 6-22-8-37-19-21-19-21 2-21 12 0 22-5 22-11s-12-9-27-7c-32 3-44 36-19 50 22 12 20 28-4 28-11 0-20 5-20 11 0 16 42 6 54-13zm71 12c3-5 1-10-4-10-18 0-12-48 6-58 15-9 15-11 1-26-14-14-17-14-29 0-12 15-19 68-11 92 5 14 28 16 37 2zm90-32l8-33 6 33c7 41 21 40 44-1l18-32-6 38c-3 20-2 37 3 37 13 0 20-20 28-80 9-65-14-69-42-8l-19 42-8-42c-11-58-33-54-46 8-6 28-11 58-11 66 0 25 17 6 25-28zm139 25c14-50 17-83 7-83s-15 13-26 68c-7 33 10 47 19 15zm51-5c19-86 22-109 14-114-5-3-11 1-14 8-7 20-24 101-25 116 0 21 19 13 25-10zm92 5c3-7-3-9-16-6-30 8-26-12 5-26 30-14 29-45-3-49-38-6-68 59-41 86 15 15 50 12 55-5zm-803-89c9-22-3-32-14-14-12 19-12 30-1 30 5 0 12-7 15-16zm-1355-31c6-21 11-45 11-54 0-25 11-29 36-12 59 39 157-25 170-112 16-109-47-158-134-105-19 12-31 16-27 10 12-19-4-26-46-21l-42 6-33 145c-19 80-34 153-34 163 0 14 9 17 45 17 42 0 44-1 54-37zm2035 6c-3-5-10-7-15-3-5 3-7 10-3 15 3 5 10 7 15 3 5-3 7-10 3-15zm-854 1c0-5-4-10-10-10-5 0-10 5-10 10 0 6 5 10 10 10 6 0 10-4 10-10zm1040-25c0-8-4-15-10-15-5 0-10 5-10 11 0 8-5 8-15-1-14-12-22 0-8 13 12 13 43 7 43-8zm-65-5c3-5-1-10-10-10s-13 5-10 10c3 6 8 10 10 10s7-4 10-10zm-2402-41c43-12 101-59 122-99 25-47 28-121 8-160-22-42-54-60-108-60-110 0-194 63-214 161-12 55-10 72 12 118 22 45 100 63 180 40zm697 2c17-5 26-15 28-32 3-26 2-26-47-21-48 4-81-7-81-29 0-4 37-9 83-11l82-3 3-47c3-40-1-52-22-73-51-51-178-19-217 55-35 64-18 139 35 160 25 10 101 11 136 1zm1040-6c17-9 30-11 30-5 0 5 20 10 44 10h44l16-69c29-129 16-160-71-168-70-7-115 7-124 38-6 26-6 26 54 25 40-1 61 3 64 12 3 7-5 12-22 12-52 0-115 22-135 48-57 72 15 141 100 97zm736 3c1-2 5-15 9-30 7-26 6-26-34-21-50 7-91-3-91-22 0-12 16-15 80-15 78 0 80-1 86-26 11-41-7-97-36-112-39-20-124-9-166 23-77 59-76 172 1 206 17 8 143 5 151-3zm-1566-50c6-29 14-61 17-70 6-24 31-48 49-48s18 36 0 113l-14 57h96l22-89c23-95 21-124-12-142-26-14-85-5-109 17-18 16-19 16-19 1 0-13-9-17-35-17-19 0-38-1-42-2-7-3-38 108-56 200l-6 32h97l12-52zm341-63c23-93 27-104 29-70 2 22 4 45 5 50 2 6 3 38 4 73l1 62 48-1h47l55-109c30-60 56-106 58-101 1 4-8 54-21 110l-24 101h95l27-117c15-65 31-133 35-152 5-19 8-37 6-40s-37-5-78-3l-74 3-43 86c-23 47-45 83-48 79-3-3-8-42-12-87l-6-82-75 2c-41 1-76 4-78 6s-17 63-33 137c-16 73-32 141-35 151-5 16 0 18 42 15l48-3 27-110zm786 65c6-25 12-47 13-50s9 18 19 45l18 50 56 3c31 2 57 1 57-2s-11-31-25-63l-26-57 53-53 52-53h-54c-50 0-57 3-97 42-24 23-43 38-43 33 0-6 9-44 20-85 27-103 28-100-28-100h-48l-33 148c-18 81-35 157-38 170-5 22-3 23 43 20 49-3 49-3 61-48zm-1482-332c159-39 302-134 388-257 9-14 18-23 21-20 2 2-5 58-15 124s-18 128-19 138c0 16 16 17 200 17 153 0 200-3 201-12 0-7 2-22 4-33 3-11 11-69 20-130 8-60 17-121 20-135s13-80 22-147c9-68 19-123 22-123 4 0 19 21 36 48 16 26 70 109 119 186l90 138 49-53c28-30 82-88 121-130 39-41 95-101 125-133 29-31 55-56 56-54s-1 28-6 58c-4 30-19 134-33 230s-30 199-34 228c-7 38-6 55 2 58 6 2 97 3 201 2l189-3 7-40c12-72 19-118 39-260 11-77 22-152 25-166s19-122 36-240c16-118 37-257 44-309 8-52 15-103 15-112 0-16-15-18-168-18h-168l-60 63c-33 34-93 98-134 142-138 150-231 245-238 245-4 0-42-55-85-123-43-67-108-168-144-224l-65-103h-170c-126 0-170 3-173 13-5 15-12 59-26 175-7 50-15 92-18 92s-22-28-41-62c-87-151-260-238-475-238-151 0-197 17-107 40 198 49 328 256 301 479-14 118-96 240-204 302-42 24-61 29-121 29-84 0-125-22-161-85-28-49-31-154-8-232 45-151 211-236 335-173 22 11 40 16 40 11 0-20-119-116-180-144-87-41-214-48-306-19-121 38-222 128-279 247-30 63-55 164-55 221 0 54 33 180 65 248 106 224 388 322 700 244z"/><path d="M1780 2100c0-5 7-10 15-10s15 5 15 10c0 6-7 10-15 10s-15-4-15-10zm20-74c0-9 5-16 10-16 6 0 10 4 10 9 0 6-4 13-10 16-5 3-10-1-10-9zm-548 12c5-32 28-35 28-4 0 17-5 26-16 26-10 0-14-7-12-22zm243-18c3-5 10-10 16-10 5 0 9 5 9 10 0 6-7 10-16 10-8 0-12-4-9-10zm211-5c4-8 10-15 15-15s9 7 9 15-7 15-15 15c-9 0-12-6-9-15zm279 5c3-5 10-10 16-10 5 0 9 5 9 10 0 6-7 10-16 10-8 0-12-4-9-10zm330 40c-8-13 3-50 16-50 12 0 12 47 0 55-5 3-12 1-16-5zm525-40c0-5 7-10 16-10 8 0 12 5 9 10-3 6-10 10-16 10-5 0-9-4-9-10zM767 1823c-15-14-6-70 12-87 44-40 77 5 46 63-14 29-42 40-58 24zm-378-14c-29-56 24-169 81-169 30 0 40 15 40 61 0 89-89 168-121 108zm705-75c3-9 6-18 6-20s14-4 30-4c23 0 30 4 30 20s-7 20-36 20-35-3-30-16zm1091 96c-11-18 15-40 46-40 33 0 37 10 11 33-21 19-48 22-57 7zm665-101c14-25 63-23 68 4 3 14-4 17-38 17-38 0-40-1-30-21z"/></g><g fill="#ffedce"><path d="M0 1230V0h3280v2460H0V1230zm1824 884c19-19 21-41 4-46-9-3-8-9 5-22 9-10 17-23 17-29 0-7 4-6 9 2 6 9 6 22-1 34-6 13-7 22 0 29 12 12 33 1 31-15-1-7 1-24 4-39 17-70 17-78 3-78-7 0-17 11-20 25-5 21-9 23-25 14-12-8-27-9-47-2-24 8-29 15-30 44-1 19-6 44-12 55-20 38 30 61 62 28zm-715-54l4-25 6 25c10 35 33 31 43-7 11-42 22-43 16-3-3 17-1 33 3 36 12 7 26-26 34-83 6-47 5-53-12-53-11 0-25 16-38 43l-20 42-3-42c-3-35-7-43-23-43-10 0-20 3-20 8-1 4-3 16-5 27s-6 31-8 45-7 33-12 44c-5 14-3 17 12 14 11-2 21-14 23-28zm192 11c3-28 7-56 10-70 3-10-6-16-26-18-35-3-64 27-65 68 0 33 5 37 46 36 23-1 34-6 35-16zm67 7c17-17 15-45-5-58-17-10-17-10 1-8 24 4 33-20 10-29-37-14-73 47-36 62 15 6 14 8-5 16-13 4-23 13-23 19 0 14 43 13 58-2zm72 3c0-6-4-12-10-16-11-7 8-55 22-55 13 0 9-26-5-38-21-18-44 19-45 72-1 39 2 46 18 46 11 0 20-4 20-9zm84 3c25-10 19-24-11-25-21-1-23-2-8-6 30-7 46-32 34-54-22-42-84 0-73 49 10 38 26 48 58 36zm66-35c0-10 9-23 20-29 33-18 25-40-12-37-31 2-33 5-38 50-4 26-4 50-1 52 8 9 31-17 31-36zm96 26c8-20 24-19 40 3 22 29 37 2 25-44-5-22-9-48-8-59s-5-21-16-23c-13-3-24 11-42 50-14 29-25 61-25 71 0 21 18 23 26 2zm248-2c2-10 7-34 11-53s9-43 11-52c4-13 0-18-15-18-12 0-20 7-20 18 0 9-3 41-7 70-3 32-2 52 5 52 5 0 12-8 15-17zm80 11c25-10 19-24-11-25-21-1-23-2-8-6 31-7 46-32 34-55-21-39-84 4-72 51 10 43 20 49 57 35zm120-16c8-13 8-23-2-38-10-16-10-20 0-18 7 2 13-4 13-12s-10-16-22-18c-33-5-54 43-28 62 17 12 17 13-4 19-11 3-21 10-21 17 0 17 51 8 64-12zm131 11c4-6-3-13-15-16-18-5-21-11-15-32 17-71 18-81 1-81-9 0-17 3-17 8-1 4-3 16-4 27-2 11-7 39-13 63l-10 42h33c19 0 37-5 40-11zm91-1c4-6 8-21 10-32 2-12 6-31 10-43 6-23 2-24-69-14-13 2-28 54-22 78 4 17 12 23 35 23 16 0 32-5 36-12zm75 2c23-13 24-28 2-52-16-18-16-18 1-12 14 5 17 3 14-12-5-28-44-30-59-3-9 19-9 25 5 34 22 16 20 25-4 25-20 0-26 11-13 23 9 10 31 9 54-3zm74 0c3-5 1-10-5-10-14 0-1-53 17-63 7-5 11-13 8-18-4-5-11-7-16-4s-6-1-3-9c3-9 2-16-4-16-20 0-37 35-39 82-2 41 0 48 17 48 10 0 22-4 25-10zm90-12c0-9 4-20 8-24s7 2 7 13c0 31 13 36 32 11l18-23v23c0 38 27 26 33-15 3-21 8-53 11-70 5-27 2-33-12-33-11 0-24 16-36 46-10 25-20 43-22 42-2-2-5-22-7-43-3-30-8-40-22-40s-21 13-31 60c-17 79-17 77 4 73 9-2 17-11 17-20zm146 5c2-23 6-52 13-85 6-26-7-47-18-30-6 10-16 54-22 100-3 24-1 32 11 32 8 0 16-8 16-17zm57-45c7-35 8-66 3-71-13-13-25 11-37 76-9 51-9 57 6 57 12 0 19-16 28-62zm80 45c2-8-6-13-20-14l-23-1 24-7c34-9 48-35 32-55-29-35-81-4-81 49 0 17 3 35 7 39 11 11 56 2 61-11zm-802-80c18-24 17-43-1-43-8 0-15 3-15 8 0 4-3 17-6 30-7 26 4 29 22 5zm-1347-59c10-41 16-53 24-45 16 16 81 13 114-5 55-32 76-76 75-159-1-70-70-98-138-56-28 17-31 17-30 3 1-13-7-16-39-14-22 2-45 10-51 18-10 12-22 64-29 119-1 6-7 29-14 53s-14 56-16 72-6 34-10 40c-12 20 7 30 54 30h48l12-56zm2211 6c0-16-4-30-10-30-5 0-10 8-10 18-1 16-1 16-11 0-13-23-64-25-55-2 3 9 6 21 6 27 0 7 18 13 40 15 38 2 40 1 40-28zm-2453-56c26-9 59-28 73-43 82-87 79-233-6-261-78-26-170-6-224 50-39 39-52 70-55 134-4 66 11 104 49 123 32 16 110 15 163-3zm675 10c31-5 38-11 43-36 4-16 5-31 3-33s-20 0-40 4c-40 9-88 4-88-10 0-4 35-9 77-11l77-3 9-34c17-69-26-121-104-121-82 0-151 53-164 128-15 92 57 137 187 116zm212-11c5-19 20-79 30-125 5-21 12-28 31-28 28 0 28-1 14 60-23 100-23 100 30 100h47l23-77c21-68 24-134 7-150-12-12-95-14-115-4-11 7-21 8-21 3 0-10-89-7-100 4-8 8-33 117-45 196-4 25-2 27 38 31 23 2 45 4 49 5s9-6 12-15zm531-89c47-98 62-116 49-61-4 17-8 41-10 52-1 11-8 36-13 55-16 51-16 51 42 48l52-3 18-85c21-95 36-176 40-203 2-16-7-18-73-20l-75-2-28 55c-55 108-67 127-68 105-1-11-2-48-4-81-1-34-5-65-8-70s-39-8-81-6l-76 4-14 51c-14 55-33 142-41 192-3 16-8 38-11 47-5 15 1 18 40 18 50 0 62-12 70-71 3-19 11-56 19-84l14-50 5 35c3 19 4 63 1 97-2 35-2 66 0 70 3 5 28 6 56 5l51-4 45-94zm320 94c11-1 40 0 65 3 35 3 45 0 46-11 0-8 3-25 7-36 4-12 10-37 13-55 3-19 7-46 9-60 8-50-54-91-119-80-4 1-24 2-43 3-36 1-63 27-63 60 0 18 11 24 23 11 14-14 74-13 92 2 19 14 18 14-15 15-65 2-94 9-119 28-26 19-44 73-34 99 9 22 44 33 83 27 19-2 44-5 55-6zm281-23c4-16 8-38 9-47 2-26 15-35 15-11 0 11 7 34 15 49 13 26 22 30 72 35 32 3 59 5 61 3 3-2 0-10-31-72-25-50-22-61 36-121 28-29 44-51 34-47-10 3-39 6-64 6-39 0-50 5-78 34-18 19-35 32-39 29-3-3-1-12 4-19 6-6 10-16 9-20-2-8 7-47 27-116 5-16-2-18-50-18-59 0-61 2-71 66-3 16-16 74-29 129-14 54-23 102-20 106 2 4 0 10-6 14-27 17-7 30 45 30s55-1 61-30zm431 26c12-8 35-63 29-68-3-3-10-1-17 3-12 7-27 8-89 5-11-1-20-5-20-11 0-5 35-10 78-12 77-3 77-3 80-32 5-42-6-93-24-111-10-10-34-15-70-15-74 0-138 36-156 88-22 66-19 103 13 134 26 27 34 29 98 27 38-1 73-5 78-8zm-1912-383c159-39 302-134 388-257 9-14 18-23 21-20 2 2-5 58-15 124s-18 128-19 138c0 16 16 17 200 17 153 0 200-3 201-12 0-7 2-22 4-33 3-11 11-69 20-130 8-60 17-121 20-135s13-80 22-147c9-68 19-123 22-123 4 0 19 21 36 48 16 26 70 109 119 186l90 138 49-53c28-30 82-88 121-130 39-41 95-101 125-133 29-31 55-56 56-54s-1 28-6 58c-4 30-19 134-33 230s-30 199-34 228c-7 38-6 55 2 58 6 2 97 3 201 2l189-3 7-40c12-72 19-118 39-260 11-77 22-152 25-166s19-122 36-240c16-118 37-257 44-309 8-52 15-103 15-112 0-16-15-18-168-18h-168l-60 63c-33 34-93 98-134 142-138 150-231 245-238 245-4 0-42-55-85-123-43-67-108-168-144-224l-65-103h-170c-126 0-170 3-173 13-5 15-12 59-26 175-7 50-15 92-18 92s-22-28-41-62c-87-151-260-238-475-238-151 0-197 17-107 40 198 49 328 256 301 479-14 118-96 240-204 302-42 24-61 29-121 29-84 0-125-22-161-85-28-49-31-154-8-232 45-151 211-236 335-173 22 11 40 16 40 11 0-20-119-116-180-144-87-41-214-48-306-19-121 38-222 128-279 247-30 63-55 164-55 221 0 54 33 180 65 248 106 224 388 322 700 244z"/><path d="M1780 2100c0-5 7-10 16-10 8 0 12 5 9 10-3 6-10 10-16 10-5 0-9-4-9-10zm20-80c0-7 3-10 7-7 3 4 3 10 0 14-4 3-7 0-7-7zm-546 24c3-9 6-18 6-20s4-4 9-4 7 9 4 20-10 20-15 20c-6 0-7-7-4-16zm249-31c4-3 10-3 14 0 3 4 0 7-7 7s-10-3-7-7zm203 2c4-8 10-15 15-15s9 7 9 15-7 15-15 15c-9 0-12-6-9-15zm287-2c4-3 10-3 14 0 3 4 0 7-7 7s-10-3-7-7zm327 22c0-14 5-25 10-25 6 0 10 11 10 25s-4 25-10 25c-5 0-10-11-10-25zM767 1823c-23-22 7-93 40-93 19 0 23 5 23 31 0 17-5 39-10 50-10 19-40 26-53 12zm-371-15c-13-41-11-71 9-110 19-37 26-43 57-46 30-3 36 0 41 20 9 36-1 91-22 118-20 28-78 40-85 18zm698-74c3-9 6-18 6-20 0-12 49-2 54 12 9 24 9 24-30 24-29 0-35-3-30-16zm1099 90c-7-19-3-22 36-30 31-7 32-6 20 14-16 26-48 35-56 16zm657-95c14-25 63-23 68 4 3 14-4 17-38 17-38 0-40-1-30-21z"/></g><g fill="#fff"><path d="M0 1230V0h3280v2460H0V1230zm1824 884c19-19 21-41 4-46-9-3-8-9 5-22 9-10 17-23 17-29 0-7 4-6 9 2 6 9 6 22-1 34-6 13-7 22 0 29 12 12 33 1 31-15-1-7 1-24 4-39 17-70 17-78 3-78-7 0-17 11-20 25-5 21-9 23-25 14-12-8-27-9-47-2-24 8-29 15-30 44-1 19-6 44-12 55-20 38 30 61 62 28zm-715-54l4-25 6 25c10 35 33 31 43-7 11-42 22-43 16-3-3 17-1 33 3 36 12 7 26-26 34-83 6-47 5-53-12-53-11 0-25 16-38 43l-20 42-3-42c-3-35-7-43-23-43-10 0-20 3-20 8-1 4-3 16-5 27s-6 31-8 45-7 33-12 44c-5 14-3 17 12 14 11-2 21-14 23-28zm192 11c3-28 7-56 10-70 3-10-6-16-26-18-35-3-64 27-65 68 0 33 5 37 46 36 23-1 34-6 35-16zm67 7c17-17 15-45-5-58-17-10-17-10 1-8 24 4 33-20 10-29-37-14-73 47-36 62 15 6 14 8-5 16-13 4-23 13-23 19 0 14 43 13 58-2zm72 3c0-6-4-12-10-16-11-7 8-55 22-55 13 0 9-26-5-38-21-18-44 19-45 72-1 39 2 46 18 46 11 0 20-4 20-9zm84 3c25-10 19-24-11-25-21-1-23-2-8-6 30-7 46-32 34-54-22-42-84 0-73 49 10 38 26 48 58 36zm66-35c0-10 9-23 20-29 33-18 25-40-12-37-31 2-33 5-38 50-4 26-4 50-1 52 8 9 31-17 31-36zm96 26c8-20 24-19 40 3 22 29 37 2 25-44-5-22-9-48-8-59s-5-21-16-23c-13-3-24 11-42 50-14 29-25 61-25 71 0 21 18 23 26 2zm248-2c2-10 7-34 11-53s9-43 11-52c4-13 0-18-15-18-12 0-20 7-20 18 0 9-3 41-7 70-3 32-2 52 5 52 5 0 12-8 15-17zm80 11c25-10 19-24-11-25-21-1-23-2-8-6 31-7 46-32 34-55-21-39-84 4-72 51 10 43 20 49 57 35zm120-16c8-13 8-23-2-38-10-16-10-20 0-18 7 2 13-4 13-12s-10-16-22-18c-33-5-54 43-28 62 17 12 17 13-4 19-11 3-21 10-21 17 0 17 51 8 64-12zm131 11c4-6-3-13-15-16-18-5-21-11-15-32 17-71 18-81 1-81-9 0-17 3-17 8-1 4-3 16-4 27-2 11-7 39-13 63l-10 42h33c19 0 37-5 40-11zm91-1c4-6 8-21 10-32 2-12 6-31 10-43 6-23 2-24-69-14-13 2-28 54-22 78 4 17 12 23 35 23 16 0 32-5 36-12zm75 2c23-13 24-28 2-52-16-18-16-18 1-12 14 5 17 3 14-12-5-28-44-30-59-3-9 19-9 25 5 34 22 16 20 25-4 25-20 0-26 11-13 23 9 10 31 9 54-3zm74 0c3-5 1-10-5-10-14 0-1-53 17-63 7-5 11-13 8-18-4-5-11-7-16-4s-6-1-3-9c3-9 2-16-4-16-20 0-37 35-39 82-2 41 0 48 17 48 10 0 22-4 25-10zm90-12c0-9 4-20 8-24s7 2 7 13c0 31 13 36 32 11l18-23v23c0 38 27 26 33-15 3-21 8-53 11-70 5-27 2-33-12-33-11 0-24 16-36 46-10 25-20 43-22 42-2-2-5-22-7-43-3-30-8-40-22-40s-21 13-31 60c-17 79-17 77 4 73 9-2 17-11 17-20zm146 5c2-23 6-52 13-85 6-26-7-47-18-30-6 10-16 54-22 100-3 24-1 32 11 32 8 0 16-8 16-17zm57-45c7-35 8-66 3-71-13-13-25 11-37 76-9 51-9 57 6 57 12 0 19-16 28-62zm80 45c2-8-6-13-20-14l-23-1 24-7c34-9 48-35 32-55-29-35-81-4-81 49 0 17 3 35 7 39 11 11 56 2 61-11zm-802-80c18-24 17-43-1-43-8 0-15 3-15 8 0 4-3 17-6 30-7 26 4 29 22 5zm-1347-59c10-41 16-53 24-45 16 16 81 13 114-5 55-32 76-76 75-159-1-70-70-98-138-56-28 17-31 17-30 3 1-13-7-16-39-14-22 2-45 10-51 18-10 12-22 64-29 119-1 6-7 29-14 53s-14 56-16 72-6 34-10 40c-12 20 7 30 54 30h48l12-56zm2211 6c0-16-4-30-10-30-5 0-10 8-10 18-1 16-1 16-11 0-13-23-64-25-55-2 3 9 6 21 6 27 0 7 18 13 40 15 38 2 40 1 40-28zm-2453-56c26-9 59-28 73-43 82-87 79-233-6-261-78-26-170-6-224 50-39 39-52 70-55 134-4 66 11 104 49 123 32 16 110 15 163-3zm675 10c31-5 38-11 43-36 4-16 5-31 3-33s-20 0-40 4c-40 9-88 4-88-10 0-4 35-9 77-11l77-3 9-34c17-69-26-121-104-121-82 0-151 53-164 128-15 92 57 137 187 116zm212-11c5-19 20-79 30-125 5-21 12-28 31-28 28 0 28-1 14 60-23 100-23 100 30 100h47l23-77c21-68 24-134 7-150-12-12-95-14-115-4-11 7-21 8-21 3 0-10-89-7-100 4-8 8-33 117-45 196-4 25-2 27 38 31 23 2 45 4 49 5s9-6 12-15zm531-89c47-98 62-116 49-61-4 17-8 41-10 52-1 11-8 36-13 55-16 51-16 51 42 48l52-3 18-85c21-95 36-176 40-203 2-16-7-18-73-20l-75-2-28 55c-55 108-67 127-68 105-1-11-2-48-4-81-1-34-5-65-8-70s-39-8-81-6l-76 4-14 51c-14 55-33 142-41 192-3 16-8 38-11 47-5 15 1 18 40 18 50 0 62-12 70-71 3-19 11-56 19-84l14-50 5 35c3 19 4 63 1 97-2 35-2 66 0 70 3 5 28 6 56 5l51-4 45-94zm320 94c11-1 40 0 65 3 35 3 45 0 46-11 0-8 3-25 7-36 4-12 10-37 13-55 3-19 7-46 9-60 8-50-54-91-119-80-4 1-24 2-43 3-36 1-63 27-63 60 0 18 11 24 23 11 14-14 74-13 92 2 19 14 18 14-15 15-65 2-94 9-119 28-26 19-44 73-34 99 9 22 44 33 83 27 19-2 44-5 55-6zm281-23c4-16 8-38 9-47 2-26 15-35 15-11 0 11 7 34 15 49 13 26 22 30 72 35 32 3 59 5 61 3 3-2 0-10-31-72-25-50-22-61 36-121 28-29 44-51 34-47-10 3-39 6-64 6-39 0-50 5-78 34-18 19-35 32-39 29-3-3-1-12 4-19 6-6 10-16 9-20-2-8 7-47 27-116 5-16-2-18-50-18-59 0-61 2-71 66-3 16-16 74-29 129-14 54-23 102-20 106 2 4 0 10-6 14-27 17-7 30 45 30s55-1 61-30zm431 26c12-8 35-63 29-68-3-3-10-1-17 3-12 7-27 8-89 5-11-1-20-5-20-11 0-5 35-10 78-12 77-3 77-3 80-32 5-42-6-93-24-111-10-10-34-15-70-15-74 0-138 36-156 88-22 66-19 103 13 134 26 27 34 29 98 27 38-1 73-5 78-8zM977 1530c12 0 25-5 28-10 4-6 10-8 15-5 19 12 237-87 247-112 3-7 9-13 14-13 12 0 119-107 119-119 0-5 6-11 14-14 11-5 13 2 9 31-2 20-5 48-6 62s-6 31-10 38c-5 7-5 21-2 33 4 11 2 25-3 32s-10 24-10 40l1 27 206-2 206-3 3-25c2-14 5-41 8-60s6-46 7-60 6-31 11-38c4-7 5-24 2-37s-2-27 4-30 10-18 10-33 2-44 5-64c3-21 8-55 11-75 2-21 7-54 10-73s6-47 6-62c1-34 14-37 24-6 4 12 47 86 97 163 49 77 97 152 106 167 9 16 19 28 23 28s24-21 45-47c21-25 70-79 108-119 39-39 101-104 139-144s65-64 61-54c-5 11-9 31-10 47-2 15-4 30-5 35-3 7-4 15-15 97-3 22-8 56-11 75s-6 46-7 60-6 31-11 38c-4 7-5 24-2 37s2 26-4 30c-5 3-9 18-9 33s-2 48-5 75l-5 47h204c195 0 204-1 210-20 3-11 3-25 0-30-4-6-2-16 3-23 6-7 11-23 11-37s3-43 6-65 7-51 8-65 6-31 11-38c4-7 5-24 2-37s-1-27 5-30c6-4 8-18 4-32-3-14-2-30 4-36 5-7 10-23 10-37s3-43 6-65 7-51 9-65c1-14 6-32 9-40s6-26 6-40 3-43 6-65 7-51 8-65 6-31 11-38c4-7 5-24 2-37s-2-26 4-30c5-3 9-18 10-33 0-51 5-87 14-100 4-7 5-24 2-37s-2-26 3-29 9-21 8-38l-1-33-172 2-172 2-63 66c-35 36-94 96-132 133-37 37-67 72-67 77 0 6-31 39-69 75-37 36-73 74-80 85-9 17-12 18-21 5-5-8-71-111-147-229l-138-213-178-5c-144-4-177-2-179 9-1 13-3 30-13 103-3 22-7 52-8 67-1 14-5 30-10 34-4 4-4 23-1 41 4 21 2 33-5 33-6 0-11-8-11-17 0-27-48-94-108-151-56-54-162-113-210-117-16-1-33-5-39-8-13-8-305-7-318 1-5 4-14 7-20 7-5 0-11 5-12 10-2 6 14 10 35 11 42 1 52 4 141 47 58 27 131 85 131 103 0 4 11 21 23 38 13 17 27 43 30 58 4 15 12 40 19 55 23 57 25 187 4 222-5 7-6 15-3 17 3 3-10 33-29 66s-34 61-34 62c0 6-91 96-97 96-3 0-14 6-22 14-9 8-43 20-76 27-53 11-68 10-118-6-70-22-91-46-105-122-16-93-11-132 30-218 35-76 46-87 113-121 78-39 128-43 180-14 75 42 74 17-2-57-56-55-137-101-190-108-16-2-28-4-28-5 0-6-168-3-172 3-2 4-8 5-13 2-12-7-160 63-160 75 0 6-6 10-13 10-16 0-67 51-67 67 0 6-6 13-13 16-17 6-100 174-93 186 4 5 2 12-3 16-10 6-12 20-12 110s2 104 12 110c5 4 7 11 4 16-6 9 2 30 54 139 34 72 121 158 196 193 33 16 68 33 78 38s36 12 59 14c22 2 42 6 44 8 3 2 59 2 127 1 67-2 132-4 144-4zm128-790c-3-5-11-10-16-10-6 0-7 5-4 10 3 6 11 10 16 10 6 0 7-4 4-10z"/><path d="M1780 2100c0-5 7-10 16-10 8 0 12 5 9 10-3 6-10 10-16 10-5 0-9-4-9-10zm20-80c0-7 3-10 7-7 3 4 3 10 0 14-4 3-7 0-7-7zm-546 24c3-9 6-18 6-20s4-4 9-4 7 9 4 20-10 20-15 20c-6 0-7-7-4-16zm249-31c4-3 10-3 14 0 3 4 0 7-7 7s-10-3-7-7zm203 2c4-8 10-15 15-15s9 7 9 15-7 15-15 15c-9 0-12-6-9-15zm287-2c4-3 10-3 14 0 3 4 0 7-7 7s-10-3-7-7zm327 22c0-14 5-25 10-25 6 0 10 11 10 25s-4 25-10 25c-5 0-10-11-10-25zM767 1823c-23-22 7-93 40-93 19 0 23 5 23 31 0 17-5 39-10 50-10 19-40 26-53 12zm-371-15c-13-41-11-71 9-110 19-37 26-43 57-46 30-3 36 0 41 20 9 36-1 91-22 118-20 28-78 40-85 18zm698-74c3-9 6-18 6-20 0-12 49-2 54 12 9 24 9 24-30 24-29 0-35-3-30-16zm1099 90c-7-19-3-22 36-30 31-7 32-6 20 14-16 26-48 35-56 16zm657-95c14-25 63-23 68 4 3 14-4 17-38 17-38 0-40-1-30-21z"/></g></svg>