<svg xmlns="http://www.w3.org/2000/svg" role="img" viewBox="0.73 13.98 326.30 222.05"><title>OpenMake Meister logo</title><defs><style>.cls-1{fill:#fea000}.cls-2{fill:#565757}</style></defs><path d="M141.576 130.018c-26.843 27.053-57.453 36.606-93.203 26.733-40.47-11.176-55.105-65.419-26.412-96.155 23.344-25.006 58.607-24.217 79.167 1.782.819 1.036 1.955 1.955 1.709 3.525-.761 1.024-1.549.458-2.3.019-11.451-6.707-23.78-5.643-32.755 3.857-8.918 9.44-12.285 21.168-9.511 33.877 3.387 15.52 20.701 20.945 35.182 11.51 17.183-11.196 25.172-30.542 21.14-51.192-3.942-20.195-17.752-33.718-38.542-37.752-1.272-.247-2.765.018-3.557-1.43 6.87-5.758 27.216-5.96 44.846-.614 15.52 4.706 27.263 14.723 35.908 30.535" class="cls-1"/><path d="M46.458 179.583a25.286 25.286 0 0 1-3.421 12.91c-3.596 5.912-9.058 8.78-15.801 9.49a22.392 22.392 0 0 1-10.616-1.15 13.306 13.306 0 0 1-8.975-11.27 23.427 23.427 0 0 1 4.174-17.392c4.416-6.039 10.64-8.431 17.935-8.417a20.647 20.647 0 0 1 9.161 1.841c4.598 2.24 6.802 6.119 7.357 11.062.11.97.127 1.95.186 2.926zm-12.304-.502a13.922 13.922 0 0 0-.207-2.717c-.65-3.262-3.128-4.99-6.266-4.323a7.223 7.223 0 0 0-4.402 3.005 18.769 18.769 0 0 0-3.363 13.796c.454 3.52 3.014 5.446 6.18 4.925a6.986 6.986 0 0 0 4.455-3.08 20.054 20.054 0 0 0 3.603-11.606zm30.22-1.966a15.769 15.769 0 0 1 4.802-3.584 10.208 10.208 0 0 1 14.704 8.767c.326 5.259-.643 10.177-4.089 14.351-3.553 4.305-9.971 6.021-14.792 4.03-1.608-.663-2.233-1.226-4.274-3.878-.452 3.483-1.209 6.824-1.916 10.175-.277 1.314-.566 2.626-.812 3.946a.81.81 0 0 1-.957.786q-4.863-.045-9.727 0c-.695.007-.802-.206-.665-.838 1.713-7.874 3.448-15.743 5.085-23.633.903-4.348 2.045-8.651 2.591-13.07.077-.624.311-.847.972-.838q4.397.057 8.796.002c.663-.007.85.195.735.83-.177.98-.304 1.97-.453 2.954zm8.513 8.23c0-.31.018-.622-.002-.93-.248-3.71-3.54-5.554-6.829-3.832a6.203 6.203 0 0 0-2.086 1.82 9.934 9.934 0 0 0-1.94 6.71c.192 3.307 2.596 5.195 5.642 4.55a5.34 5.34 0 0 0 3.058-1.989 10.382 10.382 0 0 0 2.157-6.33zm42.678 7.434c-.364 2.559-.705 4.936-1.037 7.314-.072.52-.511.53-.861.65a28.936 28.936 0 0 1-11.218 1.345 20.429 20.429 0 0 1-7.522-1.7 10.877 10.877 0 0 1-6.562-9.48c-.563-6.322 1.888-13.08 8.373-16.259 5.356-2.625 10.964-3.188 16.496-.486 3.809 1.86 5.523 5.238 5.892 9.352a24.02 24.02 0 0 1-.6 6.12c-.125.75-.609.642-1.095.642H100.62c-1.57 0-1.877.492-1.17 1.96a3.984 3.984 0 0 0 2.706 2.061c2.885.815 5.764.436 8.637-.08a25.685 25.685 0 0 0 4.772-1.439zm-11.302-8.371c1.202 0 2.404.006 3.606-.004.336-.003.691.072.847-.414a3.45 3.45 0 0 0-2-4.096 5.445 5.445 0 0 0-6.758 3.863c-.114.582.115.662.593.656 1.237-.016 2.475-.005 3.712-.005zm33.848-5.29a14.199 14.199 0 0 1 4.487-3.935c3.238-1.63 6.61-2.132 10-.658 3.32 1.443 4.704 4.328 5.042 7.763.33 3.358-.567 6.586-1.23 9.83-.63 3.076-1.302 6.142-1.962 9.211-.084.392-.075.824-.71.82-3.559-.022-7.118-.01-10.77-.01.814-3.802 1.621-7.508 2.396-11.22a22.469 22.469 0 0 0 .754-5.06c-.058-2.682-1.968-4.061-4.546-3.287a6.07 6.07 0 0 0-4.021 4.35c-.783 2.39-1.125 4.892-1.684 7.339q-.803 3.52-1.5 7.063c-.126.636-.39.837-1.039.831q-4.926-.049-9.852-.002c-.653.005-.823-.12-.672-.81q2.396-10.939 4.723-21.892c.305-1.432.521-2.886.708-4.338.07-.545.27-.693.787-.69 3.005.018 6.01.025 9.014-.003.657-.006.761.259.668.818-.2 1.192-.367 2.389-.593 3.88zm67.045-3.877c-.653 1.354-1.301 2.71-1.961 4.06q-5.381 11.013-10.754 22.03a1.188 1.188 0 0 1-1.266.806q-4.372-.064-8.746 0c-.744.011-.922-.206-.957-.935-.413-8.437-.852-16.873-.962-25.32a.986.986 0 0 0-.14-.54c-.409 2.034-.795 4.072-1.23 6.1q-2.149 9.991-4.324 19.977c-.077.356-.08.709-.62.706-3.372-.016-6.745-.008-10.198-.008l2.792-12.588c1.576-7.104 3.172-14.204 4.703-21.317.193-.897.518-1.138 1.415-1.13 5.201.047 10.403.038 15.604.006.744-.005.944.196.948.938.039 6.825.117 13.649.191 20.473a2.102 2.102 0 0 0 .143 1.156c.822-1.89 1.6-3.695 2.391-5.494 2.436-5.544 5.06-11 7.71-16.443a.934.934 0 0 1 .976-.624q8.15.026 16.3.003c.556-.002.74.09.604.72q-2.586 12.031-5.119 24.073c-.65 3.074-1.312 6.146-1.923 9.229-.144.726-.379 1.036-1.195 1.022-3.18-.054-6.361-.039-9.541-.01-.682.007-.827-.16-.672-.836 1.918-8.381 3.554-16.828 5.798-25.134.076-.283.122-.574.183-.86zm31.788 22.687a12.45 12.45 0 0 1-4.362 3.216 12.74 12.74 0 0 1-9.437.172c-5.493-2.12-6.436-9.428-1.753-13.313a15.264 15.264 0 0 1 7.722-3.09 33.335 33.335 0 0 1 8.919-.161c.635.074.762-.12.767-.686.02-2.062-1.208-3.281-3.61-3.522a21.897 21.897 0 0 0-10.341 1.698c-.19.075-.38.145-.573.213a1.05 1.05 0 0 1-.23-.016q.348-3.36.693-6.716c.043-.424.388-.428.667-.517a36.498 36.498 0 0 1 14.43-1.392 13.612 13.612 0 0 1 4.364 1.116c3.664 1.642 5.318 4.888 4.76 9.086-.554 4.182-1.54 8.28-2.243 12.432a49.663 49.663 0 0 0-.535 4.383c-.047.592-.23.74-.79.735-2.64-.024-5.28-.032-7.92.004-.69.01-.798-.267-.732-.856.093-.834.126-1.676.204-2.786zm-1.518-8.162v.039a12.669 12.669 0 0 0-1.438.008 8.581 8.581 0 0 0-4.477 1.29 2.304 2.304 0 0 0-.998 2.33 2.36 2.36 0 0 0 1.76 1.939 6.15 6.15 0 0 0 7.116-3.303c.897-2.155.839-2.249-1.449-2.303-.171-.004-.343 0-.514 0zm54.16-14.373c-2.532 2.724-4.867 5.239-7.204 7.752-1.216 1.308-2.411 2.636-3.66 3.913a1.21 1.21 0 0 0-.272 1.645c2.06 4.2 4.032 8.444 6.066 12.657.306.636.224.782-.481.777q-5.51-.037-11.022.004c-.588.005-.799-.226-.998-.73-1.693-4.275-3.53-8.493-5.029-13.186-.374 1.755-.697 3.222-.998 4.692a850.606 850.606 0 0 0-1.71 8.513c-.1.524-.304.712-.854.708q-4.752-.038-9.505.002c-.655.006-.821-.177-.683-.809q1.79-8.185 3.548-16.378 1.854-8.638 3.685-17.28c.231-1.087.464-2.173.682-3.262.118-.59.35-.897 1.06-.887q4.6.07 9.201.001c.878-.014.91.32.753 1.018-1.097 4.892-2.168 9.791-3.25 14.688-.413 1.873-.835 3.743-1.246 5.617a1.036 1.036 0 0 0-.026.772c.317-.045.412-.328.578-.525q3.881-4.594 7.758-9.192c.215-.254.403-.517.809-.516 4.17.01 8.341.006 12.798.006z" class="cls-2"/><path id="ymXysr.tif" d="M317.012 193.184c-.256 1.862-.493 3.597-.734 5.332-.302 2.182-.3 2.195-2.47 2.718a28.91 28.91 0 0 1-14.001.115c-5.664-1.42-8.926-5.517-8.874-11.35.063-6.854 2.877-12.117 9.402-14.82a17.477 17.477 0 0 1 13.31-.397c4.26 1.646 6.37 4.973 6.783 9.442a22.486 22.486 0 0 1-.504 5.66c-.115.716-.44.898-1.15.894-5.465-.033-10.93-.019-16.396-.017-1.17 0-1.217.082-.974 1.213a3.457 3.457 0 0 0 2.71 2.608c2.75.822 5.512.453 8.265-.03a27.64 27.64 0 0 0 4.633-1.368zm-10.797-8.045c1.185 0 2.37-.002 3.554.002.357.001.625-.026.74-.482a3.288 3.288 0 0 0-2.118-3.887 5.208 5.208 0 0 0-6.263 3.623c-.156.628.058.767.634.753 1.15-.028 2.302-.008 3.453-.009z" class="cls-2"/><path fill="#565757" stroke="#565757" stroke-miterlimit="10" stroke-width=".086" d="M107.814 224.712l-1.678-13.1h-.081q-.07.727-.288 1.996-.218 1.269-.38 2.017l-1.92 9.087h-1.637l3.123-14.778h2.467l1.506 12.17h.09l6.662-12.17h2.689l-3.063 14.778h-1.759q1.274-5.964 1.951-9.153.677-3.19.95-3.968h-.06l-7.248 13.12zm16.951-11.281a2.856 2.856 0 0 1 1.658.5 3.252 3.252 0 0 1 1.132 1.44h.111l.678-1.738h1.283l-2.355 11.079h-1.344l.263-2.113h-.081q-1.81 2.315-3.811 2.315a2.664 2.664 0 0 1-2.204-1 4.276 4.276 0 0 1-.798-2.74 10.434 10.434 0 0 1 .717-3.902 6.74 6.74 0 0 1 1.982-2.82 4.31 4.31 0 0 1 2.77-1.02zm-1.92 10.078a2.846 2.846 0 0 0 1.95-.935 6.928 6.928 0 0 0 1.577-2.436 7.973 7.973 0 0 0 .607-3.007 2.357 2.357 0 0 0-.566-1.658 1.923 1.923 0 0 0-1.486-.617 2.783 2.783 0 0 0-1.956.87 5.864 5.864 0 0 0-1.42 2.355 9.493 9.493 0 0 0-.516 3.134 2.649 2.649 0 0 0 .475 1.723 1.639 1.639 0 0 0 1.335.571zm14.585-1.941a2.964 2.964 0 0 1-1.116 2.462 4.96 4.96 0 0 1-3.149.884 6.716 6.716 0 0 1-3.083-.697v-1.598a6.29 6.29 0 0 0 1.526.658 5.576 5.576 0 0 0 1.517.232 3.081 3.081 0 0 0 1.92-.505 1.572 1.572 0 0 0 .647-1.294 1.4 1.4 0 0 0-.354-.97 7.138 7.138 0 0 0-1.526-1.082 6.146 6.146 0 0 1-1.86-1.446 2.667 2.667 0 0 1-.546-1.678 2.789 2.789 0 0 1 1.021-2.249 4.052 4.052 0 0 1 2.69-.854 7.82 7.82 0 0 1 3.335.748l-.546 1.385-.566-.253a5.622 5.622 0 0 0-2.224-.434 2.26 2.26 0 0 0-1.476.44 1.482 1.482 0 0 0-.177 2.107 6.331 6.331 0 0 0 1.481 1.041 8.613 8.613 0 0 1 1.552 1.041 3.007 3.007 0 0 1 .702.935 2.644 2.644 0 0 1 .233 1.127zm5.429 1.962a5.468 5.468 0 0 0 1.456-.264v1.304a4.661 4.661 0 0 1-.85.243 4.36 4.36 0 0 1-.808.101 2.81 2.81 0 0 1-1.936-.601 2.283 2.283 0 0 1-.672-1.795 7.321 7.321 0 0 1 .182-1.516l1.284-6.085h-1.739l.142-.738 1.87-.788 1.263-2.305h.99l-.555 2.547h2.77l-.264 1.284h-2.76l-1.303 6.105a7.194 7.194 0 0 0-.182 1.335 1.2 1.2 0 0 0 .293.869 1.086 1.086 0 0 0 .819.303zm7.692 1.384a3.865 3.865 0 0 1-2.921-1.102 4.217 4.217 0 0 1-1.061-3.052 9.096 9.096 0 0 1 .753-3.644 6.744 6.744 0 0 1 1.996-2.714 4.35 4.35 0 0 1 2.74-.97 3.475 3.475 0 0 1 2.324.671 2.345 2.345 0 0 1 .779 1.875 3.204 3.204 0 0 1-1.678 2.856 9.188 9.188 0 0 1-4.802 1.036h-.333l-.04.809a3.128 3.128 0 0 0 .62 2.067 2.37 2.37 0 0 0 1.926.743 5.005 5.005 0 0 0 1.31-.182 10.025 10.025 0 0 0 1.672-.667v1.476a9.156 9.156 0 0 1-1.678.621 6.812 6.812 0 0 1-1.607.177zm1.405-10.037a2.7 2.7 0 0 0-1.956.95 6.206 6.206 0 0 0-1.4 2.638h.122a8.251 8.251 0 0 0 3.532-.601 1.888 1.888 0 0 0 1.229-1.744 1.181 1.181 0 0 0-.37-.89 1.624 1.624 0 0 0-1.157-.353zm11.433-1.446a4.617 4.617 0 0 1 1.213.142l-.364 1.516a4.449 4.449 0 0 0-1.062-.132 2.807 2.807 0 0 0-1.723.607 5.307 5.307 0 0 0-1.405 1.683 8.563 8.563 0 0 0-.885 2.39l-1.081 5.075h-1.698l2.365-11.079h1.405l-.222 2.052h.1a9.939 9.939 0 0 1 1.204-1.38 3.816 3.816 0 0 1 .995-.646 2.86 2.86 0 0 1 1.158-.228zm14.191 6.581h-5.013l-2.477 4.7h-1.91l8.076-14.778h1.76l1.86 14.778h-1.72zm-.181-1.577l-.354-3.023a34.106 34.106 0 0 1-.293-3.538q-.374.89-.814 1.77-.44.879-2.522 4.79zm14.576-4.802l-.253 1.082-2.133.242a2.841 2.841 0 0 1 .414 1.598 4.1 4.1 0 0 1-1.177 3.078 4.319 4.319 0 0 1-3.149 1.147 3.382 3.382 0 0 1-.849-.081q-1.405.536-1.405 1.324a.536.536 0 0 0 .334.551 4.028 4.028 0 0 0 .97.217l1.183.142a5.268 5.268 0 0 1 2.653.89 2.375 2.375 0 0 1 .824 1.96 3.3 3.3 0 0 1-1.476 2.881 7.239 7.239 0 0 1-4.154 1.021 5.481 5.481 0 0 1-3.073-.743 2.38 2.38 0 0 1-1.112-2.097 2.604 2.604 0 0 1 .728-1.84 5.668 5.668 0 0 1 2.355-1.324 1.316 1.316 0 0 1-.789-1.223 1.61 1.61 0 0 1 .516-1.198 5.314 5.314 0 0 1 1.435-.935 2.658 2.658 0 0 1-1.445-2.426 4.441 4.441 0 0 1 1.208-3.214 4.102 4.102 0 0 1 3.088-1.254 6.097 6.097 0 0 1 1.556.202zm-10.766 13.05a1.425 1.425 0 0 0 .657 1.233 3.433 3.433 0 0 0 1.951.455 5.455 5.455 0 0 0 2.876-.642 2.023 2.023 0 0 0 1.036-1.814 1.133 1.133 0 0 0-.546-.99 4.381 4.381 0 0 0-1.86-.506l-1.607-.162a3.647 3.647 0 0 0-1.86.89 2.077 2.077 0 0 0-.647 1.536zm2.81-8.845a1.761 1.761 0 0 0 .455 1.31 1.719 1.719 0 0 0 1.264.45 2.343 2.343 0 0 0 1.395-.425 2.7 2.7 0 0 0 .915-1.168 4.048 4.048 0 0 0 .318-1.612 1.688 1.688 0 0 0-.445-1.264 1.748 1.748 0 0 0-1.273-.434 2.363 2.363 0 0 0-1.38.41 2.686 2.686 0 0 0-.92 1.141 3.848 3.848 0 0 0-.329 1.592zm9.502 6.874h-1.698l2.365-11.079h1.698zm1.142-13.909a1.328 1.328 0 0 1 .324-.925 1.077 1.077 0 0 1 .839-.359.795.795 0 0 1 .89.91 1.372 1.372 0 0 1-.34.94 1.02 1.02 0 0 1-.783.384.934.934 0 0 1-.667-.247.918.918 0 0 1-.263-.703zm4.094 13.909h-1.698l3.356-15.729h1.698zm7.955.202a3.865 3.865 0 0 1-2.92-1.102 4.217 4.217 0 0 1-1.062-3.052 9.096 9.096 0 0 1 .753-3.644 6.744 6.744 0 0 1 1.996-2.714 4.35 4.35 0 0 1 2.74-.97 3.475 3.475 0 0 1 2.324.671 2.345 2.345 0 0 1 .779 1.875 3.204 3.204 0 0 1-1.678 2.856 9.188 9.188 0 0 1-4.802 1.036h-.333l-.04.809a3.128 3.128 0 0 0 .621 2.067 2.37 2.37 0 0 0 1.926.743 5.005 5.005 0 0 0 1.309-.182 10.025 10.025 0 0 0 1.672-.667v1.476a9.156 9.156 0 0 1-1.677.621 6.812 6.812 0 0 1-1.608.177zm1.405-10.037a2.7 2.7 0 0 0-1.956.95 6.206 6.206 0 0 0-1.4 2.638h.122a8.251 8.251 0 0 0 3.532-.601 1.888 1.888 0 0 0 1.229-1.744 1.181 1.181 0 0 0-.37-.89 1.624 1.624 0 0 0-1.157-.353zm9.047-4.943l.081.222q-.404.92-1.122 2.209-.718 1.289-1.607 2.633h-1.304q1.354-3.012 2.052-5.064zm5.732 11.634a2.964 2.964 0 0 1-1.117 2.462 4.96 4.96 0 0 1-3.15.884 6.716 6.716 0 0 1-3.082-.697v-1.598a6.29 6.29 0 0 0 1.526.658 5.576 5.576 0 0 0 1.516.232 3.081 3.081 0 0 0 1.921-.505 1.572 1.572 0 0 0 .647-1.294 1.4 1.4 0 0 0-.354-.97 7.138 7.138 0 0 0-1.526-1.082 6.146 6.146 0 0 1-1.86-1.446 2.667 2.667 0 0 1-.546-1.678 2.789 2.789 0 0 1 1.021-2.249 4.052 4.052 0 0 1 2.689-.854 7.82 7.82 0 0 1 3.335.748l-.545 1.385-.566-.253a5.622 5.622 0 0 0-2.224-.434 2.26 2.26 0 0 0-1.476.44 1.482 1.482 0 0 0-.177 2.107 6.331 6.331 0 0 0 1.48 1.041 8.613 8.613 0 0 1 1.553 1.041 3.007 3.007 0 0 1 .702.935 2.644 2.644 0 0 1 .233 1.127zm7.682 3.144l3.123-14.778h1.719l-2.79 13.221h5.71l-.333 1.557zm15.405-11.281a2.856 2.856 0 0 1 1.657.5 3.25 3.25 0 0 1 1.133 1.44h.11l.678-1.738h1.284l-2.356 11.079h-1.344l.263-2.113h-.08q-1.81 2.315-3.812 2.315a2.664 2.664 0 0 1-2.203-1 4.276 4.276 0 0 1-.799-2.74 10.434 10.434 0 0 1 .718-3.902 6.74 6.74 0 0 1 1.981-2.82 4.31 4.31 0 0 1 2.77-1.02zm-1.92 10.078a2.846 2.846 0 0 0 1.95-.935 6.928 6.928 0 0 0 1.577-2.436 7.972 7.972 0 0 0 .606-3.007 2.357 2.357 0 0 0-.566-1.658 1.923 1.923 0 0 0-1.486-.617 2.783 2.783 0 0 0-1.955.87 5.864 5.864 0 0 0-1.42 2.355 9.493 9.493 0 0 0-.516 3.134 2.649 2.649 0 0 0 .475 1.723 1.639 1.639 0 0 0 1.334.571zm14.585-1.941a2.964 2.964 0 0 1-1.117 2.462 4.96 4.96 0 0 1-3.148.884 6.716 6.716 0 0 1-3.083-.697v-1.598a6.29 6.29 0 0 0 1.526.658 5.577 5.577 0 0 0 1.516.232 3.08 3.08 0 0 0 1.92-.505 1.572 1.572 0 0 0 .648-1.294 1.4 1.4 0 0 0-.354-.97 7.141 7.141 0 0 0-1.526-1.082 6.145 6.145 0 0 1-1.86-1.446 2.666 2.666 0 0 1-.546-1.678 2.789 2.789 0 0 1 1.02-2.249 4.053 4.053 0 0 1 2.69-.854 7.82 7.82 0 0 1 3.335.748l-.546 1.385-.566-.253a5.622 5.622 0 0 0-2.224-.434 2.26 2.26 0 0 0-1.475.44 1.482 1.482 0 0 0-.177 2.107 6.33 6.33 0 0 0 1.48 1.041 8.617 8.617 0 0 1 1.552 1.041 3.007 3.007 0 0 1 .703.935 2.645 2.645 0 0 1 .232 1.127zm5.428 1.962a5.468 5.468 0 0 0 1.456-.264v1.304a4.661 4.661 0 0 1-.85.243 4.359 4.359 0 0 1-.808.101 2.81 2.81 0 0 1-1.936-.601 2.283 2.283 0 0 1-.672-1.795 7.322 7.322 0 0 1 .182-1.516l1.284-6.085h-1.739l.142-.738 1.87-.788 1.263-2.305h.99l-.555 2.547h2.77l-.263 1.284h-2.76l-1.304 6.105a7.19 7.19 0 0 0-.182 1.335 1.2 1.2 0 0 0 .294.869 1.086 1.086 0 0 0 .818.303zm14.93 1.182l-1.678-13.1h-.08q-.072.727-.289 1.996-.217 1.269-.379 2.017l-1.92 9.087h-1.638l3.124-14.778h2.466l1.506 12.17h.091l6.661-12.17h2.69l-3.064 14.778h-1.759q1.274-5.964 1.951-9.153.678-3.19.95-3.968h-.06l-7.248 13.12zm12.787 0h-1.698l2.365-11.079h1.698zm1.142-13.909a1.328 1.328 0 0 1 .324-.925 1.077 1.077 0 0 1 .839-.359.795.795 0 0 1 .89.91 1.371 1.371 0 0 1-.34.94 1.02 1.02 0 0 1-.783.384.934.934 0 0 1-.667-.247.918.918 0 0 1-.263-.703zm4.094 13.909h-1.698l3.356-15.729h1.698zm7.955.202a3.865 3.865 0 0 1-2.921-1.102 4.218 4.218 0 0 1-1.061-3.052 9.096 9.096 0 0 1 .753-3.644 6.745 6.745 0 0 1 1.996-2.714 4.35 4.35 0 0 1 2.74-.97 3.475 3.475 0 0 1 2.324.671 2.345 2.345 0 0 1 .778 1.875 3.204 3.204 0 0 1-1.677 2.856 9.187 9.187 0 0 1-4.802 1.036h-.333l-.04.809a3.128 3.128 0 0 0 .62 2.067 2.37 2.37 0 0 0 1.926.743 5.005 5.005 0 0 0 1.31-.182 10.023 10.023 0 0 0 1.672-.667v1.476a9.156 9.156 0 0 1-1.678.621 6.812 6.812 0 0 1-1.607.177zm1.405-10.037a2.7 2.7 0 0 0-1.956.95 6.205 6.205 0 0 0-1.4 2.638h.122a8.251 8.251 0 0 0 3.532-.601 1.888 1.888 0 0 0 1.229-1.744 1.181 1.181 0 0 0-.37-.89 1.625 1.625 0 0 0-1.157-.353z"/><path d="M308.077 210.897h-.778v-4.09h-1.4v-.667h3.577v.667h-1.4zm4.184 0l-1.38-3.973h-.026q.056.885.056 1.66v2.313h-.706v-4.757h1.096l1.321 3.784h.02l1.36-3.784h1.1v4.757h-.749v-2.353q0-.355.018-.924.018-.57.031-.69h-.026l-1.428 3.967z" class="cls-2"/><path d="M262.375 92.597l-9.059 64.814h49.842l17.84-133.662h-41.143l-47.64 50.239-32.504-50.239h-41.876l-20.886 133.662h48.949l11.247-64.329 26.547 38.761 38.683-39.246z" class="cls-1"/></svg>