<svg xmlns="http://www.w3.org/2000/svg" role="img" viewBox="518.06 794.06 984.88 409.88"><title>OpsMX (member) logo</title><path fill="#FAC213" fill-rule="evenodd" d="M537.151 958.155v35.271c13.349-15.634 17.86-70.863 90.759-107.001 48.322-23.952 33.231-8.162 41.388 3.618 9.136-11.456 27.097-27.745 34.686-40.803-8.03-17.447-27.167-23.551-30.393-35.552-.974.605-1.801 1.936-2.313 2.545-18.841 22.337-1.175 8.665-41.189 26.765-77.827 35.202-82.412 97.664-92.938 115.157z" clip-rule="evenodd"/><path fill="#5B94CE" fill-rule="evenodd" d="M876.104 988.069l-4.583-2.276c8.745 44.402-24.413 80.275-44.66 99.461-13.199 12.507-23.533 19.938-41.696 28.554-3.312 1.573-23.46 9.886-26.775 10.002-16.783.615-2.924 1.987-8.269-3.548l-6.337-10.984c-11.578 18.572-23.557 24.825-34.818 41.829 11.062 17.099 25.066 24.929 39.078 35.206 8.524-22.504-9.188-11.105 16.467-22.638 11.125-5.001 18.254-5.918 29.611-12.1 94.158-51.249 76.232-127.558 81.982-163.506z" clip-rule="evenodd"/><path fill="#CA992C" fill-rule="evenodd" d="M537.151 1041.757l4.516 9.554c33.462 83.357 61.902 107.854 166.137 122.834l-1.578-42.564c-64.183-4.587-115.501-29.471-145.571-78.424-9.022-14.693-13.672-35.862-23.503-46.032v34.632h-.001z" clip-rule="evenodd"/><path fill="#4374AB" fill-rule="evenodd" d="M871.521 985.792l4.583 2.276c-1.122-93.391-70.07-162.196-165.277-161.236-4.155 10.16-3.14 2.479-4.06 18.924-.443 7.982.723 14.334 2.188 21.983 87.579 7.313 140.521 45.269 162.566 118.053z" clip-rule="evenodd"/><path fill="#051A32" d="M904.362 1176.004v-179.79h20.072v16.889c4.73-6.608 10.076-11.564 16.033-14.87 5.954-3.305 13.176-4.957 21.662-4.957 11.096 0 20.887 2.857 29.374 8.566 8.484 5.713 14.889 13.77 19.214 24.172 4.324 10.403 6.487 21.807 6.487 34.208 0 13.301-2.387 25.273-7.16 35.921s-11.709 18.809-20.806 24.479c-9.099 5.67-18.664 8.506-28.7 8.506-7.344 0-13.934-1.551-19.766-4.651-5.835-3.1-10.629-7.016-14.381-11.749v63.275h-22.029zm19.95-114.066c0 16.727 3.386 29.088 10.159 37.084 6.771 7.997 14.971 11.994 24.6 11.994 9.791 0 18.175-4.141 25.151-12.423 6.976-8.28 10.464-21.112 10.464-38.491 0-16.563-3.408-28.965-10.22-37.207-6.813-8.24-14.952-12.36-24.416-12.36-9.384 0-17.686 4.387-24.906 13.157-7.221 8.771-10.832 21.52-10.832 38.246zm110.64 25.457l21.785-3.428c1.224 8.732 4.629 15.422 10.219 20.072 5.588 4.65 13.402 6.977 23.438 6.977 10.116 0 17.624-2.06 22.52-6.181 4.896-4.119 7.344-8.954 7.344-14.504 0-4.976-2.163-8.892-6.486-11.749-3.02-1.958-10.525-4.446-22.52-7.466-16.155-4.079-27.354-7.607-33.596-10.587-6.242-2.977-10.976-7.098-14.197-12.36-3.225-5.263-4.835-11.077-4.835-17.44 0-5.793 1.325-11.156 3.978-16.095 2.651-4.936 6.262-9.036 10.832-12.3 3.427-2.528 8.097-4.67 14.014-6.425 5.914-1.754 12.258-2.631 19.031-2.631 10.198 0 19.153 1.468 26.864 4.406s13.401 6.915 17.073 11.933c3.672 5.018 6.2 11.729 7.588 20.133l-21.54 2.938c-.979-6.689-3.815-11.912-8.506-15.666-4.693-3.752-11.321-5.63-19.889-5.63-10.118 0-17.339 1.674-21.663 5.018-4.325 3.348-6.486 7.264-6.486 11.75 0 2.857.896 5.427 2.692 7.711 1.794 2.367 4.609 4.325 8.445 5.874 2.203.816 8.689 2.692 19.46 5.63 15.583 4.161 26.455 7.569 32.616 10.22 6.159 2.652 10.994 6.507 14.503 11.565 3.508 5.06 5.263 11.342 5.263 18.848 0 7.344-2.142 14.259-6.425 20.745-4.284 6.486-10.465 11.505-18.542 15.054-8.078 3.55-17.217 5.324-27.415 5.324-16.89 0-29.762-3.508-38.614-10.525-8.854-7.019-14.504-17.422-16.951-31.211zm136.219 38.796V946.77h35.737l42.469 127.039c3.916 11.832 6.771 20.685 8.567 26.559 2.038-6.526 5.221-16.113 9.546-28.761l42.959-124.837h31.943v179.422h-22.887V976.021l-52.138 150.171h-21.418l-51.893-152.741v152.741h-22.885zm192.027 0l47.486-67.559-43.938-62.418h27.538l19.949 30.475c3.752 5.794 6.771 10.647 9.057 14.564 3.59-5.385 6.894-10.158 9.913-14.32l21.908-30.719h26.313l-44.917 61.195 48.344 68.782h-27.048l-26.681-40.389-7.099-10.893-34.146 51.281h-26.679z"/></svg>