<svg xmlns="http://www.w3.org/2000/svg" role="img" viewBox="-22.94 -23.94 1244.88 200.88"><title>Prisma Cloud by Palo Alto Networks logo</title><path fill="#141414" d="M467.41 59.1498c-16.68-2.46-20.31-4.32-20.31-8.05 0-3.73 4.72-6.86 15.8-6.86 8.831.154 17.552 1.9831 25.7 5.39 2.07.79 3.93 1.67 5.8 2.55v-16.32l-.4-.16c-8.73-3.73-18-5.69-30.13-5.69-21.67 0-36 9.71-36 22.07 0 13.74 11.58 18.65 34.44 21.88 16.09 2.26 20 4 20 8.05 0 4.52-5.89 7.45-18.94 7.45-8.44 0-18.42-2.32-27-5.78a79.17664 79.17664 0 0 1-7.23-3.39v16.34c.68.29 1.36.59 1.84.78 10.573 4.2352 21.871 6.3682 33.26 6.2802 21.1 0 37.38-8.5302 37.38-22.5702.03-13.73-10.86-18.64-34.21-21.97zm-265.7-27.75c19.7 0 30.77 9.37 30.77 24.06 0 15.54-12.24 24.59-31.73 24.59h-21.4V102.31h-18.53V31.3998h40.89zm-22.36 34.39h18.74c12 0 16-3.84 16-10 0-6-4.36-10-15.12-10h-19.59l-.03 20zM282.1 102.31h-18.53V31.3998H310c19.49 0 29.82 8.62 29.82 23.21 0 11.5-7.56 19.06-18.64 22l22.15 25.6602h-21.19l-20.56-24.2702H282.1V102.31zm0-38.0002h23.42c10.33 0 15.55-3.09 15.55-9.37 0-6-4.26-9.27-14.7-9.27H282.1v18.64zm112.33-32.9V102.32h-18.64V31.3998l18.64.01zm163.55 0l24.81 48.23h.32l24.59-48.24h27V102.31h-18.31V49.3898h-.22L588.81 102.39H575.6l-27.36-53.0002h-.21V102.31h-17.14V31.3998l27.09.01zM729 89.6398h-40.68l-6.28 12.6702H662.8l36.09-71.3102h20.23l36.21 71.3402h-20L729 89.6398zm-34.29-13h27.9l-13.81-28.21h-.22l-13.87 28.21z"/><path fill="#231F20" d="M756.36 37.2797v-.28c0-1.51-1.15-2.57-3.19-2.57h-3.55v8.17h1.69v-2.75h1.87l1.41 2.75h1.86l-1.73-3.23c.47-.111.888-.3783 1.186-.758.298-.3797.458-.8494.454-1.332zm-5.05-1.28h1.86c1.06 0 1.51.36 1.51 1.16v.08c0 .71-.45 1.16-1.51 1.16h-1.86v-2.4z"/><path fill="#231F20" d="M752.81 30.0994c-1.664.002-3.291.4975-4.675 1.4239a8.42406 8.42406 0 0 0-3.097 3.7809c-.635 1.5387-.801 3.2314-.475 4.864.326 1.6327 1.129 3.132 2.307 4.3086a8.41931 8.41931 0 0 0 4.311 2.3016c1.633.3241 3.326.1567 4.864-.4809 1.538-.6375 2.852-1.7168 3.777-3.1012.925-1.3844 1.418-3.012 1.418-4.6769a8.2571 8.2571 0 0 0-.597-3.2501c-.416-1.0321-1.036-1.9694-1.824-2.7558a8.25175 8.25175 0 0 0-2.758-1.8204c-1.032-.4149-2.138-.6168-3.251-.5937zm0 15.69c-1.441.0179-2.855-.3933-4.063-1.1812-1.207-.7879-2.153-1.917-2.717-3.2437a7.27311 7.27311 0 0 1-.451-4.2074c.271-1.4161.956-2.7199 1.969-3.7456a7.26868 7.26868 0 0 1 3.721-2.0151c1.412-.2879 2.879-.1492 4.212.3983a7.27048 7.27048 0 0 1 3.278 2.6765c.803 1.1975 1.231 2.6066 1.231 4.0482.038.9571-.122 1.9116-.468 2.8046-.347.8929-.873 1.7052-1.546 2.3867a7.0025 7.0025 0 0 1-2.367 1.5751c-.889.3576-1.841.529-2.799.5036"/><path fill="#00C0E8" d="M77.5996 102.31V31.2695L114.72 102.31H77.5996zm0-71.04l-37.11 71.04h37.11v51.14L.88965 76.73 40.1196 37.48l6.23-6.21L77.5996 0v31.27z"/><path fill="#807C7B" d="M161.24 132.121h12.1c4 0 6.43 1.65 6.43 4.84.085 1.002-.197 2.002-.793 2.813-.595.81-1.465 1.378-2.447 1.597 2.47 1 3.65 2.28 3.65 4.56 0 4-3 5.41-7.28 5.41h-11.66v-19.22zm10.56 7.69c1.6 0 2.26-.49 2.26-1.73s-.72-1.65-2.26-1.65h-4.88v3.38h4.88zm.28 7.16c1.7 0 2.36-.54 2.36-1.81s-.66-1.78-2.36-1.78h-5.16v3.62l5.16-.03zm19.67-1.78l-8.43-13.07h6.48l4.75 7.66h.27l4.8-7.66h6.32l-8.4 13v6.18h-5.79v-6.11zm29.25-13.07h11.34c4.72 0 7.22 2.72 7.22 7.17 0 5-3.21 7.33-7.66 7.33h-5.13v4.72H221v-19.22zm10.32 10c.353.029.707-.02 1.038-.145.331-.125.629-.322.875-.577.245-.254.43-.561.542-.896.112-.335.148-.691.105-1.042.052-.358.021-.722-.091-1.066-.112-.343-.301-.656-.554-.914-.252-.258-.561-.455-.902-.575-.341-.119-.704-.159-1.063-.115h-4.5v5.33h4.55zm17.58-10h9.28l6.67 19.22h-6l-1.34-4h-7.93l-1.38 4h-5.93l6.63-19.22zm2 10.93h5.16l-2.06-6h-1l-2.1 6zm19-10.93h5.76v14.25h10.19l-.22 5H269.9v-19.25zm19.72 9.61c0-6.26 4.25-10.18 11-10.18s11 3.92 11 10.18-4.26 10.19-11 10.19-11.02-3.92-11.02-10.19h.02zm16.22 0c0-3.32-1.92-5.3-5.24-5.3-3.32 0-5.25 2-5.25 5.3s1.93 5.3 5.22 5.3 5.25-1.98 5.25-5.3h.02zm26.91-9.61H342l6.67 19.22h-6l-1.34-4h-7.94l-1.37 4h-5.93l6.66-19.22zm2 10.93h5.16l-2.05-6h-1l-2.11 6zm19-10.93h5.77v14.25h10.18l-.22 5h-15.73v-19.25zm24 4.94H371l.22-4.94h18.81l.22 4.94h-6.73v14.28h-5.79l.02-14.28zm16.29 4.67c0-6.26 4.25-10.18 11-10.18s11 3.92 11 10.18-4.26 10.19-11 10.19-11.04-3.92-11.04-10.19h.04zm16.22 0c0-3.32-1.92-5.3-5.24-5.3-3.32 0-5.24 2-5.24 5.3s1.92 5.3 5.21 5.3 5.27-1.98 5.27-5.3zm22-9.61h6l8.26 10.9h.09v-10.9h5.49v19.22h-5.8l-8.45-11.17h-.08v11.17h-5.49l-.02-19.22zm26.66 0h16.8l.22 4.67h-11.28v2.64h8.87v4.25h-8.87v3h11.61l-.22 4.67H459l-.08-19.23zm28.59 4.94h-6.72l.21-4.94h18.81l.22 4.94h-6.73v14.28h-5.79v-14.28zm16.7-4.94h6.15l3.13 13.35h.3l4.07-13.35h5.62l4 13.35h.3l3.07-13.35h5.88l-5 19.22h-7.55l-3.52-11.58h-.16l-3.57 11.58h-7.58l-5.14-19.22zm36.28 9.61c0-6.26 4.25-10.18 11-10.18s11 3.92 11 10.18-4.26 10.19-11 10.19-10.97-3.92-10.97-10.19h-.03zm16.22 0c0-3.32-1.92-5.3-5.24-5.3-3.32 0-5.25 2-5.25 5.3s1.93 5.3 5.22 5.3 5.3-1.98 5.3-5.3h-.03zm11.51-9.61h11.2c5.11 0 7.61 2.42 7.61 6.89 0 3.08-1.26 5.16-3.73 6.15l4.55 6.18h-6.53l-3.54-5.05H574v5.05h-5.77l-.01-19.22zm10.46 9.67c.348.053.704.026 1.039-.081.336-.107.642-.291.895-.536.253-.245.445-.545.563-.877.117-.332.156-.687.113-1.036 0-1.45-.68-2.5-2.61-2.5H574v5l4.68.03zm14.29-9.67h5.76v7.09h2.37l5.62-7.09h6.48l-7.36 9.2 7.77 10h-6.72l-5.79-7.32h-2.34v7.38H593l-.03-19.26zm24.58 18v-5.27c2.794 1.491 5.895 2.316 9.06 2.41 2 0 3.1-.49 3.1-1.45s-.69-1.21-4.81-1.87c-4.5-.71-7.49-2.06-7.49-5.93 0-3.6 3.16-6.37 9.33-6.37 2.558.011 5.088.534 7.44 1.54v5.22a16.83532 16.83532 0 0 0-7.83-2.14c-2.19 0-3.07.52-3.07 1.4 0 1.13 1.34 1.24 4.72 1.81 4.5.77 7.49 2 7.49 6.1 0 3.15-2.36 6.31-9.14 6.31-3.013-.022-5.992-.634-8.77-1.8l-.03.04zm179.18-83.1208c0-19.84 13.6-37.84 40.4-37.84 11.76 0 21.17 4.4 26.38 8.49v16h-.1c-7.67-5.11-15.239-10.12-26.589-10.12-15.34 0-23.931 10-23.931 23.41 0 12.79 8 22.81 23.83 22.81 11.14 0 19.22-4.09 26.69-9.72h.1v16c-5 3.78-14.929 8.0798-27.919 8.0798-27.51-.11-38.861-17.6898-38.861-37.1098zm85.391-36.21h15.75v57.07h40.799l-.51 14.5198h-56l-.039-71.5898zm63.599 35.7999c0-22.71 15.241-37.4299 39.381-37.4299 24.139 0 39.369 14.7199 39.369 37.4299S1009.23 104 985.101 104c-24.13 0-39.381-14.7198-39.381-37.4198v.0099zm62.59 0c0-14.42-8.28-23.2199-23.11-23.2199s-23.32 8.7999-23.32 23.2199 8.29 23.2101 23.11 23.2101 23.32-8.8 23.32-23.22v.0099zm32.42 8.18v-44h15.74v43.2301c0 11.66 8.9 15.4499 18.51 15.4499 9.61 0 18.51-3.5799 18.51-14.9399v-43.73h15.75v43.47c0 21.88-15.23 29.7598-34.46 29.7598s-34.05-8.0098-34.05-29.2498v.0099zm86.82-44h35.07c22.5 0 36 13.3001 36 35.7001s-13.5 35.8898-36 35.8898h-35.07V30.7701zm35 57.38c12.68 0 19.94-6.6499 19.94-21.4799 0-14.83-7.29-21.67-19.97-21.67h-19.23v43.16l19.26-.0101z"/></svg>