<svg xmlns="http://www.w3.org/2000/svg" role="img" viewBox="-44.00 11.00 2288.00 460.50"><title>Prodvana (member) logo</title><path fill="#295A38" fill-rule="evenodd" d="M413.236 117.698h-.009c-3.219-62.495-96.318-84.3934-126.022-28.8804-78.081-29.581-104.463 96.2064-20.899 100.3494h31.354c-14.516 58.797-62.802 93.392-114.785 113.723-2.416.979-4.417 2.767-5.66 5.059-1.243 2.291-1.651 4.943-1.155 7.502.497 2.559 1.868 4.866 3.878 6.526 2.01 1.66 4.534 2.57 7.141 2.574l144.858.121c1.906-.005 3.779-.494 5.444-1.42 1.666-.927 3.069-2.26 4.079-3.876 1.01-1.615 1.594-3.461 1.698-5.364.103-1.903-.277-3.8-1.107-5.516l-8.865-18.279c-4.027-8.269-4.925-17.716-2.528-26.595 4.051-15.021 12.895-47.692 20.157-74.455h62.421c46.671-.213 46.763-71.256 0-71.469zm0 .183l-.008-.155c.192.025.359.07.008.155zM31.2565 168.247H29.063v-.091c-3.8166 0-7.5958.752-11.1219 2.212a29.08217 29.08217 0 0 0-9.42877 6.3 29.0677 29.0677 0 0 0-6.30006 9.429A29.06145 29.06145 0 0 0 0 197.219c0 3.817.75171 7.596 2.21227 11.122a29.0677 29.0677 0 0 0 6.30006 9.429 29.08217 29.08217 0 0 0 9.42877 6.3c3.5261 1.46 7.3053 2.212 11.1219 2.212h111.72l22.154 22.154c7.138 7.138 18.711 7.138 25.85 0 7.138-7.139 7.138-18.712 0-25.85l-9.148-9.148c.862-.883 1.688-1.805 2.474-2.764 4.037-4.924 6.92-10.69 8.438-16.874 1.518-6.184 1.632-12.63.334-18.864-1.299-6.234-3.976-12.098-7.837-17.161-3.861-5.064-8.807-9.199-14.474-12.102-5.668-2.903-11.913-4.5-18.279-4.674-6.365-.174-12.688 1.08-18.506 3.669-5.839-9.958-14.714-17.785-25.324-22.334-10.6098-4.548-22.3975-5.58-33.6364-2.944-11.2389 2.636-21.3384 8.801-28.8193 17.593-7.4809 8.792-11.95 19.748-12.7528 31.264zM93.7324 350.49H371.327s10.152 45.669-45.784 58.621v18.887H139.52v-18.883c-55.9423-12.947-45.7876-58.625-45.7876-58.625z" clip-rule="evenodd"/><path fill="#295A38" d="M545.627 388V96.2655h115.099c22.127 0 40.978 4.2255 56.552 12.6775 15.574 8.357 27.445 19.991 35.612 34.9 8.262 14.815 12.393 31.909 12.393 51.282 0 19.373-4.178 36.467-12.535 51.281-8.357 14.815-20.465 26.353-36.325 34.615-15.764 8.262-34.852 12.393-57.264 12.393h-73.361v-49.429h63.39c11.87 0 21.652-2.042 29.344-6.126 7.787-4.178 13.58-9.924 17.379-17.236 3.893-7.407 5.84-15.907 5.84-25.498 0-9.687-1.947-18.139-5.84-25.356-3.799-7.312-9.592-12.963-17.379-16.951-7.787-4.084-17.664-6.126-29.629-6.126h-41.595V388h-61.681zm236.518 0V169.199h58.831v38.176h2.279c3.989-13.58 10.684-23.836 20.085-30.769 9.402-7.027 20.228-10.541 32.479-10.541 3.038 0 6.315.19 9.828.57 3.514.38 6.601.902 9.26 1.567v53.846c-2.849-.855-6.79-1.615-11.824-2.28-5.033-.664-9.639-.997-13.817-.997-8.927 0-16.904 1.947-23.931 5.841-6.933 3.798-12.441 9.116-16.524 15.954-3.989 6.837-5.983 14.719-5.983 23.646V388h-60.683zm230.745 4.273c-22.124 0-41.26-4.7-57.404-14.102-16.049-9.497-28.442-22.697-37.179-39.601-8.737-16.998-13.105-36.704-13.105-59.116 0-22.602 4.368-42.354 13.105-59.258 8.737-16.999 21.13-30.199 37.179-39.601 16.144-9.497 35.28-14.245 57.404-14.245 22.13 0 41.22 4.748 57.27 14.245 16.14 9.402 28.58 22.602 37.32 39.601 8.74 16.904 13.1 36.656 13.1 59.258 0 22.412-4.36 42.118-13.1 59.116-8.74 16.904-21.18 30.104-37.32 39.601-16.05 9.402-35.14 14.102-57.27 14.102zm.29-47.008c10.06 0 18.47-2.849 25.21-8.546 6.74-5.793 11.82-13.676 15.24-23.647 3.52-9.971 5.27-21.32 5.27-34.045 0-12.725-1.75-24.074-5.27-34.045-3.42-9.972-8.5-17.854-15.24-23.647-6.74-5.793-15.15-8.689-25.21-8.689-10.16 0-18.711 2.896-25.643 8.689-6.838 5.793-12.013 13.675-15.527 23.647-3.419 9.971-5.128 21.32-5.128 34.045 0 12.725 1.709 24.074 5.128 34.045 3.514 9.971 8.689 17.854 15.527 23.647 6.932 5.697 15.483 8.546 25.643 8.546zm205.43 46.296c-16.62 0-31.68-4.273-45.16-12.82-13.39-8.642-24.03-21.32-31.91-38.034-7.79-16.809-11.68-37.416-11.68-61.823 0-25.07 4.04-45.915 12.11-62.534 8.07-16.714 18.8-29.202 32.19-37.464 13.49-8.357 28.25-12.536 44.3-12.536 12.25 0 22.46 2.089 30.63 6.268 8.26 4.083 14.91 9.212 19.94 15.384 5.13 6.078 9.02 12.061 11.68 17.949h1.85V96.2655h60.55V388h-59.83v-35.042h-2.57c-2.85 6.077-6.88 12.108-12.11 18.091-5.12 5.888-11.82 10.778-20.08 14.672-8.17 3.893-18.14 5.84-29.91 5.84zm19.23-48.29c9.78 0 18.04-2.659 24.78-7.977 6.84-5.413 12.06-12.963 15.67-22.649 3.7-9.687 5.56-21.035 5.56-34.045 0-13.011-1.81-24.312-5.42-33.903-3.6-9.592-8.83-16.999-15.67-22.222-6.83-5.223-15.14-7.835-24.92-7.835-9.98 0-18.38 2.707-25.22 8.12-6.83 5.413-12.01 12.915-15.52 22.507-3.52 9.591-5.27 20.702-5.27 33.333 0 12.725 1.75 23.978 5.27 33.76 3.6 9.686 8.78 17.284 15.52 22.792 6.84 5.413 15.24 8.119 25.22 8.119zm337.08-174.072L1498.43 388h-68.38l-76.49-218.801h64.1l45.44 156.551h2.28l45.3-156.551h64.24zm65.51 222.932c-13.96 0-26.4-2.422-37.32-7.265-10.92-4.938-19.56-12.203-25.93-21.794-6.27-9.687-9.4-21.748-9.4-36.182 0-12.156 2.23-22.365 6.7-30.627 4.46-8.262 10.54-14.909 18.23-19.943 7.69-5.033 16.43-8.831 26.21-11.395 9.88-2.565 20.23-4.369 31.05-5.414 12.73-1.329 22.99-2.564 30.77-3.703 7.79-1.235 13.44-3.039 16.95-5.413 3.52-2.374 5.27-5.888 5.27-10.541v-.855c0-9.022-2.84-16.002-8.54-20.94-5.61-4.938-13.58-7.407-23.93-7.407-10.92 0-19.61 2.421-26.07 7.265-6.46 4.748-10.73 10.731-12.82 17.948l-56.13-4.558c2.85-13.296 8.45-24.786 16.81-34.473 8.36-9.781 19.14-17.284 32.34-22.507 13.29-5.318 28.68-7.977 46.15-7.977 12.16 0 23.79 1.425 34.9 4.274 11.21 2.849 21.13 7.264 29.77 13.247 8.74 5.983 15.62 13.675 20.66 23.077 5.03 9.307 7.55 20.465 7.55 33.475V388h-57.55v-30.342h-1.71c-3.51 6.838-8.22 12.868-14.1 18.091-5.89 5.129-12.97 9.165-21.23 12.109-8.26 2.849-17.8 4.273-28.63 4.273zm17.38-41.88c8.93 0 16.81-1.757 23.64-5.27 6.84-3.609 12.21-8.452 16.1-14.53 3.89-6.078 5.84-12.963 5.84-20.655v-23.219c-1.9 1.234-4.51 2.374-7.83 3.418-3.23.95-6.89 1.852-10.97 2.707-4.08.76-8.17 1.472-12.25 2.137-4.09.569-7.79 1.092-11.11 1.567-7.13 1.044-13.35 2.706-18.66 4.985-5.32 2.279-9.45 5.366-12.4 9.259-2.94 3.799-4.41 8.547-4.41 14.245 0 8.262 2.99 14.578 8.97 18.946 6.08 4.273 13.77 6.41 23.08 6.41zm191.54-88.745V388h-60.69V169.199h57.84v38.604h2.56c4.85-12.726 12.97-22.792 24.36-30.199 11.4-7.503 25.21-11.254 41.45-11.254 15.2 0 28.45 3.324 39.75 9.972 11.3 6.647 20.08 16.144 26.35 28.489 6.27 12.251 9.4 26.876 9.4 43.874V388h-60.68V259.511c.09-13.39-3.33-23.836-10.26-31.338-6.93-7.597-16.47-11.396-28.63-11.396-8.17 0-15.38 1.757-21.65 5.271-6.18 3.513-11.02 8.641-14.53 15.384-3.42 6.648-5.18 14.672-5.27 24.074zm229.18 130.625c-13.96 0-26.4-2.422-37.32-7.265-10.92-4.938-19.57-12.203-25.93-21.794-6.27-9.687-9.4-21.748-9.4-36.182 0-12.156 2.23-22.365 6.69-30.627 4.47-8.262 10.55-14.909 18.24-19.943 7.69-5.033 16.43-8.831 26.21-11.395 9.88-2.565 20.23-4.369 31.05-5.414 12.73-1.329 22.98-2.564 30.77-3.703 7.79-1.235 13.44-3.039 16.95-5.413 3.52-2.374 5.27-5.888 5.27-10.541v-.855c0-9.022-2.85-16.002-8.54-20.94-5.61-4.938-13.58-7.407-23.93-7.407-10.93 0-19.62 2.421-26.07 7.265-6.46 4.748-10.73 10.731-12.82 17.948l-56.13-4.558c2.85-13.296 8.45-24.786 16.81-34.473 8.36-9.781 19.14-17.284 32.34-22.507 13.29-5.318 28.68-7.977 46.15-7.977 12.16 0 23.79 1.425 34.9 4.274 11.21 2.849 21.13 7.264 29.77 13.247 8.74 5.983 15.62 13.675 20.66 23.077 5.03 9.307 7.55 20.465 7.55 33.475V388h-57.55v-30.342h-1.71c-3.52 6.838-8.22 12.868-14.1 18.091-5.89 5.129-12.97 9.165-21.23 12.109-8.26 2.849-17.81 4.273-28.63 4.273zm17.38-41.88c8.92 0 16.81-1.757 23.64-5.27 6.84-3.609 12.21-8.452 16.1-14.53 3.89-6.078 5.84-12.963 5.84-20.655v-23.219c-1.9 1.234-4.51 2.374-7.83 3.418-3.23.95-6.89 1.852-10.97 2.707-4.09.76-8.17 1.472-12.25 2.137-4.09.569-7.79 1.092-11.11 1.567-7.13 1.044-13.35 2.706-18.66 4.985-5.32 2.279-9.45 5.366-12.4 9.259-2.94 3.799-4.41 8.547-4.41 14.245 0 8.262 2.99 14.578 8.97 18.946 6.08 4.273 13.77 6.41 23.08 6.41z"/></svg>