<svg xmlns="http://www.w3.org/2000/svg" role="img" viewBox="-8.50 -8.50 441.74 122.49"><title>Pulumi logo</title><path fill="#F26E7E" fill-rule="evenodd" d="M17.0724 58.8697c3.9112-2.2582 3.9177-9.5691.0145-16.3295-3.9032-6.7603-10.23802-10.41-14.14923-8.1518-3.91121 2.2582-3.91772 9.5692-.01452 16.3295 3.90319 6.7604 10.23805 10.41 14.14925 8.1518zm.0234 14.4756c3.9032 6.7604 3.8967 14.0713-.0145 16.3295C13.17 91.933 6.83522 88.2833 2.93203 81.523c-3.9032-6.7603-3.8967-14.0713.01452-16.3295 3.91121-2.2582 10.24605 1.3915 14.14925 8.1518zm26.6537 15.4098c3.9032 6.7603 3.8967 14.0709-.0145 16.3299-3.9112 2.258-10.2461-1.392-14.1493-8.1523-3.9031-6.7603-3.8966-14.0712.0146-16.3295 3.9112-2.2582 10.246 1.3915 14.1492 8.1519zm-.0087-30.8047c3.9032 6.7603 3.8967 14.0713-.0145 16.3295-3.9112 2.2582-10.246-1.3915-14.1492-8.1518-3.9032-6.7604-3.8967-14.0713.0145-16.3295 3.9112-2.2582 10.2461 1.3915 14.1492 8.1518z" clip-rule="evenodd"/><path fill="#8A3391" fill-rule="evenodd" d="M97.0612 50.7349c3.9028-6.7603 3.8968-14.0713-.0145-16.3295-3.9112-2.2582-10.246 1.3915-14.1492 8.1519-3.9032 6.7603-3.8967 14.0712.0145 16.3295 3.9112 2.2582 10.2461-1.3915 14.1492-8.1519zm.0008 14.4683c3.911 2.2582 3.918 9.5691.0146 16.3295-3.9032 6.7603-10.2381 10.41-14.1493 8.1518-3.9112-2.2582-3.9177-9.5692-.0145-16.3295 3.9032-6.7603 10.238-10.41 14.1492-8.1518zM70.4136 80.5877c3.9113 2.2582 3.9178 9.5691.0146 16.3295-3.9032 6.7598-10.2381 10.4098-14.1493 8.1518-3.9112-2.258-3.9177-9.5692-.0145-16.3295 3.9032-6.7604 10.238-10.4101 14.1492-8.1518zm-.015-30.798c3.9112 2.2582 3.9177 9.5692.0145 16.3295-3.9032 6.7604-10.238 10.4101-14.1493 8.1519-3.9112-2.2582-3.9177-9.5692-.0145-16.3295 3.9032-6.7604 10.238-10.4101 14.1493-8.1519z" clip-rule="evenodd"/><path fill="#F7BF2A" fill-rule="evenodd" d="M64.1222 8.17769c0 4.51641-6.3283 8.17771-14.1347 8.17771-7.8064 0-14.1347-3.6613-14.1347-8.17771C35.8528 3.66127 42.1811 0 49.9875 0c7.8064 0 14.1347 3.66127 14.1347 8.17769zM37.474 23.5464c0 4.5164-6.3283 8.1777-14.1347 8.1777-7.8064 0-14.13471-3.6613-14.13471-8.1777 0-4.5164 6.32831-8.1777 14.13471-8.1777S37.474 19.03 37.474 23.5464zm39.1965 8.1777c7.8064 0 14.1347-3.6613 14.1347-8.1777 0-4.5164-6.3283-8.1777-14.1347-8.1777-7.8064 0-14.1347 3.6613-14.1347 8.1777 0 4.5164 6.3283 8.1777 14.1347 8.1777zm-12.5483 7.2255c0 4.5164-6.3283 8.1776-14.1347 8.1776-7.8064 0-14.1347-3.6612-14.1347-8.1776s6.3283-8.1777 14.1347-8.1777c7.8064 0 14.1347 3.6613 14.1347 8.1777z" clip-rule="evenodd"/><path fill-rule="evenodd" d="M254.218 19h5.255c1.631 0 2.537.906 2.537 2.5368v61.0193c0 1.6309-.906 2.5369-2.537 2.5369h-5.255c-1.631 0-2.537-.906-2.537-2.5369V21.5368c0-1.6308.906-2.5368 2.537-2.5368zM153.154 85.0927c1.631 0 2.537-.906 2.537-2.5368V62.1255h10.645c13.5 0 21.971-8.0634 21.971-20.2038 0-12.0952-8.471-20.2039-21.971-20.2039h-18.799c-1.631 0-2.537.906-2.537 2.5368v58.3013c0 1.6308.906 2.5368 2.537 2.5368h5.617zm2.537-54.3602h9.966c7.61 0 11.914 4.3941 11.914 11.1892 0 6.8403-4.304 11.2344-11.914 11.2344h-9.966V30.7325zm40.227 10.0115v26.3647c0 11.5516 7.475 19.0261 18.755 19.0261 5.979 0 11.098-2.9445 14.269-7.248v3.6693c0 1.6308.906 2.5368 2.537 2.5368h5.3c1.631 0 2.537-.906 2.537-2.5368V40.744c0-1.6308-.906-2.5368-2.537-2.5368h-5.3c-1.631 0-2.537.906-2.537 2.5368v23.0125c0 7.7916-5.617 13.2729-12.14 13.2729-6.252 0-10.555-4.4394-10.555-10.7814V40.744c0-1.6308-.906-2.5368-2.537-2.5368h-5.255c-1.631 0-2.537.906-2.537 2.5368zm77.599 0v26.3647c0 11.5516 7.474 19.0261 18.754 19.0261 5.98 0 11.099-2.9445 14.27-7.248v3.6693c0 1.6308.906 2.5368 2.537 2.5368h5.3c1.631 0 2.537-.906 2.537-2.5368V40.744c0-1.6308-.906-2.5368-2.537-2.5368h-5.3c-1.631 0-2.537.906-2.537 2.5368v23.0125c0 7.7916-5.617 13.2729-12.141 13.2729-6.251 0-10.555-4.4394-10.555-10.7814V40.744c0-1.6308-.906-2.5368-2.536-2.5368h-5.255c-1.631 0-2.537.906-2.537 2.5368zm128.38 15.4475v26.41c0 1.6308-.906 2.5368-2.536 2.5368h-5.3c-1.631 0-2.537-.906-2.537-2.5368v-25.504c0-6.342-3.941-10.7814-9.74-10.7814-5.844 0-11.37 5.889-11.37 13.0011v23.2843c0 1.6308-.906 2.5368-2.537 2.5368h-5.3c-1.631 0-2.537-.906-2.537-2.5368v-25.504c0-6.342-3.941-10.7814-9.739-10.7814-5.572 0-11.371 5.3454-11.371 13.0011v23.2843c0 1.6308-.906 2.5368-2.537 2.5368h-5.3c-1.63 0-2.536-.906-2.536-2.5368V40.7442c0-1.6309.906-2.5369 2.536-2.5369h5.3c1.631 0 2.537.906 2.537 2.5369v3.5787c3.307-4.3489 8.064-7.2028 13.545-7.2028 7.067 0 13.001 3.6693 15.946 9.7396 3.08-5.8891 8.788-9.7396 15.492-9.7396 10.193 0 17.984 7.5199 17.984 19.0714zM425 25.4328c0-3.5787-2.809-6.342-6.433-6.342-3.624 0-6.387 2.7633-6.387 6.342 0 3.5334 2.763 6.2967 6.387 6.2967 3.624 0 6.433-2.7633 6.433-6.2967zm-1.268 15.3114c0-1.6308-.906-2.5368-2.537-2.5368h-5.255c-1.631 0-2.537.906-2.537 2.5368v41.8121c0 1.6308.906 2.5368 2.537 2.5368h5.255c1.631 0 2.537-.906 2.537-2.5368V40.7442z" clip-rule="evenodd"/></svg>