<svg xmlns="http://www.w3.org/2000/svg" role="img" xmlns:xlink="http://www.w3.org/1999/xlink" viewBox="-12.65 -12.15 631.80 178.80"><title>Pyrsia logo</title><style>svg {shape-rendering:geometricPrecision;text-rendering:geometricPrecision;image-rendering:optimizeQuality;fill-rule:evenodd;clip-rule:evenodd}</style><defs><linearGradient id="id0" x1="154.39" x2="180.48" y1="22.78" y2="68.8" gradientUnits="userSpaceOnUse"><stop offset="0" stop-color="#ffec87"/><stop offset="1" stop-color="#ea8c00"/></linearGradient><linearGradient id="id1" x1="175.15" x2="204.57" y1="-5.75" y2="42.63" gradientUnits="userSpaceOnUse" xlink:href="#id0"/><linearGradient id="id2" x1="191.54" x2="191.54" y1="59.09" y2="142.61" gradientUnits="userSpaceOnUse"><stop offset="0" stop-color="#cc635e"/><stop offset="1" stop-color="#70130e"/></linearGradient><style>.fil0{fill:#70130e;fill-rule:nonzero}</style></defs><g id="Layer_x0020_1"><g id="_2365130640656"><path d="M548.38 45.22h58.78v109.69h-23.51V68.72h-35.27c-7.57 0-14.04 3.08-19.39 9.17-5.35 6.12-8.02 13.5-8.02 22.17 0 8.66 2.67 16.07 8.02 22.17 5.35 6.12 11.82 9.17 19.39 9.17h27.44v23.51h-27.44c-14.04 0-26.05-5.35-35.99-16.07-9.95-10.7-14.92-23.61-14.92-38.77 0-15.14 4.97-28.08 14.92-38.77 9.95-10.7 21.95-16.07 35.99-16.07zm-86.16 0h23.5v109.69h-23.5zm-113.6 33.32c0-9.2 3.26-17.06 9.76-23.56s14.33-9.76 23.53-9.76h68.56v23.51h-68.56c-2.7 0-5.03.96-6.93 2.86-1.9 1.93-2.86 4.22-2.86 6.95 0 2.7.96 5.03 2.86 6.93 1.9 1.9 4.23 2.86 6.93 2.86h35.27c9.17 0 17.03 3.24 23.53 9.73 6.5 6.52 9.76 14.36 9.76 23.56s-3.26 17.03-9.76 23.53-14.36 9.76-23.53 9.76h-68.56V131.4h68.56c2.7 0 5-.96 6.93-2.86 1.9-1.9 2.86-4.22 2.86-6.93 0-2.73-.96-5.03-2.86-6.93-1.92-1.93-4.22-2.86-6.93-2.86h-35.27c-9.2 0-17.03-3.26-23.53-9.76s-9.76-14.36-9.76-23.53zm-35.24 48.96c0-3.26-1.15-6.02-3.45-8.32-2.3-2.3-5.08-3.45-8.32-3.45h-66.58V92.22h66.58c3.24 0 6.02-1.15 8.32-3.45 2.3-2.3 3.45-5.05 3.45-8.29 0-3.24-1.15-6.02-3.45-8.32-2.3-2.3-5.08-3.45-8.32-3.45h-66.58V45.2h66.58c9.73 0 18.02 3.45 24.92 10.35 6.9 6.9 10.35 15.19 10.35 24.92 0 9.04-3.02 16.87-9.01 23.5 5.99 6.63 9.01 14.47 9.01 23.51v27.41h-23.5v-27.41z" class="fil0"/><path fill="url(#id2)" fill-rule="nonzero" d="M156.67 110.73c-10.16-1.95-19.17-6.55-27.01-13.88-10.72-9.92-16.07-21.9-16.07-35.97V45.21h23.51v15.67c0 7.59 3.05 14.04 9.17 19.39 6.1 5.37 13.5 8.05 22.17 8.05 8.66 0 16.04-2.67 22.17-8.05 6.1-5.35 9.17-11.79 9.17-19.39V45.21h23.51v15.67c0 14.07-5.38 26.05-16.07 35.97-7.83 7.33-16.85 11.93-27.03 13.88v44.18h-23.51v-44.18z"/><path d="M66.58 115.73H23.5v39.18H-.01V92.23h66.58c3.24 0 6.02-1.15 8.32-3.45 2.3-2.3 3.45-5.05 3.45-8.29 0-3.24-1.15-6.02-3.45-8.32-2.3-2.3-5.08-3.45-8.32-3.45H-.01V45.21h66.58c9.73 0 18.02 3.45 24.92 10.35 6.9 6.9 10.35 15.19 10.35 24.92 0 9.71-3.45 18.02-10.35 24.9-6.9 6.9-15.19 10.35-24.92 10.35z" class="fil0"/><g fill-rule="nonzero"><path fill="url(#id1)" d="M182.89 77.58s6.97-8.52-2.64-22.04S149.81 21.28 168.8 0c0 0-2.4 12.41 18.52 35.74 20.91 23.33-4.43 41.84-4.43 41.84z"/><path fill="url(#id0)" d="M143.7 54.2s3.54 8.67 8.29 13.11c2.73 2.55 9.04 3.28 3.82-4.77-5.23-8.06-13.71-21.39-1.27-35.28 0 0 2.12 11.94 17.94 31.67 15.83 19.72-2.86 27.47-14.11 23.66-11.01-3.73-16.03-14.63-14.66-28.38z"/></g></g><path d="M575.84 112.62v12.29h-11.7v-12.29zm0-16.99v12.29h-11.7V95.63zm0-16.93v12.29h-11.7V78.7z" class="fil0"/></g></svg>