<svg xmlns="http://www.w3.org/2000/svg" role="img" viewBox="-5.37 17.63 408.98 210.23"><title>SAP (member) logo</title><defs><linearGradient id="a" x1="199.327" x2="199.327" y1="220.412" y2="25.877" gradientUnits="userSpaceOnUse"><stop offset="0" stop-color="#3261ad"/><stop offset="1" stop-color="#36b0e5"/></linearGradient></defs><path fill="url(#a)" fill-rule="evenodd" d="M2.696 220.135h198.739L395.958 25.6H2.696v194.535"/><path fill="#fff" fill-rule="evenodd" d="M236.078 62.17l-38.709-.01v92.03l-33.82-92.03h-33.526l-28.88 76.958c-3.058-19.394-23.135-26.11-38.934-31.134-10.446-3.343-21.484-8.277-21.386-13.721.07-4.463 5.94-8.616 17.518-7.988 7.784.42 14.663 1.038 28.312 7.637l13.477-23.425C87.64 64.134 70.401 60.134 56.28 60.11h-.095c-16.472 0-30.208 5.352-38.712 14.14a32.693 32.693 0 0 0-9.267 22.576c-.212 11.885 4.143 20.303 13.304 27.035 7.713 5.656 17.599 9.336 26.31 12.048 10.742 3.317 19.515 6.21 19.407 12.38a8.897 8.897 0 0 1-2.53 6.036c-2.687 2.771-6.794 3.813-12.478 3.922-10.979.22-19.108-1.497-32.055-9.148L8.205 172.843a89.418 89.418 0 0 0 43.816 11.658l2.012-.017c13.591-.24 24.55-4.13 33.325-11.176.48-.385.948-.809 1.41-1.218l-3.873 10.38h35.152l5.905-17.95a67.121 67.121 0 0 0 40.847.165l5.684 17.784h57.338v-37.174h12.506c30.231 0 48.13-15.39 48.13-41.198 0-28.74-17.38-41.926-54.38-41.926zm-89.462 78.77a35.108 35.108 0 0 1-12.407-2.192l12.278-38.701h.25l12.023 38.814a35.76 35.76 0 0 1-12.144 2.078zm91.74-22.25h-8.535V87.485h8.534c11.375 0 20.427 3.774 20.427 15.422 0 12.006-9.052 15.781-20.427 15.781"/><path fill="#3261ad" d="M249 207.52a10.245 10.245 0 1 1 10.276 10.54A10.219 10.219 0 0 1 249 207.52zm10.276 12.647a12.618 12.618 0 1 0-12.811-12.647 12.608 12.608 0 0 0 12.811 12.647zm-2.677-11.653h2.536l3.83 6.299h2.48l-4.15-6.402c2.133-.252 3.775-1.394 3.775-4 0-2.866-1.696-4.138-5.127-4.138H254.4v14.54h2.198zm0-1.875v-4.493h3.015c1.507 0 3.133.322 3.133 2.132 0 2.245-1.657 2.36-3.502 2.36z"/></svg>