<svg xmlns="http://www.w3.org/2000/svg" role="img" viewBox="-13.76 -13.76 949.52 177.02"><title>Screwdriver logo</title><defs><linearGradient id="a" x1="55.37" x2="55.37" y1="5" y2="105.73" gradientUnits="userSpaceOnUse"><stop offset="0" stop-color="#2980c3"/><stop offset=".5" stop-color="#0d72b9"/><stop offset="1" stop-color="#0a5287"/></linearGradient><linearGradient id="b" x1="94.63" x2="94.63" y1="145" y2="44.27" gradientUnits="userSpaceOnUse"><stop offset="0" stop-color="#2980c3"/><stop offset=".7" stop-color="#0d72b9"/><stop offset="1" stop-color="#0a5287"/></linearGradient></defs><path fill="url(#a)" d="M104.7 45.3a50.4 50.4 0 1 0-59.4 59.4 47.4 47.4 0 0 1-1-10.1V83.1a29.9 29.9 0 1 1 38.8-38.8 28.9 28.9 0 0 1 2.1 11.1v29.8H64.8v9.4a28.9 28.9 0 0 0 2.1 11.1h38.8V55.4a47.4 47.4 0 0 0-1-10.1z"/><path fill="url(#b)" d="M104.7 45.3a47.4 47.4 0 0 1 1 10.1v11.5a29.9 29.9 0 1 1-38.8 38.8 28.9 28.9 0 0 1-2.1-11.1V64.8h20.4v-9.4a28.9 28.9 0 0 0-2.1-11.1H44.3v50.3a47.4 47.4 0 0 0 1 10.1 50.4 50.4 0 1 0 59.4-59.4z"/><path fill="#303030" d="M186.3 93.1c.8 6.6 7.7 11 16.7 11s15.2-4.3 15.2-10.2-3.9-8.2-13.6-10.4L194 81.2c-14.9-3.2-22.2-10.8-22.2-22.6 0-14.9 12.9-24.8 30.9-24.8s30.7 9.7 31 24.4h-15.9c-.6-6.9-6.6-11-15-11s-14 4-14 10 3.9 7.7 13.3 9.9l9.8 2c16.1 3.5 23.2 10.5 23.2 22.8 0 15.7-12.7 25.6-32.8 25.6s-31.8-9.2-32.3-24.4zm95.6-14.7c-.8-6.3-5.2-10.6-11.9-10.6s-13.1 6.8-13.1 18.2 5 18.3 13.1 18.3 10.9-3.7 11.9-10.2h15.2c-.9 14.1-11.3 23.1-27.3 23.1-18 0-29.5-11.8-29.5-31.2s11.5-31 29.4-31c16.3 0 26.6 9.8 27.4 23.4zM303.8 56h15.8v10.8h.3c2.1-7.4 7.3-11.5 14.3-11.5a15.3 15.3 0 0 1 4.7.6v14.4a19 19 0 0 0-6-.9c-8 0-12.7 4.9-12.7 13.4v33.3h-16.4zm94.5 41.7c-1.8 11.7-12.6 19.5-27.4 19.5-18.3 0-29.6-11.7-29.6-30.9s11.3-31.3 29-31.3 28.5 11.6 28.5 29.8v5h-41.4v1c0 8.5 5.6 14.3 13.8 14.3 5.9 0 10.6-2.8 12.1-7.4zm-40.7-17.9h25.5c-.3-7.7-5.4-12.7-12.6-12.7s-12.3 5.2-12.9 12.7zM472 116.1h-17.4l-10.9-42.5h-.3l-10.9 42.5h-17.2L399.4 56h16.4l9.1 44.6h.4L435.9 56h15.7l10.7 44.6h.3l9.2-44.6h16.1zM487.4 86c0-18.9 9.7-30.7 24.6-30.7 8.7 0 15.4 4.4 18.4 11h.3V35.2h16.4v80.9h-16.2v-10.3h-.3c-2.9 6.6-9.8 11-18.7 11-14.9 0-24.5-11.9-24.5-30.8zm16.8.1c0 10.8 5.1 17.6 13.3 17.6s13.3-6.9 13.3-17.6-5.2-17.6-13.3-17.6-13.3 6.8-13.3 17.6zM555.7 56h15.8v10.8h.3c2.1-7.4 7.3-11.5 14.3-11.5a15.3 15.3 0 0 1 4.7.6v14.4a19 19 0 0 0-6-.9c-8 0-12.7 4.9-12.7 13.4v33.3h-16.4zm40.4-15a8.8 8.8 0 0 1 17.5 0 8.6 8.6 0 0 1-8.8 8.4 8.5 8.5 0 0 1-8.7-8.4zm.5 15H613v60.1h-16.4zm61.1 60.1h-18.5L618.4 56h17.5l12.5 45.6h.3L661.2 56h17.1zm75.9-18.4c-1.8 11.7-12.7 19.5-27.4 19.5-18.4 0-29.6-11.7-29.6-30.9s11.2-31.3 29-31.3 28.5 11.6 28.5 29.8v5h-41.4v1c0 8.5 5.5 14.3 13.7 14.3 5.9 0 10.6-2.8 12.2-7.4zm-40.8-17.9h25.5c-.3-7.7-5.4-12.7-12.6-12.7s-12.3 5.2-12.9 12.7zM741.2 56H757v10.8h.3c2.1-7.4 7.2-11.5 14.3-11.5a15.3 15.3 0 0 1 4.7.6v14.4a19 19 0 0 0-6-.9c-8 0-12.8 4.9-12.8 13.4v33.3h-16.3zm32.9 51.7a9 9 0 1 1 9 9.1 9 9 0 0 1-9-9.1zm64.7-29.3c-.9-6.3-5.2-10.6-11.9-10.6s-13.1 6.8-13.1 18.2 5 18.3 13.1 18.3 10.9-3.7 11.9-10.2H854c-.9 14.1-11.3 23.1-27.3 23.1-18 0-29.5-11.8-29.5-31.2s11.5-31 29.4-31c16.3 0 26.6 9.8 27.4 23.4zm19.3 7.6c0-18.9 9.6-30.7 24.6-30.7 8.7 0 15.4 4.4 18.3 11h.4V35.2h16.3v80.9h-16.1v-10.3h-.3c-2.9 6.6-9.9 11-18.7 11-14.9 0-24.5-11.9-24.5-30.8zm16.8.1c0 10.8 5.1 17.6 13.2 17.6s13.4-6.9 13.4-17.6-5.2-17.6-13.4-17.6-13.2 6.8-13.2 17.6z"/></svg>