<svg xmlns="http://www.w3.org/2000/svg" role="img" viewBox="5.30 8.30 738.40 432.90"><title>Screwdriver logo</title><defs><linearGradient id="a" x1="337.55" x2="337.55" y1="22.93" y2="215.04" gradientUnits="userSpaceOnUse"><stop offset="0" stop-color="#2980c3"/><stop offset=".5" stop-color="#0d72b9"/><stop offset="1" stop-color="#0a5287"/></linearGradient><linearGradient id="b" x1="412.45" x2="412.45" y1="289.93" y2="97.82" gradientUnits="userSpaceOnUse"><stop offset="0" stop-color="#2980c3"/><stop offset=".7" stop-color="#0d72b9"/><stop offset="1" stop-color="#0a5287"/></linearGradient></defs><g data-name="Layer 2"><g data-name="Layer 1"><path fill="url(#a)" d="M431.7 99.8c-9-43.8-47.8-76.9-94.1-76.9a96.1 96.1 0 0 0-19.3 190.2 100.8 100.8 0 0 1-1.9-19.2v-22.1a56.9 56.9 0 1 1 74-74 57.6 57.6 0 0 1 4.1 21.2v57h-39v17.9a56.6 56.6 0 0 0 4.1 21.1h74v-96a100.8 100.8 0 0 0-1.9-19.2z"/><path fill="url(#b)" d="M431.7 99.8a100.8 100.8 0 0 1 1.9 19.2v22a56.9 56.9 0 1 1-78.1 52.9v-57h39V119a57.6 57.6 0 0 0-4.1-21.2h-74v96.1a100.8 100.8 0 0 0 1.9 19.2A96.1 96.1 0 1 0 431.7 99.8z"/><g fill="#303030"><path d="M32.9 403.9a2.8 2.8 0 0 1 2.7 1.9c1.8 5.2 7.8 8.5 15.4 8.5s14.5-4 14.5-9.7-3.7-7.8-13-9.8l-10-2.2c-14.1-3.1-21.1-10.2-21.1-21.5 0-14.1 12.2-23.5 29.4-23.5s27.2 7.8 29.1 19.8a2.9 2.9 0 0 1-2.8 3.3h-9.6a3 3 0 0 1-2.8-2.1c-1.5-5.2-6.7-8.3-13.9-8.3s-13.2 3.7-13.2 9.4 3.7 7.4 12.5 9.5l9.4 1.9c15.3 3.3 22 9.9 22 21.6 0 14.9-12 24.4-31.1 24.4-17 0-28.4-7.5-30.4-20a2.8 2.8 0 0 1 2.8-3.2zm95.4-14a2.7 2.7 0 0 1-2.7-2c-1.4-4.9-5.3-8-10.9-8-7.7 0-12.4 6.5-12.4 17.3s4.7 17.4 12.4 17.4c5.6 0 9.4-2.8 10.9-7.8a2.7 2.7 0 0 1 2.7-2h8.9a2.9 2.9 0 0 1 2.9 3.4c-2.2 11.4-11.7 18.6-25.6 18.6-17.1 0-28-11.2-28-29.6s10.9-29.5 27.9-29.5c14.1 0 23.5 7.8 25.6 18.9a2.8 2.8 0 0 1-2.8 3.3zm21.4-21.2h9.3a2.9 2.9 0 0 1 2.8 2.8v7.5h.3c2-7.1 6.9-11 13.6-11h1.9a2.8 2.8 0 0 1 2.5 2.8v7.8a2.8 2.8 0 0 1-3.2 2.8l-2.4-.2c-7.7 0-12.1 4.7-12.1 12.8v28.8a2.8 2.8 0 0 1-2.9 2.8h-9.8a2.8 2.8 0 0 1-2.9-2.8v-51.3a2.9 2.9 0 0 1 2.9-2.8zm83.2 39.6a2.8 2.8 0 0 1 2.7 3.8c-3.2 9-12.7 14.7-25 14.7-17.5 0-28.1-11.2-28.1-29.3s10.7-29.8 27.5-29.8 27.1 11 27.1 28.3v1.9a2.9 2.9 0 0 1-2.9 2.9h-36.5v.9c0 8.1 5.3 13.6 13.1 13.6 5 0 9.1-2.1 10.9-5.6a2.9 2.9 0 0 1 2.5-1.4zm-35-17.1h24.2c-.3-7.2-5.1-12-11.9-12s-11.8 4.9-12.3 12zm106.5 34.5h-12.2a2.7 2.7 0 0 1-2.7-2.1l-9.8-38.2h-.3l-9.7 38.2a2.9 2.9 0 0 1-2.8 2.1H255a2.8 2.8 0 0 1-2.8-2.1l-13.7-51.3a2.9 2.9 0 0 1 2.8-3.6h9.6a2.8 2.8 0 0 1 2.8 2.3l8.2 40h.3l9.6-40.1a2.8 2.8 0 0 1 2.7-2.2H285a2.8 2.8 0 0 1 2.7 2.2l9.7 40.1h.3l8.2-40a2.8 2.8 0 0 1 2.8-2.3h9.3a2.8 2.8 0 0 1 2.7 3.6l-13.6 51.3a2.7 2.7 0 0 1-2.7 2.1zm16.9-28.6c0-17.9 9.1-29.1 23.3-29.1 8.3 0 14.6 4.1 17.4 10.5h.4v-26.7a2.8 2.8 0 0 1 2.8-2.9h9.8a2.9 2.9 0 0 1 2.9 2.9v71.1a2.8 2.8 0 0 1-2.9 2.8h-9.6a2.7 2.7 0 0 1-2.8-2.8v-7h-.3c-2.8 6.3-9.4 10.5-17.8 10.5-14.1 0-23.2-11.3-23.2-29.3zm15.9.1c0 10.3 4.9 16.7 12.6 16.7s12.7-6.5 12.7-16.7-5-16.7-12.7-16.7-12.6 6.5-12.6 16.7zm51.7-28.5h9.4a2.9 2.9 0 0 1 2.8 2.8v7.5h.3c2-7.1 6.9-11 13.6-11h1.9a2.8 2.8 0 0 1 2.5 2.8v7.8a2.8 2.8 0 0 1-3.2 2.8l-2.4-.2c-7.7 0-12.2 4.7-12.2 12.8v28.8a2.7 2.7 0 0 1-2.8 2.8h-9.9a2.8 2.8 0 0 1-2.8-2.8v-51.3a2.9 2.9 0 0 1 2.8-2.8zm35.6-14.3a8.3 8.3 0 0 1 16.6 0 8.3 8.3 0 0 1-16.6 0zm3.3 14.3h9.9a2.8 2.8 0 0 1 2.8 2.8v51.4a2.7 2.7 0 0 1-2.8 2.8h-9.9a2.8 2.8 0 0 1-2.8-2.8v-51.4a2.9 2.9 0 0 1 2.8-2.8zm53.1 57h-13.5a2.8 2.8 0 0 1-2.7-1.9L447 372.5a2.8 2.8 0 0 1 2.7-3.8h10.4a2.9 2.9 0 0 1 2.8 2.1l11.3 41.2h.3l11.2-41.2a2.9 2.9 0 0 1 2.8-2.1h10.1a2.9 2.9 0 0 1 2.7 3.8l-17.7 51.3a2.8 2.8 0 0 1-2.7 1.9zm70.5-17.4a2.8 2.8 0 0 1 2.7 3.8c-3.3 9-12.7 14.7-25 14.7-17.5 0-28.2-11.2-28.2-29.3s10.7-29.8 27.6-29.8 27.1 11 27.1 28.3v1.9a2.9 2.9 0 0 1-2.9 2.9h-36.5v.9c0 8.1 5.3 13.6 13.1 13.6 5 0 9-2.1 10.9-5.6a2.9 2.9 0 0 1 2.5-1.4zm-35-17.1h24.2c-.3-7.2-5.1-12-12-12s-11.7 4.9-12.2 12zm48.8-22.5h9.3a2.8 2.8 0 0 1 2.8 2.8v7.5h.3c2-7.1 6.9-11 13.6-11h1.9a2.7 2.7 0 0 1 2.5 2.8v7.8a2.8 2.8 0 0 1-3.2 2.8l-2.4-.2c-7.7 0-12.1 4.7-12.1 12.8v28.8a2.8 2.8 0 0 1-2.9 2.8h-9.8a2.8 2.8 0 0 1-2.9-2.8v-51.3a2.9 2.9 0 0 1 2.9-2.8zm28.4 49.1a8.6 8.6 0 1 1 8.5 8.6 8.5 8.5 0 0 1-8.5-8.6zm63.7-27.9a2.9 2.9 0 0 1-2.7-2c-1.4-4.9-5.2-8-10.9-8-7.6 0-12.4 6.5-12.4 17.3s4.8 17.4 12.5 17.4c5.5 0 9.4-2.8 10.8-7.8a2.9 2.9 0 0 1 2.7-2h9a2.9 2.9 0 0 1 2.8 3.4c-2.2 11.4-11.7 18.6-25.5 18.6-17.1 0-28.1-11.2-28.1-29.6s11-29.5 28-29.5c14.1 0 23.5 7.8 25.6 18.9a2.9 2.9 0 0 1-2.8 3.3zm16.1 7.2c0-17.9 9.1-29.1 23.4-29.1 8.2 0 14.5 4.1 17.4 10.5h.3v-26.7a2.9 2.9 0 0 1 2.8-2.9h9.9a2.8 2.8 0 0 1 2.8 2.9v71.1a2.7 2.7 0 0 1-2.8 2.8h-9.7a2.8 2.8 0 0 1-2.8-2.8v-7h-.3c-2.7 6.3-9.3 10.5-17.7 10.5-14.2 0-23.3-11.3-23.3-29.3zm15.9.1c0 10.3 4.9 16.7 12.6 16.7s12.7-6.5 12.7-16.7-5-16.7-12.7-16.7-12.6 6.5-12.6 16.7z"/></g><path fill="none" d="M0 0h750v450H0z"/></g></g></svg>