<svg xmlns="http://www.w3.org/2000/svg" role="img" viewBox="-2.27 -2.27 208.04 209.04"><title>Selenium logo</title><style>svg {enable-background:new 0 0 201 204}</style><style>.st0{fill:#fff}</style><switch><g><path d="M201.8 25.5V30c-4.5 4.8-8.8 9.8-13.7 14.3-4.4 4-5.6 8.3-5.5 14.4.4 35.7.4 71.5.1 107.2-.2 21.1-17 37.2-38.1 37.2H40.4c-22 0-38.7-16.7-38.7-38.7V59.8c0-1.6 0-3.3.3-4.8 3.6-20.7 18.2-33 39.1-33h102.7c2.2 0 4.6-.3 6.7.4 4.2 1.3 6.5-.5 9.1-3.5 5-5.9 10.3-11.4 15.5-17 9.1 8 17.9 15.8 26.7 23.6zm-84.6 53.1c-10.9-10.3-21.7-20.5-32.6-30.7-4.2 4.5-7.8 8.6-11.8 12.4-2.3 2.3-1.9 3.6.3 5.7 14.1 13.3 28 26.7 42 40.1.9.8 1.8 1.6 2.9 2.5 24.7-27 49-53.6 73.4-80.4-4.3-4-8.3-7.3-11.9-11.1-2.5-2.6-4-2.4-6.4.3-18.4 20.3-37 40.6-55.9 61.2zm-39.8 39.3c-.5-8.9-4.8-14.8-12-18.5-10.9-5.6-22.3-5.5-33.1.1C24 103.7 20 111 20.6 120.4c.6 9.3 6 14.7 14.4 17.7 1.5.5 3.1.9 4.7 1.3 6.6 1.9 13.3 3.5 19.7 5.7 4 1.4 7 4.4 7.1 9.2.1 5-2.7 8.1-6.9 10.3-10.9 5.7-24.1 1.2-29.2-10H18.6c.4 8.2 3.9 14.6 10.8 18.3 12.9 7 26.2 6.9 39-.2 7.5-4.2 10.7-11.3 10.4-19.8-.2-8.7-4.7-14.6-12.5-18-3.8-1.6-7.8-2.6-11.7-3.8-5.6-1.8-11.4-2.9-16.7-5.4-6.2-2.9-6.8-10.6-1.9-15.4 8-7.6 24.3-4.5 28.9 5.4.4.9 1.3 2 2.1 2.1 3.5.3 6.8.1 10.4.1zm25.5 32.8c1.4-.1 2.5-.2 3.6-.2 11.6 0 23.2-.1 34.8 0 2.6 0 3.7-.8 3.4-3.4-.3-2.9-.4-5.7-.8-8.6-1.6-12.1-9.7-20.2-21.9-22.2-11.8-1.9-22.9 3.9-28 14.2-3.2 6.5-3.8 13.4-3.3 20.4.8 10.6 4.5 19.7 14.7 24.3 10.2 4.6 20.5 3.9 30-2.3 4.2-2.7 7-6.6 8.1-12.2-3.5 0-6.6-.1-9.7.1-.8 0-1.7.8-2.3 1.5-4.4 5.1-12.8 6.9-19.5 4.3-6.1-2.2-9.5-8-9.1-15.9z"/><path d="M201.8 25.5c-8.8-7.8-17.5-15.6-26.6-23.7-5.2 5.6-10.5 11.1-15.5 17-2.5 3-4.9 4.9-9.1 3.5-2.1-.7-4.5-.4-6.7-.4H41.2C20.2 22 5.6 34.3 2 54.9c-.3 1.6-.3 3.2-.3 4.8v104.6c0 22 16.7 38.7 38.7 38.7h104.2c21.1 0 38-16.1 38.1-37.2.3-35.7.3-71.5-.1-107.2-.1-6.1 1.2-10.3 5.5-14.4 4.8-4.5 9.1-9.5 13.7-14.3v174.8H.8V7.4C3 5 4 8.5 5.3 8.8c.5-1.8.9-3.3 1.4-5.2-.3-.7-.9-1.8-1.4-2.8h196.5v24.7z" class="st0"/><path d="M5.3.8C5.9 1.9 6.4 3 6.8 3.7c-.6 1.8-1 3.3-1.5 5.1C4 8.5 3 5 .8 7.5V.7c1.5.1 3 .1 4.5.1zm111.9 77.8c18.9-20.7 37.5-40.9 55.9-61.3 2.4-2.7 3.9-2.9 6.4-.3 3.6 3.8 7.6 7.2 11.9 11.1-24.4 26.9-48.7 53.5-73.3 80.5-1.1-1-2-1.7-2.9-2.5-14-13.4-28-26.8-42-40.1-2.2-2.1-2.6-3.4-.3-5.7 3.9-3.8 7.6-7.9 11.8-12.4 10.8 10.3 21.6 20.4 32.5 30.7zm-39.8 39.3c-3.6 0-7 .1-10.3-.1-.7-.1-1.7-1.2-2.1-2.1-4.6-9.9-20.9-13-28.9-5.4-5 4.7-4.4 12.5 1.9 15.4 5.2 2.5 11.1 3.6 16.7 5.4 3.9 1.2 7.9 2.2 11.7 3.8 7.8 3.4 12.2 9.3 12.5 18 .2 8.6-2.9 15.7-10.4 19.8-12.8 7.1-26.1 7.2-39 .2-6.9-3.7-10.4-10.1-10.8-18.3h11.8c5.1 11.2 18.3 15.6 29.2 10 4.1-2.2 7-5.3 6.9-10.3-.1-4.8-3-7.8-7.1-9.2-6.4-2.3-13.1-3.8-19.7-5.7-1.6-.4-3.1-.8-4.7-1.3-8.4-2.9-13.8-8.4-14.4-17.7-.7-9.4 3.3-16.7 11.6-20.9 10.9-5.6 22.2-5.7 33.1-.1 7.2 3.7 11.6 9.7 12 18.5zm25.5 32.8c-.4 7.8 3 13.7 9 16.1 6.7 2.7 15.2.8 19.5-4.3.6-.7 1.5-1.4 2.3-1.5 3.1-.2 6.2-.1 9.7-.1-1.1 5.6-3.9 9.5-8.1 12.2-9.5 6.2-19.8 6.9-30 2.3-10.2-4.6-13.9-13.8-14.7-24.3-.5-7 .1-13.9 3.3-20.4 5.1-10.4 16.3-16.1 28-14.2 12.2 1.9 20.4 10.1 21.9 22.2.4 2.8.4 5.7.8 8.6.3 2.6-.8 3.4-3.4 3.4-11.6-.1-23.2-.1-34.8 0-1-.2-2.1-.1-3.5 0zm29.2-9.5c.1-5.8-1.9-10.3-6.7-13.2-5.3-3.2-10.9-2.9-15.9.5-4.3 2.9-6.5 7.2-6.7 12.7h29.3z" class="st0"/><path d="M132.1 141.2h-29.3c.2-5.4 2.4-9.8 6.7-12.7 5-3.4 10.6-3.6 15.9-.5 4.7 2.8 6.7 7.3 6.7 13.2z"/></g></switch></svg>