<svg xmlns="http://www.w3.org/2000/svg" role="img" viewBox="215.00 15.00 2600.00 2990.00"><title>Selenium logo</title><defs><radialGradient id="a" cx="1124.393" cy="25.123" r="280.586" gradientTransform="translate(-6689.359 2053.504) scale(6.4314)" gradientUnits="userSpaceOnUse"><stop offset="0" stop-color="#2b2b2b"/><stop offset="1" stop-color="#838383"/></radialGradient><radialGradient id="b" cx="1198.769" cy="-329.328" r="271.138" gradientTransform="translate(-6689.359 2053.504) scale(6.4314)" gradientUnits="userSpaceOnUse"><stop offset="0" stop-color="#fff" stop-opacity=".8"/><stop offset="1" stop-color="#fff" stop-opacity=".2"/></radialGradient><radialGradient id="d" cx="1487.697" cy="-44.188" r="88.692" gradientTransform="matrix(5.0544 -3.9772 11.3115 14.3754 -5239.286 7489.144)" gradientUnits="userSpaceOnUse"><stop offset="0" stop-color="#fff" stop-opacity=".4"/><stop offset=".998" stop-color="#fff" stop-opacity="0"/></radialGradient><linearGradient id="c" x1="1257.053" x2="1384.888" y1="-120.178" y2="-270.481" gradientTransform="translate(-6689.359 2053.504) scale(6.4314)" gradientUnits="userSpaceOnUse"><stop offset="0" stop-color="#227716"/><stop offset="1" stop-color="#20b228"/></linearGradient></defs><path fill="url(#a)" stroke="#2c2c2c" stroke-miterlimit="10" stroke-width="6.973" d="M2149.22 2361.332l-1487.6-42.4c-180.1-7.7-387.8-221.9-385.2-400.7l7.1-1494.7c2.6-179.4 206.4-349.2 385.9-347.3l1467.6 54c178.8 2.6 384 167.9 381.4 346.7v1526.2c0 194.8-155 358.2-369.2 358.2z"/><path fill="#fff" stroke="#2c2c2c" stroke-miterlimit="10" stroke-width="3.486" d="M404.42 1801.132l236.7-57.2c9.6 28.3 47.6 98.4 81 126.7s127.3 43.7 189.7 37.9 93.3-60.5 96.5-101c2.6-39.9-16.7-68.2-53.4-86.8s-77.8-29.6-135.7-46.9c-57.9-16.7-161.4-39.9-243.1-95.2-81-55.3-101-182-101.6-227s10.3-111.3 39.2-159.5c29-48.9 123.5-154.4 311.3-154.4s266.3 59.8 309.3 94.5c43.1 34.7 111.9 158.9 111.9 158.9l-216.1 77.8c-36.7-107.4-104.8-144.1-198.1-144.1s-115.1 59.2-115.1 94.5c0 35.4 20.6 77.8 109.3 101s235.4 59.8 305.5 104.8 134.4 138.3 134.4 247-42.4 167.9-79.1 208.4c-36.7 39.9-125.4 132.5-314.5 132.5-181.9-.6-365.8-81-468.1-311.9zm1644.5-27s35.4-439.9-375.6-439.9c-371.7 0-357.6 381.4-357.6 407.7 0 110 64.3 392.3 378.2 392.3s355-263.7 355-263.7l-214.2-25.1c-10.3 27-31.5 124.1-131.8 124.1s-132.5-81-140.2-107.4-5.8-88.1-5.8-88.1zm-493.9-127.4s-5.8-166.6 138.3-166.6 134.4 166.6 134.4 166.6z"/><path fill="url(#b)" d="M357.42 578.532v740.2s87.5 391 361.4 398.7 1297.9 49.5 1390.5 45 336.4-131.8 336.4-378.8v-732.4c0-142.1-82.3-418.7-396.2-433.5-313.8-14.8-1195.6-37.3-1295.2-37.3-162.8-.7-396.9 61.7-396.9 398.1z"/><path fill="url(#c)" stroke="#0c0000" stroke-miterlimit="10" stroke-width="4.649" d="M1308.02 690.432l431.5 543.5 1016.8-846.4-140.2-281.7-844.4 719-301-340.2z"/><path fill="url(#d)" d="M1331.82 684.632l421.3 382 690.1-543.5-79.7-182.7-593.6 505.5-299.1-337z"/><path d="M380.244 2827.806q3.52 24.874 13.828 37.183 18.855 22.41 64.616 22.408 27.402 0 44.5-5.91 32.436-11.323 32.436-42.108 0-17.972-15.887-27.825-15.894-9.604-50.395-16.991l-39.295-8.618q-57.933-12.802-79.599-27.826-36.694-25.117-36.69-78.551 0-48.758 35.894-81.015 35.897-32.256 105.446-32.258 58.077 0 99.086 30.411 41.006 30.415 43 88.279h-72.887q-2.02-32.747-29.284-46.54-18.18-9.107-45.186-9.112-30.046 0-47.967 11.82-17.926 11.82-17.922 32.997 0 19.456 17.672 29.056 11.357 6.408 48.22 15.022l63.697 15.02q41.877 9.853 62.777 26.349 32.452 25.613 32.454 74.12 0 49.742-38.456 82.613-38.454 32.874-108.64 32.874-71.68 0-112.749-32.38-41.069-32.378-41.065-89.018zm450.942-150.928q28.083 12.582 46.382 39.706 16.488 23.923 21.385 55.49 2.834 18.497 2.312 53.27H705.778q1.634 40.387 28.068 56.636 16.08 10.1 38.695 10.095 23.98 0 38.968-12.311 8.172-6.649 14.444-18.469h71.65q-2.835 23.887-26.018 48.51-36.065 39.154-100.98 39.153-53.58 0-94.541-33.023-40.96-33.025-40.958-107.46 0-69.74 36.975-106.957 36.971-37.215 95.982-37.218 35.037 0 63.123 12.578zm-104.989 60.626q-14.878 15.334-18.695 41.546h120.906q-1.916-27.945-18.695-42.412-16.784-14.468-41.623-14.47-27.022 0-41.893 15.336zm282.214 202.343h-70.179v-362.963h70.18zm243.359-262.969q28.083 12.582 46.382 39.706 16.488 23.923 21.385 55.49 2.833 18.497 2.312 53.27h-195.487q1.634 40.387 28.068 56.636 16.08 10.1 38.695 10.095 23.98 0 38.968-12.311 8.172-6.649 14.444-18.469h71.65q-2.835 23.887-26.018 48.51-36.065 39.154-100.98 39.153-53.58 0-94.541-33.023-40.96-33.025-40.958-107.46 0-69.74 36.975-106.957 36.971-37.215 95.982-37.218 35.037 0 63.123 12.578zm-104.989 60.626q-14.878 15.334-18.695 41.546h120.906q-1.916-27.945-18.695-42.412-16.784-14.468-41.624-14.47-27.02 0-41.892 15.336zm426.995-50.673q26.358 21.793 26.36 72.273v180.743h-71.903v-163.26q0-21.174-5.622-32.504-10.273-20.685-39.11-20.684-35.448 0-48.645 30.288-6.845 16.009-6.845 40.876v145.284h-70.18v-267.913h67.964v39.152q13.481-20.683 25.502-29.795 21.572-16.252 54.68-16.252 41.44 0 67.799 21.792zm163.764-47.401h-71.164v-64.763h71.164zm-71.164 32.012h71.164v268.405h-71.164zm209.06 0v161.78q0 22.902 5.39 34.475 9.557 20.442 37.487 20.439 35.772 0 49.007-29.057 6.855-15.756 6.86-41.615v-146.022h71.164v268.405h-68.21v-37.922q-.98 1.235-4.909 7.388a49.337 49.337 0 0 1-9.33 10.835q-16.454 14.774-31.8 20.191-15.353 5.414-35.974 5.418-59.423 0-80.05-42.847-11.542-23.64-11.538-69.687v-161.781zm573.009.984q17.234 6.896 31.273 24.132 11.324 14.036 15.267 34.474 2.46 13.546 2.463 39.645l-.492 169.17h-71.904v-170.894q0-15.265-4.924-25.116-9.362-18.71-34.475-18.715-29.058 0-40.138 24.132-5.667 12.807-5.663 30.78v159.813h-70.672v-159.813q0-23.881-4.925-34.72-8.864-19.45-34.72-19.452-30.046 0-40.384 19.453-5.667 11.08-5.664 32.996v161.536h-71.164v-267.913h68.209v39.152q13.049-20.927 24.625-29.795 20.436-15.756 52.942-15.76 30.778 0 49.742 13.543a78.835 78.835 0 0 1 23.146 32.258q13.787-23.638 34.228-34.72 21.666-11.081 48.264-11.08a93.482 93.482 0 0 1 34.966 6.894z"/></svg>