<svg xmlns="http://www.w3.org/2000/svg" role="img" viewBox="-41.35 -41.35 2150.20 757.70"><title>Shipa (member) logo</title><g fill-opacity="1" fill-rule="evenodd" stroke="none" transform="matrix(1.33333 0 0 -1.33333 0 676.547) scale(.1)"><path fill="#533fa0" d="M2721.42 3416.88c53.29 0 96.47-43.16 96.47-96.43 0-53.3-43.18-96.47-96.47-96.47-53.27 0-96.43 43.17-96.43 96.47 0 53.27 43.16 96.43 96.43 96.43zm-791.97 1117.64c-53.29 0-96.45 43.18-96.45 96.44 0 53.29 43.16 96.48 96.45 96.48 53.28 0 96.45-43.19 96.45-96.48 0-53.26-43.17-96.44-96.45-96.44zm1011.49-2304.01c26.65 46.15 10.84 105.14-35.3 131.79-46.14 26.62-105.11 10.81-131.76-35.31-26.64-46.15-10.83-105.14 35.3-131.75 46.15-26.65 105.12-10.85 131.76 35.27zm1363.9 127.08c-26.65-46.15-10.85-105.13 35.29-131.75 46.15-26.66 105.12-10.85 131.75 35.31 26.66 46.11 10.85 105.1-35.3 131.75-46.14 26.63-105.11 10.84-131.74-35.31zm672.71 1605.7l-.18-440.27.01-1079.78-365.52-208.09c-4.94-14.83-11.47-29.43-19.58-43.54-65.03-112.61-209.02-151.19-321.65-86.16-112.64 65.03-151.21 209-86.18 321.64 52.65 91.2 157.02 133.8 254.65 112.3l191.67 111.44v711.93L4042.29 3023l-41.69-23.92.06-2239.529-935.2-539.903L2684.3 0l.02 2119.04c-68.1 73.75-83.67 185.94-30.82 277.46 65.03 112.62 209 151.2 321.65 86.15 112.65-65.02 151.22-208.99 86.18-321.64-8.87-15.32-19.19-29.3-30.7-41.81l.04-132.9.3-40.17V599.992l623.61 360.059.17 39.75c2.3 734.489 6.17 1468.909 6.33 2203.409l1316.47 760.08zM1803.77 2633.6c26.64-46.13 85.61-61.95 131.75-35.29 46.14 26.64 61.95 85.61 35.3 131.75-26.64 46.14-85.61 61.95-131.76 35.3-46.14-26.64-61.94-85.61-35.29-131.76zm-571.91-1244.67c-26.66 46.11-85.63 61.92-131.76 35.27-46.15-26.62-61.95-85.6-35.31-131.72 26.65-46.16 85.62-61.96 131.76-35.31 46.15 26.62 61.96 85.61 35.31 131.76zM2286.08 3.46875L1904.87 223.762 969.746 763.629l2.563 420.611c-10.383 11.69-19.774 24.66-27.911 38.73-65.023 112.62-26.433 256.6 86.202 321.62 112.63 65.03 256.61 26.46 321.64-86.16 52.65-91.19 37.37-202.89-30.08-276.68l.69-221.738 616.54-355.961v679.509l.14 48.08L0 2451.36.04688 3531.2l.34375 439.95L1835.53 2911.61c97.92 22.1 202.83-20.53 255.68-112.04 65.04-112.65 26.47-256.62-86.18-321.65-112.65-65.02-256.62-26.46-321.65 86.18-8.87 15.35-15.79 31.29-20.89 47.52l-115.1 66.38-34.94 19.85-1165.786 673.06.02-720.11 34.328-19.99C1015.93 2261.54 1650.01 1891 2286.06 1523.62l.02-1520.15125zM202.516 4314.27l1316.474-760.06c636.18 367.13 1274.14 730.97 1911.38 1096.22l34.49 19.73 623.63-360.04-1165.78-673.07-34.63-20.35-115.07-66.48c-16.59 3.71-33.87 5.68-51.59 5.68-130.07 0-235.45-105.39-235.45-235.45 0-130.09 105.38-235.47 235.45-235.47 105.69 0 195.07 69.55 224.87 165.4l1835.16 1059.51-380.83 220.27-935.16 539.96-1939.44-1119.83-41.58 24.15-588.471 339.76 616.561 355.96 192.34-110.26c30.18-95.29 119.28-164.39 224.58-164.39 130.04 0 235.45 105.42 235.45 235.45 0 130.08-105.41 235.48-235.45 235.48-16.25 0-32.17-1.67-47.49-4.82l-362.97 212.53-935.103-539.89-381.371-219.99"/><path fill="#121011" d="M15138.4 2144.48c0-228.5-162-340.69-477.8-340.69-328.1 0-498.5 116.34-498.5 353.14 0 294.96 436.2 348.98 614.9 348.98 137.1 0 261.7-8.33 361.4-24.92zm-519.3 1462.36c-265.9 0-473.6-54-627.3-112.17v-324.06c132.9 45.7 336.5 103.87 573.3 103.87 407.1 0 556.7-149.57 573.3-490.23-120.5 16.62-245.1 24.92-378 24.92-610.7 0-976.3-245.11-976.3-656.39 0-162.03 62.3-685.5 876.5-685.5 797.7 0 860 515.17 860 673.02v598.26c0 560.84-324 868.28-901.5 868.28zM12994.7 2514.2c0-623.14-274.2-706.23-573.3-706.23-153.7 0-299.1 29.07-440.4 83.09v1071.83c0 207.72 162 311.59 477.8 311.59 249.3 0 535.9-87.24 535.9-760.28zm382.2 0c0 951.38-577.4 1092.64-918.1 1092.64-797.7 0-860-511-860-668.87V711.18h382.2v818.41c141.3-41.54 290.8-62.31 440.4-62.31 436.2 0 955.5 182.8 955.5 1046.92zm-2438.6 1782.28h-407.2v-402.97h407.2v402.97zm-394.7-2795.95h382.2v2073.06h-382.2V1500.53zM9118.61 3606.84c-211.87 0-398.82-45.69-548.39-103.86v859.97h-382.19V1500.53h382.19v1641c128.79 49.86 311.6 99.71 510.99 99.71 216.03 0 465.29-54 465.29-506.83V1500.53h382.24v1221.4c0 565.01-295 884.91-810.13 884.91zm-2118.79 0c-548.38 0-743.63-319.9-743.63-619.01 0-714.56 1055.22-461.15 1055.22-926.47 0-137.08-124.63-257.57-407.14-257.57-257.58 0-448.66 78.94-581.61 153.73v-344.83c145.39-78.95 344.8-145.41 598.24-145.41 569.15 0 772.73 324.06 772.73 610.7 0 781.05-1059.39 589.94-1059.39 922.31 0 141.24 74.78 265.88 411.29 265.88 182.79 0 357.28-54.01 511-124.64v328.22c-166.19 83.09-357.3 137.09-556.71 137.09"/></g></svg>