<svg xmlns="http://www.w3.org/2000/svg" role="img" viewBox="21.66 22.41 200.44 212.94"><title>Terraform logo</title><defs><style>.cls-1{fill:#623ce4;fill-rule:evenodd}</style></defs><path d="M35.52 202.31h-9.6v-5.73h25.72v5.73H42V231h-6.48z"/><path d="M58.43 226.32a26.27 26.27 0 0 0 7.69-1.19l1 4.75a26.86 26.86 0 0 1-9.24 1.6c-7.9 0-10.64-3.66-10.64-9.71v-6.66c0-5.31 2.38-9.81 10.43-9.81s9.86 4.7 9.86 10.12v5.37h-14v1.29c-.01 3.05 1.07 4.24 4.9 4.24zm-4.91-10.59h8v-1.24c0-2.37-.72-4-3.82-4s-4.18 1.65-4.18 4zm30.83-4.64a49.83 49.83 0 0 0-6.67 3.66V231h-6.29v-25.18h5.31l.42 2.79a28.09 28.09 0 0 1 6.61-3.31zm15.38 0a49.72 49.72 0 0 0-6.66 3.66V231h-6.3v-25.18h5.32l.41 2.79a28.29 28.29 0 0 1 6.61-3.31zM120.8 231h-5.16l-.47-1.71a13.73 13.73 0 0 1-7.49 2.22c-4.59 0-6.55-3.15-6.55-7.48 0-5.12 2.22-7.08 7.33-7.08h6v-2.63c0-2.79-.77-3.77-4.8-3.77a35.51 35.51 0 0 0-7 .77l-.78-4.8a33 33 0 0 1 8.63-1.19c7.9 0 10.22 2.79 10.22 9.09zm-6.3-9.51h-4.65c-2.06 0-2.63.57-2.63 2.48 0 1.76.57 2.53 2.53 2.53a9.93 9.93 0 0 0 4.75-1.29zm25.66-21.4a18.3 18.3 0 0 0-3.61-.42c-2.48 0-2.84 1.09-2.84 3v3.15h6.4l-.36 5h-6V231h-6.3v-20.17h-4v-5h4v-3.51c0-5.22 2.43-7.8 8-7.8a20.13 20.13 0 0 1 5.42.72zm12.29 31.39c-8.62 0-10.95-4.75-10.95-9.91v-6.35c0-5.17 2.33-9.92 10.95-9.92s11 4.75 11 9.92v6.35c-.05 5.16-2.37 9.91-11 9.91zm0-20.81c-3.35 0-4.65 1.5-4.65 4.34v6.76c0 2.84 1.3 4.34 4.65 4.34s4.65-1.5 4.65-4.34V215c0-2.83-1.29-4.33-4.65-4.33zm27.16.42a49.11 49.11 0 0 0-6.66 3.66V231h-6.3v-25.18H172l.41 2.79a28.29 28.29 0 0 1 6.59-3.31zm17.3 19.91v-17.59c0-1.34-.57-2-2-2a17.3 17.3 0 0 0-6.56 2.11V231H182v-25.18h4.8l.62 2.12a25.21 25.21 0 0 1 10.07-2.64c2.43 0 3.92 1 4.75 2.69a24.66 24.66 0 0 1 10.12-2.69c4.18 0 5.68 2.95 5.68 7.44V231h-6.3v-17.59c0-1.34-.57-2-2-2a16.73 16.73 0 0 0-6.56 2.11V231zM32.59 188.07v-4.83h-4.42v4.83h-2.25v-11.6h2.25v4.87h4.42v-4.87h2.26v11.6zm10.52 0h-1.79l-.16-.57a4.9 4.9 0 0 1-2.59.74c-1.6 0-2.27-1.05-2.27-2.49 0-1.7.76-2.35 2.54-2.35h2.09v-.88c0-.93-.27-1.25-1.67-1.25a12.26 12.26 0 0 0-2.41.26l-.27-1.6a11.81 11.81 0 0 1 3-.4c2.74 0 3.54.93 3.54 3zm-2.18-3.16h-1.61c-.72 0-.91.19-.91.82s.19.84.87.84a3.58 3.58 0 0 0 1.65-.42zm6.75 3.33a10.76 10.76 0 0 1-3-.48l.3-1.6a10 10 0 0 0 2.6.36c1 0 1.1-.2 1.1-.84s-.1-.77-1.52-1.1c-2.13-.5-2.38-1-2.38-2.63s.77-2.42 3.26-2.42a12.42 12.42 0 0 1 2.61.29l-.21 1.67a16 16 0 0 0-2.4-.24c-.95 0-1.11.21-1.11.72 0 .67 0 .72 1.24 1 2.43.62 2.66.93 2.66 2.65s-.52 2.62-3.15 2.62zm10-.17v-5.84c0-.45-.19-.67-.69-.67a6.31 6.31 0 0 0-2.28.7v5.81h-2.19v-11.76l2.18.33v3.7a8 8 0 0 1 3.19-.81c1.45 0 2 1 2 2.48v6.06zm4-9.55v-2.05h2.18v2.05zm0 9.55v-8.37h2.18v8.37zm3.92-8.3c0-2.09 1.27-3.31 4.24-3.31a14 14 0 0 1 3.24.38l-.25 1.87a18.36 18.36 0 0 0-2.91-.29c-1.56 0-2.06.51-2.06 1.73v4.4c0 1.22.5 1.73 2.06 1.73a18.36 18.36 0 0 0 2.91-.29l.25 1.87a14 14 0 0 1-3.24.38c-3 0-4.24-1.22-4.24-3.31zm12.3 8.47c-3 0-3.79-1.58-3.79-3.3v-2.11c0-1.72.81-3.3 3.79-3.3s3.8 1.58 3.8 3.3v2.11c.01 1.72-.8 3.3-3.79 3.3zm0-6.92c-1.16 0-1.61.5-1.61 1.44V185c0 1 .45 1.44 1.61 1.44s1.61-.49 1.61-1.44v-2.25c.01-.93-.43-1.43-1.6-1.43zm9.94.14a16.47 16.47 0 0 0-2.31 1.22v5.39h-2.17v-8.37h1.84l.15.93a10 10 0 0 1 2.29-1.1zm8.73 3.83c0 1.85-.86 3-2.88 3a12.34 12.34 0 0 1-2.33-.24v3.42l-2.18.32v-12h1.73l.22.71a4.72 4.72 0 0 1 2.75-.88c1.76 0 2.69 1 2.69 2.91zm-5.21.94a10.09 10.09 0 0 0 1.93.22c.79 0 1.09-.36 1.09-1.11v-3c0-.68-.26-1.06-1.07-1.06a3.17 3.17 0 0 0-1.95.75z"/><path d="M103.2 50.74l37.59 21.7v43.41l-37.59-21.7V50.74z" class="cls-1"/><path fill="#3c2aa8" fill-rule="evenodd" d="M144.91 72.45v43.4l37.59-21.7V50.74l-37.59 21.71z"/><path d="M61.5 26.52v43.4l37.59 21.7v-43.4L61.5 26.52zm41.71 115.79l37.58 21.7v-43.4L103.21 98.9v43.41z" class="cls-1"/></svg>