<svg xmlns="http://www.w3.org/2000/svg" role="img" viewBox="-6.50 -6.50 338.00 242.25"><title>Testkube logo</title><defs><linearGradient id="a" x1="122.61" x2="202.44" y1="116.71" y2="36.88" gradientUnits="userSpaceOnUse"><stop offset="0" stop-color="#aeb5d9"/><stop offset=".14" stop-color="#9b9ad5"/><stop offset=".42" stop-color="#7b6dce"/><stop offset=".66" stop-color="#644cc8"/><stop offset=".86" stop-color="#5637c5"/><stop offset="1" stop-color="#5130c4"/></linearGradient></defs><path fill="url(#a)" d="M222.83 57.27L167.71 2.15a7.32 7.32 0 0 0-10.37 0l-55.12 55.12a7.3 7.3 0 0 0-2.15 5.18v28.68a7.33 7.33 0 0 0 2.15 5.19l55.12 55.12a7.34 7.34 0 0 0 10.37 0l55.12-55.12a7.36 7.36 0 0 0 2.17-5.19V62.45a7.33 7.33 0 0 0-2.17-5.18zm-4.59 30.17L207.6 76.79l10.64-10.64zM203 72.2L165.77 35V9.41l50 50zm-76.36 4.59l35.88-35.88 35.88 35.88-35.88 35.88zm32.63-67.38V35L122 72.2l-12.73-12.78zm3.25 138v-25.54L203 81.39l12.78 12.78z"/><path d="M22.14 219.62h-2.35A3.48 3.48 0 0 1 17 218.2a5.9 5.9 0 0 1-1.25-3.87v-15.87h4.67a4.5 4.5 0 0 0 3.17-1.15 3.9 3.9 0 0 0 1.28-2.95 4.1 4.1 0 0 0-1.28-3.1 4.54 4.54 0 0 0-3.17-1.14h-4.68v-8.75a4.51 4.51 0 0 0-4.66-4.66 4.51 4.51 0 0 0-4.65 4.66v8.75h-2a4.52 4.52 0 0 0-3.17 1.14 4.1 4.1 0 0 0-1.26 3.1 3.91 3.91 0 0 0 1.29 3 4.48 4.48 0 0 0 3.16 1.14h2v15.87a15.79 15.79 0 0 0 1.72 7.39 13.55 13.55 0 0 0 4.75 5.24 12.51 12.51 0 0 0 6.87 2H21a5.58 5.58 0 0 0 3.72-1.25 4.35 4.35 0 0 0 1.56-3.4 4.77 4.77 0 0 0-1.14-3.35 3.93 3.93 0 0 0-3-1.38zM63.08 191a18.6 18.6 0 0 0-9.89-2.56 20.19 20.19 0 0 0-10.28 2.61 18.7 18.7 0 0 0-7 7.23 21.63 21.63 0 0 0-2.53 10.57A20.48 20.48 0 0 0 36 219.39a19.24 19.24 0 0 0 7.43 7.22A22.37 22.37 0 0 0 61.27 228a20.4 20.4 0 0 0 6.19-3.22 3.63 3.63 0 0 0 1.54-3.2 4.47 4.47 0 0 0-1.66-3.13 4.19 4.19 0 0 0-2.92-1 5.1 5.1 0 0 0-2.93 1 13.05 13.05 0 0 1-3.31 1.66 12 12 0 0 1-4 .72 12.76 12.76 0 0 1-6.38-1.57 11.4 11.4 0 0 1-4.28-4.26 10.89 10.89 0 0 1-1.07-2.54h24.76a4.38 4.38 0 0 0 3.12-1.2 4.15 4.15 0 0 0 1.26-3 22.93 22.93 0 0 0-2.16-10.17 16.77 16.77 0 0 0-6.35-7.09zm-9.89 5.78a8.91 8.91 0 0 1 8.52 5.22 12.15 12.15 0 0 1 .87 2.53h-20a12.5 12.5 0 0 1 .74-2 10 10 0 0 1 3.8-4.23 11.55 11.55 0 0 1 6.07-1.5zm52.44 10.27a32.06 32.06 0 0 0-8.51-2.75 32.36 32.36 0 0 1-5.45-1.48 4.34 4.34 0 0 1-2-1.35 2.79 2.79 0 0 1-.46-1.58c0-.59.16-1.34 1.43-2a10.45 10.45 0 0 1 4.62-.92 14.38 14.38 0 0 1 4.27.57 8.33 8.33 0 0 1 3.27 2 6.21 6.21 0 0 0 3.16 1.55 4.59 4.59 0 0 0 3.56-.71 3.88 3.88 0 0 0 1.66-2.93 4.34 4.34 0 0 0-1.17-3.14 15 15 0 0 0-6.11-4.31 22.46 22.46 0 0 0-8.54-1.54 21.59 21.59 0 0 0-7.17 1.21 13.8 13.8 0 0 0-5.82 3.78 9.64 9.64 0 0 0-2.37 6.64 9.9 9.9 0 0 0 3.55 7.68c2.28 2 5.78 3.45 10.71 4.42 4.22.76 6.09 1.66 6.92 2.27a3 3 0 0 1 1.49 2.59 2.82 2.82 0 0 1-1.61 2.4 10.51 10.51 0 0 1-5.48 1.14 13 13 0 0 1-5.29-1 9.79 9.79 0 0 1-3.37-2.18 5 5 0 0 0-3-1.58 4.79 4.79 0 0 0-3.66 1.17 4.51 4.51 0 0 0-1.81 3.13 4.27 4.27 0 0 0 1.2 3.52 18.43 18.43 0 0 0 6.84 4 27.22 27.22 0 0 0 9.35 1.56 20.73 20.73 0 0 0 8.69-1.63 12.88 12.88 0 0 0 5.48-4.51 11.41 11.41 0 0 0 1.89-6.39 10.27 10.27 0 0 0-1.49-5.51 12.18 12.18 0 0 0-4.78-4.12zm32.8 12.57h-2.35a3.49 3.49 0 0 1-2.8-1.42 5.9 5.9 0 0 1-1.25-3.87v-15.87h4.67a4.48 4.48 0 0 0 3.17-1.15 3.9 3.9 0 0 0 1.28-2.95 4.1 4.1 0 0 0-1.28-3.1 4.52 4.52 0 0 0-3.17-1.14H132v-8.75a4.66 4.66 0 1 0-9.31 0v8.75h-2a4.49 4.49 0 0 0-3.16 1.14 4.11 4.11 0 0 0-1.29 3.1 3.94 3.94 0 0 0 1.29 3 4.49 4.49 0 0 0 3.16 1.14h2v15.87a15.79 15.79 0 0 0 1.72 7.39 13.58 13.58 0 0 0 4.78 5.26 12.5 12.5 0 0 0 6.86 2h1.25a5.57 5.57 0 0 0 3.71-1.25 4.35 4.35 0 0 0 1.56-3.4 4.77 4.77 0 0 0-1.17-3.29 3.93 3.93 0 0 0-2.97-1.46zm31.15-13.19l11.84-10.57a4.43 4.43 0 0 0 1.49-3 4.38 4.38 0 0 0-7.39-3.45l-14.79 13.19v-25.45a4.59 4.59 0 1 0-9.17 0v47.19a4.59 4.59 0 1 0 9.17 0v-10l2.1-1.87 12.35 15.27a4.29 4.29 0 0 0 3.09 1.65h.37a4.54 4.54 0 0 0 2.93-1.08 4.39 4.39 0 0 0 1.72-3.08 4.48 4.48 0 0 0-1.06-3.23zm55.17-17.76a4.66 4.66 0 0 0-3.36 1.3 4.6 4.6 0 0 0-1.37 3.42v19.49a6.51 6.51 0 0 1-1.16 3.8 8.54 8.54 0 0 1-3.26 2.79 10.28 10.28 0 0 1-4.74 1.05 11.54 11.54 0 0 1-5.07-1.09 7.82 7.82 0 0 1-3.42-3.25 11.54 11.54 0 0 1-1.29-5.79v-17a4.73 4.73 0 1 0-9.45 0v17a20.93 20.93 0 0 0 2.37 10.25 15.83 15.83 0 0 0 6.42 6.45 18.87 18.87 0 0 0 9.1 2.19 18.05 18.05 0 0 0 8.84-2.16 16.5 16.5 0 0 0 2-1.27 4.41 4.41 0 0 0 1.09 1.73 4.72 4.72 0 0 0 8.1-3.37v-30.82a4.51 4.51 0 0 0-4.73-4.72zm45.15 2.5a18.65 18.65 0 0 0-17.72-.89 19.1 19.1 0 0 0-4.1 2.72v-15.71a4.54 4.54 0 0 0-4.73-4.72 4.7 4.7 0 0 0-3.36 1.3 4.56 4.56 0 0 0-1.37 3.42v31.52a21.2 21.2 0 0 0 2.72 10.4 19.73 19.73 0 0 0 7.2 7.31 20.26 20.26 0 0 0 27.87-7.31 20.39 20.39 0 0 0 2.69-10.41 21.7 21.7 0 0 0-2.46-10.35 19.14 19.14 0 0 0-6.74-7.28zm-11.07 29.42a10.62 10.62 0 0 1-9.58-5.73 12.68 12.68 0 0 1-1.45-6.06 12.45 12.45 0 0 1 1.44-6.06 10.86 10.86 0 0 1 4-4.14 11.24 11.24 0 0 1 11.29 0 11.2 11.2 0 0 1 4 4.15 12.21 12.21 0 0 1 1.47 6.05 12.52 12.52 0 0 1-1.47 6.06 11.15 11.15 0 0 1-4 4.21 10.66 10.66 0 0 1-5.7 1.52zm64.95-9.3a4.11 4.11 0 0 0 1.26-3 22.93 22.93 0 0 0-2.16-10.17 16.77 16.77 0 0 0-6.35-7.06 18.57 18.57 0 0 0-9.89-2.56 20.19 20.19 0 0 0-10.28 2.61 18.7 18.7 0 0 0-7.05 7.23 21.63 21.63 0 0 0-2.53 10.57 20.48 20.48 0 0 0 2.69 10.52 19.24 19.24 0 0 0 7.43 7.22 22.37 22.37 0 0 0 17.82 1.35 20.28 20.28 0 0 0 6.19-3.22 3.61 3.61 0 0 0 1.57-3.17 4.47 4.47 0 0 0-1.66-3.13 4.19 4.19 0 0 0-2.92-1 5.1 5.1 0 0 0-2.93 1 13.05 13.05 0 0 1-3.31 1.66 12 12 0 0 1-4 .72 12.76 12.76 0 0 1-6.38-1.57A11.4 11.4 0 0 1 297 215a10.89 10.89 0 0 1-1.07-2.54h24.76a4.38 4.38 0 0 0 3.09-1.17zm-17.14-14.49a8.91 8.91 0 0 1 8.52 5.23 12.15 12.15 0 0 1 .87 2.53H296a11.58 11.58 0 0 1 .73-2 10 10 0 0 1 3.8-4.23 11.55 11.55 0 0 1 6.11-1.53z"/></svg>