<svg xmlns="http://www.w3.org/2000/svg" role="img" viewBox="-39.40 -38.40 1996.80 731.80"><title>Testlio logo</title><path fill="#0090FF" d="M734.761 298.369v-38.061h34.688v-59.191h47.765v59.191h54.556v38.061h-54.556v115.032c0 11.265 2.34 19.455 6.974 24.525 4.68 5.07 11.517 7.617 20.51 7.617 4.818 0 9.406-.298 13.765-.849 4.359-.574 8.672-1.56 12.893-2.96l7.204 35.927c-13.536 4.52-28.219 6.768-44.003 6.768-24.227 0-41.158-6.263-50.748-18.812-9.59-12.549-14.362-31.362-14.362-56.46V298.369h-34.686z"/><path fill="#0090FF" d="M1094.4 415.076c-3.992 22.85-13.673 40.539-29.182 53.088-15.509 12.526-37.808 18.812-66.807 18.812-34.964 0-61.531-10.072-79.747-30.238-18.17-20.143-27.255-48.545-27.255-85.207 0-18.881 2.615-35.652 7.8-50.312 5.231-14.66 12.572-27.003 22.024-37.006 9.406-10.003 20.694-17.62 33.817-22.85 13.123-5.208 27.531-7.823 43.361-7.823 16.885 0 31.568 2.615 43.957 7.823 12.389 5.231 22.713 12.549 30.88 22.001 8.167 9.452 14.224 20.717 18.17 33.817 3.946 13.123 5.919 27.714 5.919 43.773v21.153H939.632c.551 20.005 5.598 36.226 15.188 48.614 9.59 12.412 24.135 18.606 43.59 18.606 15.188 0 26.613-2.96 34.23-8.879 7.617-5.919 12.71-14.362 15.234-25.374h46.526zm-44.003-66.372c0-18.055-4.221-32.279-12.664-42.718-8.489-10.416-22.024-15.646-40.608-15.646-17.757 0-31.293 5.277-40.607 15.853-9.315 10.576-14.637 24.754-16.059 42.512h109.938z"/><path fill="#0090FF" d="M1169.17 412.965c.872 7.341 2.799 13.329 5.919 17.987 3.12 4.634 6.974 8.374 11.655 11.196 4.634 2.822 10.049 4.726 16.243 5.713s12.848 1.468 19.914 1.468c16.059 0 27.622-2.386 34.642-7.181 7.066-4.795 10.599-11.838 10.599-21.13 0-7.341-2.202-13.536-6.561-18.606-4.359-5.093-13.306-8.741-26.842-11.012-17.482-3.097-32.853-6.057-46.114-8.879-13.26-2.799-24.364-6.699-33.404-11.632-9.039-4.933-15.784-11.265-20.281-19.019-4.543-7.754-6.791-18.262-6.791-31.499 0-10.163 2.248-19.386 6.791-27.714 4.497-8.305 10.783-15.348 18.812-21.13 8.03-5.781 17.62-10.209 28.723-13.329 11.15-3.097 23.355-4.657 36.616-4.657 16.885 0 30.972 1.698 42.259 5.093 11.287 3.372 20.464 8.03 27.485 13.949 7.066 5.919 12.435 12.687 16.059 20.304 3.671 7.594 6.516 15.646 8.489 24.089l-43.131 5.919c-3.395-10.989-8.534-19.157-15.463-24.525-6.883-5.345-18.4-8.03-34.459-8.03-9.269 0-16.885.849-22.804 2.547-5.919 1.675-10.645 3.808-14.178 6.332-3.533 2.547-5.919 5.368-7.204 8.466-1.239 3.097-1.881 6.194-1.881 9.292 0 4.795.551 8.741 1.698 11.838 1.101 3.12 3.166 5.644 6.103 7.617 2.983 1.973 6.974 3.671 12.068 5.07 5.047 1.422 11.425 2.822 19.042 4.244l27.485 4.634c14.637 2.547 26.842 5.781 36.57 9.727 9.727 3.969 17.482 8.833 23.263 14.591 5.781 5.781 9.773 12.48 12.022 20.097s3.395 16.059 3.395 25.374c0 20.005-7.617 36.157-22.85 48.408-15.188 12.274-38.313 18.4-69.331 18.4-12.664 0-24.869-1.216-36.57-3.602-11.7-2.386-22.208-6.401-31.522-12.045s-16.839-13.169-22.621-22.621c-5.781-9.452-9.085-21.359-9.911-35.744h46.066z"/><path fill="#0090FF" d="M1333.195 298.369v-38.061h34.642v-59.191h47.811v59.191h54.556v38.061h-54.556v115.032c0 11.265 2.34 19.455 6.974 24.525s11.471 7.617 20.51 7.617c4.772 0 9.36-.298 13.719-.849 4.405-.574 8.672-1.56 12.939-2.96l7.158 35.927c-13.536 4.52-28.173 6.768-43.957 6.768-24.273 0-41.158-6.263-50.748-18.812-9.59-12.549-14.408-31.362-14.408-56.46V298.369h-34.64z"/><path fill="#0090FF" d="M1557.935 178.29v301.918h-48.178V178.29h48.178z"/><path fill="#0090FF" d="M1659.928 178.29v47.765h-49.876V178.29h49.876zm-.826 82.018v219.9h-48.224v-219.9h48.224z"/><path fill="#0090FF" d="M1810.933 486.976c-34.413 0-61.072-10.14-79.93-30.444-18.904-20.304-28.356-49.05-28.356-86.262 0-17.482 2.478-33.404 7.433-47.788 4.91-14.385 12.022-26.636 21.336-36.799 9.314-10.14 20.74-18.032 34.275-23.676 13.49-5.644 28.861-8.466 46.068-8.466 17.482 0 32.991 2.914 46.527 8.672 13.536 5.781 24.869 13.742 34.046 23.906 9.131 10.14 16.059 22.346 20.694 36.57 4.68 14.247 6.974 29.825 6.974 46.733 0 19.18-2.661 36.019-8.03 50.518-5.323 14.522-12.894 26.796-22.621 36.799s-21.198 17.551-34.459 22.621-27.897 7.616-43.957 7.616zm.413-38.91c20.281 0 35.147-6.974 44.599-20.923 9.452-13.949 14.178-33.06 14.178-57.309 0-23.952-4.726-42.833-14.178-56.667-9.452-13.811-24.319-20.717-44.599-20.717-20.281 0-35.193 6.974-44.599 20.946-9.452 13.949-14.178 32.761-14.178 56.438 0 23.974 4.588 42.993 13.719 57.103 9.177 14.086 24.181 21.129 45.058 21.129z"/><path fill="#0090FF" d="M382.055 655.346l-79.823-66.714-79.78 66.714-13.909-6.22C200.033 645.303 0 553.882 0 409.181c0-93.473 54.641-172.022 140.08-215.67L107.295 14.405l132.477 63.928L302.188 0l62.502 78.333 132.52-63.928-32.785 179.127c85.439 43.67 140.079 122.197 140.079 215.648 0 144.701-200.033 236.122-208.543 239.945l-13.906 6.221zM149.366 244.092c-61.94 36.499-100.729 95.719-100.729 165.089 0 86.626 109.714 160.294 166.299 189.04l49.371-41.294-68.118-56.995-46.823-255.84zm190.833 312.835l49.242 41.164c41.726-21.619 166.428-94.164 166.428-188.911 0-69.37-38.789-128.568-100.729-165.046l-46.823 255.797-68.118 56.996zm-99.347-83.041l61.379 51.315 61.422-51.315 45.916-250.96c-64.489-23.001-150.144-23.023-214.633-.022l45.916 250.982zm61.336-317.436c41.639 0 80.817 6.328 116.236 17.99l13.649-74.597-81.206 39.177-48.68-60.969-48.594 60.969-81.162-39.177 13.606 74.554c35.421-11.619 74.555-17.947 116.151-17.947z"/></svg>