<svg xmlns="http://www.w3.org/2000/svg" role="img" xmlns:xlink="http://www.w3.org/1999/xlink" viewBox="-29.72 -29.72 1545.44 203.44"><title>Trace Machina Simulate Robotic Systems (member) logo</title><defs><linearGradient id="linear-gradient" x1="65.25" x2="100.37" y1="86.97" y2="86.97" gradientUnits="userSpaceOnUse"><stop offset=".02" stop-color="#00818f"/><stop offset=".13" stop-color="#008490"/><stop offset=".24" stop-color="#039096"/><stop offset=".34" stop-color="#07a4a0"/><stop offset=".38" stop-color="#0aada5"/><stop offset=".7" stop-color="#11cdb5"/><stop offset=".96" stop-color="#19f2c8"/></linearGradient><linearGradient id="linear-gradient-2" x1="11.87" x2="35.35" y1="55.19" y2="95.86" gradientUnits="userSpaceOnUse"><stop offset="0" stop-color="#19f2c8"/><stop offset=".18" stop-color="#15e3c0"/><stop offset=".54" stop-color="#0dbcad"/><stop offset="1" stop-color="#00818f"/></linearGradient><linearGradient id="linear-gradient-3" x1="-799.64" x2="-788.62" y1="-651.75" y2="-651.75" gradientTransform="matrix(.62374 -.81966 .79594 .72097 1043.3 -108.55)" gradientUnits="userSpaceOnUse"><stop offset=".23" stop-color="#12d2b8"/><stop offset=".74" stop-color="#0aada5"/></linearGradient><linearGradient id="linear-gradient-4" x1="29.36" x2="76.82" y1="105.11" y2="105.11" gradientUnits="userSpaceOnUse"><stop offset="0" stop-color="#19f2c8"/><stop offset=".08" stop-color="#14dfbe"/><stop offset=".25" stop-color="#0dbdad"/><stop offset=".43" stop-color="#07a2a0"/><stop offset=".61" stop-color="#038f96"/><stop offset=".8" stop-color="#008490"/><stop offset="1" stop-color="#00818f"/></linearGradient><linearGradient id="linear-gradient-5" x1="166.65" x2="166.65" y1="37.21" y2="11.17" gradientTransform="rotate(2.32 -1615.774 -2937.102)" gradientUnits="userSpaceOnUse"><stop offset="0" stop-color="#19f2c8"/><stop offset="1" stop-color="#00818f"/></linearGradient><linearGradient id="linear-gradient-6" x1="74.37" x2="130.61" y1="86.82" y2="86.82" gradientUnits="userSpaceOnUse"><stop offset="0" stop-color="#19f2c8"/><stop offset=".16" stop-color="#17ecc5"/><stop offset=".36" stop-color="#14debe"/><stop offset=".57" stop-color="#0fc6b1"/><stop offset=".8" stop-color="#07a5a1"/><stop offset="1" stop-color="#00818f"/></linearGradient><linearGradient id="linear-gradient-7" x1="15.69" x2="59.54" y1="103.58" y2="103.58" gradientUnits="userSpaceOnUse"><stop offset=".2" stop-color="#00818f"/><stop offset=".84" stop-color="#18edc6"/><stop offset=".96" stop-color="#19f2c8"/></linearGradient><linearGradient id="linear-gradient-8" x1="97.15" x2="135.08" y1="10.84" y2="71.8" gradientTransform="matrix(1.00443 .10592 -.00213 1.01538 -3.61 -16.88)" gradientUnits="userSpaceOnUse"><stop offset="0" stop-color="#19f2c8"/><stop offset=".15" stop-color="#17ebc4"/><stop offset=".36" stop-color="#13dabb"/><stop offset=".6" stop-color="#0dbdad"/><stop offset=".86" stop-color="#049599"/><stop offset=".97" stop-color="#00818f"/></linearGradient><linearGradient id="linear-gradient-9" x1="110.74" x2="157.28" y1="62.34" y2="40.63" gradientTransform="matrix(1.02 .00018 .00018 1 -6.06 -.06)" gradientUnits="userSpaceOnUse"><stop offset=".02" stop-color="#00818f"/><stop offset=".19" stop-color="#008490"/><stop offset=".36" stop-color="#039096"/><stop offset=".53" stop-color="#07a4a0"/><stop offset=".58" stop-color="#0aada5"/><stop offset=".94" stop-color="#0fc3b0"/></linearGradient><linearGradient id="linear-gradient-10" x1="64.56" x2="90.81" y1="93.66" y2="139.14" xlink:href="#linear-gradient-8"/><linearGradient id="linear-gradient-11" x1="-835.23" x2="-824.2" y1="-1393.44" y2="-1393.44" gradientTransform="matrix(-.00745 -1.21998 1.38406 .66115 1963.48 5.67)" gradientUnits="userSpaceOnUse"><stop offset=".19" stop-color="#0aada5"/><stop offset=".92" stop-color="#12d2b8"/></linearGradient><linearGradient id="linear-gradient-12" x1="69.4" x2="77.36" y1="96.58" y2="88.63" gradientUnits="userSpaceOnUse"><stop offset="0" stop-color="#19f2c8"/><stop offset=".16" stop-color="#15e3c0"/><stop offset=".46" stop-color="#0dbcad"/><stop offset=".82" stop-color="#018792"/><stop offset="1" stop-color="#00818f"/></linearGradient><linearGradient id="linear-gradient-13" x1="87.96" x2="105.31" y1="102.59" y2="112.6" xlink:href="#linear-gradient-2"/><linearGradient id="linear-gradient-14" x1="85.31" x2="99.05" y1="106.5" y2="98.56" gradientUnits="userSpaceOnUse"><stop offset=".12" stop-color="#0aaea6"/><stop offset=".14" stop-color="#0ab0a7"/><stop offset=".33" stop-color="#0ec1af"/><stop offset=".54" stop-color="#10cbb4"/><stop offset=".79" stop-color="#11cfb6"/></linearGradient><linearGradient id="linear-gradient-15" x1="806.83" x2="817.5" y1="-103.46" y2="-103.46" gradientTransform="matrix(.94277 .46227 -.64967 .93998 -775.46 -180.85)" gradientUnits="userSpaceOnUse"><stop offset=".02" stop-color="#00818f"/><stop offset=".19" stop-color="#008490"/><stop offset=".36" stop-color="#039096"/><stop offset=".52" stop-color="#07a4a0"/><stop offset=".58" stop-color="#0aada5"/><stop offset=".88" stop-color="#12d2b8"/></linearGradient><linearGradient id="linear-gradient-16" x1="-206.85" x2="-195.76" y1="-424.29" y2="-424.29" gradientTransform="matrix(.93901 -.62861 .37191 1.2673 435.49 534.4)" xlink:href="#linear-gradient-15"/><linearGradient id="linear-gradient-17" x1="-471.67" x2="-461.01" y1="-391.35" y2="-391.35" gradientTransform="matrix(.74998 -.61517 .46604 1.01457 581.34 222.26)" gradientUnits="userSpaceOnUse"><stop offset=".19" stop-color="#12d2b8"/><stop offset=".58" stop-color="#0aada5"/><stop offset=".9" stop-color="#00818f"/></linearGradient><linearGradient id="linear-gradient-18" x1="399.49" x2="410.25" y1="-413.53" y2="-413.53" gradientTransform="matrix(1.23277 -.37996 -.38226 1.62466 -530.11 877.41)" xlink:href="#linear-gradient-15"/><linearGradient id="linear-gradient-19" x1="118.33" x2="100.67" y1="62.51" y2="62.51" gradientUnits="userSpaceOnUse"><stop offset=".02" stop-color="#00818f"/><stop offset=".18" stop-color="#008490"/><stop offset=".35" stop-color="#039096"/><stop offset=".5" stop-color="#07a4a0"/><stop offset=".56" stop-color="#0aada5"/><stop offset=".85" stop-color="#12d2b8"/></linearGradient><linearGradient id="linear-gradient-20" x1="1258.04" x2="1267.39" y1="-1342.14" y2="-1340.51" gradientTransform="matrix(-.3907 1.22941 -1.1168 -1.24033 -885.55 -3187.59)" gradientUnits="userSpaceOnUse"><stop offset=".29" stop-color="#0aada5"/><stop offset=".88" stop-color="#12d2b8"/></linearGradient><style>.cls-21,.cls-22,.cls-23{stroke-width:0}.cls-21{fill:#121212}.cls-22{fill:#172e35}.cls-23{fill:#008593}</style></defs><path d="M478.31 66.95C478.31 24.3 494.26 0 528.01 0c25.78 0 38.57 14.47 44.14 34.68l-22.25 6.31c-3.34-12.05-8.34-21.14-22.25-21.14-16.69 0-23.55 13.72-23.55 35.98v22.25c0 22.25 6.86 35.98 23.55 35.98 13.91 0 18.92-9.09 22.25-21.14l22.25 6.31c-5.56 20.21-18.36 34.68-44.14 34.68-33.75 0-49.7-24.29-49.7-66.95zm340.81 4.82l1.11-37.46h-1.67l-25.03 66.57-25.04-66.57h-1.67l1.11 37.46v59.9h-21.14V2.23h28.93l17.99 47.66h1.3l18.17-47.66h27.08v129.44h-21.14v-59.9zm141.29-4.82c0-42.65 15.95-66.95 49.7-66.95 25.78 0 38.57 14.47 44.14 34.68L1032 40.99c-3.34-12.05-8.34-21.14-22.25-21.14-16.69 0-23.55 13.72-23.55 35.98v22.25c0 22.25 6.86 35.98 23.55 35.98 13.91 0 18.92-9.09 22.25-21.14l22.25 6.31c-5.56 20.21-18.36 34.68-44.14 34.68-33.75 0-49.7-24.29-49.7-66.95zm171.9 9.08h-37.83v55.63h-24.29V2.23h24.29v53.78h37.83V2.23h24.29v129.44h-24.29V76.04zm173.74-37.27h-1.85v92.91h-20.77V2.23h29.86l33.94 92.91h1.85V2.23h20.77v129.44h-29.86l-33.94-92.91z" class="cls-21"/><path d="M884.73 79h-.15l8.51-31.51 12-45.26h-21.81l-36.35 129.44h23.84L884.73 79zm32.3-76.77h-7.63l-7.67 29.05L914.62 79h-25.49l-5.24 19.84h34.81l9.08 32.83h25.78L917.03 2.23z" class="cls-21"/><path d="M421.07 2.23h-19.9l-36.34 129.44h21.93L421.07 2.23zm13.85 0h-9.54l-6.73 25.47L432.51 79h-27.4l-5.24 19.84h36.72l9.09 32.83h25.78L434.92 2.23z" class="cls-21"/><path d="M1437.96 2.23h-21.58l-36.35 129.44h23.61l34.32-129.44zm12.17 0h-7.87l-7.55 28.62L1447.72 79H1422l-5.24 19.84h35.04l9.08 32.83h25.78L1450.13 2.23z" class="cls-21"/><path d="M203.06 26.15h24.11v105.52h-24.11z" class="cls-21"/><path d="M333.31 78.63c16.13-3.52 25.41-17.43 25.41-36.35 0-24.66-13.91-40.06-38.94-40.06H164.12v19.84h150.65c12.98 0 18.36 5.19 18.36 16.69v7.05c0 11.5-5.38 16.69-18.36 16.69h-19.84V26.15h-24.29v105.52h24.29V81.41h14.65l24.66 50.26h26.7l-27.63-53.04z" class="cls-21"/><path d="M591.05 2.23h81.78v19.84h-81.78zm24.29 73.8h55.45V56h-55.45V26.15h-24.29v105.52h81.78v-20.03h-57.49V76.03z" class="cls-21"/><g><path d="M1232.07 24.11h-24.11v89.38h-29.12v18.18h82.34v-18.18h-29.11V24.11zm-53.23-21.88h82.34v17.8h-82.34z" class="cls-21"/></g><g><path fill="url(#linear-gradient)" stroke-width="0" d="M74.51 116.44l-9.26-6.73L91.12 57.5l9.25 4.59-4.41 12.99-21.45 41.36z"/><path fill="url(#linear-gradient-2)" stroke-width="0" d="M49.48 75.8L42.7 57.57l-14.24-4.54-18.81 3.44L0 72.64l4.58 20.95 14.29 7.05 15.3-4.1 2.87-6.4L41 92.16l8.48-16.36z"/><path fill="url(#linear-gradient-3)" stroke-width="0" d="M31.65 80.47l1.24-.53.71-1.22-5.87-17.03-1.19-.16-.89.87 6 18.07z"/><path fill="url(#linear-gradient-4)" stroke-width="0" d="M67.66 131.04l9.16-10.6-39.77-41.25-7.69 8.35 38.3 43.5z"/><path fill="url(#linear-gradient-5)" stroke-width="0" d="M60.84 96.17L44.55 80.86s-.42.99-.46.99l-14.84 3.64-.26.4 21.09 21.2c.63.56.05-3.65.12-3.68l11.62-5.98c.11-.06-.88-1.19-.98-1.27z"/><path fill="url(#linear-gradient-6)" stroke-width="0" d="M127.82 55.03L114.8 49.2l-2.28 4.63-6.72-3-31.43 63.82 12.02 9.78 3.32-6.25 2.73 3.32 35.38-66.47z"/><path fill="url(#linear-gradient-7)" stroke-width="0" d="M53.26 129.49l6.28-7.64-39.9-44.18-3.95 9.82 5.73 8.18 31.84 33.82z"/><path d="M20.09 99.41l1.94-3.25 1.83 2.07-3.77 1.18z" class="cls-23"/><path fill="url(#linear-gradient-8)" stroke-width="0" d="M151.62 34.18L137.99 4.46 109.23 0 90.69.86h-.24l-18.71 23.7L81.23 58l15.49 3.29 24.71 4.52 13.78-3.02 16.41-28.61z"/><path fill="url(#linear-gradient-9)" stroke-width="0" d="M133.77 36.83l17.84-2.65-16.39 28.61-13.52 3.72-14.1-3.2 26.17-26.48z"/><path fill="url(#linear-gradient-10)" stroke-width="0" d="M105.04 130.92l3.24-23.17L85.6 92.91l-2.96 1.28-15.11-1.44-17.25 9.15-.03 7.16-2.02 5.86-.06 12.01 18.4 18.16 22.55-6.96 15.92-7.21z"/><path d="M20.14 99.39L5.58 92.43 1.32 72.72l9.48-15.56 15.95 4.48 6.2 18.19-12.81 19.56z" class="cls-22"/><path d="M46.1 82.3l3.36-6.55-16.51 4.08-4.21 6.15L46.1 82.3z" class="cls-23"/><path fill="url(#linear-gradient-11)" stroke-width="0" d="M48.82 108.15l.86-1.06-.24-1.74-19.48-19.67-1.33.31-.21 1.24 20.4 20.92z"/><path fill="url(#linear-gradient-12)" stroke-width="0" d="M67.55 92.74c1.32-.16 12.03-1.9 12.03-1.9s-7.14 8.57-7.33 8.57-4.7-6.67-4.7-6.67z"/><path fill="url(#linear-gradient-13)" stroke-width="0" d="M108.15 107.67l-6.14-3.97-16.49 3.11 5.44 4.51 17.19-3.65z"/><path fill="url(#linear-gradient-14)" stroke-width="0" d="M102 103.68l-16.33 3.44 5.4-10.77 10.93 7.33z"/><path fill="url(#linear-gradient-15)" stroke-width="0" d="M50.23 101.9l-.04 1.67.49.91 17.85-9.5.3-1.28-1.27-.97-17.33 9.17z"/><path fill="url(#linear-gradient-16)" stroke-width="0" d="M86.79 136.15l2.6.31 2.87-23.98-1.16-1.16-1.2.55-3.11 24.28z"/><path fill="url(#linear-gradient-17)" stroke-width="0" d="M48.04 122.97l1.28.82.92-.01-.04-20.21-2.1 1.59-.06 17.81z"/><path d="M88.26 136.33l-21.52 6.77-17.31-16.7.77-22.82 18.61-9.91 22.31 17.69-2.86 24.97z" class="cls-22"/><g stroke-width="0"><path fill="url(#linear-gradient-18)" d="M114.86 64.27l2.2 1.35 16.07-27.07-.41-1.8-1.4.18-16.46 27.34z"/><path fill="url(#linear-gradient-19)" d="M101.21 59.4l-.54 2.56 16.4 3.66 1.26-2.11-17.12-4.11z"/></g><path fill="url(#linear-gradient-20)" stroke-width="0" d="M121.38 6.31l-2.75.29 13.34 31.26 1.75-2.59-12.34-28.96z"/><path d="M116.25 64.19l-33.75-7.4-9.23-31.7L91.53 1.73l28.37 4.68 12.84 30.33-16.49 27.45z" class="cls-22"/><path d="M63.05 117.36l12.02 9.79 35.37-66.47-15.96-7.13-31.43 63.81zm-6.2 14.37l8.09-9.8-41.41-41.49-5.36 9.6 38.68 41.69z" class="cls-22"/></g></svg>