<svg xmlns="http://www.w3.org/2000/svg" role="img" viewBox="-4.35 -4.35 226.20 42.70"><title>UrbanCode Velocity logo</title><path fill="#c6d632" d="M16.926 24.035c0 2.048.06 3.915.181 5.482h-3.253l-.181-3.313h-.121a7.528 7.528 0 0 1-6.626 3.735C3.734 29.939 0 28.192 0 21.144V9.398h3.614v11.144c0 3.795 1.2 6.385 4.518 6.385a5.22 5.22 0 0 0 4.819-3.313 6.386 6.386 0 0 0 .3-1.868V9.398h3.674z"/><path fill="#c6d632" d="M23.01 15.662c0-2.347-.06-4.398-.181-6.265h3.192l.121 3.918h.181a6.1 6.1 0 0 1 5.606-4.4l1.02.121v3.493a4.506 4.506 0 0 0-1.265-.121c-2.59 0-4.4 1.928-4.879 4.7a8.02 8.02 0 0 0-.181 1.687v10.72H23.01z"/><path fill="#c6d632" d="M46.803 29.938a7.137 7.137 0 0 1-6.746-3.738h-.121l-.181 3.314h-3.132c.058-1.328.121-3.386.121-5.181V0h3.614v12.65h.121a7.427 7.427 0 0 1 6.866-3.735 7.705 7.705 0 0 1 5.6 2.3 11.048 11.048 0 0 1 2.835 8 11.439 11.439 0 0 1-2.816 8.049 8.4 8.4 0 0 1-6.161 2.674zm-.663-18.072a5.8 5.8 0 0 0-5.542 4.458 4.445 4.445 0 0 0-.24 1.506v3.614a5.023 5.023 0 0 0 .181 1.325 5.717 5.717 0 0 0 2.018 3.087 5.573 5.573 0 0 0 3.466 1.19 5.51 5.51 0 0 0 4.518-2.138 8.993 8.993 0 0 0 1.627-5.572 8.78 8.78 0 0 0-1.545-5.451 5.388 5.388 0 0 0-4.483-2.019z"/><path fill="#c6d632" d="M65.185 29.941h-.19c-4.222-.002-6.145-2.969-6.145-5.729a6.236 6.236 0 0 1 3.11-5.591c2.059-1.284 5.066-1.935 8.938-1.935v-.421a5.347 5.347 0 0 0-.723-2.93 4.185 4.185 0 0 0-3.796-1.709 10 10 0 0 0-5.239 1.506l-.844-2.409a12.241 12.241 0 0 1 6.331-1.811h.295c2.794 0 4.856.879 6.129 2.613a9.386 9.386 0 0 1 1.521 5.64v7.529a25.645 25.645 0 0 0 .3 4.819H71.56l-.3-2.53h-.12a7.4 7.4 0 0 1-2.628 2.181 7.548 7.548 0 0 1-3.327.777zm5.4-10.728a14.16 14.16 0 0 0-5.508.876 3.853 3.853 0 0 0-2.609 3.706 3.225 3.225 0 0 0 .8 2.356 3.362 3.362 0 0 0 2.331 1.137h.498a4.955 4.955 0 0 0 4.68-3.376 3.879 3.879 0 0 0 .241-1.2v-3.5h-.437z"/><path fill="#c6d632" d="M80.415 14.819c0-2.048 0-3.735-.121-5.421h3.253l.181 3.316h.06a7.49 7.49 0 0 1 6.686-3.8c2.771 0 7.108 1.687 7.108 8.553v12.047h-3.675V17.891c0-3.192-1.2-5.9-4.638-5.9a5.3 5.3 0 0 0-4.939 3.732 5.448 5.448 0 0 0-.241 1.691v12.1h-3.674z"/><path fill="#73c2f3" d="M104.931 15.963c2.891-.06 3.192-1.566 3.192-2.831a27.2 27.2 0 0 0-.3-3.253 29.411 29.411 0 0 1-.182-3.254c0-3.913 2.47-5.6 6.325-5.6h1.445v3.494h-.722c-1.927 0-2.59 1.144-2.59 2.952 0 .783.181 1.506.241 2.349s.181 1.807.181 2.831c.06 3.192-1.205 4.337-3.494 4.819v.121c2.289.482 3.554 1.687 3.494 4.879 0 1.084-.121 1.988-.181 2.891s-.241 1.626-.241 2.349c0 1.807.662 2.952 2.59 2.952h.723v3.494h-1.506c-3.674 0-6.265-1.506-6.265-5.662a29.413 29.413 0 0 1 .181-3.253c.12-1.144.3-2.229.3-3.253s-.3-2.772-3.191-2.832z"/><path fill="#73c2f3" d="M134.507 29.035a14.786 14.786 0 0 1-5.6.9c-6.628 0-10.784-3.972-10.784-10.418s4.036-10.782 11.626-10.782a14.685 14.685 0 0 1 4.819.783l-1.024 4.7a7.654 7.654 0 0 0-3.494-.6 5.3 5.3 0 0 0-5.482 5.662 5.582 5.582 0 0 0 5.6 5.722 8.212 8.212 0 0 0 3.614-.663z"/><path fill="#73c2f3" d="M146.915 29.935a10.783 10.783 0 0 1-7.3-2.748 10.072 10.072 0 0 1-3.241-7.67 10.729 10.729 0 0 1 2.982-7.853 10.885 10.885 0 0 1 7.86-2.929 10.4 10.4 0 0 1 7.65 2.9 10.386 10.386 0 0 1 2.771 7.462 10.6 10.6 0 0 1-3.328 8.222 11.072 11.072 0 0 1-7.394 2.616zm.181-16.745c-2.856 0-4.156 3.185-4.156 6.143a8.068 8.068 0 0 0 1.062 4.352 3.556 3.556 0 0 0 3.095 1.732 3.391 3.391 0 0 0 3.035-1.664 8.416 8.416 0 0 0 1-4.42 8.637 8.637 0 0 0-.958-4.446 3.388 3.388 0 0 0-3.078-1.694z"/><path fill="#73c2f3" d="M169.203 29.939a8.016 8.016 0 0 1-6.144-2.838 11.391 11.391 0 0 1-2.53-7.583 11.737 11.737 0 0 1 2.718-7.763 8.424 8.424 0 0 1 6.382-3.02c2.461 0 4.466.856 5.361 2.29h.06V.001h6.325v23.431c0 2.478.069 4.809.18 6.084h-5.6l-.3-3.011h-.126a7.016 7.016 0 0 1-6.326 3.434zm2.047-16.384a3.8 3.8 0 0 0-3.23 1.694 7.218 7.218 0 0 0-1.107 4.088 6.683 6.683 0 0 0 1.174 4 3.835 3.835 0 0 0 3.162 1.6 3.689 3.689 0 0 0 3.614-3.012 6.4 6.4 0 0 0 .181-1.507v-2.647c0-.151-.015-.35-.03-.542s-.03-.392-.03-.543a3.758 3.758 0 0 0-3.733-3.132z"/><path fill="#73c2f3" d="M196.608 29.943c-.159 0-.32 0-.48-.006a11.224 11.224 0 0 1-8.019-2.786 10.246 10.246 0 0 1-2.823-7.574 11.814 11.814 0 0 1 2.477-7.364 9.63 9.63 0 0 1 7.763-3.478c3.226 0 5.645 1.072 7.19 3.185a11.952 11.952 0 0 1 1.905 6.935 12 12 0 0 1-.241 2.53h-13.07a3.614 3.614 0 0 0 1.822 2.9 7.561 7.561 0 0 0 3.9.956 17.452 17.452 0 0 0 5.6-.843l.843 4.277a19.057 19.057 0 0 1-6.867 1.268zm-1.444-16.992a3.475 3.475 0 0 0-2.978 1.416 5.638 5.638 0 0 0-.941 2.68h7.469a4.752 4.752 0 0 0-1.128-3.193 3.279 3.279 0 0 0-2.422-.903z"/><path fill="#73c2f3" d="M217.632 19.156c-2.831.06-3.133 1.687-3.133 2.831a29.6 29.6 0 0 0 .241 3.253 29.518 29.518 0 0 1 .241 3.253c0 4.156-2.59 5.662-6.325 5.662h-1.505v-3.494h.783c1.927 0 2.53-1.144 2.53-2.952a15.46 15.46 0 0 0-.181-2.349 23.374 23.374 0 0 1-.241-2.891c-.06-3.192 1.265-4.4 3.554-4.879v-.121c-2.289-.482-3.614-1.626-3.554-4.819a22.426 22.426 0 0 1 .241-2.831 15.413 15.413 0 0 0 .181-2.349c0-1.807-.662-2.891-2.53-2.952h-.783V1.025h1.506c3.855 0 6.324 1.687 6.324 5.6a29.518 29.518 0 0 1-.24 3.255 29.6 29.6 0 0 0-.241 3.253c0 1.265.3 2.771 3.133 2.831z"/></svg>