<svg xmlns="http://www.w3.org/2000/svg" role="img" viewBox="84.73 163.73 414.54 482.04"><title>WebdriverIO logo</title><switch><g><g fill="#EA5906"><path d="M194.229 328.833h8.334v8.333h-8.334zm14 0h8.334v8.333h-8.334zm14.001 0h8.334v8.333h-8.334zm14.002 0h8.334v8.333h-8.334zM192.387 261v-51.655c-14.264 0-25.828 11.563-25.828 25.828 0 14.264 11.564 25.827 25.828 25.827zm225.666-25.828c0-14.264-11.564-25.827-25.828-25.827V261c14.263 0 25.828-11.563 25.828-25.828zm-164.078 24.541c14.574 0 26.432-11.858 26.432-26.434s-11.857-26.434-26.432-26.434c-14.578 0-26.438 11.858-26.438 26.434s11.859 26.434 26.438 26.434zm0-47.868c11.818 0 21.432 9.615 21.432 21.434s-9.613 21.434-21.432 21.434c-11.82 0-21.438-9.615-21.438-21.434s9.617-21.434 21.438-21.434z"/><circle cx="253.973" cy="233.279" r="17.934"/><path d="M330.643 259.713c14.574 0 26.432-11.858 26.432-26.434s-11.857-26.434-26.432-26.434c-14.578 0-26.438 11.858-26.438 26.434s11.859 26.434 26.438 26.434zm0-47.868c11.816 0 21.432 9.615 21.432 21.434s-9.615 21.434-21.432 21.434c-11.82 0-21.438-9.615-21.438-21.434s9.617-21.434 21.438-21.434z"/><circle cx="330.641" cy="233.279" r="17.934"/><path d="M366.473 222.333h8.334v8.333h-8.334zm0 12h8.334v8.333h-8.334z"/><path d="M219.148 277.5h146.314c10.914 0 19.844-8.929 19.844-19.843v-64.814c0-10.914-8.93-19.843-19.844-19.843H219.148c-10.914 0-19.842 8.929-19.842 19.843v64.814c.001 10.914 8.928 19.843 19.842 19.843zm-14.841-84.657c0-8.185 6.658-14.843 14.842-14.843h146.314c8.186 0 14.844 6.658 14.844 14.843v64.814c0 8.185-6.658 14.843-14.844 14.843H219.148c-8.184 0-14.842-6.658-14.842-14.843v-64.814zm118.701 310.158h53.965c2.484 0 4.5-2.015 4.5-4.5s-2.016-4.5-4.5-4.5h-53.965c-2.486 0-4.5 2.015-4.5 4.5s2.013 4.5 4.5 4.5zm0 13.501h18.014c2.486 0 4.5-2.015 4.5-4.5s-2.014-4.5-4.5-4.5h-18.014c-2.486 0-4.5 2.015-4.5 4.5s2.013 4.5 4.5 4.5zm0-27.002h53.965c2.484 0 4.5-2.015 4.5-4.5s-2.016-4.5-4.5-4.5h-53.965c-2.486 0-4.5 2.015-4.5 4.5s2.013 4.5 4.5 4.5zm-81.375-60.017c12.111 0 20.793-9.802 20.793-21.913v-.14c0-12.111-8.822-22.052-20.932-22.052-12.111 0-20.793 9.801-20.793 21.912v.14c0 12.112 8.82 22.053 20.932 22.053z"/><path d="M485.102 502.24c3.301-3.105 5.234-6.859 5.234-10.905 0-5.241-3.242-9.992-8.5-13.475V372.667c0-48.354-44.723-63.371-58.029-65.542v-2.032c0-10.913-8.93-19.842-19.842-19.842H180.65c-10.914 0-19.844 8.929-19.844 19.842v2.032c-13.309 2.172-58.029 17.19-58.029 65.542V477.86c-5.258 3.482-8.5 8.233-8.5 13.475 0 4.046 1.934 7.8 5.234 10.905.35 7.696-1.877 23.034-2.865 28.841l-.035.39c-.004.313-.033 7.727 4.838 12.654 2.762 2.793 6.461 4.209 10.996 4.209 14.293 0 14.902-12.018 15.195-17.793.037-.729.07-1.394.125-1.966.23-2.39 1.07-3.612 2.492-3.636.047-.001.092-.002.135-.002 1.521 0 2.508.464 4.129 2.934 4.506 6.665 12.666 6.026 17.027 3.448 2.473-1.461 4.08-3.619 4.65-6.242.811-3.742-.547-8.175-4.037-13.175-2.697-3.863-3.26-7.189-3.074-9.67 3.297-3.104 5.227-6.854 5.227-10.897 0-5.253-3.256-10.014-8.533-13.498v-94.775c0-7.891 2.432-10.902 7.438-15.377 2.186-1.955 4.779-3.046 7.588-3.542v151.264c0 10.914 8.93 19.843 19.844 19.843h13.658v55.625h-11.438l-.227.042c-.195.036-19.58 3.867-21.898 24.698v21.346h69.104l21.25-7.419v-16.161c.527-8.34-.965-14.527-4.332-17.916V535.25h90.664v60.215c-3.367 3.389-4.861 9.576-4.334 17.916v16.161l21.252 7.419h69.104v-21.346c-2.318-20.831-21.703-24.662-21.9-24.698l-.225-.042h-11.438V535.25h14.074c10.912 0 19.842-8.929 19.842-19.843V364.151c2.809.496 5.404 1.579 7.59 3.534 5.004 4.475 7.438 7.486 7.438 15.377v94.775c-5.277 3.484-8.535 8.245-8.535 13.498 0 4.043 1.932 7.794 5.227 10.897.186 2.48-.375 5.807-3.072 9.67-3.492 5-4.85 9.433-4.037 13.175.568 2.623 2.176 4.781 4.648 6.242 4.361 2.578 12.521 3.217 17.029-3.448 1.621-2.47 2.605-2.934 4.127-2.934.045 0 .09.001.135.002 1.424.023 2.262 1.246 2.492 3.636.057.572.088 1.237.125 1.966.293 5.775.902 17.793 15.197 17.793 4.535 0 8.234-1.416 10.994-4.209 4.871-4.928 4.842-12.341 4.838-12.654l-.035-.39c-.989-5.807-3.214-21.144-2.866-28.841zm-372.657 41.094c-3.182 0-5.609-.884-7.418-2.702-3.072-3.086-3.381-7.976-3.412-8.942.348-2.072 2.625-16.001 2.898-25.822 3.174 1.794 6.938 3.163 11.082 3.971-1.297 9.227-1.607 10.281-2.744 14.117-.273.922-.592 1.996-.979 3.365-1.094 3.868-.697 7.088 1.18 9.57 1.812 2.396 4.545 3.447 6.662 3.911-1.487 1.582-3.751 2.532-7.269 2.532zm29.1-19.279c-.312.891-1.1 1.666-1.848 2.235-.355-.343-.701-.726-1.016-1.191-1.779-2.709-4.09-5.208-8.506-5.159-4.139.068-6.9 3.117-7.387 8.154-.061.639-.1 1.381-.141 2.194-.107 2.086-.275 4.06-.672 5.819-1.441-.161-3.801-.721-4.943-2.244-.875-1.166-.992-2.91-.35-5.184.379-1.344.693-2.398.961-3.304 1.193-4.027 1.551-5.234 2.904-14.865 1.23.099 2.479.155 3.748.155 2.643 0 5.203-.222 7.645-.635 1.357 2.198 3.092 4.093 4.789 5.937 1.834 1.993 3.566 3.876 4.592 5.927.394.786.466 1.472.224 2.161zm6.517-9.289c2.623 3.758 3.748 6.957 3.25 9.251-.271 1.245-1.047 2.254-2.307 2.998-.779.461-3 1.319-5.357 1.08.684-.751 1.299-1.655 1.672-2.716.598-1.706.453-3.529-.42-5.273-1.277-2.555-3.285-4.736-5.227-6.846-1.23-1.339-2.482-2.706-3.537-4.158 2.984-.826 5.717-1.956 8.109-3.327.419 2.676 1.528 5.713 3.817 8.991zm12.745-170.4c-5.826 1.698-11.525 4.398-16.254 8.628-7.812 6.985-11.771 18.428-11.771 30.067V471.5h-23.004v-98.833c0-19.702 8.178-35.45 24.307-46.805 10.443-7.354 21.398-10.655 26.723-11.668v30.172zm65.031 271.261h-60.07c.135-1.023.318-1.995.545-2.919h59.631c-.098.972-.137 1.946-.106 2.919zm.592-5.919h-59.176c4.184-10.727 14.555-13.479 16.107-13.833h50.555c-.615.572-1.223 1.219-1.818 1.945-2.393 2.924-4.629 7.239-5.668 11.888zm-29.121-18.833V535.25h6.291v55.625h-6.291zm22.447-97.377c-2.484 0-4.5 2.015-4.5 4.5v18.533c-8.178-2.025-14.266-9.404-14.266-18.198 0-10.349 8.42-18.768 18.77-18.768 10.348 0 18.766 8.419 18.766 18.768 0 8.796-6.09 16.178-14.27 18.2v-18.535c0-2.485-2.014-4.5-4.5-4.5zm11.074 121.787c-.115-5.352 2.469-11.037 5.137-14.297 1.801-2.2 3.398-3.06 4.293-3.131 1.148-.087 2.096.271 2.932 1.099 1.914 1.896 2.967 5.803 3.01 10.962l-15.372 5.367zm4.104-47.243V535.25h6.834v55.625h-6.834v-12.331h2.334v-10.502h-2.334zm30.527-65.487c.879.879 2.031 1.318 3.182 1.318 1.152 0 2.305-.439 3.182-1.318l13.799-13.798c1.676 2.808 2.656 6.075 2.656 9.576 0 10.349-8.418 18.768-18.766 18.768-10.35 0-18.77-8.419-18.77-18.768s8.42-18.768 18.77-18.768c3.59 0 6.934 1.031 9.787 2.786l-13.84 13.84c-1.758 1.757-1.758 4.607 0 6.364zm72.535 107.363c.045-5.159 1.096-9.065 3.01-10.962.836-.828 1.785-1.186 2.932-1.099.895.071 2.492.931 4.293 3.131 2.67 3.26 5.252 8.945 5.139 14.297l-15.374-5.367zm11.268-31.374v12.331h-6.832V535.25h6.832v32.792h-2.332v10.502h2.332zm69.166 37.083h-60.068c.031-.973-.008-1.947-.105-2.919h59.631c.225.924.409 1.896.542 2.919zm-17.592-19.752c1.551.354 11.922 3.106 16.107 13.833h-59.178c-1.037-4.649-3.273-8.964-5.668-11.888-.594-.727-1.201-1.373-1.816-1.945h50.555zm-20.24-5V535.25h6.293v55.625h-6.293zm15.959-88.967c0 10.914-8.928 19.843-19.842 19.843H273.549c11.188-1.923 19.73-11.688 19.73-23.418 0-13.105-10.662-23.768-23.766-23.768-13.107 0-23.77 10.662-23.77 23.768 0 11.729 8.543 21.495 19.734 23.418h-41.766c11.227-1.89 19.812-11.661 19.812-23.418 0-13.105-10.662-23.768-23.766-23.768-13.107 0-23.77 10.662-23.77 23.768 0 11.756 8.584 21.526 19.812 23.418H207.9c-10.914 0-19.844-8.929-19.844-19.843v-29.574h208.5v29.574zm-207.356-69.974v-49.005h3.641v49.005h-3.641zm8.393 3.935h-3.43l23.057-54.975h3.432l-23.059 54.975zm44.039-53.781c14.842 0 24.572 11.831 24.572 25.203.07.07.07.07 0 .14 0 13.371-9.871 25.343-24.711 25.343-14.842 0-24.574-11.832-24.574-25.203v-.14c0-13.372 9.871-25.343 24.713-25.343zM396.557 436.5H289.943c1.354-2.88 3.299-6.589 5.791-10.235 4.375-6.396 11.396-13.942 19.98-13.52 10.984.529 17.758 5.899 23.734 10.636 4.455 3.532 8.664 6.869 13.732 6.869 7.047 0 12.215-5.806 16.775-10.927 3.617-4.063 7.386-7.846 10.75-8.265 4.163-.518 9.291.433 15.85 7.894V436.5zm0-29.92c-4.695-3.472-8.784-4.663-14.85-4.522-7.428.173-13.764 5.993-18.471 11.28-3.465 3.89-7.045 7.912-10.055 7.912-1.934 0-4.949-2.391-8.143-4.922-6.336-5.024-15.016-11.904-28.891-12.573-13.117-.635-22.807 9.562-28.967 19.116V378.5h109.375v28.08zm0-64.247h-208.5v-24.741c0-10.914 8.93-19.843 19.844-19.843h168.814c10.914 0 19.842 8.929 19.842 19.843v24.741zm27.25 2.033v-30.173c5.322 1.012 16.277 4.314 26.723 11.668 16.129 11.355 24.307 27.103 24.307 46.805V471.5h-23.002v-88.438c0-11.639-3.961-23.083-11.771-30.067-4.734-4.232-10.431-6.931-16.257-8.629zm11.8 182.649c-1.26-.744-2.035-1.753-2.305-2.998-.498-2.294.625-5.493 3.25-9.251 2.287-3.277 3.396-6.314 3.816-8.991 2.391 1.371 5.123 2.501 8.107 3.327-1.055 1.452-2.305 2.819-3.537 4.158-1.941 2.109-3.949 4.291-5.227 6.846-.871 1.744-1.016 3.567-.418 5.273.371 1.061.986 1.965 1.67 2.716-2.356.239-4.574-.619-5.356-1.08zm26.36 3.273c-.041-.813-.08-1.556-.143-2.194-.486-5.037-3.248-8.086-7.387-8.154-4.416-.049-6.727 2.45-8.504 5.159-.316.466-.66.849-1.018 1.191-.748-.569-1.535-1.345-1.846-2.235-.242-.688-.172-1.375.221-2.16 1.025-2.051 2.758-3.934 4.592-5.927 1.697-1.844 3.432-3.738 4.791-5.937 2.439.413 5.002.635 7.643.635 1.27 0 2.52-.057 3.748-.155 1.354 9.631 1.711 10.838 2.906 14.865.268.905.58 1.96.959 3.304.643 2.273.525 4.018-.348 5.184-1.143 1.523-3.502 2.083-4.945 2.244-.396-1.76-.564-3.734-.669-5.82zm17.621 10.344c-1.811 1.818-4.236 2.702-7.418 2.702-3.52 0-5.781-.95-7.271-2.532 2.119-.464 4.85-1.515 6.662-3.911 1.877-2.482 2.275-5.702 1.182-9.57-.387-1.369-.705-2.443-.979-3.365-1.139-3.836-1.449-4.891-2.744-14.117 4.145-.808 7.906-2.177 11.08-3.971.273 9.821 2.553 23.75 2.9 25.822-.031.966-.342 5.856-3.412 8.942z"/></g></g></switch></svg>