<svg id="Layer_1" data-name="Layer 1" xmlns="http://www.w3.org/2000/svg" xmlns:xlink="http://www.w3.org/1999/xlink" viewBox="0 0 177 189"><defs><style>.cls-1{fill:#49494a;}.cls-2{opacity:0.7;}.cls-3{fill:#d2e4f4;}.cls-4{fill:#43af5a;}.cls-5{fill:#fc0;}.cls-6{fill:#c3996b;}.cls-7{fill:url(#linear-gradient);}.cls-8{fill:url(#linear-gradient-2);}.cls-9{fill:url(#linear-gradient-3);}.cls-10{fill:url(#linear-gradient-4);}.cls-11{fill:url(#linear-gradient-5);}.cls-12{fill:url(#linear-gradient-6);}.cls-13{fill:url(#linear-gradient-7);}</style><linearGradient id="linear-gradient" x1="91.71089" y1="102.56287" x2="7.93009" y2="105.74442" gradientUnits="userSpaceOnUse"><stop offset="0" stop-color="#ec1c24"/><stop offset="1" stop-color="#f6921e"/></linearGradient><linearGradient id="linear-gradient-2" x1="89.79472" y1="52.10378" x2="6.01392" y2="55.28533" xlink:href="#linear-gradient"/><linearGradient id="linear-gradient-3" x1="90.81277" y1="77.21213" x2="7.14262" y2="80.38947" xlink:href="#linear-gradient"/><linearGradient id="linear-gradient-4" x1="91.77032" y1="102.42766" x2="8.10018" y2="105.60501" xlink:href="#linear-gradient"/><linearGradient id="linear-gradient-5" x1="90.27733" y1="63.1121" x2="6.60718" y2="66.28944" xlink:href="#linear-gradient"/><linearGradient id="linear-gradient-6" x1="89.85668" y1="52.0352" x2="6.18654" y2="55.21254" xlink:href="#linear-gradient"/><linearGradient id="linear-gradient-7" x1="179.28697" y1="59.1752" x2="78.31065" y2="63.14704" xlink:href="#linear-gradient"/></defs><title>cd-foundation-landscape</title><path class="cls-1" d="M9.78321,146.9498c-2.66075,0-3.98249-2.26591-3.98249-4.97842,0-2.72935,1.339-4.978,3.98249-4.978a3.89421,3.89421,0,0,1,3.176,1.54484l1.339-1.13316A5.54329,5.54329,0,0,0,9.766,135.27679c-3.828,0-5.92217,3.17556-5.92217,6.67734,0,3.48493,2.04281,6.7291,5.95668,6.7291a5.49874,5.49874,0,0,0,4.51456-2.14552l-1.30449-1.21862A3.88084,3.88084,0,0,1,9.78321,146.9498Z"/><path class="cls-1" d="M22.77878,135.27679a17.74371,17.74371,0,0,0-3.86211.41169v12.49719a15.75786,15.75786,0,0,0,3.84526.49756c3.91387,0,6.09391-3.20966,6.09391-6.79772C28.85584,138.34922,26.624,135.27679,22.77878,135.27679ZM22.72742,146.898a6.26,6.26,0,0,1-2.02555-.32581v-9.33849a9.20507,9.20507,0,0,1,2.02555-.22351c2.678,0,4.18874,2.18045,4.18874,4.87529C26.91616,144.66664,25.50855,146.898,22.72742,146.898Z"/><path class="cls-1" d="M34.04092,146.31461a1.13348,1.13348,0,1,0,1.09865,1.1159A1.11,1.11,0,0,0,34.04092,146.31461Z"/><polygon class="cls-1" points="39.947 148.581 41.732 148.581 41.732 142.727 47.689 142.727 47.826 141.062 41.732 141.062 41.732 137.027 48.186 137.027 48.324 135.362 39.947 135.362 39.947 148.581"/><path class="cls-1" d="M58.19551,135.27679c-3.93113,0-5.97394,3.19281-5.97394,6.67734,0,3.50219,2.04281,6.7291,5.97394,6.7291,3.84526,0,5.93942-3.22691,5.93942-6.7291C64.13493,138.4696,62.04077,135.27679,58.19551,135.27679Zm-.01726,11.673c-2.66074,0-3.99974-2.26591-3.99974-4.97842,0-2.72935,1.32174-4.978,3.99974-4.978,2.66074,0,3.99974,2.24865,3.99974,4.978C62.178,144.64938,60.839,146.9498,58.17825,146.9498Z"/><path class="cls-1" d="M76.18675,144.18593a2.83379,2.83379,0,0,1-3.02107,2.72936c-2.11142,0-3.09009-1.32175-3.09009-2.72936v-8.82368l-1.7852.13764v8.82327c0,2.96971,2.489,4.34281,4.87529,4.34281,2.24865,0,4.80627-1.44171,4.80627-4.34281v-8.96091l-1.7852.13764Z"/><path class="cls-1" d="M91.32825,146.40048c-2.249-2.88384-5.047-10.17952-6.86673-11.03823H82.69358v13.21826h1.78519l-.01725-10.69474c2.11142,3.26183,4.61768,9.88781,6.86673,10.69474H93.113V135.36225l-1.78479.13764Z"/><path class="cls-1" d="M101.95479,135.27679a17.74076,17.74076,0,0,0-3.8621.41169v12.49719a15.75716,15.75716,0,0,0,3.84485.49756c3.91387,0,6.09391-3.20966,6.09391-6.79772C108.03145,138.34922,105.79964,135.27679,101.95479,135.27679ZM101.903,146.898a6.26206,6.26206,0,0,1-2.02556-.32581v-9.33849a9.21022,9.21022,0,0,1,2.02556-.22351c2.678,0,4.18915,2.18045,4.18915,4.87529C106.09218,144.66664,104.68456,146.898,101.903,146.898Z"/><path class="cls-1" d="M116.01532,135.36225c-2.06006,4.017-4.15464,8.80642-4.77258,13.21826h1.78561a27.43884,27.43884,0,0,1,.78968-3.58765h6.23113a27.43721,27.43721,0,0,1,.78968,3.58765h1.78561c-.61794-4.41184-2.71251-9.20126-4.77258-13.21826Zm-1.66564,7.96539a53.83213,53.83213,0,0,1,2.59254-6.12842,57.03744,57.03744,0,0,1,2.57529,6.12842Z"/><polygon class="cls-1" points="125.2 136.873 128.839 136.873 128.839 148.581 130.625 148.581 130.625 136.873 134.075 136.873 134.212 135.362 125.337 135.362 125.2 136.873"/><polygon class="cls-1" points="138.933 148.581 140.719 148.581 140.719 135.362 138.933 135.5 138.933 148.581"/><path class="cls-1" d="M151.36261,135.27679c-3.93113,0-5.97393,3.19281-5.97393,6.67734,0,3.50219,2.0428,6.7291,5.97393,6.7291,3.84485,0,5.93942-3.22691,5.93942-6.7291C157.302,138.4696,155.20746,135.27679,151.36261,135.27679Zm-.01725,11.673c-2.66075,0-4.00016-2.26591-4.00016-4.97842,0-2.72935,1.32216-4.978,4.00016-4.978,2.66074,0,3.99933,2.24865,3.99933,4.978C155.34469,144.64938,154.0061,146.9498,151.34536,146.9498Z"/><path class="cls-1" d="M170.17764,135.49989v10.90059c-2.24906-2.88384-5.047-10.17952-6.86633-11.03823H161.543v13.21826h1.7856l-.01725-10.69474c2.111,3.26183,4.61727,9.88781,6.86633,10.69474h1.7856V135.36225Z"/><g class="cls-2"><path class="cls-1" d="M6.50062,179.26953H19.1393v1.82813H4.32094V155.50391H6.50062Z"/><path class="cls-1" d="M34.8014,181.09766a9.94791,9.94791,0,0,1-.40429-2.6543,7.33528,7.33528,0,0,1-2.82129,2.22363,8.64065,8.64065,0,0,1-3.62988.78223,6.37552,6.37552,0,0,1-4.43848-1.5293,4.98174,4.98174,0,0,1-1.69629-3.86719,5.09043,5.09043,0,0,1,2.31152-4.39453,11.107,11.107,0,0,1,6.44239-1.61718h3.81445v-2.16211a4.16637,4.16637,0,0,0-1.25684-3.208,5.19515,5.19515,0,0,0-3.665-1.16895,5.73582,5.73582,0,0,0-3.63867,1.125,3.34274,3.34274,0,0,0-1.4414,2.707l-2.10938-.01757a4.89135,4.89135,0,0,1,2.10938-3.92871,8.12232,8.12232,0,0,1,5.18554-1.66114,7.40875,7.40875,0,0,1,5.01856,1.59082,5.70824,5.70824,0,0,1,1.88965,4.43848v9a11.163,11.163,0,0,0,.58007,4.13086v.21094ZM28.192,179.58594a7.06183,7.06183,0,0,0,3.77051-1.01953,5.99921,5.99921,0,0,0,2.417-2.72461v-4.1836H30.61781a9.42552,9.42552,0,0,0-4.92187,1.15137,3.45558,3.45558,0,0,0-1.77539,3.06738,3.40042,3.40042,0,0,0,1.18652,2.6543A4.47,4.47,0,0,0,28.192,179.58594Z"/><path class="cls-1" d="M44.08265,162.07812l.07032,3.252a7.55249,7.55249,0,0,1,2.67187-2.68067,6.94369,6.94369,0,0,1,3.53321-.92285,5.70522,5.70522,0,0,1,4.55273,1.72266,7.7694,7.7694,0,0,1,1.51172,5.168v12.48047H54.3307v-12.498a5.81076,5.81076,0,0,0-1.081-3.79688,4.23511,4.23511,0,0,0-3.40137-1.248,5.32054,5.32054,0,0,0-3.4541,1.22168,7.15676,7.15676,0,0,0-2.22363,3.2959v13.02539h-2.0918V162.07812Z"/><path class="cls-1" d="M61.01039,171.41211a11.46434,11.46434,0,0,1,1.97754-7.05762,6.36477,6.36477,0,0,1,5.37012-2.62793,6.614,6.614,0,0,1,5.87109,3.041V154.09766h2.0918v27H74.35219l-.08789-2.53125a6.79283,6.79283,0,0,1-5.94141,2.88281,6.34186,6.34186,0,0,1-5.29981-2.64551,11.52293,11.52293,0,0,1-2.01269-7.14551Zm2.127.36914a9.91822,9.91822,0,0,0,1.459,5.73926,4.71882,4.71882,0,0,0,4.11328,2.10058,5.66155,5.66155,0,0,0,5.51953-3.42773v-8.92969a5.61934,5.61934,0,0,0-5.48438-3.709,4.7754,4.7754,0,0,0-4.13086,2.083A10.599,10.599,0,0,0,63.13734,171.78125Z"/><path class="cls-1" d="M93.24867,176.26367A2.99708,2.99708,0,0,0,91.99183,173.75a9.69288,9.69288,0,0,0-3.78808-1.48535,17.09022,17.09022,0,0,1-3.92871-1.23047,5.23378,5.23378,0,0,1-2.07422-1.69629,4.23191,4.23191,0,0,1-.67676-2.42578,4.52539,4.52539,0,0,1,1.88086-3.71777,7.59718,7.59718,0,0,1,4.81641-1.46778,7.8195,7.8195,0,0,1,5.10644,1.57324,5.04925,5.04925,0,0,1,1.92481,4.1045H93.1432a3.40615,3.40615,0,0,0-1.39746-2.77735,6.308,6.308,0,0,0-6.85547-.18457,2.84775,2.84775,0,0,0-1.25683,2.39942,2.59393,2.59393,0,0,0,1.04589,2.20605,11.06289,11.06289,0,0,0,3.81446,1.43262,17.92813,17.92813,0,0,1,4.14844,1.38867,5.37269,5.37269,0,0,1,2.04785,1.77539,4.882,4.882,0,0,1-1.27442,6.36328,8.29832,8.29832,0,0,1-5.07129,1.44141,8.51956,8.51956,0,0,1-5.38769-1.6084,4.95131,4.95131,0,0,1-2.06543-4.06934h2.10937a3.65778,3.65778,0,0,0,1.55567,2.874,6.359,6.359,0,0,0,3.78808,1.02832,5.97716,5.97716,0,0,0,3.55078-.9668A2.90154,2.90154,0,0,0,93.24867,176.26367Z"/><path class="cls-1" d="M107.11781,179.67383a5.55451,5.55451,0,0,0,3.68262-1.23926,4.36133,4.36133,0,0,0,1.6084-3.208h2.02148a5.95545,5.95545,0,0,1-1.08984,3.17285,6.82779,6.82779,0,0,1-2.66309,2.24121,8.02568,8.02568,0,0,1-3.55957.8086,7.34758,7.34758,0,0,1-5.93262-2.60156,10.51731,10.51731,0,0,1-2.18847-6.9961v-.63281a11.88982,11.88982,0,0,1,.98437-4.97461,7.58573,7.58573,0,0,1,2.82129-3.33984,7.78814,7.78814,0,0,1,4.29785-1.17774,7.33448,7.33448,0,0,1,5.15918,1.86328,6.79423,6.79423,0,0,1,2.1709,4.9043h-2.02148a5.09,5.09,0,0,0-5.3086-4.97461,5.24472,5.24472,0,0,0-4.4209,2.05664,9.3053,9.3053,0,0,0-1.57324,5.76563v.61523a9.09775,9.09775,0,0,0,1.57324,5.67774A5.28072,5.28072,0,0,0,107.11781,179.67383Z"/><path class="cls-1" d="M130.63734,181.09766a9.9475,9.9475,0,0,1-.40429-2.6543,7.33542,7.33542,0,0,1-2.82129,2.22363,8.64066,8.64066,0,0,1-3.62989.78223,6.37551,6.37551,0,0,1-4.43847-1.5293,4.98174,4.98174,0,0,1-1.69629-3.86719,5.09043,5.09043,0,0,1,2.31152-4.39453A11.107,11.107,0,0,1,126.401,170.041h3.81446v-2.16211a4.16637,4.16637,0,0,0-1.25684-3.208,5.19515,5.19515,0,0,0-3.665-1.16895,5.73582,5.73582,0,0,0-3.63867,1.125,3.34273,3.34273,0,0,0-1.44141,2.707l-2.10937-.01757a4.89134,4.89134,0,0,1,2.10937-3.92871,8.12235,8.12235,0,0,1,5.18555-1.66114,7.40877,7.40877,0,0,1,5.01856,1.59082,5.7082,5.7082,0,0,1,1.88964,4.43848v9a11.16276,11.16276,0,0,0,.58008,4.13086v.21094Zm-6.60937-1.51172a7.06186,7.06186,0,0,0,3.77051-1.01953,5.99921,5.99921,0,0,0,2.417-2.72461v-4.1836h-3.76172a9.42558,9.42558,0,0,0-4.92188,1.15137,3.4556,3.4556,0,0,0-1.77539,3.06738,3.40043,3.40043,0,0,0,1.18653,2.6543A4.47,4.47,0,0,0,124.028,179.58594Z"/><path class="cls-1" d="M153.20765,171.78125a11.45424,11.45424,0,0,1-1.96875,7.05762,6.27063,6.27063,0,0,1-5.27343,2.61035,7.04019,7.04019,0,0,1-5.97657-2.74219v9.70313h-2.09179v-26.332h1.95117l.10547,2.68946a6.74934,6.74934,0,0,1,5.959-3.041,6.32619,6.32619,0,0,1,5.35254,2.584,11.7073,11.7073,0,0,1,1.94238,7.17187Zm-2.10937-.36914a9.78251,9.78251,0,0,0-1.49414-5.74805,4.81787,4.81787,0,0,0-4.166-2.10937,5.55011,5.55011,0,0,0-5.44922,3.63867v9.123a5.58531,5.58531,0,0,0,2.16211,2.49609,6.23488,6.23488,0,0,0,3.32227.86133,4.77312,4.77312,0,0,0,4.13965-2.11817A10.65129,10.65129,0,0,0,151.09828,171.41211Z"/><path class="cls-1" d="M165.23109,181.44922a8.25643,8.25643,0,0,1-4.38574-1.19531,8.14608,8.14608,0,0,1-3.0498-3.33106,10.38521,10.38521,0,0,1-1.08985-4.79V171.377a11.192,11.192,0,0,1,1.06348-4.93945,8.461,8.461,0,0,1,2.96191-3.4541,7.30691,7.30691,0,0,1,4.11328-1.25684,6.86739,6.86739,0,0,1,5.49317,2.36426,9.5901,9.5901,0,0,1,2.03027,6.46v1.17774H158.7975v.40429a7.96384,7.96384,0,0,0,1.85449,5.3877,5.89959,5.89959,0,0,0,4.667,2.15332,6.85378,6.85378,0,0,0,2.9795-.61524,6.60809,6.60809,0,0,0,2.34667-1.96875l1.31836,1.002A7.67438,7.67438,0,0,1,165.23109,181.44922Zm-.38672-17.92969a5.25853,5.25853,0,0,0-3.999,1.74024,8.03939,8.03939,0,0,0-1.97754,4.67578H170.276V169.707a6.97988,6.97988,0,0,0-1.56445-4.46484A4.84826,4.84826,0,0,0,164.84437,163.51953Z"/></g><path class="cls-3" d="M71.87852,65.1931c-1.6141-2.19041-4.45863-3.29053-6.08524-5.071V54.03685c-.64927-.70906-2.38283-1.38579-3.04261-2.02841-1.31956-1.28511.37711-1.023-1.01421-2.02841-.69569-.5027-3.33579.42921-4.05682,0-1.8027-1.07317-2.04117,1.60255-4.05682,1.0142-.40314-.11771-1.21458,3.51543-1.6281,3.418a24.95515,24.95515,0,0,0-2.54767-.46093c-.16359-.02055-.32659-.04223-.49192-.05985q-.24969-.02724-.5023-.04955c-.34482-.03039-.692-.05672-1.04423-.07461-.0439-.00226-.08832-.00379-.13254-.00546l-.13254-.00545c-.41106-.017-.82538-.029-1.24714-.029a20.58935,20.58935,0,0,0-4.44314.50264,24.27616,24.27616,0,0,0-3.34039,1.00147q-1.10459.41787-2.18809.94328c-.68.32979-1.34962.69549-2.00933,1.08506-.03977.02348-.08146.04177-.12117.06544a28.78341,28.78341,0,0,0-8.26668,7.432q-.75165,1.00692-1.40827,2.084-.32739.538-.62859,1.09224a24.79094,24.79094,0,0,0-1.092,2.27807,22.31423,22.31423,0,0,0-.40654,16.48953q5.96834-4.82214,11.92329-9.65932,5.30646-4.3122,10.59788-8.65067c2.158-1.75834,8.71157-5.86348,11.41222-1.7704,6.34067,9.60986,11.36608,13.42476,16.80671,21.60684l-.15-26.73466Z"/><path class="cls-4" d="M72.27455,87.32772l-16.349-21.39361c-3.46746-3.46747-9.25425.69862-11.4122,2.457q-5.28771,4.34612-10.59789,8.65067-5.95425,4.83861-11.92329,9.65932c.1344.37282.25424.752.40654,1.11666a24.78691,24.78691,0,0,0,1.092,2.278q.301.55425.62859,1.09231.6547,1.07609,1.40828,2.084a28.78406,28.78406,0,0,0,8.26667,7.43186c.03971.02367.08141.042.12117.06544.65971.38964,1.32934.75534,2.00932,1.08506q1.08154.5244,2.1881.94335a24.29749,24.29749,0,0,0,3.34039,1.00141,20.59429,20.59429,0,0,0,4.44315.50263c.43094,0,.85436-.01184,1.2742-.02966l.10381-.00406c.03464-.00119.06936-.00232.10367-.00405.35772-.0177.70946-.04509,1.05933-.07563.14717-.01315.29454-.0258.44031-.04122.27281-.02834.54221-.06245.81041-.09855q.60872-.08211,1.20228-.191-.5937.10889-1.20233.191c6.482-.89295,11.64443-4.12062,16.51387-9.19587l.04242.05673c2.06127-2.14692,5.21771-3.15508,7.25325-5.9544Z"/><path class="cls-3" d="M155.12807,75.101a22.84739,22.84739,0,0,0-.591-2.49646,24.49916,24.49916,0,0,0-2.57347-5.76336q-.6548-1.07606-1.40827-2.084a28.35789,28.35789,0,0,0-4.269-4.5556q-.94418-.8092-1.94734-1.53024-1.00123-.72014-2.05036-1.34616-1.047-.62516-2.1305-1.1505-1.08164-.52442-2.18809-.94328-1.10468-.41808-2.22287-.72469c-.42488-.11638-.85064-.20822-1.27612-.29926-.6925-.14811-1.38467-.27413-2.07391-.35254a19.54718,19.54718,0,0,0-2.21063-.12762c-.42163,0-.83621.01158-1.2472.029-.08818.00366-.1771.00652-.26495.01091q-.528.02742-1.0443.07461c-.16845.01477-.33564.03179-.5023.04955-.16506.018-.32852.03884-.49192.05985-.78733.09876-1.54959.242-2.3.40713-.22306.04908-.44192.107-.66191.16187q-.821.20471-1.6155.46253c-.13134.0427-.27046.07-.40081.11479-.0798.0274-.15455.066-.23409.09423-.70533.25092-1.40076.523-2.07769.83694-.038.01756-.07376.04084-.11173.05859-.16606.07728-.32374.17551-.48827.25657a27.07165,27.07165,0,0,0-3.74226,2.23544q-1.046.74966-2.05994,1.60845-1.015.85829-2.00534,1.82325-.99146.96432-1.96557,2.03234-1.36453,1.49352-2.71173,3.18357-1.35068,1.68874-2.70429,3.56643-1.35705,1.87649-2.73693,3.93427-1.3833,2.05654-2.80963,4.28686.89171,1.39018,1.76213,2.70867c.05853.08858.11565.17112.17411.2593.33272.50336.663.98983.99249,1.4783.18654.27619.37561.56421.56136.836.34023.498.68086.99908,1.01856,1.48056q1.47248,2.09974,2.92554,3.98554c.21547.27858.43108.5398.64655.81114.27033.34036.54053.68877.81113,1.01763.30319.36842.60771.71617.91183,1.0699.07335.08572.14677.17351.22019.25837.5972.68711,1.19613,1.35546,1.80024,1.98485l.00426.00459v-.00007l.00007.00007.04256-.05666c.531.55337,1.0693,1.06531,1.60851,1.57413a6.865,6.865,0,0,0,.65206-.45435c4.08476-3.26784,8.31816-6.31288,12.3287-9.655,2.15377-1.78249,3.78775-1.70814,5.94153-.07422,1.34642,1.00992,2.70761,1.99623,4.05909,2.99717q6.82143,5.05227,13.72579,10.015c4.93826-4.08229,7.27684-10.71466,7.27684-20.24091A22.32929,22.32929,0,0,0,155.12807,75.101Zm-10.25539-5.67518a10.39966,10.39966,0,0,1-10.40156,10.37689l-.02135.00107a10.40054,10.40054,0,0,1-10.378-10.42291l.00006-.0036v-.00279A10.2925,10.2925,0,0,1,134.281,58.99923c.06338-.00054.12676-.00027.19014.00039.00891.00007.01788-.00006.0268.00007a10.26188,10.26188,0,0,1,10.37549,10.14686Q144.87491,69.2862,144.87268,69.42586Z"/><path class="cls-4" d="M134.47112,89.24049c-1.35148-1.00094-2.71267-1.98725-4.05909-2.99717-2.15378-1.63392-3.78776-1.70827-5.94153.07422-4.01054,3.34212-8.24394,6.38716-12.3287,9.655a6.865,6.865,0,0,1-.65206.45435c.85164.80362,1.71139,1.57034,2.59236,2.25871q.71923.56222,1.45483,1.07157a27.12337,27.12337,0,0,0,3.02217,1.81953,24.12042,24.12042,0,0,0,7.8358,2.47185c.26821.03611.53755.07023.81034.09856.14578.01543.29322.02806.44039.04123.34987.03053.70161.05793,1.05919.07562.06877.00352.1386.00512.20763.00811.41976.01782.84326.02966,1.27413.02966,1.50863,0,2.91889-.08014,4.28454-.19758,5.83625-.502,10.3838-2.08587,13.72579-4.84862Q141.29208,94.28855,134.47112,89.24049Z"/><path class="cls-5" d="M134.49792,58.99969c-.00892-.00013-.01789,0-.0268-.00007-.06338-.00066-.12676-.00093-.19014-.00039a10.2925,10.2925,0,0,0-10.20917,10.37529v.00279l-.00006.0036a10.40054,10.40054,0,0,0,10.378,10.42291l.02135-.00107a10.39966,10.39966,0,0,0,10.40156-10.37689q.0023-.13965.00073-.27931A10.26188,10.26188,0,0,0,134.49792,58.99969Z"/><path class="cls-6" d="M49.68806,104.04855q1.2175-.16419,2.37529-.43533,1.15886-.27082,2.264-.64641a29.83063,29.83063,0,0,0,11.917-8.05739l-.04243-.05673C61.3325,99.928,56.17006,103.15561,49.68806,104.04855Z"/><path class="cls-4" d="M47.27439,104.268c.03465-.00119.06943-.00232.10375-.00405.35765-.01769.70939-.04509,1.05926-.07562-.34987.03053-.70161.05793-1.05933.07562C47.34376,104.26569,47.309,104.26682,47.27439,104.268Z"/><path class="cls-7" d="M47.27439,104.268c.03465-.00119.06943-.00232.10375-.00405.35765-.01769.70939-.04509,1.05926-.07562-.34987.03053-.70161.05793-1.05933.07562C47.34376,104.26569,47.309,104.26682,47.27439,104.268Z"/><path class="cls-3" d="M47.27606,53.76183l-.13248-.00545c-.41112-.017-.82544-.029-1.2472-.029.42176,0,.83608.012,1.24714.029Z"/><path class="cls-8" d="M47.27606,53.76183l-.13248-.00545c-.41112-.017-.82544-.029-1.2472-.029.42176,0,.83608.012,1.24714.029Z"/><path class="cls-6" d="M49.803,103.91134q1.21591-.164,2.37216-.43474,1.15728-.27044,2.261-.64557a29.7921,29.7921,0,0,0,11.90131-8.04671l-.04244-.05666C61.43209,99.7962,56.27641,103.0196,49.803,103.91134Z"/><path class="cls-9" d="M72.5999,87.12631a71.95783,71.95783,0,0,1-6.26244,7.658A29.7921,29.7921,0,0,1,54.43615,102.831q-1.10466.37477-2.261.64557-1.15728.27042-2.37209.43474c-.26789.03608-.53691.07016-.80935.09842-.1456.01544-.29274.02807-.43975.04123-.34941.03047-.70069.0578-1.05785.07551-.03428.00174-.069.00281-.10364.004l-.10364.00408c-.4193.01777-.84215.0296-1.27255.0296a20.56656,20.56656,0,0,1-4.43728-.502,24.26152,24.26152,0,0,1-3.33593-1.00006q-1.10316-.41747-2.1852-.94211-1.08011-.52371-2.12773-1.149A28.74507,28.74507,0,0,1,25.67443,93.149q-.75063-1.00563-1.40639-2.08116-.327-.53724-.62779-1.09086a24.75906,24.75906,0,0,1-1.09059-2.275,22.5167,22.5167,0,0,1,0-17.583A24.76031,24.76031,0,0,1,23.64025,67.844q.3006-.55348.62779-1.09079.65382-1.0746,1.40639-2.08123a28.74547,28.74547,0,0,1,8.25573-7.42213q1.04573-.62434,2.12773-1.149,1.08011-.52371,2.1852-.94205A24.24241,24.24241,0,0,1,41.579,54.15865a20.56217,20.56217,0,0,1,4.43728-.502c.42124,0,.835.012,1.24555.02893l.13231.00541c.04417.00167.08854.00321.13237.00548.35182.01784.69849.04417,1.04289.07451q.25207.02265.50163.04951c.16511.01758.32789.03923.49127.05974a24.92754,24.92754,0,0,1,2.54429.46034q.61944.14594,1.22317.32228a24.51762,24.51762,0,0,1,5.70048,2.49825q1.08011.643,2.12105,1.39664a36.29926,36.29926,0,0,1,4.051,3.43609q.98839.96264,1.95967,2.02523l.0401-.06A76.05551,76.05551,0,0,1,72.5862,70.6667C75.21262,66.524,79.181,60.3,80.59857,58.23683c.56872-.82778,1.16222-1.66913,1.76957-2.51583-6.54724-7.952-14.4108-14.59749-24.915-17.42531-.0258-.007-.05092-.01456-.07671-.02151-.50751-.13558-1.01957-.26468-1.53951-.38216q-.10824-.02464-.21676-.04891c-.50117-.11106-1.00921-.21169-1.52206-.30537-.10164-.01858-.20181-.039-.30378-.0568-.59324-.10391-1.19323-.19779-1.80264-.27771l-.06963-.00909q-.49625-.06435-1.00052-.11694c-.06381-.00681-.12742-.0139-.19151-.02031-.298-.03034-.59865-.05673-.90042-.08126-.09261-.00755-.18476-.01583-.27777-.02278-.28019-.021-.56284-.03816-.8463-.05413-.10932-.00621-.2177-.0137-.32749-.01911-.28372-.014-.57025-.02372-.85725-.03261-.10692-.00334-.21263-.00848-.32008-.01109q-.58765-.01443-1.18441-.0149c-22.42536,0-42.08953,19.66416-42.08953,42.08946S23.59094,121,46.0163,121q.59589,0,1.18207-.0147c.1116-.00267.22145-.00822.33264-.01169.28012-.00876.55983-.01791.83674-.03148.11988-.00581.23822-.01423.35756-.021.26849-.01523.53665-.031.80206-.05072.10986-.00815.21831-.01824.32763-.02713.27624-.02258.55181-.04617.82477-.07357.09168-.00922.18249-.01964.27377-.02933.29308-.03127.585-.06428.87416-.101.06736-.00848.13425-.0177.20133-.02652q.47731-.063.94854-.13492l.10577-.01663c.5728-.08961,1.13637-.19278,1.69473-.30364.10651-.02125.21109-.04537.31714-.06742q.69561-.14375,1.37685-.30845c.09395-.02286.1869-.04684.28032-.0703q.7347-.18382,1.45283-.392l.11567-.03348c10.00819-2.9346,17.58722-9.3669,23.92785-17.03487-.98809-1.48057-1.64428-2.5902-1.95313-3.13233Z"/><path class="cls-10" d="M47.39249,104.13051c.03461-.0012.06936-.00227.10364-.004.35716-.01771.70844-.045,1.05785-.07551-.34941.03047-.70069.0578-1.05792.07551C47.46178,104.12824,47.4271,104.12931,47.39249,104.13051Z"/><polygon class="cls-11" points="67.202 63.959 67.162 64.019 67.162 64.019 67.202 63.959"/><path class="cls-12" d="M47.39416,53.691l-.13231-.00541c-.41055-.017-.82431-.02893-1.24555-.02893.42124,0,.835.012,1.24549.02893Z"/><path class="cls-13" d="M155.59227.16066v45.7029a41.32689,41.32689,0,0,0-25.397-9.04262q-.5972,0-1.18442.015c-.10738.00261-.21316.00775-.32007.01109-.287.009-.57346.01865-.85719.03261-.10978.00535-.21824.0129-.32762.01911-.28339.016-.56611.03308-.84616.05413-.093.007-.18517.01523-.27778.02278-.30183.02453-.6024.05092-.90049.08126-.064.00641-.12769.01356-.19144.02031q-.50377.05343-1.00059.11694l-.06962.00909c-.60968.07945-1.209.17447-1.80265.27771-.102.01784-.2022.03822-.3037.0568q-.77.13962-1.52206.30537-.10856.02416-.21677.04891c-14.653,3.31061-24.30519,13.91177-32.26884,25.5027l-.00167.0024c-.33625.4894-.656.98649-.98655,1.479-1.08545,1.6525-2.636,4.06663-4.16993,6.4706-2.01126,3.15224-3.98283,6.26966-4.79752,7.56379l9.95567,15.51408v.00007s10.62482,19.5368,29.78488,24.86134c.03863.01076.07712.02225.11567.03348.47824.13939.9633.269,1.45284.39211.09341.02339.18636.04737.28031.07023.45352.11059.91338.21222,1.37686.30845.106.022.21062.04617.31713.06742q.83694.167,1.69473.30364l.10564.01657q.4707.07287.94867.135c.06709.00875.134.018.20133.02659.28921.03675.58108.0697.8741.101.09134.00969.18208.02011.2737.02933.2731.0274.5486.051.82491.07357.10925.00889.21777.01905.32756.02713.26548.01972.53357.03542.80212.05072.11934.00675.23755.01517.35756.021.27685.01357.55663.02272.83674.03148.11119.00347.221.009.33264.01169q.58646.01423,1.182.0147c26.41086,0,41.69461-14.94977,42.08044-41.07224h.00915V.16066Zm-25.397,104.00353c-.43033,0-.85325-.01183-1.27249-.0296-.069-.003-.13865-.00461-.20734-.00809-.3571-.01771-.70838-.045-1.05779-.07551-.147-.01316-.29421-.02579-.43982-.04123-.27243-.02826-.54138-.06234-.80927-.09842a24.08727,24.08727,0,0,1-7.82547-2.46859,27.0823,27.0823,0,0,1-3.01813-1.81708q-.735-.50857-1.453-1.07014a39.81786,39.81786,0,0,1-4.19532-3.82781l-.0425.0566-.00007-.00007v.00007l-.00421-.00461c-.60333-.62852-1.20145-1.296-1.7979-1.98219-.0733-.0848-.1466-.17247-.21991-.25807-.3037-.35328-.60781-.70055-.91057-1.06847-.2703-.32843-.54012-.67637-.81008-1.01629-.21517-.271-.43053-.53183-.6457-.81008q-1.45537-1.88166-2.9217-3.98029c-.33725-.48085-.67744-.98121-1.01722-1.47856-.1855-.27149-.37427-.55909-.56057-.83493-.329-.4878-.65893-.97366-.99123-1.47636-.05834-.08807-.1154-.17046-.17387-.25893q-.87032-1.31775-1.75981-2.70514,1.4278-2.22615,2.806-4.28118,1.3815-2.05377,2.73326-3.929,1.35515-1.87394,2.70073-3.56172,1.34883-1.68651,2.70814-3.17937.97406-1.06617,1.963-2.0297.9902-.96313,2.0027-1.82082,1.01376-.85728,2.05717-1.60632a27.04085,27.04085,0,0,1,3.73733-2.23251c.16431-.08092.32181-.179.48766-.25619.03789-.01778.07357-.041.11153-.05854.6761-.31346,1.37057-.58522,2.075-.8358.07939-.0282.154-.06676.23375-.09415.13016-.04477.26909-.072.40026-.1146q.79323-.2576,1.6134-.46194c.21971-.05479.43828-.11266.661-.16164.74947-.16491,1.5107-.308,2.297-.40661.16318-.021.32642-.04176.49127-.05974.16645-.01777.33344-.03474.50163-.04951q.516-.04652,1.04295-.07451c.08774-.00441.17654-.00721.26461-.01089.41042-.01744.82445-.02893,1.24556-.02893a19.52427,19.52427,0,0,1,2.20771.12743,22.16334,22.16334,0,0,1,3.34555.6509q1.11489.30531,2.21995.72375,1.10315.41736,2.18519.94205,1.08011.52381,2.12773,1.149,1.04573.62426,2.04762,1.34438,1,.71907,1.94477,1.52821a28.32178,28.32178,0,0,1,4.26334,4.54954q.75064,1.00564,1.4064,2.08123a24.46705,24.46705,0,0,1,2.57009,5.75573,22.81416,22.81416,0,0,1,.59016,2.49318,22.30078,22.30078,0,0,1,.34527,3.90839C155.449,96.36926,147.654,104.16419,130.19523,104.16419Z"/></svg>