<svg id="Layer_1" data-name="Layer 1" xmlns="http://www.w3.org/2000/svg" xmlns:xlink="http://www.w3.org/1999/xlink" viewBox="0 0 452 128"><defs><style>.cls-1{fill:#49494a;}.cls-2{opacity:0.7;}.cls-3{fill:#d2e4f4;}.cls-4{fill:#43af5a;}.cls-5{fill:#fc0;}.cls-6{fill:#c3996b;}.cls-7{fill:url(#linear-gradient);}.cls-8{fill:url(#linear-gradient-2);}.cls-9{fill:url(#linear-gradient-3);}.cls-10{fill:url(#linear-gradient-4);}.cls-11{fill:url(#linear-gradient-5);}.cls-12{fill:url(#linear-gradient-6);}.cls-13{fill:url(#linear-gradient-7);}</style><linearGradient id="linear-gradient" x1="89.71089" y1="106.56287" x2="5.93009" y2="109.74442" gradientUnits="userSpaceOnUse"><stop offset="0" stop-color="#ec1c24"/><stop offset="1" stop-color="#f6921e"/></linearGradient><linearGradient id="linear-gradient-2" x1="87.79472" y1="56.10378" x2="4.01392" y2="59.28533" xlink:href="#linear-gradient"/><linearGradient id="linear-gradient-3" x1="88.81277" y1="81.21213" x2="5.14262" y2="84.38947" xlink:href="#linear-gradient"/><linearGradient id="linear-gradient-4" x1="89.77032" y1="106.42766" x2="6.10018" y2="109.60501" xlink:href="#linear-gradient"/><linearGradient id="linear-gradient-5" x1="88.27733" y1="67.1121" x2="4.60718" y2="70.28944" xlink:href="#linear-gradient"/><linearGradient id="linear-gradient-6" x1="87.85668" y1="56.0352" x2="4.18654" y2="59.21254" xlink:href="#linear-gradient"/><linearGradient id="linear-gradient-7" x1="177.28697" y1="63.1752" x2="76.31065" y2="67.14704" xlink:href="#linear-gradient"/></defs><title>cd-foundation-landscape-horizontal</title><path class="cls-1" d="M195.625,63.70248c-3.93381,0-5.88795-3.35006-5.88795-7.3604,0-4.03525,1.97966-7.35979,5.88795-7.35979a5.75744,5.75744,0,0,1,4.69554,2.284l1.97966-1.67533a8.19553,8.19553,0,0,0-6.70071-3.14656c-5.65956,0-8.7557,4.69494-8.7557,9.87218,0,5.15234,3.02021,9.94871,8.80672,9.94871a8.12959,8.12959,0,0,0,6.67459-3.17207l-1.92863-1.80168A5.73768,5.73768,0,0,1,195.625,63.70248Z"/><path class="cls-1" d="M214.83843,46.44439a26.23423,26.23423,0,0,0-5.71.60866V65.52967a23.29782,23.29782,0,0,0,5.68507.73561c5.78651,0,9.00961-4.74535,9.00961-10.05015C223.82314,50.98686,220.5235,46.44439,214.83843,46.44439Zm-.07593,17.18155a9.25516,9.25516,0,0,1-2.99469-.4817V49.33765a13.60934,13.60934,0,0,1,2.99469-.33045c3.95932,0,6.19289,3.2237,6.19289,7.20793C220.95539,60.32691,218.87429,63.62594,214.7625,63.62594Z"/><path class="cls-1" d="M231.48908,62.76337a1.67581,1.67581,0,1,0,1.6243,1.64982A1.64106,1.64106,0,0,0,231.48908,62.76337Z"/><polygon class="cls-1" points="240.22 66.113 242.86 66.113 242.86 57.459 251.667 57.459 251.869 54.997 242.86 54.997 242.86 49.033 252.403 49.033 252.606 46.571 240.22 46.571 240.22 66.113"/><path class="cls-1" d="M267.20069,46.44439c-5.812,0-8.83223,4.72045-8.83223,9.87218,0,5.17785,3.02021,9.94871,8.83223,9.94871,5.68507,0,8.78121-4.77086,8.78121-9.94871C275.9819,51.16484,272.88576,46.44439,267.20069,46.44439Zm-.02551,17.25809c-3.93381,0-5.91347-3.35006-5.91347-7.3604,0-4.03525,1.95415-7.35979,5.91347-7.35979,3.93381,0,5.91346,3.32454,5.91346,7.35979C273.08864,60.3014,271.109,63.70248,267.17518,63.70248Z"/><path class="cls-1" d="M293.80005,59.6162a4.18966,4.18966,0,0,1-4.46654,4.03525c-3.12165,0-4.56858-1.95415-4.56858-4.03525V46.57074l-2.63935.20349V59.81909c0,4.3906,3.6799,6.42068,7.20793,6.42068,3.32454,0,7.10588-2.13152,7.10588-6.42068V46.57074l-2.63934.20349Z"/><path class="cls-1" d="M316.18617,62.89032c-3.32515-4.26364-7.46184-15.05-10.15221-16.31958h-2.61383V66.11342h2.63935L306.034,50.30166c3.12166,4.8225,6.82706,14.61874,10.15221,15.81176h2.63874V46.57074l-2.63874.20349Z"/><path class="cls-1" d="M331.89709,46.44439a26.22989,26.22989,0,0,0-5.71.60866V65.52967a23.29678,23.29678,0,0,0,5.68446.73561c5.78651,0,9.00961-4.74535,9.00961-10.05015C340.88119,50.98686,337.58155,46.44439,331.89709,46.44439Zm-.07653,17.18155a9.258,9.258,0,0,1-2.9947-.4817V49.33765a13.6169,13.6169,0,0,1,2.9947-.33045c3.95931,0,6.19349,3.2237,6.19349,7.20793C338.01405,60.32691,335.933,63.62594,331.82056,63.62594Z"/><path class="cls-1" d="M352.685,46.57074c-3.04572,5.939-6.14247,13.02-7.05606,19.54268h2.63995a40.56568,40.56568,0,0,1,1.16751-5.3042h9.21249a40.56725,40.56725,0,0,1,1.1675,5.3042h2.63995c-.91359-6.52273-4.01034-13.6037-7.05606-19.54268Zm-2.46257,11.77651a79.58529,79.58529,0,0,1,3.833-9.06063,84.33005,84.33005,0,0,1,3.80745,9.06063Z"/><polygon class="cls-1" points="366.264 48.804 371.645 48.804 371.645 66.113 374.285 66.113 374.285 48.804 379.386 48.804 379.589 46.571 366.467 46.571 366.264 48.804"/><polygon class="cls-1" points="386.568 66.113 389.208 66.113 389.208 46.571 386.568 46.774 386.568 66.113"/><path class="cls-1" d="M404.94463,46.44439c-5.812,0-8.83223,4.72045-8.83223,9.87218,0,5.17785,3.02021,9.94871,8.83223,9.94871,5.68446,0,8.7812-4.77086,8.7812-9.94871C413.72583,51.16484,410.62909,46.44439,404.94463,46.44439Zm-.02551,17.25809c-3.9338,0-5.91407-3.35006-5.91407-7.3604,0-4.03525,1.95475-7.35979,5.91407-7.35979,3.93381,0,5.91286,3.32454,5.91286,7.35979C410.832,60.3014,408.85293,63.70248,404.91912,63.70248Z"/><path class="cls-1" d="M432.76191,46.77423V62.89032c-3.32515-4.26364-7.46184-15.05-10.1516-16.31958h-2.61444V66.11342h2.63995l-.02551-15.81176c3.121,4.8225,6.82645,14.61874,10.1516,15.81176h2.63995V46.57074Z"/><g class="cls-2"><path class="cls-1" d="M190.77182,111.48594H209.4576v2.70281H187.54924V76.34939h3.22258Z"/><path class="cls-1" d="M232.61342,114.18875a14.707,14.707,0,0,1-.59773-3.92427,10.84506,10.84506,0,0,1-4.17117,3.28755,12.7749,12.7749,0,0,1-5.36664,1.15649,9.426,9.426,0,0,1-6.56212-2.261,7.36533,7.36533,0,0,1-2.50789-5.71749,7.526,7.526,0,0,1,3.41749-6.49714q3.41751-2.391,9.52482-2.391h5.63952V94.64535a6.15981,6.15981,0,0,0-1.85819-4.74292,7.68084,7.68084,0,0,0-5.41861-1.72824,8.48016,8.48016,0,0,0-5.37964,1.66327,4.94209,4.94209,0,0,0-2.13106,4.00224l-3.11863-.026a7.23165,7.23165,0,0,1,3.11863-5.80844,12.00861,12.00861,0,0,1,7.66663-2.45592,10.9535,10.9535,0,0,1,7.41974,2.352,8.43943,8.43943,0,0,1,2.79377,6.56212v13.30615a16.50373,16.50373,0,0,0,.85762,6.10731v.31186Zm-9.7717-2.235a10.44057,10.44057,0,0,0,5.57455-1.50734,8.86959,8.86959,0,0,0,3.57343-4.02823v-6.18528h-5.56156a13.9353,13.9353,0,0,0-7.2768,1.70225,5.109,5.109,0,0,0-2.62484,4.535,5.02741,5.02741,0,0,0,1.75422,3.92427A6.60874,6.60874,0,0,0,222.84172,111.95374Z"/><path class="cls-1" d="M246.33539,86.06912l.10395,4.80788a11.166,11.166,0,0,1,3.95027-3.96325,10.26587,10.26587,0,0,1,5.2237-1.3644q4.522,0,6.731,2.54688t2.235,7.64064v18.45188h-3.09264V95.71088q-.026-3.76835-1.5983-5.61353t-5.02879-1.84519a7.8663,7.8663,0,0,0-5.10675,1.8062,10.58122,10.58122,0,0,0-3.28756,4.87286v19.25753h-3.09264V86.06912Z"/><path class="cls-1" d="M271.36239,99.86905q0-6.54912,2.92371-10.43441a9.41,9.41,0,0,1,7.93951-3.88529,9.77849,9.77849,0,0,1,8.68018,4.496V74.2703h3.09264v39.91845h-2.91072l-.12994-3.74235a10.04289,10.04289,0,0,1-8.78414,4.26212,9.37615,9.37615,0,0,1-7.83555-3.91128q-2.9757-3.91128-2.97569-10.56435Zm3.14461.54576q0,5.37963,2.157,8.48527a6.97663,6.97663,0,0,0,6.08133,3.10563,8.37039,8.37039,0,0,0,8.16041-5.06777V93.73575q-2.41693-5.48359-8.10843-5.48359A7.06027,7.06027,0,0,0,276.69,91.3318Q274.507,94.41145,274.507,100.41481Z"/><path class="cls-1" d="M319.02543,107.0419a4.43111,4.43111,0,0,0-1.85818-3.71637,14.33054,14.33054,0,0,0-5.60054-2.196,25.26755,25.26755,0,0,1-5.80845-1.81921,7.738,7.738,0,0,1-3.06665-2.50789,6.25672,6.25672,0,0,1-1.00056-3.58643,6.69066,6.69066,0,0,1,2.78078-5.49658,11.2321,11.2321,0,0,1,7.12087-2.17,11.5608,11.5608,0,0,1,7.54968,2.326,7.46513,7.46513,0,0,1,2.84575,6.06833H318.8695a5.03585,5.03585,0,0,0-2.06609-4.10619,9.32612,9.32612,0,0,0-10.13555-.27288,4.21026,4.21026,0,0,0-1.85818,3.54744,3.83505,3.83505,0,0,0,1.54632,3.26157,16.3564,16.3564,0,0,0,5.63952,2.11806,26.50635,26.50635,0,0,1,6.1333,2.0531,7.94316,7.94316,0,0,1,3.02767,2.62485,7.21783,7.21783,0,0,1-1.88417,9.40786,12.26875,12.26875,0,0,1-7.4977,2.13106,12.59591,12.59591,0,0,1-7.9655-2.37795,7.32029,7.32029,0,0,1-3.05366-6.01635h3.11863a5.40786,5.40786,0,0,0,2.3,4.24913,9.40146,9.40146,0,0,0,5.60054,1.52033,8.83706,8.83706,0,0,0,5.24969-1.42937A4.28984,4.28984,0,0,0,319.02543,107.0419Z"/><path class="cls-1" d="M339.53041,112.08368a8.212,8.212,0,0,0,5.44461-1.8322,6.448,6.448,0,0,0,2.378-4.74291h2.98868a8.805,8.805,0,0,1-1.61129,4.69094,10.09467,10.09467,0,0,1-3.93727,3.31354,11.86587,11.86587,0,0,1-5.26269,1.19547,10.86308,10.86308,0,0,1-8.77114-3.8463q-3.23558-3.84631-3.23558-10.34346v-.93559a17.57859,17.57859,0,0,1,1.45536-7.35476,11.2153,11.2153,0,0,1,4.17117-4.93783,11.51454,11.51454,0,0,1,6.35421-1.74123,10.84373,10.84373,0,0,1,7.62764,2.75478,10.045,10.045,0,0,1,3.20959,7.25082H347.353a7.52536,7.52536,0,0,0-7.84855-7.35477,7.75408,7.75408,0,0,0-6.53613,3.04066q-2.326,3.04066-2.326,8.52425v.90961q0,5.37963,2.326,8.3943A7.8073,7.8073,0,0,0,339.53041,112.08368Z"/><path class="cls-1" d="M374.30313,114.18875a14.70688,14.70688,0,0,1-.59774-3.92427,10.845,10.845,0,0,1-4.17117,3.28755,12.77484,12.77484,0,0,1-5.36664,1.15649,9.42591,9.42591,0,0,1-6.56211-2.261,7.36534,7.36534,0,0,1-2.5079-5.71749,7.526,7.526,0,0,1,3.4175-6.49714q3.4175-2.391,9.52481-2.391h5.63952V94.64535a6.1598,6.1598,0,0,0-1.85818-4.74292,7.68087,7.68087,0,0,0-5.41862-1.72824,8.48018,8.48018,0,0,0-5.37964,1.66327,4.94212,4.94212,0,0,0-2.13106,4.00224l-3.11863-.026a7.23168,7.23168,0,0,1,3.11863-5.80844,12.00863,12.00863,0,0,1,7.66663-2.45592,10.95348,10.95348,0,0,1,7.41974,2.352,8.43939,8.43939,0,0,1,2.79377,6.56212v13.30615a16.50373,16.50373,0,0,0,.85762,6.10731v.31186Zm-9.77171-2.235a10.44055,10.44055,0,0,0,5.57455-1.50734,8.86959,8.86959,0,0,0,3.57343-4.02823v-6.18528h-5.56155a13.93532,13.93532,0,0,0-7.27681,1.70225,5.109,5.109,0,0,0-2.62484,4.535,5.02738,5.02738,0,0,0,1.75423,3.92427A6.60872,6.60872,0,0,0,364.53142,111.95374Z"/><path class="cls-1" d="M407.67245,100.41481q0,6.57511-2.91072,10.43441a9.27086,9.27086,0,0,1-7.79657,3.8593q-5.76947,0-8.83611-4.05421V125h-3.09264V86.06912h2.88473l.15593,3.97625a9.97866,9.97866,0,0,1,8.81013-4.496,9.353,9.353,0,0,1,7.91352,3.82032Q407.67246,93.19,407.67245,99.973Zm-3.11862-.54576q0-5.37963-2.209-8.49826a7.123,7.123,0,0,0-6.15929-3.11863,8.20557,8.20557,0,0,0-8.05646,5.37963v13.48807a8.25756,8.25756,0,0,0,3.19659,3.69038,9.218,9.218,0,0,0,4.91184,1.27344,7.05685,7.05685,0,0,0,6.12031-3.13162Q404.55382,105.82044,404.55383,99.86905Z"/><path class="cls-1" d="M425.44864,114.70852a12.20676,12.20676,0,0,1-6.48415-1.76722,12.04369,12.04369,0,0,1-4.509-4.92483,15.35434,15.35434,0,0,1-1.61129-7.08189V99.81707a16.547,16.547,0,0,1,1.57231-7.30279,12.50932,12.50932,0,0,1,4.37907-5.10675,10.803,10.803,0,0,1,6.08133-1.85818,10.15313,10.15313,0,0,1,8.12143,3.49546Q436,92.54028,436,98.59561v1.74123H415.93682v.59774a11.7742,11.7742,0,0,0,2.7418,7.9655,8.72227,8.72227,0,0,0,6.9,3.1836,10.1331,10.1331,0,0,0,4.40507-.9096,9.77,9.77,0,0,0,3.46947-2.91072l1.94914,1.48135A11.34628,11.34628,0,0,1,425.44864,114.70852Zm-.57175-26.50834a7.77456,7.77456,0,0,0-5.9124,2.57287,11.88578,11.88578,0,0,0-2.92371,6.913h16.86658v-.33785a10.31959,10.31959,0,0,0-2.313-6.6011A7.168,7.168,0,0,0,424.87689,88.20018Z"/></g><path class="cls-3" d="M69.87852,69.1931c-1.6141-2.19041-4.45863-3.29053-6.08524-5.071V58.03685c-.64927-.70906-2.38283-1.38579-3.04261-2.02841-1.31956-1.28511.37711-1.023-1.01421-2.02841-.69569-.5027-3.33579.42921-4.05682,0-1.8027-1.07317-2.04117,1.60255-4.05682,1.0142-.40314-.11771-1.21458,3.51543-1.6281,3.418a24.95515,24.95515,0,0,0-2.54767-.46093c-.16359-.02055-.32659-.04223-.49192-.05985q-.24969-.02724-.5023-.04955c-.34482-.03039-.692-.05672-1.04423-.07461-.0439-.00226-.08832-.00379-.13254-.00546l-.13254-.00545c-.41106-.017-.82538-.029-1.24714-.029a20.58935,20.58935,0,0,0-4.44314.50264,24.27616,24.27616,0,0,0-3.34039,1.00147q-1.10459.41787-2.18809.94328c-.68.32979-1.34962.69549-2.00933,1.08506-.03977.02348-.08146.04177-.12117.06544a28.78341,28.78341,0,0,0-8.26668,7.432q-.75165,1.00692-1.40827,2.084-.32739.538-.62859,1.09224a24.79094,24.79094,0,0,0-1.092,2.27807,22.31423,22.31423,0,0,0-.40654,16.48953q5.96834-4.82214,11.92329-9.65932,5.30646-4.3122,10.59788-8.65067c2.158-1.75834,8.71157-5.86348,11.41222-1.7704,6.34067,9.60986,11.36608,13.42476,16.80671,21.60684l-.15-26.73466Z"/><path class="cls-4" d="M70.27455,91.32772l-16.349-21.39361c-3.46746-3.46747-9.25425.69862-11.4122,2.457q-5.28771,4.34612-10.59789,8.65067-5.95425,4.83861-11.92329,9.65932c.1344.37282.25424.752.40654,1.11666a24.78691,24.78691,0,0,0,1.092,2.278q.301.55425.62859,1.09231.6547,1.07609,1.40828,2.084a28.78406,28.78406,0,0,0,8.26667,7.43186c.03971.02367.08141.042.12117.06544.65971.38964,1.32934.75534,2.00932,1.08506q1.08154.5244,2.1881.94335a24.29749,24.29749,0,0,0,3.34039,1.00141,20.59429,20.59429,0,0,0,4.44315.50263c.43094,0,.85436-.01184,1.2742-.02966l.10381-.00406c.03464-.00119.06936-.00232.10367-.00405.35772-.0177.70946-.04509,1.05933-.07563.14717-.01315.29454-.0258.44031-.04122.27281-.02834.54221-.06245.81041-.09855q.60872-.08211,1.20228-.191-.5937.10889-1.20233.191c6.482-.89295,11.64443-4.12062,16.51387-9.19587l.04242.05673c2.06127-2.14692,5.21771-3.15508,7.25325-5.9544Z"/><path class="cls-3" d="M153.12807,79.101a22.84739,22.84739,0,0,0-.591-2.49646,24.49916,24.49916,0,0,0-2.57347-5.76336q-.6548-1.07606-1.40827-2.084a28.35789,28.35789,0,0,0-4.269-4.5556q-.94418-.8092-1.94734-1.53024-1.00123-.72014-2.05036-1.34616-1.047-.62516-2.1305-1.1505-1.08164-.52442-2.18809-.94328-1.10468-.41808-2.22287-.72469c-.42488-.11638-.85064-.20822-1.27612-.29926-.6925-.14811-1.38467-.27413-2.07391-.35254a19.54718,19.54718,0,0,0-2.21063-.12762c-.42163,0-.83621.01158-1.2472.029-.08818.00366-.1771.00652-.26495.01091q-.528.02742-1.0443.07461c-.16845.01477-.33564.03179-.5023.04955-.16506.018-.32852.03884-.49192.05985-.78733.09876-1.54959.242-2.3.40713-.22306.04908-.44192.107-.66191.16187q-.821.20471-1.6155.46253c-.13134.0427-.27046.07-.40081.11479-.0798.0274-.15455.066-.23409.09423-.70533.25092-1.40076.523-2.07769.83694-.038.01756-.07376.04084-.11173.05859-.16606.07728-.32374.17551-.48827.25657a27.07165,27.07165,0,0,0-3.74226,2.23544q-1.046.74966-2.05994,1.60845-1.015.85829-2.00534,1.82325-.99146.96432-1.96557,2.03234-1.36453,1.49352-2.71173,3.18357-1.35068,1.68874-2.70429,3.56643-1.35705,1.87649-2.73693,3.93427-1.3833,2.05654-2.80963,4.28686.89171,1.39018,1.76213,2.70867c.05853.08858.11565.17112.17411.2593.33272.50336.663.98983.99249,1.4783.18654.27619.37561.56421.56136.836.34023.498.68086.99908,1.01856,1.48056q1.47248,2.09974,2.92554,3.98554c.21547.27858.43108.5398.64655.81114.27033.34036.54053.68877.81113,1.01763.30319.36842.60771.71617.91183,1.0699.07335.08572.14677.17351.22019.25837.5972.68711,1.19613,1.35546,1.80024,1.98485l.00426.00459v-.00007l.00007.00007.04256-.05666c.531.55337,1.0693,1.06531,1.60851,1.57413a6.865,6.865,0,0,0,.65206-.45435c4.08476-3.26784,8.31816-6.31288,12.3287-9.655,2.15377-1.78249,3.78775-1.70814,5.94153-.07422,1.34642,1.00992,2.70761,1.99623,4.05909,2.99717q6.82143,5.05227,13.72579,10.015c4.93826-4.08229,7.27684-10.71466,7.27684-20.24091A22.32929,22.32929,0,0,0,153.12807,79.101Zm-10.25539-5.67518a10.39966,10.39966,0,0,1-10.40156,10.37689l-.02135.00107a10.40054,10.40054,0,0,1-10.378-10.42291l.00006-.0036v-.00279A10.2925,10.2925,0,0,1,132.281,62.99923c.06338-.00054.12676-.00027.19014.00039.00891.00007.01788-.00006.0268.00007a10.26188,10.26188,0,0,1,10.37549,10.14686Q142.87491,73.2862,142.87268,73.42586Z"/><path class="cls-4" d="M132.47112,93.24049c-1.35148-1.00094-2.71267-1.98725-4.05909-2.99717-2.15378-1.63392-3.78776-1.70827-5.94153.07422-4.01054,3.34212-8.24394,6.38716-12.3287,9.655a6.865,6.865,0,0,1-.65206.45435c.85164.80362,1.71139,1.57034,2.59236,2.25871q.71923.56222,1.45483,1.07157a27.12337,27.12337,0,0,0,3.02217,1.81953,24.12042,24.12042,0,0,0,7.8358,2.47185c.26821.03611.53755.07023.81034.09856.14578.01543.29322.02806.44039.04123.34987.03053.70161.05793,1.05919.07562.06877.00352.1386.00512.20763.00811.41976.01782.84326.02966,1.27413.02966,1.50863,0,2.91889-.08014,4.28454-.19758,5.83625-.502,10.3838-2.08587,13.72579-4.84862Q139.29208,98.28855,132.47112,93.24049Z"/><path class="cls-5" d="M132.49792,62.99969c-.00892-.00013-.01789,0-.0268-.00007-.06338-.00066-.12676-.00093-.19014-.00039a10.2925,10.2925,0,0,0-10.20917,10.37529v.00279l-.00006.0036a10.40054,10.40054,0,0,0,10.378,10.42291l.02135-.00107a10.39966,10.39966,0,0,0,10.40156-10.37689q.0023-.13965.00073-.27931A10.26188,10.26188,0,0,0,132.49792,62.99969Z"/><path class="cls-6" d="M47.68806,108.04855q1.2175-.16419,2.37529-.43533,1.15886-.27082,2.264-.64641a29.83063,29.83063,0,0,0,11.917-8.05739l-.04243-.05673C59.3325,103.928,54.17006,107.15561,47.68806,108.04855Z"/><path class="cls-4" d="M45.27439,108.268c.03465-.00119.06943-.00232.10375-.00405.35765-.01769.70939-.04509,1.05926-.07562-.34987.03053-.70161.05793-1.05933.07562C45.34376,108.26569,45.309,108.26682,45.27439,108.268Z"/><path class="cls-7" d="M45.27439,108.268c.03465-.00119.06943-.00232.10375-.00405.35765-.01769.70939-.04509,1.05926-.07562-.34987.03053-.70161.05793-1.05933.07562C45.34376,108.26569,45.309,108.26682,45.27439,108.268Z"/><path class="cls-3" d="M45.27606,57.76183l-.13248-.00545c-.41112-.017-.82544-.029-1.2472-.029.42176,0,.83608.012,1.24714.029Z"/><path class="cls-8" d="M45.27606,57.76183l-.13248-.00545c-.41112-.017-.82544-.029-1.2472-.029.42176,0,.83608.012,1.24714.029Z"/><path class="cls-6" d="M47.803,107.91134q1.21591-.164,2.37216-.43474,1.15728-.27044,2.261-.64557a29.7921,29.7921,0,0,0,11.90131-8.04671l-.04244-.05666C59.43209,103.7962,54.27641,107.0196,47.803,107.91134Z"/><path class="cls-9" d="M70.5999,91.12631a71.95783,71.95783,0,0,1-6.26244,7.658A29.7921,29.7921,0,0,1,52.43615,106.831q-1.10466.37477-2.261.64557-1.15728.27042-2.37209.43474c-.26789.03608-.53691.07016-.80935.09842-.1456.01544-.29274.02807-.43975.04123-.34941.03047-.70069.0578-1.05785.07551-.03428.00174-.069.00281-.10364.004l-.10364.00408c-.4193.01777-.84215.0296-1.27255.0296a20.56656,20.56656,0,0,1-4.43728-.502,24.26152,24.26152,0,0,1-3.33593-1.00006q-1.10316-.41747-2.1852-.94211-1.08011-.52371-2.12773-1.149A28.74507,28.74507,0,0,1,23.67443,97.149q-.75063-1.00563-1.40639-2.08116-.327-.53724-.62779-1.09086a24.75906,24.75906,0,0,1-1.09059-2.275,22.5167,22.5167,0,0,1,0-17.583A24.76031,24.76031,0,0,1,21.64025,71.844q.3006-.55348.62779-1.09079.65382-1.0746,1.40639-2.08123a28.74547,28.74547,0,0,1,8.25573-7.42213q1.04573-.62434,2.12773-1.149,1.08011-.52371,2.1852-.94205A24.24241,24.24241,0,0,1,39.579,58.15865a20.56217,20.56217,0,0,1,4.43728-.502c.42124,0,.835.012,1.24555.02893l.13231.00541c.04417.00167.08854.00321.13237.00548.35182.01784.69849.04417,1.04289.07451q.25207.02265.50163.04951c.16511.01758.32789.03923.49127.05974a24.92754,24.92754,0,0,1,2.54429.46034q.61944.14594,1.22317.32228a24.51762,24.51762,0,0,1,5.70048,2.49825q1.08011.643,2.12105,1.39664a36.29926,36.29926,0,0,1,4.051,3.43609q.98839.96264,1.95967,2.02523l.0401-.06A76.05551,76.05551,0,0,1,70.5862,74.6667C73.21262,70.524,77.181,64.3,78.59857,62.23683c.56872-.82778,1.16222-1.66913,1.76957-2.51583-6.54724-7.952-14.4108-14.59749-24.915-17.42531-.0258-.007-.05092-.01456-.07671-.02151-.50751-.13558-1.01957-.26468-1.53951-.38216q-.10824-.02464-.21676-.04891c-.50117-.11106-1.00921-.21169-1.52206-.30537-.10164-.01858-.20181-.039-.30378-.0568-.59324-.10391-1.19323-.19779-1.80264-.27771l-.06963-.00909q-.49625-.06435-1.00052-.11694c-.06381-.00681-.12742-.0139-.19151-.02031-.298-.03034-.59865-.05673-.90042-.08126-.09261-.00755-.18476-.01583-.27777-.02278-.28019-.021-.56284-.03816-.8463-.05413-.10932-.00621-.2177-.0137-.32749-.01911-.28372-.014-.57025-.02372-.85725-.03261-.10692-.00334-.21263-.00848-.32008-.01109q-.58765-.01443-1.18441-.0149c-22.42536,0-42.08953,19.66416-42.08953,42.08946S21.59094,125,44.0163,125q.59589,0,1.18207-.0147c.1116-.00267.22145-.00822.33264-.01169.28012-.00876.55983-.01791.83674-.03148.11988-.00581.23822-.01423.35756-.021.26849-.01523.53665-.031.80206-.05072.10986-.00815.21831-.01824.32763-.02713.27624-.02258.55181-.04617.82477-.07357.09168-.00922.18249-.01964.27377-.02933.29308-.03127.585-.06428.87416-.101.06736-.00848.13425-.0177.20133-.02652q.47731-.063.94854-.13492l.10577-.01663c.5728-.08961,1.13637-.19278,1.69473-.30364.10651-.02125.21109-.04537.31714-.06742q.69561-.14375,1.37685-.30845c.09395-.02286.1869-.04684.28032-.0703q.7347-.18382,1.45283-.392l.11567-.03348c10.00819-2.9346,17.58722-9.3669,23.92785-17.03487-.98809-1.48057-1.64428-2.5902-1.95313-3.13233Z"/><path class="cls-10" d="M45.39249,108.13051c.03461-.0012.06936-.00227.10364-.004.35716-.01771.70844-.045,1.05785-.07551-.34941.03047-.70069.0578-1.05792.07551C45.46178,108.12824,45.4271,108.12931,45.39249,108.13051Z"/><polygon class="cls-11" points="65.202 67.959 65.162 68.019 65.162 68.019 65.202 67.959"/><path class="cls-12" d="M45.39416,57.691l-.13231-.00541c-.41055-.017-.82431-.02893-1.24555-.02893.42124,0,.835.012,1.24549.02893Z"/><path class="cls-13" d="M153.59227,4.16066v45.7029a41.32689,41.32689,0,0,0-25.397-9.04262q-.5972,0-1.18442.015c-.10738.00261-.21316.00775-.32007.01109-.287.009-.57346.01865-.85719.03261-.10978.00535-.21824.0129-.32762.01911-.28339.016-.56611.03308-.84616.05413-.093.007-.18517.01523-.27778.02278-.30183.02453-.6024.05092-.90049.08126-.064.00641-.12769.01356-.19144.02031q-.50377.05343-1.00059.11694l-.06962.00909c-.60968.07945-1.209.17447-1.80265.27771-.102.01784-.2022.03822-.3037.0568q-.77.13962-1.52206.30537-.10856.02416-.21677.04891c-14.653,3.31061-24.30519,13.91177-32.26884,25.5027l-.00167.0024c-.33625.4894-.656.98649-.98655,1.479-1.08545,1.6525-2.636,4.06663-4.16993,6.4706-2.01126,3.15224-3.98283,6.26966-4.79752,7.56379l9.95567,15.51408v.00007s10.62482,19.5368,29.78488,24.86134c.03863.01076.07712.02225.11567.03348.47824.13939.9633.269,1.45284.39211.09341.02339.18636.04737.28031.07023.45352.11059.91338.21222,1.37686.30845.106.022.21062.04617.31713.06742q.83694.167,1.69473.30364l.10564.01657q.4707.07287.94867.135c.06709.00875.134.018.20133.02659.28921.03675.58108.0697.8741.101.09134.00969.18208.02011.2737.02933.2731.0274.5486.051.82491.07357.10925.00889.21777.01905.32756.02713.26548.01972.53357.03542.80212.05072.11934.00675.23755.01517.35756.021.27685.01357.55663.02272.83674.03148.11119.00347.221.009.33264.01169q.58645.01423,1.182.0147c26.41086,0,41.69461-14.94977,42.08044-41.07224h.00915V4.16066Zm-25.397,104.00353c-.43033,0-.85325-.01183-1.27249-.0296-.069-.003-.13865-.00461-.20734-.00809-.3571-.01771-.70838-.045-1.05779-.07551-.147-.01316-.29421-.02579-.43982-.04123-.27243-.02826-.54138-.06234-.80927-.09842a24.08727,24.08727,0,0,1-7.82547-2.46859,27.0823,27.0823,0,0,1-3.01813-1.81708q-.735-.50857-1.453-1.07014a39.81786,39.81786,0,0,1-4.19532-3.82781l-.0425.0566-.00007-.00007v.00007l-.00421-.00461c-.60333-.62852-1.20145-1.296-1.7979-1.98219-.0733-.0848-.1466-.17247-.21991-.25807-.3037-.35328-.60781-.70055-.91057-1.06847-.2703-.32843-.54012-.67637-.81008-1.01629-.21517-.271-.43053-.53183-.6457-.81008q-1.45537-1.88166-2.9217-3.98029c-.33725-.48085-.67744-.98121-1.01722-1.47856-.1855-.27149-.37427-.55909-.56057-.83493-.329-.4878-.65893-.97366-.99123-1.47636-.05834-.08807-.1154-.17046-.17387-.25893q-.87032-1.31775-1.75981-2.70514,1.4278-2.22615,2.806-4.28118,1.3815-2.05377,2.73326-3.929,1.35515-1.87394,2.70073-3.56172,1.34883-1.68651,2.70814-3.17937.97406-1.06617,1.963-2.0297.9902-.96313,2.0027-1.82082,1.01376-.85728,2.05717-1.60632a27.04085,27.04085,0,0,1,3.73733-2.23251c.16431-.08092.32181-.179.48766-.25619.03789-.01778.07357-.041.11153-.05854.6761-.31346,1.37057-.58522,2.075-.8358.07939-.0282.154-.06676.23375-.09415.13016-.04477.26909-.072.40026-.1146q.79323-.2576,1.6134-.46194c.21971-.05479.43828-.11266.661-.16164.74947-.16491,1.5107-.308,2.297-.40661.16318-.021.32642-.04176.49127-.05974.16645-.01777.33344-.03474.50163-.04951q.516-.04652,1.04295-.07451c.08774-.00441.17654-.00721.26461-.01089.41042-.01744.82445-.02893,1.24556-.02893a19.52427,19.52427,0,0,1,2.20771.12743,22.16334,22.16334,0,0,1,3.34555.6509q1.11489.30531,2.21995.72375,1.10315.41736,2.18519.94205,1.08011.52381,2.12773,1.149,1.04573.62426,2.04762,1.34438,1,.71907,1.94477,1.52821a28.32178,28.32178,0,0,1,4.26334,4.54954q.75064,1.00564,1.4064,2.08123a24.46705,24.46705,0,0,1,2.57009,5.75573,22.81416,22.81416,0,0,1,.59016,2.49318,22.30078,22.30078,0,0,1,.34527,3.90839C153.449,100.36926,145.654,108.16419,128.19523,108.16419Z"/></svg>