<svg xmlns="http://www.w3.org/2000/svg" role="img" xmlns:xlink="http://www.w3.org/1999/xlink" viewBox="-9.71 -11.21 868.92 179.92"><defs><linearGradient id="a" x1="210.54" x2="64.26" y1="82.035" y2="76.475" gradientTransform="matrix(1 0 0 -1 0 232.496)" gradientUnits="userSpaceOnUse"><stop offset="0" stop-color="#ed1c24"/><stop offset="1" stop-color="#f7941d"/></linearGradient><linearGradient id="b" x1="207.93" x2="61.65" y1="150.787" y2="145.227" xlink:href="#a"/><linearGradient id="c" x1="109.927" x2="10.785" y1="135.415" y2="131.654" xlink:href="#a"/><linearGradient id="d" x1="214.748" x2="95.105" y1="156.992" y2="152.288" xlink:href="#a"/></defs><path fill="#48494a" d="M249.312 136.59c-9.653 0-14.577-8.286-14.577-18.212s4.907-18.228 14.577-18.228a14.27 14.27 0 0 1 11.68 5.598l4.826-4.15a20.24 20.24 0 0 0-16.587-7.787c-14.013 0-21.671 11.616-21.671 24.438s7.481 24.615 21.8 24.615a20.078 20.078 0 0 0 16.539-7.883l-4.827-4.456a14.158 14.158 0 0 1-11.76 6.065zm47.557-42.78a65.672 65.672 0 0 0-14.126 1.497v45.74a57.79 57.79 0 0 0 14.078 1.817c14.318 0 22.298-11.744 22.298-24.872s-8.173-24.181-22.25-24.181zm-.177 42.522a22.862 22.862 0 0 1-7.417-1.19V100.97a33.787 33.787 0 0 1 7.417-.82c9.798 0 15.332 8.044 15.332 17.842 0 10.184-5.164 18.34-15.332 18.34zm41.395-2.123a4.15 4.15 0 1 0 4.021 4.277q.003-.104.001-.207a4.054 4.054 0 0 0-4.022-4.07zm21.623 8.285h6.532v-21.413h21.8l.499-6.098h-22.299v-14.769h23.618l.499-6.098H359.71v48.378zm66.783-48.684c-14.383 0-21.864 11.681-21.864 24.44s7.481 24.614 21.864 24.614c14.077 0 21.735-11.809 21.735-24.615s-7.658-24.438-21.735-24.438zm0 42.715c-9.653 0-14.64-8.285-14.64-18.212s4.826-18.228 14.64-18.228 14.64 8.238 14.64 18.228-4.97 18.277-14.704 18.277zm65.834-10.119c0 5.1-4.2 9.99-11.053 9.99-7.722 0-11.262-4.826-11.262-9.99v-32.29l-6.532.5v32.32c0 10.86 9.106 15.88 17.842 15.88 8.238 0 17.601-5.26 17.601-15.88v-32.82l-6.548.5zm55.424 8.108c-8.237-10.554-18.47-37.244-25.13-40.398h-6.435v48.378h6.532v-39.143c7.722 11.938 16.893 36.183 25.13 39.143h6.532V94.116l-6.532.5zm38.886-40.704a65.56 65.56 0 0 0-14.126 1.497v45.74a57.756 57.756 0 0 0 14.062 1.817c14.334 0 22.298-11.744 22.298-24.872s-8.157-24.181-22.234-24.181zm-.193 42.522a22.845 22.845 0 0 1-7.4-1.19V100.97a33.672 33.672 0 0 1 7.4-.82c9.814 0 15.332 8.044 15.332 17.842 0 10.184-5.148 18.34-15.332 18.34zm51.66-42.216c-7.546 14.705-15.22 32.177-17.472 48.378h6.532a100.7 100.7 0 0 1 2.896-13.128h22.797a100.696 100.696 0 0 1 2.896 13.128h6.532c-2.269-16.088-9.927-33.673-17.472-48.378zm-6.098 29.153a198.882 198.882 0 0 1 9.476-22.428 207.908 207.908 0 0 1 9.428 22.428zm39.706-23.618h13.322v42.843h6.532V99.651h12.629l.499-5.535h-32.483l-.499 5.535zm50.261 42.843h6.531V94.116l-6.531.515v47.863zm45.481-48.684c-14.383 0-21.864 11.681-21.864 24.44s7.481 24.614 21.864 24.614c14.078 0 21.736-11.809 21.736-24.615s-7.658-24.438-21.736-24.438zm0 42.715c-9.733 0-14.64-8.285-14.64-18.212s4.827-18.228 14.64-18.228 14.64 8.238 14.64 18.228-4.954 18.277-14.704 18.277zm68.859-41.91v39.9c-8.221-10.555-18.47-37.245-25.13-40.399h-6.436v48.378h6.468v-39.143c7.739 11.938 16.909 36.183 25.13 39.143h6.532V94.116z"/><path fill="#c49a6c" d="M137.17 153.038c1.42-.19 2.8-.44 4.15-.76s2.66-.69 4-1.12c7.72-2.62 14.41-7.41 20.81-14.07l-.08-.1c-8.55 8.86-17.56 14.5-28.88 16.05z"/><path fill="url(#a)" d="M133 153.428h.19c.62 0 1.23-.08 1.84-.13-.61.05-1.22.1-1.85.13z"/><path fill="url(#b)" d="M167.59 83.188l-.07.11.07-.11z"/><path fill="url(#c)" d="M88.325 108.739a86.299 86.299 0 0 1-7.42 9.074c-4.338 4.514-8.872 7.76-14.104 9.536a27.366 27.366 0 0 1-2.71.759c-.943.21-1.85.386-2.813.515-.319.047-.637.088-.962.122l-.522.047c-.414.034-.827.068-1.247.088H56.79a24.215 24.215 0 0 1-5.259-.596 28.593 28.593 0 0 1-3.87-1.145 24.654 24.654 0 0 1-2.588-1.119c-.854-.44-1.694-.867-2.521-1.355a34.042 34.042 0 0 1-9.786-8.81 34.174 34.174 0 0 1-1.668-2.467 30.401 30.401 0 0 1-.738-1.295 29.743 29.743 0 0 1-1.295-2.71 26.729 26.729 0 0 1 0-20.84 29.745 29.745 0 0 1 1.295-2.71c.237-.441.48-.868.738-1.295a34.176 34.176 0 0 1 1.668-2.467 34.163 34.163 0 0 1 9.786-8.81 34.813 34.813 0 0 1 2.52-1.356q1.27-.572 2.59-1.016a28.592 28.592 0 0 1 3.95-1.186 24.214 24.214 0 0 1 5.26-.597h1.789c.413 0 .827.054 1.233.088l.597.061.583.068c1.03.136 2.033.319 3.015.549.488.115.97.244 1.444.38a29.284 29.284 0 0 1 6.777 2.961 34.126 34.126 0 0 1 2.514 1.654 42.614 42.614 0 0 1 4.798 4.066q1.166 1.139 2.325 2.4l.047-.075a91.192 91.192 0 0 1 6.33 7.976c3.111-4.906 7.814-12.28 9.488-14.726.678-.983 1.356-1.98 2.094-2.982-7.746-9.448-17.064-17.296-29.514-20.643h-.088a51.148 51.148 0 0 0-1.823-.454l-.258-.061c-.596-.13-1.2-.251-1.802-.36l-.36-.067a46.081 46.081 0 0 0-2.141-.326h-.081a33.35 33.35 0 0 0-1.186-.135h-.224l-1.07-.095h-.326l-1.003-.068h-.386l-1.017-.04h-1.782C30.273 49.133 7 72.433 7 99s23.3 49.873 49.873 49.873h1.796l.99-.04h.42l.955-.055h.386l.976-.088h.325l1.037-.122.237-.034 1.125-.156h.122c.678-.108 1.356-.23 2.034-.36l.372-.08a63.296 63.296 0 0 0 1.634-.367l.332-.08c.576-.15 1.152-.299 1.721-.468l.136-.041c11.86-3.477 20.84-11.094 28.348-20.182a69.039 69.039 0 0 1-2.31-3.707z"/><path fill="url(#d)" d="M186.675 5.693v54.156a48.924 48.924 0 0 0-30.09-10.715h-1.783l-1.017.04-.4.028-1.002.068h-.326l-1.07.095h-.224c-.4.04-.793.08-1.186.135h-.088a43.73 43.73 0 0 0-2.135.325l-.36.068c-.61.109-1.206.23-1.802.36l-.258.06c-17.362 3.924-28.795 16.482-38.23 30.22-.399.582-.772 1.172-1.165 1.755a750.29 750.29 0 0 0-4.94 7.665 1505.043 1505.043 0 0 0-5.686 8.959l11.799 18.386s12.585 23.15 35.288 29.454l.136.04c.569.17 1.145.319 1.72.468l.333.081c.535.136 1.084.25 1.633.366l.373.081c.678.13 1.355.251 2.033.36h.122l1.125.156.237.033 1.037.122h.326l.975.089h.387l.955.054h.42l.99.04h1.796c31.297 0 49.405-17.715 49.86-48.666V5.693zm-30.09 123.235h-1.756c-.42 0-.834-.054-1.247-.088l-.522-.048a21.915 21.915 0 0 1-.962-.122 28.078 28.078 0 0 1-5.476-1.301 28.383 28.383 0 0 1-3.795-1.62 31.918 31.918 0 0 1-3.579-2.155c-.576-.4-1.152-.82-1.721-1.267a47.141 47.141 0 0 1-4.968-4.534l-.054.068a66.492 66.492 0 0 1-2.135-2.352c-.088-.095-.169-.203-.257-.305-.36-.413-.718-.827-1.078-1.267s-.643-.8-.962-1.2-.508-.63-.766-.962a105.529 105.529 0 0 1-3.463-4.744c-.4-.57-.8-1.159-1.206-1.749-.217-.325-.44-.677-.678-.99-.386-.582-.78-1.151-1.172-1.748l-.204-.311c-.677-1.037-1.355-2.108-2.087-3.206q1.687-2.636 3.327-5.07c1.092-1.619 2.17-3.178 3.24-4.655s2.128-2.887 3.199-4.222 2.128-2.59 3.205-3.768q1.16-1.26 2.325-2.4a43.453 43.453 0 0 1 4.812-4.066 32.95 32.95 0 0 1 4.432-2.643c.19-.095.38-.21.576-.305l.129-.067c.806-.373 1.626-.678 2.46-.99l.278-.115c.156-.048.318-.081.474-.136a25.705 25.705 0 0 1 1.911-.542l.786-.196c.888-.19 1.79-.36 2.711-.482l.583-.067.596-.061c.407 0 .82-.068 1.234-.088h1.789a24.275 24.275 0 0 1 2.616.149 27.467 27.467 0 0 1 3.965.772c.88.244 1.762.529 2.63.86a27.875 27.875 0 0 1 2.588 1.12 33.16 33.16 0 0 1 4.947 2.948 32.246 32.246 0 0 1 2.304 1.815 33.445 33.445 0 0 1 5.056 5.422c.59.793 1.145 1.62 1.667 2.467a29.217 29.217 0 0 1 3.043 6.818 27.109 27.109 0 0 1 .678 2.955 26.071 26.071 0 0 1 .407 4.628c.04 20.576-9.19 29.82-29.88 29.82z"/></svg>