<?xml version="1.0" encoding="utf-8"?>
<!-- Generator: Adobe Illustrator 22.1.0, SVG Export Plug-In . SVG Version: 6.00 Build 0)  -->
<svg version="1.1" id="Layer_1" xmlns="http://www.w3.org/2000/svg" xmlns:xlink="http://www.w3.org/1999/xlink" x="0px" y="0px"
	 viewBox="0 0 144 29.8" style="enable-background:new 0 0 144 29.8;" xml:space="preserve">
<style type="text/css">
	.st0{fill:#48494A;}
	.st1{fill:#C49A6C;}
	.st2{fill:url(#SVGID_1_);}
	.st3{fill:url(#SVGID_2_);}
	.st4{fill:url(#SVGID_3_);}
	.st5{fill:url(#SVGID_4_);}
</style>
<path class="st0" d="M57,19.4c-1.2,0-1.9-1.6-1.9-3.5s0.6-3.5,1.9-3.5c0.6,0,1.1,0.4,1.5,1.1l0.6-0.8c-0.5-1-1.3-1.5-2.1-1.5
	c-1.8,0-2.8,2.2-2.8,4.7s1,4.7,2.8,4.7c0.8,0,1.6-0.5,2.1-1.5l-0.6-0.9C58.1,19,57.6,19.4,57,19.4L57,19.4z M63,11.2
	c-0.6,0-1.2,0.1-1.8,0.3v8.8c0.6,0.2,1.2,0.3,1.8,0.3c1.8,0,2.8-2.3,2.8-4.8S64.8,11.2,63,11.2L63,11.2z M63,19.4
	c-0.3,0-0.6-0.1-0.9-0.2v-6.6c0.3-0.1,0.6-0.2,0.9-0.2c1.2,0,2,1.5,2,3.4C65,17.8,64.3,19.4,63,19.4z M68.3,19
	c-0.3,0-0.5,0.3-0.5,0.8s0.2,0.8,0.5,0.8c0.3,0,0.5-0.3,0.5-0.8c0,0,0,0,0,0C68.8,19.3,68.6,19,68.3,19L68.3,19z M71,20.6h0.8v-4.1
	h2.8l0.1-1.2h-2.8v-2.8h3l0.1-1.2H71L71,20.6L71,20.6z M79.5,11.2c-1.8,0-2.8,2.2-2.8,4.7s1,4.7,2.8,4.7c1.8,0,2.8-2.3,2.8-4.7
	S81.3,11.2,79.5,11.2L79.5,11.2z M79.5,19.4c-1.2,0-1.9-1.6-1.9-3.5s0.6-3.5,1.9-3.5c1.2,0,1.9,1.6,1.9,3.5S80.8,19.4,79.5,19.4
	L79.5,19.4z M87.9,17.5c0,1-0.5,1.9-1.4,1.9c-1,0-1.4-0.9-1.4-1.9v-6.2l-0.8,0.1v6.2c0,2.1,1.2,3.1,2.3,3.1c1,0,2.2-1,2.2-3.1v-6.3
	l-0.8,0.1L87.9,17.5z M95,19c-1-2-2.4-7.2-3.2-7.8h-0.8v9.3h0.8V13c1,2.3,2.2,7,3.2,7.5h0.8v-9.3L95,11.3L95,19z M99.9,11.2
	c-0.6,0-1.2,0.1-1.8,0.3v8.8c0.6,0.2,1.2,0.3,1.8,0.3c1.8,0,2.8-2.3,2.8-4.8S101.7,11.2,99.9,11.2L99.9,11.2z M99.9,19.4
	c-0.3,0-0.6-0.1-0.9-0.2v-6.6c0.3-0.1,0.6-0.2,0.9-0.2c1.2,0,2,1.5,2,3.4C101.8,17.8,101.2,19.4,99.9,19.4L99.9,19.4z M106.5,11.2
	c-1,2.8-1.9,6.2-2.2,9.3h0.8c0.1-0.9,0.2-1.7,0.4-2.5h2.9c0.2,0.8,0.3,1.7,0.4,2.5h0.8c-0.3-3.1-1.3-6.5-2.2-9.3L106.5,11.2z
	 M105.7,16.9c0.3-1.5,0.7-2.9,1.2-4.3c0.5,1.4,0.9,2.8,1.2,4.3H105.7z M110.7,12.3h1.7v8.3h0.8v-8.3h1.6l0.1-1.1h-4.1L110.7,12.3
	L110.7,12.3z M117.1,20.6h0.8v-9.3l-0.8,0.1V20.6L117.1,20.6z M122.9,11.2c-1.8,0-2.8,2.2-2.8,4.7s1,4.7,2.8,4.7
	c1.8,0,2.8-2.3,2.8-4.7S124.7,11.2,122.9,11.2L122.9,11.2z M122.9,19.4c-1.2,0-1.9-1.6-1.9-3.5s0.6-3.5,1.9-3.5
	c1.2,0,1.9,1.6,1.9,3.5S124.2,19.4,122.9,19.4L122.9,19.4z M131.7,11.3V19c-1-2-2.4-7.2-3.2-7.8h-0.8v9.3h0.8V13
	c1,2.3,2.2,7,3.2,7.5h0.8v-9.3L131.7,11.3z"/>
<path class="st1" d="M-215.6,89.2c1.4-0.2,2.8-0.4,4.1-0.8s2.7-0.7,4-1.1c7.7-2.6,14.4-7.4,20.8-14.1l-0.1-0.1
	C-195.3,82-204.3,87.6-215.6,89.2L-215.6,89.2z"/>
<linearGradient id="SVGID_1_" gradientUnits="userSpaceOnUse" x1="-142.21" y1="5038.123" x2="-288.49" y2="5043.6831" gradientTransform="matrix(1 0 0 1 0 -4951.5039)">
	<stop  offset="0" style="stop-color:#ED1C24"/>
	<stop  offset="1" style="stop-color:#F7941D"/>
</linearGradient>
<path class="st2" d="M-219.7,89.6h0.2c0.6,0,1.2-0.1,1.8-0.1c-0.6,0.1-1.2,0.1-1.9,0.1H-219.7z"/>
<linearGradient id="SVGID_2_" gradientUnits="userSpaceOnUse" x1="-144.82" y1="4969.3706" x2="-291.1" y2="4974.9307" gradientTransform="matrix(1 0 0 1 0 -4951.5039)">
	<stop  offset="0" style="stop-color:#ED1C24"/>
	<stop  offset="1" style="stop-color:#F7941D"/>
</linearGradient>
<path class="st3" d="M-185.2,19.3l-0.1,0.1L-185.2,19.3z"/>
<linearGradient id="SVGID_3_" gradientUnits="userSpaceOnUse" x1="29.841" y1="4967.9512" x2="6.84" y2="4968.8237" gradientTransform="matrix(1 0 0 1 0 -4951.5039)">
	<stop  offset="0" style="stop-color:#ED1C24"/>
	<stop  offset="1" style="stop-color:#F7941D"/>
</linearGradient>
<path class="st4" d="M24.9,18.8c-0.5,0.6-1.1,1.2-1.7,1.8c-1,0.9-2.1,1.5-3.3,1.9c-0.2,0.1-0.4,0.1-0.6,0.2c-0.2,0-0.4,0.1-0.7,0.1
	c-0.1,0-0.1,0-0.2,0l-0.1,0c-0.1,0-0.2,0-0.3,0h-0.4c-0.4,0-0.8,0-1.2-0.1c-0.3-0.1-0.6-0.1-0.9-0.2c-0.2-0.1-0.4-0.1-0.6-0.2
	c-0.2-0.1-0.4-0.2-0.6-0.3c-0.9-0.5-1.7-1.1-2.3-1.8c-0.1-0.2-0.3-0.3-0.4-0.5c-0.1-0.1-0.1-0.2-0.2-0.3c-0.1-0.2-0.2-0.4-0.3-0.5
	c-0.7-1.3-0.7-2.8,0-4.2c0.1-0.2,0.2-0.4,0.3-0.5c0.1-0.1,0.1-0.2,0.2-0.3c0.1-0.2,0.3-0.3,0.4-0.5c0.6-0.7,1.4-1.3,2.3-1.8
	c0.2-0.1,0.4-0.2,0.6-0.3c0.2-0.1,0.4-0.1,0.6-0.2c0.3-0.1,0.6-0.2,0.9-0.2c0.4-0.1,0.8-0.1,1.2-0.1H18c0.1,0,0.2,0,0.3,0l0.1,0
	l0.1,0c0.2,0,0.5,0.1,0.7,0.1c0.1,0,0.2,0,0.3,0.1c0.6,0.1,1.1,0.3,1.6,0.6c0.2,0.1,0.4,0.2,0.6,0.3c0.4,0.2,0.8,0.5,1.1,0.8
	c0.2,0.2,0.4,0.3,0.5,0.5l0,0c0.5,0.5,1,1,1.5,1.6c0.7-1,1.8-2.5,2.2-2.9c0.2-0.2,0.3-0.4,0.5-0.6c-1.8-1.9-4-3.5-6.9-4.1h0
	c-0.1,0-0.3-0.1-0.4-0.1l-0.1,0c-0.1,0-0.3-0.1-0.4-0.1l-0.1,0c-0.2,0-0.3,0-0.5-0.1h0c-0.1,0-0.2,0-0.3,0h-0.1l-0.2,0h-0.1l-0.2,0
	h-0.1L18,7h-0.4C11.4,6.9,6,11.6,6,16.9s5.4,10,11.6,10H18l0.2,0h0.1l0.2,0h0.1l0.2,0h0.1l0.2,0l0.1,0l0.3,0h0c0.2,0,0.3,0,0.5-0.1
	l0.1,0c0.1,0,0.3,0,0.4-0.1l0.1,0c0.1,0,0.3-0.1,0.4-0.1l0,0c2.8-0.7,4.8-2.2,6.6-4c-0.2-0.2-0.4-0.5-0.5-0.7L24.9,18.8z"/>
<linearGradient id="SVGID_4_" gradientUnits="userSpaceOnUse" x1="50.8437" y1="4964.9165" x2="25.8829" y2="4965.8979" gradientTransform="matrix(1 0 0 1 0 -4951.5039)">
	<stop  offset="0" style="stop-color:#ED1C24"/>
	<stop  offset="1" style="stop-color:#F7941D"/>
</linearGradient>
<path class="st5" d="M45.1,1v9.7c-1.8-1.2-4-1.9-6.3-1.9h-0.4l-0.2,0l-0.1,0l-0.2,0h-0.1l-0.2,0h0c-0.1,0-0.2,0-0.2,0h0
	c-0.1,0-0.3,0-0.4,0.1l-0.1,0c-0.1,0-0.3,0-0.4,0.1l-0.1,0c-3.6,0.7-6,2.9-8,5.4c-0.1,0.1-0.2,0.2-0.2,0.3c-0.3,0.5-0.7,0.9-1,1.4
	c-0.4,0.5-0.8,1.1-1.2,1.6l2.5,3.3c0,0,2.6,4.1,7.4,5.3l0,0c0.1,0,0.2,0.1,0.4,0.1l0.1,0c0.1,0,0.2,0,0.3,0.1l0.1,0
	c0.1,0,0.3,0,0.4,0.1h0l0.2,0l0,0l0.2,0h0.1l0.2,0h0.1l0.2,0h0.1l0.2,0h0.4c6.6,0,10.4-3.2,10.5-8.7V1H45.1z M38.7,22h-0.4
	c-0.1,0-0.2,0-0.3,0l-0.1,0c-0.1,0-0.1,0-0.2,0c-0.4,0-0.8-0.1-1.1-0.2c-0.3-0.1-0.5-0.2-0.8-0.3c-0.3-0.1-0.5-0.2-0.8-0.4
	c-0.1-0.1-0.2-0.1-0.4-0.2c-0.4-0.2-0.7-0.5-1-0.8l0,0c-0.2-0.1-0.3-0.3-0.4-0.4c0,0,0,0-0.1-0.1c-0.1-0.1-0.2-0.1-0.2-0.2
	s-0.1-0.1-0.2-0.2s-0.1-0.1-0.2-0.2c-0.3-0.3-0.5-0.6-0.7-0.8c-0.1-0.1-0.2-0.2-0.3-0.3c0-0.1-0.1-0.1-0.1-0.2
	c-0.1-0.1-0.2-0.2-0.2-0.3l0-0.1c-0.1-0.2-0.3-0.4-0.4-0.6c0.2-0.3,0.5-0.6,0.7-0.9c0.2-0.3,0.5-0.6,0.7-0.8
	c0.2-0.3,0.4-0.5,0.7-0.8c0.2-0.2,0.4-0.5,0.7-0.7c0.2-0.1,0.3-0.3,0.5-0.4c0.3-0.3,0.7-0.5,1-0.7c0.3-0.2,0.6-0.3,0.9-0.5
	c0,0,0.1,0,0.1-0.1l0,0c0.2-0.1,0.3-0.1,0.5-0.2l0.1,0c0,0,0.1,0,0.1,0c0.1,0,0.3-0.1,0.4-0.1l0.2,0c0.2,0,0.4-0.1,0.6-0.1l0.1,0
	l0.1,0c0.1,0,0.2,0,0.3,0h0.4c0.2,0,0.4,0,0.5,0c0.3,0,0.6,0.1,0.8,0.1c0.2,0,0.4,0.1,0.6,0.2c0.2,0.1,0.4,0.1,0.5,0.2
	c0.4,0.1,0.7,0.3,1,0.5c0.2,0.1,0.3,0.2,0.5,0.3c0.4,0.3,0.7,0.6,1.1,1c0.1,0.1,0.2,0.3,0.3,0.4c0.3,0.4,0.5,0.8,0.6,1.2
	c0.1,0.2,0.1,0.3,0.1,0.5c0.1,0.3,0.1,0.5,0.1,0.8C45,20.3,43.1,22,38.7,22L38.7,22z"/>
</svg>
